G04 #@! TF.GenerationSoftware,KiCad,Pcbnew,(5.1.9-0-10_14)*
G04 #@! TF.CreationDate,2023-01-27T17:44:20+01:00*
G04 #@! TF.ProjectId,spelkonsoll,7370656c-6b6f-46e7-936f-6c6c2e6b6963,rev?*
G04 #@! TF.SameCoordinates,Original*
G04 #@! TF.FileFunction,Soldermask,Top*
G04 #@! TF.FilePolarity,Negative*
%FSLAX46Y46*%
G04 Gerber Fmt 4.6, Leading zero omitted, Abs format (unit mm)*
G04 Created by KiCad (PCBNEW (5.1.9-0-10_14)) date 2023-01-27 17:44:20*
%MOMM*%
%LPD*%
G01*
G04 APERTURE LIST*
%ADD10C,3.810000*%
%ADD11C,2.641600*%
%ADD12C,2.082800*%
%ADD13C,1.507998*%
%ADD14O,1.600000X1.600000*%
%ADD15C,1.600000*%
%ADD16C,1.560000*%
%ADD17R,1.560000X1.560000*%
%ADD18C,1.500000*%
%ADD19C,4.000000*%
%ADD20R,1.500000X1.500000*%
%ADD21R,1.500000X2.500000*%
%ADD22O,1.500000X2.500000*%
%ADD23O,2.200000X3.500000*%
G04 APERTURE END LIST*
D10*
X116205000Y-105918000D03*
D11*
X179832000Y-105918000D03*
D10*
X171450000Y-121666000D03*
D12*
X179832000Y-113792000D03*
X107569000Y-113792000D03*
D13*
X79859998Y-82296000D03*
X79859998Y-77795999D03*
X86360000Y-77795999D03*
X86360000Y-82296000D03*
X86360000Y-93472000D03*
X86360000Y-97972001D03*
X79859998Y-97972001D03*
X79859998Y-93472000D03*
X77470000Y-91186000D03*
X72969999Y-91186000D03*
X72969999Y-84685998D03*
X77470000Y-84685998D03*
X88646000Y-84685998D03*
X93146001Y-84685998D03*
X93146001Y-91186000D03*
X88646000Y-91186000D03*
X217424000Y-84177998D03*
X221924001Y-84177998D03*
X221924001Y-90678000D03*
X217424000Y-90678000D03*
X206756000Y-99242001D03*
X206756000Y-94742000D03*
X213256002Y-94742000D03*
X213256002Y-99242001D03*
X202692000Y-90678000D03*
X198191999Y-90678000D03*
X198191999Y-84177998D03*
X202692000Y-84177998D03*
X206756000Y-80010000D03*
X206756000Y-75509999D03*
X213256002Y-75509999D03*
X213256002Y-80010000D03*
D14*
X105148380Y-91224100D03*
D15*
X112768380Y-91224100D03*
D14*
X105148380Y-87668100D03*
D15*
X112768380Y-87668100D03*
D14*
X105156000Y-84099400D03*
D15*
X112776000Y-84099400D03*
D14*
X105156000Y-80543400D03*
D15*
X112776000Y-80543400D03*
D14*
X116217700Y-91211400D03*
D15*
X123837700Y-91211400D03*
D14*
X116217700Y-87655400D03*
D15*
X123837700Y-87655400D03*
D14*
X116217700Y-84099400D03*
D15*
X123837700Y-84099400D03*
D14*
X123825000Y-80543400D03*
D15*
X116205000Y-80543400D03*
D16*
X178615200Y-99009200D03*
X176075200Y-99009200D03*
X173535200Y-99009200D03*
X170995200Y-99009200D03*
X168455200Y-99009200D03*
X165915200Y-99009200D03*
X163375200Y-99009200D03*
X160835200Y-99009200D03*
X158295200Y-99009200D03*
X155755200Y-99009200D03*
X153215200Y-99009200D03*
X150675200Y-99009200D03*
X148135200Y-99009200D03*
X145595200Y-99009200D03*
X143055200Y-99009200D03*
X140515200Y-99009200D03*
X137975200Y-99009200D03*
X135435200Y-99009200D03*
X132895200Y-99009200D03*
X176075200Y-73609200D03*
X173535200Y-73609200D03*
X170995200Y-73609200D03*
X168455200Y-73609200D03*
X165915200Y-73609200D03*
X163375200Y-73609200D03*
X160835200Y-73609200D03*
X158295200Y-73609200D03*
X155755200Y-73609200D03*
X153215200Y-73609200D03*
X150675200Y-73609200D03*
X148135200Y-73609200D03*
X145595200Y-73609200D03*
X143055200Y-73609200D03*
X140515200Y-73609200D03*
X137975200Y-73609200D03*
X178615200Y-73609200D03*
X135435200Y-73609200D03*
D17*
X132895200Y-73609200D03*
D18*
X98068000Y-114205000D03*
X98068000Y-111665000D03*
X98068000Y-109125000D03*
X98068000Y-106585000D03*
X98068000Y-104045000D03*
D19*
X99268000Y-122567000D03*
X191568000Y-122667000D03*
X191768000Y-72667000D03*
X99568000Y-72517000D03*
D18*
X192075620Y-100953080D03*
X192075620Y-98413080D03*
X192075620Y-95873080D03*
D20*
X192075620Y-93333080D03*
D18*
X98068000Y-101427000D03*
X98068000Y-98887000D03*
X98068000Y-96347000D03*
X98068000Y-93807000D03*
X98068000Y-91267000D03*
X98068000Y-88727000D03*
X98068000Y-86187000D03*
X98068000Y-83647000D03*
D20*
X98068000Y-81107000D03*
D21*
X112776000Y-71882000D03*
D22*
X114776000Y-71882000D03*
X116776000Y-71882000D03*
D23*
X110676000Y-71882000D03*
X118876000Y-71882000D03*
M02*
