G04 #@! TF.GenerationSoftware,KiCad,Pcbnew,5.1.5+dfsg1-2build2*
G04 #@! TF.CreationDate,2022-03-26T13:12:08+01:00*
G04 #@! TF.ProjectId,spelkonsoll,7370656c-6b6f-46e7-936f-6c6c2e6b6963,rev?*
G04 #@! TF.SameCoordinates,Original*
G04 #@! TF.FileFunction,Copper,L2,Bot*
G04 #@! TF.FilePolarity,Positive*
%FSLAX46Y46*%
G04 Gerber Fmt 4.6, Leading zero omitted, Abs format (unit mm)*
G04 Created by KiCad (PCBNEW 5.1.5+dfsg1-2build2) date 2022-03-26 13:12:08*
%MOMM*%
%LPD*%
G04 APERTURE LIST*
%ADD10C,1.507998*%
%ADD11C,1.560000*%
%ADD12R,1.560000X1.560000*%
%ADD13R,2.000000X2.000000*%
%ADD14C,2.000000*%
%ADD15R,1.500000X1.500000*%
%ADD16C,1.500000*%
%ADD17C,4.000000*%
%ADD18C,2.008124*%
%ADD19C,2.082800*%
%ADD20C,1.600000*%
%ADD21O,1.600000X1.600000*%
%ADD22C,0.762000*%
%ADD23C,0.254000*%
G04 APERTURE END LIST*
D10*
X79781398Y-97921200D03*
X79781398Y-93421199D03*
X86281400Y-93421199D03*
X86281400Y-97921200D03*
D11*
X133350000Y-73660000D03*
X135890000Y-73660000D03*
X138430000Y-73660000D03*
X140970000Y-73660000D03*
X143510000Y-73660000D03*
X146050000Y-73660000D03*
X148590000Y-73660000D03*
X151130000Y-73660000D03*
X153670000Y-73660000D03*
X156210000Y-73660000D03*
X158750000Y-73660000D03*
X161290000Y-73660000D03*
X163830000Y-73660000D03*
X166370000Y-73660000D03*
X168910000Y-73660000D03*
X171450000Y-73660000D03*
X173990000Y-73660000D03*
X176530000Y-73660000D03*
X179070000Y-73660000D03*
X135890000Y-99060000D03*
X138430000Y-99060000D03*
X140970000Y-99060000D03*
X143510000Y-99060000D03*
X146050000Y-99060000D03*
X148590000Y-99060000D03*
X151130000Y-99060000D03*
X153670000Y-99060000D03*
X156210000Y-99060000D03*
X158750000Y-99060000D03*
X161290000Y-99060000D03*
X163830000Y-99060000D03*
X166370000Y-99060000D03*
X168910000Y-99060000D03*
X171450000Y-99060000D03*
X173990000Y-99060000D03*
X133350000Y-99060000D03*
X176530000Y-99060000D03*
D12*
X179070000Y-99060000D03*
D13*
X206502000Y-114046000D03*
D14*
X214102000Y-114046000D03*
D15*
X98068000Y-81107000D03*
D16*
X98068000Y-83647000D03*
X98068000Y-86187000D03*
X98068000Y-88727000D03*
X98068000Y-91267000D03*
X98068000Y-93807000D03*
X98068000Y-96347000D03*
X98068000Y-98887000D03*
X98068000Y-101427000D03*
D15*
X192075620Y-93333080D03*
D16*
X192075620Y-95873080D03*
X192075620Y-98413080D03*
X192075620Y-100953080D03*
D17*
X99568000Y-72517000D03*
X191768000Y-72667000D03*
X191568000Y-122667000D03*
X99268000Y-122567000D03*
D16*
X98068000Y-104045000D03*
X98068000Y-106585000D03*
X98068000Y-109125000D03*
X98068000Y-111665000D03*
X98068000Y-114205000D03*
D10*
X217373200Y-90726400D03*
X221873201Y-90726400D03*
X221873201Y-84226398D03*
X217373200Y-84226398D03*
X213258402Y-94869000D03*
X213258402Y-99369001D03*
X206758400Y-99369001D03*
X206758400Y-94869000D03*
X198069200Y-90728800D03*
X202569201Y-90728800D03*
X202569201Y-84228798D03*
X198069200Y-84228798D03*
X213256002Y-75383000D03*
X213256002Y-79883001D03*
X206756000Y-79883001D03*
X206756000Y-75383000D03*
X86281400Y-82452600D03*
X86281400Y-77952599D03*
X79781398Y-77952599D03*
X79781398Y-82452600D03*
X73046200Y-91186000D03*
X77546201Y-91186000D03*
X77546201Y-84685998D03*
X73046200Y-84685998D03*
X88519000Y-84685998D03*
X93019001Y-84685998D03*
X93019001Y-91186000D03*
X88519000Y-91186000D03*
X86256000Y-112348400D03*
X86256000Y-107848399D03*
X79755998Y-107848399D03*
X79755998Y-112348400D03*
X79755998Y-120548400D03*
X79755998Y-116048399D03*
X86256000Y-116048399D03*
X86256000Y-120548400D03*
D18*
X69885000Y-103505000D03*
X62885001Y-103505000D03*
D10*
X68635001Y-101005000D03*
X64135000Y-101005000D03*
X222850000Y-101005000D03*
X227350001Y-101005000D03*
D18*
X221600001Y-103505000D03*
X228600000Y-103505000D03*
D19*
X181356000Y-113919000D03*
X109093000Y-113919000D03*
D20*
X111125000Y-92710000D03*
D21*
X118745000Y-92710000D03*
X118745000Y-88900000D03*
D20*
X111125000Y-88900000D03*
X111125000Y-85090000D03*
D21*
X118745000Y-85090000D03*
X118745000Y-81179999D03*
D20*
X111125000Y-81179999D03*
X111125000Y-77470000D03*
D21*
X118745000Y-77470000D03*
X118745000Y-73660000D03*
D20*
X111125000Y-73660000D03*
D21*
X129540000Y-92710000D03*
D20*
X121920000Y-92710000D03*
X121920000Y-88900000D03*
D21*
X129540000Y-88900000D03*
D20*
X121920000Y-85090000D03*
D21*
X129540000Y-85090000D03*
X129540000Y-81280000D03*
D20*
X121920000Y-81280000D03*
X121920000Y-77470000D03*
D21*
X129540000Y-77470000D03*
X129540000Y-73660000D03*
D20*
X121920000Y-73660000D03*
D22*
X125095000Y-95885000D03*
X145415000Y-102870000D03*
D23*
X227143000Y-101005000D02*
X227350001Y-101005000D01*
X134129999Y-98280001D02*
X133350000Y-99060000D01*
X134457001Y-97952999D02*
X134129999Y-98280001D01*
X152879067Y-97952999D02*
X134457001Y-97952999D01*
X166603268Y-84228798D02*
X152879067Y-97952999D01*
X198069200Y-84228798D02*
X166603268Y-84228798D01*
X121920000Y-92710000D02*
X121920000Y-88900000D01*
X121920000Y-88900000D02*
X121920000Y-85090000D01*
X121920000Y-85090000D02*
X121920000Y-81280000D01*
X111125000Y-92710000D02*
X111125000Y-88900000D01*
X111125000Y-88900000D02*
X111125000Y-85090000D01*
X111125000Y-85090000D02*
X111125000Y-81179999D01*
X73800198Y-85439996D02*
X73046200Y-84685998D01*
X76465201Y-88104999D02*
X73800198Y-85439996D01*
X76465201Y-94605003D02*
X76465201Y-88104999D01*
X79781398Y-97921200D02*
X76465201Y-94605003D01*
X128270000Y-99060000D02*
X133350000Y-99060000D01*
X125095000Y-95885000D02*
X128270000Y-99060000D01*
X129540000Y-92710000D02*
X129540000Y-88900000D01*
X129540000Y-88900000D02*
X129540000Y-85090000D01*
X129540000Y-83958630D02*
X129540000Y-81280000D01*
X129540000Y-85090000D02*
X129540000Y-83958630D01*
X118745000Y-81179999D02*
X118745000Y-85090000D01*
X118745000Y-85090000D02*
X118745000Y-88900000D01*
X119544999Y-74459999D02*
X118745000Y-73660000D01*
X119872001Y-74787001D02*
X119544999Y-74459999D01*
X128412999Y-74787001D02*
X119872001Y-74787001D01*
X129540000Y-73660000D02*
X128412999Y-74787001D01*
X118745000Y-92710000D02*
X118745000Y-88900000D01*
X98817999Y-82897001D02*
X98068000Y-83647000D01*
X106731010Y-74983990D02*
X98817999Y-82897001D01*
X117421010Y-74983990D02*
X106731010Y-74983990D01*
X118745000Y-73660000D02*
X117421010Y-74983990D01*
X98068000Y-86187000D02*
X108817000Y-75438000D01*
X139192000Y-75438000D02*
X140970000Y-73660000D01*
X108817000Y-75438000D02*
X139192000Y-75438000D01*
X142402999Y-72552999D02*
X143510000Y-73660000D01*
X104553399Y-72532999D02*
X142382999Y-72532999D01*
X96990999Y-90189999D02*
X96990999Y-80095399D01*
X142382999Y-72532999D02*
X142402999Y-72552999D01*
X96990999Y-80095399D02*
X104553399Y-72532999D01*
X98068000Y-91267000D02*
X96990999Y-90189999D01*
X98068000Y-88727000D02*
X107420000Y-79375000D01*
X142875000Y-79375000D02*
X148590000Y-73660000D01*
X107420000Y-79375000D02*
X142875000Y-79375000D01*
X157970001Y-72880001D02*
X158750000Y-73660000D01*
X104365342Y-72078989D02*
X157168989Y-72078989D01*
X96536989Y-79907342D02*
X104365342Y-72078989D01*
X96536989Y-94815989D02*
X96536989Y-79907342D01*
X157168989Y-72078989D02*
X157970001Y-72880001D01*
X98068000Y-96347000D02*
X96536989Y-94815989D01*
X160510001Y-72880001D02*
X161290000Y-73660000D01*
X159254979Y-71624979D02*
X160510001Y-72880001D01*
X104177296Y-71624979D02*
X159254979Y-71624979D01*
X96082979Y-79719296D02*
X104177296Y-71624979D01*
X96082979Y-99441979D02*
X96082979Y-79719296D01*
X98068000Y-101427000D02*
X96082979Y-99441979D01*
X175750001Y-74439999D02*
X176530000Y-73660000D01*
X98817999Y-94556999D02*
X155633001Y-94556999D01*
X155633001Y-94556999D02*
X175750001Y-74439999D01*
X98068000Y-93807000D02*
X98817999Y-94556999D01*
X167149999Y-98280001D02*
X166370000Y-99060000D01*
X173173921Y-92256079D02*
X167149999Y-98280001D01*
X215843521Y-92256079D02*
X173173921Y-92256079D01*
X217373200Y-90726400D02*
X215843521Y-92256079D01*
X169689999Y-99839999D02*
X168910000Y-99060000D01*
X171880081Y-102030081D02*
X169689999Y-99839999D01*
X198531004Y-102030081D02*
X171880081Y-102030081D01*
X205692085Y-94869000D02*
X198531004Y-102030081D01*
X206758400Y-94869000D02*
X205692085Y-94869000D01*
X172161200Y-90728800D02*
X163830000Y-99060000D01*
X194233800Y-90728800D02*
X198069200Y-90728800D01*
X172161200Y-90728800D02*
X194233800Y-90728800D01*
X170075210Y-90274790D02*
X162069999Y-98280001D01*
X193623089Y-90274790D02*
X170075210Y-90274790D01*
X162069999Y-98280001D02*
X161290000Y-99060000D01*
X206756000Y-77141879D02*
X193623089Y-90274790D01*
X206756000Y-75383000D02*
X206756000Y-77141879D01*
X151130000Y-99622000D02*
X151130000Y-99060000D01*
X147320000Y-102870000D02*
X151130000Y-99060000D01*
X145415000Y-102870000D02*
X147320000Y-102870000D01*
X151909999Y-74439999D02*
X151130000Y-73660000D01*
X152237001Y-74767001D02*
X151909999Y-74439999D01*
X164361361Y-74767001D02*
X152237001Y-74767001D01*
X164937001Y-74191361D02*
X164361361Y-74767001D01*
X164937001Y-73454637D02*
X164937001Y-74191361D01*
X168051639Y-70339999D02*
X164937001Y-73454637D01*
X205312881Y-70339999D02*
X168051639Y-70339999D01*
X223603998Y-88631116D02*
X205312881Y-70339999D01*
X223603998Y-100251002D02*
X223603998Y-88631116D01*
X222850000Y-101005000D02*
X223603998Y-100251002D01*
G36*
X96243737Y-69875000D02*
G01*
X167439007Y-69875000D01*
X164746967Y-72567041D01*
X164745159Y-72565233D01*
X164628815Y-72681577D01*
X164559655Y-72439651D01*
X164307557Y-72320752D01*
X164037106Y-72253319D01*
X163758697Y-72239943D01*
X163483028Y-72281140D01*
X163220692Y-72375325D01*
X163100345Y-72439651D01*
X163031184Y-72681579D01*
X163830000Y-73480395D01*
X163844143Y-73466253D01*
X164023748Y-73645858D01*
X164009605Y-73660000D01*
X164023748Y-73674143D01*
X163844143Y-73853748D01*
X163830000Y-73839605D01*
X163815858Y-73853748D01*
X163636253Y-73674143D01*
X163650395Y-73660000D01*
X162851579Y-72861184D01*
X162609651Y-72930345D01*
X162561575Y-73032279D01*
X162543957Y-72989746D01*
X162389103Y-72757990D01*
X162192010Y-72560897D01*
X161960254Y-72406043D01*
X161702740Y-72299377D01*
X161429365Y-72245000D01*
X161150635Y-72245000D01*
X160985482Y-72277851D01*
X159820263Y-71112633D01*
X159796401Y-71083557D01*
X159680371Y-70988334D01*
X159547994Y-70917577D01*
X159404357Y-70874005D01*
X159292405Y-70862979D01*
X159292402Y-70862979D01*
X159254979Y-70859293D01*
X159217556Y-70862979D01*
X104214719Y-70862979D01*
X104177296Y-70859293D01*
X104139873Y-70862979D01*
X104139870Y-70862979D01*
X104027918Y-70874005D01*
X103884281Y-70917577D01*
X103826578Y-70948420D01*
X103751903Y-70988334D01*
X103675697Y-71050875D01*
X103635874Y-71083557D01*
X103612017Y-71112627D01*
X102203000Y-72521644D01*
X102203000Y-72257475D01*
X102101739Y-71748399D01*
X101903107Y-71268859D01*
X101614738Y-70837285D01*
X101247715Y-70470262D01*
X100816141Y-70181893D01*
X100336601Y-69983261D01*
X99827525Y-69882000D01*
X99308475Y-69882000D01*
X98799399Y-69983261D01*
X98319859Y-70181893D01*
X97888285Y-70470262D01*
X97521262Y-70837285D01*
X97232893Y-71268859D01*
X97034261Y-71748399D01*
X96933000Y-72257475D01*
X96933000Y-72776525D01*
X97034261Y-73285601D01*
X97232893Y-73765141D01*
X97521262Y-74196715D01*
X97888285Y-74563738D01*
X98319859Y-74852107D01*
X98799399Y-75050739D01*
X99308475Y-75152000D01*
X99572645Y-75152000D01*
X95570628Y-79154017D01*
X95541558Y-79177874D01*
X95517701Y-79206944D01*
X95517700Y-79206945D01*
X95446334Y-79293904D01*
X95375578Y-79426281D01*
X95332006Y-79569918D01*
X95317293Y-79719296D01*
X95320980Y-79756729D01*
X95320979Y-99404556D01*
X95317293Y-99441979D01*
X95320979Y-99479402D01*
X95320979Y-99479404D01*
X95332005Y-99591356D01*
X95375577Y-99734993D01*
X95408514Y-99796614D01*
X95446334Y-99867371D01*
X95475473Y-99902877D01*
X95541557Y-99983401D01*
X95570633Y-100007263D01*
X96711364Y-101147994D01*
X96683000Y-101290589D01*
X96683000Y-101563411D01*
X96736225Y-101830989D01*
X96840629Y-102083043D01*
X96992201Y-102309886D01*
X97185114Y-102502799D01*
X97411957Y-102654371D01*
X97609027Y-102736000D01*
X97411957Y-102817629D01*
X97185114Y-102969201D01*
X96992201Y-103162114D01*
X96840629Y-103388957D01*
X96736225Y-103641011D01*
X96683000Y-103908589D01*
X96683000Y-104181411D01*
X96736225Y-104448989D01*
X96840629Y-104701043D01*
X96992201Y-104927886D01*
X97185114Y-105120799D01*
X97411957Y-105272371D01*
X97514873Y-105315000D01*
X97411957Y-105357629D01*
X97185114Y-105509201D01*
X96992201Y-105702114D01*
X96840629Y-105928957D01*
X96736225Y-106181011D01*
X96683000Y-106448589D01*
X96683000Y-106721411D01*
X96736225Y-106988989D01*
X96840629Y-107241043D01*
X96992201Y-107467886D01*
X97185114Y-107660799D01*
X97411957Y-107812371D01*
X97514873Y-107855000D01*
X97411957Y-107897629D01*
X97185114Y-108049201D01*
X96992201Y-108242114D01*
X96840629Y-108468957D01*
X96736225Y-108721011D01*
X96683000Y-108988589D01*
X96683000Y-109261411D01*
X96736225Y-109528989D01*
X96840629Y-109781043D01*
X96992201Y-110007886D01*
X97185114Y-110200799D01*
X97411957Y-110352371D01*
X97514873Y-110395000D01*
X97411957Y-110437629D01*
X97185114Y-110589201D01*
X96992201Y-110782114D01*
X96840629Y-111008957D01*
X96736225Y-111261011D01*
X96683000Y-111528589D01*
X96683000Y-111801411D01*
X96736225Y-112068989D01*
X96840629Y-112321043D01*
X96992201Y-112547886D01*
X97185114Y-112740799D01*
X97411957Y-112892371D01*
X97514873Y-112935000D01*
X97411957Y-112977629D01*
X97185114Y-113129201D01*
X96992201Y-113322114D01*
X96840629Y-113548957D01*
X96736225Y-113801011D01*
X96683000Y-114068589D01*
X96683000Y-114341411D01*
X96736225Y-114608989D01*
X96840629Y-114861043D01*
X96992201Y-115087886D01*
X97185114Y-115280799D01*
X97411957Y-115432371D01*
X97664011Y-115536775D01*
X97931589Y-115590000D01*
X98204411Y-115590000D01*
X98471989Y-115536775D01*
X98724043Y-115432371D01*
X98950886Y-115280799D01*
X99143799Y-115087886D01*
X99295371Y-114861043D01*
X99399775Y-114608989D01*
X99453000Y-114341411D01*
X99453000Y-114068589D01*
X99399775Y-113801011D01*
X99380257Y-113753889D01*
X107416600Y-113753889D01*
X107416600Y-114084111D01*
X107481023Y-114407988D01*
X107607394Y-114713073D01*
X107790855Y-114987642D01*
X108024358Y-115221145D01*
X108298927Y-115404606D01*
X108604012Y-115530977D01*
X108927889Y-115595400D01*
X109258111Y-115595400D01*
X109581988Y-115530977D01*
X109887073Y-115404606D01*
X110161642Y-115221145D01*
X110395145Y-114987642D01*
X110578606Y-114713073D01*
X110704977Y-114407988D01*
X110769400Y-114084111D01*
X110769400Y-113753889D01*
X179679600Y-113753889D01*
X179679600Y-114084111D01*
X179744023Y-114407988D01*
X179870394Y-114713073D01*
X180053855Y-114987642D01*
X180287358Y-115221145D01*
X180561927Y-115404606D01*
X180867012Y-115530977D01*
X181190889Y-115595400D01*
X181521111Y-115595400D01*
X181844988Y-115530977D01*
X182150073Y-115404606D01*
X182424642Y-115221145D01*
X182658145Y-114987642D01*
X182841606Y-114713073D01*
X182967977Y-114407988D01*
X183032400Y-114084111D01*
X183032400Y-113753889D01*
X182967977Y-113430012D01*
X182841606Y-113124927D01*
X182788869Y-113046000D01*
X204863928Y-113046000D01*
X204863928Y-115046000D01*
X204876188Y-115170482D01*
X204912498Y-115290180D01*
X204971463Y-115400494D01*
X205050815Y-115497185D01*
X205147506Y-115576537D01*
X205257820Y-115635502D01*
X205377518Y-115671812D01*
X205502000Y-115684072D01*
X207502000Y-115684072D01*
X207626482Y-115671812D01*
X207746180Y-115635502D01*
X207856494Y-115576537D01*
X207953185Y-115497185D01*
X208032537Y-115400494D01*
X208091502Y-115290180D01*
X208124496Y-115181413D01*
X213146192Y-115181413D01*
X213241956Y-115445814D01*
X213531571Y-115586704D01*
X213843108Y-115668384D01*
X214164595Y-115687718D01*
X214483675Y-115643961D01*
X214788088Y-115538795D01*
X214962044Y-115445814D01*
X215057808Y-115181413D01*
X214102000Y-114225605D01*
X213146192Y-115181413D01*
X208124496Y-115181413D01*
X208127812Y-115170482D01*
X208140072Y-115046000D01*
X208140072Y-114108595D01*
X212460282Y-114108595D01*
X212504039Y-114427675D01*
X212609205Y-114732088D01*
X212702186Y-114906044D01*
X212966587Y-115001808D01*
X213922395Y-114046000D01*
X214281605Y-114046000D01*
X215237413Y-115001808D01*
X215501814Y-114906044D01*
X215642704Y-114616429D01*
X215724384Y-114304892D01*
X215743718Y-113983405D01*
X215699961Y-113664325D01*
X215594795Y-113359912D01*
X215501814Y-113185956D01*
X215237413Y-113090192D01*
X214281605Y-114046000D01*
X213922395Y-114046000D01*
X212966587Y-113090192D01*
X212702186Y-113185956D01*
X212561296Y-113475571D01*
X212479616Y-113787108D01*
X212460282Y-114108595D01*
X208140072Y-114108595D01*
X208140072Y-113046000D01*
X208127812Y-112921518D01*
X208124497Y-112910587D01*
X213146192Y-112910587D01*
X214102000Y-113866395D01*
X215057808Y-112910587D01*
X214962044Y-112646186D01*
X214672429Y-112505296D01*
X214360892Y-112423616D01*
X214039405Y-112404282D01*
X213720325Y-112448039D01*
X213415912Y-112553205D01*
X213241956Y-112646186D01*
X213146192Y-112910587D01*
X208124497Y-112910587D01*
X208091502Y-112801820D01*
X208032537Y-112691506D01*
X207953185Y-112594815D01*
X207856494Y-112515463D01*
X207746180Y-112456498D01*
X207626482Y-112420188D01*
X207502000Y-112407928D01*
X205502000Y-112407928D01*
X205377518Y-112420188D01*
X205257820Y-112456498D01*
X205147506Y-112515463D01*
X205050815Y-112594815D01*
X204971463Y-112691506D01*
X204912498Y-112801820D01*
X204876188Y-112921518D01*
X204863928Y-113046000D01*
X182788869Y-113046000D01*
X182658145Y-112850358D01*
X182424642Y-112616855D01*
X182150073Y-112433394D01*
X181844988Y-112307023D01*
X181521111Y-112242600D01*
X181190889Y-112242600D01*
X180867012Y-112307023D01*
X180561927Y-112433394D01*
X180287358Y-112616855D01*
X180053855Y-112850358D01*
X179870394Y-113124927D01*
X179744023Y-113430012D01*
X179679600Y-113753889D01*
X110769400Y-113753889D01*
X110704977Y-113430012D01*
X110578606Y-113124927D01*
X110395145Y-112850358D01*
X110161642Y-112616855D01*
X109887073Y-112433394D01*
X109581988Y-112307023D01*
X109258111Y-112242600D01*
X108927889Y-112242600D01*
X108604012Y-112307023D01*
X108298927Y-112433394D01*
X108024358Y-112616855D01*
X107790855Y-112850358D01*
X107607394Y-113124927D01*
X107481023Y-113430012D01*
X107416600Y-113753889D01*
X99380257Y-113753889D01*
X99295371Y-113548957D01*
X99143799Y-113322114D01*
X98950886Y-113129201D01*
X98724043Y-112977629D01*
X98621127Y-112935000D01*
X98724043Y-112892371D01*
X98950886Y-112740799D01*
X99143799Y-112547886D01*
X99295371Y-112321043D01*
X99399775Y-112068989D01*
X99453000Y-111801411D01*
X99453000Y-111528589D01*
X99399775Y-111261011D01*
X99295371Y-111008957D01*
X99143799Y-110782114D01*
X98950886Y-110589201D01*
X98724043Y-110437629D01*
X98621127Y-110395000D01*
X98724043Y-110352371D01*
X98950886Y-110200799D01*
X99143799Y-110007886D01*
X99295371Y-109781043D01*
X99399775Y-109528989D01*
X99453000Y-109261411D01*
X99453000Y-108988589D01*
X99399775Y-108721011D01*
X99295371Y-108468957D01*
X99143799Y-108242114D01*
X98950886Y-108049201D01*
X98724043Y-107897629D01*
X98621127Y-107855000D01*
X98724043Y-107812371D01*
X98950886Y-107660799D01*
X99143799Y-107467886D01*
X99295371Y-107241043D01*
X99399775Y-106988989D01*
X99453000Y-106721411D01*
X99453000Y-106448589D01*
X99399775Y-106181011D01*
X99295371Y-105928957D01*
X99205752Y-105794832D01*
X114935000Y-105794832D01*
X114935000Y-106295168D01*
X115032611Y-106785891D01*
X115224081Y-107248141D01*
X115502053Y-107664156D01*
X115855844Y-108017947D01*
X116271859Y-108295919D01*
X116734109Y-108487389D01*
X117224832Y-108585000D01*
X117725168Y-108585000D01*
X118215891Y-108487389D01*
X118678141Y-108295919D01*
X119094156Y-108017947D01*
X119447947Y-107664156D01*
X119725919Y-107248141D01*
X119917389Y-106785891D01*
X120015000Y-106295168D01*
X120015000Y-105794832D01*
X119917389Y-105304109D01*
X119725919Y-104841859D01*
X119447947Y-104425844D01*
X119094156Y-104072053D01*
X118678141Y-103794081D01*
X118215891Y-103602611D01*
X117725168Y-103505000D01*
X117224832Y-103505000D01*
X116734109Y-103602611D01*
X116271859Y-103794081D01*
X115855844Y-104072053D01*
X115502053Y-104425844D01*
X115224081Y-104841859D01*
X115032611Y-105304109D01*
X114935000Y-105794832D01*
X99205752Y-105794832D01*
X99143799Y-105702114D01*
X98950886Y-105509201D01*
X98724043Y-105357629D01*
X98621127Y-105315000D01*
X98724043Y-105272371D01*
X98950886Y-105120799D01*
X99143799Y-104927886D01*
X99295371Y-104701043D01*
X99399775Y-104448989D01*
X99453000Y-104181411D01*
X99453000Y-103908589D01*
X99399775Y-103641011D01*
X99295371Y-103388957D01*
X99143799Y-103162114D01*
X98950886Y-102969201D01*
X98724043Y-102817629D01*
X98526973Y-102736000D01*
X98724043Y-102654371D01*
X98950886Y-102502799D01*
X99143799Y-102309886D01*
X99295371Y-102083043D01*
X99399775Y-101830989D01*
X99453000Y-101563411D01*
X99453000Y-101290589D01*
X99399775Y-101023011D01*
X99295371Y-100770957D01*
X99143799Y-100544114D01*
X98950886Y-100351201D01*
X98724043Y-100199629D01*
X98621127Y-100157000D01*
X98724043Y-100114371D01*
X98950886Y-99962799D01*
X99143799Y-99769886D01*
X99295371Y-99543043D01*
X99399775Y-99290989D01*
X99453000Y-99023411D01*
X99453000Y-98750589D01*
X99399775Y-98483011D01*
X99295371Y-98230957D01*
X99143799Y-98004114D01*
X98950886Y-97811201D01*
X98724043Y-97659629D01*
X98621127Y-97617000D01*
X98724043Y-97574371D01*
X98950886Y-97422799D01*
X99143799Y-97229886D01*
X99295371Y-97003043D01*
X99399775Y-96750989D01*
X99453000Y-96483411D01*
X99453000Y-96210589D01*
X99399775Y-95943011D01*
X99295371Y-95690957D01*
X99143799Y-95464114D01*
X98998684Y-95318999D01*
X124251257Y-95318999D01*
X124194632Y-95403744D01*
X124118044Y-95588644D01*
X124079000Y-95784933D01*
X124079000Y-95985067D01*
X124118044Y-96181356D01*
X124194632Y-96366256D01*
X124305821Y-96532662D01*
X124447338Y-96674179D01*
X124613744Y-96785368D01*
X124798644Y-96861956D01*
X124994933Y-96901000D01*
X125033370Y-96901000D01*
X127704720Y-99572351D01*
X127728578Y-99601422D01*
X127844608Y-99696645D01*
X127976985Y-99767402D01*
X128120622Y-99810974D01*
X128232574Y-99822000D01*
X128232576Y-99822000D01*
X128269999Y-99825686D01*
X128307422Y-99822000D01*
X132157346Y-99822000D01*
X132250897Y-99962010D01*
X132447990Y-100159103D01*
X132679746Y-100313957D01*
X132937260Y-100420623D01*
X133210635Y-100475000D01*
X133489365Y-100475000D01*
X133762740Y-100420623D01*
X134020254Y-100313957D01*
X134252010Y-100159103D01*
X134449103Y-99962010D01*
X134603957Y-99730254D01*
X134620000Y-99691523D01*
X134636043Y-99730254D01*
X134790897Y-99962010D01*
X134987990Y-100159103D01*
X135219746Y-100313957D01*
X135477260Y-100420623D01*
X135750635Y-100475000D01*
X136029365Y-100475000D01*
X136302740Y-100420623D01*
X136560254Y-100313957D01*
X136792010Y-100159103D01*
X136989103Y-99962010D01*
X137143957Y-99730254D01*
X137160000Y-99691523D01*
X137176043Y-99730254D01*
X137330897Y-99962010D01*
X137527990Y-100159103D01*
X137759746Y-100313957D01*
X138017260Y-100420623D01*
X138290635Y-100475000D01*
X138569365Y-100475000D01*
X138842740Y-100420623D01*
X139100254Y-100313957D01*
X139332010Y-100159103D01*
X139529103Y-99962010D01*
X139683957Y-99730254D01*
X139700000Y-99691523D01*
X139716043Y-99730254D01*
X139870897Y-99962010D01*
X140067990Y-100159103D01*
X140299746Y-100313957D01*
X140557260Y-100420623D01*
X140830635Y-100475000D01*
X141109365Y-100475000D01*
X141382740Y-100420623D01*
X141640254Y-100313957D01*
X141872010Y-100159103D01*
X142069103Y-99962010D01*
X142223957Y-99730254D01*
X142240000Y-99691523D01*
X142256043Y-99730254D01*
X142410897Y-99962010D01*
X142607990Y-100159103D01*
X142839746Y-100313957D01*
X143097260Y-100420623D01*
X143370635Y-100475000D01*
X143649365Y-100475000D01*
X143922740Y-100420623D01*
X144180254Y-100313957D01*
X144412010Y-100159103D01*
X144532692Y-100038421D01*
X145251184Y-100038421D01*
X145320345Y-100280349D01*
X145572443Y-100399248D01*
X145842894Y-100466681D01*
X146121303Y-100480057D01*
X146396972Y-100438860D01*
X146659308Y-100344675D01*
X146779655Y-100280349D01*
X146848816Y-100038421D01*
X146050000Y-99239605D01*
X145251184Y-100038421D01*
X144532692Y-100038421D01*
X144609103Y-99962010D01*
X144763957Y-99730254D01*
X144778777Y-99694475D01*
X144829651Y-99789655D01*
X145071579Y-99858816D01*
X145870395Y-99060000D01*
X145856253Y-99045858D01*
X146035858Y-98866253D01*
X146050000Y-98880395D01*
X146064143Y-98866253D01*
X146243748Y-99045858D01*
X146229605Y-99060000D01*
X147028421Y-99858816D01*
X147270349Y-99789655D01*
X147318425Y-99687721D01*
X147336043Y-99730254D01*
X147490897Y-99962010D01*
X147687990Y-100159103D01*
X147919746Y-100313957D01*
X148177260Y-100420623D01*
X148450635Y-100475000D01*
X148637370Y-100475000D01*
X147004370Y-102108000D01*
X146089841Y-102108000D01*
X146062662Y-102080821D01*
X145896256Y-101969632D01*
X145711356Y-101893044D01*
X145515067Y-101854000D01*
X145314933Y-101854000D01*
X145118644Y-101893044D01*
X144933744Y-101969632D01*
X144767338Y-102080821D01*
X144625821Y-102222338D01*
X144514632Y-102388744D01*
X144438044Y-102573644D01*
X144399000Y-102769933D01*
X144399000Y-102970067D01*
X144438044Y-103166356D01*
X144514632Y-103351256D01*
X144625821Y-103517662D01*
X144767338Y-103659179D01*
X144933744Y-103770368D01*
X145118644Y-103846956D01*
X145314933Y-103886000D01*
X145515067Y-103886000D01*
X145711356Y-103846956D01*
X145896256Y-103770368D01*
X146062662Y-103659179D01*
X146089841Y-103632000D01*
X147282577Y-103632000D01*
X147320000Y-103635686D01*
X147357423Y-103632000D01*
X147357426Y-103632000D01*
X147469378Y-103620974D01*
X147613015Y-103577402D01*
X147745392Y-103506645D01*
X147861422Y-103411422D01*
X147885284Y-103382346D01*
X150825481Y-100442149D01*
X150990635Y-100475000D01*
X151269365Y-100475000D01*
X151542740Y-100420623D01*
X151800254Y-100313957D01*
X152032010Y-100159103D01*
X152229103Y-99962010D01*
X152383957Y-99730254D01*
X152400000Y-99691523D01*
X152416043Y-99730254D01*
X152570897Y-99962010D01*
X152767990Y-100159103D01*
X152999746Y-100313957D01*
X153257260Y-100420623D01*
X153530635Y-100475000D01*
X153809365Y-100475000D01*
X154082740Y-100420623D01*
X154340254Y-100313957D01*
X154572010Y-100159103D01*
X154769103Y-99962010D01*
X154923957Y-99730254D01*
X154940000Y-99691523D01*
X154956043Y-99730254D01*
X155110897Y-99962010D01*
X155307990Y-100159103D01*
X155539746Y-100313957D01*
X155797260Y-100420623D01*
X156070635Y-100475000D01*
X156349365Y-100475000D01*
X156622740Y-100420623D01*
X156880254Y-100313957D01*
X157112010Y-100159103D01*
X157309103Y-99962010D01*
X157463957Y-99730254D01*
X157480000Y-99691523D01*
X157496043Y-99730254D01*
X157650897Y-99962010D01*
X157847990Y-100159103D01*
X158079746Y-100313957D01*
X158337260Y-100420623D01*
X158610635Y-100475000D01*
X158889365Y-100475000D01*
X159162740Y-100420623D01*
X159420254Y-100313957D01*
X159652010Y-100159103D01*
X159849103Y-99962010D01*
X160003957Y-99730254D01*
X160020000Y-99691523D01*
X160036043Y-99730254D01*
X160190897Y-99962010D01*
X160387990Y-100159103D01*
X160619746Y-100313957D01*
X160877260Y-100420623D01*
X161150635Y-100475000D01*
X161429365Y-100475000D01*
X161702740Y-100420623D01*
X161960254Y-100313957D01*
X162192010Y-100159103D01*
X162389103Y-99962010D01*
X162543957Y-99730254D01*
X162560000Y-99691523D01*
X162576043Y-99730254D01*
X162730897Y-99962010D01*
X162927990Y-100159103D01*
X163159746Y-100313957D01*
X163417260Y-100420623D01*
X163690635Y-100475000D01*
X163969365Y-100475000D01*
X164242740Y-100420623D01*
X164500254Y-100313957D01*
X164732010Y-100159103D01*
X164929103Y-99962010D01*
X165083957Y-99730254D01*
X165100000Y-99691523D01*
X165116043Y-99730254D01*
X165270897Y-99962010D01*
X165467990Y-100159103D01*
X165699746Y-100313957D01*
X165957260Y-100420623D01*
X166230635Y-100475000D01*
X166509365Y-100475000D01*
X166782740Y-100420623D01*
X167040254Y-100313957D01*
X167272010Y-100159103D01*
X167469103Y-99962010D01*
X167623957Y-99730254D01*
X167640000Y-99691523D01*
X167656043Y-99730254D01*
X167810897Y-99962010D01*
X168007990Y-100159103D01*
X168239746Y-100313957D01*
X168497260Y-100420623D01*
X168770635Y-100475000D01*
X169049365Y-100475000D01*
X169214519Y-100442149D01*
X171314797Y-102542427D01*
X171338659Y-102571503D01*
X171412300Y-102631938D01*
X171454688Y-102666726D01*
X171494538Y-102688026D01*
X171587066Y-102737483D01*
X171730703Y-102781055D01*
X171842655Y-102792081D01*
X171842658Y-102792081D01*
X171880081Y-102795767D01*
X171917504Y-102792081D01*
X198493581Y-102792081D01*
X198531004Y-102795767D01*
X198568427Y-102792081D01*
X198568430Y-102792081D01*
X198680382Y-102781055D01*
X198824019Y-102737483D01*
X198956396Y-102666726D01*
X199072426Y-102571503D01*
X199096288Y-102542427D01*
X202406518Y-99232197D01*
X205369401Y-99232197D01*
X205369401Y-99505805D01*
X205422779Y-99774157D01*
X205527485Y-100026939D01*
X205679494Y-100254436D01*
X205872965Y-100447907D01*
X206100462Y-100599916D01*
X206353244Y-100704622D01*
X206621596Y-100758000D01*
X206895204Y-100758000D01*
X207163556Y-100704622D01*
X207416338Y-100599916D01*
X207643835Y-100447907D01*
X207837306Y-100254436D01*
X207989315Y-100026939D01*
X208094021Y-99774157D01*
X208147399Y-99505805D01*
X208147399Y-99232197D01*
X211869403Y-99232197D01*
X211869403Y-99505805D01*
X211922781Y-99774157D01*
X212027487Y-100026939D01*
X212179496Y-100254436D01*
X212372967Y-100447907D01*
X212600464Y-100599916D01*
X212853246Y-100704622D01*
X213121598Y-100758000D01*
X213395206Y-100758000D01*
X213663558Y-100704622D01*
X213916340Y-100599916D01*
X214143837Y-100447907D01*
X214337308Y-100254436D01*
X214489317Y-100026939D01*
X214594023Y-99774157D01*
X214647401Y-99505805D01*
X214647401Y-99232197D01*
X214594023Y-98963845D01*
X214489317Y-98711063D01*
X214337308Y-98483566D01*
X214143837Y-98290095D01*
X213916340Y-98138086D01*
X213663558Y-98033380D01*
X213395206Y-97980002D01*
X213121598Y-97980002D01*
X212853246Y-98033380D01*
X212600464Y-98138086D01*
X212372967Y-98290095D01*
X212179496Y-98483566D01*
X212027487Y-98711063D01*
X211922781Y-98963845D01*
X211869403Y-99232197D01*
X208147399Y-99232197D01*
X208094021Y-98963845D01*
X207989315Y-98711063D01*
X207837306Y-98483566D01*
X207643835Y-98290095D01*
X207416338Y-98138086D01*
X207163556Y-98033380D01*
X206895204Y-97980002D01*
X206621596Y-97980002D01*
X206353244Y-98033380D01*
X206100462Y-98138086D01*
X205872965Y-98290095D01*
X205679494Y-98483566D01*
X205527485Y-98711063D01*
X205422779Y-98963845D01*
X205369401Y-99232197D01*
X202406518Y-99232197D01*
X205781887Y-95856828D01*
X205872965Y-95947906D01*
X206100462Y-96099915D01*
X206353244Y-96204621D01*
X206621596Y-96257999D01*
X206895204Y-96257999D01*
X207163556Y-96204621D01*
X207416338Y-96099915D01*
X207643835Y-95947906D01*
X207837306Y-95754435D01*
X207989315Y-95526938D01*
X208094021Y-95274156D01*
X208147399Y-95005804D01*
X208147399Y-94732196D01*
X211869403Y-94732196D01*
X211869403Y-95005804D01*
X211922781Y-95274156D01*
X212027487Y-95526938D01*
X212179496Y-95754435D01*
X212372967Y-95947906D01*
X212600464Y-96099915D01*
X212853246Y-96204621D01*
X213121598Y-96257999D01*
X213395206Y-96257999D01*
X213663558Y-96204621D01*
X213916340Y-96099915D01*
X214143837Y-95947906D01*
X214337308Y-95754435D01*
X214489317Y-95526938D01*
X214594023Y-95274156D01*
X214647401Y-95005804D01*
X214647401Y-94732196D01*
X214594023Y-94463844D01*
X214489317Y-94211062D01*
X214337308Y-93983565D01*
X214143837Y-93790094D01*
X213916340Y-93638085D01*
X213663558Y-93533379D01*
X213395206Y-93480001D01*
X213121598Y-93480001D01*
X212853246Y-93533379D01*
X212600464Y-93638085D01*
X212372967Y-93790094D01*
X212179496Y-93983565D01*
X212027487Y-94211062D01*
X211922781Y-94463844D01*
X211869403Y-94732196D01*
X208147399Y-94732196D01*
X208094021Y-94463844D01*
X207989315Y-94211062D01*
X207837306Y-93983565D01*
X207643835Y-93790094D01*
X207416338Y-93638085D01*
X207163556Y-93533379D01*
X206895204Y-93480001D01*
X206621596Y-93480001D01*
X206353244Y-93533379D01*
X206100462Y-93638085D01*
X205872965Y-93790094D01*
X205679494Y-93983565D01*
X205592957Y-94113077D01*
X205542707Y-94118026D01*
X205399070Y-94161598D01*
X205365870Y-94179344D01*
X205266692Y-94232355D01*
X205193805Y-94292172D01*
X205150663Y-94327578D01*
X205126806Y-94356648D01*
X198215374Y-101268081D01*
X193425096Y-101268081D01*
X193460620Y-101089491D01*
X193460620Y-100816669D01*
X193407395Y-100549091D01*
X193302991Y-100297037D01*
X193151419Y-100070194D01*
X192958506Y-99877281D01*
X192731663Y-99725709D01*
X192628747Y-99683080D01*
X192731663Y-99640451D01*
X192958506Y-99488879D01*
X193151419Y-99295966D01*
X193302991Y-99069123D01*
X193407395Y-98817069D01*
X193460620Y-98549491D01*
X193460620Y-98276669D01*
X193407395Y-98009091D01*
X193302991Y-97757037D01*
X193151419Y-97530194D01*
X192958506Y-97337281D01*
X192731663Y-97185709D01*
X192628747Y-97143080D01*
X192731663Y-97100451D01*
X192958506Y-96948879D01*
X193151419Y-96755966D01*
X193302991Y-96529123D01*
X193407395Y-96277069D01*
X193460620Y-96009491D01*
X193460620Y-95736669D01*
X193407395Y-95469091D01*
X193302991Y-95217037D01*
X193151419Y-94990194D01*
X192958506Y-94797281D01*
X192842137Y-94719525D01*
X192950102Y-94708892D01*
X193069800Y-94672582D01*
X193180114Y-94613617D01*
X193276805Y-94534265D01*
X193356157Y-94437574D01*
X193415122Y-94327260D01*
X193451432Y-94207562D01*
X193463692Y-94083080D01*
X193463692Y-93018079D01*
X215806098Y-93018079D01*
X215843521Y-93021765D01*
X215880944Y-93018079D01*
X215880947Y-93018079D01*
X215992899Y-93007053D01*
X216136536Y-92963481D01*
X216268913Y-92892724D01*
X216384943Y-92797501D01*
X216408805Y-92768425D01*
X217090793Y-92086437D01*
X217236396Y-92115399D01*
X217510004Y-92115399D01*
X217778356Y-92062021D01*
X218031138Y-91957315D01*
X218258635Y-91805306D01*
X218452106Y-91611835D01*
X218604115Y-91384338D01*
X218708821Y-91131556D01*
X218762199Y-90863204D01*
X218762199Y-90589596D01*
X218708821Y-90321244D01*
X218604115Y-90068462D01*
X218452106Y-89840965D01*
X218258635Y-89647494D01*
X218031138Y-89495485D01*
X217778356Y-89390779D01*
X217510004Y-89337401D01*
X217236396Y-89337401D01*
X216968044Y-89390779D01*
X216715262Y-89495485D01*
X216487765Y-89647494D01*
X216294294Y-89840965D01*
X216142285Y-90068462D01*
X216037579Y-90321244D01*
X215984201Y-90589596D01*
X215984201Y-90863204D01*
X216013163Y-91008807D01*
X215527891Y-91494079D01*
X203728393Y-91494079D01*
X203800116Y-91386738D01*
X203904822Y-91133956D01*
X203958200Y-90865604D01*
X203958200Y-90591996D01*
X203904822Y-90323644D01*
X203800116Y-90070862D01*
X203648107Y-89843365D01*
X203454636Y-89649894D01*
X203227139Y-89497885D01*
X202974357Y-89393179D01*
X202706005Y-89339801D01*
X202432397Y-89339801D01*
X202164045Y-89393179D01*
X201911263Y-89497885D01*
X201683766Y-89649894D01*
X201490295Y-89843365D01*
X201338286Y-90070862D01*
X201233580Y-90323644D01*
X201180202Y-90591996D01*
X201180202Y-90865604D01*
X201233580Y-91133956D01*
X201338286Y-91386738D01*
X201410009Y-91494079D01*
X199228392Y-91494079D01*
X199300115Y-91386738D01*
X199404821Y-91133956D01*
X199458199Y-90865604D01*
X199458199Y-90591996D01*
X199404821Y-90323644D01*
X199300115Y-90070862D01*
X199148106Y-89843365D01*
X198954635Y-89649894D01*
X198727138Y-89497885D01*
X198474356Y-89393179D01*
X198206004Y-89339801D01*
X197932396Y-89339801D01*
X197664044Y-89393179D01*
X197411262Y-89497885D01*
X197183765Y-89649894D01*
X196990294Y-89843365D01*
X196907817Y-89966800D01*
X195008709Y-89966800D01*
X201291360Y-83684150D01*
X201233580Y-83823642D01*
X201180202Y-84091994D01*
X201180202Y-84365602D01*
X201233580Y-84633954D01*
X201338286Y-84886736D01*
X201490295Y-85114233D01*
X201683766Y-85307704D01*
X201911263Y-85459713D01*
X202164045Y-85564419D01*
X202432397Y-85617797D01*
X202706005Y-85617797D01*
X202974357Y-85564419D01*
X203227139Y-85459713D01*
X203454636Y-85307704D01*
X203648107Y-85114233D01*
X203800116Y-84886736D01*
X203904822Y-84633954D01*
X203958200Y-84365602D01*
X203958200Y-84091994D01*
X203904822Y-83823642D01*
X203800116Y-83570860D01*
X203648107Y-83343363D01*
X203454636Y-83149892D01*
X203227139Y-82997883D01*
X202974357Y-82893177D01*
X202706005Y-82839799D01*
X202432397Y-82839799D01*
X202164045Y-82893177D01*
X202024553Y-82950957D01*
X205401189Y-79574321D01*
X205367001Y-79746197D01*
X205367001Y-80019805D01*
X205420379Y-80288157D01*
X205525085Y-80540939D01*
X205677094Y-80768436D01*
X205870565Y-80961907D01*
X206098062Y-81113916D01*
X206350844Y-81218622D01*
X206619196Y-81272000D01*
X206892804Y-81272000D01*
X207161156Y-81218622D01*
X207413938Y-81113916D01*
X207641435Y-80961907D01*
X207834906Y-80768436D01*
X207986915Y-80540939D01*
X208091621Y-80288157D01*
X208144999Y-80019805D01*
X208144999Y-79746197D01*
X208091621Y-79477845D01*
X207986915Y-79225063D01*
X207834906Y-78997566D01*
X207641435Y-78804095D01*
X207413938Y-78652086D01*
X207161156Y-78547380D01*
X206892804Y-78494002D01*
X206619196Y-78494002D01*
X206447320Y-78528190D01*
X207268352Y-77707158D01*
X207297422Y-77683301D01*
X207326531Y-77647832D01*
X207392645Y-77567272D01*
X207463401Y-77434895D01*
X207463402Y-77434894D01*
X207506974Y-77291257D01*
X207518000Y-77179305D01*
X207518000Y-77179302D01*
X207521686Y-77141879D01*
X207518000Y-77104456D01*
X207518000Y-76544383D01*
X207641435Y-76461906D01*
X207834906Y-76268435D01*
X207986915Y-76040938D01*
X208091621Y-75788156D01*
X208144999Y-75519804D01*
X208144999Y-75246196D01*
X208091621Y-74977844D01*
X207986915Y-74725062D01*
X207834906Y-74497565D01*
X207641435Y-74304094D01*
X207413938Y-74152085D01*
X207161156Y-74047379D01*
X206892804Y-73994001D01*
X206619196Y-73994001D01*
X206350844Y-74047379D01*
X206098062Y-74152085D01*
X205870565Y-74304094D01*
X205677094Y-74497565D01*
X205525085Y-74725062D01*
X205420379Y-74977844D01*
X205367001Y-75246196D01*
X205367001Y-75519804D01*
X205420379Y-75788156D01*
X205525085Y-76040938D01*
X205677094Y-76268435D01*
X205870565Y-76461906D01*
X205994001Y-76544383D01*
X205994001Y-76826247D01*
X199279797Y-83540452D01*
X199148106Y-83343363D01*
X198954635Y-83149892D01*
X198727138Y-82997883D01*
X198474356Y-82893177D01*
X198206004Y-82839799D01*
X197932396Y-82839799D01*
X197664044Y-82893177D01*
X197411262Y-82997883D01*
X197183765Y-83149892D01*
X196990294Y-83343363D01*
X196907817Y-83466798D01*
X167800833Y-83466798D01*
X176225482Y-75042149D01*
X176390635Y-75075000D01*
X176669365Y-75075000D01*
X176942740Y-75020623D01*
X177200254Y-74913957D01*
X177432010Y-74759103D01*
X177552692Y-74638421D01*
X178271184Y-74638421D01*
X178340345Y-74880349D01*
X178592443Y-74999248D01*
X178862894Y-75066681D01*
X179141303Y-75080057D01*
X179416972Y-75038860D01*
X179679308Y-74944675D01*
X179799655Y-74880349D01*
X179868816Y-74638421D01*
X179070000Y-73839605D01*
X178271184Y-74638421D01*
X177552692Y-74638421D01*
X177629103Y-74562010D01*
X177783957Y-74330254D01*
X177798777Y-74294475D01*
X177849651Y-74389655D01*
X178091579Y-74458816D01*
X178890395Y-73660000D01*
X179249605Y-73660000D01*
X180048421Y-74458816D01*
X180290349Y-74389655D01*
X180409248Y-74137557D01*
X180476681Y-73867106D01*
X180490057Y-73588697D01*
X180448860Y-73313028D01*
X180354675Y-73050692D01*
X180290349Y-72930345D01*
X180048421Y-72861184D01*
X179249605Y-73660000D01*
X178890395Y-73660000D01*
X178091579Y-72861184D01*
X177849651Y-72930345D01*
X177801575Y-73032279D01*
X177783957Y-72989746D01*
X177629103Y-72757990D01*
X177552692Y-72681579D01*
X178271184Y-72681579D01*
X179070000Y-73480395D01*
X179868816Y-72681579D01*
X179799655Y-72439651D01*
X179547557Y-72320752D01*
X179277106Y-72253319D01*
X178998697Y-72239943D01*
X178723028Y-72281140D01*
X178460692Y-72375325D01*
X178340345Y-72439651D01*
X178271184Y-72681579D01*
X177552692Y-72681579D01*
X177432010Y-72560897D01*
X177200254Y-72406043D01*
X176942740Y-72299377D01*
X176669365Y-72245000D01*
X176390635Y-72245000D01*
X176117260Y-72299377D01*
X175859746Y-72406043D01*
X175627990Y-72560897D01*
X175430897Y-72757990D01*
X175276043Y-72989746D01*
X175260000Y-73028477D01*
X175243957Y-72989746D01*
X175089103Y-72757990D01*
X174892010Y-72560897D01*
X174660254Y-72406043D01*
X174402740Y-72299377D01*
X174129365Y-72245000D01*
X173850635Y-72245000D01*
X173577260Y-72299377D01*
X173319746Y-72406043D01*
X173087990Y-72560897D01*
X172890897Y-72757990D01*
X172736043Y-72989746D01*
X172720000Y-73028477D01*
X172703957Y-72989746D01*
X172549103Y-72757990D01*
X172352010Y-72560897D01*
X172120254Y-72406043D01*
X171862740Y-72299377D01*
X171589365Y-72245000D01*
X171310635Y-72245000D01*
X171037260Y-72299377D01*
X170779746Y-72406043D01*
X170547990Y-72560897D01*
X170350897Y-72757990D01*
X170196043Y-72989746D01*
X170180000Y-73028477D01*
X170163957Y-72989746D01*
X170009103Y-72757990D01*
X169812010Y-72560897D01*
X169580254Y-72406043D01*
X169322740Y-72299377D01*
X169049365Y-72245000D01*
X168770635Y-72245000D01*
X168497260Y-72299377D01*
X168239746Y-72406043D01*
X168007990Y-72560897D01*
X167810897Y-72757990D01*
X167656043Y-72989746D01*
X167640000Y-73028477D01*
X167623957Y-72989746D01*
X167469103Y-72757990D01*
X167272010Y-72560897D01*
X167054024Y-72415244D01*
X168367270Y-71101999D01*
X189644612Y-71101999D01*
X189432893Y-71418859D01*
X189234261Y-71898399D01*
X189133000Y-72407475D01*
X189133000Y-72926525D01*
X189234261Y-73435601D01*
X189432893Y-73915141D01*
X189721262Y-74346715D01*
X190088285Y-74713738D01*
X190519859Y-75002107D01*
X190999399Y-75200739D01*
X191508475Y-75302000D01*
X192027525Y-75302000D01*
X192536601Y-75200739D01*
X193016141Y-75002107D01*
X193447715Y-74713738D01*
X193814738Y-74346715D01*
X194103107Y-73915141D01*
X194301739Y-73435601D01*
X194403000Y-72926525D01*
X194403000Y-72407475D01*
X194301739Y-71898399D01*
X194103107Y-71418859D01*
X193891388Y-71101999D01*
X204997251Y-71101999D01*
X212567656Y-78672404D01*
X212370567Y-78804095D01*
X212177096Y-78997566D01*
X212025087Y-79225063D01*
X211920381Y-79477845D01*
X211867003Y-79746197D01*
X211867003Y-80019805D01*
X211920381Y-80288157D01*
X212025087Y-80540939D01*
X212177096Y-80768436D01*
X212370567Y-80961907D01*
X212598064Y-81113916D01*
X212850846Y-81218622D01*
X213119198Y-81272000D01*
X213392806Y-81272000D01*
X213661158Y-81218622D01*
X213913940Y-81113916D01*
X214141437Y-80961907D01*
X214334908Y-80768436D01*
X214466599Y-80571347D01*
X216839340Y-82944088D01*
X216715262Y-82995483D01*
X216487765Y-83147492D01*
X216294294Y-83340963D01*
X216142285Y-83568460D01*
X216037579Y-83821242D01*
X215984201Y-84089594D01*
X215984201Y-84363202D01*
X216037579Y-84631554D01*
X216142285Y-84884336D01*
X216294294Y-85111833D01*
X216487765Y-85305304D01*
X216715262Y-85457313D01*
X216968044Y-85562019D01*
X217236396Y-85615397D01*
X217510004Y-85615397D01*
X217778356Y-85562019D01*
X218031138Y-85457313D01*
X218258635Y-85305304D01*
X218452106Y-85111833D01*
X218604115Y-84884336D01*
X218655510Y-84760258D01*
X222841999Y-88946747D01*
X222841999Y-89730857D01*
X222758636Y-89647494D01*
X222531139Y-89495485D01*
X222278357Y-89390779D01*
X222010005Y-89337401D01*
X221736397Y-89337401D01*
X221468045Y-89390779D01*
X221215263Y-89495485D01*
X220987766Y-89647494D01*
X220794295Y-89840965D01*
X220642286Y-90068462D01*
X220537580Y-90321244D01*
X220484202Y-90589596D01*
X220484202Y-90863204D01*
X220537580Y-91131556D01*
X220642286Y-91384338D01*
X220794295Y-91611835D01*
X220987766Y-91805306D01*
X221215263Y-91957315D01*
X221468045Y-92062021D01*
X221736397Y-92115399D01*
X222010005Y-92115399D01*
X222278357Y-92062021D01*
X222531139Y-91957315D01*
X222758636Y-91805306D01*
X222841999Y-91721943D01*
X222841998Y-99616001D01*
X222713196Y-99616001D01*
X222444844Y-99669379D01*
X222192062Y-99774085D01*
X221964565Y-99926094D01*
X221771094Y-100119565D01*
X221619085Y-100347062D01*
X221514379Y-100599844D01*
X221461001Y-100868196D01*
X221461001Y-101141804D01*
X221514379Y-101410156D01*
X221619085Y-101662938D01*
X221754726Y-101865938D01*
X221438567Y-101865938D01*
X221121904Y-101928926D01*
X220823614Y-102052482D01*
X220555160Y-102231857D01*
X220326858Y-102460159D01*
X220147483Y-102728613D01*
X220023927Y-103026903D01*
X219960939Y-103343566D01*
X219960939Y-103666434D01*
X220023927Y-103983097D01*
X220147483Y-104281387D01*
X220326858Y-104549841D01*
X220555160Y-104778143D01*
X220823614Y-104957518D01*
X221121904Y-105081074D01*
X221438567Y-105144062D01*
X221761435Y-105144062D01*
X222078098Y-105081074D01*
X222376388Y-104957518D01*
X222644842Y-104778143D01*
X222873144Y-104549841D01*
X223052519Y-104281387D01*
X223176075Y-103983097D01*
X223239063Y-103666434D01*
X223239063Y-103343566D01*
X223176075Y-103026903D01*
X223052519Y-102728613D01*
X222873144Y-102460159D01*
X222806984Y-102393999D01*
X222986804Y-102393999D01*
X223255156Y-102340621D01*
X223507938Y-102235915D01*
X223735435Y-102083906D01*
X223928906Y-101890435D01*
X224080915Y-101662938D01*
X224185621Y-101410156D01*
X224238999Y-101141804D01*
X224238999Y-100868196D01*
X225961002Y-100868196D01*
X225961002Y-101141804D01*
X226014380Y-101410156D01*
X226119086Y-101662938D01*
X226271095Y-101890435D01*
X226464566Y-102083906D01*
X226692063Y-102235915D01*
X226944845Y-102340621D01*
X227213197Y-102393999D01*
X227393017Y-102393999D01*
X227326857Y-102460159D01*
X227147482Y-102728613D01*
X227023926Y-103026903D01*
X226960938Y-103343566D01*
X226960938Y-103666434D01*
X227023926Y-103983097D01*
X227147482Y-104281387D01*
X227326857Y-104549841D01*
X227555159Y-104778143D01*
X227823613Y-104957518D01*
X228121903Y-105081074D01*
X228438566Y-105144062D01*
X228761434Y-105144062D01*
X229078097Y-105081074D01*
X229376387Y-104957518D01*
X229644841Y-104778143D01*
X229873143Y-104549841D01*
X230052518Y-104281387D01*
X230176074Y-103983097D01*
X230239062Y-103666434D01*
X230239062Y-103343566D01*
X230176074Y-103026903D01*
X230052518Y-102728613D01*
X229873143Y-102460159D01*
X229644841Y-102231857D01*
X229376387Y-102052482D01*
X229078097Y-101928926D01*
X228761434Y-101865938D01*
X228445275Y-101865938D01*
X228580916Y-101662938D01*
X228685622Y-101410156D01*
X228739000Y-101141804D01*
X228739000Y-100868196D01*
X228685622Y-100599844D01*
X228580916Y-100347062D01*
X228428907Y-100119565D01*
X228235436Y-99926094D01*
X228007939Y-99774085D01*
X227755157Y-99669379D01*
X227486805Y-99616001D01*
X227213197Y-99616001D01*
X226944845Y-99669379D01*
X226692063Y-99774085D01*
X226464566Y-99926094D01*
X226271095Y-100119565D01*
X226119086Y-100347062D01*
X226014380Y-100599844D01*
X225961002Y-100868196D01*
X224238999Y-100868196D01*
X224208611Y-100715425D01*
X224240643Y-100676394D01*
X224311400Y-100544017D01*
X224354972Y-100400380D01*
X224365998Y-100288428D01*
X224365998Y-100288426D01*
X224369684Y-100251003D01*
X224365998Y-100213580D01*
X224365998Y-88668539D01*
X224369684Y-88631116D01*
X224365998Y-88593690D01*
X224354972Y-88481738D01*
X224311400Y-88338101D01*
X224272452Y-88265235D01*
X224240643Y-88205723D01*
X224183564Y-88136173D01*
X224145420Y-88089694D01*
X224116344Y-88065832D01*
X221648407Y-85597895D01*
X221736397Y-85615397D01*
X222010005Y-85615397D01*
X222278357Y-85562019D01*
X222531139Y-85457313D01*
X222758636Y-85305304D01*
X222952107Y-85111833D01*
X223104116Y-84884336D01*
X223208822Y-84631554D01*
X223262200Y-84363202D01*
X223262200Y-84089594D01*
X223208822Y-83821242D01*
X223104116Y-83568460D01*
X222952107Y-83340963D01*
X222758636Y-83147492D01*
X222531139Y-82995483D01*
X222278357Y-82890777D01*
X222010005Y-82837399D01*
X221736397Y-82837399D01*
X221468045Y-82890777D01*
X221215263Y-82995483D01*
X220987766Y-83147492D01*
X220794295Y-83340963D01*
X220642286Y-83568460D01*
X220537580Y-83821242D01*
X220484202Y-84089594D01*
X220484202Y-84363202D01*
X220501704Y-84451192D01*
X212711353Y-76660841D01*
X212850846Y-76718621D01*
X213119198Y-76771999D01*
X213392806Y-76771999D01*
X213661158Y-76718621D01*
X213913940Y-76613915D01*
X214141437Y-76461906D01*
X214334908Y-76268435D01*
X214486917Y-76040938D01*
X214591623Y-75788156D01*
X214645001Y-75519804D01*
X214645001Y-75246196D01*
X214591623Y-74977844D01*
X214486917Y-74725062D01*
X214334908Y-74497565D01*
X214141437Y-74304094D01*
X213913940Y-74152085D01*
X213661158Y-74047379D01*
X213392806Y-73994001D01*
X213119198Y-73994001D01*
X212850846Y-74047379D01*
X212598064Y-74152085D01*
X212370567Y-74304094D01*
X212177096Y-74497565D01*
X212025087Y-74725062D01*
X211920381Y-74977844D01*
X211867003Y-75246196D01*
X211867003Y-75519804D01*
X211920381Y-75788156D01*
X211978161Y-75927649D01*
X205925570Y-69875058D01*
X206224073Y-69875060D01*
X208263168Y-69949830D01*
X210277626Y-70172228D01*
X212270385Y-70541564D01*
X214230761Y-71055859D01*
X216148189Y-71712341D01*
X218012394Y-72507492D01*
X219813362Y-73437041D01*
X221541410Y-74495991D01*
X223187256Y-75678651D01*
X224742083Y-76978689D01*
X226197508Y-78389093D01*
X227545732Y-79902308D01*
X228779510Y-81510199D01*
X229892214Y-83204129D01*
X230877871Y-84975007D01*
X231731188Y-86813319D01*
X232447574Y-88709181D01*
X233023190Y-90652426D01*
X233454938Y-92632601D01*
X233740504Y-94639092D01*
X233878350Y-96661105D01*
X233867739Y-98687783D01*
X233708726Y-100708226D01*
X233402164Y-102711622D01*
X232949703Y-104687170D01*
X232353772Y-106624274D01*
X231617571Y-108512530D01*
X230745052Y-110341808D01*
X229740897Y-112102278D01*
X228610520Y-113784456D01*
X227359964Y-115379348D01*
X225995971Y-116878356D01*
X224525855Y-118273444D01*
X222957514Y-119557116D01*
X221299365Y-120722483D01*
X219560322Y-121763279D01*
X217749732Y-122673911D01*
X215877289Y-123449502D01*
X213953093Y-124085870D01*
X211987438Y-124579608D01*
X209990929Y-124928055D01*
X207972509Y-125129520D01*
X206227438Y-125184361D01*
X194680242Y-125184300D01*
X192376288Y-125184300D01*
X192816141Y-125002107D01*
X193247715Y-124713738D01*
X193614738Y-124346715D01*
X193903107Y-123915141D01*
X194101739Y-123435601D01*
X194203000Y-122926525D01*
X194203000Y-122407475D01*
X194101739Y-121898399D01*
X193903107Y-121418859D01*
X193614738Y-120987285D01*
X193247715Y-120620262D01*
X192816141Y-120331893D01*
X192336601Y-120133261D01*
X191827525Y-120032000D01*
X191308475Y-120032000D01*
X190799399Y-120133261D01*
X190319859Y-120331893D01*
X189888285Y-120620262D01*
X189521262Y-120987285D01*
X189232893Y-121418859D01*
X189034261Y-121898399D01*
X188933000Y-122407475D01*
X188933000Y-122926525D01*
X189034261Y-123435601D01*
X189232893Y-123915141D01*
X189521262Y-124346715D01*
X189888285Y-124713738D01*
X190319859Y-125002107D01*
X190759712Y-125184300D01*
X99616509Y-125184300D01*
X100036601Y-125100739D01*
X100516141Y-124902107D01*
X100947715Y-124613738D01*
X101314738Y-124246715D01*
X101603107Y-123815141D01*
X101801739Y-123335601D01*
X101903000Y-122826525D01*
X101903000Y-122307475D01*
X101801739Y-121798399D01*
X101719714Y-121600371D01*
X107137200Y-121600371D01*
X107137200Y-121985629D01*
X107212361Y-122363486D01*
X107359793Y-122719419D01*
X107573831Y-123039750D01*
X107846250Y-123312169D01*
X108166581Y-123526207D01*
X108522514Y-123673639D01*
X108900371Y-123748800D01*
X109285629Y-123748800D01*
X109663486Y-123673639D01*
X110019419Y-123526207D01*
X110339750Y-123312169D01*
X110612169Y-123039750D01*
X110826207Y-122719419D01*
X110973639Y-122363486D01*
X111048800Y-121985629D01*
X111048800Y-121600371D01*
X111037355Y-121542832D01*
X170180000Y-121542832D01*
X170180000Y-122043168D01*
X170277611Y-122533891D01*
X170469081Y-122996141D01*
X170747053Y-123412156D01*
X171100844Y-123765947D01*
X171516859Y-124043919D01*
X171979109Y-124235389D01*
X172469832Y-124333000D01*
X172970168Y-124333000D01*
X173460891Y-124235389D01*
X173923141Y-124043919D01*
X174339156Y-123765947D01*
X174692947Y-123412156D01*
X174970919Y-122996141D01*
X175162389Y-122533891D01*
X175260000Y-122043168D01*
X175260000Y-121542832D01*
X175162389Y-121052109D01*
X174970919Y-120589859D01*
X174692947Y-120173844D01*
X174339156Y-119820053D01*
X173923141Y-119542081D01*
X173460891Y-119350611D01*
X172970168Y-119253000D01*
X172469832Y-119253000D01*
X171979109Y-119350611D01*
X171516859Y-119542081D01*
X171100844Y-119820053D01*
X170747053Y-120173844D01*
X170469081Y-120589859D01*
X170277611Y-121052109D01*
X170180000Y-121542832D01*
X111037355Y-121542832D01*
X110973639Y-121222514D01*
X110826207Y-120866581D01*
X110612169Y-120546250D01*
X110339750Y-120273831D01*
X110019419Y-120059793D01*
X109663486Y-119912361D01*
X109285629Y-119837200D01*
X108900371Y-119837200D01*
X108522514Y-119912361D01*
X108166581Y-120059793D01*
X107846250Y-120273831D01*
X107573831Y-120546250D01*
X107359793Y-120866581D01*
X107212361Y-121222514D01*
X107137200Y-121600371D01*
X101719714Y-121600371D01*
X101603107Y-121318859D01*
X101314738Y-120887285D01*
X100947715Y-120520262D01*
X100516141Y-120231893D01*
X100036601Y-120033261D01*
X99527525Y-119932000D01*
X99008475Y-119932000D01*
X98499399Y-120033261D01*
X98019859Y-120231893D01*
X97588285Y-120520262D01*
X97221262Y-120887285D01*
X96932893Y-121318859D01*
X96734261Y-121798399D01*
X96633000Y-122307475D01*
X96633000Y-122826525D01*
X96734261Y-123335601D01*
X96932893Y-123815141D01*
X97221262Y-124246715D01*
X97588285Y-124613738D01*
X98019859Y-124902107D01*
X98499399Y-125100739D01*
X98919491Y-125184300D01*
X86233924Y-125184300D01*
X84196472Y-125109590D01*
X82182015Y-124887192D01*
X80189255Y-124517856D01*
X78228879Y-124003561D01*
X76311452Y-123347079D01*
X74447246Y-122551928D01*
X72646288Y-121622384D01*
X70918235Y-120563433D01*
X70706932Y-120411596D01*
X78366999Y-120411596D01*
X78366999Y-120685204D01*
X78420377Y-120953556D01*
X78525083Y-121206338D01*
X78677092Y-121433835D01*
X78870563Y-121627306D01*
X79098060Y-121779315D01*
X79350842Y-121884021D01*
X79619194Y-121937399D01*
X79892802Y-121937399D01*
X80161154Y-121884021D01*
X80413936Y-121779315D01*
X80641433Y-121627306D01*
X80834904Y-121433835D01*
X80986913Y-121206338D01*
X81091619Y-120953556D01*
X81144997Y-120685204D01*
X81144997Y-120411596D01*
X84867001Y-120411596D01*
X84867001Y-120685204D01*
X84920379Y-120953556D01*
X85025085Y-121206338D01*
X85177094Y-121433835D01*
X85370565Y-121627306D01*
X85598062Y-121779315D01*
X85850844Y-121884021D01*
X86119196Y-121937399D01*
X86392804Y-121937399D01*
X86661156Y-121884021D01*
X86913938Y-121779315D01*
X87141435Y-121627306D01*
X87334906Y-121433835D01*
X87486915Y-121206338D01*
X87591621Y-120953556D01*
X87644999Y-120685204D01*
X87644999Y-120411596D01*
X87591621Y-120143244D01*
X87486915Y-119890462D01*
X87334906Y-119662965D01*
X87141435Y-119469494D01*
X86913938Y-119317485D01*
X86661156Y-119212779D01*
X86392804Y-119159401D01*
X86119196Y-119159401D01*
X85850844Y-119212779D01*
X85598062Y-119317485D01*
X85370565Y-119469494D01*
X85177094Y-119662965D01*
X85025085Y-119890462D01*
X84920379Y-120143244D01*
X84867001Y-120411596D01*
X81144997Y-120411596D01*
X81091619Y-120143244D01*
X80986913Y-119890462D01*
X80834904Y-119662965D01*
X80641433Y-119469494D01*
X80413936Y-119317485D01*
X80161154Y-119212779D01*
X79892802Y-119159401D01*
X79619194Y-119159401D01*
X79350842Y-119212779D01*
X79098060Y-119317485D01*
X78870563Y-119469494D01*
X78677092Y-119662965D01*
X78525083Y-119890462D01*
X78420377Y-120143244D01*
X78366999Y-120411596D01*
X70706932Y-120411596D01*
X69272384Y-119380769D01*
X67717564Y-118080738D01*
X66262138Y-116670334D01*
X65586127Y-115911595D01*
X78366999Y-115911595D01*
X78366999Y-116185203D01*
X78420377Y-116453555D01*
X78525083Y-116706337D01*
X78677092Y-116933834D01*
X78870563Y-117127305D01*
X79098060Y-117279314D01*
X79350842Y-117384020D01*
X79619194Y-117437398D01*
X79892802Y-117437398D01*
X80161154Y-117384020D01*
X80413936Y-117279314D01*
X80641433Y-117127305D01*
X80834904Y-116933834D01*
X80986913Y-116706337D01*
X81091619Y-116453555D01*
X81144997Y-116185203D01*
X81144997Y-115911595D01*
X84867001Y-115911595D01*
X84867001Y-116185203D01*
X84920379Y-116453555D01*
X85025085Y-116706337D01*
X85177094Y-116933834D01*
X85370565Y-117127305D01*
X85598062Y-117279314D01*
X85850844Y-117384020D01*
X86119196Y-117437398D01*
X86392804Y-117437398D01*
X86661156Y-117384020D01*
X86913938Y-117279314D01*
X87141435Y-117127305D01*
X87334906Y-116933834D01*
X87486915Y-116706337D01*
X87591621Y-116453555D01*
X87644999Y-116185203D01*
X87644999Y-115911595D01*
X87591621Y-115643243D01*
X87486915Y-115390461D01*
X87334906Y-115162964D01*
X87141435Y-114969493D01*
X86913938Y-114817484D01*
X86661156Y-114712778D01*
X86392804Y-114659400D01*
X86119196Y-114659400D01*
X85850844Y-114712778D01*
X85598062Y-114817484D01*
X85370565Y-114969493D01*
X85177094Y-115162964D01*
X85025085Y-115390461D01*
X84920379Y-115643243D01*
X84867001Y-115911595D01*
X81144997Y-115911595D01*
X81091619Y-115643243D01*
X80986913Y-115390461D01*
X80834904Y-115162964D01*
X80641433Y-114969493D01*
X80413936Y-114817484D01*
X80161154Y-114712778D01*
X79892802Y-114659400D01*
X79619194Y-114659400D01*
X79350842Y-114712778D01*
X79098060Y-114817484D01*
X78870563Y-114969493D01*
X78677092Y-115162964D01*
X78525083Y-115390461D01*
X78420377Y-115643243D01*
X78366999Y-115911595D01*
X65586127Y-115911595D01*
X64913913Y-115157118D01*
X63680136Y-113549230D01*
X62801475Y-112211596D01*
X78366999Y-112211596D01*
X78366999Y-112485204D01*
X78420377Y-112753556D01*
X78525083Y-113006338D01*
X78677092Y-113233835D01*
X78870563Y-113427306D01*
X79098060Y-113579315D01*
X79350842Y-113684021D01*
X79619194Y-113737399D01*
X79892802Y-113737399D01*
X80161154Y-113684021D01*
X80413936Y-113579315D01*
X80641433Y-113427306D01*
X80834904Y-113233835D01*
X80986913Y-113006338D01*
X81091619Y-112753556D01*
X81144997Y-112485204D01*
X81144997Y-112211596D01*
X84867001Y-112211596D01*
X84867001Y-112485204D01*
X84920379Y-112753556D01*
X85025085Y-113006338D01*
X85177094Y-113233835D01*
X85370565Y-113427306D01*
X85598062Y-113579315D01*
X85850844Y-113684021D01*
X86119196Y-113737399D01*
X86392804Y-113737399D01*
X86661156Y-113684021D01*
X86913938Y-113579315D01*
X87141435Y-113427306D01*
X87334906Y-113233835D01*
X87486915Y-113006338D01*
X87591621Y-112753556D01*
X87644999Y-112485204D01*
X87644999Y-112211596D01*
X87591621Y-111943244D01*
X87486915Y-111690462D01*
X87334906Y-111462965D01*
X87141435Y-111269494D01*
X86913938Y-111117485D01*
X86661156Y-111012779D01*
X86392804Y-110959401D01*
X86119196Y-110959401D01*
X85850844Y-111012779D01*
X85598062Y-111117485D01*
X85370565Y-111269494D01*
X85177094Y-111462965D01*
X85025085Y-111690462D01*
X84920379Y-111943244D01*
X84867001Y-112211596D01*
X81144997Y-112211596D01*
X81091619Y-111943244D01*
X80986913Y-111690462D01*
X80834904Y-111462965D01*
X80641433Y-111269494D01*
X80413936Y-111117485D01*
X80161154Y-111012779D01*
X79892802Y-110959401D01*
X79619194Y-110959401D01*
X79350842Y-111012779D01*
X79098060Y-111117485D01*
X78870563Y-111269494D01*
X78677092Y-111462965D01*
X78525083Y-111690462D01*
X78420377Y-111943244D01*
X78366999Y-112211596D01*
X62801475Y-112211596D01*
X62567426Y-111855291D01*
X61581769Y-110084413D01*
X60728452Y-108246101D01*
X60526480Y-107711595D01*
X78366999Y-107711595D01*
X78366999Y-107985203D01*
X78420377Y-108253555D01*
X78525083Y-108506337D01*
X78677092Y-108733834D01*
X78870563Y-108927305D01*
X79098060Y-109079314D01*
X79350842Y-109184020D01*
X79619194Y-109237398D01*
X79892802Y-109237398D01*
X80161154Y-109184020D01*
X80413936Y-109079314D01*
X80641433Y-108927305D01*
X80834904Y-108733834D01*
X80986913Y-108506337D01*
X81091619Y-108253555D01*
X81144997Y-107985203D01*
X81144997Y-107711595D01*
X84867001Y-107711595D01*
X84867001Y-107985203D01*
X84920379Y-108253555D01*
X85025085Y-108506337D01*
X85177094Y-108733834D01*
X85370565Y-108927305D01*
X85598062Y-109079314D01*
X85850844Y-109184020D01*
X86119196Y-109237398D01*
X86392804Y-109237398D01*
X86661156Y-109184020D01*
X86913938Y-109079314D01*
X87141435Y-108927305D01*
X87334906Y-108733834D01*
X87486915Y-108506337D01*
X87591621Y-108253555D01*
X87644999Y-107985203D01*
X87644999Y-107711595D01*
X87591621Y-107443243D01*
X87486915Y-107190461D01*
X87334906Y-106962964D01*
X87141435Y-106769493D01*
X86913938Y-106617484D01*
X86661156Y-106512778D01*
X86392804Y-106459400D01*
X86119196Y-106459400D01*
X85850844Y-106512778D01*
X85598062Y-106617484D01*
X85370565Y-106769493D01*
X85177094Y-106962964D01*
X85025085Y-107190461D01*
X84920379Y-107443243D01*
X84867001Y-107711595D01*
X81144997Y-107711595D01*
X81091619Y-107443243D01*
X80986913Y-107190461D01*
X80834904Y-106962964D01*
X80641433Y-106769493D01*
X80413936Y-106617484D01*
X80161154Y-106512778D01*
X79892802Y-106459400D01*
X79619194Y-106459400D01*
X79350842Y-106512778D01*
X79098060Y-106617484D01*
X78870563Y-106769493D01*
X78677092Y-106962964D01*
X78525083Y-107190461D01*
X78420377Y-107443243D01*
X78366999Y-107711595D01*
X60526480Y-107711595D01*
X60012067Y-106350243D01*
X59436450Y-104406994D01*
X59204586Y-103343566D01*
X61245939Y-103343566D01*
X61245939Y-103666434D01*
X61308927Y-103983097D01*
X61432483Y-104281387D01*
X61611858Y-104549841D01*
X61840160Y-104778143D01*
X62108614Y-104957518D01*
X62406904Y-105081074D01*
X62723567Y-105144062D01*
X63046435Y-105144062D01*
X63363098Y-105081074D01*
X63661388Y-104957518D01*
X63929842Y-104778143D01*
X64158144Y-104549841D01*
X64337519Y-104281387D01*
X64461075Y-103983097D01*
X64524063Y-103666434D01*
X64524063Y-103343566D01*
X64461075Y-103026903D01*
X64337519Y-102728613D01*
X64158144Y-102460159D01*
X64091984Y-102393999D01*
X64271804Y-102393999D01*
X64540156Y-102340621D01*
X64792938Y-102235915D01*
X65020435Y-102083906D01*
X65213906Y-101890435D01*
X65365915Y-101662938D01*
X65470621Y-101410156D01*
X65523999Y-101141804D01*
X65523999Y-100868196D01*
X67246002Y-100868196D01*
X67246002Y-101141804D01*
X67299380Y-101410156D01*
X67404086Y-101662938D01*
X67556095Y-101890435D01*
X67749566Y-102083906D01*
X67977063Y-102235915D01*
X68229845Y-102340621D01*
X68498197Y-102393999D01*
X68678017Y-102393999D01*
X68611857Y-102460159D01*
X68432482Y-102728613D01*
X68308926Y-103026903D01*
X68245938Y-103343566D01*
X68245938Y-103666434D01*
X68308926Y-103983097D01*
X68432482Y-104281387D01*
X68611857Y-104549841D01*
X68840159Y-104778143D01*
X69108613Y-104957518D01*
X69406903Y-105081074D01*
X69723566Y-105144062D01*
X70046434Y-105144062D01*
X70363097Y-105081074D01*
X70661387Y-104957518D01*
X70929841Y-104778143D01*
X71158143Y-104549841D01*
X71337518Y-104281387D01*
X71461074Y-103983097D01*
X71524062Y-103666434D01*
X71524062Y-103343566D01*
X71461074Y-103026903D01*
X71337518Y-102728613D01*
X71158143Y-102460159D01*
X70929841Y-102231857D01*
X70661387Y-102052482D01*
X70363097Y-101928926D01*
X70046434Y-101865938D01*
X69730275Y-101865938D01*
X69865916Y-101662938D01*
X69970622Y-101410156D01*
X70024000Y-101141804D01*
X70024000Y-100868196D01*
X69970622Y-100599844D01*
X69865916Y-100347062D01*
X69713907Y-100119565D01*
X69520436Y-99926094D01*
X69292939Y-99774085D01*
X69040157Y-99669379D01*
X68771805Y-99616001D01*
X68498197Y-99616001D01*
X68229845Y-99669379D01*
X67977063Y-99774085D01*
X67749566Y-99926094D01*
X67556095Y-100119565D01*
X67404086Y-100347062D01*
X67299380Y-100599844D01*
X67246002Y-100868196D01*
X65523999Y-100868196D01*
X65470621Y-100599844D01*
X65365915Y-100347062D01*
X65213906Y-100119565D01*
X65020435Y-99926094D01*
X64792938Y-99774085D01*
X64540156Y-99669379D01*
X64271804Y-99616001D01*
X63998196Y-99616001D01*
X63729844Y-99669379D01*
X63477062Y-99774085D01*
X63249565Y-99926094D01*
X63056094Y-100119565D01*
X62904085Y-100347062D01*
X62799379Y-100599844D01*
X62746001Y-100868196D01*
X62746001Y-101141804D01*
X62799379Y-101410156D01*
X62904085Y-101662938D01*
X63039726Y-101865938D01*
X62723567Y-101865938D01*
X62406904Y-101928926D01*
X62108614Y-102052482D01*
X61840160Y-102231857D01*
X61611858Y-102460159D01*
X61432483Y-102728613D01*
X61308927Y-103026903D01*
X61245939Y-103343566D01*
X59204586Y-103343566D01*
X59004702Y-102426819D01*
X58719136Y-100420328D01*
X58581290Y-98398315D01*
X58591901Y-96371637D01*
X58750914Y-94351194D01*
X59057476Y-92347798D01*
X59354895Y-91049196D01*
X71657201Y-91049196D01*
X71657201Y-91322804D01*
X71710579Y-91591156D01*
X71815285Y-91843938D01*
X71967294Y-92071435D01*
X72160765Y-92264906D01*
X72388262Y-92416915D01*
X72641044Y-92521621D01*
X72909396Y-92574999D01*
X73183004Y-92574999D01*
X73451356Y-92521621D01*
X73704138Y-92416915D01*
X73931635Y-92264906D01*
X74125106Y-92071435D01*
X74277115Y-91843938D01*
X74381821Y-91591156D01*
X74435199Y-91322804D01*
X74435199Y-91049196D01*
X74381821Y-90780844D01*
X74277115Y-90528062D01*
X74125106Y-90300565D01*
X73931635Y-90107094D01*
X73704138Y-89955085D01*
X73451356Y-89850379D01*
X73183004Y-89797001D01*
X72909396Y-89797001D01*
X72641044Y-89850379D01*
X72388262Y-89955085D01*
X72160765Y-90107094D01*
X71967294Y-90300565D01*
X71815285Y-90528062D01*
X71710579Y-90780844D01*
X71657201Y-91049196D01*
X59354895Y-91049196D01*
X59509936Y-90372254D01*
X60105868Y-88435146D01*
X60842073Y-86546878D01*
X61714588Y-84717613D01*
X61810652Y-84549194D01*
X71657201Y-84549194D01*
X71657201Y-84822802D01*
X71710579Y-85091154D01*
X71815285Y-85343936D01*
X71967294Y-85571433D01*
X72160765Y-85764904D01*
X72388262Y-85916913D01*
X72641044Y-86021619D01*
X72909396Y-86074997D01*
X73183004Y-86074997D01*
X73328607Y-86046035D01*
X75703202Y-88420631D01*
X75703201Y-94567580D01*
X75699515Y-94605003D01*
X75703201Y-94642426D01*
X75703201Y-94642428D01*
X75714227Y-94754380D01*
X75757799Y-94898017D01*
X75771808Y-94924226D01*
X75828556Y-95030395D01*
X75839738Y-95044020D01*
X75923779Y-95146425D01*
X75952855Y-95170287D01*
X78421361Y-97638794D01*
X78392399Y-97784396D01*
X78392399Y-98058004D01*
X78445777Y-98326356D01*
X78550483Y-98579138D01*
X78702492Y-98806635D01*
X78895963Y-99000106D01*
X79123460Y-99152115D01*
X79376242Y-99256821D01*
X79644594Y-99310199D01*
X79918202Y-99310199D01*
X80186554Y-99256821D01*
X80439336Y-99152115D01*
X80666833Y-99000106D01*
X80860304Y-98806635D01*
X81012313Y-98579138D01*
X81117019Y-98326356D01*
X81170397Y-98058004D01*
X81170397Y-97784396D01*
X84892401Y-97784396D01*
X84892401Y-98058004D01*
X84945779Y-98326356D01*
X85050485Y-98579138D01*
X85202494Y-98806635D01*
X85395965Y-99000106D01*
X85623462Y-99152115D01*
X85876244Y-99256821D01*
X86144596Y-99310199D01*
X86418204Y-99310199D01*
X86686556Y-99256821D01*
X86939338Y-99152115D01*
X87166835Y-99000106D01*
X87360306Y-98806635D01*
X87512315Y-98579138D01*
X87617021Y-98326356D01*
X87670399Y-98058004D01*
X87670399Y-97784396D01*
X87617021Y-97516044D01*
X87512315Y-97263262D01*
X87360306Y-97035765D01*
X87166835Y-96842294D01*
X86939338Y-96690285D01*
X86686556Y-96585579D01*
X86418204Y-96532201D01*
X86144596Y-96532201D01*
X85876244Y-96585579D01*
X85623462Y-96690285D01*
X85395965Y-96842294D01*
X85202494Y-97035765D01*
X85050485Y-97263262D01*
X84945779Y-97516044D01*
X84892401Y-97784396D01*
X81170397Y-97784396D01*
X81117019Y-97516044D01*
X81012313Y-97263262D01*
X80860304Y-97035765D01*
X80666833Y-96842294D01*
X80439336Y-96690285D01*
X80186554Y-96585579D01*
X79918202Y-96532201D01*
X79644594Y-96532201D01*
X79498992Y-96561163D01*
X77227201Y-94289373D01*
X77227201Y-93284395D01*
X78392399Y-93284395D01*
X78392399Y-93558003D01*
X78445777Y-93826355D01*
X78550483Y-94079137D01*
X78702492Y-94306634D01*
X78895963Y-94500105D01*
X79123460Y-94652114D01*
X79376242Y-94756820D01*
X79644594Y-94810198D01*
X79918202Y-94810198D01*
X80186554Y-94756820D01*
X80439336Y-94652114D01*
X80666833Y-94500105D01*
X80860304Y-94306634D01*
X81012313Y-94079137D01*
X81117019Y-93826355D01*
X81170397Y-93558003D01*
X81170397Y-93284395D01*
X84892401Y-93284395D01*
X84892401Y-93558003D01*
X84945779Y-93826355D01*
X85050485Y-94079137D01*
X85202494Y-94306634D01*
X85395965Y-94500105D01*
X85623462Y-94652114D01*
X85876244Y-94756820D01*
X86144596Y-94810198D01*
X86418204Y-94810198D01*
X86686556Y-94756820D01*
X86939338Y-94652114D01*
X87166835Y-94500105D01*
X87360306Y-94306634D01*
X87512315Y-94079137D01*
X87617021Y-93826355D01*
X87670399Y-93558003D01*
X87670399Y-93284395D01*
X87617021Y-93016043D01*
X87512315Y-92763261D01*
X87360306Y-92535764D01*
X87166835Y-92342293D01*
X86939338Y-92190284D01*
X86686556Y-92085578D01*
X86418204Y-92032200D01*
X86144596Y-92032200D01*
X85876244Y-92085578D01*
X85623462Y-92190284D01*
X85395965Y-92342293D01*
X85202494Y-92535764D01*
X85050485Y-92763261D01*
X84945779Y-93016043D01*
X84892401Y-93284395D01*
X81170397Y-93284395D01*
X81117019Y-93016043D01*
X81012313Y-92763261D01*
X80860304Y-92535764D01*
X80666833Y-92342293D01*
X80439336Y-92190284D01*
X80186554Y-92085578D01*
X79918202Y-92032200D01*
X79644594Y-92032200D01*
X79376242Y-92085578D01*
X79123460Y-92190284D01*
X78895963Y-92342293D01*
X78702492Y-92535764D01*
X78550483Y-92763261D01*
X78445777Y-93016043D01*
X78392399Y-93284395D01*
X77227201Y-93284395D01*
X77227201Y-92538758D01*
X77409397Y-92574999D01*
X77683005Y-92574999D01*
X77951357Y-92521621D01*
X78204139Y-92416915D01*
X78431636Y-92264906D01*
X78625107Y-92071435D01*
X78777116Y-91843938D01*
X78881822Y-91591156D01*
X78935200Y-91322804D01*
X78935200Y-91049196D01*
X87130001Y-91049196D01*
X87130001Y-91322804D01*
X87183379Y-91591156D01*
X87288085Y-91843938D01*
X87440094Y-92071435D01*
X87633565Y-92264906D01*
X87861062Y-92416915D01*
X88113844Y-92521621D01*
X88382196Y-92574999D01*
X88655804Y-92574999D01*
X88924156Y-92521621D01*
X89176938Y-92416915D01*
X89404435Y-92264906D01*
X89597906Y-92071435D01*
X89749915Y-91843938D01*
X89854621Y-91591156D01*
X89907999Y-91322804D01*
X89907999Y-91049196D01*
X91630002Y-91049196D01*
X91630002Y-91322804D01*
X91683380Y-91591156D01*
X91788086Y-91843938D01*
X91940095Y-92071435D01*
X92133566Y-92264906D01*
X92361063Y-92416915D01*
X92613845Y-92521621D01*
X92882197Y-92574999D01*
X93155805Y-92574999D01*
X93424157Y-92521621D01*
X93676939Y-92416915D01*
X93904436Y-92264906D01*
X94097907Y-92071435D01*
X94249916Y-91843938D01*
X94354622Y-91591156D01*
X94408000Y-91322804D01*
X94408000Y-91049196D01*
X94354622Y-90780844D01*
X94249916Y-90528062D01*
X94097907Y-90300565D01*
X93904436Y-90107094D01*
X93676939Y-89955085D01*
X93424157Y-89850379D01*
X93155805Y-89797001D01*
X92882197Y-89797001D01*
X92613845Y-89850379D01*
X92361063Y-89955085D01*
X92133566Y-90107094D01*
X91940095Y-90300565D01*
X91788086Y-90528062D01*
X91683380Y-90780844D01*
X91630002Y-91049196D01*
X89907999Y-91049196D01*
X89854621Y-90780844D01*
X89749915Y-90528062D01*
X89597906Y-90300565D01*
X89404435Y-90107094D01*
X89176938Y-89955085D01*
X88924156Y-89850379D01*
X88655804Y-89797001D01*
X88382196Y-89797001D01*
X88113844Y-89850379D01*
X87861062Y-89955085D01*
X87633565Y-90107094D01*
X87440094Y-90300565D01*
X87288085Y-90528062D01*
X87183379Y-90780844D01*
X87130001Y-91049196D01*
X78935200Y-91049196D01*
X78881822Y-90780844D01*
X78777116Y-90528062D01*
X78625107Y-90300565D01*
X78431636Y-90107094D01*
X78204139Y-89955085D01*
X77951357Y-89850379D01*
X77683005Y-89797001D01*
X77409397Y-89797001D01*
X77227201Y-89833242D01*
X77227201Y-88142421D01*
X77230887Y-88104998D01*
X77227201Y-88067573D01*
X77216175Y-87955621D01*
X77172603Y-87811984D01*
X77101846Y-87679607D01*
X77006623Y-87563577D01*
X76977553Y-87539720D01*
X74406237Y-84968405D01*
X74435199Y-84822802D01*
X74435199Y-84549194D01*
X76157202Y-84549194D01*
X76157202Y-84822802D01*
X76210580Y-85091154D01*
X76315286Y-85343936D01*
X76467295Y-85571433D01*
X76660766Y-85764904D01*
X76888263Y-85916913D01*
X77141045Y-86021619D01*
X77409397Y-86074997D01*
X77683005Y-86074997D01*
X77951357Y-86021619D01*
X78204139Y-85916913D01*
X78431636Y-85764904D01*
X78625107Y-85571433D01*
X78777116Y-85343936D01*
X78881822Y-85091154D01*
X78935200Y-84822802D01*
X78935200Y-84549194D01*
X87130001Y-84549194D01*
X87130001Y-84822802D01*
X87183379Y-85091154D01*
X87288085Y-85343936D01*
X87440094Y-85571433D01*
X87633565Y-85764904D01*
X87861062Y-85916913D01*
X88113844Y-86021619D01*
X88382196Y-86074997D01*
X88655804Y-86074997D01*
X88924156Y-86021619D01*
X89176938Y-85916913D01*
X89404435Y-85764904D01*
X89597906Y-85571433D01*
X89749915Y-85343936D01*
X89854621Y-85091154D01*
X89907999Y-84822802D01*
X89907999Y-84549194D01*
X91630002Y-84549194D01*
X91630002Y-84822802D01*
X91683380Y-85091154D01*
X91788086Y-85343936D01*
X91940095Y-85571433D01*
X92133566Y-85764904D01*
X92361063Y-85916913D01*
X92613845Y-86021619D01*
X92882197Y-86074997D01*
X93155805Y-86074997D01*
X93424157Y-86021619D01*
X93676939Y-85916913D01*
X93904436Y-85764904D01*
X94097907Y-85571433D01*
X94249916Y-85343936D01*
X94354622Y-85091154D01*
X94408000Y-84822802D01*
X94408000Y-84549194D01*
X94354622Y-84280842D01*
X94249916Y-84028060D01*
X94097907Y-83800563D01*
X93904436Y-83607092D01*
X93676939Y-83455083D01*
X93424157Y-83350377D01*
X93155805Y-83296999D01*
X92882197Y-83296999D01*
X92613845Y-83350377D01*
X92361063Y-83455083D01*
X92133566Y-83607092D01*
X91940095Y-83800563D01*
X91788086Y-84028060D01*
X91683380Y-84280842D01*
X91630002Y-84549194D01*
X89907999Y-84549194D01*
X89854621Y-84280842D01*
X89749915Y-84028060D01*
X89597906Y-83800563D01*
X89404435Y-83607092D01*
X89176938Y-83455083D01*
X88924156Y-83350377D01*
X88655804Y-83296999D01*
X88382196Y-83296999D01*
X88113844Y-83350377D01*
X87861062Y-83455083D01*
X87633565Y-83607092D01*
X87440094Y-83800563D01*
X87288085Y-84028060D01*
X87183379Y-84280842D01*
X87130001Y-84549194D01*
X78935200Y-84549194D01*
X78881822Y-84280842D01*
X78777116Y-84028060D01*
X78625107Y-83800563D01*
X78431636Y-83607092D01*
X78204139Y-83455083D01*
X77951357Y-83350377D01*
X77683005Y-83296999D01*
X77409397Y-83296999D01*
X77141045Y-83350377D01*
X76888263Y-83455083D01*
X76660766Y-83607092D01*
X76467295Y-83800563D01*
X76315286Y-84028060D01*
X76210580Y-84280842D01*
X76157202Y-84549194D01*
X74435199Y-84549194D01*
X74381821Y-84280842D01*
X74277115Y-84028060D01*
X74125106Y-83800563D01*
X73931635Y-83607092D01*
X73704138Y-83455083D01*
X73451356Y-83350377D01*
X73183004Y-83296999D01*
X72909396Y-83296999D01*
X72641044Y-83350377D01*
X72388262Y-83455083D01*
X72160765Y-83607092D01*
X71967294Y-83800563D01*
X71815285Y-84028060D01*
X71710579Y-84280842D01*
X71657201Y-84549194D01*
X61810652Y-84549194D01*
X62718739Y-82957148D01*
X63149710Y-82315796D01*
X78392399Y-82315796D01*
X78392399Y-82589404D01*
X78445777Y-82857756D01*
X78550483Y-83110538D01*
X78702492Y-83338035D01*
X78895963Y-83531506D01*
X79123460Y-83683515D01*
X79376242Y-83788221D01*
X79644594Y-83841599D01*
X79918202Y-83841599D01*
X80186554Y-83788221D01*
X80439336Y-83683515D01*
X80666833Y-83531506D01*
X80860304Y-83338035D01*
X81012313Y-83110538D01*
X81117019Y-82857756D01*
X81170397Y-82589404D01*
X81170397Y-82315796D01*
X84892401Y-82315796D01*
X84892401Y-82589404D01*
X84945779Y-82857756D01*
X85050485Y-83110538D01*
X85202494Y-83338035D01*
X85395965Y-83531506D01*
X85623462Y-83683515D01*
X85876244Y-83788221D01*
X86144596Y-83841599D01*
X86418204Y-83841599D01*
X86686556Y-83788221D01*
X86939338Y-83683515D01*
X87166835Y-83531506D01*
X87360306Y-83338035D01*
X87512315Y-83110538D01*
X87617021Y-82857756D01*
X87670399Y-82589404D01*
X87670399Y-82315796D01*
X87617021Y-82047444D01*
X87512315Y-81794662D01*
X87360306Y-81567165D01*
X87166835Y-81373694D01*
X86939338Y-81221685D01*
X86686556Y-81116979D01*
X86418204Y-81063601D01*
X86144596Y-81063601D01*
X85876244Y-81116979D01*
X85623462Y-81221685D01*
X85395965Y-81373694D01*
X85202494Y-81567165D01*
X85050485Y-81794662D01*
X84945779Y-82047444D01*
X84892401Y-82315796D01*
X81170397Y-82315796D01*
X81117019Y-82047444D01*
X81012313Y-81794662D01*
X80860304Y-81567165D01*
X80666833Y-81373694D01*
X80439336Y-81221685D01*
X80186554Y-81116979D01*
X79918202Y-81063601D01*
X79644594Y-81063601D01*
X79376242Y-81116979D01*
X79123460Y-81221685D01*
X78895963Y-81373694D01*
X78702492Y-81567165D01*
X78550483Y-81794662D01*
X78445777Y-82047444D01*
X78392399Y-82315796D01*
X63149710Y-82315796D01*
X63849124Y-81274959D01*
X65099670Y-79680080D01*
X66463669Y-78181064D01*
X66848582Y-77815795D01*
X78392399Y-77815795D01*
X78392399Y-78089403D01*
X78445777Y-78357755D01*
X78550483Y-78610537D01*
X78702492Y-78838034D01*
X78895963Y-79031505D01*
X79123460Y-79183514D01*
X79376242Y-79288220D01*
X79644594Y-79341598D01*
X79918202Y-79341598D01*
X80186554Y-79288220D01*
X80439336Y-79183514D01*
X80666833Y-79031505D01*
X80860304Y-78838034D01*
X81012313Y-78610537D01*
X81117019Y-78357755D01*
X81170397Y-78089403D01*
X81170397Y-77815795D01*
X84892401Y-77815795D01*
X84892401Y-78089403D01*
X84945779Y-78357755D01*
X85050485Y-78610537D01*
X85202494Y-78838034D01*
X85395965Y-79031505D01*
X85623462Y-79183514D01*
X85876244Y-79288220D01*
X86144596Y-79341598D01*
X86418204Y-79341598D01*
X86686556Y-79288220D01*
X86939338Y-79183514D01*
X87166835Y-79031505D01*
X87360306Y-78838034D01*
X87512315Y-78610537D01*
X87617021Y-78357755D01*
X87670399Y-78089403D01*
X87670399Y-77815795D01*
X87617021Y-77547443D01*
X87512315Y-77294661D01*
X87360306Y-77067164D01*
X87166835Y-76873693D01*
X86939338Y-76721684D01*
X86686556Y-76616978D01*
X86418204Y-76563600D01*
X86144596Y-76563600D01*
X85876244Y-76616978D01*
X85623462Y-76721684D01*
X85395965Y-76873693D01*
X85202494Y-77067164D01*
X85050485Y-77294661D01*
X84945779Y-77547443D01*
X84892401Y-77815795D01*
X81170397Y-77815795D01*
X81117019Y-77547443D01*
X81012313Y-77294661D01*
X80860304Y-77067164D01*
X80666833Y-76873693D01*
X80439336Y-76721684D01*
X80186554Y-76616978D01*
X79918202Y-76563600D01*
X79644594Y-76563600D01*
X79376242Y-76616978D01*
X79123460Y-76721684D01*
X78895963Y-76873693D01*
X78702492Y-77067164D01*
X78550483Y-77294661D01*
X78445777Y-77547443D01*
X78392399Y-77815795D01*
X66848582Y-77815795D01*
X67933783Y-76785978D01*
X69502132Y-75502299D01*
X71160275Y-74336938D01*
X72899330Y-73296134D01*
X74709908Y-72385509D01*
X76582339Y-71609922D01*
X78506551Y-70973549D01*
X80472189Y-70479814D01*
X82468711Y-70131365D01*
X84487131Y-69929900D01*
X86236019Y-69874939D01*
X96243737Y-69875000D01*
G37*
X96243737Y-69875000D02*
X167439007Y-69875000D01*
X164746967Y-72567041D01*
X164745159Y-72565233D01*
X164628815Y-72681577D01*
X164559655Y-72439651D01*
X164307557Y-72320752D01*
X164037106Y-72253319D01*
X163758697Y-72239943D01*
X163483028Y-72281140D01*
X163220692Y-72375325D01*
X163100345Y-72439651D01*
X163031184Y-72681579D01*
X163830000Y-73480395D01*
X163844143Y-73466253D01*
X164023748Y-73645858D01*
X164009605Y-73660000D01*
X164023748Y-73674143D01*
X163844143Y-73853748D01*
X163830000Y-73839605D01*
X163815858Y-73853748D01*
X163636253Y-73674143D01*
X163650395Y-73660000D01*
X162851579Y-72861184D01*
X162609651Y-72930345D01*
X162561575Y-73032279D01*
X162543957Y-72989746D01*
X162389103Y-72757990D01*
X162192010Y-72560897D01*
X161960254Y-72406043D01*
X161702740Y-72299377D01*
X161429365Y-72245000D01*
X161150635Y-72245000D01*
X160985482Y-72277851D01*
X159820263Y-71112633D01*
X159796401Y-71083557D01*
X159680371Y-70988334D01*
X159547994Y-70917577D01*
X159404357Y-70874005D01*
X159292405Y-70862979D01*
X159292402Y-70862979D01*
X159254979Y-70859293D01*
X159217556Y-70862979D01*
X104214719Y-70862979D01*
X104177296Y-70859293D01*
X104139873Y-70862979D01*
X104139870Y-70862979D01*
X104027918Y-70874005D01*
X103884281Y-70917577D01*
X103826578Y-70948420D01*
X103751903Y-70988334D01*
X103675697Y-71050875D01*
X103635874Y-71083557D01*
X103612017Y-71112627D01*
X102203000Y-72521644D01*
X102203000Y-72257475D01*
X102101739Y-71748399D01*
X101903107Y-71268859D01*
X101614738Y-70837285D01*
X101247715Y-70470262D01*
X100816141Y-70181893D01*
X100336601Y-69983261D01*
X99827525Y-69882000D01*
X99308475Y-69882000D01*
X98799399Y-69983261D01*
X98319859Y-70181893D01*
X97888285Y-70470262D01*
X97521262Y-70837285D01*
X97232893Y-71268859D01*
X97034261Y-71748399D01*
X96933000Y-72257475D01*
X96933000Y-72776525D01*
X97034261Y-73285601D01*
X97232893Y-73765141D01*
X97521262Y-74196715D01*
X97888285Y-74563738D01*
X98319859Y-74852107D01*
X98799399Y-75050739D01*
X99308475Y-75152000D01*
X99572645Y-75152000D01*
X95570628Y-79154017D01*
X95541558Y-79177874D01*
X95517701Y-79206944D01*
X95517700Y-79206945D01*
X95446334Y-79293904D01*
X95375578Y-79426281D01*
X95332006Y-79569918D01*
X95317293Y-79719296D01*
X95320980Y-79756729D01*
X95320979Y-99404556D01*
X95317293Y-99441979D01*
X95320979Y-99479402D01*
X95320979Y-99479404D01*
X95332005Y-99591356D01*
X95375577Y-99734993D01*
X95408514Y-99796614D01*
X95446334Y-99867371D01*
X95475473Y-99902877D01*
X95541557Y-99983401D01*
X95570633Y-100007263D01*
X96711364Y-101147994D01*
X96683000Y-101290589D01*
X96683000Y-101563411D01*
X96736225Y-101830989D01*
X96840629Y-102083043D01*
X96992201Y-102309886D01*
X97185114Y-102502799D01*
X97411957Y-102654371D01*
X97609027Y-102736000D01*
X97411957Y-102817629D01*
X97185114Y-102969201D01*
X96992201Y-103162114D01*
X96840629Y-103388957D01*
X96736225Y-103641011D01*
X96683000Y-103908589D01*
X96683000Y-104181411D01*
X96736225Y-104448989D01*
X96840629Y-104701043D01*
X96992201Y-104927886D01*
X97185114Y-105120799D01*
X97411957Y-105272371D01*
X97514873Y-105315000D01*
X97411957Y-105357629D01*
X97185114Y-105509201D01*
X96992201Y-105702114D01*
X96840629Y-105928957D01*
X96736225Y-106181011D01*
X96683000Y-106448589D01*
X96683000Y-106721411D01*
X96736225Y-106988989D01*
X96840629Y-107241043D01*
X96992201Y-107467886D01*
X97185114Y-107660799D01*
X97411957Y-107812371D01*
X97514873Y-107855000D01*
X97411957Y-107897629D01*
X97185114Y-108049201D01*
X96992201Y-108242114D01*
X96840629Y-108468957D01*
X96736225Y-108721011D01*
X96683000Y-108988589D01*
X96683000Y-109261411D01*
X96736225Y-109528989D01*
X96840629Y-109781043D01*
X96992201Y-110007886D01*
X97185114Y-110200799D01*
X97411957Y-110352371D01*
X97514873Y-110395000D01*
X97411957Y-110437629D01*
X97185114Y-110589201D01*
X96992201Y-110782114D01*
X96840629Y-111008957D01*
X96736225Y-111261011D01*
X96683000Y-111528589D01*
X96683000Y-111801411D01*
X96736225Y-112068989D01*
X96840629Y-112321043D01*
X96992201Y-112547886D01*
X97185114Y-112740799D01*
X97411957Y-112892371D01*
X97514873Y-112935000D01*
X97411957Y-112977629D01*
X97185114Y-113129201D01*
X96992201Y-113322114D01*
X96840629Y-113548957D01*
X96736225Y-113801011D01*
X96683000Y-114068589D01*
X96683000Y-114341411D01*
X96736225Y-114608989D01*
X96840629Y-114861043D01*
X96992201Y-115087886D01*
X97185114Y-115280799D01*
X97411957Y-115432371D01*
X97664011Y-115536775D01*
X97931589Y-115590000D01*
X98204411Y-115590000D01*
X98471989Y-115536775D01*
X98724043Y-115432371D01*
X98950886Y-115280799D01*
X99143799Y-115087886D01*
X99295371Y-114861043D01*
X99399775Y-114608989D01*
X99453000Y-114341411D01*
X99453000Y-114068589D01*
X99399775Y-113801011D01*
X99380257Y-113753889D01*
X107416600Y-113753889D01*
X107416600Y-114084111D01*
X107481023Y-114407988D01*
X107607394Y-114713073D01*
X107790855Y-114987642D01*
X108024358Y-115221145D01*
X108298927Y-115404606D01*
X108604012Y-115530977D01*
X108927889Y-115595400D01*
X109258111Y-115595400D01*
X109581988Y-115530977D01*
X109887073Y-115404606D01*
X110161642Y-115221145D01*
X110395145Y-114987642D01*
X110578606Y-114713073D01*
X110704977Y-114407988D01*
X110769400Y-114084111D01*
X110769400Y-113753889D01*
X179679600Y-113753889D01*
X179679600Y-114084111D01*
X179744023Y-114407988D01*
X179870394Y-114713073D01*
X180053855Y-114987642D01*
X180287358Y-115221145D01*
X180561927Y-115404606D01*
X180867012Y-115530977D01*
X181190889Y-115595400D01*
X181521111Y-115595400D01*
X181844988Y-115530977D01*
X182150073Y-115404606D01*
X182424642Y-115221145D01*
X182658145Y-114987642D01*
X182841606Y-114713073D01*
X182967977Y-114407988D01*
X183032400Y-114084111D01*
X183032400Y-113753889D01*
X182967977Y-113430012D01*
X182841606Y-113124927D01*
X182788869Y-113046000D01*
X204863928Y-113046000D01*
X204863928Y-115046000D01*
X204876188Y-115170482D01*
X204912498Y-115290180D01*
X204971463Y-115400494D01*
X205050815Y-115497185D01*
X205147506Y-115576537D01*
X205257820Y-115635502D01*
X205377518Y-115671812D01*
X205502000Y-115684072D01*
X207502000Y-115684072D01*
X207626482Y-115671812D01*
X207746180Y-115635502D01*
X207856494Y-115576537D01*
X207953185Y-115497185D01*
X208032537Y-115400494D01*
X208091502Y-115290180D01*
X208124496Y-115181413D01*
X213146192Y-115181413D01*
X213241956Y-115445814D01*
X213531571Y-115586704D01*
X213843108Y-115668384D01*
X214164595Y-115687718D01*
X214483675Y-115643961D01*
X214788088Y-115538795D01*
X214962044Y-115445814D01*
X215057808Y-115181413D01*
X214102000Y-114225605D01*
X213146192Y-115181413D01*
X208124496Y-115181413D01*
X208127812Y-115170482D01*
X208140072Y-115046000D01*
X208140072Y-114108595D01*
X212460282Y-114108595D01*
X212504039Y-114427675D01*
X212609205Y-114732088D01*
X212702186Y-114906044D01*
X212966587Y-115001808D01*
X213922395Y-114046000D01*
X214281605Y-114046000D01*
X215237413Y-115001808D01*
X215501814Y-114906044D01*
X215642704Y-114616429D01*
X215724384Y-114304892D01*
X215743718Y-113983405D01*
X215699961Y-113664325D01*
X215594795Y-113359912D01*
X215501814Y-113185956D01*
X215237413Y-113090192D01*
X214281605Y-114046000D01*
X213922395Y-114046000D01*
X212966587Y-113090192D01*
X212702186Y-113185956D01*
X212561296Y-113475571D01*
X212479616Y-113787108D01*
X212460282Y-114108595D01*
X208140072Y-114108595D01*
X208140072Y-113046000D01*
X208127812Y-112921518D01*
X208124497Y-112910587D01*
X213146192Y-112910587D01*
X214102000Y-113866395D01*
X215057808Y-112910587D01*
X214962044Y-112646186D01*
X214672429Y-112505296D01*
X214360892Y-112423616D01*
X214039405Y-112404282D01*
X213720325Y-112448039D01*
X213415912Y-112553205D01*
X213241956Y-112646186D01*
X213146192Y-112910587D01*
X208124497Y-112910587D01*
X208091502Y-112801820D01*
X208032537Y-112691506D01*
X207953185Y-112594815D01*
X207856494Y-112515463D01*
X207746180Y-112456498D01*
X207626482Y-112420188D01*
X207502000Y-112407928D01*
X205502000Y-112407928D01*
X205377518Y-112420188D01*
X205257820Y-112456498D01*
X205147506Y-112515463D01*
X205050815Y-112594815D01*
X204971463Y-112691506D01*
X204912498Y-112801820D01*
X204876188Y-112921518D01*
X204863928Y-113046000D01*
X182788869Y-113046000D01*
X182658145Y-112850358D01*
X182424642Y-112616855D01*
X182150073Y-112433394D01*
X181844988Y-112307023D01*
X181521111Y-112242600D01*
X181190889Y-112242600D01*
X180867012Y-112307023D01*
X180561927Y-112433394D01*
X180287358Y-112616855D01*
X180053855Y-112850358D01*
X179870394Y-113124927D01*
X179744023Y-113430012D01*
X179679600Y-113753889D01*
X110769400Y-113753889D01*
X110704977Y-113430012D01*
X110578606Y-113124927D01*
X110395145Y-112850358D01*
X110161642Y-112616855D01*
X109887073Y-112433394D01*
X109581988Y-112307023D01*
X109258111Y-112242600D01*
X108927889Y-112242600D01*
X108604012Y-112307023D01*
X108298927Y-112433394D01*
X108024358Y-112616855D01*
X107790855Y-112850358D01*
X107607394Y-113124927D01*
X107481023Y-113430012D01*
X107416600Y-113753889D01*
X99380257Y-113753889D01*
X99295371Y-113548957D01*
X99143799Y-113322114D01*
X98950886Y-113129201D01*
X98724043Y-112977629D01*
X98621127Y-112935000D01*
X98724043Y-112892371D01*
X98950886Y-112740799D01*
X99143799Y-112547886D01*
X99295371Y-112321043D01*
X99399775Y-112068989D01*
X99453000Y-111801411D01*
X99453000Y-111528589D01*
X99399775Y-111261011D01*
X99295371Y-111008957D01*
X99143799Y-110782114D01*
X98950886Y-110589201D01*
X98724043Y-110437629D01*
X98621127Y-110395000D01*
X98724043Y-110352371D01*
X98950886Y-110200799D01*
X99143799Y-110007886D01*
X99295371Y-109781043D01*
X99399775Y-109528989D01*
X99453000Y-109261411D01*
X99453000Y-108988589D01*
X99399775Y-108721011D01*
X99295371Y-108468957D01*
X99143799Y-108242114D01*
X98950886Y-108049201D01*
X98724043Y-107897629D01*
X98621127Y-107855000D01*
X98724043Y-107812371D01*
X98950886Y-107660799D01*
X99143799Y-107467886D01*
X99295371Y-107241043D01*
X99399775Y-106988989D01*
X99453000Y-106721411D01*
X99453000Y-106448589D01*
X99399775Y-106181011D01*
X99295371Y-105928957D01*
X99205752Y-105794832D01*
X114935000Y-105794832D01*
X114935000Y-106295168D01*
X115032611Y-106785891D01*
X115224081Y-107248141D01*
X115502053Y-107664156D01*
X115855844Y-108017947D01*
X116271859Y-108295919D01*
X116734109Y-108487389D01*
X117224832Y-108585000D01*
X117725168Y-108585000D01*
X118215891Y-108487389D01*
X118678141Y-108295919D01*
X119094156Y-108017947D01*
X119447947Y-107664156D01*
X119725919Y-107248141D01*
X119917389Y-106785891D01*
X120015000Y-106295168D01*
X120015000Y-105794832D01*
X119917389Y-105304109D01*
X119725919Y-104841859D01*
X119447947Y-104425844D01*
X119094156Y-104072053D01*
X118678141Y-103794081D01*
X118215891Y-103602611D01*
X117725168Y-103505000D01*
X117224832Y-103505000D01*
X116734109Y-103602611D01*
X116271859Y-103794081D01*
X115855844Y-104072053D01*
X115502053Y-104425844D01*
X115224081Y-104841859D01*
X115032611Y-105304109D01*
X114935000Y-105794832D01*
X99205752Y-105794832D01*
X99143799Y-105702114D01*
X98950886Y-105509201D01*
X98724043Y-105357629D01*
X98621127Y-105315000D01*
X98724043Y-105272371D01*
X98950886Y-105120799D01*
X99143799Y-104927886D01*
X99295371Y-104701043D01*
X99399775Y-104448989D01*
X99453000Y-104181411D01*
X99453000Y-103908589D01*
X99399775Y-103641011D01*
X99295371Y-103388957D01*
X99143799Y-103162114D01*
X98950886Y-102969201D01*
X98724043Y-102817629D01*
X98526973Y-102736000D01*
X98724043Y-102654371D01*
X98950886Y-102502799D01*
X99143799Y-102309886D01*
X99295371Y-102083043D01*
X99399775Y-101830989D01*
X99453000Y-101563411D01*
X99453000Y-101290589D01*
X99399775Y-101023011D01*
X99295371Y-100770957D01*
X99143799Y-100544114D01*
X98950886Y-100351201D01*
X98724043Y-100199629D01*
X98621127Y-100157000D01*
X98724043Y-100114371D01*
X98950886Y-99962799D01*
X99143799Y-99769886D01*
X99295371Y-99543043D01*
X99399775Y-99290989D01*
X99453000Y-99023411D01*
X99453000Y-98750589D01*
X99399775Y-98483011D01*
X99295371Y-98230957D01*
X99143799Y-98004114D01*
X98950886Y-97811201D01*
X98724043Y-97659629D01*
X98621127Y-97617000D01*
X98724043Y-97574371D01*
X98950886Y-97422799D01*
X99143799Y-97229886D01*
X99295371Y-97003043D01*
X99399775Y-96750989D01*
X99453000Y-96483411D01*
X99453000Y-96210589D01*
X99399775Y-95943011D01*
X99295371Y-95690957D01*
X99143799Y-95464114D01*
X98998684Y-95318999D01*
X124251257Y-95318999D01*
X124194632Y-95403744D01*
X124118044Y-95588644D01*
X124079000Y-95784933D01*
X124079000Y-95985067D01*
X124118044Y-96181356D01*
X124194632Y-96366256D01*
X124305821Y-96532662D01*
X124447338Y-96674179D01*
X124613744Y-96785368D01*
X124798644Y-96861956D01*
X124994933Y-96901000D01*
X125033370Y-96901000D01*
X127704720Y-99572351D01*
X127728578Y-99601422D01*
X127844608Y-99696645D01*
X127976985Y-99767402D01*
X128120622Y-99810974D01*
X128232574Y-99822000D01*
X128232576Y-99822000D01*
X128269999Y-99825686D01*
X128307422Y-99822000D01*
X132157346Y-99822000D01*
X132250897Y-99962010D01*
X132447990Y-100159103D01*
X132679746Y-100313957D01*
X132937260Y-100420623D01*
X133210635Y-100475000D01*
X133489365Y-100475000D01*
X133762740Y-100420623D01*
X134020254Y-100313957D01*
X134252010Y-100159103D01*
X134449103Y-99962010D01*
X134603957Y-99730254D01*
X134620000Y-99691523D01*
X134636043Y-99730254D01*
X134790897Y-99962010D01*
X134987990Y-100159103D01*
X135219746Y-100313957D01*
X135477260Y-100420623D01*
X135750635Y-100475000D01*
X136029365Y-100475000D01*
X136302740Y-100420623D01*
X136560254Y-100313957D01*
X136792010Y-100159103D01*
X136989103Y-99962010D01*
X137143957Y-99730254D01*
X137160000Y-99691523D01*
X137176043Y-99730254D01*
X137330897Y-99962010D01*
X137527990Y-100159103D01*
X137759746Y-100313957D01*
X138017260Y-100420623D01*
X138290635Y-100475000D01*
X138569365Y-100475000D01*
X138842740Y-100420623D01*
X139100254Y-100313957D01*
X139332010Y-100159103D01*
X139529103Y-99962010D01*
X139683957Y-99730254D01*
X139700000Y-99691523D01*
X139716043Y-99730254D01*
X139870897Y-99962010D01*
X140067990Y-100159103D01*
X140299746Y-100313957D01*
X140557260Y-100420623D01*
X140830635Y-100475000D01*
X141109365Y-100475000D01*
X141382740Y-100420623D01*
X141640254Y-100313957D01*
X141872010Y-100159103D01*
X142069103Y-99962010D01*
X142223957Y-99730254D01*
X142240000Y-99691523D01*
X142256043Y-99730254D01*
X142410897Y-99962010D01*
X142607990Y-100159103D01*
X142839746Y-100313957D01*
X143097260Y-100420623D01*
X143370635Y-100475000D01*
X143649365Y-100475000D01*
X143922740Y-100420623D01*
X144180254Y-100313957D01*
X144412010Y-100159103D01*
X144532692Y-100038421D01*
X145251184Y-100038421D01*
X145320345Y-100280349D01*
X145572443Y-100399248D01*
X145842894Y-100466681D01*
X146121303Y-100480057D01*
X146396972Y-100438860D01*
X146659308Y-100344675D01*
X146779655Y-100280349D01*
X146848816Y-100038421D01*
X146050000Y-99239605D01*
X145251184Y-100038421D01*
X144532692Y-100038421D01*
X144609103Y-99962010D01*
X144763957Y-99730254D01*
X144778777Y-99694475D01*
X144829651Y-99789655D01*
X145071579Y-99858816D01*
X145870395Y-99060000D01*
X145856253Y-99045858D01*
X146035858Y-98866253D01*
X146050000Y-98880395D01*
X146064143Y-98866253D01*
X146243748Y-99045858D01*
X146229605Y-99060000D01*
X147028421Y-99858816D01*
X147270349Y-99789655D01*
X147318425Y-99687721D01*
X147336043Y-99730254D01*
X147490897Y-99962010D01*
X147687990Y-100159103D01*
X147919746Y-100313957D01*
X148177260Y-100420623D01*
X148450635Y-100475000D01*
X148637370Y-100475000D01*
X147004370Y-102108000D01*
X146089841Y-102108000D01*
X146062662Y-102080821D01*
X145896256Y-101969632D01*
X145711356Y-101893044D01*
X145515067Y-101854000D01*
X145314933Y-101854000D01*
X145118644Y-101893044D01*
X144933744Y-101969632D01*
X144767338Y-102080821D01*
X144625821Y-102222338D01*
X144514632Y-102388744D01*
X144438044Y-102573644D01*
X144399000Y-102769933D01*
X144399000Y-102970067D01*
X144438044Y-103166356D01*
X144514632Y-103351256D01*
X144625821Y-103517662D01*
X144767338Y-103659179D01*
X144933744Y-103770368D01*
X145118644Y-103846956D01*
X145314933Y-103886000D01*
X145515067Y-103886000D01*
X145711356Y-103846956D01*
X145896256Y-103770368D01*
X146062662Y-103659179D01*
X146089841Y-103632000D01*
X147282577Y-103632000D01*
X147320000Y-103635686D01*
X147357423Y-103632000D01*
X147357426Y-103632000D01*
X147469378Y-103620974D01*
X147613015Y-103577402D01*
X147745392Y-103506645D01*
X147861422Y-103411422D01*
X147885284Y-103382346D01*
X150825481Y-100442149D01*
X150990635Y-100475000D01*
X151269365Y-100475000D01*
X151542740Y-100420623D01*
X151800254Y-100313957D01*
X152032010Y-100159103D01*
X152229103Y-99962010D01*
X152383957Y-99730254D01*
X152400000Y-99691523D01*
X152416043Y-99730254D01*
X152570897Y-99962010D01*
X152767990Y-100159103D01*
X152999746Y-100313957D01*
X153257260Y-100420623D01*
X153530635Y-100475000D01*
X153809365Y-100475000D01*
X154082740Y-100420623D01*
X154340254Y-100313957D01*
X154572010Y-100159103D01*
X154769103Y-99962010D01*
X154923957Y-99730254D01*
X154940000Y-99691523D01*
X154956043Y-99730254D01*
X155110897Y-99962010D01*
X155307990Y-100159103D01*
X155539746Y-100313957D01*
X155797260Y-100420623D01*
X156070635Y-100475000D01*
X156349365Y-100475000D01*
X156622740Y-100420623D01*
X156880254Y-100313957D01*
X157112010Y-100159103D01*
X157309103Y-99962010D01*
X157463957Y-99730254D01*
X157480000Y-99691523D01*
X157496043Y-99730254D01*
X157650897Y-99962010D01*
X157847990Y-100159103D01*
X158079746Y-100313957D01*
X158337260Y-100420623D01*
X158610635Y-100475000D01*
X158889365Y-100475000D01*
X159162740Y-100420623D01*
X159420254Y-100313957D01*
X159652010Y-100159103D01*
X159849103Y-99962010D01*
X160003957Y-99730254D01*
X160020000Y-99691523D01*
X160036043Y-99730254D01*
X160190897Y-99962010D01*
X160387990Y-100159103D01*
X160619746Y-100313957D01*
X160877260Y-100420623D01*
X161150635Y-100475000D01*
X161429365Y-100475000D01*
X161702740Y-100420623D01*
X161960254Y-100313957D01*
X162192010Y-100159103D01*
X162389103Y-99962010D01*
X162543957Y-99730254D01*
X162560000Y-99691523D01*
X162576043Y-99730254D01*
X162730897Y-99962010D01*
X162927990Y-100159103D01*
X163159746Y-100313957D01*
X163417260Y-100420623D01*
X163690635Y-100475000D01*
X163969365Y-100475000D01*
X164242740Y-100420623D01*
X164500254Y-100313957D01*
X164732010Y-100159103D01*
X164929103Y-99962010D01*
X165083957Y-99730254D01*
X165100000Y-99691523D01*
X165116043Y-99730254D01*
X165270897Y-99962010D01*
X165467990Y-100159103D01*
X165699746Y-100313957D01*
X165957260Y-100420623D01*
X166230635Y-100475000D01*
X166509365Y-100475000D01*
X166782740Y-100420623D01*
X167040254Y-100313957D01*
X167272010Y-100159103D01*
X167469103Y-99962010D01*
X167623957Y-99730254D01*
X167640000Y-99691523D01*
X167656043Y-99730254D01*
X167810897Y-99962010D01*
X168007990Y-100159103D01*
X168239746Y-100313957D01*
X168497260Y-100420623D01*
X168770635Y-100475000D01*
X169049365Y-100475000D01*
X169214519Y-100442149D01*
X171314797Y-102542427D01*
X171338659Y-102571503D01*
X171412300Y-102631938D01*
X171454688Y-102666726D01*
X171494538Y-102688026D01*
X171587066Y-102737483D01*
X171730703Y-102781055D01*
X171842655Y-102792081D01*
X171842658Y-102792081D01*
X171880081Y-102795767D01*
X171917504Y-102792081D01*
X198493581Y-102792081D01*
X198531004Y-102795767D01*
X198568427Y-102792081D01*
X198568430Y-102792081D01*
X198680382Y-102781055D01*
X198824019Y-102737483D01*
X198956396Y-102666726D01*
X199072426Y-102571503D01*
X199096288Y-102542427D01*
X202406518Y-99232197D01*
X205369401Y-99232197D01*
X205369401Y-99505805D01*
X205422779Y-99774157D01*
X205527485Y-100026939D01*
X205679494Y-100254436D01*
X205872965Y-100447907D01*
X206100462Y-100599916D01*
X206353244Y-100704622D01*
X206621596Y-100758000D01*
X206895204Y-100758000D01*
X207163556Y-100704622D01*
X207416338Y-100599916D01*
X207643835Y-100447907D01*
X207837306Y-100254436D01*
X207989315Y-100026939D01*
X208094021Y-99774157D01*
X208147399Y-99505805D01*
X208147399Y-99232197D01*
X211869403Y-99232197D01*
X211869403Y-99505805D01*
X211922781Y-99774157D01*
X212027487Y-100026939D01*
X212179496Y-100254436D01*
X212372967Y-100447907D01*
X212600464Y-100599916D01*
X212853246Y-100704622D01*
X213121598Y-100758000D01*
X213395206Y-100758000D01*
X213663558Y-100704622D01*
X213916340Y-100599916D01*
X214143837Y-100447907D01*
X214337308Y-100254436D01*
X214489317Y-100026939D01*
X214594023Y-99774157D01*
X214647401Y-99505805D01*
X214647401Y-99232197D01*
X214594023Y-98963845D01*
X214489317Y-98711063D01*
X214337308Y-98483566D01*
X214143837Y-98290095D01*
X213916340Y-98138086D01*
X213663558Y-98033380D01*
X213395206Y-97980002D01*
X213121598Y-97980002D01*
X212853246Y-98033380D01*
X212600464Y-98138086D01*
X212372967Y-98290095D01*
X212179496Y-98483566D01*
X212027487Y-98711063D01*
X211922781Y-98963845D01*
X211869403Y-99232197D01*
X208147399Y-99232197D01*
X208094021Y-98963845D01*
X207989315Y-98711063D01*
X207837306Y-98483566D01*
X207643835Y-98290095D01*
X207416338Y-98138086D01*
X207163556Y-98033380D01*
X206895204Y-97980002D01*
X206621596Y-97980002D01*
X206353244Y-98033380D01*
X206100462Y-98138086D01*
X205872965Y-98290095D01*
X205679494Y-98483566D01*
X205527485Y-98711063D01*
X205422779Y-98963845D01*
X205369401Y-99232197D01*
X202406518Y-99232197D01*
X205781887Y-95856828D01*
X205872965Y-95947906D01*
X206100462Y-96099915D01*
X206353244Y-96204621D01*
X206621596Y-96257999D01*
X206895204Y-96257999D01*
X207163556Y-96204621D01*
X207416338Y-96099915D01*
X207643835Y-95947906D01*
X207837306Y-95754435D01*
X207989315Y-95526938D01*
X208094021Y-95274156D01*
X208147399Y-95005804D01*
X208147399Y-94732196D01*
X211869403Y-94732196D01*
X211869403Y-95005804D01*
X211922781Y-95274156D01*
X212027487Y-95526938D01*
X212179496Y-95754435D01*
X212372967Y-95947906D01*
X212600464Y-96099915D01*
X212853246Y-96204621D01*
X213121598Y-96257999D01*
X213395206Y-96257999D01*
X213663558Y-96204621D01*
X213916340Y-96099915D01*
X214143837Y-95947906D01*
X214337308Y-95754435D01*
X214489317Y-95526938D01*
X214594023Y-95274156D01*
X214647401Y-95005804D01*
X214647401Y-94732196D01*
X214594023Y-94463844D01*
X214489317Y-94211062D01*
X214337308Y-93983565D01*
X214143837Y-93790094D01*
X213916340Y-93638085D01*
X213663558Y-93533379D01*
X213395206Y-93480001D01*
X213121598Y-93480001D01*
X212853246Y-93533379D01*
X212600464Y-93638085D01*
X212372967Y-93790094D01*
X212179496Y-93983565D01*
X212027487Y-94211062D01*
X211922781Y-94463844D01*
X211869403Y-94732196D01*
X208147399Y-94732196D01*
X208094021Y-94463844D01*
X207989315Y-94211062D01*
X207837306Y-93983565D01*
X207643835Y-93790094D01*
X207416338Y-93638085D01*
X207163556Y-93533379D01*
X206895204Y-93480001D01*
X206621596Y-93480001D01*
X206353244Y-93533379D01*
X206100462Y-93638085D01*
X205872965Y-93790094D01*
X205679494Y-93983565D01*
X205592957Y-94113077D01*
X205542707Y-94118026D01*
X205399070Y-94161598D01*
X205365870Y-94179344D01*
X205266692Y-94232355D01*
X205193805Y-94292172D01*
X205150663Y-94327578D01*
X205126806Y-94356648D01*
X198215374Y-101268081D01*
X193425096Y-101268081D01*
X193460620Y-101089491D01*
X193460620Y-100816669D01*
X193407395Y-100549091D01*
X193302991Y-100297037D01*
X193151419Y-100070194D01*
X192958506Y-99877281D01*
X192731663Y-99725709D01*
X192628747Y-99683080D01*
X192731663Y-99640451D01*
X192958506Y-99488879D01*
X193151419Y-99295966D01*
X193302991Y-99069123D01*
X193407395Y-98817069D01*
X193460620Y-98549491D01*
X193460620Y-98276669D01*
X193407395Y-98009091D01*
X193302991Y-97757037D01*
X193151419Y-97530194D01*
X192958506Y-97337281D01*
X192731663Y-97185709D01*
X192628747Y-97143080D01*
X192731663Y-97100451D01*
X192958506Y-96948879D01*
X193151419Y-96755966D01*
X193302991Y-96529123D01*
X193407395Y-96277069D01*
X193460620Y-96009491D01*
X193460620Y-95736669D01*
X193407395Y-95469091D01*
X193302991Y-95217037D01*
X193151419Y-94990194D01*
X192958506Y-94797281D01*
X192842137Y-94719525D01*
X192950102Y-94708892D01*
X193069800Y-94672582D01*
X193180114Y-94613617D01*
X193276805Y-94534265D01*
X193356157Y-94437574D01*
X193415122Y-94327260D01*
X193451432Y-94207562D01*
X193463692Y-94083080D01*
X193463692Y-93018079D01*
X215806098Y-93018079D01*
X215843521Y-93021765D01*
X215880944Y-93018079D01*
X215880947Y-93018079D01*
X215992899Y-93007053D01*
X216136536Y-92963481D01*
X216268913Y-92892724D01*
X216384943Y-92797501D01*
X216408805Y-92768425D01*
X217090793Y-92086437D01*
X217236396Y-92115399D01*
X217510004Y-92115399D01*
X217778356Y-92062021D01*
X218031138Y-91957315D01*
X218258635Y-91805306D01*
X218452106Y-91611835D01*
X218604115Y-91384338D01*
X218708821Y-91131556D01*
X218762199Y-90863204D01*
X218762199Y-90589596D01*
X218708821Y-90321244D01*
X218604115Y-90068462D01*
X218452106Y-89840965D01*
X218258635Y-89647494D01*
X218031138Y-89495485D01*
X217778356Y-89390779D01*
X217510004Y-89337401D01*
X217236396Y-89337401D01*
X216968044Y-89390779D01*
X216715262Y-89495485D01*
X216487765Y-89647494D01*
X216294294Y-89840965D01*
X216142285Y-90068462D01*
X216037579Y-90321244D01*
X215984201Y-90589596D01*
X215984201Y-90863204D01*
X216013163Y-91008807D01*
X215527891Y-91494079D01*
X203728393Y-91494079D01*
X203800116Y-91386738D01*
X203904822Y-91133956D01*
X203958200Y-90865604D01*
X203958200Y-90591996D01*
X203904822Y-90323644D01*
X203800116Y-90070862D01*
X203648107Y-89843365D01*
X203454636Y-89649894D01*
X203227139Y-89497885D01*
X202974357Y-89393179D01*
X202706005Y-89339801D01*
X202432397Y-89339801D01*
X202164045Y-89393179D01*
X201911263Y-89497885D01*
X201683766Y-89649894D01*
X201490295Y-89843365D01*
X201338286Y-90070862D01*
X201233580Y-90323644D01*
X201180202Y-90591996D01*
X201180202Y-90865604D01*
X201233580Y-91133956D01*
X201338286Y-91386738D01*
X201410009Y-91494079D01*
X199228392Y-91494079D01*
X199300115Y-91386738D01*
X199404821Y-91133956D01*
X199458199Y-90865604D01*
X199458199Y-90591996D01*
X199404821Y-90323644D01*
X199300115Y-90070862D01*
X199148106Y-89843365D01*
X198954635Y-89649894D01*
X198727138Y-89497885D01*
X198474356Y-89393179D01*
X198206004Y-89339801D01*
X197932396Y-89339801D01*
X197664044Y-89393179D01*
X197411262Y-89497885D01*
X197183765Y-89649894D01*
X196990294Y-89843365D01*
X196907817Y-89966800D01*
X195008709Y-89966800D01*
X201291360Y-83684150D01*
X201233580Y-83823642D01*
X201180202Y-84091994D01*
X201180202Y-84365602D01*
X201233580Y-84633954D01*
X201338286Y-84886736D01*
X201490295Y-85114233D01*
X201683766Y-85307704D01*
X201911263Y-85459713D01*
X202164045Y-85564419D01*
X202432397Y-85617797D01*
X202706005Y-85617797D01*
X202974357Y-85564419D01*
X203227139Y-85459713D01*
X203454636Y-85307704D01*
X203648107Y-85114233D01*
X203800116Y-84886736D01*
X203904822Y-84633954D01*
X203958200Y-84365602D01*
X203958200Y-84091994D01*
X203904822Y-83823642D01*
X203800116Y-83570860D01*
X203648107Y-83343363D01*
X203454636Y-83149892D01*
X203227139Y-82997883D01*
X202974357Y-82893177D01*
X202706005Y-82839799D01*
X202432397Y-82839799D01*
X202164045Y-82893177D01*
X202024553Y-82950957D01*
X205401189Y-79574321D01*
X205367001Y-79746197D01*
X205367001Y-80019805D01*
X205420379Y-80288157D01*
X205525085Y-80540939D01*
X205677094Y-80768436D01*
X205870565Y-80961907D01*
X206098062Y-81113916D01*
X206350844Y-81218622D01*
X206619196Y-81272000D01*
X206892804Y-81272000D01*
X207161156Y-81218622D01*
X207413938Y-81113916D01*
X207641435Y-80961907D01*
X207834906Y-80768436D01*
X207986915Y-80540939D01*
X208091621Y-80288157D01*
X208144999Y-80019805D01*
X208144999Y-79746197D01*
X208091621Y-79477845D01*
X207986915Y-79225063D01*
X207834906Y-78997566D01*
X207641435Y-78804095D01*
X207413938Y-78652086D01*
X207161156Y-78547380D01*
X206892804Y-78494002D01*
X206619196Y-78494002D01*
X206447320Y-78528190D01*
X207268352Y-77707158D01*
X207297422Y-77683301D01*
X207326531Y-77647832D01*
X207392645Y-77567272D01*
X207463401Y-77434895D01*
X207463402Y-77434894D01*
X207506974Y-77291257D01*
X207518000Y-77179305D01*
X207518000Y-77179302D01*
X207521686Y-77141879D01*
X207518000Y-77104456D01*
X207518000Y-76544383D01*
X207641435Y-76461906D01*
X207834906Y-76268435D01*
X207986915Y-76040938D01*
X208091621Y-75788156D01*
X208144999Y-75519804D01*
X208144999Y-75246196D01*
X208091621Y-74977844D01*
X207986915Y-74725062D01*
X207834906Y-74497565D01*
X207641435Y-74304094D01*
X207413938Y-74152085D01*
X207161156Y-74047379D01*
X206892804Y-73994001D01*
X206619196Y-73994001D01*
X206350844Y-74047379D01*
X206098062Y-74152085D01*
X205870565Y-74304094D01*
X205677094Y-74497565D01*
X205525085Y-74725062D01*
X205420379Y-74977844D01*
X205367001Y-75246196D01*
X205367001Y-75519804D01*
X205420379Y-75788156D01*
X205525085Y-76040938D01*
X205677094Y-76268435D01*
X205870565Y-76461906D01*
X205994001Y-76544383D01*
X205994001Y-76826247D01*
X199279797Y-83540452D01*
X199148106Y-83343363D01*
X198954635Y-83149892D01*
X198727138Y-82997883D01*
X198474356Y-82893177D01*
X198206004Y-82839799D01*
X197932396Y-82839799D01*
X197664044Y-82893177D01*
X197411262Y-82997883D01*
X197183765Y-83149892D01*
X196990294Y-83343363D01*
X196907817Y-83466798D01*
X167800833Y-83466798D01*
X176225482Y-75042149D01*
X176390635Y-75075000D01*
X176669365Y-75075000D01*
X176942740Y-75020623D01*
X177200254Y-74913957D01*
X177432010Y-74759103D01*
X177552692Y-74638421D01*
X178271184Y-74638421D01*
X178340345Y-74880349D01*
X178592443Y-74999248D01*
X178862894Y-75066681D01*
X179141303Y-75080057D01*
X179416972Y-75038860D01*
X179679308Y-74944675D01*
X179799655Y-74880349D01*
X179868816Y-74638421D01*
X179070000Y-73839605D01*
X178271184Y-74638421D01*
X177552692Y-74638421D01*
X177629103Y-74562010D01*
X177783957Y-74330254D01*
X177798777Y-74294475D01*
X177849651Y-74389655D01*
X178091579Y-74458816D01*
X178890395Y-73660000D01*
X179249605Y-73660000D01*
X180048421Y-74458816D01*
X180290349Y-74389655D01*
X180409248Y-74137557D01*
X180476681Y-73867106D01*
X180490057Y-73588697D01*
X180448860Y-73313028D01*
X180354675Y-73050692D01*
X180290349Y-72930345D01*
X180048421Y-72861184D01*
X179249605Y-73660000D01*
X178890395Y-73660000D01*
X178091579Y-72861184D01*
X177849651Y-72930345D01*
X177801575Y-73032279D01*
X177783957Y-72989746D01*
X177629103Y-72757990D01*
X177552692Y-72681579D01*
X178271184Y-72681579D01*
X179070000Y-73480395D01*
X179868816Y-72681579D01*
X179799655Y-72439651D01*
X179547557Y-72320752D01*
X179277106Y-72253319D01*
X178998697Y-72239943D01*
X178723028Y-72281140D01*
X178460692Y-72375325D01*
X178340345Y-72439651D01*
X178271184Y-72681579D01*
X177552692Y-72681579D01*
X177432010Y-72560897D01*
X177200254Y-72406043D01*
X176942740Y-72299377D01*
X176669365Y-72245000D01*
X176390635Y-72245000D01*
X176117260Y-72299377D01*
X175859746Y-72406043D01*
X175627990Y-72560897D01*
X175430897Y-72757990D01*
X175276043Y-72989746D01*
X175260000Y-73028477D01*
X175243957Y-72989746D01*
X175089103Y-72757990D01*
X174892010Y-72560897D01*
X174660254Y-72406043D01*
X174402740Y-72299377D01*
X174129365Y-72245000D01*
X173850635Y-72245000D01*
X173577260Y-72299377D01*
X173319746Y-72406043D01*
X173087990Y-72560897D01*
X172890897Y-72757990D01*
X172736043Y-72989746D01*
X172720000Y-73028477D01*
X172703957Y-72989746D01*
X172549103Y-72757990D01*
X172352010Y-72560897D01*
X172120254Y-72406043D01*
X171862740Y-72299377D01*
X171589365Y-72245000D01*
X171310635Y-72245000D01*
X171037260Y-72299377D01*
X170779746Y-72406043D01*
X170547990Y-72560897D01*
X170350897Y-72757990D01*
X170196043Y-72989746D01*
X170180000Y-73028477D01*
X170163957Y-72989746D01*
X170009103Y-72757990D01*
X169812010Y-72560897D01*
X169580254Y-72406043D01*
X169322740Y-72299377D01*
X169049365Y-72245000D01*
X168770635Y-72245000D01*
X168497260Y-72299377D01*
X168239746Y-72406043D01*
X168007990Y-72560897D01*
X167810897Y-72757990D01*
X167656043Y-72989746D01*
X167640000Y-73028477D01*
X167623957Y-72989746D01*
X167469103Y-72757990D01*
X167272010Y-72560897D01*
X167054024Y-72415244D01*
X168367270Y-71101999D01*
X189644612Y-71101999D01*
X189432893Y-71418859D01*
X189234261Y-71898399D01*
X189133000Y-72407475D01*
X189133000Y-72926525D01*
X189234261Y-73435601D01*
X189432893Y-73915141D01*
X189721262Y-74346715D01*
X190088285Y-74713738D01*
X190519859Y-75002107D01*
X190999399Y-75200739D01*
X191508475Y-75302000D01*
X192027525Y-75302000D01*
X192536601Y-75200739D01*
X193016141Y-75002107D01*
X193447715Y-74713738D01*
X193814738Y-74346715D01*
X194103107Y-73915141D01*
X194301739Y-73435601D01*
X194403000Y-72926525D01*
X194403000Y-72407475D01*
X194301739Y-71898399D01*
X194103107Y-71418859D01*
X193891388Y-71101999D01*
X204997251Y-71101999D01*
X212567656Y-78672404D01*
X212370567Y-78804095D01*
X212177096Y-78997566D01*
X212025087Y-79225063D01*
X211920381Y-79477845D01*
X211867003Y-79746197D01*
X211867003Y-80019805D01*
X211920381Y-80288157D01*
X212025087Y-80540939D01*
X212177096Y-80768436D01*
X212370567Y-80961907D01*
X212598064Y-81113916D01*
X212850846Y-81218622D01*
X213119198Y-81272000D01*
X213392806Y-81272000D01*
X213661158Y-81218622D01*
X213913940Y-81113916D01*
X214141437Y-80961907D01*
X214334908Y-80768436D01*
X214466599Y-80571347D01*
X216839340Y-82944088D01*
X216715262Y-82995483D01*
X216487765Y-83147492D01*
X216294294Y-83340963D01*
X216142285Y-83568460D01*
X216037579Y-83821242D01*
X215984201Y-84089594D01*
X215984201Y-84363202D01*
X216037579Y-84631554D01*
X216142285Y-84884336D01*
X216294294Y-85111833D01*
X216487765Y-85305304D01*
X216715262Y-85457313D01*
X216968044Y-85562019D01*
X217236396Y-85615397D01*
X217510004Y-85615397D01*
X217778356Y-85562019D01*
X218031138Y-85457313D01*
X218258635Y-85305304D01*
X218452106Y-85111833D01*
X218604115Y-84884336D01*
X218655510Y-84760258D01*
X222841999Y-88946747D01*
X222841999Y-89730857D01*
X222758636Y-89647494D01*
X222531139Y-89495485D01*
X222278357Y-89390779D01*
X222010005Y-89337401D01*
X221736397Y-89337401D01*
X221468045Y-89390779D01*
X221215263Y-89495485D01*
X220987766Y-89647494D01*
X220794295Y-89840965D01*
X220642286Y-90068462D01*
X220537580Y-90321244D01*
X220484202Y-90589596D01*
X220484202Y-90863204D01*
X220537580Y-91131556D01*
X220642286Y-91384338D01*
X220794295Y-91611835D01*
X220987766Y-91805306D01*
X221215263Y-91957315D01*
X221468045Y-92062021D01*
X221736397Y-92115399D01*
X222010005Y-92115399D01*
X222278357Y-92062021D01*
X222531139Y-91957315D01*
X222758636Y-91805306D01*
X222841999Y-91721943D01*
X222841998Y-99616001D01*
X222713196Y-99616001D01*
X222444844Y-99669379D01*
X222192062Y-99774085D01*
X221964565Y-99926094D01*
X221771094Y-100119565D01*
X221619085Y-100347062D01*
X221514379Y-100599844D01*
X221461001Y-100868196D01*
X221461001Y-101141804D01*
X221514379Y-101410156D01*
X221619085Y-101662938D01*
X221754726Y-101865938D01*
X221438567Y-101865938D01*
X221121904Y-101928926D01*
X220823614Y-102052482D01*
X220555160Y-102231857D01*
X220326858Y-102460159D01*
X220147483Y-102728613D01*
X220023927Y-103026903D01*
X219960939Y-103343566D01*
X219960939Y-103666434D01*
X220023927Y-103983097D01*
X220147483Y-104281387D01*
X220326858Y-104549841D01*
X220555160Y-104778143D01*
X220823614Y-104957518D01*
X221121904Y-105081074D01*
X221438567Y-105144062D01*
X221761435Y-105144062D01*
X222078098Y-105081074D01*
X222376388Y-104957518D01*
X222644842Y-104778143D01*
X222873144Y-104549841D01*
X223052519Y-104281387D01*
X223176075Y-103983097D01*
X223239063Y-103666434D01*
X223239063Y-103343566D01*
X223176075Y-103026903D01*
X223052519Y-102728613D01*
X222873144Y-102460159D01*
X222806984Y-102393999D01*
X222986804Y-102393999D01*
X223255156Y-102340621D01*
X223507938Y-102235915D01*
X223735435Y-102083906D01*
X223928906Y-101890435D01*
X224080915Y-101662938D01*
X224185621Y-101410156D01*
X224238999Y-101141804D01*
X224238999Y-100868196D01*
X225961002Y-100868196D01*
X225961002Y-101141804D01*
X226014380Y-101410156D01*
X226119086Y-101662938D01*
X226271095Y-101890435D01*
X226464566Y-102083906D01*
X226692063Y-102235915D01*
X226944845Y-102340621D01*
X227213197Y-102393999D01*
X227393017Y-102393999D01*
X227326857Y-102460159D01*
X227147482Y-102728613D01*
X227023926Y-103026903D01*
X226960938Y-103343566D01*
X226960938Y-103666434D01*
X227023926Y-103983097D01*
X227147482Y-104281387D01*
X227326857Y-104549841D01*
X227555159Y-104778143D01*
X227823613Y-104957518D01*
X228121903Y-105081074D01*
X228438566Y-105144062D01*
X228761434Y-105144062D01*
X229078097Y-105081074D01*
X229376387Y-104957518D01*
X229644841Y-104778143D01*
X229873143Y-104549841D01*
X230052518Y-104281387D01*
X230176074Y-103983097D01*
X230239062Y-103666434D01*
X230239062Y-103343566D01*
X230176074Y-103026903D01*
X230052518Y-102728613D01*
X229873143Y-102460159D01*
X229644841Y-102231857D01*
X229376387Y-102052482D01*
X229078097Y-101928926D01*
X228761434Y-101865938D01*
X228445275Y-101865938D01*
X228580916Y-101662938D01*
X228685622Y-101410156D01*
X228739000Y-101141804D01*
X228739000Y-100868196D01*
X228685622Y-100599844D01*
X228580916Y-100347062D01*
X228428907Y-100119565D01*
X228235436Y-99926094D01*
X228007939Y-99774085D01*
X227755157Y-99669379D01*
X227486805Y-99616001D01*
X227213197Y-99616001D01*
X226944845Y-99669379D01*
X226692063Y-99774085D01*
X226464566Y-99926094D01*
X226271095Y-100119565D01*
X226119086Y-100347062D01*
X226014380Y-100599844D01*
X225961002Y-100868196D01*
X224238999Y-100868196D01*
X224208611Y-100715425D01*
X224240643Y-100676394D01*
X224311400Y-100544017D01*
X224354972Y-100400380D01*
X224365998Y-100288428D01*
X224365998Y-100288426D01*
X224369684Y-100251003D01*
X224365998Y-100213580D01*
X224365998Y-88668539D01*
X224369684Y-88631116D01*
X224365998Y-88593690D01*
X224354972Y-88481738D01*
X224311400Y-88338101D01*
X224272452Y-88265235D01*
X224240643Y-88205723D01*
X224183564Y-88136173D01*
X224145420Y-88089694D01*
X224116344Y-88065832D01*
X221648407Y-85597895D01*
X221736397Y-85615397D01*
X222010005Y-85615397D01*
X222278357Y-85562019D01*
X222531139Y-85457313D01*
X222758636Y-85305304D01*
X222952107Y-85111833D01*
X223104116Y-84884336D01*
X223208822Y-84631554D01*
X223262200Y-84363202D01*
X223262200Y-84089594D01*
X223208822Y-83821242D01*
X223104116Y-83568460D01*
X222952107Y-83340963D01*
X222758636Y-83147492D01*
X222531139Y-82995483D01*
X222278357Y-82890777D01*
X222010005Y-82837399D01*
X221736397Y-82837399D01*
X221468045Y-82890777D01*
X221215263Y-82995483D01*
X220987766Y-83147492D01*
X220794295Y-83340963D01*
X220642286Y-83568460D01*
X220537580Y-83821242D01*
X220484202Y-84089594D01*
X220484202Y-84363202D01*
X220501704Y-84451192D01*
X212711353Y-76660841D01*
X212850846Y-76718621D01*
X213119198Y-76771999D01*
X213392806Y-76771999D01*
X213661158Y-76718621D01*
X213913940Y-76613915D01*
X214141437Y-76461906D01*
X214334908Y-76268435D01*
X214486917Y-76040938D01*
X214591623Y-75788156D01*
X214645001Y-75519804D01*
X214645001Y-75246196D01*
X214591623Y-74977844D01*
X214486917Y-74725062D01*
X214334908Y-74497565D01*
X214141437Y-74304094D01*
X213913940Y-74152085D01*
X213661158Y-74047379D01*
X213392806Y-73994001D01*
X213119198Y-73994001D01*
X212850846Y-74047379D01*
X212598064Y-74152085D01*
X212370567Y-74304094D01*
X212177096Y-74497565D01*
X212025087Y-74725062D01*
X211920381Y-74977844D01*
X211867003Y-75246196D01*
X211867003Y-75519804D01*
X211920381Y-75788156D01*
X211978161Y-75927649D01*
X205925570Y-69875058D01*
X206224073Y-69875060D01*
X208263168Y-69949830D01*
X210277626Y-70172228D01*
X212270385Y-70541564D01*
X214230761Y-71055859D01*
X216148189Y-71712341D01*
X218012394Y-72507492D01*
X219813362Y-73437041D01*
X221541410Y-74495991D01*
X223187256Y-75678651D01*
X224742083Y-76978689D01*
X226197508Y-78389093D01*
X227545732Y-79902308D01*
X228779510Y-81510199D01*
X229892214Y-83204129D01*
X230877871Y-84975007D01*
X231731188Y-86813319D01*
X232447574Y-88709181D01*
X233023190Y-90652426D01*
X233454938Y-92632601D01*
X233740504Y-94639092D01*
X233878350Y-96661105D01*
X233867739Y-98687783D01*
X233708726Y-100708226D01*
X233402164Y-102711622D01*
X232949703Y-104687170D01*
X232353772Y-106624274D01*
X231617571Y-108512530D01*
X230745052Y-110341808D01*
X229740897Y-112102278D01*
X228610520Y-113784456D01*
X227359964Y-115379348D01*
X225995971Y-116878356D01*
X224525855Y-118273444D01*
X222957514Y-119557116D01*
X221299365Y-120722483D01*
X219560322Y-121763279D01*
X217749732Y-122673911D01*
X215877289Y-123449502D01*
X213953093Y-124085870D01*
X211987438Y-124579608D01*
X209990929Y-124928055D01*
X207972509Y-125129520D01*
X206227438Y-125184361D01*
X194680242Y-125184300D01*
X192376288Y-125184300D01*
X192816141Y-125002107D01*
X193247715Y-124713738D01*
X193614738Y-124346715D01*
X193903107Y-123915141D01*
X194101739Y-123435601D01*
X194203000Y-122926525D01*
X194203000Y-122407475D01*
X194101739Y-121898399D01*
X193903107Y-121418859D01*
X193614738Y-120987285D01*
X193247715Y-120620262D01*
X192816141Y-120331893D01*
X192336601Y-120133261D01*
X191827525Y-120032000D01*
X191308475Y-120032000D01*
X190799399Y-120133261D01*
X190319859Y-120331893D01*
X189888285Y-120620262D01*
X189521262Y-120987285D01*
X189232893Y-121418859D01*
X189034261Y-121898399D01*
X188933000Y-122407475D01*
X188933000Y-122926525D01*
X189034261Y-123435601D01*
X189232893Y-123915141D01*
X189521262Y-124346715D01*
X189888285Y-124713738D01*
X190319859Y-125002107D01*
X190759712Y-125184300D01*
X99616509Y-125184300D01*
X100036601Y-125100739D01*
X100516141Y-124902107D01*
X100947715Y-124613738D01*
X101314738Y-124246715D01*
X101603107Y-123815141D01*
X101801739Y-123335601D01*
X101903000Y-122826525D01*
X101903000Y-122307475D01*
X101801739Y-121798399D01*
X101719714Y-121600371D01*
X107137200Y-121600371D01*
X107137200Y-121985629D01*
X107212361Y-122363486D01*
X107359793Y-122719419D01*
X107573831Y-123039750D01*
X107846250Y-123312169D01*
X108166581Y-123526207D01*
X108522514Y-123673639D01*
X108900371Y-123748800D01*
X109285629Y-123748800D01*
X109663486Y-123673639D01*
X110019419Y-123526207D01*
X110339750Y-123312169D01*
X110612169Y-123039750D01*
X110826207Y-122719419D01*
X110973639Y-122363486D01*
X111048800Y-121985629D01*
X111048800Y-121600371D01*
X111037355Y-121542832D01*
X170180000Y-121542832D01*
X170180000Y-122043168D01*
X170277611Y-122533891D01*
X170469081Y-122996141D01*
X170747053Y-123412156D01*
X171100844Y-123765947D01*
X171516859Y-124043919D01*
X171979109Y-124235389D01*
X172469832Y-124333000D01*
X172970168Y-124333000D01*
X173460891Y-124235389D01*
X173923141Y-124043919D01*
X174339156Y-123765947D01*
X174692947Y-123412156D01*
X174970919Y-122996141D01*
X175162389Y-122533891D01*
X175260000Y-122043168D01*
X175260000Y-121542832D01*
X175162389Y-121052109D01*
X174970919Y-120589859D01*
X174692947Y-120173844D01*
X174339156Y-119820053D01*
X173923141Y-119542081D01*
X173460891Y-119350611D01*
X172970168Y-119253000D01*
X172469832Y-119253000D01*
X171979109Y-119350611D01*
X171516859Y-119542081D01*
X171100844Y-119820053D01*
X170747053Y-120173844D01*
X170469081Y-120589859D01*
X170277611Y-121052109D01*
X170180000Y-121542832D01*
X111037355Y-121542832D01*
X110973639Y-121222514D01*
X110826207Y-120866581D01*
X110612169Y-120546250D01*
X110339750Y-120273831D01*
X110019419Y-120059793D01*
X109663486Y-119912361D01*
X109285629Y-119837200D01*
X108900371Y-119837200D01*
X108522514Y-119912361D01*
X108166581Y-120059793D01*
X107846250Y-120273831D01*
X107573831Y-120546250D01*
X107359793Y-120866581D01*
X107212361Y-121222514D01*
X107137200Y-121600371D01*
X101719714Y-121600371D01*
X101603107Y-121318859D01*
X101314738Y-120887285D01*
X100947715Y-120520262D01*
X100516141Y-120231893D01*
X100036601Y-120033261D01*
X99527525Y-119932000D01*
X99008475Y-119932000D01*
X98499399Y-120033261D01*
X98019859Y-120231893D01*
X97588285Y-120520262D01*
X97221262Y-120887285D01*
X96932893Y-121318859D01*
X96734261Y-121798399D01*
X96633000Y-122307475D01*
X96633000Y-122826525D01*
X96734261Y-123335601D01*
X96932893Y-123815141D01*
X97221262Y-124246715D01*
X97588285Y-124613738D01*
X98019859Y-124902107D01*
X98499399Y-125100739D01*
X98919491Y-125184300D01*
X86233924Y-125184300D01*
X84196472Y-125109590D01*
X82182015Y-124887192D01*
X80189255Y-124517856D01*
X78228879Y-124003561D01*
X76311452Y-123347079D01*
X74447246Y-122551928D01*
X72646288Y-121622384D01*
X70918235Y-120563433D01*
X70706932Y-120411596D01*
X78366999Y-120411596D01*
X78366999Y-120685204D01*
X78420377Y-120953556D01*
X78525083Y-121206338D01*
X78677092Y-121433835D01*
X78870563Y-121627306D01*
X79098060Y-121779315D01*
X79350842Y-121884021D01*
X79619194Y-121937399D01*
X79892802Y-121937399D01*
X80161154Y-121884021D01*
X80413936Y-121779315D01*
X80641433Y-121627306D01*
X80834904Y-121433835D01*
X80986913Y-121206338D01*
X81091619Y-120953556D01*
X81144997Y-120685204D01*
X81144997Y-120411596D01*
X84867001Y-120411596D01*
X84867001Y-120685204D01*
X84920379Y-120953556D01*
X85025085Y-121206338D01*
X85177094Y-121433835D01*
X85370565Y-121627306D01*
X85598062Y-121779315D01*
X85850844Y-121884021D01*
X86119196Y-121937399D01*
X86392804Y-121937399D01*
X86661156Y-121884021D01*
X86913938Y-121779315D01*
X87141435Y-121627306D01*
X87334906Y-121433835D01*
X87486915Y-121206338D01*
X87591621Y-120953556D01*
X87644999Y-120685204D01*
X87644999Y-120411596D01*
X87591621Y-120143244D01*
X87486915Y-119890462D01*
X87334906Y-119662965D01*
X87141435Y-119469494D01*
X86913938Y-119317485D01*
X86661156Y-119212779D01*
X86392804Y-119159401D01*
X86119196Y-119159401D01*
X85850844Y-119212779D01*
X85598062Y-119317485D01*
X85370565Y-119469494D01*
X85177094Y-119662965D01*
X85025085Y-119890462D01*
X84920379Y-120143244D01*
X84867001Y-120411596D01*
X81144997Y-120411596D01*
X81091619Y-120143244D01*
X80986913Y-119890462D01*
X80834904Y-119662965D01*
X80641433Y-119469494D01*
X80413936Y-119317485D01*
X80161154Y-119212779D01*
X79892802Y-119159401D01*
X79619194Y-119159401D01*
X79350842Y-119212779D01*
X79098060Y-119317485D01*
X78870563Y-119469494D01*
X78677092Y-119662965D01*
X78525083Y-119890462D01*
X78420377Y-120143244D01*
X78366999Y-120411596D01*
X70706932Y-120411596D01*
X69272384Y-119380769D01*
X67717564Y-118080738D01*
X66262138Y-116670334D01*
X65586127Y-115911595D01*
X78366999Y-115911595D01*
X78366999Y-116185203D01*
X78420377Y-116453555D01*
X78525083Y-116706337D01*
X78677092Y-116933834D01*
X78870563Y-117127305D01*
X79098060Y-117279314D01*
X79350842Y-117384020D01*
X79619194Y-117437398D01*
X79892802Y-117437398D01*
X80161154Y-117384020D01*
X80413936Y-117279314D01*
X80641433Y-117127305D01*
X80834904Y-116933834D01*
X80986913Y-116706337D01*
X81091619Y-116453555D01*
X81144997Y-116185203D01*
X81144997Y-115911595D01*
X84867001Y-115911595D01*
X84867001Y-116185203D01*
X84920379Y-116453555D01*
X85025085Y-116706337D01*
X85177094Y-116933834D01*
X85370565Y-117127305D01*
X85598062Y-117279314D01*
X85850844Y-117384020D01*
X86119196Y-117437398D01*
X86392804Y-117437398D01*
X86661156Y-117384020D01*
X86913938Y-117279314D01*
X87141435Y-117127305D01*
X87334906Y-116933834D01*
X87486915Y-116706337D01*
X87591621Y-116453555D01*
X87644999Y-116185203D01*
X87644999Y-115911595D01*
X87591621Y-115643243D01*
X87486915Y-115390461D01*
X87334906Y-115162964D01*
X87141435Y-114969493D01*
X86913938Y-114817484D01*
X86661156Y-114712778D01*
X86392804Y-114659400D01*
X86119196Y-114659400D01*
X85850844Y-114712778D01*
X85598062Y-114817484D01*
X85370565Y-114969493D01*
X85177094Y-115162964D01*
X85025085Y-115390461D01*
X84920379Y-115643243D01*
X84867001Y-115911595D01*
X81144997Y-115911595D01*
X81091619Y-115643243D01*
X80986913Y-115390461D01*
X80834904Y-115162964D01*
X80641433Y-114969493D01*
X80413936Y-114817484D01*
X80161154Y-114712778D01*
X79892802Y-114659400D01*
X79619194Y-114659400D01*
X79350842Y-114712778D01*
X79098060Y-114817484D01*
X78870563Y-114969493D01*
X78677092Y-115162964D01*
X78525083Y-115390461D01*
X78420377Y-115643243D01*
X78366999Y-115911595D01*
X65586127Y-115911595D01*
X64913913Y-115157118D01*
X63680136Y-113549230D01*
X62801475Y-112211596D01*
X78366999Y-112211596D01*
X78366999Y-112485204D01*
X78420377Y-112753556D01*
X78525083Y-113006338D01*
X78677092Y-113233835D01*
X78870563Y-113427306D01*
X79098060Y-113579315D01*
X79350842Y-113684021D01*
X79619194Y-113737399D01*
X79892802Y-113737399D01*
X80161154Y-113684021D01*
X80413936Y-113579315D01*
X80641433Y-113427306D01*
X80834904Y-113233835D01*
X80986913Y-113006338D01*
X81091619Y-112753556D01*
X81144997Y-112485204D01*
X81144997Y-112211596D01*
X84867001Y-112211596D01*
X84867001Y-112485204D01*
X84920379Y-112753556D01*
X85025085Y-113006338D01*
X85177094Y-113233835D01*
X85370565Y-113427306D01*
X85598062Y-113579315D01*
X85850844Y-113684021D01*
X86119196Y-113737399D01*
X86392804Y-113737399D01*
X86661156Y-113684021D01*
X86913938Y-113579315D01*
X87141435Y-113427306D01*
X87334906Y-113233835D01*
X87486915Y-113006338D01*
X87591621Y-112753556D01*
X87644999Y-112485204D01*
X87644999Y-112211596D01*
X87591621Y-111943244D01*
X87486915Y-111690462D01*
X87334906Y-111462965D01*
X87141435Y-111269494D01*
X86913938Y-111117485D01*
X86661156Y-111012779D01*
X86392804Y-110959401D01*
X86119196Y-110959401D01*
X85850844Y-111012779D01*
X85598062Y-111117485D01*
X85370565Y-111269494D01*
X85177094Y-111462965D01*
X85025085Y-111690462D01*
X84920379Y-111943244D01*
X84867001Y-112211596D01*
X81144997Y-112211596D01*
X81091619Y-111943244D01*
X80986913Y-111690462D01*
X80834904Y-111462965D01*
X80641433Y-111269494D01*
X80413936Y-111117485D01*
X80161154Y-111012779D01*
X79892802Y-110959401D01*
X79619194Y-110959401D01*
X79350842Y-111012779D01*
X79098060Y-111117485D01*
X78870563Y-111269494D01*
X78677092Y-111462965D01*
X78525083Y-111690462D01*
X78420377Y-111943244D01*
X78366999Y-112211596D01*
X62801475Y-112211596D01*
X62567426Y-111855291D01*
X61581769Y-110084413D01*
X60728452Y-108246101D01*
X60526480Y-107711595D01*
X78366999Y-107711595D01*
X78366999Y-107985203D01*
X78420377Y-108253555D01*
X78525083Y-108506337D01*
X78677092Y-108733834D01*
X78870563Y-108927305D01*
X79098060Y-109079314D01*
X79350842Y-109184020D01*
X79619194Y-109237398D01*
X79892802Y-109237398D01*
X80161154Y-109184020D01*
X80413936Y-109079314D01*
X80641433Y-108927305D01*
X80834904Y-108733834D01*
X80986913Y-108506337D01*
X81091619Y-108253555D01*
X81144997Y-107985203D01*
X81144997Y-107711595D01*
X84867001Y-107711595D01*
X84867001Y-107985203D01*
X84920379Y-108253555D01*
X85025085Y-108506337D01*
X85177094Y-108733834D01*
X85370565Y-108927305D01*
X85598062Y-109079314D01*
X85850844Y-109184020D01*
X86119196Y-109237398D01*
X86392804Y-109237398D01*
X86661156Y-109184020D01*
X86913938Y-109079314D01*
X87141435Y-108927305D01*
X87334906Y-108733834D01*
X87486915Y-108506337D01*
X87591621Y-108253555D01*
X87644999Y-107985203D01*
X87644999Y-107711595D01*
X87591621Y-107443243D01*
X87486915Y-107190461D01*
X87334906Y-106962964D01*
X87141435Y-106769493D01*
X86913938Y-106617484D01*
X86661156Y-106512778D01*
X86392804Y-106459400D01*
X86119196Y-106459400D01*
X85850844Y-106512778D01*
X85598062Y-106617484D01*
X85370565Y-106769493D01*
X85177094Y-106962964D01*
X85025085Y-107190461D01*
X84920379Y-107443243D01*
X84867001Y-107711595D01*
X81144997Y-107711595D01*
X81091619Y-107443243D01*
X80986913Y-107190461D01*
X80834904Y-106962964D01*
X80641433Y-106769493D01*
X80413936Y-106617484D01*
X80161154Y-106512778D01*
X79892802Y-106459400D01*
X79619194Y-106459400D01*
X79350842Y-106512778D01*
X79098060Y-106617484D01*
X78870563Y-106769493D01*
X78677092Y-106962964D01*
X78525083Y-107190461D01*
X78420377Y-107443243D01*
X78366999Y-107711595D01*
X60526480Y-107711595D01*
X60012067Y-106350243D01*
X59436450Y-104406994D01*
X59204586Y-103343566D01*
X61245939Y-103343566D01*
X61245939Y-103666434D01*
X61308927Y-103983097D01*
X61432483Y-104281387D01*
X61611858Y-104549841D01*
X61840160Y-104778143D01*
X62108614Y-104957518D01*
X62406904Y-105081074D01*
X62723567Y-105144062D01*
X63046435Y-105144062D01*
X63363098Y-105081074D01*
X63661388Y-104957518D01*
X63929842Y-104778143D01*
X64158144Y-104549841D01*
X64337519Y-104281387D01*
X64461075Y-103983097D01*
X64524063Y-103666434D01*
X64524063Y-103343566D01*
X64461075Y-103026903D01*
X64337519Y-102728613D01*
X64158144Y-102460159D01*
X64091984Y-102393999D01*
X64271804Y-102393999D01*
X64540156Y-102340621D01*
X64792938Y-102235915D01*
X65020435Y-102083906D01*
X65213906Y-101890435D01*
X65365915Y-101662938D01*
X65470621Y-101410156D01*
X65523999Y-101141804D01*
X65523999Y-100868196D01*
X67246002Y-100868196D01*
X67246002Y-101141804D01*
X67299380Y-101410156D01*
X67404086Y-101662938D01*
X67556095Y-101890435D01*
X67749566Y-102083906D01*
X67977063Y-102235915D01*
X68229845Y-102340621D01*
X68498197Y-102393999D01*
X68678017Y-102393999D01*
X68611857Y-102460159D01*
X68432482Y-102728613D01*
X68308926Y-103026903D01*
X68245938Y-103343566D01*
X68245938Y-103666434D01*
X68308926Y-103983097D01*
X68432482Y-104281387D01*
X68611857Y-104549841D01*
X68840159Y-104778143D01*
X69108613Y-104957518D01*
X69406903Y-105081074D01*
X69723566Y-105144062D01*
X70046434Y-105144062D01*
X70363097Y-105081074D01*
X70661387Y-104957518D01*
X70929841Y-104778143D01*
X71158143Y-104549841D01*
X71337518Y-104281387D01*
X71461074Y-103983097D01*
X71524062Y-103666434D01*
X71524062Y-103343566D01*
X71461074Y-103026903D01*
X71337518Y-102728613D01*
X71158143Y-102460159D01*
X70929841Y-102231857D01*
X70661387Y-102052482D01*
X70363097Y-101928926D01*
X70046434Y-101865938D01*
X69730275Y-101865938D01*
X69865916Y-101662938D01*
X69970622Y-101410156D01*
X70024000Y-101141804D01*
X70024000Y-100868196D01*
X69970622Y-100599844D01*
X69865916Y-100347062D01*
X69713907Y-100119565D01*
X69520436Y-99926094D01*
X69292939Y-99774085D01*
X69040157Y-99669379D01*
X68771805Y-99616001D01*
X68498197Y-99616001D01*
X68229845Y-99669379D01*
X67977063Y-99774085D01*
X67749566Y-99926094D01*
X67556095Y-100119565D01*
X67404086Y-100347062D01*
X67299380Y-100599844D01*
X67246002Y-100868196D01*
X65523999Y-100868196D01*
X65470621Y-100599844D01*
X65365915Y-100347062D01*
X65213906Y-100119565D01*
X65020435Y-99926094D01*
X64792938Y-99774085D01*
X64540156Y-99669379D01*
X64271804Y-99616001D01*
X63998196Y-99616001D01*
X63729844Y-99669379D01*
X63477062Y-99774085D01*
X63249565Y-99926094D01*
X63056094Y-100119565D01*
X62904085Y-100347062D01*
X62799379Y-100599844D01*
X62746001Y-100868196D01*
X62746001Y-101141804D01*
X62799379Y-101410156D01*
X62904085Y-101662938D01*
X63039726Y-101865938D01*
X62723567Y-101865938D01*
X62406904Y-101928926D01*
X62108614Y-102052482D01*
X61840160Y-102231857D01*
X61611858Y-102460159D01*
X61432483Y-102728613D01*
X61308927Y-103026903D01*
X61245939Y-103343566D01*
X59204586Y-103343566D01*
X59004702Y-102426819D01*
X58719136Y-100420328D01*
X58581290Y-98398315D01*
X58591901Y-96371637D01*
X58750914Y-94351194D01*
X59057476Y-92347798D01*
X59354895Y-91049196D01*
X71657201Y-91049196D01*
X71657201Y-91322804D01*
X71710579Y-91591156D01*
X71815285Y-91843938D01*
X71967294Y-92071435D01*
X72160765Y-92264906D01*
X72388262Y-92416915D01*
X72641044Y-92521621D01*
X72909396Y-92574999D01*
X73183004Y-92574999D01*
X73451356Y-92521621D01*
X73704138Y-92416915D01*
X73931635Y-92264906D01*
X74125106Y-92071435D01*
X74277115Y-91843938D01*
X74381821Y-91591156D01*
X74435199Y-91322804D01*
X74435199Y-91049196D01*
X74381821Y-90780844D01*
X74277115Y-90528062D01*
X74125106Y-90300565D01*
X73931635Y-90107094D01*
X73704138Y-89955085D01*
X73451356Y-89850379D01*
X73183004Y-89797001D01*
X72909396Y-89797001D01*
X72641044Y-89850379D01*
X72388262Y-89955085D01*
X72160765Y-90107094D01*
X71967294Y-90300565D01*
X71815285Y-90528062D01*
X71710579Y-90780844D01*
X71657201Y-91049196D01*
X59354895Y-91049196D01*
X59509936Y-90372254D01*
X60105868Y-88435146D01*
X60842073Y-86546878D01*
X61714588Y-84717613D01*
X61810652Y-84549194D01*
X71657201Y-84549194D01*
X71657201Y-84822802D01*
X71710579Y-85091154D01*
X71815285Y-85343936D01*
X71967294Y-85571433D01*
X72160765Y-85764904D01*
X72388262Y-85916913D01*
X72641044Y-86021619D01*
X72909396Y-86074997D01*
X73183004Y-86074997D01*
X73328607Y-86046035D01*
X75703202Y-88420631D01*
X75703201Y-94567580D01*
X75699515Y-94605003D01*
X75703201Y-94642426D01*
X75703201Y-94642428D01*
X75714227Y-94754380D01*
X75757799Y-94898017D01*
X75771808Y-94924226D01*
X75828556Y-95030395D01*
X75839738Y-95044020D01*
X75923779Y-95146425D01*
X75952855Y-95170287D01*
X78421361Y-97638794D01*
X78392399Y-97784396D01*
X78392399Y-98058004D01*
X78445777Y-98326356D01*
X78550483Y-98579138D01*
X78702492Y-98806635D01*
X78895963Y-99000106D01*
X79123460Y-99152115D01*
X79376242Y-99256821D01*
X79644594Y-99310199D01*
X79918202Y-99310199D01*
X80186554Y-99256821D01*
X80439336Y-99152115D01*
X80666833Y-99000106D01*
X80860304Y-98806635D01*
X81012313Y-98579138D01*
X81117019Y-98326356D01*
X81170397Y-98058004D01*
X81170397Y-97784396D01*
X84892401Y-97784396D01*
X84892401Y-98058004D01*
X84945779Y-98326356D01*
X85050485Y-98579138D01*
X85202494Y-98806635D01*
X85395965Y-99000106D01*
X85623462Y-99152115D01*
X85876244Y-99256821D01*
X86144596Y-99310199D01*
X86418204Y-99310199D01*
X86686556Y-99256821D01*
X86939338Y-99152115D01*
X87166835Y-99000106D01*
X87360306Y-98806635D01*
X87512315Y-98579138D01*
X87617021Y-98326356D01*
X87670399Y-98058004D01*
X87670399Y-97784396D01*
X87617021Y-97516044D01*
X87512315Y-97263262D01*
X87360306Y-97035765D01*
X87166835Y-96842294D01*
X86939338Y-96690285D01*
X86686556Y-96585579D01*
X86418204Y-96532201D01*
X86144596Y-96532201D01*
X85876244Y-96585579D01*
X85623462Y-96690285D01*
X85395965Y-96842294D01*
X85202494Y-97035765D01*
X85050485Y-97263262D01*
X84945779Y-97516044D01*
X84892401Y-97784396D01*
X81170397Y-97784396D01*
X81117019Y-97516044D01*
X81012313Y-97263262D01*
X80860304Y-97035765D01*
X80666833Y-96842294D01*
X80439336Y-96690285D01*
X80186554Y-96585579D01*
X79918202Y-96532201D01*
X79644594Y-96532201D01*
X79498992Y-96561163D01*
X77227201Y-94289373D01*
X77227201Y-93284395D01*
X78392399Y-93284395D01*
X78392399Y-93558003D01*
X78445777Y-93826355D01*
X78550483Y-94079137D01*
X78702492Y-94306634D01*
X78895963Y-94500105D01*
X79123460Y-94652114D01*
X79376242Y-94756820D01*
X79644594Y-94810198D01*
X79918202Y-94810198D01*
X80186554Y-94756820D01*
X80439336Y-94652114D01*
X80666833Y-94500105D01*
X80860304Y-94306634D01*
X81012313Y-94079137D01*
X81117019Y-93826355D01*
X81170397Y-93558003D01*
X81170397Y-93284395D01*
X84892401Y-93284395D01*
X84892401Y-93558003D01*
X84945779Y-93826355D01*
X85050485Y-94079137D01*
X85202494Y-94306634D01*
X85395965Y-94500105D01*
X85623462Y-94652114D01*
X85876244Y-94756820D01*
X86144596Y-94810198D01*
X86418204Y-94810198D01*
X86686556Y-94756820D01*
X86939338Y-94652114D01*
X87166835Y-94500105D01*
X87360306Y-94306634D01*
X87512315Y-94079137D01*
X87617021Y-93826355D01*
X87670399Y-93558003D01*
X87670399Y-93284395D01*
X87617021Y-93016043D01*
X87512315Y-92763261D01*
X87360306Y-92535764D01*
X87166835Y-92342293D01*
X86939338Y-92190284D01*
X86686556Y-92085578D01*
X86418204Y-92032200D01*
X86144596Y-92032200D01*
X85876244Y-92085578D01*
X85623462Y-92190284D01*
X85395965Y-92342293D01*
X85202494Y-92535764D01*
X85050485Y-92763261D01*
X84945779Y-93016043D01*
X84892401Y-93284395D01*
X81170397Y-93284395D01*
X81117019Y-93016043D01*
X81012313Y-92763261D01*
X80860304Y-92535764D01*
X80666833Y-92342293D01*
X80439336Y-92190284D01*
X80186554Y-92085578D01*
X79918202Y-92032200D01*
X79644594Y-92032200D01*
X79376242Y-92085578D01*
X79123460Y-92190284D01*
X78895963Y-92342293D01*
X78702492Y-92535764D01*
X78550483Y-92763261D01*
X78445777Y-93016043D01*
X78392399Y-93284395D01*
X77227201Y-93284395D01*
X77227201Y-92538758D01*
X77409397Y-92574999D01*
X77683005Y-92574999D01*
X77951357Y-92521621D01*
X78204139Y-92416915D01*
X78431636Y-92264906D01*
X78625107Y-92071435D01*
X78777116Y-91843938D01*
X78881822Y-91591156D01*
X78935200Y-91322804D01*
X78935200Y-91049196D01*
X87130001Y-91049196D01*
X87130001Y-91322804D01*
X87183379Y-91591156D01*
X87288085Y-91843938D01*
X87440094Y-92071435D01*
X87633565Y-92264906D01*
X87861062Y-92416915D01*
X88113844Y-92521621D01*
X88382196Y-92574999D01*
X88655804Y-92574999D01*
X88924156Y-92521621D01*
X89176938Y-92416915D01*
X89404435Y-92264906D01*
X89597906Y-92071435D01*
X89749915Y-91843938D01*
X89854621Y-91591156D01*
X89907999Y-91322804D01*
X89907999Y-91049196D01*
X91630002Y-91049196D01*
X91630002Y-91322804D01*
X91683380Y-91591156D01*
X91788086Y-91843938D01*
X91940095Y-92071435D01*
X92133566Y-92264906D01*
X92361063Y-92416915D01*
X92613845Y-92521621D01*
X92882197Y-92574999D01*
X93155805Y-92574999D01*
X93424157Y-92521621D01*
X93676939Y-92416915D01*
X93904436Y-92264906D01*
X94097907Y-92071435D01*
X94249916Y-91843938D01*
X94354622Y-91591156D01*
X94408000Y-91322804D01*
X94408000Y-91049196D01*
X94354622Y-90780844D01*
X94249916Y-90528062D01*
X94097907Y-90300565D01*
X93904436Y-90107094D01*
X93676939Y-89955085D01*
X93424157Y-89850379D01*
X93155805Y-89797001D01*
X92882197Y-89797001D01*
X92613845Y-89850379D01*
X92361063Y-89955085D01*
X92133566Y-90107094D01*
X91940095Y-90300565D01*
X91788086Y-90528062D01*
X91683380Y-90780844D01*
X91630002Y-91049196D01*
X89907999Y-91049196D01*
X89854621Y-90780844D01*
X89749915Y-90528062D01*
X89597906Y-90300565D01*
X89404435Y-90107094D01*
X89176938Y-89955085D01*
X88924156Y-89850379D01*
X88655804Y-89797001D01*
X88382196Y-89797001D01*
X88113844Y-89850379D01*
X87861062Y-89955085D01*
X87633565Y-90107094D01*
X87440094Y-90300565D01*
X87288085Y-90528062D01*
X87183379Y-90780844D01*
X87130001Y-91049196D01*
X78935200Y-91049196D01*
X78881822Y-90780844D01*
X78777116Y-90528062D01*
X78625107Y-90300565D01*
X78431636Y-90107094D01*
X78204139Y-89955085D01*
X77951357Y-89850379D01*
X77683005Y-89797001D01*
X77409397Y-89797001D01*
X77227201Y-89833242D01*
X77227201Y-88142421D01*
X77230887Y-88104998D01*
X77227201Y-88067573D01*
X77216175Y-87955621D01*
X77172603Y-87811984D01*
X77101846Y-87679607D01*
X77006623Y-87563577D01*
X76977553Y-87539720D01*
X74406237Y-84968405D01*
X74435199Y-84822802D01*
X74435199Y-84549194D01*
X76157202Y-84549194D01*
X76157202Y-84822802D01*
X76210580Y-85091154D01*
X76315286Y-85343936D01*
X76467295Y-85571433D01*
X76660766Y-85764904D01*
X76888263Y-85916913D01*
X77141045Y-86021619D01*
X77409397Y-86074997D01*
X77683005Y-86074997D01*
X77951357Y-86021619D01*
X78204139Y-85916913D01*
X78431636Y-85764904D01*
X78625107Y-85571433D01*
X78777116Y-85343936D01*
X78881822Y-85091154D01*
X78935200Y-84822802D01*
X78935200Y-84549194D01*
X87130001Y-84549194D01*
X87130001Y-84822802D01*
X87183379Y-85091154D01*
X87288085Y-85343936D01*
X87440094Y-85571433D01*
X87633565Y-85764904D01*
X87861062Y-85916913D01*
X88113844Y-86021619D01*
X88382196Y-86074997D01*
X88655804Y-86074997D01*
X88924156Y-86021619D01*
X89176938Y-85916913D01*
X89404435Y-85764904D01*
X89597906Y-85571433D01*
X89749915Y-85343936D01*
X89854621Y-85091154D01*
X89907999Y-84822802D01*
X89907999Y-84549194D01*
X91630002Y-84549194D01*
X91630002Y-84822802D01*
X91683380Y-85091154D01*
X91788086Y-85343936D01*
X91940095Y-85571433D01*
X92133566Y-85764904D01*
X92361063Y-85916913D01*
X92613845Y-86021619D01*
X92882197Y-86074997D01*
X93155805Y-86074997D01*
X93424157Y-86021619D01*
X93676939Y-85916913D01*
X93904436Y-85764904D01*
X94097907Y-85571433D01*
X94249916Y-85343936D01*
X94354622Y-85091154D01*
X94408000Y-84822802D01*
X94408000Y-84549194D01*
X94354622Y-84280842D01*
X94249916Y-84028060D01*
X94097907Y-83800563D01*
X93904436Y-83607092D01*
X93676939Y-83455083D01*
X93424157Y-83350377D01*
X93155805Y-83296999D01*
X92882197Y-83296999D01*
X92613845Y-83350377D01*
X92361063Y-83455083D01*
X92133566Y-83607092D01*
X91940095Y-83800563D01*
X91788086Y-84028060D01*
X91683380Y-84280842D01*
X91630002Y-84549194D01*
X89907999Y-84549194D01*
X89854621Y-84280842D01*
X89749915Y-84028060D01*
X89597906Y-83800563D01*
X89404435Y-83607092D01*
X89176938Y-83455083D01*
X88924156Y-83350377D01*
X88655804Y-83296999D01*
X88382196Y-83296999D01*
X88113844Y-83350377D01*
X87861062Y-83455083D01*
X87633565Y-83607092D01*
X87440094Y-83800563D01*
X87288085Y-84028060D01*
X87183379Y-84280842D01*
X87130001Y-84549194D01*
X78935200Y-84549194D01*
X78881822Y-84280842D01*
X78777116Y-84028060D01*
X78625107Y-83800563D01*
X78431636Y-83607092D01*
X78204139Y-83455083D01*
X77951357Y-83350377D01*
X77683005Y-83296999D01*
X77409397Y-83296999D01*
X77141045Y-83350377D01*
X76888263Y-83455083D01*
X76660766Y-83607092D01*
X76467295Y-83800563D01*
X76315286Y-84028060D01*
X76210580Y-84280842D01*
X76157202Y-84549194D01*
X74435199Y-84549194D01*
X74381821Y-84280842D01*
X74277115Y-84028060D01*
X74125106Y-83800563D01*
X73931635Y-83607092D01*
X73704138Y-83455083D01*
X73451356Y-83350377D01*
X73183004Y-83296999D01*
X72909396Y-83296999D01*
X72641044Y-83350377D01*
X72388262Y-83455083D01*
X72160765Y-83607092D01*
X71967294Y-83800563D01*
X71815285Y-84028060D01*
X71710579Y-84280842D01*
X71657201Y-84549194D01*
X61810652Y-84549194D01*
X62718739Y-82957148D01*
X63149710Y-82315796D01*
X78392399Y-82315796D01*
X78392399Y-82589404D01*
X78445777Y-82857756D01*
X78550483Y-83110538D01*
X78702492Y-83338035D01*
X78895963Y-83531506D01*
X79123460Y-83683515D01*
X79376242Y-83788221D01*
X79644594Y-83841599D01*
X79918202Y-83841599D01*
X80186554Y-83788221D01*
X80439336Y-83683515D01*
X80666833Y-83531506D01*
X80860304Y-83338035D01*
X81012313Y-83110538D01*
X81117019Y-82857756D01*
X81170397Y-82589404D01*
X81170397Y-82315796D01*
X84892401Y-82315796D01*
X84892401Y-82589404D01*
X84945779Y-82857756D01*
X85050485Y-83110538D01*
X85202494Y-83338035D01*
X85395965Y-83531506D01*
X85623462Y-83683515D01*
X85876244Y-83788221D01*
X86144596Y-83841599D01*
X86418204Y-83841599D01*
X86686556Y-83788221D01*
X86939338Y-83683515D01*
X87166835Y-83531506D01*
X87360306Y-83338035D01*
X87512315Y-83110538D01*
X87617021Y-82857756D01*
X87670399Y-82589404D01*
X87670399Y-82315796D01*
X87617021Y-82047444D01*
X87512315Y-81794662D01*
X87360306Y-81567165D01*
X87166835Y-81373694D01*
X86939338Y-81221685D01*
X86686556Y-81116979D01*
X86418204Y-81063601D01*
X86144596Y-81063601D01*
X85876244Y-81116979D01*
X85623462Y-81221685D01*
X85395965Y-81373694D01*
X85202494Y-81567165D01*
X85050485Y-81794662D01*
X84945779Y-82047444D01*
X84892401Y-82315796D01*
X81170397Y-82315796D01*
X81117019Y-82047444D01*
X81012313Y-81794662D01*
X80860304Y-81567165D01*
X80666833Y-81373694D01*
X80439336Y-81221685D01*
X80186554Y-81116979D01*
X79918202Y-81063601D01*
X79644594Y-81063601D01*
X79376242Y-81116979D01*
X79123460Y-81221685D01*
X78895963Y-81373694D01*
X78702492Y-81567165D01*
X78550483Y-81794662D01*
X78445777Y-82047444D01*
X78392399Y-82315796D01*
X63149710Y-82315796D01*
X63849124Y-81274959D01*
X65099670Y-79680080D01*
X66463669Y-78181064D01*
X66848582Y-77815795D01*
X78392399Y-77815795D01*
X78392399Y-78089403D01*
X78445777Y-78357755D01*
X78550483Y-78610537D01*
X78702492Y-78838034D01*
X78895963Y-79031505D01*
X79123460Y-79183514D01*
X79376242Y-79288220D01*
X79644594Y-79341598D01*
X79918202Y-79341598D01*
X80186554Y-79288220D01*
X80439336Y-79183514D01*
X80666833Y-79031505D01*
X80860304Y-78838034D01*
X81012313Y-78610537D01*
X81117019Y-78357755D01*
X81170397Y-78089403D01*
X81170397Y-77815795D01*
X84892401Y-77815795D01*
X84892401Y-78089403D01*
X84945779Y-78357755D01*
X85050485Y-78610537D01*
X85202494Y-78838034D01*
X85395965Y-79031505D01*
X85623462Y-79183514D01*
X85876244Y-79288220D01*
X86144596Y-79341598D01*
X86418204Y-79341598D01*
X86686556Y-79288220D01*
X86939338Y-79183514D01*
X87166835Y-79031505D01*
X87360306Y-78838034D01*
X87512315Y-78610537D01*
X87617021Y-78357755D01*
X87670399Y-78089403D01*
X87670399Y-77815795D01*
X87617021Y-77547443D01*
X87512315Y-77294661D01*
X87360306Y-77067164D01*
X87166835Y-76873693D01*
X86939338Y-76721684D01*
X86686556Y-76616978D01*
X86418204Y-76563600D01*
X86144596Y-76563600D01*
X85876244Y-76616978D01*
X85623462Y-76721684D01*
X85395965Y-76873693D01*
X85202494Y-77067164D01*
X85050485Y-77294661D01*
X84945779Y-77547443D01*
X84892401Y-77815795D01*
X81170397Y-77815795D01*
X81117019Y-77547443D01*
X81012313Y-77294661D01*
X80860304Y-77067164D01*
X80666833Y-76873693D01*
X80439336Y-76721684D01*
X80186554Y-76616978D01*
X79918202Y-76563600D01*
X79644594Y-76563600D01*
X79376242Y-76616978D01*
X79123460Y-76721684D01*
X78895963Y-76873693D01*
X78702492Y-77067164D01*
X78550483Y-77294661D01*
X78445777Y-77547443D01*
X78392399Y-77815795D01*
X66848582Y-77815795D01*
X67933783Y-76785978D01*
X69502132Y-75502299D01*
X71160275Y-74336938D01*
X72899330Y-73296134D01*
X74709908Y-72385509D01*
X76582339Y-71609922D01*
X78506551Y-70973549D01*
X80472189Y-70479814D01*
X82468711Y-70131365D01*
X84487131Y-69929900D01*
X86236019Y-69874939D01*
X96243737Y-69875000D01*
G36*
X172736043Y-74330254D02*
G01*
X172890897Y-74562010D01*
X173087990Y-74759103D01*
X173319746Y-74913957D01*
X173577260Y-75020623D01*
X173850635Y-75075000D01*
X174037369Y-75075000D01*
X155317371Y-93794999D01*
X130469441Y-93794999D01*
X130603519Y-93673414D01*
X130771037Y-93447420D01*
X130891246Y-93193087D01*
X130931904Y-93059039D01*
X130809915Y-92837000D01*
X129667000Y-92837000D01*
X129667000Y-92857000D01*
X129413000Y-92857000D01*
X129413000Y-92837000D01*
X128270085Y-92837000D01*
X128148096Y-93059039D01*
X128188754Y-93193087D01*
X128308963Y-93447420D01*
X128476481Y-93673414D01*
X128610559Y-93794999D01*
X122864397Y-93794999D01*
X123034637Y-93624759D01*
X123191680Y-93389727D01*
X123299853Y-93128574D01*
X123355000Y-92851335D01*
X123355000Y-92568665D01*
X123313685Y-92360961D01*
X128148096Y-92360961D01*
X128270085Y-92583000D01*
X129413000Y-92583000D01*
X129413000Y-91439376D01*
X129667000Y-91439376D01*
X129667000Y-92583000D01*
X130809915Y-92583000D01*
X130931904Y-92360961D01*
X130891246Y-92226913D01*
X130771037Y-91972580D01*
X130603519Y-91746586D01*
X130395131Y-91557615D01*
X130153881Y-91412930D01*
X129889040Y-91318091D01*
X129667000Y-91439376D01*
X129413000Y-91439376D01*
X129190960Y-91318091D01*
X128926119Y-91412930D01*
X128684869Y-91557615D01*
X128476481Y-91746586D01*
X128308963Y-91972580D01*
X128188754Y-92226913D01*
X128148096Y-92360961D01*
X123313685Y-92360961D01*
X123299853Y-92291426D01*
X123191680Y-92030273D01*
X123034637Y-91795241D01*
X122834759Y-91595363D01*
X122682000Y-91493293D01*
X122682000Y-90116707D01*
X122834759Y-90014637D01*
X123034637Y-89814759D01*
X123191680Y-89579727D01*
X123299853Y-89318574D01*
X123313684Y-89249039D01*
X128148096Y-89249039D01*
X128188754Y-89383087D01*
X128308963Y-89637420D01*
X128476481Y-89863414D01*
X128684869Y-90052385D01*
X128926119Y-90197070D01*
X129190960Y-90291909D01*
X129413000Y-90170624D01*
X129413000Y-89027000D01*
X129667000Y-89027000D01*
X129667000Y-90170624D01*
X129889040Y-90291909D01*
X130153881Y-90197070D01*
X130395131Y-90052385D01*
X130603519Y-89863414D01*
X130771037Y-89637420D01*
X130891246Y-89383087D01*
X130931904Y-89249039D01*
X130809915Y-89027000D01*
X129667000Y-89027000D01*
X129413000Y-89027000D01*
X128270085Y-89027000D01*
X128148096Y-89249039D01*
X123313684Y-89249039D01*
X123355000Y-89041335D01*
X123355000Y-88758665D01*
X123313685Y-88550961D01*
X128148096Y-88550961D01*
X128270085Y-88773000D01*
X129413000Y-88773000D01*
X129413000Y-87629376D01*
X129667000Y-87629376D01*
X129667000Y-88773000D01*
X130809915Y-88773000D01*
X130931904Y-88550961D01*
X130891246Y-88416913D01*
X130771037Y-88162580D01*
X130603519Y-87936586D01*
X130395131Y-87747615D01*
X130153881Y-87602930D01*
X129889040Y-87508091D01*
X129667000Y-87629376D01*
X129413000Y-87629376D01*
X129190960Y-87508091D01*
X128926119Y-87602930D01*
X128684869Y-87747615D01*
X128476481Y-87936586D01*
X128308963Y-88162580D01*
X128188754Y-88416913D01*
X128148096Y-88550961D01*
X123313685Y-88550961D01*
X123299853Y-88481426D01*
X123191680Y-88220273D01*
X123034637Y-87985241D01*
X122834759Y-87785363D01*
X122682000Y-87683293D01*
X122682000Y-86306707D01*
X122834759Y-86204637D01*
X123034637Y-86004759D01*
X123191680Y-85769727D01*
X123299853Y-85508574D01*
X123313684Y-85439039D01*
X128148096Y-85439039D01*
X128188754Y-85573087D01*
X128308963Y-85827420D01*
X128476481Y-86053414D01*
X128684869Y-86242385D01*
X128926119Y-86387070D01*
X129190960Y-86481909D01*
X129413000Y-86360624D01*
X129413000Y-85217000D01*
X129667000Y-85217000D01*
X129667000Y-86360624D01*
X129889040Y-86481909D01*
X130153881Y-86387070D01*
X130395131Y-86242385D01*
X130603519Y-86053414D01*
X130771037Y-85827420D01*
X130891246Y-85573087D01*
X130931904Y-85439039D01*
X130809915Y-85217000D01*
X129667000Y-85217000D01*
X129413000Y-85217000D01*
X128270085Y-85217000D01*
X128148096Y-85439039D01*
X123313684Y-85439039D01*
X123355000Y-85231335D01*
X123355000Y-84948665D01*
X123313685Y-84740961D01*
X128148096Y-84740961D01*
X128270085Y-84963000D01*
X129413000Y-84963000D01*
X129413000Y-83819376D01*
X129667000Y-83819376D01*
X129667000Y-84963000D01*
X130809915Y-84963000D01*
X130931904Y-84740961D01*
X130891246Y-84606913D01*
X130771037Y-84352580D01*
X130603519Y-84126586D01*
X130395131Y-83937615D01*
X130153881Y-83792930D01*
X129889040Y-83698091D01*
X129667000Y-83819376D01*
X129413000Y-83819376D01*
X129190960Y-83698091D01*
X128926119Y-83792930D01*
X128684869Y-83937615D01*
X128476481Y-84126586D01*
X128308963Y-84352580D01*
X128188754Y-84606913D01*
X128148096Y-84740961D01*
X123313685Y-84740961D01*
X123299853Y-84671426D01*
X123191680Y-84410273D01*
X123034637Y-84175241D01*
X122834759Y-83975363D01*
X122682000Y-83873293D01*
X122682000Y-82496707D01*
X122834759Y-82394637D01*
X123034637Y-82194759D01*
X123191680Y-81959727D01*
X123299853Y-81698574D01*
X123313684Y-81629039D01*
X128148096Y-81629039D01*
X128188754Y-81763087D01*
X128308963Y-82017420D01*
X128476481Y-82243414D01*
X128684869Y-82432385D01*
X128926119Y-82577070D01*
X129190960Y-82671909D01*
X129413000Y-82550624D01*
X129413000Y-81407000D01*
X129667000Y-81407000D01*
X129667000Y-82550624D01*
X129889040Y-82671909D01*
X130153881Y-82577070D01*
X130395131Y-82432385D01*
X130603519Y-82243414D01*
X130771037Y-82017420D01*
X130891246Y-81763087D01*
X130931904Y-81629039D01*
X130809915Y-81407000D01*
X129667000Y-81407000D01*
X129413000Y-81407000D01*
X128270085Y-81407000D01*
X128148096Y-81629039D01*
X123313684Y-81629039D01*
X123355000Y-81421335D01*
X123355000Y-81138665D01*
X123299853Y-80861426D01*
X123191680Y-80600273D01*
X123034637Y-80365241D01*
X122834759Y-80165363D01*
X122792311Y-80137000D01*
X128674520Y-80137000D01*
X128476481Y-80316586D01*
X128308963Y-80542580D01*
X128188754Y-80796913D01*
X128148096Y-80930961D01*
X128270085Y-81153000D01*
X129413000Y-81153000D01*
X129413000Y-81133000D01*
X129667000Y-81133000D01*
X129667000Y-81153000D01*
X130809915Y-81153000D01*
X130931904Y-80930961D01*
X130891246Y-80796913D01*
X130771037Y-80542580D01*
X130603519Y-80316586D01*
X130405480Y-80137000D01*
X142837577Y-80137000D01*
X142875000Y-80140686D01*
X142912423Y-80137000D01*
X142912426Y-80137000D01*
X143024378Y-80125974D01*
X143168015Y-80082402D01*
X143300392Y-80011645D01*
X143416422Y-79916422D01*
X143440284Y-79887346D01*
X148285481Y-75042149D01*
X148450635Y-75075000D01*
X148729365Y-75075000D01*
X149002740Y-75020623D01*
X149260254Y-74913957D01*
X149492010Y-74759103D01*
X149689103Y-74562010D01*
X149843957Y-74330254D01*
X149860000Y-74291523D01*
X149876043Y-74330254D01*
X150030897Y-74562010D01*
X150227990Y-74759103D01*
X150459746Y-74913957D01*
X150717260Y-75020623D01*
X150990635Y-75075000D01*
X151269365Y-75075000D01*
X151434519Y-75042149D01*
X151671713Y-75279342D01*
X151695579Y-75308423D01*
X151811609Y-75403646D01*
X151943986Y-75474403D01*
X152087623Y-75517975D01*
X152199575Y-75529001D01*
X152199578Y-75529001D01*
X152237001Y-75532687D01*
X152274424Y-75529001D01*
X164323938Y-75529001D01*
X164361361Y-75532687D01*
X164398784Y-75529001D01*
X164398787Y-75529001D01*
X164510739Y-75517975D01*
X164654376Y-75474403D01*
X164786753Y-75403646D01*
X164902783Y-75308423D01*
X164926644Y-75279348D01*
X165449352Y-74756641D01*
X165458237Y-74749350D01*
X165467990Y-74759103D01*
X165699746Y-74913957D01*
X165957260Y-75020623D01*
X166230635Y-75075000D01*
X166509365Y-75075000D01*
X166782740Y-75020623D01*
X167040254Y-74913957D01*
X167272010Y-74759103D01*
X167469103Y-74562010D01*
X167623957Y-74330254D01*
X167640000Y-74291523D01*
X167656043Y-74330254D01*
X167810897Y-74562010D01*
X168007990Y-74759103D01*
X168239746Y-74913957D01*
X168497260Y-75020623D01*
X168770635Y-75075000D01*
X169049365Y-75075000D01*
X169322740Y-75020623D01*
X169580254Y-74913957D01*
X169812010Y-74759103D01*
X170009103Y-74562010D01*
X170163957Y-74330254D01*
X170180000Y-74291523D01*
X170196043Y-74330254D01*
X170350897Y-74562010D01*
X170547990Y-74759103D01*
X170779746Y-74913957D01*
X171037260Y-75020623D01*
X171310635Y-75075000D01*
X171589365Y-75075000D01*
X171862740Y-75020623D01*
X172120254Y-74913957D01*
X172352010Y-74759103D01*
X172549103Y-74562010D01*
X172703957Y-74330254D01*
X172720000Y-74291523D01*
X172736043Y-74330254D01*
G37*
X172736043Y-74330254D02*
X172890897Y-74562010D01*
X173087990Y-74759103D01*
X173319746Y-74913957D01*
X173577260Y-75020623D01*
X173850635Y-75075000D01*
X174037369Y-75075000D01*
X155317371Y-93794999D01*
X130469441Y-93794999D01*
X130603519Y-93673414D01*
X130771037Y-93447420D01*
X130891246Y-93193087D01*
X130931904Y-93059039D01*
X130809915Y-92837000D01*
X129667000Y-92837000D01*
X129667000Y-92857000D01*
X129413000Y-92857000D01*
X129413000Y-92837000D01*
X128270085Y-92837000D01*
X128148096Y-93059039D01*
X128188754Y-93193087D01*
X128308963Y-93447420D01*
X128476481Y-93673414D01*
X128610559Y-93794999D01*
X122864397Y-93794999D01*
X123034637Y-93624759D01*
X123191680Y-93389727D01*
X123299853Y-93128574D01*
X123355000Y-92851335D01*
X123355000Y-92568665D01*
X123313685Y-92360961D01*
X128148096Y-92360961D01*
X128270085Y-92583000D01*
X129413000Y-92583000D01*
X129413000Y-91439376D01*
X129667000Y-91439376D01*
X129667000Y-92583000D01*
X130809915Y-92583000D01*
X130931904Y-92360961D01*
X130891246Y-92226913D01*
X130771037Y-91972580D01*
X130603519Y-91746586D01*
X130395131Y-91557615D01*
X130153881Y-91412930D01*
X129889040Y-91318091D01*
X129667000Y-91439376D01*
X129413000Y-91439376D01*
X129190960Y-91318091D01*
X128926119Y-91412930D01*
X128684869Y-91557615D01*
X128476481Y-91746586D01*
X128308963Y-91972580D01*
X128188754Y-92226913D01*
X128148096Y-92360961D01*
X123313685Y-92360961D01*
X123299853Y-92291426D01*
X123191680Y-92030273D01*
X123034637Y-91795241D01*
X122834759Y-91595363D01*
X122682000Y-91493293D01*
X122682000Y-90116707D01*
X122834759Y-90014637D01*
X123034637Y-89814759D01*
X123191680Y-89579727D01*
X123299853Y-89318574D01*
X123313684Y-89249039D01*
X128148096Y-89249039D01*
X128188754Y-89383087D01*
X128308963Y-89637420D01*
X128476481Y-89863414D01*
X128684869Y-90052385D01*
X128926119Y-90197070D01*
X129190960Y-90291909D01*
X129413000Y-90170624D01*
X129413000Y-89027000D01*
X129667000Y-89027000D01*
X129667000Y-90170624D01*
X129889040Y-90291909D01*
X130153881Y-90197070D01*
X130395131Y-90052385D01*
X130603519Y-89863414D01*
X130771037Y-89637420D01*
X130891246Y-89383087D01*
X130931904Y-89249039D01*
X130809915Y-89027000D01*
X129667000Y-89027000D01*
X129413000Y-89027000D01*
X128270085Y-89027000D01*
X128148096Y-89249039D01*
X123313684Y-89249039D01*
X123355000Y-89041335D01*
X123355000Y-88758665D01*
X123313685Y-88550961D01*
X128148096Y-88550961D01*
X128270085Y-88773000D01*
X129413000Y-88773000D01*
X129413000Y-87629376D01*
X129667000Y-87629376D01*
X129667000Y-88773000D01*
X130809915Y-88773000D01*
X130931904Y-88550961D01*
X130891246Y-88416913D01*
X130771037Y-88162580D01*
X130603519Y-87936586D01*
X130395131Y-87747615D01*
X130153881Y-87602930D01*
X129889040Y-87508091D01*
X129667000Y-87629376D01*
X129413000Y-87629376D01*
X129190960Y-87508091D01*
X128926119Y-87602930D01*
X128684869Y-87747615D01*
X128476481Y-87936586D01*
X128308963Y-88162580D01*
X128188754Y-88416913D01*
X128148096Y-88550961D01*
X123313685Y-88550961D01*
X123299853Y-88481426D01*
X123191680Y-88220273D01*
X123034637Y-87985241D01*
X122834759Y-87785363D01*
X122682000Y-87683293D01*
X122682000Y-86306707D01*
X122834759Y-86204637D01*
X123034637Y-86004759D01*
X123191680Y-85769727D01*
X123299853Y-85508574D01*
X123313684Y-85439039D01*
X128148096Y-85439039D01*
X128188754Y-85573087D01*
X128308963Y-85827420D01*
X128476481Y-86053414D01*
X128684869Y-86242385D01*
X128926119Y-86387070D01*
X129190960Y-86481909D01*
X129413000Y-86360624D01*
X129413000Y-85217000D01*
X129667000Y-85217000D01*
X129667000Y-86360624D01*
X129889040Y-86481909D01*
X130153881Y-86387070D01*
X130395131Y-86242385D01*
X130603519Y-86053414D01*
X130771037Y-85827420D01*
X130891246Y-85573087D01*
X130931904Y-85439039D01*
X130809915Y-85217000D01*
X129667000Y-85217000D01*
X129413000Y-85217000D01*
X128270085Y-85217000D01*
X128148096Y-85439039D01*
X123313684Y-85439039D01*
X123355000Y-85231335D01*
X123355000Y-84948665D01*
X123313685Y-84740961D01*
X128148096Y-84740961D01*
X128270085Y-84963000D01*
X129413000Y-84963000D01*
X129413000Y-83819376D01*
X129667000Y-83819376D01*
X129667000Y-84963000D01*
X130809915Y-84963000D01*
X130931904Y-84740961D01*
X130891246Y-84606913D01*
X130771037Y-84352580D01*
X130603519Y-84126586D01*
X130395131Y-83937615D01*
X130153881Y-83792930D01*
X129889040Y-83698091D01*
X129667000Y-83819376D01*
X129413000Y-83819376D01*
X129190960Y-83698091D01*
X128926119Y-83792930D01*
X128684869Y-83937615D01*
X128476481Y-84126586D01*
X128308963Y-84352580D01*
X128188754Y-84606913D01*
X128148096Y-84740961D01*
X123313685Y-84740961D01*
X123299853Y-84671426D01*
X123191680Y-84410273D01*
X123034637Y-84175241D01*
X122834759Y-83975363D01*
X122682000Y-83873293D01*
X122682000Y-82496707D01*
X122834759Y-82394637D01*
X123034637Y-82194759D01*
X123191680Y-81959727D01*
X123299853Y-81698574D01*
X123313684Y-81629039D01*
X128148096Y-81629039D01*
X128188754Y-81763087D01*
X128308963Y-82017420D01*
X128476481Y-82243414D01*
X128684869Y-82432385D01*
X128926119Y-82577070D01*
X129190960Y-82671909D01*
X129413000Y-82550624D01*
X129413000Y-81407000D01*
X129667000Y-81407000D01*
X129667000Y-82550624D01*
X129889040Y-82671909D01*
X130153881Y-82577070D01*
X130395131Y-82432385D01*
X130603519Y-82243414D01*
X130771037Y-82017420D01*
X130891246Y-81763087D01*
X130931904Y-81629039D01*
X130809915Y-81407000D01*
X129667000Y-81407000D01*
X129413000Y-81407000D01*
X128270085Y-81407000D01*
X128148096Y-81629039D01*
X123313684Y-81629039D01*
X123355000Y-81421335D01*
X123355000Y-81138665D01*
X123299853Y-80861426D01*
X123191680Y-80600273D01*
X123034637Y-80365241D01*
X122834759Y-80165363D01*
X122792311Y-80137000D01*
X128674520Y-80137000D01*
X128476481Y-80316586D01*
X128308963Y-80542580D01*
X128188754Y-80796913D01*
X128148096Y-80930961D01*
X128270085Y-81153000D01*
X129413000Y-81153000D01*
X129413000Y-81133000D01*
X129667000Y-81133000D01*
X129667000Y-81153000D01*
X130809915Y-81153000D01*
X130931904Y-80930961D01*
X130891246Y-80796913D01*
X130771037Y-80542580D01*
X130603519Y-80316586D01*
X130405480Y-80137000D01*
X142837577Y-80137000D01*
X142875000Y-80140686D01*
X142912423Y-80137000D01*
X142912426Y-80137000D01*
X143024378Y-80125974D01*
X143168015Y-80082402D01*
X143300392Y-80011645D01*
X143416422Y-79916422D01*
X143440284Y-79887346D01*
X148285481Y-75042149D01*
X148450635Y-75075000D01*
X148729365Y-75075000D01*
X149002740Y-75020623D01*
X149260254Y-74913957D01*
X149492010Y-74759103D01*
X149689103Y-74562010D01*
X149843957Y-74330254D01*
X149860000Y-74291523D01*
X149876043Y-74330254D01*
X150030897Y-74562010D01*
X150227990Y-74759103D01*
X150459746Y-74913957D01*
X150717260Y-75020623D01*
X150990635Y-75075000D01*
X151269365Y-75075000D01*
X151434519Y-75042149D01*
X151671713Y-75279342D01*
X151695579Y-75308423D01*
X151811609Y-75403646D01*
X151943986Y-75474403D01*
X152087623Y-75517975D01*
X152199575Y-75529001D01*
X152199578Y-75529001D01*
X152237001Y-75532687D01*
X152274424Y-75529001D01*
X164323938Y-75529001D01*
X164361361Y-75532687D01*
X164398784Y-75529001D01*
X164398787Y-75529001D01*
X164510739Y-75517975D01*
X164654376Y-75474403D01*
X164786753Y-75403646D01*
X164902783Y-75308423D01*
X164926644Y-75279348D01*
X165449352Y-74756641D01*
X165458237Y-74749350D01*
X165467990Y-74759103D01*
X165699746Y-74913957D01*
X165957260Y-75020623D01*
X166230635Y-75075000D01*
X166509365Y-75075000D01*
X166782740Y-75020623D01*
X167040254Y-74913957D01*
X167272010Y-74759103D01*
X167469103Y-74562010D01*
X167623957Y-74330254D01*
X167640000Y-74291523D01*
X167656043Y-74330254D01*
X167810897Y-74562010D01*
X168007990Y-74759103D01*
X168239746Y-74913957D01*
X168497260Y-75020623D01*
X168770635Y-75075000D01*
X169049365Y-75075000D01*
X169322740Y-75020623D01*
X169580254Y-74913957D01*
X169812010Y-74759103D01*
X170009103Y-74562010D01*
X170163957Y-74330254D01*
X170180000Y-74291523D01*
X170196043Y-74330254D01*
X170350897Y-74562010D01*
X170547990Y-74759103D01*
X170779746Y-74913957D01*
X171037260Y-75020623D01*
X171310635Y-75075000D01*
X171589365Y-75075000D01*
X171862740Y-75020623D01*
X172120254Y-74913957D01*
X172352010Y-74759103D01*
X172549103Y-74562010D01*
X172703957Y-74330254D01*
X172720000Y-74291523D01*
X172736043Y-74330254D01*
G36*
X117681481Y-80216585D02*
G01*
X117513963Y-80442579D01*
X117393754Y-80696912D01*
X117353096Y-80830960D01*
X117475085Y-81052999D01*
X118618000Y-81052999D01*
X118618000Y-81032999D01*
X118872000Y-81032999D01*
X118872000Y-81052999D01*
X120014915Y-81052999D01*
X120136904Y-80830960D01*
X120096246Y-80696912D01*
X119976037Y-80442579D01*
X119808519Y-80216585D01*
X119720757Y-80137000D01*
X121047689Y-80137000D01*
X121005241Y-80165363D01*
X120805363Y-80365241D01*
X120648320Y-80600273D01*
X120540147Y-80861426D01*
X120485000Y-81138665D01*
X120485000Y-81421335D01*
X120540147Y-81698574D01*
X120648320Y-81959727D01*
X120805363Y-82194759D01*
X121005241Y-82394637D01*
X121158001Y-82496708D01*
X121158000Y-83873293D01*
X121005241Y-83975363D01*
X120805363Y-84175241D01*
X120648320Y-84410273D01*
X120540147Y-84671426D01*
X120485000Y-84948665D01*
X120485000Y-85231335D01*
X120540147Y-85508574D01*
X120648320Y-85769727D01*
X120805363Y-86004759D01*
X121005241Y-86204637D01*
X121158001Y-86306708D01*
X121158000Y-87683293D01*
X121005241Y-87785363D01*
X120805363Y-87985241D01*
X120648320Y-88220273D01*
X120540147Y-88481426D01*
X120485000Y-88758665D01*
X120485000Y-89041335D01*
X120540147Y-89318574D01*
X120648320Y-89579727D01*
X120805363Y-89814759D01*
X121005241Y-90014637D01*
X121158001Y-90116708D01*
X121158000Y-91493293D01*
X121005241Y-91595363D01*
X120805363Y-91795241D01*
X120648320Y-92030273D01*
X120540147Y-92291426D01*
X120485000Y-92568665D01*
X120485000Y-92851335D01*
X120540147Y-93128574D01*
X120648320Y-93389727D01*
X120805363Y-93624759D01*
X120975603Y-93794999D01*
X119674441Y-93794999D01*
X119808519Y-93673414D01*
X119976037Y-93447420D01*
X120096246Y-93193087D01*
X120136904Y-93059039D01*
X120014915Y-92837000D01*
X118872000Y-92837000D01*
X118872000Y-92857000D01*
X118618000Y-92857000D01*
X118618000Y-92837000D01*
X117475085Y-92837000D01*
X117353096Y-93059039D01*
X117393754Y-93193087D01*
X117513963Y-93447420D01*
X117681481Y-93673414D01*
X117815559Y-93794999D01*
X112069397Y-93794999D01*
X112239637Y-93624759D01*
X112396680Y-93389727D01*
X112504853Y-93128574D01*
X112560000Y-92851335D01*
X112560000Y-92568665D01*
X112518685Y-92360961D01*
X117353096Y-92360961D01*
X117475085Y-92583000D01*
X118618000Y-92583000D01*
X118618000Y-91439376D01*
X118872000Y-91439376D01*
X118872000Y-92583000D01*
X120014915Y-92583000D01*
X120136904Y-92360961D01*
X120096246Y-92226913D01*
X119976037Y-91972580D01*
X119808519Y-91746586D01*
X119600131Y-91557615D01*
X119358881Y-91412930D01*
X119094040Y-91318091D01*
X118872000Y-91439376D01*
X118618000Y-91439376D01*
X118395960Y-91318091D01*
X118131119Y-91412930D01*
X117889869Y-91557615D01*
X117681481Y-91746586D01*
X117513963Y-91972580D01*
X117393754Y-92226913D01*
X117353096Y-92360961D01*
X112518685Y-92360961D01*
X112504853Y-92291426D01*
X112396680Y-92030273D01*
X112239637Y-91795241D01*
X112039759Y-91595363D01*
X111887000Y-91493293D01*
X111887000Y-90116707D01*
X112039759Y-90014637D01*
X112239637Y-89814759D01*
X112396680Y-89579727D01*
X112504853Y-89318574D01*
X112518684Y-89249039D01*
X117353096Y-89249039D01*
X117393754Y-89383087D01*
X117513963Y-89637420D01*
X117681481Y-89863414D01*
X117889869Y-90052385D01*
X118131119Y-90197070D01*
X118395960Y-90291909D01*
X118618000Y-90170624D01*
X118618000Y-89027000D01*
X118872000Y-89027000D01*
X118872000Y-90170624D01*
X119094040Y-90291909D01*
X119358881Y-90197070D01*
X119600131Y-90052385D01*
X119808519Y-89863414D01*
X119976037Y-89637420D01*
X120096246Y-89383087D01*
X120136904Y-89249039D01*
X120014915Y-89027000D01*
X118872000Y-89027000D01*
X118618000Y-89027000D01*
X117475085Y-89027000D01*
X117353096Y-89249039D01*
X112518684Y-89249039D01*
X112560000Y-89041335D01*
X112560000Y-88758665D01*
X112518685Y-88550961D01*
X117353096Y-88550961D01*
X117475085Y-88773000D01*
X118618000Y-88773000D01*
X118618000Y-87629376D01*
X118872000Y-87629376D01*
X118872000Y-88773000D01*
X120014915Y-88773000D01*
X120136904Y-88550961D01*
X120096246Y-88416913D01*
X119976037Y-88162580D01*
X119808519Y-87936586D01*
X119600131Y-87747615D01*
X119358881Y-87602930D01*
X119094040Y-87508091D01*
X118872000Y-87629376D01*
X118618000Y-87629376D01*
X118395960Y-87508091D01*
X118131119Y-87602930D01*
X117889869Y-87747615D01*
X117681481Y-87936586D01*
X117513963Y-88162580D01*
X117393754Y-88416913D01*
X117353096Y-88550961D01*
X112518685Y-88550961D01*
X112504853Y-88481426D01*
X112396680Y-88220273D01*
X112239637Y-87985241D01*
X112039759Y-87785363D01*
X111887000Y-87683293D01*
X111887000Y-86306707D01*
X112039759Y-86204637D01*
X112239637Y-86004759D01*
X112396680Y-85769727D01*
X112504853Y-85508574D01*
X112518684Y-85439039D01*
X117353096Y-85439039D01*
X117393754Y-85573087D01*
X117513963Y-85827420D01*
X117681481Y-86053414D01*
X117889869Y-86242385D01*
X118131119Y-86387070D01*
X118395960Y-86481909D01*
X118618000Y-86360624D01*
X118618000Y-85217000D01*
X118872000Y-85217000D01*
X118872000Y-86360624D01*
X119094040Y-86481909D01*
X119358881Y-86387070D01*
X119600131Y-86242385D01*
X119808519Y-86053414D01*
X119976037Y-85827420D01*
X120096246Y-85573087D01*
X120136904Y-85439039D01*
X120014915Y-85217000D01*
X118872000Y-85217000D01*
X118618000Y-85217000D01*
X117475085Y-85217000D01*
X117353096Y-85439039D01*
X112518684Y-85439039D01*
X112560000Y-85231335D01*
X112560000Y-84948665D01*
X112518685Y-84740961D01*
X117353096Y-84740961D01*
X117475085Y-84963000D01*
X118618000Y-84963000D01*
X118618000Y-83819376D01*
X118872000Y-83819376D01*
X118872000Y-84963000D01*
X120014915Y-84963000D01*
X120136904Y-84740961D01*
X120096246Y-84606913D01*
X119976037Y-84352580D01*
X119808519Y-84126586D01*
X119600131Y-83937615D01*
X119358881Y-83792930D01*
X119094040Y-83698091D01*
X118872000Y-83819376D01*
X118618000Y-83819376D01*
X118395960Y-83698091D01*
X118131119Y-83792930D01*
X117889869Y-83937615D01*
X117681481Y-84126586D01*
X117513963Y-84352580D01*
X117393754Y-84606913D01*
X117353096Y-84740961D01*
X112518685Y-84740961D01*
X112504853Y-84671426D01*
X112396680Y-84410273D01*
X112239637Y-84175241D01*
X112039759Y-83975363D01*
X111887000Y-83873293D01*
X111887000Y-82396706D01*
X112039759Y-82294636D01*
X112239637Y-82094758D01*
X112396680Y-81859726D01*
X112504853Y-81598573D01*
X112518684Y-81529038D01*
X117353096Y-81529038D01*
X117393754Y-81663086D01*
X117513963Y-81917419D01*
X117681481Y-82143413D01*
X117889869Y-82332384D01*
X118131119Y-82477069D01*
X118395960Y-82571908D01*
X118618000Y-82450623D01*
X118618000Y-81306999D01*
X118872000Y-81306999D01*
X118872000Y-82450623D01*
X119094040Y-82571908D01*
X119358881Y-82477069D01*
X119600131Y-82332384D01*
X119808519Y-82143413D01*
X119976037Y-81917419D01*
X120096246Y-81663086D01*
X120136904Y-81529038D01*
X120014915Y-81306999D01*
X118872000Y-81306999D01*
X118618000Y-81306999D01*
X117475085Y-81306999D01*
X117353096Y-81529038D01*
X112518684Y-81529038D01*
X112560000Y-81321334D01*
X112560000Y-81038664D01*
X112504853Y-80761425D01*
X112396680Y-80500272D01*
X112239637Y-80265240D01*
X112111397Y-80137000D01*
X117769243Y-80137000D01*
X117681481Y-80216585D01*
G37*
X117681481Y-80216585D02*
X117513963Y-80442579D01*
X117393754Y-80696912D01*
X117353096Y-80830960D01*
X117475085Y-81052999D01*
X118618000Y-81052999D01*
X118618000Y-81032999D01*
X118872000Y-81032999D01*
X118872000Y-81052999D01*
X120014915Y-81052999D01*
X120136904Y-80830960D01*
X120096246Y-80696912D01*
X119976037Y-80442579D01*
X119808519Y-80216585D01*
X119720757Y-80137000D01*
X121047689Y-80137000D01*
X121005241Y-80165363D01*
X120805363Y-80365241D01*
X120648320Y-80600273D01*
X120540147Y-80861426D01*
X120485000Y-81138665D01*
X120485000Y-81421335D01*
X120540147Y-81698574D01*
X120648320Y-81959727D01*
X120805363Y-82194759D01*
X121005241Y-82394637D01*
X121158001Y-82496708D01*
X121158000Y-83873293D01*
X121005241Y-83975363D01*
X120805363Y-84175241D01*
X120648320Y-84410273D01*
X120540147Y-84671426D01*
X120485000Y-84948665D01*
X120485000Y-85231335D01*
X120540147Y-85508574D01*
X120648320Y-85769727D01*
X120805363Y-86004759D01*
X121005241Y-86204637D01*
X121158001Y-86306708D01*
X121158000Y-87683293D01*
X121005241Y-87785363D01*
X120805363Y-87985241D01*
X120648320Y-88220273D01*
X120540147Y-88481426D01*
X120485000Y-88758665D01*
X120485000Y-89041335D01*
X120540147Y-89318574D01*
X120648320Y-89579727D01*
X120805363Y-89814759D01*
X121005241Y-90014637D01*
X121158001Y-90116708D01*
X121158000Y-91493293D01*
X121005241Y-91595363D01*
X120805363Y-91795241D01*
X120648320Y-92030273D01*
X120540147Y-92291426D01*
X120485000Y-92568665D01*
X120485000Y-92851335D01*
X120540147Y-93128574D01*
X120648320Y-93389727D01*
X120805363Y-93624759D01*
X120975603Y-93794999D01*
X119674441Y-93794999D01*
X119808519Y-93673414D01*
X119976037Y-93447420D01*
X120096246Y-93193087D01*
X120136904Y-93059039D01*
X120014915Y-92837000D01*
X118872000Y-92837000D01*
X118872000Y-92857000D01*
X118618000Y-92857000D01*
X118618000Y-92837000D01*
X117475085Y-92837000D01*
X117353096Y-93059039D01*
X117393754Y-93193087D01*
X117513963Y-93447420D01*
X117681481Y-93673414D01*
X117815559Y-93794999D01*
X112069397Y-93794999D01*
X112239637Y-93624759D01*
X112396680Y-93389727D01*
X112504853Y-93128574D01*
X112560000Y-92851335D01*
X112560000Y-92568665D01*
X112518685Y-92360961D01*
X117353096Y-92360961D01*
X117475085Y-92583000D01*
X118618000Y-92583000D01*
X118618000Y-91439376D01*
X118872000Y-91439376D01*
X118872000Y-92583000D01*
X120014915Y-92583000D01*
X120136904Y-92360961D01*
X120096246Y-92226913D01*
X119976037Y-91972580D01*
X119808519Y-91746586D01*
X119600131Y-91557615D01*
X119358881Y-91412930D01*
X119094040Y-91318091D01*
X118872000Y-91439376D01*
X118618000Y-91439376D01*
X118395960Y-91318091D01*
X118131119Y-91412930D01*
X117889869Y-91557615D01*
X117681481Y-91746586D01*
X117513963Y-91972580D01*
X117393754Y-92226913D01*
X117353096Y-92360961D01*
X112518685Y-92360961D01*
X112504853Y-92291426D01*
X112396680Y-92030273D01*
X112239637Y-91795241D01*
X112039759Y-91595363D01*
X111887000Y-91493293D01*
X111887000Y-90116707D01*
X112039759Y-90014637D01*
X112239637Y-89814759D01*
X112396680Y-89579727D01*
X112504853Y-89318574D01*
X112518684Y-89249039D01*
X117353096Y-89249039D01*
X117393754Y-89383087D01*
X117513963Y-89637420D01*
X117681481Y-89863414D01*
X117889869Y-90052385D01*
X118131119Y-90197070D01*
X118395960Y-90291909D01*
X118618000Y-90170624D01*
X118618000Y-89027000D01*
X118872000Y-89027000D01*
X118872000Y-90170624D01*
X119094040Y-90291909D01*
X119358881Y-90197070D01*
X119600131Y-90052385D01*
X119808519Y-89863414D01*
X119976037Y-89637420D01*
X120096246Y-89383087D01*
X120136904Y-89249039D01*
X120014915Y-89027000D01*
X118872000Y-89027000D01*
X118618000Y-89027000D01*
X117475085Y-89027000D01*
X117353096Y-89249039D01*
X112518684Y-89249039D01*
X112560000Y-89041335D01*
X112560000Y-88758665D01*
X112518685Y-88550961D01*
X117353096Y-88550961D01*
X117475085Y-88773000D01*
X118618000Y-88773000D01*
X118618000Y-87629376D01*
X118872000Y-87629376D01*
X118872000Y-88773000D01*
X120014915Y-88773000D01*
X120136904Y-88550961D01*
X120096246Y-88416913D01*
X119976037Y-88162580D01*
X119808519Y-87936586D01*
X119600131Y-87747615D01*
X119358881Y-87602930D01*
X119094040Y-87508091D01*
X118872000Y-87629376D01*
X118618000Y-87629376D01*
X118395960Y-87508091D01*
X118131119Y-87602930D01*
X117889869Y-87747615D01*
X117681481Y-87936586D01*
X117513963Y-88162580D01*
X117393754Y-88416913D01*
X117353096Y-88550961D01*
X112518685Y-88550961D01*
X112504853Y-88481426D01*
X112396680Y-88220273D01*
X112239637Y-87985241D01*
X112039759Y-87785363D01*
X111887000Y-87683293D01*
X111887000Y-86306707D01*
X112039759Y-86204637D01*
X112239637Y-86004759D01*
X112396680Y-85769727D01*
X112504853Y-85508574D01*
X112518684Y-85439039D01*
X117353096Y-85439039D01*
X117393754Y-85573087D01*
X117513963Y-85827420D01*
X117681481Y-86053414D01*
X117889869Y-86242385D01*
X118131119Y-86387070D01*
X118395960Y-86481909D01*
X118618000Y-86360624D01*
X118618000Y-85217000D01*
X118872000Y-85217000D01*
X118872000Y-86360624D01*
X119094040Y-86481909D01*
X119358881Y-86387070D01*
X119600131Y-86242385D01*
X119808519Y-86053414D01*
X119976037Y-85827420D01*
X120096246Y-85573087D01*
X120136904Y-85439039D01*
X120014915Y-85217000D01*
X118872000Y-85217000D01*
X118618000Y-85217000D01*
X117475085Y-85217000D01*
X117353096Y-85439039D01*
X112518684Y-85439039D01*
X112560000Y-85231335D01*
X112560000Y-84948665D01*
X112518685Y-84740961D01*
X117353096Y-84740961D01*
X117475085Y-84963000D01*
X118618000Y-84963000D01*
X118618000Y-83819376D01*
X118872000Y-83819376D01*
X118872000Y-84963000D01*
X120014915Y-84963000D01*
X120136904Y-84740961D01*
X120096246Y-84606913D01*
X119976037Y-84352580D01*
X119808519Y-84126586D01*
X119600131Y-83937615D01*
X119358881Y-83792930D01*
X119094040Y-83698091D01*
X118872000Y-83819376D01*
X118618000Y-83819376D01*
X118395960Y-83698091D01*
X118131119Y-83792930D01*
X117889869Y-83937615D01*
X117681481Y-84126586D01*
X117513963Y-84352580D01*
X117393754Y-84606913D01*
X117353096Y-84740961D01*
X112518685Y-84740961D01*
X112504853Y-84671426D01*
X112396680Y-84410273D01*
X112239637Y-84175241D01*
X112039759Y-83975363D01*
X111887000Y-83873293D01*
X111887000Y-82396706D01*
X112039759Y-82294636D01*
X112239637Y-82094758D01*
X112396680Y-81859726D01*
X112504853Y-81598573D01*
X112518684Y-81529038D01*
X117353096Y-81529038D01*
X117393754Y-81663086D01*
X117513963Y-81917419D01*
X117681481Y-82143413D01*
X117889869Y-82332384D01*
X118131119Y-82477069D01*
X118395960Y-82571908D01*
X118618000Y-82450623D01*
X118618000Y-81306999D01*
X118872000Y-81306999D01*
X118872000Y-82450623D01*
X119094040Y-82571908D01*
X119358881Y-82477069D01*
X119600131Y-82332384D01*
X119808519Y-82143413D01*
X119976037Y-81917419D01*
X120096246Y-81663086D01*
X120136904Y-81529038D01*
X120014915Y-81306999D01*
X118872000Y-81306999D01*
X118618000Y-81306999D01*
X117475085Y-81306999D01*
X117353096Y-81529038D01*
X112518684Y-81529038D01*
X112560000Y-81321334D01*
X112560000Y-81038664D01*
X112504853Y-80761425D01*
X112396680Y-80500272D01*
X112239637Y-80265240D01*
X112111397Y-80137000D01*
X117769243Y-80137000D01*
X117681481Y-80216585D01*
G36*
X109690000Y-73518665D02*
G01*
X109690000Y-73801335D01*
X109745147Y-74078574D01*
X109853320Y-74339727D01*
X110010363Y-74574759D01*
X110111604Y-74676000D01*
X108854423Y-74676000D01*
X108817000Y-74672314D01*
X108779577Y-74676000D01*
X108779574Y-74676000D01*
X108667622Y-74687026D01*
X108523985Y-74730598D01*
X108478297Y-74755019D01*
X108391607Y-74801355D01*
X108358054Y-74828892D01*
X108275578Y-74896578D01*
X108251716Y-74925654D01*
X99450803Y-83726567D01*
X99457812Y-83574508D01*
X99416965Y-83304762D01*
X99324277Y-83048168D01*
X99263860Y-82935137D01*
X99024993Y-82869612D01*
X98247605Y-83647000D01*
X98261748Y-83661143D01*
X98082143Y-83840748D01*
X98068000Y-83826605D01*
X98053858Y-83840748D01*
X97874253Y-83661143D01*
X97888395Y-83647000D01*
X97874253Y-83632858D01*
X98053858Y-83453253D01*
X98068000Y-83467395D01*
X98845388Y-82690007D01*
X98791914Y-82495072D01*
X98818000Y-82495072D01*
X98942482Y-82482812D01*
X99062180Y-82446502D01*
X99172494Y-82387537D01*
X99269185Y-82308185D01*
X99348537Y-82211494D01*
X99407502Y-82101180D01*
X99443812Y-81981482D01*
X99456072Y-81857000D01*
X99456072Y-80357000D01*
X99443812Y-80232518D01*
X99407502Y-80112820D01*
X99348537Y-80002506D01*
X99269185Y-79905815D01*
X99172494Y-79826463D01*
X99062180Y-79767498D01*
X98942482Y-79731188D01*
X98818000Y-79718928D01*
X98445100Y-79718928D01*
X104869029Y-73294999D01*
X109734491Y-73294999D01*
X109690000Y-73518665D01*
G37*
X109690000Y-73518665D02*
X109690000Y-73801335D01*
X109745147Y-74078574D01*
X109853320Y-74339727D01*
X110010363Y-74574759D01*
X110111604Y-74676000D01*
X108854423Y-74676000D01*
X108817000Y-74672314D01*
X108779577Y-74676000D01*
X108779574Y-74676000D01*
X108667622Y-74687026D01*
X108523985Y-74730598D01*
X108478297Y-74755019D01*
X108391607Y-74801355D01*
X108358054Y-74828892D01*
X108275578Y-74896578D01*
X108251716Y-74925654D01*
X99450803Y-83726567D01*
X99457812Y-83574508D01*
X99416965Y-83304762D01*
X99324277Y-83048168D01*
X99263860Y-82935137D01*
X99024993Y-82869612D01*
X98247605Y-83647000D01*
X98261748Y-83661143D01*
X98082143Y-83840748D01*
X98068000Y-83826605D01*
X98053858Y-83840748D01*
X97874253Y-83661143D01*
X97888395Y-83647000D01*
X97874253Y-83632858D01*
X98053858Y-83453253D01*
X98068000Y-83467395D01*
X98845388Y-82690007D01*
X98791914Y-82495072D01*
X98818000Y-82495072D01*
X98942482Y-82482812D01*
X99062180Y-82446502D01*
X99172494Y-82387537D01*
X99269185Y-82308185D01*
X99348537Y-82211494D01*
X99407502Y-82101180D01*
X99443812Y-81981482D01*
X99456072Y-81857000D01*
X99456072Y-80357000D01*
X99443812Y-80232518D01*
X99407502Y-80112820D01*
X99348537Y-80002506D01*
X99269185Y-79905815D01*
X99172494Y-79826463D01*
X99062180Y-79767498D01*
X98942482Y-79731188D01*
X98818000Y-79718928D01*
X98445100Y-79718928D01*
X104869029Y-73294999D01*
X109734491Y-73294999D01*
X109690000Y-73518665D01*
G36*
X144796043Y-74330254D02*
G01*
X144950897Y-74562010D01*
X145147990Y-74759103D01*
X145379746Y-74913957D01*
X145637260Y-75020623D01*
X145910635Y-75075000D01*
X146097370Y-75075000D01*
X142559370Y-78613000D01*
X130405480Y-78613000D01*
X130603519Y-78433414D01*
X130771037Y-78207420D01*
X130891246Y-77953087D01*
X130931904Y-77819039D01*
X130809915Y-77597000D01*
X129667000Y-77597000D01*
X129667000Y-77617000D01*
X129413000Y-77617000D01*
X129413000Y-77597000D01*
X128270085Y-77597000D01*
X128148096Y-77819039D01*
X128188754Y-77953087D01*
X128308963Y-78207420D01*
X128476481Y-78433414D01*
X128674520Y-78613000D01*
X122792311Y-78613000D01*
X122834759Y-78584637D01*
X123034637Y-78384759D01*
X123191680Y-78149727D01*
X123299853Y-77888574D01*
X123355000Y-77611335D01*
X123355000Y-77328665D01*
X123299853Y-77051426D01*
X123191680Y-76790273D01*
X123034637Y-76555241D01*
X122834759Y-76355363D01*
X122602241Y-76200000D01*
X128880982Y-76200000D01*
X128684869Y-76317615D01*
X128476481Y-76506586D01*
X128308963Y-76732580D01*
X128188754Y-76986913D01*
X128148096Y-77120961D01*
X128270085Y-77343000D01*
X129413000Y-77343000D01*
X129413000Y-77323000D01*
X129667000Y-77323000D01*
X129667000Y-77343000D01*
X130809915Y-77343000D01*
X130931904Y-77120961D01*
X130891246Y-76986913D01*
X130771037Y-76732580D01*
X130603519Y-76506586D01*
X130395131Y-76317615D01*
X130199018Y-76200000D01*
X139154577Y-76200000D01*
X139192000Y-76203686D01*
X139229423Y-76200000D01*
X139229426Y-76200000D01*
X139341378Y-76188974D01*
X139485015Y-76145402D01*
X139617392Y-76074645D01*
X139733422Y-75979422D01*
X139757284Y-75950346D01*
X140665481Y-75042149D01*
X140830635Y-75075000D01*
X141109365Y-75075000D01*
X141382740Y-75020623D01*
X141640254Y-74913957D01*
X141872010Y-74759103D01*
X142069103Y-74562010D01*
X142223957Y-74330254D01*
X142240000Y-74291523D01*
X142256043Y-74330254D01*
X142410897Y-74562010D01*
X142607990Y-74759103D01*
X142839746Y-74913957D01*
X143097260Y-75020623D01*
X143370635Y-75075000D01*
X143649365Y-75075000D01*
X143922740Y-75020623D01*
X144180254Y-74913957D01*
X144412010Y-74759103D01*
X144609103Y-74562010D01*
X144763957Y-74330254D01*
X144780000Y-74291523D01*
X144796043Y-74330254D01*
G37*
X144796043Y-74330254D02*
X144950897Y-74562010D01*
X145147990Y-74759103D01*
X145379746Y-74913957D01*
X145637260Y-75020623D01*
X145910635Y-75075000D01*
X146097370Y-75075000D01*
X142559370Y-78613000D01*
X130405480Y-78613000D01*
X130603519Y-78433414D01*
X130771037Y-78207420D01*
X130891246Y-77953087D01*
X130931904Y-77819039D01*
X130809915Y-77597000D01*
X129667000Y-77597000D01*
X129667000Y-77617000D01*
X129413000Y-77617000D01*
X129413000Y-77597000D01*
X128270085Y-77597000D01*
X128148096Y-77819039D01*
X128188754Y-77953087D01*
X128308963Y-78207420D01*
X128476481Y-78433414D01*
X128674520Y-78613000D01*
X122792311Y-78613000D01*
X122834759Y-78584637D01*
X123034637Y-78384759D01*
X123191680Y-78149727D01*
X123299853Y-77888574D01*
X123355000Y-77611335D01*
X123355000Y-77328665D01*
X123299853Y-77051426D01*
X123191680Y-76790273D01*
X123034637Y-76555241D01*
X122834759Y-76355363D01*
X122602241Y-76200000D01*
X128880982Y-76200000D01*
X128684869Y-76317615D01*
X128476481Y-76506586D01*
X128308963Y-76732580D01*
X128188754Y-76986913D01*
X128148096Y-77120961D01*
X128270085Y-77343000D01*
X129413000Y-77343000D01*
X129413000Y-77323000D01*
X129667000Y-77323000D01*
X129667000Y-77343000D01*
X130809915Y-77343000D01*
X130931904Y-77120961D01*
X130891246Y-76986913D01*
X130771037Y-76732580D01*
X130603519Y-76506586D01*
X130395131Y-76317615D01*
X130199018Y-76200000D01*
X139154577Y-76200000D01*
X139192000Y-76203686D01*
X139229423Y-76200000D01*
X139229426Y-76200000D01*
X139341378Y-76188974D01*
X139485015Y-76145402D01*
X139617392Y-76074645D01*
X139733422Y-75979422D01*
X139757284Y-75950346D01*
X140665481Y-75042149D01*
X140830635Y-75075000D01*
X141109365Y-75075000D01*
X141382740Y-75020623D01*
X141640254Y-74913957D01*
X141872010Y-74759103D01*
X142069103Y-74562010D01*
X142223957Y-74330254D01*
X142240000Y-74291523D01*
X142256043Y-74330254D01*
X142410897Y-74562010D01*
X142607990Y-74759103D01*
X142839746Y-74913957D01*
X143097260Y-75020623D01*
X143370635Y-75075000D01*
X143649365Y-75075000D01*
X143922740Y-75020623D01*
X144180254Y-74913957D01*
X144412010Y-74759103D01*
X144609103Y-74562010D01*
X144763957Y-74330254D01*
X144780000Y-74291523D01*
X144796043Y-74330254D01*
G36*
X117889869Y-76317615D02*
G01*
X117681481Y-76506586D01*
X117513963Y-76732580D01*
X117393754Y-76986913D01*
X117353096Y-77120961D01*
X117475085Y-77343000D01*
X118618000Y-77343000D01*
X118618000Y-77323000D01*
X118872000Y-77323000D01*
X118872000Y-77343000D01*
X120014915Y-77343000D01*
X120136904Y-77120961D01*
X120096246Y-76986913D01*
X119976037Y-76732580D01*
X119808519Y-76506586D01*
X119600131Y-76317615D01*
X119404018Y-76200000D01*
X121237759Y-76200000D01*
X121005241Y-76355363D01*
X120805363Y-76555241D01*
X120648320Y-76790273D01*
X120540147Y-77051426D01*
X120485000Y-77328665D01*
X120485000Y-77611335D01*
X120540147Y-77888574D01*
X120648320Y-78149727D01*
X120805363Y-78384759D01*
X121005241Y-78584637D01*
X121047689Y-78613000D01*
X119610480Y-78613000D01*
X119808519Y-78433414D01*
X119976037Y-78207420D01*
X120096246Y-77953087D01*
X120136904Y-77819039D01*
X120014915Y-77597000D01*
X118872000Y-77597000D01*
X118872000Y-77617000D01*
X118618000Y-77617000D01*
X118618000Y-77597000D01*
X117475085Y-77597000D01*
X117353096Y-77819039D01*
X117393754Y-77953087D01*
X117513963Y-78207420D01*
X117681481Y-78433414D01*
X117879520Y-78613000D01*
X111997311Y-78613000D01*
X112039759Y-78584637D01*
X112239637Y-78384759D01*
X112396680Y-78149727D01*
X112504853Y-77888574D01*
X112560000Y-77611335D01*
X112560000Y-77328665D01*
X112504853Y-77051426D01*
X112396680Y-76790273D01*
X112239637Y-76555241D01*
X112039759Y-76355363D01*
X111807241Y-76200000D01*
X118085982Y-76200000D01*
X117889869Y-76317615D01*
G37*
X117889869Y-76317615D02*
X117681481Y-76506586D01*
X117513963Y-76732580D01*
X117393754Y-76986913D01*
X117353096Y-77120961D01*
X117475085Y-77343000D01*
X118618000Y-77343000D01*
X118618000Y-77323000D01*
X118872000Y-77323000D01*
X118872000Y-77343000D01*
X120014915Y-77343000D01*
X120136904Y-77120961D01*
X120096246Y-76986913D01*
X119976037Y-76732580D01*
X119808519Y-76506586D01*
X119600131Y-76317615D01*
X119404018Y-76200000D01*
X121237759Y-76200000D01*
X121005241Y-76355363D01*
X120805363Y-76555241D01*
X120648320Y-76790273D01*
X120540147Y-77051426D01*
X120485000Y-77328665D01*
X120485000Y-77611335D01*
X120540147Y-77888574D01*
X120648320Y-78149727D01*
X120805363Y-78384759D01*
X121005241Y-78584637D01*
X121047689Y-78613000D01*
X119610480Y-78613000D01*
X119808519Y-78433414D01*
X119976037Y-78207420D01*
X120096246Y-77953087D01*
X120136904Y-77819039D01*
X120014915Y-77597000D01*
X118872000Y-77597000D01*
X118872000Y-77617000D01*
X118618000Y-77617000D01*
X118618000Y-77597000D01*
X117475085Y-77597000D01*
X117353096Y-77819039D01*
X117393754Y-77953087D01*
X117513963Y-78207420D01*
X117681481Y-78433414D01*
X117879520Y-78613000D01*
X111997311Y-78613000D01*
X112039759Y-78584637D01*
X112239637Y-78384759D01*
X112396680Y-78149727D01*
X112504853Y-77888574D01*
X112560000Y-77611335D01*
X112560000Y-77328665D01*
X112504853Y-77051426D01*
X112396680Y-76790273D01*
X112239637Y-76555241D01*
X112039759Y-76355363D01*
X111807241Y-76200000D01*
X118085982Y-76200000D01*
X117889869Y-76317615D01*
G36*
X128148096Y-73310961D02*
G01*
X128270085Y-73533000D01*
X129413000Y-73533000D01*
X129413000Y-73513000D01*
X129667000Y-73513000D01*
X129667000Y-73533000D01*
X130809915Y-73533000D01*
X130931904Y-73310961D01*
X130927063Y-73294999D01*
X131979881Y-73294999D01*
X131935000Y-73520635D01*
X131935000Y-73799365D01*
X131989377Y-74072740D01*
X132096043Y-74330254D01*
X132250897Y-74562010D01*
X132364887Y-74676000D01*
X130545530Y-74676000D01*
X130603519Y-74623414D01*
X130771037Y-74397420D01*
X130891246Y-74143087D01*
X130931904Y-74009039D01*
X130809915Y-73787000D01*
X129667000Y-73787000D01*
X129667000Y-73807000D01*
X129413000Y-73807000D01*
X129413000Y-73787000D01*
X128270085Y-73787000D01*
X128148096Y-74009039D01*
X128188754Y-74143087D01*
X128308963Y-74397420D01*
X128476481Y-74623414D01*
X128534470Y-74676000D01*
X122933396Y-74676000D01*
X123034637Y-74574759D01*
X123191680Y-74339727D01*
X123299853Y-74078574D01*
X123355000Y-73801335D01*
X123355000Y-73518665D01*
X123310509Y-73294999D01*
X128152937Y-73294999D01*
X128148096Y-73310961D01*
G37*
X128148096Y-73310961D02*
X128270085Y-73533000D01*
X129413000Y-73533000D01*
X129413000Y-73513000D01*
X129667000Y-73513000D01*
X129667000Y-73533000D01*
X130809915Y-73533000D01*
X130931904Y-73310961D01*
X130927063Y-73294999D01*
X131979881Y-73294999D01*
X131935000Y-73520635D01*
X131935000Y-73799365D01*
X131989377Y-74072740D01*
X132096043Y-74330254D01*
X132250897Y-74562010D01*
X132364887Y-74676000D01*
X130545530Y-74676000D01*
X130603519Y-74623414D01*
X130771037Y-74397420D01*
X130891246Y-74143087D01*
X130931904Y-74009039D01*
X130809915Y-73787000D01*
X129667000Y-73787000D01*
X129667000Y-73807000D01*
X129413000Y-73807000D01*
X129413000Y-73787000D01*
X128270085Y-73787000D01*
X128148096Y-74009039D01*
X128188754Y-74143087D01*
X128308963Y-74397420D01*
X128476481Y-74623414D01*
X128534470Y-74676000D01*
X122933396Y-74676000D01*
X123034637Y-74574759D01*
X123191680Y-74339727D01*
X123299853Y-74078574D01*
X123355000Y-73801335D01*
X123355000Y-73518665D01*
X123310509Y-73294999D01*
X128152937Y-73294999D01*
X128148096Y-73310961D01*
G36*
X117353096Y-73310961D02*
G01*
X117475085Y-73533000D01*
X118618000Y-73533000D01*
X118618000Y-73513000D01*
X118872000Y-73513000D01*
X118872000Y-73533000D01*
X120014915Y-73533000D01*
X120136904Y-73310961D01*
X120132063Y-73294999D01*
X120529491Y-73294999D01*
X120485000Y-73518665D01*
X120485000Y-73801335D01*
X120540147Y-74078574D01*
X120648320Y-74339727D01*
X120805363Y-74574759D01*
X120906604Y-74676000D01*
X119750530Y-74676000D01*
X119808519Y-74623414D01*
X119976037Y-74397420D01*
X120096246Y-74143087D01*
X120136904Y-74009039D01*
X120014915Y-73787000D01*
X118872000Y-73787000D01*
X118872000Y-73807000D01*
X118618000Y-73807000D01*
X118618000Y-73787000D01*
X117475085Y-73787000D01*
X117353096Y-74009039D01*
X117393754Y-74143087D01*
X117513963Y-74397420D01*
X117681481Y-74623414D01*
X117739470Y-74676000D01*
X112138396Y-74676000D01*
X112239637Y-74574759D01*
X112396680Y-74339727D01*
X112504853Y-74078574D01*
X112560000Y-73801335D01*
X112560000Y-73518665D01*
X112515509Y-73294999D01*
X117357937Y-73294999D01*
X117353096Y-73310961D01*
G37*
X117353096Y-73310961D02*
X117475085Y-73533000D01*
X118618000Y-73533000D01*
X118618000Y-73513000D01*
X118872000Y-73513000D01*
X118872000Y-73533000D01*
X120014915Y-73533000D01*
X120136904Y-73310961D01*
X120132063Y-73294999D01*
X120529491Y-73294999D01*
X120485000Y-73518665D01*
X120485000Y-73801335D01*
X120540147Y-74078574D01*
X120648320Y-74339727D01*
X120805363Y-74574759D01*
X120906604Y-74676000D01*
X119750530Y-74676000D01*
X119808519Y-74623414D01*
X119976037Y-74397420D01*
X120096246Y-74143087D01*
X120136904Y-74009039D01*
X120014915Y-73787000D01*
X118872000Y-73787000D01*
X118872000Y-73807000D01*
X118618000Y-73807000D01*
X118618000Y-73787000D01*
X117475085Y-73787000D01*
X117353096Y-74009039D01*
X117393754Y-74143087D01*
X117513963Y-74397420D01*
X117681481Y-74623414D01*
X117739470Y-74676000D01*
X112138396Y-74676000D01*
X112239637Y-74574759D01*
X112396680Y-74339727D01*
X112504853Y-74078574D01*
X112560000Y-73801335D01*
X112560000Y-73518665D01*
X112515509Y-73294999D01*
X117357937Y-73294999D01*
X117353096Y-73310961D01*
M02*
