G04 #@! TF.GenerationSoftware,KiCad,Pcbnew,5.1.5+dfsg1-2build2*
G04 #@! TF.CreationDate,2022-03-26T13:12:08+01:00*
G04 #@! TF.ProjectId,spelkonsoll,7370656c-6b6f-46e7-936f-6c6c2e6b6963,rev?*
G04 #@! TF.SameCoordinates,Original*
G04 #@! TF.FileFunction,Copper,L1,Top*
G04 #@! TF.FilePolarity,Positive*
%FSLAX46Y46*%
G04 Gerber Fmt 4.6, Leading zero omitted, Abs format (unit mm)*
G04 Created by KiCad (PCBNEW 5.1.5+dfsg1-2build2) date 2022-03-26 13:12:08*
%MOMM*%
%LPD*%
G04 APERTURE LIST*
%ADD10C,1.507998*%
%ADD11C,1.560000*%
%ADD12R,1.560000X1.560000*%
%ADD13R,2.000000X2.000000*%
%ADD14C,2.000000*%
%ADD15R,1.500000X1.500000*%
%ADD16C,1.500000*%
%ADD17C,4.000000*%
%ADD18C,2.008124*%
%ADD19C,2.082800*%
%ADD20C,1.600000*%
%ADD21O,1.600000X1.600000*%
%ADD22C,0.762000*%
%ADD23C,0.254000*%
G04 APERTURE END LIST*
D10*
X79781398Y-97921200D03*
X79781398Y-93421199D03*
X86281400Y-93421199D03*
X86281400Y-97921200D03*
D11*
X133350000Y-73660000D03*
X135890000Y-73660000D03*
X138430000Y-73660000D03*
X140970000Y-73660000D03*
X143510000Y-73660000D03*
X146050000Y-73660000D03*
X148590000Y-73660000D03*
X151130000Y-73660000D03*
X153670000Y-73660000D03*
X156210000Y-73660000D03*
X158750000Y-73660000D03*
X161290000Y-73660000D03*
X163830000Y-73660000D03*
X166370000Y-73660000D03*
X168910000Y-73660000D03*
X171450000Y-73660000D03*
X173990000Y-73660000D03*
X176530000Y-73660000D03*
X179070000Y-73660000D03*
X135890000Y-99060000D03*
X138430000Y-99060000D03*
X140970000Y-99060000D03*
X143510000Y-99060000D03*
X146050000Y-99060000D03*
X148590000Y-99060000D03*
X151130000Y-99060000D03*
X153670000Y-99060000D03*
X156210000Y-99060000D03*
X158750000Y-99060000D03*
X161290000Y-99060000D03*
X163830000Y-99060000D03*
X166370000Y-99060000D03*
X168910000Y-99060000D03*
X171450000Y-99060000D03*
X173990000Y-99060000D03*
X133350000Y-99060000D03*
X176530000Y-99060000D03*
D12*
X179070000Y-99060000D03*
D13*
X206502000Y-114046000D03*
D14*
X214102000Y-114046000D03*
D15*
X98068000Y-81107000D03*
D16*
X98068000Y-83647000D03*
X98068000Y-86187000D03*
X98068000Y-88727000D03*
X98068000Y-91267000D03*
X98068000Y-93807000D03*
X98068000Y-96347000D03*
X98068000Y-98887000D03*
X98068000Y-101427000D03*
D15*
X192075620Y-93333080D03*
D16*
X192075620Y-95873080D03*
X192075620Y-98413080D03*
X192075620Y-100953080D03*
D17*
X99568000Y-72517000D03*
X191768000Y-72667000D03*
X191568000Y-122667000D03*
X99268000Y-122567000D03*
D16*
X98068000Y-104045000D03*
X98068000Y-106585000D03*
X98068000Y-109125000D03*
X98068000Y-111665000D03*
X98068000Y-114205000D03*
D10*
X217373200Y-90726400D03*
X221873201Y-90726400D03*
X221873201Y-84226398D03*
X217373200Y-84226398D03*
X213258402Y-94869000D03*
X213258402Y-99369001D03*
X206758400Y-99369001D03*
X206758400Y-94869000D03*
X198069200Y-90728800D03*
X202569201Y-90728800D03*
X202569201Y-84228798D03*
X198069200Y-84228798D03*
X213256002Y-75383000D03*
X213256002Y-79883001D03*
X206756000Y-79883001D03*
X206756000Y-75383000D03*
X86281400Y-82452600D03*
X86281400Y-77952599D03*
X79781398Y-77952599D03*
X79781398Y-82452600D03*
X73046200Y-91186000D03*
X77546201Y-91186000D03*
X77546201Y-84685998D03*
X73046200Y-84685998D03*
X88519000Y-84685998D03*
X93019001Y-84685998D03*
X93019001Y-91186000D03*
X88519000Y-91186000D03*
X86256000Y-112348400D03*
X86256000Y-107848399D03*
X79755998Y-107848399D03*
X79755998Y-112348400D03*
X79755998Y-120548400D03*
X79755998Y-116048399D03*
X86256000Y-116048399D03*
X86256000Y-120548400D03*
D18*
X69885000Y-103505000D03*
X62885001Y-103505000D03*
D10*
X68635001Y-101005000D03*
X64135000Y-101005000D03*
X222850000Y-101005000D03*
X227350001Y-101005000D03*
D18*
X221600001Y-103505000D03*
X228600000Y-103505000D03*
D19*
X181356000Y-113919000D03*
X109093000Y-113919000D03*
D20*
X111125000Y-92710000D03*
D21*
X118745000Y-92710000D03*
X118745000Y-88900000D03*
D20*
X111125000Y-88900000D03*
X111125000Y-85090000D03*
D21*
X118745000Y-85090000D03*
X118745000Y-81179999D03*
D20*
X111125000Y-81179999D03*
X111125000Y-77470000D03*
D21*
X118745000Y-77470000D03*
X118745000Y-73660000D03*
D20*
X111125000Y-73660000D03*
D21*
X129540000Y-92710000D03*
D20*
X121920000Y-92710000D03*
X121920000Y-88900000D03*
D21*
X129540000Y-88900000D03*
D20*
X121920000Y-85090000D03*
D21*
X129540000Y-85090000D03*
X129540000Y-81280000D03*
D20*
X121920000Y-81280000D03*
X121920000Y-77470000D03*
D21*
X129540000Y-77470000D03*
X129540000Y-73660000D03*
D20*
X121920000Y-73660000D03*
D22*
X125095000Y-95885000D03*
X145415000Y-102870000D03*
D23*
X98241000Y-99060000D02*
X98068000Y-98887000D01*
X133350000Y-99060000D02*
X98241000Y-99060000D01*
X73800198Y-83932000D02*
X73046200Y-84685998D01*
X74127200Y-83604998D02*
X73800198Y-83932000D01*
X77562685Y-83604998D02*
X74127200Y-83604998D01*
X78715083Y-82452600D02*
X77562685Y-83604998D01*
X79781398Y-82452600D02*
X78715083Y-82452600D01*
X76697598Y-101005000D02*
X79781398Y-97921200D01*
X68635001Y-101005000D02*
X76697598Y-101005000D01*
X80535396Y-98675198D02*
X79781398Y-97921200D01*
X80836998Y-98976800D02*
X80535396Y-98675198D01*
X80836998Y-111267400D02*
X80836998Y-98976800D01*
X79755998Y-112348400D02*
X80836998Y-111267400D01*
X79002000Y-113102398D02*
X79755998Y-112348400D01*
X78674998Y-113429400D02*
X79002000Y-113102398D01*
X79755998Y-119482085D02*
X78674998Y-118401085D01*
X78674998Y-118401085D02*
X78674998Y-113429400D01*
X79755998Y-120548400D02*
X79755998Y-119482085D01*
X217373200Y-79500198D02*
X217373200Y-84226398D01*
X213256002Y-75383000D02*
X217373200Y-79500198D01*
X213258402Y-88341196D02*
X217373200Y-84226398D01*
X213258402Y-94869000D02*
X213258402Y-88341196D01*
X212189687Y-75383000D02*
X213256002Y-75383000D01*
X208355881Y-75383000D02*
X212189687Y-75383000D01*
X199510083Y-84228798D02*
X208355881Y-75383000D01*
X198069200Y-84228798D02*
X199510083Y-84228798D01*
X226596003Y-100251002D02*
X227350001Y-101005000D01*
X221967999Y-95622998D02*
X226596003Y-100251002D01*
X214012400Y-95622998D02*
X221967999Y-95622998D01*
X213258402Y-94869000D02*
X214012400Y-95622998D01*
X121920000Y-81280000D02*
X121920000Y-77470000D01*
X121920000Y-77470000D02*
X121920000Y-73660000D01*
X111125000Y-81179999D02*
X111125000Y-77470000D01*
X111125000Y-77470000D02*
X111125000Y-73660000D01*
X121120001Y-72860001D02*
X121920000Y-73660000D01*
X120792999Y-72532999D02*
X121120001Y-72860001D01*
X112252001Y-72532999D02*
X120792999Y-72532999D01*
X111125000Y-73660000D02*
X112252001Y-72532999D01*
X98140999Y-81179999D02*
X98068000Y-81107000D01*
X111125000Y-81179999D02*
X98140999Y-81179999D01*
X92097998Y-81107000D02*
X88519000Y-84685998D01*
X98068000Y-81107000D02*
X92097998Y-81107000D01*
X82014796Y-84685998D02*
X79781398Y-82452600D01*
X88519000Y-84685998D02*
X82014796Y-84685998D01*
X121920000Y-92710000D02*
X125095000Y-95885000D01*
X98149000Y-83566000D02*
X98068000Y-83647000D01*
X179849999Y-74439999D02*
X179070000Y-73660000D01*
X196988200Y-91578200D02*
X179849999Y-74439999D01*
X196988200Y-96932200D02*
X196988200Y-91578200D01*
X130637000Y-83647000D02*
X98068000Y-83647000D01*
X146050000Y-99060000D02*
X130637000Y-83647000D01*
X163050001Y-74439999D02*
X163830000Y-73660000D01*
X155102999Y-99265363D02*
X155102999Y-82387001D01*
X155102999Y-82387001D02*
X163050001Y-74439999D01*
X154201361Y-100167001D02*
X155102999Y-99265363D01*
X147157001Y-100167001D02*
X154201361Y-100167001D01*
X146050000Y-99060000D02*
X147157001Y-100167001D01*
X178290001Y-72880001D02*
X179070000Y-73660000D01*
X177962999Y-72552999D02*
X178290001Y-72880001D01*
X164937001Y-72552999D02*
X177962999Y-72552999D01*
X163830000Y-73660000D02*
X164937001Y-72552999D01*
X214102000Y-114046000D02*
X196988200Y-96932200D01*
X129540000Y-81280000D02*
X129540000Y-77470000D01*
X129540000Y-77470000D02*
X129540000Y-73660000D01*
X118745000Y-73660000D02*
X118745000Y-77470000D01*
X118745000Y-77470000D02*
X118745000Y-81179999D01*
X98149000Y-93726000D02*
X98068000Y-93807000D01*
X155430001Y-99839999D02*
X156210000Y-99060000D01*
X139982599Y-115287401D02*
X155430001Y-99839999D01*
X90261316Y-115287401D02*
X139982599Y-115287401D01*
X87322315Y-112348400D02*
X90261316Y-115287401D01*
X86256000Y-112348400D02*
X87322315Y-112348400D01*
X138015598Y-119794402D02*
X157970001Y-99839999D01*
X87009998Y-119794402D02*
X138015598Y-119794402D01*
X157970001Y-99839999D02*
X158750000Y-99060000D01*
X86256000Y-120548400D02*
X87009998Y-119794402D01*
X153670000Y-97956914D02*
X153670000Y-99060000D01*
X153670000Y-96122038D02*
X153670000Y-97956914D01*
X129626951Y-72078989D02*
X153670000Y-96122038D01*
X111038049Y-72078989D02*
X129626951Y-72078989D01*
X103087039Y-80029999D02*
X111038049Y-72078989D01*
X88704001Y-80029999D02*
X103087039Y-80029999D01*
X86281400Y-82452600D02*
X88704001Y-80029999D01*
X145317001Y-102967999D02*
X145415000Y-102870000D01*
X91328199Y-102967999D02*
X145317001Y-102967999D01*
X86281400Y-97921200D02*
X91328199Y-102967999D01*
X142730001Y-98280001D02*
X143510000Y-99060000D01*
X142402999Y-97952999D02*
X142730001Y-98280001D01*
X114700037Y-97952999D02*
X142402999Y-97952999D01*
X109477037Y-92729999D02*
X114700037Y-97952999D01*
X97937037Y-92729999D02*
X109477037Y-92729999D01*
X97474038Y-92267000D02*
X97937037Y-92729999D01*
X75193515Y-92267000D02*
X97474038Y-92267000D01*
X74112515Y-91186000D02*
X75193515Y-92267000D01*
X73046200Y-91186000D02*
X74112515Y-91186000D01*
X147810001Y-98280001D02*
X148590000Y-99060000D01*
X132099999Y-82569999D02*
X147810001Y-98280001D01*
X97135001Y-82569999D02*
X132099999Y-82569999D01*
X88519000Y-91186000D02*
X97135001Y-82569999D01*
X152890001Y-72880001D02*
X153670000Y-73660000D01*
X149860000Y-69850000D02*
X152890001Y-72880001D01*
X86282317Y-69850000D02*
X149860000Y-69850000D01*
X64135000Y-91997317D02*
X86282317Y-69850000D01*
X64135000Y-101005000D02*
X64135000Y-91997317D01*
X191482993Y-99876079D02*
X193586079Y-99876079D01*
X166370000Y-74763086D02*
X191482993Y-99876079D01*
X166370000Y-73660000D02*
X166370000Y-74763086D01*
X193586079Y-99876079D02*
X206502000Y-112792000D01*
X206502000Y-112792000D02*
X206502000Y-114046000D01*
G36*
X206224073Y-69875060D02*
G01*
X208263168Y-69949830D01*
X210277626Y-70172228D01*
X212270385Y-70541564D01*
X214230761Y-71055859D01*
X216148189Y-71712341D01*
X218012394Y-72507492D01*
X219813362Y-73437041D01*
X221541410Y-74495991D01*
X223187256Y-75678651D01*
X224742083Y-76978689D01*
X226197508Y-78389093D01*
X227545732Y-79902308D01*
X228779510Y-81510199D01*
X229892214Y-83204129D01*
X230877871Y-84975007D01*
X231731188Y-86813319D01*
X232447574Y-88709181D01*
X233023190Y-90652426D01*
X233454938Y-92632601D01*
X233740504Y-94639092D01*
X233878350Y-96661105D01*
X233867739Y-98687783D01*
X233708726Y-100708226D01*
X233402164Y-102711622D01*
X232949703Y-104687170D01*
X232353772Y-106624274D01*
X231617571Y-108512530D01*
X230745052Y-110341808D01*
X229740897Y-112102278D01*
X228610520Y-113784456D01*
X227359964Y-115379348D01*
X225995971Y-116878356D01*
X224525855Y-118273444D01*
X222957514Y-119557116D01*
X221299365Y-120722483D01*
X219560322Y-121763279D01*
X217749732Y-122673911D01*
X215877289Y-123449502D01*
X213953093Y-124085870D01*
X211987438Y-124579608D01*
X209990929Y-124928055D01*
X207972509Y-125129520D01*
X206227438Y-125184361D01*
X194680242Y-125184300D01*
X192376288Y-125184300D01*
X192816141Y-125002107D01*
X193247715Y-124713738D01*
X193614738Y-124346715D01*
X193903107Y-123915141D01*
X194101739Y-123435601D01*
X194203000Y-122926525D01*
X194203000Y-122407475D01*
X194101739Y-121898399D01*
X193903107Y-121418859D01*
X193614738Y-120987285D01*
X193247715Y-120620262D01*
X192816141Y-120331893D01*
X192336601Y-120133261D01*
X191827525Y-120032000D01*
X191308475Y-120032000D01*
X190799399Y-120133261D01*
X190319859Y-120331893D01*
X189888285Y-120620262D01*
X189521262Y-120987285D01*
X189232893Y-121418859D01*
X189034261Y-121898399D01*
X188933000Y-122407475D01*
X188933000Y-122926525D01*
X189034261Y-123435601D01*
X189232893Y-123915141D01*
X189521262Y-124346715D01*
X189888285Y-124713738D01*
X190319859Y-125002107D01*
X190759712Y-125184300D01*
X99616509Y-125184300D01*
X100036601Y-125100739D01*
X100516141Y-124902107D01*
X100947715Y-124613738D01*
X101314738Y-124246715D01*
X101603107Y-123815141D01*
X101801739Y-123335601D01*
X101903000Y-122826525D01*
X101903000Y-122307475D01*
X101801739Y-121798399D01*
X101603107Y-121318859D01*
X101314738Y-120887285D01*
X100983855Y-120556402D01*
X107567048Y-120556402D01*
X107359793Y-120866581D01*
X107212361Y-121222514D01*
X107137200Y-121600371D01*
X107137200Y-121985629D01*
X107212361Y-122363486D01*
X107359793Y-122719419D01*
X107573831Y-123039750D01*
X107846250Y-123312169D01*
X108166581Y-123526207D01*
X108522514Y-123673639D01*
X108900371Y-123748800D01*
X109285629Y-123748800D01*
X109663486Y-123673639D01*
X110019419Y-123526207D01*
X110339750Y-123312169D01*
X110612169Y-123039750D01*
X110826207Y-122719419D01*
X110973639Y-122363486D01*
X111048800Y-121985629D01*
X111048800Y-121600371D01*
X111037355Y-121542832D01*
X170180000Y-121542832D01*
X170180000Y-122043168D01*
X170277611Y-122533891D01*
X170469081Y-122996141D01*
X170747053Y-123412156D01*
X171100844Y-123765947D01*
X171516859Y-124043919D01*
X171979109Y-124235389D01*
X172469832Y-124333000D01*
X172970168Y-124333000D01*
X173460891Y-124235389D01*
X173923141Y-124043919D01*
X174339156Y-123765947D01*
X174692947Y-123412156D01*
X174970919Y-122996141D01*
X175162389Y-122533891D01*
X175260000Y-122043168D01*
X175260000Y-121542832D01*
X175162389Y-121052109D01*
X174970919Y-120589859D01*
X174692947Y-120173844D01*
X174339156Y-119820053D01*
X173923141Y-119542081D01*
X173460891Y-119350611D01*
X172970168Y-119253000D01*
X172469832Y-119253000D01*
X171979109Y-119350611D01*
X171516859Y-119542081D01*
X171100844Y-119820053D01*
X170747053Y-120173844D01*
X170469081Y-120589859D01*
X170277611Y-121052109D01*
X170180000Y-121542832D01*
X111037355Y-121542832D01*
X110973639Y-121222514D01*
X110826207Y-120866581D01*
X110618952Y-120556402D01*
X137978175Y-120556402D01*
X138015598Y-120560088D01*
X138053021Y-120556402D01*
X138053024Y-120556402D01*
X138164976Y-120545376D01*
X138308613Y-120501804D01*
X138440990Y-120431047D01*
X138557020Y-120335824D01*
X138580882Y-120306748D01*
X145133741Y-113753889D01*
X179679600Y-113753889D01*
X179679600Y-114084111D01*
X179744023Y-114407988D01*
X179870394Y-114713073D01*
X180053855Y-114987642D01*
X180287358Y-115221145D01*
X180561927Y-115404606D01*
X180867012Y-115530977D01*
X181190889Y-115595400D01*
X181521111Y-115595400D01*
X181844988Y-115530977D01*
X182150073Y-115404606D01*
X182424642Y-115221145D01*
X182658145Y-114987642D01*
X182841606Y-114713073D01*
X182967977Y-114407988D01*
X183032400Y-114084111D01*
X183032400Y-113753889D01*
X182967977Y-113430012D01*
X182841606Y-113124927D01*
X182658145Y-112850358D01*
X182424642Y-112616855D01*
X182150073Y-112433394D01*
X181844988Y-112307023D01*
X181521111Y-112242600D01*
X181190889Y-112242600D01*
X180867012Y-112307023D01*
X180561927Y-112433394D01*
X180287358Y-112616855D01*
X180053855Y-112850358D01*
X179870394Y-113124927D01*
X179744023Y-113430012D01*
X179679600Y-113753889D01*
X145133741Y-113753889D01*
X158445482Y-100442149D01*
X158610635Y-100475000D01*
X158889365Y-100475000D01*
X159162740Y-100420623D01*
X159420254Y-100313957D01*
X159652010Y-100159103D01*
X159849103Y-99962010D01*
X160003957Y-99730254D01*
X160020000Y-99691523D01*
X160036043Y-99730254D01*
X160190897Y-99962010D01*
X160387990Y-100159103D01*
X160619746Y-100313957D01*
X160877260Y-100420623D01*
X161150635Y-100475000D01*
X161429365Y-100475000D01*
X161702740Y-100420623D01*
X161960254Y-100313957D01*
X162192010Y-100159103D01*
X162389103Y-99962010D01*
X162543957Y-99730254D01*
X162560000Y-99691523D01*
X162576043Y-99730254D01*
X162730897Y-99962010D01*
X162927990Y-100159103D01*
X163159746Y-100313957D01*
X163417260Y-100420623D01*
X163690635Y-100475000D01*
X163969365Y-100475000D01*
X164242740Y-100420623D01*
X164500254Y-100313957D01*
X164732010Y-100159103D01*
X164929103Y-99962010D01*
X165083957Y-99730254D01*
X165100000Y-99691523D01*
X165116043Y-99730254D01*
X165270897Y-99962010D01*
X165467990Y-100159103D01*
X165699746Y-100313957D01*
X165957260Y-100420623D01*
X166230635Y-100475000D01*
X166509365Y-100475000D01*
X166782740Y-100420623D01*
X167040254Y-100313957D01*
X167272010Y-100159103D01*
X167469103Y-99962010D01*
X167623957Y-99730254D01*
X167640000Y-99691523D01*
X167656043Y-99730254D01*
X167810897Y-99962010D01*
X168007990Y-100159103D01*
X168239746Y-100313957D01*
X168497260Y-100420623D01*
X168770635Y-100475000D01*
X169049365Y-100475000D01*
X169322740Y-100420623D01*
X169580254Y-100313957D01*
X169812010Y-100159103D01*
X170009103Y-99962010D01*
X170163957Y-99730254D01*
X170180000Y-99691523D01*
X170196043Y-99730254D01*
X170350897Y-99962010D01*
X170547990Y-100159103D01*
X170779746Y-100313957D01*
X171037260Y-100420623D01*
X171310635Y-100475000D01*
X171589365Y-100475000D01*
X171862740Y-100420623D01*
X172120254Y-100313957D01*
X172352010Y-100159103D01*
X172549103Y-99962010D01*
X172703957Y-99730254D01*
X172720000Y-99691523D01*
X172736043Y-99730254D01*
X172890897Y-99962010D01*
X173087990Y-100159103D01*
X173319746Y-100313957D01*
X173577260Y-100420623D01*
X173850635Y-100475000D01*
X174129365Y-100475000D01*
X174402740Y-100420623D01*
X174660254Y-100313957D01*
X174892010Y-100159103D01*
X175089103Y-99962010D01*
X175243957Y-99730254D01*
X175260000Y-99691523D01*
X175276043Y-99730254D01*
X175430897Y-99962010D01*
X175627990Y-100159103D01*
X175859746Y-100313957D01*
X176117260Y-100420623D01*
X176390635Y-100475000D01*
X176669365Y-100475000D01*
X176942740Y-100420623D01*
X177200254Y-100313957D01*
X177432010Y-100159103D01*
X177629103Y-99962010D01*
X177659469Y-99916564D01*
X177664188Y-99964482D01*
X177700498Y-100084180D01*
X177759463Y-100194494D01*
X177838815Y-100291185D01*
X177935506Y-100370537D01*
X178045820Y-100429502D01*
X178165518Y-100465812D01*
X178290000Y-100478072D01*
X179850000Y-100478072D01*
X179974482Y-100465812D01*
X180094180Y-100429502D01*
X180204494Y-100370537D01*
X180301185Y-100291185D01*
X180380537Y-100194494D01*
X180439502Y-100084180D01*
X180475812Y-99964482D01*
X180488072Y-99840000D01*
X180488072Y-98280000D01*
X180475812Y-98155518D01*
X180439502Y-98035820D01*
X180380537Y-97925506D01*
X180301185Y-97828815D01*
X180204494Y-97749463D01*
X180094180Y-97690498D01*
X179974482Y-97654188D01*
X179850000Y-97641928D01*
X178290000Y-97641928D01*
X178165518Y-97654188D01*
X178045820Y-97690498D01*
X177935506Y-97749463D01*
X177838815Y-97828815D01*
X177759463Y-97925506D01*
X177700498Y-98035820D01*
X177664188Y-98155518D01*
X177659469Y-98203436D01*
X177629103Y-98157990D01*
X177432010Y-97960897D01*
X177200254Y-97806043D01*
X176942740Y-97699377D01*
X176669365Y-97645000D01*
X176390635Y-97645000D01*
X176117260Y-97699377D01*
X175859746Y-97806043D01*
X175627990Y-97960897D01*
X175430897Y-98157990D01*
X175276043Y-98389746D01*
X175260000Y-98428477D01*
X175243957Y-98389746D01*
X175089103Y-98157990D01*
X174892010Y-97960897D01*
X174660254Y-97806043D01*
X174402740Y-97699377D01*
X174129365Y-97645000D01*
X173850635Y-97645000D01*
X173577260Y-97699377D01*
X173319746Y-97806043D01*
X173087990Y-97960897D01*
X172890897Y-98157990D01*
X172736043Y-98389746D01*
X172720000Y-98428477D01*
X172703957Y-98389746D01*
X172549103Y-98157990D01*
X172352010Y-97960897D01*
X172120254Y-97806043D01*
X171862740Y-97699377D01*
X171589365Y-97645000D01*
X171310635Y-97645000D01*
X171037260Y-97699377D01*
X170779746Y-97806043D01*
X170547990Y-97960897D01*
X170350897Y-98157990D01*
X170196043Y-98389746D01*
X170180000Y-98428477D01*
X170163957Y-98389746D01*
X170009103Y-98157990D01*
X169812010Y-97960897D01*
X169580254Y-97806043D01*
X169322740Y-97699377D01*
X169049365Y-97645000D01*
X168770635Y-97645000D01*
X168497260Y-97699377D01*
X168239746Y-97806043D01*
X168007990Y-97960897D01*
X167810897Y-98157990D01*
X167656043Y-98389746D01*
X167640000Y-98428477D01*
X167623957Y-98389746D01*
X167469103Y-98157990D01*
X167272010Y-97960897D01*
X167040254Y-97806043D01*
X166782740Y-97699377D01*
X166509365Y-97645000D01*
X166230635Y-97645000D01*
X165957260Y-97699377D01*
X165699746Y-97806043D01*
X165467990Y-97960897D01*
X165270897Y-98157990D01*
X165116043Y-98389746D01*
X165100000Y-98428477D01*
X165083957Y-98389746D01*
X164929103Y-98157990D01*
X164732010Y-97960897D01*
X164500254Y-97806043D01*
X164242740Y-97699377D01*
X163969365Y-97645000D01*
X163690635Y-97645000D01*
X163417260Y-97699377D01*
X163159746Y-97806043D01*
X162927990Y-97960897D01*
X162730897Y-98157990D01*
X162576043Y-98389746D01*
X162560000Y-98428477D01*
X162543957Y-98389746D01*
X162389103Y-98157990D01*
X162192010Y-97960897D01*
X161960254Y-97806043D01*
X161702740Y-97699377D01*
X161429365Y-97645000D01*
X161150635Y-97645000D01*
X160877260Y-97699377D01*
X160619746Y-97806043D01*
X160387990Y-97960897D01*
X160190897Y-98157990D01*
X160036043Y-98389746D01*
X160020000Y-98428477D01*
X160003957Y-98389746D01*
X159849103Y-98157990D01*
X159652010Y-97960897D01*
X159420254Y-97806043D01*
X159162740Y-97699377D01*
X158889365Y-97645000D01*
X158610635Y-97645000D01*
X158337260Y-97699377D01*
X158079746Y-97806043D01*
X157847990Y-97960897D01*
X157650897Y-98157990D01*
X157496043Y-98389746D01*
X157480000Y-98428477D01*
X157463957Y-98389746D01*
X157309103Y-98157990D01*
X157112010Y-97960897D01*
X156880254Y-97806043D01*
X156622740Y-97699377D01*
X156349365Y-97645000D01*
X156070635Y-97645000D01*
X155797260Y-97699377D01*
X155539746Y-97806043D01*
X155307990Y-97960897D01*
X155110897Y-98157990D01*
X154956043Y-98389746D01*
X154940000Y-98428477D01*
X154923957Y-98389746D01*
X154769103Y-98157990D01*
X154572010Y-97960897D01*
X154432000Y-97867346D01*
X154432000Y-96159461D01*
X154435686Y-96122038D01*
X154432000Y-96084612D01*
X154420974Y-95972660D01*
X154377402Y-95829023D01*
X154327478Y-95735621D01*
X154306645Y-95696645D01*
X154235279Y-95609686D01*
X154211422Y-95580616D01*
X154182353Y-95556760D01*
X133665548Y-75039956D01*
X133762740Y-75020623D01*
X134020254Y-74913957D01*
X134252010Y-74759103D01*
X134449103Y-74562010D01*
X134603957Y-74330254D01*
X134620000Y-74291523D01*
X134636043Y-74330254D01*
X134790897Y-74562010D01*
X134987990Y-74759103D01*
X135219746Y-74913957D01*
X135477260Y-75020623D01*
X135750635Y-75075000D01*
X136029365Y-75075000D01*
X136302740Y-75020623D01*
X136560254Y-74913957D01*
X136792010Y-74759103D01*
X136989103Y-74562010D01*
X137143957Y-74330254D01*
X137160000Y-74291523D01*
X137176043Y-74330254D01*
X137330897Y-74562010D01*
X137527990Y-74759103D01*
X137759746Y-74913957D01*
X138017260Y-75020623D01*
X138290635Y-75075000D01*
X138569365Y-75075000D01*
X138842740Y-75020623D01*
X139100254Y-74913957D01*
X139332010Y-74759103D01*
X139529103Y-74562010D01*
X139683957Y-74330254D01*
X139700000Y-74291523D01*
X139716043Y-74330254D01*
X139870897Y-74562010D01*
X140067990Y-74759103D01*
X140299746Y-74913957D01*
X140557260Y-75020623D01*
X140830635Y-75075000D01*
X141109365Y-75075000D01*
X141382740Y-75020623D01*
X141640254Y-74913957D01*
X141872010Y-74759103D01*
X142069103Y-74562010D01*
X142223957Y-74330254D01*
X142240000Y-74291523D01*
X142256043Y-74330254D01*
X142410897Y-74562010D01*
X142607990Y-74759103D01*
X142839746Y-74913957D01*
X143097260Y-75020623D01*
X143370635Y-75075000D01*
X143649365Y-75075000D01*
X143922740Y-75020623D01*
X144180254Y-74913957D01*
X144412010Y-74759103D01*
X144609103Y-74562010D01*
X144763957Y-74330254D01*
X144780000Y-74291523D01*
X144796043Y-74330254D01*
X144950897Y-74562010D01*
X145147990Y-74759103D01*
X145379746Y-74913957D01*
X145637260Y-75020623D01*
X145910635Y-75075000D01*
X146189365Y-75075000D01*
X146462740Y-75020623D01*
X146720254Y-74913957D01*
X146952010Y-74759103D01*
X147149103Y-74562010D01*
X147303957Y-74330254D01*
X147320000Y-74291523D01*
X147336043Y-74330254D01*
X147490897Y-74562010D01*
X147687990Y-74759103D01*
X147919746Y-74913957D01*
X148177260Y-75020623D01*
X148450635Y-75075000D01*
X148729365Y-75075000D01*
X149002740Y-75020623D01*
X149260254Y-74913957D01*
X149492010Y-74759103D01*
X149689103Y-74562010D01*
X149843957Y-74330254D01*
X149860000Y-74291523D01*
X149876043Y-74330254D01*
X150030897Y-74562010D01*
X150227990Y-74759103D01*
X150459746Y-74913957D01*
X150717260Y-75020623D01*
X150990635Y-75075000D01*
X151269365Y-75075000D01*
X151542740Y-75020623D01*
X151800254Y-74913957D01*
X152032010Y-74759103D01*
X152229103Y-74562010D01*
X152383957Y-74330254D01*
X152400000Y-74291523D01*
X152416043Y-74330254D01*
X152570897Y-74562010D01*
X152767990Y-74759103D01*
X152999746Y-74913957D01*
X153257260Y-75020623D01*
X153530635Y-75075000D01*
X153809365Y-75075000D01*
X154082740Y-75020623D01*
X154340254Y-74913957D01*
X154572010Y-74759103D01*
X154769103Y-74562010D01*
X154923957Y-74330254D01*
X154940000Y-74291523D01*
X154956043Y-74330254D01*
X155110897Y-74562010D01*
X155307990Y-74759103D01*
X155539746Y-74913957D01*
X155797260Y-75020623D01*
X156070635Y-75075000D01*
X156349365Y-75075000D01*
X156622740Y-75020623D01*
X156880254Y-74913957D01*
X157112010Y-74759103D01*
X157309103Y-74562010D01*
X157463957Y-74330254D01*
X157480000Y-74291523D01*
X157496043Y-74330254D01*
X157650897Y-74562010D01*
X157847990Y-74759103D01*
X158079746Y-74913957D01*
X158337260Y-75020623D01*
X158610635Y-75075000D01*
X158889365Y-75075000D01*
X159162740Y-75020623D01*
X159420254Y-74913957D01*
X159652010Y-74759103D01*
X159849103Y-74562010D01*
X160003957Y-74330254D01*
X160020000Y-74291523D01*
X160036043Y-74330254D01*
X160190897Y-74562010D01*
X160387990Y-74759103D01*
X160619746Y-74913957D01*
X160877260Y-75020623D01*
X161150635Y-75075000D01*
X161429365Y-75075000D01*
X161702740Y-75020623D01*
X161960254Y-74913957D01*
X162192010Y-74759103D01*
X162312692Y-74638421D01*
X163031184Y-74638421D01*
X163100345Y-74880349D01*
X163352443Y-74999248D01*
X163622894Y-75066681D01*
X163901303Y-75080057D01*
X164176972Y-75038860D01*
X164439308Y-74944675D01*
X164559655Y-74880349D01*
X164628816Y-74638421D01*
X163830000Y-73839605D01*
X163031184Y-74638421D01*
X162312692Y-74638421D01*
X162389103Y-74562010D01*
X162543957Y-74330254D01*
X162558777Y-74294475D01*
X162609651Y-74389655D01*
X162851579Y-74458816D01*
X163650395Y-73660000D01*
X164009605Y-73660000D01*
X164808421Y-74458816D01*
X165050349Y-74389655D01*
X165098425Y-74287721D01*
X165116043Y-74330254D01*
X165270897Y-74562010D01*
X165467990Y-74759103D01*
X165613498Y-74856328D01*
X165619027Y-74912464D01*
X165662599Y-75056101D01*
X165733355Y-75188478D01*
X165789289Y-75256633D01*
X165828579Y-75304508D01*
X165857649Y-75328365D01*
X190841826Y-100312543D01*
X190743845Y-100549091D01*
X190690620Y-100816669D01*
X190690620Y-101089491D01*
X190743845Y-101357069D01*
X190848249Y-101609123D01*
X190999821Y-101835966D01*
X191192734Y-102028879D01*
X191419577Y-102180451D01*
X191671631Y-102284855D01*
X191939209Y-102338080D01*
X192212031Y-102338080D01*
X192479609Y-102284855D01*
X192731663Y-102180451D01*
X192958506Y-102028879D01*
X193151419Y-101835966D01*
X193302991Y-101609123D01*
X193407395Y-101357069D01*
X193460620Y-101089491D01*
X193460620Y-100828250D01*
X205147719Y-112515349D01*
X205147506Y-112515463D01*
X205050815Y-112594815D01*
X204971463Y-112691506D01*
X204912498Y-112801820D01*
X204876188Y-112921518D01*
X204863928Y-113046000D01*
X204863928Y-115046000D01*
X204876188Y-115170482D01*
X204912498Y-115290180D01*
X204971463Y-115400494D01*
X205050815Y-115497185D01*
X205147506Y-115576537D01*
X205257820Y-115635502D01*
X205377518Y-115671812D01*
X205502000Y-115684072D01*
X207502000Y-115684072D01*
X207626482Y-115671812D01*
X207746180Y-115635502D01*
X207856494Y-115576537D01*
X207953185Y-115497185D01*
X208032537Y-115400494D01*
X208091502Y-115290180D01*
X208124496Y-115181413D01*
X213146192Y-115181413D01*
X213241956Y-115445814D01*
X213531571Y-115586704D01*
X213843108Y-115668384D01*
X214164595Y-115687718D01*
X214483675Y-115643961D01*
X214788088Y-115538795D01*
X214962044Y-115445814D01*
X215057808Y-115181413D01*
X214102000Y-114225605D01*
X213146192Y-115181413D01*
X208124496Y-115181413D01*
X208127812Y-115170482D01*
X208140072Y-115046000D01*
X208140072Y-114108595D01*
X212460282Y-114108595D01*
X212504039Y-114427675D01*
X212609205Y-114732088D01*
X212702186Y-114906044D01*
X212966587Y-115001808D01*
X213922395Y-114046000D01*
X214281605Y-114046000D01*
X215237413Y-115001808D01*
X215501814Y-114906044D01*
X215642704Y-114616429D01*
X215724384Y-114304892D01*
X215743718Y-113983405D01*
X215699961Y-113664325D01*
X215594795Y-113359912D01*
X215501814Y-113185956D01*
X215237413Y-113090192D01*
X214281605Y-114046000D01*
X213922395Y-114046000D01*
X212966587Y-113090192D01*
X212702186Y-113185956D01*
X212561296Y-113475571D01*
X212479616Y-113787108D01*
X212460282Y-114108595D01*
X208140072Y-114108595D01*
X208140072Y-113046000D01*
X208127812Y-112921518D01*
X208124497Y-112910587D01*
X213146192Y-112910587D01*
X214102000Y-113866395D01*
X215057808Y-112910587D01*
X214962044Y-112646186D01*
X214672429Y-112505296D01*
X214360892Y-112423616D01*
X214039405Y-112404282D01*
X213720325Y-112448039D01*
X213415912Y-112553205D01*
X213241956Y-112646186D01*
X213146192Y-112910587D01*
X208124497Y-112910587D01*
X208091502Y-112801820D01*
X208032537Y-112691506D01*
X207953185Y-112594815D01*
X207856494Y-112515463D01*
X207746180Y-112456498D01*
X207626482Y-112420188D01*
X207502000Y-112407928D01*
X207160731Y-112407928D01*
X207138645Y-112366607D01*
X207089745Y-112307023D01*
X207043422Y-112250578D01*
X207014347Y-112226717D01*
X198131196Y-103343566D01*
X219960939Y-103343566D01*
X219960939Y-103666434D01*
X220023927Y-103983097D01*
X220147483Y-104281387D01*
X220326858Y-104549841D01*
X220555160Y-104778143D01*
X220823614Y-104957518D01*
X221121904Y-105081074D01*
X221438567Y-105144062D01*
X221761435Y-105144062D01*
X222078098Y-105081074D01*
X222376388Y-104957518D01*
X222644842Y-104778143D01*
X222873144Y-104549841D01*
X223052519Y-104281387D01*
X223176075Y-103983097D01*
X223239063Y-103666434D01*
X223239063Y-103343566D01*
X223176075Y-103026903D01*
X223052519Y-102728613D01*
X222873144Y-102460159D01*
X222806984Y-102393999D01*
X222986804Y-102393999D01*
X223255156Y-102340621D01*
X223507938Y-102235915D01*
X223735435Y-102083906D01*
X223928906Y-101890435D01*
X224080915Y-101662938D01*
X224185621Y-101410156D01*
X224238999Y-101141804D01*
X224238999Y-100868196D01*
X224185621Y-100599844D01*
X224080915Y-100347062D01*
X223928906Y-100119565D01*
X223735435Y-99926094D01*
X223507938Y-99774085D01*
X223255156Y-99669379D01*
X222986804Y-99616001D01*
X222713196Y-99616001D01*
X222444844Y-99669379D01*
X222192062Y-99774085D01*
X221964565Y-99926094D01*
X221771094Y-100119565D01*
X221619085Y-100347062D01*
X221514379Y-100599844D01*
X221461001Y-100868196D01*
X221461001Y-101141804D01*
X221514379Y-101410156D01*
X221619085Y-101662938D01*
X221754726Y-101865938D01*
X221438567Y-101865938D01*
X221121904Y-101928926D01*
X220823614Y-102052482D01*
X220555160Y-102231857D01*
X220326858Y-102460159D01*
X220147483Y-102728613D01*
X220023927Y-103026903D01*
X219960939Y-103343566D01*
X198131196Y-103343566D01*
X194151363Y-99363733D01*
X194127501Y-99334657D01*
X194011471Y-99239434D01*
X193997932Y-99232197D01*
X205369401Y-99232197D01*
X205369401Y-99505805D01*
X205422779Y-99774157D01*
X205527485Y-100026939D01*
X205679494Y-100254436D01*
X205872965Y-100447907D01*
X206100462Y-100599916D01*
X206353244Y-100704622D01*
X206621596Y-100758000D01*
X206895204Y-100758000D01*
X207163556Y-100704622D01*
X207416338Y-100599916D01*
X207643835Y-100447907D01*
X207837306Y-100254436D01*
X207989315Y-100026939D01*
X208094021Y-99774157D01*
X208147399Y-99505805D01*
X208147399Y-99232197D01*
X211869403Y-99232197D01*
X211869403Y-99505805D01*
X211922781Y-99774157D01*
X212027487Y-100026939D01*
X212179496Y-100254436D01*
X212372967Y-100447907D01*
X212600464Y-100599916D01*
X212853246Y-100704622D01*
X213121598Y-100758000D01*
X213395206Y-100758000D01*
X213663558Y-100704622D01*
X213916340Y-100599916D01*
X214143837Y-100447907D01*
X214337308Y-100254436D01*
X214489317Y-100026939D01*
X214594023Y-99774157D01*
X214647401Y-99505805D01*
X214647401Y-99232197D01*
X214594023Y-98963845D01*
X214489317Y-98711063D01*
X214337308Y-98483566D01*
X214143837Y-98290095D01*
X213916340Y-98138086D01*
X213663558Y-98033380D01*
X213395206Y-97980002D01*
X213121598Y-97980002D01*
X212853246Y-98033380D01*
X212600464Y-98138086D01*
X212372967Y-98290095D01*
X212179496Y-98483566D01*
X212027487Y-98711063D01*
X211922781Y-98963845D01*
X211869403Y-99232197D01*
X208147399Y-99232197D01*
X208094021Y-98963845D01*
X207989315Y-98711063D01*
X207837306Y-98483566D01*
X207643835Y-98290095D01*
X207416338Y-98138086D01*
X207163556Y-98033380D01*
X206895204Y-97980002D01*
X206621596Y-97980002D01*
X206353244Y-98033380D01*
X206100462Y-98138086D01*
X205872965Y-98290095D01*
X205679494Y-98483566D01*
X205527485Y-98711063D01*
X205422779Y-98963845D01*
X205369401Y-99232197D01*
X193997932Y-99232197D01*
X193879094Y-99168677D01*
X193735457Y-99125105D01*
X193623505Y-99114079D01*
X193623502Y-99114079D01*
X193586079Y-99110393D01*
X193548656Y-99114079D01*
X193272952Y-99114079D01*
X193302991Y-99069123D01*
X193407395Y-98817069D01*
X193460620Y-98549491D01*
X193460620Y-98276669D01*
X193407395Y-98009091D01*
X193302991Y-97757037D01*
X193151419Y-97530194D01*
X192958506Y-97337281D01*
X192731663Y-97185709D01*
X192628747Y-97143080D01*
X192731663Y-97100451D01*
X192958506Y-96948879D01*
X193151419Y-96755966D01*
X193302991Y-96529123D01*
X193407395Y-96277069D01*
X193460620Y-96009491D01*
X193460620Y-95736669D01*
X193407395Y-95469091D01*
X193302991Y-95217037D01*
X193151419Y-94990194D01*
X192958506Y-94797281D01*
X192861101Y-94732196D01*
X205369401Y-94732196D01*
X205369401Y-95005804D01*
X205422779Y-95274156D01*
X205527485Y-95526938D01*
X205679494Y-95754435D01*
X205872965Y-95947906D01*
X206100462Y-96099915D01*
X206353244Y-96204621D01*
X206621596Y-96257999D01*
X206895204Y-96257999D01*
X207163556Y-96204621D01*
X207416338Y-96099915D01*
X207643835Y-95947906D01*
X207837306Y-95754435D01*
X207989315Y-95526938D01*
X208094021Y-95274156D01*
X208147399Y-95005804D01*
X208147399Y-94732196D01*
X208094021Y-94463844D01*
X207989315Y-94211062D01*
X207837306Y-93983565D01*
X207643835Y-93790094D01*
X207416338Y-93638085D01*
X207163556Y-93533379D01*
X206895204Y-93480001D01*
X206621596Y-93480001D01*
X206353244Y-93533379D01*
X206100462Y-93638085D01*
X205872965Y-93790094D01*
X205679494Y-93983565D01*
X205527485Y-94211062D01*
X205422779Y-94463844D01*
X205369401Y-94732196D01*
X192861101Y-94732196D01*
X192842137Y-94719525D01*
X192950102Y-94708892D01*
X193069800Y-94672582D01*
X193180114Y-94613617D01*
X193276805Y-94534265D01*
X193356157Y-94437574D01*
X193415122Y-94327260D01*
X193451432Y-94207562D01*
X193463692Y-94083080D01*
X193463692Y-92583080D01*
X193451432Y-92458598D01*
X193415122Y-92338900D01*
X193356157Y-92228586D01*
X193276805Y-92131895D01*
X193180114Y-92052543D01*
X193069800Y-91993578D01*
X192950102Y-91957268D01*
X192825620Y-91945008D01*
X191325620Y-91945008D01*
X191201138Y-91957268D01*
X191081440Y-91993578D01*
X190971126Y-92052543D01*
X190874435Y-92131895D01*
X190795083Y-92228586D01*
X190736118Y-92338900D01*
X190699808Y-92458598D01*
X190687548Y-92583080D01*
X190687548Y-94083080D01*
X190699808Y-94207562D01*
X190736118Y-94327260D01*
X190795083Y-94437574D01*
X190874435Y-94534265D01*
X190971126Y-94613617D01*
X191081440Y-94672582D01*
X191201138Y-94708892D01*
X191309103Y-94719525D01*
X191192734Y-94797281D01*
X190999821Y-94990194D01*
X190848249Y-95217037D01*
X190743845Y-95469091D01*
X190690620Y-95736669D01*
X190690620Y-96009491D01*
X190743845Y-96277069D01*
X190848249Y-96529123D01*
X190999821Y-96755966D01*
X191192734Y-96948879D01*
X191419577Y-97100451D01*
X191522493Y-97143080D01*
X191419577Y-97185709D01*
X191192734Y-97337281D01*
X190999821Y-97530194D01*
X190848249Y-97757037D01*
X190743845Y-98009091D01*
X190735515Y-98050970D01*
X183276541Y-90591996D01*
X196680201Y-90591996D01*
X196680201Y-90865604D01*
X196733579Y-91133956D01*
X196838285Y-91386738D01*
X196990294Y-91614235D01*
X197183765Y-91807706D01*
X197411262Y-91959715D01*
X197664044Y-92064421D01*
X197932396Y-92117799D01*
X198206004Y-92117799D01*
X198474356Y-92064421D01*
X198727138Y-91959715D01*
X198954635Y-91807706D01*
X199148106Y-91614235D01*
X199300115Y-91386738D01*
X199404821Y-91133956D01*
X199458199Y-90865604D01*
X199458199Y-90591996D01*
X201180202Y-90591996D01*
X201180202Y-90865604D01*
X201233580Y-91133956D01*
X201338286Y-91386738D01*
X201490295Y-91614235D01*
X201683766Y-91807706D01*
X201911263Y-91959715D01*
X202164045Y-92064421D01*
X202432397Y-92117799D01*
X202706005Y-92117799D01*
X202974357Y-92064421D01*
X203227139Y-91959715D01*
X203454636Y-91807706D01*
X203648107Y-91614235D01*
X203800116Y-91386738D01*
X203904822Y-91133956D01*
X203958200Y-90865604D01*
X203958200Y-90591996D01*
X203904822Y-90323644D01*
X203800116Y-90070862D01*
X203648107Y-89843365D01*
X203454636Y-89649894D01*
X203227139Y-89497885D01*
X202974357Y-89393179D01*
X202706005Y-89339801D01*
X202432397Y-89339801D01*
X202164045Y-89393179D01*
X201911263Y-89497885D01*
X201683766Y-89649894D01*
X201490295Y-89843365D01*
X201338286Y-90070862D01*
X201233580Y-90323644D01*
X201180202Y-90591996D01*
X199458199Y-90591996D01*
X199404821Y-90323644D01*
X199300115Y-90070862D01*
X199148106Y-89843365D01*
X198954635Y-89649894D01*
X198727138Y-89497885D01*
X198474356Y-89393179D01*
X198206004Y-89339801D01*
X197932396Y-89339801D01*
X197664044Y-89393179D01*
X197411262Y-89497885D01*
X197183765Y-89649894D01*
X196990294Y-89843365D01*
X196838285Y-90070862D01*
X196733579Y-90323644D01*
X196680201Y-90591996D01*
X183276541Y-90591996D01*
X176776539Y-84091994D01*
X196680201Y-84091994D01*
X196680201Y-84365602D01*
X196733579Y-84633954D01*
X196838285Y-84886736D01*
X196990294Y-85114233D01*
X197183765Y-85307704D01*
X197411262Y-85459713D01*
X197664044Y-85564419D01*
X197932396Y-85617797D01*
X198206004Y-85617797D01*
X198474356Y-85564419D01*
X198727138Y-85459713D01*
X198954635Y-85307704D01*
X199148106Y-85114233D01*
X199230583Y-84990798D01*
X199472660Y-84990798D01*
X199510083Y-84994484D01*
X199547506Y-84990798D01*
X199547509Y-84990798D01*
X199659461Y-84979772D01*
X199803098Y-84936200D01*
X199935475Y-84865443D01*
X200051505Y-84770220D01*
X200075367Y-84741144D01*
X200724517Y-84091994D01*
X201180202Y-84091994D01*
X201180202Y-84365602D01*
X201233580Y-84633954D01*
X201338286Y-84886736D01*
X201490295Y-85114233D01*
X201683766Y-85307704D01*
X201911263Y-85459713D01*
X202164045Y-85564419D01*
X202432397Y-85617797D01*
X202706005Y-85617797D01*
X202974357Y-85564419D01*
X203227139Y-85459713D01*
X203454636Y-85307704D01*
X203648107Y-85114233D01*
X203800116Y-84886736D01*
X203904822Y-84633954D01*
X203958200Y-84365602D01*
X203958200Y-84091994D01*
X203904822Y-83823642D01*
X203800116Y-83570860D01*
X203648107Y-83343363D01*
X203454636Y-83149892D01*
X203227139Y-82997883D01*
X202974357Y-82893177D01*
X202706005Y-82839799D01*
X202432397Y-82839799D01*
X202164045Y-82893177D01*
X201911263Y-82997883D01*
X201683766Y-83149892D01*
X201490295Y-83343363D01*
X201338286Y-83570860D01*
X201233580Y-83823642D01*
X201180202Y-84091994D01*
X200724517Y-84091994D01*
X205478159Y-79338352D01*
X205420379Y-79477845D01*
X205367001Y-79746197D01*
X205367001Y-80019805D01*
X205420379Y-80288157D01*
X205525085Y-80540939D01*
X205677094Y-80768436D01*
X205870565Y-80961907D01*
X206098062Y-81113916D01*
X206350844Y-81218622D01*
X206619196Y-81272000D01*
X206892804Y-81272000D01*
X207161156Y-81218622D01*
X207413938Y-81113916D01*
X207641435Y-80961907D01*
X207834906Y-80768436D01*
X207986915Y-80540939D01*
X208091621Y-80288157D01*
X208144999Y-80019805D01*
X208144999Y-79746197D01*
X211867003Y-79746197D01*
X211867003Y-80019805D01*
X211920381Y-80288157D01*
X212025087Y-80540939D01*
X212177096Y-80768436D01*
X212370567Y-80961907D01*
X212598064Y-81113916D01*
X212850846Y-81218622D01*
X213119198Y-81272000D01*
X213392806Y-81272000D01*
X213661158Y-81218622D01*
X213913940Y-81113916D01*
X214141437Y-80961907D01*
X214334908Y-80768436D01*
X214486917Y-80540939D01*
X214591623Y-80288157D01*
X214645001Y-80019805D01*
X214645001Y-79746197D01*
X214591623Y-79477845D01*
X214486917Y-79225063D01*
X214334908Y-78997566D01*
X214141437Y-78804095D01*
X213913940Y-78652086D01*
X213661158Y-78547380D01*
X213392806Y-78494002D01*
X213119198Y-78494002D01*
X212850846Y-78547380D01*
X212598064Y-78652086D01*
X212370567Y-78804095D01*
X212177096Y-78997566D01*
X212025087Y-79225063D01*
X211920381Y-79477845D01*
X211867003Y-79746197D01*
X208144999Y-79746197D01*
X208091621Y-79477845D01*
X207986915Y-79225063D01*
X207834906Y-78997566D01*
X207641435Y-78804095D01*
X207413938Y-78652086D01*
X207161156Y-78547380D01*
X206892804Y-78494002D01*
X206619196Y-78494002D01*
X206350844Y-78547380D01*
X206211351Y-78605160D01*
X208671511Y-76145000D01*
X212094619Y-76145000D01*
X212177096Y-76268435D01*
X212370567Y-76461906D01*
X212598064Y-76613915D01*
X212850846Y-76718621D01*
X213119198Y-76771999D01*
X213392806Y-76771999D01*
X213538409Y-76743037D01*
X216611200Y-79815829D01*
X216611201Y-83065015D01*
X216487765Y-83147492D01*
X216294294Y-83340963D01*
X216142285Y-83568460D01*
X216037579Y-83821242D01*
X215984201Y-84089594D01*
X215984201Y-84363202D01*
X216013163Y-84508804D01*
X212746051Y-87775917D01*
X212716981Y-87799774D01*
X212693124Y-87828844D01*
X212693123Y-87828845D01*
X212621757Y-87915804D01*
X212551001Y-88048181D01*
X212507429Y-88191818D01*
X212492716Y-88341196D01*
X212496403Y-88378629D01*
X212496402Y-93707617D01*
X212372967Y-93790094D01*
X212179496Y-93983565D01*
X212027487Y-94211062D01*
X211922781Y-94463844D01*
X211869403Y-94732196D01*
X211869403Y-95005804D01*
X211922781Y-95274156D01*
X212027487Y-95526938D01*
X212179496Y-95754435D01*
X212372967Y-95947906D01*
X212600464Y-96099915D01*
X212853246Y-96204621D01*
X213121598Y-96257999D01*
X213395206Y-96257999D01*
X213547977Y-96227611D01*
X213587008Y-96259643D01*
X213719385Y-96330400D01*
X213863022Y-96373972D01*
X213974974Y-96384998D01*
X213974976Y-96384998D01*
X214012399Y-96388684D01*
X214049822Y-96384998D01*
X221652369Y-96384998D01*
X225989964Y-100722594D01*
X225961002Y-100868196D01*
X225961002Y-101141804D01*
X226014380Y-101410156D01*
X226119086Y-101662938D01*
X226271095Y-101890435D01*
X226464566Y-102083906D01*
X226692063Y-102235915D01*
X226944845Y-102340621D01*
X227213197Y-102393999D01*
X227393017Y-102393999D01*
X227326857Y-102460159D01*
X227147482Y-102728613D01*
X227023926Y-103026903D01*
X226960938Y-103343566D01*
X226960938Y-103666434D01*
X227023926Y-103983097D01*
X227147482Y-104281387D01*
X227326857Y-104549841D01*
X227555159Y-104778143D01*
X227823613Y-104957518D01*
X228121903Y-105081074D01*
X228438566Y-105144062D01*
X228761434Y-105144062D01*
X229078097Y-105081074D01*
X229376387Y-104957518D01*
X229644841Y-104778143D01*
X229873143Y-104549841D01*
X230052518Y-104281387D01*
X230176074Y-103983097D01*
X230239062Y-103666434D01*
X230239062Y-103343566D01*
X230176074Y-103026903D01*
X230052518Y-102728613D01*
X229873143Y-102460159D01*
X229644841Y-102231857D01*
X229376387Y-102052482D01*
X229078097Y-101928926D01*
X228761434Y-101865938D01*
X228445275Y-101865938D01*
X228580916Y-101662938D01*
X228685622Y-101410156D01*
X228739000Y-101141804D01*
X228739000Y-100868196D01*
X228685622Y-100599844D01*
X228580916Y-100347062D01*
X228428907Y-100119565D01*
X228235436Y-99926094D01*
X228007939Y-99774085D01*
X227755157Y-99669379D01*
X227486805Y-99616001D01*
X227213197Y-99616001D01*
X227067595Y-99644963D01*
X222533283Y-95110652D01*
X222509421Y-95081576D01*
X222393391Y-94986353D01*
X222261014Y-94915596D01*
X222117377Y-94872024D01*
X222005425Y-94860998D01*
X222005422Y-94860998D01*
X221967999Y-94857312D01*
X221930576Y-94860998D01*
X214647401Y-94860998D01*
X214647401Y-94732196D01*
X214594023Y-94463844D01*
X214489317Y-94211062D01*
X214337308Y-93983565D01*
X214143837Y-93790094D01*
X214020402Y-93707617D01*
X214020402Y-90589596D01*
X215984201Y-90589596D01*
X215984201Y-90863204D01*
X216037579Y-91131556D01*
X216142285Y-91384338D01*
X216294294Y-91611835D01*
X216487765Y-91805306D01*
X216715262Y-91957315D01*
X216968044Y-92062021D01*
X217236396Y-92115399D01*
X217510004Y-92115399D01*
X217778356Y-92062021D01*
X218031138Y-91957315D01*
X218258635Y-91805306D01*
X218452106Y-91611835D01*
X218604115Y-91384338D01*
X218708821Y-91131556D01*
X218762199Y-90863204D01*
X218762199Y-90589596D01*
X220484202Y-90589596D01*
X220484202Y-90863204D01*
X220537580Y-91131556D01*
X220642286Y-91384338D01*
X220794295Y-91611835D01*
X220987766Y-91805306D01*
X221215263Y-91957315D01*
X221468045Y-92062021D01*
X221736397Y-92115399D01*
X222010005Y-92115399D01*
X222278357Y-92062021D01*
X222531139Y-91957315D01*
X222758636Y-91805306D01*
X222952107Y-91611835D01*
X223104116Y-91384338D01*
X223208822Y-91131556D01*
X223262200Y-90863204D01*
X223262200Y-90589596D01*
X223208822Y-90321244D01*
X223104116Y-90068462D01*
X222952107Y-89840965D01*
X222758636Y-89647494D01*
X222531139Y-89495485D01*
X222278357Y-89390779D01*
X222010005Y-89337401D01*
X221736397Y-89337401D01*
X221468045Y-89390779D01*
X221215263Y-89495485D01*
X220987766Y-89647494D01*
X220794295Y-89840965D01*
X220642286Y-90068462D01*
X220537580Y-90321244D01*
X220484202Y-90589596D01*
X218762199Y-90589596D01*
X218708821Y-90321244D01*
X218604115Y-90068462D01*
X218452106Y-89840965D01*
X218258635Y-89647494D01*
X218031138Y-89495485D01*
X217778356Y-89390779D01*
X217510004Y-89337401D01*
X217236396Y-89337401D01*
X216968044Y-89390779D01*
X216715262Y-89495485D01*
X216487765Y-89647494D01*
X216294294Y-89840965D01*
X216142285Y-90068462D01*
X216037579Y-90321244D01*
X215984201Y-90589596D01*
X214020402Y-90589596D01*
X214020402Y-88656826D01*
X217090794Y-85586435D01*
X217236396Y-85615397D01*
X217510004Y-85615397D01*
X217778356Y-85562019D01*
X218031138Y-85457313D01*
X218258635Y-85305304D01*
X218452106Y-85111833D01*
X218604115Y-84884336D01*
X218708821Y-84631554D01*
X218762199Y-84363202D01*
X218762199Y-84089594D01*
X220484202Y-84089594D01*
X220484202Y-84363202D01*
X220537580Y-84631554D01*
X220642286Y-84884336D01*
X220794295Y-85111833D01*
X220987766Y-85305304D01*
X221215263Y-85457313D01*
X221468045Y-85562019D01*
X221736397Y-85615397D01*
X222010005Y-85615397D01*
X222278357Y-85562019D01*
X222531139Y-85457313D01*
X222758636Y-85305304D01*
X222952107Y-85111833D01*
X223104116Y-84884336D01*
X223208822Y-84631554D01*
X223262200Y-84363202D01*
X223262200Y-84089594D01*
X223208822Y-83821242D01*
X223104116Y-83568460D01*
X222952107Y-83340963D01*
X222758636Y-83147492D01*
X222531139Y-82995483D01*
X222278357Y-82890777D01*
X222010005Y-82837399D01*
X221736397Y-82837399D01*
X221468045Y-82890777D01*
X221215263Y-82995483D01*
X220987766Y-83147492D01*
X220794295Y-83340963D01*
X220642286Y-83568460D01*
X220537580Y-83821242D01*
X220484202Y-84089594D01*
X218762199Y-84089594D01*
X218708821Y-83821242D01*
X218604115Y-83568460D01*
X218452106Y-83340963D01*
X218258635Y-83147492D01*
X218135200Y-83065015D01*
X218135200Y-79537620D01*
X218138886Y-79500197D01*
X218133079Y-79441241D01*
X218124174Y-79350820D01*
X218080602Y-79207183D01*
X218009845Y-79074806D01*
X217914622Y-78958776D01*
X217885553Y-78934920D01*
X214616039Y-75665407D01*
X214645001Y-75519804D01*
X214645001Y-75246196D01*
X214591623Y-74977844D01*
X214486917Y-74725062D01*
X214334908Y-74497565D01*
X214141437Y-74304094D01*
X213913940Y-74152085D01*
X213661158Y-74047379D01*
X213392806Y-73994001D01*
X213119198Y-73994001D01*
X212850846Y-74047379D01*
X212598064Y-74152085D01*
X212370567Y-74304094D01*
X212177096Y-74497565D01*
X212094619Y-74621000D01*
X208393304Y-74621000D01*
X208355881Y-74617314D01*
X208318458Y-74621000D01*
X208318455Y-74621000D01*
X208206503Y-74632026D01*
X208062866Y-74675598D01*
X208031993Y-74692100D01*
X207982549Y-74718528D01*
X207834906Y-74497565D01*
X207641435Y-74304094D01*
X207413938Y-74152085D01*
X207161156Y-74047379D01*
X206892804Y-73994001D01*
X206619196Y-73994001D01*
X206350844Y-74047379D01*
X206098062Y-74152085D01*
X205870565Y-74304094D01*
X205677094Y-74497565D01*
X205525085Y-74725062D01*
X205420379Y-74977844D01*
X205367001Y-75246196D01*
X205367001Y-75519804D01*
X205420379Y-75788156D01*
X205525085Y-76040938D01*
X205677094Y-76268435D01*
X205870565Y-76461906D01*
X206067654Y-76593597D01*
X199216111Y-83445140D01*
X199148106Y-83343363D01*
X198954635Y-83149892D01*
X198727138Y-82997883D01*
X198474356Y-82893177D01*
X198206004Y-82839799D01*
X197932396Y-82839799D01*
X197664044Y-82893177D01*
X197411262Y-82997883D01*
X197183765Y-83149892D01*
X196990294Y-83343363D01*
X196838285Y-83570860D01*
X196733579Y-83823642D01*
X196680201Y-84091994D01*
X176776539Y-84091994D01*
X167357829Y-74673284D01*
X167469103Y-74562010D01*
X167623957Y-74330254D01*
X167640000Y-74291523D01*
X167656043Y-74330254D01*
X167810897Y-74562010D01*
X168007990Y-74759103D01*
X168239746Y-74913957D01*
X168497260Y-75020623D01*
X168770635Y-75075000D01*
X169049365Y-75075000D01*
X169322740Y-75020623D01*
X169580254Y-74913957D01*
X169812010Y-74759103D01*
X170009103Y-74562010D01*
X170163957Y-74330254D01*
X170180000Y-74291523D01*
X170196043Y-74330254D01*
X170350897Y-74562010D01*
X170547990Y-74759103D01*
X170779746Y-74913957D01*
X171037260Y-75020623D01*
X171310635Y-75075000D01*
X171589365Y-75075000D01*
X171862740Y-75020623D01*
X172120254Y-74913957D01*
X172352010Y-74759103D01*
X172549103Y-74562010D01*
X172703957Y-74330254D01*
X172720000Y-74291523D01*
X172736043Y-74330254D01*
X172890897Y-74562010D01*
X173087990Y-74759103D01*
X173319746Y-74913957D01*
X173577260Y-75020623D01*
X173850635Y-75075000D01*
X174129365Y-75075000D01*
X174402740Y-75020623D01*
X174660254Y-74913957D01*
X174892010Y-74759103D01*
X175089103Y-74562010D01*
X175243957Y-74330254D01*
X175260000Y-74291523D01*
X175276043Y-74330254D01*
X175430897Y-74562010D01*
X175627990Y-74759103D01*
X175859746Y-74913957D01*
X176117260Y-75020623D01*
X176390635Y-75075000D01*
X176669365Y-75075000D01*
X176942740Y-75020623D01*
X177200254Y-74913957D01*
X177432010Y-74759103D01*
X177552692Y-74638421D01*
X178271184Y-74638421D01*
X178340345Y-74880349D01*
X178592443Y-74999248D01*
X178862894Y-75066681D01*
X179141303Y-75080057D01*
X179416972Y-75038860D01*
X179679308Y-74944675D01*
X179799655Y-74880349D01*
X179868816Y-74638421D01*
X179070000Y-73839605D01*
X178271184Y-74638421D01*
X177552692Y-74638421D01*
X177629103Y-74562010D01*
X177783957Y-74330254D01*
X177798777Y-74294475D01*
X177849651Y-74389655D01*
X178091579Y-74458816D01*
X178890395Y-73660000D01*
X179249605Y-73660000D01*
X180048421Y-74458816D01*
X180290349Y-74389655D01*
X180409248Y-74137557D01*
X180476681Y-73867106D01*
X180490057Y-73588697D01*
X180448860Y-73313028D01*
X180354675Y-73050692D01*
X180290349Y-72930345D01*
X180048421Y-72861184D01*
X179249605Y-73660000D01*
X178890395Y-73660000D01*
X178091579Y-72861184D01*
X177849651Y-72930345D01*
X177801575Y-73032279D01*
X177783957Y-72989746D01*
X177629103Y-72757990D01*
X177552692Y-72681579D01*
X178271184Y-72681579D01*
X179070000Y-73480395D01*
X179868816Y-72681579D01*
X179799655Y-72439651D01*
X179731434Y-72407475D01*
X189133000Y-72407475D01*
X189133000Y-72926525D01*
X189234261Y-73435601D01*
X189432893Y-73915141D01*
X189721262Y-74346715D01*
X190088285Y-74713738D01*
X190519859Y-75002107D01*
X190999399Y-75200739D01*
X191508475Y-75302000D01*
X192027525Y-75302000D01*
X192536601Y-75200739D01*
X193016141Y-75002107D01*
X193447715Y-74713738D01*
X193814738Y-74346715D01*
X194103107Y-73915141D01*
X194301739Y-73435601D01*
X194403000Y-72926525D01*
X194403000Y-72407475D01*
X194301739Y-71898399D01*
X194103107Y-71418859D01*
X193814738Y-70987285D01*
X193447715Y-70620262D01*
X193016141Y-70331893D01*
X192536601Y-70133261D01*
X192027525Y-70032000D01*
X191508475Y-70032000D01*
X190999399Y-70133261D01*
X190519859Y-70331893D01*
X190088285Y-70620262D01*
X189721262Y-70987285D01*
X189432893Y-71418859D01*
X189234261Y-71898399D01*
X189133000Y-72407475D01*
X179731434Y-72407475D01*
X179547557Y-72320752D01*
X179277106Y-72253319D01*
X178998697Y-72239943D01*
X178723028Y-72281140D01*
X178460692Y-72375325D01*
X178340345Y-72439651D01*
X178271184Y-72681579D01*
X177552692Y-72681579D01*
X177432010Y-72560897D01*
X177200254Y-72406043D01*
X176942740Y-72299377D01*
X176669365Y-72245000D01*
X176390635Y-72245000D01*
X176117260Y-72299377D01*
X175859746Y-72406043D01*
X175627990Y-72560897D01*
X175430897Y-72757990D01*
X175276043Y-72989746D01*
X175260000Y-73028477D01*
X175243957Y-72989746D01*
X175089103Y-72757990D01*
X174892010Y-72560897D01*
X174660254Y-72406043D01*
X174402740Y-72299377D01*
X174129365Y-72245000D01*
X173850635Y-72245000D01*
X173577260Y-72299377D01*
X173319746Y-72406043D01*
X173087990Y-72560897D01*
X172890897Y-72757990D01*
X172736043Y-72989746D01*
X172720000Y-73028477D01*
X172703957Y-72989746D01*
X172549103Y-72757990D01*
X172352010Y-72560897D01*
X172120254Y-72406043D01*
X171862740Y-72299377D01*
X171589365Y-72245000D01*
X171310635Y-72245000D01*
X171037260Y-72299377D01*
X170779746Y-72406043D01*
X170547990Y-72560897D01*
X170350897Y-72757990D01*
X170196043Y-72989746D01*
X170180000Y-73028477D01*
X170163957Y-72989746D01*
X170009103Y-72757990D01*
X169812010Y-72560897D01*
X169580254Y-72406043D01*
X169322740Y-72299377D01*
X169049365Y-72245000D01*
X168770635Y-72245000D01*
X168497260Y-72299377D01*
X168239746Y-72406043D01*
X168007990Y-72560897D01*
X167810897Y-72757990D01*
X167656043Y-72989746D01*
X167640000Y-73028477D01*
X167623957Y-72989746D01*
X167469103Y-72757990D01*
X167272010Y-72560897D01*
X167040254Y-72406043D01*
X166782740Y-72299377D01*
X166509365Y-72245000D01*
X166230635Y-72245000D01*
X165957260Y-72299377D01*
X165699746Y-72406043D01*
X165467990Y-72560897D01*
X165270897Y-72757990D01*
X165116043Y-72989746D01*
X165101223Y-73025525D01*
X165050349Y-72930345D01*
X164808421Y-72861184D01*
X164009605Y-73660000D01*
X163650395Y-73660000D01*
X162851579Y-72861184D01*
X162609651Y-72930345D01*
X162561575Y-73032279D01*
X162543957Y-72989746D01*
X162389103Y-72757990D01*
X162312692Y-72681579D01*
X163031184Y-72681579D01*
X163830000Y-73480395D01*
X164628816Y-72681579D01*
X164559655Y-72439651D01*
X164307557Y-72320752D01*
X164037106Y-72253319D01*
X163758697Y-72239943D01*
X163483028Y-72281140D01*
X163220692Y-72375325D01*
X163100345Y-72439651D01*
X163031184Y-72681579D01*
X162312692Y-72681579D01*
X162192010Y-72560897D01*
X161960254Y-72406043D01*
X161702740Y-72299377D01*
X161429365Y-72245000D01*
X161150635Y-72245000D01*
X160877260Y-72299377D01*
X160619746Y-72406043D01*
X160387990Y-72560897D01*
X160190897Y-72757990D01*
X160036043Y-72989746D01*
X160020000Y-73028477D01*
X160003957Y-72989746D01*
X159849103Y-72757990D01*
X159652010Y-72560897D01*
X159420254Y-72406043D01*
X159162740Y-72299377D01*
X158889365Y-72245000D01*
X158610635Y-72245000D01*
X158337260Y-72299377D01*
X158079746Y-72406043D01*
X157847990Y-72560897D01*
X157650897Y-72757990D01*
X157496043Y-72989746D01*
X157480000Y-73028477D01*
X157463957Y-72989746D01*
X157309103Y-72757990D01*
X157112010Y-72560897D01*
X156880254Y-72406043D01*
X156622740Y-72299377D01*
X156349365Y-72245000D01*
X156070635Y-72245000D01*
X155797260Y-72299377D01*
X155539746Y-72406043D01*
X155307990Y-72560897D01*
X155110897Y-72757990D01*
X154956043Y-72989746D01*
X154940000Y-73028477D01*
X154923957Y-72989746D01*
X154769103Y-72757990D01*
X154572010Y-72560897D01*
X154340254Y-72406043D01*
X154082740Y-72299377D01*
X153809365Y-72245000D01*
X153530635Y-72245000D01*
X153365481Y-72277851D01*
X150962630Y-69875000D01*
X194680239Y-69875000D01*
X194680246Y-69874999D01*
X206224073Y-69875060D01*
G37*
X206224073Y-69875060D02*
X208263168Y-69949830D01*
X210277626Y-70172228D01*
X212270385Y-70541564D01*
X214230761Y-71055859D01*
X216148189Y-71712341D01*
X218012394Y-72507492D01*
X219813362Y-73437041D01*
X221541410Y-74495991D01*
X223187256Y-75678651D01*
X224742083Y-76978689D01*
X226197508Y-78389093D01*
X227545732Y-79902308D01*
X228779510Y-81510199D01*
X229892214Y-83204129D01*
X230877871Y-84975007D01*
X231731188Y-86813319D01*
X232447574Y-88709181D01*
X233023190Y-90652426D01*
X233454938Y-92632601D01*
X233740504Y-94639092D01*
X233878350Y-96661105D01*
X233867739Y-98687783D01*
X233708726Y-100708226D01*
X233402164Y-102711622D01*
X232949703Y-104687170D01*
X232353772Y-106624274D01*
X231617571Y-108512530D01*
X230745052Y-110341808D01*
X229740897Y-112102278D01*
X228610520Y-113784456D01*
X227359964Y-115379348D01*
X225995971Y-116878356D01*
X224525855Y-118273444D01*
X222957514Y-119557116D01*
X221299365Y-120722483D01*
X219560322Y-121763279D01*
X217749732Y-122673911D01*
X215877289Y-123449502D01*
X213953093Y-124085870D01*
X211987438Y-124579608D01*
X209990929Y-124928055D01*
X207972509Y-125129520D01*
X206227438Y-125184361D01*
X194680242Y-125184300D01*
X192376288Y-125184300D01*
X192816141Y-125002107D01*
X193247715Y-124713738D01*
X193614738Y-124346715D01*
X193903107Y-123915141D01*
X194101739Y-123435601D01*
X194203000Y-122926525D01*
X194203000Y-122407475D01*
X194101739Y-121898399D01*
X193903107Y-121418859D01*
X193614738Y-120987285D01*
X193247715Y-120620262D01*
X192816141Y-120331893D01*
X192336601Y-120133261D01*
X191827525Y-120032000D01*
X191308475Y-120032000D01*
X190799399Y-120133261D01*
X190319859Y-120331893D01*
X189888285Y-120620262D01*
X189521262Y-120987285D01*
X189232893Y-121418859D01*
X189034261Y-121898399D01*
X188933000Y-122407475D01*
X188933000Y-122926525D01*
X189034261Y-123435601D01*
X189232893Y-123915141D01*
X189521262Y-124346715D01*
X189888285Y-124713738D01*
X190319859Y-125002107D01*
X190759712Y-125184300D01*
X99616509Y-125184300D01*
X100036601Y-125100739D01*
X100516141Y-124902107D01*
X100947715Y-124613738D01*
X101314738Y-124246715D01*
X101603107Y-123815141D01*
X101801739Y-123335601D01*
X101903000Y-122826525D01*
X101903000Y-122307475D01*
X101801739Y-121798399D01*
X101603107Y-121318859D01*
X101314738Y-120887285D01*
X100983855Y-120556402D01*
X107567048Y-120556402D01*
X107359793Y-120866581D01*
X107212361Y-121222514D01*
X107137200Y-121600371D01*
X107137200Y-121985629D01*
X107212361Y-122363486D01*
X107359793Y-122719419D01*
X107573831Y-123039750D01*
X107846250Y-123312169D01*
X108166581Y-123526207D01*
X108522514Y-123673639D01*
X108900371Y-123748800D01*
X109285629Y-123748800D01*
X109663486Y-123673639D01*
X110019419Y-123526207D01*
X110339750Y-123312169D01*
X110612169Y-123039750D01*
X110826207Y-122719419D01*
X110973639Y-122363486D01*
X111048800Y-121985629D01*
X111048800Y-121600371D01*
X111037355Y-121542832D01*
X170180000Y-121542832D01*
X170180000Y-122043168D01*
X170277611Y-122533891D01*
X170469081Y-122996141D01*
X170747053Y-123412156D01*
X171100844Y-123765947D01*
X171516859Y-124043919D01*
X171979109Y-124235389D01*
X172469832Y-124333000D01*
X172970168Y-124333000D01*
X173460891Y-124235389D01*
X173923141Y-124043919D01*
X174339156Y-123765947D01*
X174692947Y-123412156D01*
X174970919Y-122996141D01*
X175162389Y-122533891D01*
X175260000Y-122043168D01*
X175260000Y-121542832D01*
X175162389Y-121052109D01*
X174970919Y-120589859D01*
X174692947Y-120173844D01*
X174339156Y-119820053D01*
X173923141Y-119542081D01*
X173460891Y-119350611D01*
X172970168Y-119253000D01*
X172469832Y-119253000D01*
X171979109Y-119350611D01*
X171516859Y-119542081D01*
X171100844Y-119820053D01*
X170747053Y-120173844D01*
X170469081Y-120589859D01*
X170277611Y-121052109D01*
X170180000Y-121542832D01*
X111037355Y-121542832D01*
X110973639Y-121222514D01*
X110826207Y-120866581D01*
X110618952Y-120556402D01*
X137978175Y-120556402D01*
X138015598Y-120560088D01*
X138053021Y-120556402D01*
X138053024Y-120556402D01*
X138164976Y-120545376D01*
X138308613Y-120501804D01*
X138440990Y-120431047D01*
X138557020Y-120335824D01*
X138580882Y-120306748D01*
X145133741Y-113753889D01*
X179679600Y-113753889D01*
X179679600Y-114084111D01*
X179744023Y-114407988D01*
X179870394Y-114713073D01*
X180053855Y-114987642D01*
X180287358Y-115221145D01*
X180561927Y-115404606D01*
X180867012Y-115530977D01*
X181190889Y-115595400D01*
X181521111Y-115595400D01*
X181844988Y-115530977D01*
X182150073Y-115404606D01*
X182424642Y-115221145D01*
X182658145Y-114987642D01*
X182841606Y-114713073D01*
X182967977Y-114407988D01*
X183032400Y-114084111D01*
X183032400Y-113753889D01*
X182967977Y-113430012D01*
X182841606Y-113124927D01*
X182658145Y-112850358D01*
X182424642Y-112616855D01*
X182150073Y-112433394D01*
X181844988Y-112307023D01*
X181521111Y-112242600D01*
X181190889Y-112242600D01*
X180867012Y-112307023D01*
X180561927Y-112433394D01*
X180287358Y-112616855D01*
X180053855Y-112850358D01*
X179870394Y-113124927D01*
X179744023Y-113430012D01*
X179679600Y-113753889D01*
X145133741Y-113753889D01*
X158445482Y-100442149D01*
X158610635Y-100475000D01*
X158889365Y-100475000D01*
X159162740Y-100420623D01*
X159420254Y-100313957D01*
X159652010Y-100159103D01*
X159849103Y-99962010D01*
X160003957Y-99730254D01*
X160020000Y-99691523D01*
X160036043Y-99730254D01*
X160190897Y-99962010D01*
X160387990Y-100159103D01*
X160619746Y-100313957D01*
X160877260Y-100420623D01*
X161150635Y-100475000D01*
X161429365Y-100475000D01*
X161702740Y-100420623D01*
X161960254Y-100313957D01*
X162192010Y-100159103D01*
X162389103Y-99962010D01*
X162543957Y-99730254D01*
X162560000Y-99691523D01*
X162576043Y-99730254D01*
X162730897Y-99962010D01*
X162927990Y-100159103D01*
X163159746Y-100313957D01*
X163417260Y-100420623D01*
X163690635Y-100475000D01*
X163969365Y-100475000D01*
X164242740Y-100420623D01*
X164500254Y-100313957D01*
X164732010Y-100159103D01*
X164929103Y-99962010D01*
X165083957Y-99730254D01*
X165100000Y-99691523D01*
X165116043Y-99730254D01*
X165270897Y-99962010D01*
X165467990Y-100159103D01*
X165699746Y-100313957D01*
X165957260Y-100420623D01*
X166230635Y-100475000D01*
X166509365Y-100475000D01*
X166782740Y-100420623D01*
X167040254Y-100313957D01*
X167272010Y-100159103D01*
X167469103Y-99962010D01*
X167623957Y-99730254D01*
X167640000Y-99691523D01*
X167656043Y-99730254D01*
X167810897Y-99962010D01*
X168007990Y-100159103D01*
X168239746Y-100313957D01*
X168497260Y-100420623D01*
X168770635Y-100475000D01*
X169049365Y-100475000D01*
X169322740Y-100420623D01*
X169580254Y-100313957D01*
X169812010Y-100159103D01*
X170009103Y-99962010D01*
X170163957Y-99730254D01*
X170180000Y-99691523D01*
X170196043Y-99730254D01*
X170350897Y-99962010D01*
X170547990Y-100159103D01*
X170779746Y-100313957D01*
X171037260Y-100420623D01*
X171310635Y-100475000D01*
X171589365Y-100475000D01*
X171862740Y-100420623D01*
X172120254Y-100313957D01*
X172352010Y-100159103D01*
X172549103Y-99962010D01*
X172703957Y-99730254D01*
X172720000Y-99691523D01*
X172736043Y-99730254D01*
X172890897Y-99962010D01*
X173087990Y-100159103D01*
X173319746Y-100313957D01*
X173577260Y-100420623D01*
X173850635Y-100475000D01*
X174129365Y-100475000D01*
X174402740Y-100420623D01*
X174660254Y-100313957D01*
X174892010Y-100159103D01*
X175089103Y-99962010D01*
X175243957Y-99730254D01*
X175260000Y-99691523D01*
X175276043Y-99730254D01*
X175430897Y-99962010D01*
X175627990Y-100159103D01*
X175859746Y-100313957D01*
X176117260Y-100420623D01*
X176390635Y-100475000D01*
X176669365Y-100475000D01*
X176942740Y-100420623D01*
X177200254Y-100313957D01*
X177432010Y-100159103D01*
X177629103Y-99962010D01*
X177659469Y-99916564D01*
X177664188Y-99964482D01*
X177700498Y-100084180D01*
X177759463Y-100194494D01*
X177838815Y-100291185D01*
X177935506Y-100370537D01*
X178045820Y-100429502D01*
X178165518Y-100465812D01*
X178290000Y-100478072D01*
X179850000Y-100478072D01*
X179974482Y-100465812D01*
X180094180Y-100429502D01*
X180204494Y-100370537D01*
X180301185Y-100291185D01*
X180380537Y-100194494D01*
X180439502Y-100084180D01*
X180475812Y-99964482D01*
X180488072Y-99840000D01*
X180488072Y-98280000D01*
X180475812Y-98155518D01*
X180439502Y-98035820D01*
X180380537Y-97925506D01*
X180301185Y-97828815D01*
X180204494Y-97749463D01*
X180094180Y-97690498D01*
X179974482Y-97654188D01*
X179850000Y-97641928D01*
X178290000Y-97641928D01*
X178165518Y-97654188D01*
X178045820Y-97690498D01*
X177935506Y-97749463D01*
X177838815Y-97828815D01*
X177759463Y-97925506D01*
X177700498Y-98035820D01*
X177664188Y-98155518D01*
X177659469Y-98203436D01*
X177629103Y-98157990D01*
X177432010Y-97960897D01*
X177200254Y-97806043D01*
X176942740Y-97699377D01*
X176669365Y-97645000D01*
X176390635Y-97645000D01*
X176117260Y-97699377D01*
X175859746Y-97806043D01*
X175627990Y-97960897D01*
X175430897Y-98157990D01*
X175276043Y-98389746D01*
X175260000Y-98428477D01*
X175243957Y-98389746D01*
X175089103Y-98157990D01*
X174892010Y-97960897D01*
X174660254Y-97806043D01*
X174402740Y-97699377D01*
X174129365Y-97645000D01*
X173850635Y-97645000D01*
X173577260Y-97699377D01*
X173319746Y-97806043D01*
X173087990Y-97960897D01*
X172890897Y-98157990D01*
X172736043Y-98389746D01*
X172720000Y-98428477D01*
X172703957Y-98389746D01*
X172549103Y-98157990D01*
X172352010Y-97960897D01*
X172120254Y-97806043D01*
X171862740Y-97699377D01*
X171589365Y-97645000D01*
X171310635Y-97645000D01*
X171037260Y-97699377D01*
X170779746Y-97806043D01*
X170547990Y-97960897D01*
X170350897Y-98157990D01*
X170196043Y-98389746D01*
X170180000Y-98428477D01*
X170163957Y-98389746D01*
X170009103Y-98157990D01*
X169812010Y-97960897D01*
X169580254Y-97806043D01*
X169322740Y-97699377D01*
X169049365Y-97645000D01*
X168770635Y-97645000D01*
X168497260Y-97699377D01*
X168239746Y-97806043D01*
X168007990Y-97960897D01*
X167810897Y-98157990D01*
X167656043Y-98389746D01*
X167640000Y-98428477D01*
X167623957Y-98389746D01*
X167469103Y-98157990D01*
X167272010Y-97960897D01*
X167040254Y-97806043D01*
X166782740Y-97699377D01*
X166509365Y-97645000D01*
X166230635Y-97645000D01*
X165957260Y-97699377D01*
X165699746Y-97806043D01*
X165467990Y-97960897D01*
X165270897Y-98157990D01*
X165116043Y-98389746D01*
X165100000Y-98428477D01*
X165083957Y-98389746D01*
X164929103Y-98157990D01*
X164732010Y-97960897D01*
X164500254Y-97806043D01*
X164242740Y-97699377D01*
X163969365Y-97645000D01*
X163690635Y-97645000D01*
X163417260Y-97699377D01*
X163159746Y-97806043D01*
X162927990Y-97960897D01*
X162730897Y-98157990D01*
X162576043Y-98389746D01*
X162560000Y-98428477D01*
X162543957Y-98389746D01*
X162389103Y-98157990D01*
X162192010Y-97960897D01*
X161960254Y-97806043D01*
X161702740Y-97699377D01*
X161429365Y-97645000D01*
X161150635Y-97645000D01*
X160877260Y-97699377D01*
X160619746Y-97806043D01*
X160387990Y-97960897D01*
X160190897Y-98157990D01*
X160036043Y-98389746D01*
X160020000Y-98428477D01*
X160003957Y-98389746D01*
X159849103Y-98157990D01*
X159652010Y-97960897D01*
X159420254Y-97806043D01*
X159162740Y-97699377D01*
X158889365Y-97645000D01*
X158610635Y-97645000D01*
X158337260Y-97699377D01*
X158079746Y-97806043D01*
X157847990Y-97960897D01*
X157650897Y-98157990D01*
X157496043Y-98389746D01*
X157480000Y-98428477D01*
X157463957Y-98389746D01*
X157309103Y-98157990D01*
X157112010Y-97960897D01*
X156880254Y-97806043D01*
X156622740Y-97699377D01*
X156349365Y-97645000D01*
X156070635Y-97645000D01*
X155797260Y-97699377D01*
X155539746Y-97806043D01*
X155307990Y-97960897D01*
X155110897Y-98157990D01*
X154956043Y-98389746D01*
X154940000Y-98428477D01*
X154923957Y-98389746D01*
X154769103Y-98157990D01*
X154572010Y-97960897D01*
X154432000Y-97867346D01*
X154432000Y-96159461D01*
X154435686Y-96122038D01*
X154432000Y-96084612D01*
X154420974Y-95972660D01*
X154377402Y-95829023D01*
X154327478Y-95735621D01*
X154306645Y-95696645D01*
X154235279Y-95609686D01*
X154211422Y-95580616D01*
X154182353Y-95556760D01*
X133665548Y-75039956D01*
X133762740Y-75020623D01*
X134020254Y-74913957D01*
X134252010Y-74759103D01*
X134449103Y-74562010D01*
X134603957Y-74330254D01*
X134620000Y-74291523D01*
X134636043Y-74330254D01*
X134790897Y-74562010D01*
X134987990Y-74759103D01*
X135219746Y-74913957D01*
X135477260Y-75020623D01*
X135750635Y-75075000D01*
X136029365Y-75075000D01*
X136302740Y-75020623D01*
X136560254Y-74913957D01*
X136792010Y-74759103D01*
X136989103Y-74562010D01*
X137143957Y-74330254D01*
X137160000Y-74291523D01*
X137176043Y-74330254D01*
X137330897Y-74562010D01*
X137527990Y-74759103D01*
X137759746Y-74913957D01*
X138017260Y-75020623D01*
X138290635Y-75075000D01*
X138569365Y-75075000D01*
X138842740Y-75020623D01*
X139100254Y-74913957D01*
X139332010Y-74759103D01*
X139529103Y-74562010D01*
X139683957Y-74330254D01*
X139700000Y-74291523D01*
X139716043Y-74330254D01*
X139870897Y-74562010D01*
X140067990Y-74759103D01*
X140299746Y-74913957D01*
X140557260Y-75020623D01*
X140830635Y-75075000D01*
X141109365Y-75075000D01*
X141382740Y-75020623D01*
X141640254Y-74913957D01*
X141872010Y-74759103D01*
X142069103Y-74562010D01*
X142223957Y-74330254D01*
X142240000Y-74291523D01*
X142256043Y-74330254D01*
X142410897Y-74562010D01*
X142607990Y-74759103D01*
X142839746Y-74913957D01*
X143097260Y-75020623D01*
X143370635Y-75075000D01*
X143649365Y-75075000D01*
X143922740Y-75020623D01*
X144180254Y-74913957D01*
X144412010Y-74759103D01*
X144609103Y-74562010D01*
X144763957Y-74330254D01*
X144780000Y-74291523D01*
X144796043Y-74330254D01*
X144950897Y-74562010D01*
X145147990Y-74759103D01*
X145379746Y-74913957D01*
X145637260Y-75020623D01*
X145910635Y-75075000D01*
X146189365Y-75075000D01*
X146462740Y-75020623D01*
X146720254Y-74913957D01*
X146952010Y-74759103D01*
X147149103Y-74562010D01*
X147303957Y-74330254D01*
X147320000Y-74291523D01*
X147336043Y-74330254D01*
X147490897Y-74562010D01*
X147687990Y-74759103D01*
X147919746Y-74913957D01*
X148177260Y-75020623D01*
X148450635Y-75075000D01*
X148729365Y-75075000D01*
X149002740Y-75020623D01*
X149260254Y-74913957D01*
X149492010Y-74759103D01*
X149689103Y-74562010D01*
X149843957Y-74330254D01*
X149860000Y-74291523D01*
X149876043Y-74330254D01*
X150030897Y-74562010D01*
X150227990Y-74759103D01*
X150459746Y-74913957D01*
X150717260Y-75020623D01*
X150990635Y-75075000D01*
X151269365Y-75075000D01*
X151542740Y-75020623D01*
X151800254Y-74913957D01*
X152032010Y-74759103D01*
X152229103Y-74562010D01*
X152383957Y-74330254D01*
X152400000Y-74291523D01*
X152416043Y-74330254D01*
X152570897Y-74562010D01*
X152767990Y-74759103D01*
X152999746Y-74913957D01*
X153257260Y-75020623D01*
X153530635Y-75075000D01*
X153809365Y-75075000D01*
X154082740Y-75020623D01*
X154340254Y-74913957D01*
X154572010Y-74759103D01*
X154769103Y-74562010D01*
X154923957Y-74330254D01*
X154940000Y-74291523D01*
X154956043Y-74330254D01*
X155110897Y-74562010D01*
X155307990Y-74759103D01*
X155539746Y-74913957D01*
X155797260Y-75020623D01*
X156070635Y-75075000D01*
X156349365Y-75075000D01*
X156622740Y-75020623D01*
X156880254Y-74913957D01*
X157112010Y-74759103D01*
X157309103Y-74562010D01*
X157463957Y-74330254D01*
X157480000Y-74291523D01*
X157496043Y-74330254D01*
X157650897Y-74562010D01*
X157847990Y-74759103D01*
X158079746Y-74913957D01*
X158337260Y-75020623D01*
X158610635Y-75075000D01*
X158889365Y-75075000D01*
X159162740Y-75020623D01*
X159420254Y-74913957D01*
X159652010Y-74759103D01*
X159849103Y-74562010D01*
X160003957Y-74330254D01*
X160020000Y-74291523D01*
X160036043Y-74330254D01*
X160190897Y-74562010D01*
X160387990Y-74759103D01*
X160619746Y-74913957D01*
X160877260Y-75020623D01*
X161150635Y-75075000D01*
X161429365Y-75075000D01*
X161702740Y-75020623D01*
X161960254Y-74913957D01*
X162192010Y-74759103D01*
X162312692Y-74638421D01*
X163031184Y-74638421D01*
X163100345Y-74880349D01*
X163352443Y-74999248D01*
X163622894Y-75066681D01*
X163901303Y-75080057D01*
X164176972Y-75038860D01*
X164439308Y-74944675D01*
X164559655Y-74880349D01*
X164628816Y-74638421D01*
X163830000Y-73839605D01*
X163031184Y-74638421D01*
X162312692Y-74638421D01*
X162389103Y-74562010D01*
X162543957Y-74330254D01*
X162558777Y-74294475D01*
X162609651Y-74389655D01*
X162851579Y-74458816D01*
X163650395Y-73660000D01*
X164009605Y-73660000D01*
X164808421Y-74458816D01*
X165050349Y-74389655D01*
X165098425Y-74287721D01*
X165116043Y-74330254D01*
X165270897Y-74562010D01*
X165467990Y-74759103D01*
X165613498Y-74856328D01*
X165619027Y-74912464D01*
X165662599Y-75056101D01*
X165733355Y-75188478D01*
X165789289Y-75256633D01*
X165828579Y-75304508D01*
X165857649Y-75328365D01*
X190841826Y-100312543D01*
X190743845Y-100549091D01*
X190690620Y-100816669D01*
X190690620Y-101089491D01*
X190743845Y-101357069D01*
X190848249Y-101609123D01*
X190999821Y-101835966D01*
X191192734Y-102028879D01*
X191419577Y-102180451D01*
X191671631Y-102284855D01*
X191939209Y-102338080D01*
X192212031Y-102338080D01*
X192479609Y-102284855D01*
X192731663Y-102180451D01*
X192958506Y-102028879D01*
X193151419Y-101835966D01*
X193302991Y-101609123D01*
X193407395Y-101357069D01*
X193460620Y-101089491D01*
X193460620Y-100828250D01*
X205147719Y-112515349D01*
X205147506Y-112515463D01*
X205050815Y-112594815D01*
X204971463Y-112691506D01*
X204912498Y-112801820D01*
X204876188Y-112921518D01*
X204863928Y-113046000D01*
X204863928Y-115046000D01*
X204876188Y-115170482D01*
X204912498Y-115290180D01*
X204971463Y-115400494D01*
X205050815Y-115497185D01*
X205147506Y-115576537D01*
X205257820Y-115635502D01*
X205377518Y-115671812D01*
X205502000Y-115684072D01*
X207502000Y-115684072D01*
X207626482Y-115671812D01*
X207746180Y-115635502D01*
X207856494Y-115576537D01*
X207953185Y-115497185D01*
X208032537Y-115400494D01*
X208091502Y-115290180D01*
X208124496Y-115181413D01*
X213146192Y-115181413D01*
X213241956Y-115445814D01*
X213531571Y-115586704D01*
X213843108Y-115668384D01*
X214164595Y-115687718D01*
X214483675Y-115643961D01*
X214788088Y-115538795D01*
X214962044Y-115445814D01*
X215057808Y-115181413D01*
X214102000Y-114225605D01*
X213146192Y-115181413D01*
X208124496Y-115181413D01*
X208127812Y-115170482D01*
X208140072Y-115046000D01*
X208140072Y-114108595D01*
X212460282Y-114108595D01*
X212504039Y-114427675D01*
X212609205Y-114732088D01*
X212702186Y-114906044D01*
X212966587Y-115001808D01*
X213922395Y-114046000D01*
X214281605Y-114046000D01*
X215237413Y-115001808D01*
X215501814Y-114906044D01*
X215642704Y-114616429D01*
X215724384Y-114304892D01*
X215743718Y-113983405D01*
X215699961Y-113664325D01*
X215594795Y-113359912D01*
X215501814Y-113185956D01*
X215237413Y-113090192D01*
X214281605Y-114046000D01*
X213922395Y-114046000D01*
X212966587Y-113090192D01*
X212702186Y-113185956D01*
X212561296Y-113475571D01*
X212479616Y-113787108D01*
X212460282Y-114108595D01*
X208140072Y-114108595D01*
X208140072Y-113046000D01*
X208127812Y-112921518D01*
X208124497Y-112910587D01*
X213146192Y-112910587D01*
X214102000Y-113866395D01*
X215057808Y-112910587D01*
X214962044Y-112646186D01*
X214672429Y-112505296D01*
X214360892Y-112423616D01*
X214039405Y-112404282D01*
X213720325Y-112448039D01*
X213415912Y-112553205D01*
X213241956Y-112646186D01*
X213146192Y-112910587D01*
X208124497Y-112910587D01*
X208091502Y-112801820D01*
X208032537Y-112691506D01*
X207953185Y-112594815D01*
X207856494Y-112515463D01*
X207746180Y-112456498D01*
X207626482Y-112420188D01*
X207502000Y-112407928D01*
X207160731Y-112407928D01*
X207138645Y-112366607D01*
X207089745Y-112307023D01*
X207043422Y-112250578D01*
X207014347Y-112226717D01*
X198131196Y-103343566D01*
X219960939Y-103343566D01*
X219960939Y-103666434D01*
X220023927Y-103983097D01*
X220147483Y-104281387D01*
X220326858Y-104549841D01*
X220555160Y-104778143D01*
X220823614Y-104957518D01*
X221121904Y-105081074D01*
X221438567Y-105144062D01*
X221761435Y-105144062D01*
X222078098Y-105081074D01*
X222376388Y-104957518D01*
X222644842Y-104778143D01*
X222873144Y-104549841D01*
X223052519Y-104281387D01*
X223176075Y-103983097D01*
X223239063Y-103666434D01*
X223239063Y-103343566D01*
X223176075Y-103026903D01*
X223052519Y-102728613D01*
X222873144Y-102460159D01*
X222806984Y-102393999D01*
X222986804Y-102393999D01*
X223255156Y-102340621D01*
X223507938Y-102235915D01*
X223735435Y-102083906D01*
X223928906Y-101890435D01*
X224080915Y-101662938D01*
X224185621Y-101410156D01*
X224238999Y-101141804D01*
X224238999Y-100868196D01*
X224185621Y-100599844D01*
X224080915Y-100347062D01*
X223928906Y-100119565D01*
X223735435Y-99926094D01*
X223507938Y-99774085D01*
X223255156Y-99669379D01*
X222986804Y-99616001D01*
X222713196Y-99616001D01*
X222444844Y-99669379D01*
X222192062Y-99774085D01*
X221964565Y-99926094D01*
X221771094Y-100119565D01*
X221619085Y-100347062D01*
X221514379Y-100599844D01*
X221461001Y-100868196D01*
X221461001Y-101141804D01*
X221514379Y-101410156D01*
X221619085Y-101662938D01*
X221754726Y-101865938D01*
X221438567Y-101865938D01*
X221121904Y-101928926D01*
X220823614Y-102052482D01*
X220555160Y-102231857D01*
X220326858Y-102460159D01*
X220147483Y-102728613D01*
X220023927Y-103026903D01*
X219960939Y-103343566D01*
X198131196Y-103343566D01*
X194151363Y-99363733D01*
X194127501Y-99334657D01*
X194011471Y-99239434D01*
X193997932Y-99232197D01*
X205369401Y-99232197D01*
X205369401Y-99505805D01*
X205422779Y-99774157D01*
X205527485Y-100026939D01*
X205679494Y-100254436D01*
X205872965Y-100447907D01*
X206100462Y-100599916D01*
X206353244Y-100704622D01*
X206621596Y-100758000D01*
X206895204Y-100758000D01*
X207163556Y-100704622D01*
X207416338Y-100599916D01*
X207643835Y-100447907D01*
X207837306Y-100254436D01*
X207989315Y-100026939D01*
X208094021Y-99774157D01*
X208147399Y-99505805D01*
X208147399Y-99232197D01*
X211869403Y-99232197D01*
X211869403Y-99505805D01*
X211922781Y-99774157D01*
X212027487Y-100026939D01*
X212179496Y-100254436D01*
X212372967Y-100447907D01*
X212600464Y-100599916D01*
X212853246Y-100704622D01*
X213121598Y-100758000D01*
X213395206Y-100758000D01*
X213663558Y-100704622D01*
X213916340Y-100599916D01*
X214143837Y-100447907D01*
X214337308Y-100254436D01*
X214489317Y-100026939D01*
X214594023Y-99774157D01*
X214647401Y-99505805D01*
X214647401Y-99232197D01*
X214594023Y-98963845D01*
X214489317Y-98711063D01*
X214337308Y-98483566D01*
X214143837Y-98290095D01*
X213916340Y-98138086D01*
X213663558Y-98033380D01*
X213395206Y-97980002D01*
X213121598Y-97980002D01*
X212853246Y-98033380D01*
X212600464Y-98138086D01*
X212372967Y-98290095D01*
X212179496Y-98483566D01*
X212027487Y-98711063D01*
X211922781Y-98963845D01*
X211869403Y-99232197D01*
X208147399Y-99232197D01*
X208094021Y-98963845D01*
X207989315Y-98711063D01*
X207837306Y-98483566D01*
X207643835Y-98290095D01*
X207416338Y-98138086D01*
X207163556Y-98033380D01*
X206895204Y-97980002D01*
X206621596Y-97980002D01*
X206353244Y-98033380D01*
X206100462Y-98138086D01*
X205872965Y-98290095D01*
X205679494Y-98483566D01*
X205527485Y-98711063D01*
X205422779Y-98963845D01*
X205369401Y-99232197D01*
X193997932Y-99232197D01*
X193879094Y-99168677D01*
X193735457Y-99125105D01*
X193623505Y-99114079D01*
X193623502Y-99114079D01*
X193586079Y-99110393D01*
X193548656Y-99114079D01*
X193272952Y-99114079D01*
X193302991Y-99069123D01*
X193407395Y-98817069D01*
X193460620Y-98549491D01*
X193460620Y-98276669D01*
X193407395Y-98009091D01*
X193302991Y-97757037D01*
X193151419Y-97530194D01*
X192958506Y-97337281D01*
X192731663Y-97185709D01*
X192628747Y-97143080D01*
X192731663Y-97100451D01*
X192958506Y-96948879D01*
X193151419Y-96755966D01*
X193302991Y-96529123D01*
X193407395Y-96277069D01*
X193460620Y-96009491D01*
X193460620Y-95736669D01*
X193407395Y-95469091D01*
X193302991Y-95217037D01*
X193151419Y-94990194D01*
X192958506Y-94797281D01*
X192861101Y-94732196D01*
X205369401Y-94732196D01*
X205369401Y-95005804D01*
X205422779Y-95274156D01*
X205527485Y-95526938D01*
X205679494Y-95754435D01*
X205872965Y-95947906D01*
X206100462Y-96099915D01*
X206353244Y-96204621D01*
X206621596Y-96257999D01*
X206895204Y-96257999D01*
X207163556Y-96204621D01*
X207416338Y-96099915D01*
X207643835Y-95947906D01*
X207837306Y-95754435D01*
X207989315Y-95526938D01*
X208094021Y-95274156D01*
X208147399Y-95005804D01*
X208147399Y-94732196D01*
X208094021Y-94463844D01*
X207989315Y-94211062D01*
X207837306Y-93983565D01*
X207643835Y-93790094D01*
X207416338Y-93638085D01*
X207163556Y-93533379D01*
X206895204Y-93480001D01*
X206621596Y-93480001D01*
X206353244Y-93533379D01*
X206100462Y-93638085D01*
X205872965Y-93790094D01*
X205679494Y-93983565D01*
X205527485Y-94211062D01*
X205422779Y-94463844D01*
X205369401Y-94732196D01*
X192861101Y-94732196D01*
X192842137Y-94719525D01*
X192950102Y-94708892D01*
X193069800Y-94672582D01*
X193180114Y-94613617D01*
X193276805Y-94534265D01*
X193356157Y-94437574D01*
X193415122Y-94327260D01*
X193451432Y-94207562D01*
X193463692Y-94083080D01*
X193463692Y-92583080D01*
X193451432Y-92458598D01*
X193415122Y-92338900D01*
X193356157Y-92228586D01*
X193276805Y-92131895D01*
X193180114Y-92052543D01*
X193069800Y-91993578D01*
X192950102Y-91957268D01*
X192825620Y-91945008D01*
X191325620Y-91945008D01*
X191201138Y-91957268D01*
X191081440Y-91993578D01*
X190971126Y-92052543D01*
X190874435Y-92131895D01*
X190795083Y-92228586D01*
X190736118Y-92338900D01*
X190699808Y-92458598D01*
X190687548Y-92583080D01*
X190687548Y-94083080D01*
X190699808Y-94207562D01*
X190736118Y-94327260D01*
X190795083Y-94437574D01*
X190874435Y-94534265D01*
X190971126Y-94613617D01*
X191081440Y-94672582D01*
X191201138Y-94708892D01*
X191309103Y-94719525D01*
X191192734Y-94797281D01*
X190999821Y-94990194D01*
X190848249Y-95217037D01*
X190743845Y-95469091D01*
X190690620Y-95736669D01*
X190690620Y-96009491D01*
X190743845Y-96277069D01*
X190848249Y-96529123D01*
X190999821Y-96755966D01*
X191192734Y-96948879D01*
X191419577Y-97100451D01*
X191522493Y-97143080D01*
X191419577Y-97185709D01*
X191192734Y-97337281D01*
X190999821Y-97530194D01*
X190848249Y-97757037D01*
X190743845Y-98009091D01*
X190735515Y-98050970D01*
X183276541Y-90591996D01*
X196680201Y-90591996D01*
X196680201Y-90865604D01*
X196733579Y-91133956D01*
X196838285Y-91386738D01*
X196990294Y-91614235D01*
X197183765Y-91807706D01*
X197411262Y-91959715D01*
X197664044Y-92064421D01*
X197932396Y-92117799D01*
X198206004Y-92117799D01*
X198474356Y-92064421D01*
X198727138Y-91959715D01*
X198954635Y-91807706D01*
X199148106Y-91614235D01*
X199300115Y-91386738D01*
X199404821Y-91133956D01*
X199458199Y-90865604D01*
X199458199Y-90591996D01*
X201180202Y-90591996D01*
X201180202Y-90865604D01*
X201233580Y-91133956D01*
X201338286Y-91386738D01*
X201490295Y-91614235D01*
X201683766Y-91807706D01*
X201911263Y-91959715D01*
X202164045Y-92064421D01*
X202432397Y-92117799D01*
X202706005Y-92117799D01*
X202974357Y-92064421D01*
X203227139Y-91959715D01*
X203454636Y-91807706D01*
X203648107Y-91614235D01*
X203800116Y-91386738D01*
X203904822Y-91133956D01*
X203958200Y-90865604D01*
X203958200Y-90591996D01*
X203904822Y-90323644D01*
X203800116Y-90070862D01*
X203648107Y-89843365D01*
X203454636Y-89649894D01*
X203227139Y-89497885D01*
X202974357Y-89393179D01*
X202706005Y-89339801D01*
X202432397Y-89339801D01*
X202164045Y-89393179D01*
X201911263Y-89497885D01*
X201683766Y-89649894D01*
X201490295Y-89843365D01*
X201338286Y-90070862D01*
X201233580Y-90323644D01*
X201180202Y-90591996D01*
X199458199Y-90591996D01*
X199404821Y-90323644D01*
X199300115Y-90070862D01*
X199148106Y-89843365D01*
X198954635Y-89649894D01*
X198727138Y-89497885D01*
X198474356Y-89393179D01*
X198206004Y-89339801D01*
X197932396Y-89339801D01*
X197664044Y-89393179D01*
X197411262Y-89497885D01*
X197183765Y-89649894D01*
X196990294Y-89843365D01*
X196838285Y-90070862D01*
X196733579Y-90323644D01*
X196680201Y-90591996D01*
X183276541Y-90591996D01*
X176776539Y-84091994D01*
X196680201Y-84091994D01*
X196680201Y-84365602D01*
X196733579Y-84633954D01*
X196838285Y-84886736D01*
X196990294Y-85114233D01*
X197183765Y-85307704D01*
X197411262Y-85459713D01*
X197664044Y-85564419D01*
X197932396Y-85617797D01*
X198206004Y-85617797D01*
X198474356Y-85564419D01*
X198727138Y-85459713D01*
X198954635Y-85307704D01*
X199148106Y-85114233D01*
X199230583Y-84990798D01*
X199472660Y-84990798D01*
X199510083Y-84994484D01*
X199547506Y-84990798D01*
X199547509Y-84990798D01*
X199659461Y-84979772D01*
X199803098Y-84936200D01*
X199935475Y-84865443D01*
X200051505Y-84770220D01*
X200075367Y-84741144D01*
X200724517Y-84091994D01*
X201180202Y-84091994D01*
X201180202Y-84365602D01*
X201233580Y-84633954D01*
X201338286Y-84886736D01*
X201490295Y-85114233D01*
X201683766Y-85307704D01*
X201911263Y-85459713D01*
X202164045Y-85564419D01*
X202432397Y-85617797D01*
X202706005Y-85617797D01*
X202974357Y-85564419D01*
X203227139Y-85459713D01*
X203454636Y-85307704D01*
X203648107Y-85114233D01*
X203800116Y-84886736D01*
X203904822Y-84633954D01*
X203958200Y-84365602D01*
X203958200Y-84091994D01*
X203904822Y-83823642D01*
X203800116Y-83570860D01*
X203648107Y-83343363D01*
X203454636Y-83149892D01*
X203227139Y-82997883D01*
X202974357Y-82893177D01*
X202706005Y-82839799D01*
X202432397Y-82839799D01*
X202164045Y-82893177D01*
X201911263Y-82997883D01*
X201683766Y-83149892D01*
X201490295Y-83343363D01*
X201338286Y-83570860D01*
X201233580Y-83823642D01*
X201180202Y-84091994D01*
X200724517Y-84091994D01*
X205478159Y-79338352D01*
X205420379Y-79477845D01*
X205367001Y-79746197D01*
X205367001Y-80019805D01*
X205420379Y-80288157D01*
X205525085Y-80540939D01*
X205677094Y-80768436D01*
X205870565Y-80961907D01*
X206098062Y-81113916D01*
X206350844Y-81218622D01*
X206619196Y-81272000D01*
X206892804Y-81272000D01*
X207161156Y-81218622D01*
X207413938Y-81113916D01*
X207641435Y-80961907D01*
X207834906Y-80768436D01*
X207986915Y-80540939D01*
X208091621Y-80288157D01*
X208144999Y-80019805D01*
X208144999Y-79746197D01*
X211867003Y-79746197D01*
X211867003Y-80019805D01*
X211920381Y-80288157D01*
X212025087Y-80540939D01*
X212177096Y-80768436D01*
X212370567Y-80961907D01*
X212598064Y-81113916D01*
X212850846Y-81218622D01*
X213119198Y-81272000D01*
X213392806Y-81272000D01*
X213661158Y-81218622D01*
X213913940Y-81113916D01*
X214141437Y-80961907D01*
X214334908Y-80768436D01*
X214486917Y-80540939D01*
X214591623Y-80288157D01*
X214645001Y-80019805D01*
X214645001Y-79746197D01*
X214591623Y-79477845D01*
X214486917Y-79225063D01*
X214334908Y-78997566D01*
X214141437Y-78804095D01*
X213913940Y-78652086D01*
X213661158Y-78547380D01*
X213392806Y-78494002D01*
X213119198Y-78494002D01*
X212850846Y-78547380D01*
X212598064Y-78652086D01*
X212370567Y-78804095D01*
X212177096Y-78997566D01*
X212025087Y-79225063D01*
X211920381Y-79477845D01*
X211867003Y-79746197D01*
X208144999Y-79746197D01*
X208091621Y-79477845D01*
X207986915Y-79225063D01*
X207834906Y-78997566D01*
X207641435Y-78804095D01*
X207413938Y-78652086D01*
X207161156Y-78547380D01*
X206892804Y-78494002D01*
X206619196Y-78494002D01*
X206350844Y-78547380D01*
X206211351Y-78605160D01*
X208671511Y-76145000D01*
X212094619Y-76145000D01*
X212177096Y-76268435D01*
X212370567Y-76461906D01*
X212598064Y-76613915D01*
X212850846Y-76718621D01*
X213119198Y-76771999D01*
X213392806Y-76771999D01*
X213538409Y-76743037D01*
X216611200Y-79815829D01*
X216611201Y-83065015D01*
X216487765Y-83147492D01*
X216294294Y-83340963D01*
X216142285Y-83568460D01*
X216037579Y-83821242D01*
X215984201Y-84089594D01*
X215984201Y-84363202D01*
X216013163Y-84508804D01*
X212746051Y-87775917D01*
X212716981Y-87799774D01*
X212693124Y-87828844D01*
X212693123Y-87828845D01*
X212621757Y-87915804D01*
X212551001Y-88048181D01*
X212507429Y-88191818D01*
X212492716Y-88341196D01*
X212496403Y-88378629D01*
X212496402Y-93707617D01*
X212372967Y-93790094D01*
X212179496Y-93983565D01*
X212027487Y-94211062D01*
X211922781Y-94463844D01*
X211869403Y-94732196D01*
X211869403Y-95005804D01*
X211922781Y-95274156D01*
X212027487Y-95526938D01*
X212179496Y-95754435D01*
X212372967Y-95947906D01*
X212600464Y-96099915D01*
X212853246Y-96204621D01*
X213121598Y-96257999D01*
X213395206Y-96257999D01*
X213547977Y-96227611D01*
X213587008Y-96259643D01*
X213719385Y-96330400D01*
X213863022Y-96373972D01*
X213974974Y-96384998D01*
X213974976Y-96384998D01*
X214012399Y-96388684D01*
X214049822Y-96384998D01*
X221652369Y-96384998D01*
X225989964Y-100722594D01*
X225961002Y-100868196D01*
X225961002Y-101141804D01*
X226014380Y-101410156D01*
X226119086Y-101662938D01*
X226271095Y-101890435D01*
X226464566Y-102083906D01*
X226692063Y-102235915D01*
X226944845Y-102340621D01*
X227213197Y-102393999D01*
X227393017Y-102393999D01*
X227326857Y-102460159D01*
X227147482Y-102728613D01*
X227023926Y-103026903D01*
X226960938Y-103343566D01*
X226960938Y-103666434D01*
X227023926Y-103983097D01*
X227147482Y-104281387D01*
X227326857Y-104549841D01*
X227555159Y-104778143D01*
X227823613Y-104957518D01*
X228121903Y-105081074D01*
X228438566Y-105144062D01*
X228761434Y-105144062D01*
X229078097Y-105081074D01*
X229376387Y-104957518D01*
X229644841Y-104778143D01*
X229873143Y-104549841D01*
X230052518Y-104281387D01*
X230176074Y-103983097D01*
X230239062Y-103666434D01*
X230239062Y-103343566D01*
X230176074Y-103026903D01*
X230052518Y-102728613D01*
X229873143Y-102460159D01*
X229644841Y-102231857D01*
X229376387Y-102052482D01*
X229078097Y-101928926D01*
X228761434Y-101865938D01*
X228445275Y-101865938D01*
X228580916Y-101662938D01*
X228685622Y-101410156D01*
X228739000Y-101141804D01*
X228739000Y-100868196D01*
X228685622Y-100599844D01*
X228580916Y-100347062D01*
X228428907Y-100119565D01*
X228235436Y-99926094D01*
X228007939Y-99774085D01*
X227755157Y-99669379D01*
X227486805Y-99616001D01*
X227213197Y-99616001D01*
X227067595Y-99644963D01*
X222533283Y-95110652D01*
X222509421Y-95081576D01*
X222393391Y-94986353D01*
X222261014Y-94915596D01*
X222117377Y-94872024D01*
X222005425Y-94860998D01*
X222005422Y-94860998D01*
X221967999Y-94857312D01*
X221930576Y-94860998D01*
X214647401Y-94860998D01*
X214647401Y-94732196D01*
X214594023Y-94463844D01*
X214489317Y-94211062D01*
X214337308Y-93983565D01*
X214143837Y-93790094D01*
X214020402Y-93707617D01*
X214020402Y-90589596D01*
X215984201Y-90589596D01*
X215984201Y-90863204D01*
X216037579Y-91131556D01*
X216142285Y-91384338D01*
X216294294Y-91611835D01*
X216487765Y-91805306D01*
X216715262Y-91957315D01*
X216968044Y-92062021D01*
X217236396Y-92115399D01*
X217510004Y-92115399D01*
X217778356Y-92062021D01*
X218031138Y-91957315D01*
X218258635Y-91805306D01*
X218452106Y-91611835D01*
X218604115Y-91384338D01*
X218708821Y-91131556D01*
X218762199Y-90863204D01*
X218762199Y-90589596D01*
X220484202Y-90589596D01*
X220484202Y-90863204D01*
X220537580Y-91131556D01*
X220642286Y-91384338D01*
X220794295Y-91611835D01*
X220987766Y-91805306D01*
X221215263Y-91957315D01*
X221468045Y-92062021D01*
X221736397Y-92115399D01*
X222010005Y-92115399D01*
X222278357Y-92062021D01*
X222531139Y-91957315D01*
X222758636Y-91805306D01*
X222952107Y-91611835D01*
X223104116Y-91384338D01*
X223208822Y-91131556D01*
X223262200Y-90863204D01*
X223262200Y-90589596D01*
X223208822Y-90321244D01*
X223104116Y-90068462D01*
X222952107Y-89840965D01*
X222758636Y-89647494D01*
X222531139Y-89495485D01*
X222278357Y-89390779D01*
X222010005Y-89337401D01*
X221736397Y-89337401D01*
X221468045Y-89390779D01*
X221215263Y-89495485D01*
X220987766Y-89647494D01*
X220794295Y-89840965D01*
X220642286Y-90068462D01*
X220537580Y-90321244D01*
X220484202Y-90589596D01*
X218762199Y-90589596D01*
X218708821Y-90321244D01*
X218604115Y-90068462D01*
X218452106Y-89840965D01*
X218258635Y-89647494D01*
X218031138Y-89495485D01*
X217778356Y-89390779D01*
X217510004Y-89337401D01*
X217236396Y-89337401D01*
X216968044Y-89390779D01*
X216715262Y-89495485D01*
X216487765Y-89647494D01*
X216294294Y-89840965D01*
X216142285Y-90068462D01*
X216037579Y-90321244D01*
X215984201Y-90589596D01*
X214020402Y-90589596D01*
X214020402Y-88656826D01*
X217090794Y-85586435D01*
X217236396Y-85615397D01*
X217510004Y-85615397D01*
X217778356Y-85562019D01*
X218031138Y-85457313D01*
X218258635Y-85305304D01*
X218452106Y-85111833D01*
X218604115Y-84884336D01*
X218708821Y-84631554D01*
X218762199Y-84363202D01*
X218762199Y-84089594D01*
X220484202Y-84089594D01*
X220484202Y-84363202D01*
X220537580Y-84631554D01*
X220642286Y-84884336D01*
X220794295Y-85111833D01*
X220987766Y-85305304D01*
X221215263Y-85457313D01*
X221468045Y-85562019D01*
X221736397Y-85615397D01*
X222010005Y-85615397D01*
X222278357Y-85562019D01*
X222531139Y-85457313D01*
X222758636Y-85305304D01*
X222952107Y-85111833D01*
X223104116Y-84884336D01*
X223208822Y-84631554D01*
X223262200Y-84363202D01*
X223262200Y-84089594D01*
X223208822Y-83821242D01*
X223104116Y-83568460D01*
X222952107Y-83340963D01*
X222758636Y-83147492D01*
X222531139Y-82995483D01*
X222278357Y-82890777D01*
X222010005Y-82837399D01*
X221736397Y-82837399D01*
X221468045Y-82890777D01*
X221215263Y-82995483D01*
X220987766Y-83147492D01*
X220794295Y-83340963D01*
X220642286Y-83568460D01*
X220537580Y-83821242D01*
X220484202Y-84089594D01*
X218762199Y-84089594D01*
X218708821Y-83821242D01*
X218604115Y-83568460D01*
X218452106Y-83340963D01*
X218258635Y-83147492D01*
X218135200Y-83065015D01*
X218135200Y-79537620D01*
X218138886Y-79500197D01*
X218133079Y-79441241D01*
X218124174Y-79350820D01*
X218080602Y-79207183D01*
X218009845Y-79074806D01*
X217914622Y-78958776D01*
X217885553Y-78934920D01*
X214616039Y-75665407D01*
X214645001Y-75519804D01*
X214645001Y-75246196D01*
X214591623Y-74977844D01*
X214486917Y-74725062D01*
X214334908Y-74497565D01*
X214141437Y-74304094D01*
X213913940Y-74152085D01*
X213661158Y-74047379D01*
X213392806Y-73994001D01*
X213119198Y-73994001D01*
X212850846Y-74047379D01*
X212598064Y-74152085D01*
X212370567Y-74304094D01*
X212177096Y-74497565D01*
X212094619Y-74621000D01*
X208393304Y-74621000D01*
X208355881Y-74617314D01*
X208318458Y-74621000D01*
X208318455Y-74621000D01*
X208206503Y-74632026D01*
X208062866Y-74675598D01*
X208031993Y-74692100D01*
X207982549Y-74718528D01*
X207834906Y-74497565D01*
X207641435Y-74304094D01*
X207413938Y-74152085D01*
X207161156Y-74047379D01*
X206892804Y-73994001D01*
X206619196Y-73994001D01*
X206350844Y-74047379D01*
X206098062Y-74152085D01*
X205870565Y-74304094D01*
X205677094Y-74497565D01*
X205525085Y-74725062D01*
X205420379Y-74977844D01*
X205367001Y-75246196D01*
X205367001Y-75519804D01*
X205420379Y-75788156D01*
X205525085Y-76040938D01*
X205677094Y-76268435D01*
X205870565Y-76461906D01*
X206067654Y-76593597D01*
X199216111Y-83445140D01*
X199148106Y-83343363D01*
X198954635Y-83149892D01*
X198727138Y-82997883D01*
X198474356Y-82893177D01*
X198206004Y-82839799D01*
X197932396Y-82839799D01*
X197664044Y-82893177D01*
X197411262Y-82997883D01*
X197183765Y-83149892D01*
X196990294Y-83343363D01*
X196838285Y-83570860D01*
X196733579Y-83823642D01*
X196680201Y-84091994D01*
X176776539Y-84091994D01*
X167357829Y-74673284D01*
X167469103Y-74562010D01*
X167623957Y-74330254D01*
X167640000Y-74291523D01*
X167656043Y-74330254D01*
X167810897Y-74562010D01*
X168007990Y-74759103D01*
X168239746Y-74913957D01*
X168497260Y-75020623D01*
X168770635Y-75075000D01*
X169049365Y-75075000D01*
X169322740Y-75020623D01*
X169580254Y-74913957D01*
X169812010Y-74759103D01*
X170009103Y-74562010D01*
X170163957Y-74330254D01*
X170180000Y-74291523D01*
X170196043Y-74330254D01*
X170350897Y-74562010D01*
X170547990Y-74759103D01*
X170779746Y-74913957D01*
X171037260Y-75020623D01*
X171310635Y-75075000D01*
X171589365Y-75075000D01*
X171862740Y-75020623D01*
X172120254Y-74913957D01*
X172352010Y-74759103D01*
X172549103Y-74562010D01*
X172703957Y-74330254D01*
X172720000Y-74291523D01*
X172736043Y-74330254D01*
X172890897Y-74562010D01*
X173087990Y-74759103D01*
X173319746Y-74913957D01*
X173577260Y-75020623D01*
X173850635Y-75075000D01*
X174129365Y-75075000D01*
X174402740Y-75020623D01*
X174660254Y-74913957D01*
X174892010Y-74759103D01*
X175089103Y-74562010D01*
X175243957Y-74330254D01*
X175260000Y-74291523D01*
X175276043Y-74330254D01*
X175430897Y-74562010D01*
X175627990Y-74759103D01*
X175859746Y-74913957D01*
X176117260Y-75020623D01*
X176390635Y-75075000D01*
X176669365Y-75075000D01*
X176942740Y-75020623D01*
X177200254Y-74913957D01*
X177432010Y-74759103D01*
X177552692Y-74638421D01*
X178271184Y-74638421D01*
X178340345Y-74880349D01*
X178592443Y-74999248D01*
X178862894Y-75066681D01*
X179141303Y-75080057D01*
X179416972Y-75038860D01*
X179679308Y-74944675D01*
X179799655Y-74880349D01*
X179868816Y-74638421D01*
X179070000Y-73839605D01*
X178271184Y-74638421D01*
X177552692Y-74638421D01*
X177629103Y-74562010D01*
X177783957Y-74330254D01*
X177798777Y-74294475D01*
X177849651Y-74389655D01*
X178091579Y-74458816D01*
X178890395Y-73660000D01*
X179249605Y-73660000D01*
X180048421Y-74458816D01*
X180290349Y-74389655D01*
X180409248Y-74137557D01*
X180476681Y-73867106D01*
X180490057Y-73588697D01*
X180448860Y-73313028D01*
X180354675Y-73050692D01*
X180290349Y-72930345D01*
X180048421Y-72861184D01*
X179249605Y-73660000D01*
X178890395Y-73660000D01*
X178091579Y-72861184D01*
X177849651Y-72930345D01*
X177801575Y-73032279D01*
X177783957Y-72989746D01*
X177629103Y-72757990D01*
X177552692Y-72681579D01*
X178271184Y-72681579D01*
X179070000Y-73480395D01*
X179868816Y-72681579D01*
X179799655Y-72439651D01*
X179731434Y-72407475D01*
X189133000Y-72407475D01*
X189133000Y-72926525D01*
X189234261Y-73435601D01*
X189432893Y-73915141D01*
X189721262Y-74346715D01*
X190088285Y-74713738D01*
X190519859Y-75002107D01*
X190999399Y-75200739D01*
X191508475Y-75302000D01*
X192027525Y-75302000D01*
X192536601Y-75200739D01*
X193016141Y-75002107D01*
X193447715Y-74713738D01*
X193814738Y-74346715D01*
X194103107Y-73915141D01*
X194301739Y-73435601D01*
X194403000Y-72926525D01*
X194403000Y-72407475D01*
X194301739Y-71898399D01*
X194103107Y-71418859D01*
X193814738Y-70987285D01*
X193447715Y-70620262D01*
X193016141Y-70331893D01*
X192536601Y-70133261D01*
X192027525Y-70032000D01*
X191508475Y-70032000D01*
X190999399Y-70133261D01*
X190519859Y-70331893D01*
X190088285Y-70620262D01*
X189721262Y-70987285D01*
X189432893Y-71418859D01*
X189234261Y-71898399D01*
X189133000Y-72407475D01*
X179731434Y-72407475D01*
X179547557Y-72320752D01*
X179277106Y-72253319D01*
X178998697Y-72239943D01*
X178723028Y-72281140D01*
X178460692Y-72375325D01*
X178340345Y-72439651D01*
X178271184Y-72681579D01*
X177552692Y-72681579D01*
X177432010Y-72560897D01*
X177200254Y-72406043D01*
X176942740Y-72299377D01*
X176669365Y-72245000D01*
X176390635Y-72245000D01*
X176117260Y-72299377D01*
X175859746Y-72406043D01*
X175627990Y-72560897D01*
X175430897Y-72757990D01*
X175276043Y-72989746D01*
X175260000Y-73028477D01*
X175243957Y-72989746D01*
X175089103Y-72757990D01*
X174892010Y-72560897D01*
X174660254Y-72406043D01*
X174402740Y-72299377D01*
X174129365Y-72245000D01*
X173850635Y-72245000D01*
X173577260Y-72299377D01*
X173319746Y-72406043D01*
X173087990Y-72560897D01*
X172890897Y-72757990D01*
X172736043Y-72989746D01*
X172720000Y-73028477D01*
X172703957Y-72989746D01*
X172549103Y-72757990D01*
X172352010Y-72560897D01*
X172120254Y-72406043D01*
X171862740Y-72299377D01*
X171589365Y-72245000D01*
X171310635Y-72245000D01*
X171037260Y-72299377D01*
X170779746Y-72406043D01*
X170547990Y-72560897D01*
X170350897Y-72757990D01*
X170196043Y-72989746D01*
X170180000Y-73028477D01*
X170163957Y-72989746D01*
X170009103Y-72757990D01*
X169812010Y-72560897D01*
X169580254Y-72406043D01*
X169322740Y-72299377D01*
X169049365Y-72245000D01*
X168770635Y-72245000D01*
X168497260Y-72299377D01*
X168239746Y-72406043D01*
X168007990Y-72560897D01*
X167810897Y-72757990D01*
X167656043Y-72989746D01*
X167640000Y-73028477D01*
X167623957Y-72989746D01*
X167469103Y-72757990D01*
X167272010Y-72560897D01*
X167040254Y-72406043D01*
X166782740Y-72299377D01*
X166509365Y-72245000D01*
X166230635Y-72245000D01*
X165957260Y-72299377D01*
X165699746Y-72406043D01*
X165467990Y-72560897D01*
X165270897Y-72757990D01*
X165116043Y-72989746D01*
X165101223Y-73025525D01*
X165050349Y-72930345D01*
X164808421Y-72861184D01*
X164009605Y-73660000D01*
X163650395Y-73660000D01*
X162851579Y-72861184D01*
X162609651Y-72930345D01*
X162561575Y-73032279D01*
X162543957Y-72989746D01*
X162389103Y-72757990D01*
X162312692Y-72681579D01*
X163031184Y-72681579D01*
X163830000Y-73480395D01*
X164628816Y-72681579D01*
X164559655Y-72439651D01*
X164307557Y-72320752D01*
X164037106Y-72253319D01*
X163758697Y-72239943D01*
X163483028Y-72281140D01*
X163220692Y-72375325D01*
X163100345Y-72439651D01*
X163031184Y-72681579D01*
X162312692Y-72681579D01*
X162192010Y-72560897D01*
X161960254Y-72406043D01*
X161702740Y-72299377D01*
X161429365Y-72245000D01*
X161150635Y-72245000D01*
X160877260Y-72299377D01*
X160619746Y-72406043D01*
X160387990Y-72560897D01*
X160190897Y-72757990D01*
X160036043Y-72989746D01*
X160020000Y-73028477D01*
X160003957Y-72989746D01*
X159849103Y-72757990D01*
X159652010Y-72560897D01*
X159420254Y-72406043D01*
X159162740Y-72299377D01*
X158889365Y-72245000D01*
X158610635Y-72245000D01*
X158337260Y-72299377D01*
X158079746Y-72406043D01*
X157847990Y-72560897D01*
X157650897Y-72757990D01*
X157496043Y-72989746D01*
X157480000Y-73028477D01*
X157463957Y-72989746D01*
X157309103Y-72757990D01*
X157112010Y-72560897D01*
X156880254Y-72406043D01*
X156622740Y-72299377D01*
X156349365Y-72245000D01*
X156070635Y-72245000D01*
X155797260Y-72299377D01*
X155539746Y-72406043D01*
X155307990Y-72560897D01*
X155110897Y-72757990D01*
X154956043Y-72989746D01*
X154940000Y-73028477D01*
X154923957Y-72989746D01*
X154769103Y-72757990D01*
X154572010Y-72560897D01*
X154340254Y-72406043D01*
X154082740Y-72299377D01*
X153809365Y-72245000D01*
X153530635Y-72245000D01*
X153365481Y-72277851D01*
X150962630Y-69875000D01*
X194680239Y-69875000D01*
X194680246Y-69874999D01*
X206224073Y-69875060D01*
G36*
X146098046Y-97645677D02*
G01*
X145978697Y-97639943D01*
X145703028Y-97681140D01*
X145440692Y-97775325D01*
X145320345Y-97839651D01*
X145251184Y-98081579D01*
X146050000Y-98880395D01*
X146064143Y-98866253D01*
X146243748Y-99045858D01*
X146229605Y-99060000D01*
X147028421Y-99858816D01*
X147270349Y-99789655D01*
X147318425Y-99687721D01*
X147336043Y-99730254D01*
X147490897Y-99962010D01*
X147687990Y-100159103D01*
X147919746Y-100313957D01*
X148177260Y-100420623D01*
X148450635Y-100475000D01*
X148729365Y-100475000D01*
X149002740Y-100420623D01*
X149260254Y-100313957D01*
X149492010Y-100159103D01*
X149689103Y-99962010D01*
X149843957Y-99730254D01*
X149860000Y-99691523D01*
X149876043Y-99730254D01*
X150030897Y-99962010D01*
X150227990Y-100159103D01*
X150459746Y-100313957D01*
X150717260Y-100420623D01*
X150990635Y-100475000D01*
X151269365Y-100475000D01*
X151542740Y-100420623D01*
X151800254Y-100313957D01*
X152032010Y-100159103D01*
X152229103Y-99962010D01*
X152383957Y-99730254D01*
X152400000Y-99691523D01*
X152416043Y-99730254D01*
X152570897Y-99962010D01*
X152767990Y-100159103D01*
X152999746Y-100313957D01*
X153257260Y-100420623D01*
X153530635Y-100475000D01*
X153717369Y-100475000D01*
X139666969Y-114525401D01*
X110656343Y-114525401D01*
X110704977Y-114407988D01*
X110769400Y-114084111D01*
X110769400Y-113753889D01*
X110704977Y-113430012D01*
X110578606Y-113124927D01*
X110395145Y-112850358D01*
X110161642Y-112616855D01*
X109887073Y-112433394D01*
X109581988Y-112307023D01*
X109258111Y-112242600D01*
X108927889Y-112242600D01*
X108604012Y-112307023D01*
X108298927Y-112433394D01*
X108024358Y-112616855D01*
X107790855Y-112850358D01*
X107607394Y-113124927D01*
X107481023Y-113430012D01*
X107416600Y-113753889D01*
X107416600Y-114084111D01*
X107481023Y-114407988D01*
X107529657Y-114525401D01*
X99416402Y-114525401D01*
X99453000Y-114341411D01*
X99453000Y-114068589D01*
X99399775Y-113801011D01*
X99295371Y-113548957D01*
X99143799Y-113322114D01*
X98950886Y-113129201D01*
X98724043Y-112977629D01*
X98621127Y-112935000D01*
X98724043Y-112892371D01*
X98950886Y-112740799D01*
X99143799Y-112547886D01*
X99295371Y-112321043D01*
X99399775Y-112068989D01*
X99453000Y-111801411D01*
X99453000Y-111528589D01*
X99399775Y-111261011D01*
X99295371Y-111008957D01*
X99143799Y-110782114D01*
X98950886Y-110589201D01*
X98724043Y-110437629D01*
X98621127Y-110395000D01*
X98724043Y-110352371D01*
X98950886Y-110200799D01*
X99143799Y-110007886D01*
X99295371Y-109781043D01*
X99399775Y-109528989D01*
X99453000Y-109261411D01*
X99453000Y-108988589D01*
X99399775Y-108721011D01*
X99295371Y-108468957D01*
X99143799Y-108242114D01*
X98950886Y-108049201D01*
X98724043Y-107897629D01*
X98621127Y-107855000D01*
X98724043Y-107812371D01*
X98950886Y-107660799D01*
X99143799Y-107467886D01*
X99295371Y-107241043D01*
X99399775Y-106988989D01*
X99453000Y-106721411D01*
X99453000Y-106448589D01*
X99399775Y-106181011D01*
X99295371Y-105928957D01*
X99143799Y-105702114D01*
X98950886Y-105509201D01*
X98724043Y-105357629D01*
X98621127Y-105315000D01*
X98724043Y-105272371D01*
X98950886Y-105120799D01*
X99143799Y-104927886D01*
X99295371Y-104701043D01*
X99399775Y-104448989D01*
X99453000Y-104181411D01*
X99453000Y-103908589D01*
X99417476Y-103729999D01*
X116426567Y-103729999D01*
X116271859Y-103794081D01*
X115855844Y-104072053D01*
X115502053Y-104425844D01*
X115224081Y-104841859D01*
X115032611Y-105304109D01*
X114935000Y-105794832D01*
X114935000Y-106295168D01*
X115032611Y-106785891D01*
X115224081Y-107248141D01*
X115502053Y-107664156D01*
X115855844Y-108017947D01*
X116271859Y-108295919D01*
X116734109Y-108487389D01*
X117224832Y-108585000D01*
X117725168Y-108585000D01*
X118215891Y-108487389D01*
X118678141Y-108295919D01*
X119094156Y-108017947D01*
X119447947Y-107664156D01*
X119725919Y-107248141D01*
X119917389Y-106785891D01*
X120015000Y-106295168D01*
X120015000Y-105794832D01*
X119917389Y-105304109D01*
X119725919Y-104841859D01*
X119447947Y-104425844D01*
X119094156Y-104072053D01*
X118678141Y-103794081D01*
X118523433Y-103729999D01*
X144873328Y-103729999D01*
X144933744Y-103770368D01*
X145118644Y-103846956D01*
X145314933Y-103886000D01*
X145515067Y-103886000D01*
X145711356Y-103846956D01*
X145896256Y-103770368D01*
X146062662Y-103659179D01*
X146204179Y-103517662D01*
X146315368Y-103351256D01*
X146391956Y-103166356D01*
X146431000Y-102970067D01*
X146431000Y-102769933D01*
X146391956Y-102573644D01*
X146315368Y-102388744D01*
X146204179Y-102222338D01*
X146062662Y-102080821D01*
X145896256Y-101969632D01*
X145711356Y-101893044D01*
X145515067Y-101854000D01*
X145314933Y-101854000D01*
X145118644Y-101893044D01*
X144933744Y-101969632D01*
X144767338Y-102080821D01*
X144642160Y-102205999D01*
X99213214Y-102205999D01*
X99295371Y-102083043D01*
X99399775Y-101830989D01*
X99453000Y-101563411D01*
X99453000Y-101290589D01*
X99399775Y-101023011D01*
X99295371Y-100770957D01*
X99143799Y-100544114D01*
X98950886Y-100351201D01*
X98724043Y-100199629D01*
X98621127Y-100157000D01*
X98724043Y-100114371D01*
X98950886Y-99962799D01*
X99091685Y-99822000D01*
X132157346Y-99822000D01*
X132250897Y-99962010D01*
X132447990Y-100159103D01*
X132679746Y-100313957D01*
X132937260Y-100420623D01*
X133210635Y-100475000D01*
X133489365Y-100475000D01*
X133762740Y-100420623D01*
X134020254Y-100313957D01*
X134252010Y-100159103D01*
X134449103Y-99962010D01*
X134603957Y-99730254D01*
X134620000Y-99691523D01*
X134636043Y-99730254D01*
X134790897Y-99962010D01*
X134987990Y-100159103D01*
X135219746Y-100313957D01*
X135477260Y-100420623D01*
X135750635Y-100475000D01*
X136029365Y-100475000D01*
X136302740Y-100420623D01*
X136560254Y-100313957D01*
X136792010Y-100159103D01*
X136989103Y-99962010D01*
X137143957Y-99730254D01*
X137160000Y-99691523D01*
X137176043Y-99730254D01*
X137330897Y-99962010D01*
X137527990Y-100159103D01*
X137759746Y-100313957D01*
X138017260Y-100420623D01*
X138290635Y-100475000D01*
X138569365Y-100475000D01*
X138842740Y-100420623D01*
X139100254Y-100313957D01*
X139332010Y-100159103D01*
X139529103Y-99962010D01*
X139683957Y-99730254D01*
X139700000Y-99691523D01*
X139716043Y-99730254D01*
X139870897Y-99962010D01*
X140067990Y-100159103D01*
X140299746Y-100313957D01*
X140557260Y-100420623D01*
X140830635Y-100475000D01*
X141109365Y-100475000D01*
X141382740Y-100420623D01*
X141640254Y-100313957D01*
X141872010Y-100159103D01*
X142069103Y-99962010D01*
X142223957Y-99730254D01*
X142240000Y-99691523D01*
X142256043Y-99730254D01*
X142410897Y-99962010D01*
X142607990Y-100159103D01*
X142839746Y-100313957D01*
X143097260Y-100420623D01*
X143370635Y-100475000D01*
X143649365Y-100475000D01*
X143922740Y-100420623D01*
X144180254Y-100313957D01*
X144412010Y-100159103D01*
X144532692Y-100038421D01*
X145251184Y-100038421D01*
X145320345Y-100280349D01*
X145572443Y-100399248D01*
X145842894Y-100466681D01*
X146121303Y-100480057D01*
X146396972Y-100438860D01*
X146659308Y-100344675D01*
X146779655Y-100280349D01*
X146848816Y-100038421D01*
X146050000Y-99239605D01*
X145251184Y-100038421D01*
X144532692Y-100038421D01*
X144609103Y-99962010D01*
X144763957Y-99730254D01*
X144778777Y-99694475D01*
X144829651Y-99789655D01*
X145071579Y-99858816D01*
X145870395Y-99060000D01*
X145071579Y-98261184D01*
X144829651Y-98330345D01*
X144781575Y-98432279D01*
X144763957Y-98389746D01*
X144609103Y-98157990D01*
X144412010Y-97960897D01*
X144180254Y-97806043D01*
X143922740Y-97699377D01*
X143649365Y-97645000D01*
X143370635Y-97645000D01*
X143205480Y-97677851D01*
X142968283Y-97440654D01*
X142944421Y-97411577D01*
X142828391Y-97316354D01*
X142696014Y-97245597D01*
X142552377Y-97202025D01*
X142440425Y-97190999D01*
X142440422Y-97190999D01*
X142402999Y-97187313D01*
X142365576Y-97190999D01*
X115015668Y-97190999D01*
X111805699Y-93981031D01*
X112039759Y-93824637D01*
X112239637Y-93624759D01*
X112396680Y-93389727D01*
X112504853Y-93128574D01*
X112518684Y-93059039D01*
X117353096Y-93059039D01*
X117393754Y-93193087D01*
X117513963Y-93447420D01*
X117681481Y-93673414D01*
X117889869Y-93862385D01*
X118131119Y-94007070D01*
X118395960Y-94101909D01*
X118618000Y-93980624D01*
X118618000Y-92837000D01*
X118872000Y-92837000D01*
X118872000Y-93980624D01*
X119094040Y-94101909D01*
X119358881Y-94007070D01*
X119600131Y-93862385D01*
X119808519Y-93673414D01*
X119976037Y-93447420D01*
X120096246Y-93193087D01*
X120136904Y-93059039D01*
X120014915Y-92837000D01*
X118872000Y-92837000D01*
X118618000Y-92837000D01*
X117475085Y-92837000D01*
X117353096Y-93059039D01*
X112518684Y-93059039D01*
X112560000Y-92851335D01*
X112560000Y-92568665D01*
X112518685Y-92360961D01*
X117353096Y-92360961D01*
X117475085Y-92583000D01*
X118618000Y-92583000D01*
X118618000Y-91439376D01*
X118872000Y-91439376D01*
X118872000Y-92583000D01*
X120014915Y-92583000D01*
X120022790Y-92568665D01*
X120485000Y-92568665D01*
X120485000Y-92851335D01*
X120540147Y-93128574D01*
X120648320Y-93389727D01*
X120805363Y-93624759D01*
X121005241Y-93824637D01*
X121240273Y-93981680D01*
X121501426Y-94089853D01*
X121778665Y-94145000D01*
X122061335Y-94145000D01*
X122241527Y-94109157D01*
X124079000Y-95946631D01*
X124079000Y-95985067D01*
X124118044Y-96181356D01*
X124194632Y-96366256D01*
X124305821Y-96532662D01*
X124447338Y-96674179D01*
X124613744Y-96785368D01*
X124798644Y-96861956D01*
X124994933Y-96901000D01*
X125195067Y-96901000D01*
X125391356Y-96861956D01*
X125576256Y-96785368D01*
X125742662Y-96674179D01*
X125884179Y-96532662D01*
X125995368Y-96366256D01*
X126071956Y-96181356D01*
X126111000Y-95985067D01*
X126111000Y-95784933D01*
X126071956Y-95588644D01*
X125995368Y-95403744D01*
X125884179Y-95237338D01*
X125742662Y-95095821D01*
X125576256Y-94984632D01*
X125391356Y-94908044D01*
X125195067Y-94869000D01*
X125156631Y-94869000D01*
X123346670Y-93059039D01*
X128148096Y-93059039D01*
X128188754Y-93193087D01*
X128308963Y-93447420D01*
X128476481Y-93673414D01*
X128684869Y-93862385D01*
X128926119Y-94007070D01*
X129190960Y-94101909D01*
X129413000Y-93980624D01*
X129413000Y-92837000D01*
X129667000Y-92837000D01*
X129667000Y-93980624D01*
X129889040Y-94101909D01*
X130153881Y-94007070D01*
X130395131Y-93862385D01*
X130603519Y-93673414D01*
X130771037Y-93447420D01*
X130891246Y-93193087D01*
X130931904Y-93059039D01*
X130809915Y-92837000D01*
X129667000Y-92837000D01*
X129413000Y-92837000D01*
X128270085Y-92837000D01*
X128148096Y-93059039D01*
X123346670Y-93059039D01*
X123319157Y-93031527D01*
X123355000Y-92851335D01*
X123355000Y-92568665D01*
X123313685Y-92360961D01*
X128148096Y-92360961D01*
X128270085Y-92583000D01*
X129413000Y-92583000D01*
X129413000Y-91439376D01*
X129667000Y-91439376D01*
X129667000Y-92583000D01*
X130809915Y-92583000D01*
X130931904Y-92360961D01*
X130891246Y-92226913D01*
X130771037Y-91972580D01*
X130603519Y-91746586D01*
X130395131Y-91557615D01*
X130153881Y-91412930D01*
X129889040Y-91318091D01*
X129667000Y-91439376D01*
X129413000Y-91439376D01*
X129190960Y-91318091D01*
X128926119Y-91412930D01*
X128684869Y-91557615D01*
X128476481Y-91746586D01*
X128308963Y-91972580D01*
X128188754Y-92226913D01*
X128148096Y-92360961D01*
X123313685Y-92360961D01*
X123299853Y-92291426D01*
X123191680Y-92030273D01*
X123034637Y-91795241D01*
X122834759Y-91595363D01*
X122599727Y-91438320D01*
X122338574Y-91330147D01*
X122061335Y-91275000D01*
X121778665Y-91275000D01*
X121501426Y-91330147D01*
X121240273Y-91438320D01*
X121005241Y-91595363D01*
X120805363Y-91795241D01*
X120648320Y-92030273D01*
X120540147Y-92291426D01*
X120485000Y-92568665D01*
X120022790Y-92568665D01*
X120136904Y-92360961D01*
X120096246Y-92226913D01*
X119976037Y-91972580D01*
X119808519Y-91746586D01*
X119600131Y-91557615D01*
X119358881Y-91412930D01*
X119094040Y-91318091D01*
X118872000Y-91439376D01*
X118618000Y-91439376D01*
X118395960Y-91318091D01*
X118131119Y-91412930D01*
X117889869Y-91557615D01*
X117681481Y-91746586D01*
X117513963Y-91972580D01*
X117393754Y-92226913D01*
X117353096Y-92360961D01*
X112518685Y-92360961D01*
X112504853Y-92291426D01*
X112396680Y-92030273D01*
X112239637Y-91795241D01*
X112039759Y-91595363D01*
X111804727Y-91438320D01*
X111543574Y-91330147D01*
X111266335Y-91275000D01*
X110983665Y-91275000D01*
X110706426Y-91330147D01*
X110445273Y-91438320D01*
X110210241Y-91595363D01*
X110010363Y-91795241D01*
X109853320Y-92030273D01*
X109840829Y-92060428D01*
X109770052Y-92022597D01*
X109626415Y-91979025D01*
X109514463Y-91967999D01*
X109514460Y-91967999D01*
X109477037Y-91964313D01*
X109439614Y-91967999D01*
X99265332Y-91967999D01*
X99295371Y-91923043D01*
X99399775Y-91670989D01*
X99453000Y-91403411D01*
X99453000Y-91130589D01*
X99399775Y-90863011D01*
X99295371Y-90610957D01*
X99143799Y-90384114D01*
X98950886Y-90191201D01*
X98724043Y-90039629D01*
X98621127Y-89997000D01*
X98724043Y-89954371D01*
X98950886Y-89802799D01*
X99143799Y-89609886D01*
X99295371Y-89383043D01*
X99399775Y-89130989D01*
X99453000Y-88863411D01*
X99453000Y-88758665D01*
X109690000Y-88758665D01*
X109690000Y-89041335D01*
X109745147Y-89318574D01*
X109853320Y-89579727D01*
X110010363Y-89814759D01*
X110210241Y-90014637D01*
X110445273Y-90171680D01*
X110706426Y-90279853D01*
X110983665Y-90335000D01*
X111266335Y-90335000D01*
X111543574Y-90279853D01*
X111804727Y-90171680D01*
X112039759Y-90014637D01*
X112239637Y-89814759D01*
X112396680Y-89579727D01*
X112504853Y-89318574D01*
X112518684Y-89249039D01*
X117353096Y-89249039D01*
X117393754Y-89383087D01*
X117513963Y-89637420D01*
X117681481Y-89863414D01*
X117889869Y-90052385D01*
X118131119Y-90197070D01*
X118395960Y-90291909D01*
X118618000Y-90170624D01*
X118618000Y-89027000D01*
X118872000Y-89027000D01*
X118872000Y-90170624D01*
X119094040Y-90291909D01*
X119358881Y-90197070D01*
X119600131Y-90052385D01*
X119808519Y-89863414D01*
X119976037Y-89637420D01*
X120096246Y-89383087D01*
X120136904Y-89249039D01*
X120014915Y-89027000D01*
X118872000Y-89027000D01*
X118618000Y-89027000D01*
X117475085Y-89027000D01*
X117353096Y-89249039D01*
X112518684Y-89249039D01*
X112560000Y-89041335D01*
X112560000Y-88758665D01*
X112518685Y-88550961D01*
X117353096Y-88550961D01*
X117475085Y-88773000D01*
X118618000Y-88773000D01*
X118618000Y-87629376D01*
X118872000Y-87629376D01*
X118872000Y-88773000D01*
X120014915Y-88773000D01*
X120022790Y-88758665D01*
X120485000Y-88758665D01*
X120485000Y-89041335D01*
X120540147Y-89318574D01*
X120648320Y-89579727D01*
X120805363Y-89814759D01*
X121005241Y-90014637D01*
X121240273Y-90171680D01*
X121501426Y-90279853D01*
X121778665Y-90335000D01*
X122061335Y-90335000D01*
X122338574Y-90279853D01*
X122599727Y-90171680D01*
X122834759Y-90014637D01*
X123034637Y-89814759D01*
X123191680Y-89579727D01*
X123299853Y-89318574D01*
X123313684Y-89249039D01*
X128148096Y-89249039D01*
X128188754Y-89383087D01*
X128308963Y-89637420D01*
X128476481Y-89863414D01*
X128684869Y-90052385D01*
X128926119Y-90197070D01*
X129190960Y-90291909D01*
X129413000Y-90170624D01*
X129413000Y-89027000D01*
X129667000Y-89027000D01*
X129667000Y-90170624D01*
X129889040Y-90291909D01*
X130153881Y-90197070D01*
X130395131Y-90052385D01*
X130603519Y-89863414D01*
X130771037Y-89637420D01*
X130891246Y-89383087D01*
X130931904Y-89249039D01*
X130809915Y-89027000D01*
X129667000Y-89027000D01*
X129413000Y-89027000D01*
X128270085Y-89027000D01*
X128148096Y-89249039D01*
X123313684Y-89249039D01*
X123355000Y-89041335D01*
X123355000Y-88758665D01*
X123313685Y-88550961D01*
X128148096Y-88550961D01*
X128270085Y-88773000D01*
X129413000Y-88773000D01*
X129413000Y-87629376D01*
X129667000Y-87629376D01*
X129667000Y-88773000D01*
X130809915Y-88773000D01*
X130931904Y-88550961D01*
X130891246Y-88416913D01*
X130771037Y-88162580D01*
X130603519Y-87936586D01*
X130395131Y-87747615D01*
X130153881Y-87602930D01*
X129889040Y-87508091D01*
X129667000Y-87629376D01*
X129413000Y-87629376D01*
X129190960Y-87508091D01*
X128926119Y-87602930D01*
X128684869Y-87747615D01*
X128476481Y-87936586D01*
X128308963Y-88162580D01*
X128188754Y-88416913D01*
X128148096Y-88550961D01*
X123313685Y-88550961D01*
X123299853Y-88481426D01*
X123191680Y-88220273D01*
X123034637Y-87985241D01*
X122834759Y-87785363D01*
X122599727Y-87628320D01*
X122338574Y-87520147D01*
X122061335Y-87465000D01*
X121778665Y-87465000D01*
X121501426Y-87520147D01*
X121240273Y-87628320D01*
X121005241Y-87785363D01*
X120805363Y-87985241D01*
X120648320Y-88220273D01*
X120540147Y-88481426D01*
X120485000Y-88758665D01*
X120022790Y-88758665D01*
X120136904Y-88550961D01*
X120096246Y-88416913D01*
X119976037Y-88162580D01*
X119808519Y-87936586D01*
X119600131Y-87747615D01*
X119358881Y-87602930D01*
X119094040Y-87508091D01*
X118872000Y-87629376D01*
X118618000Y-87629376D01*
X118395960Y-87508091D01*
X118131119Y-87602930D01*
X117889869Y-87747615D01*
X117681481Y-87936586D01*
X117513963Y-88162580D01*
X117393754Y-88416913D01*
X117353096Y-88550961D01*
X112518685Y-88550961D01*
X112504853Y-88481426D01*
X112396680Y-88220273D01*
X112239637Y-87985241D01*
X112039759Y-87785363D01*
X111804727Y-87628320D01*
X111543574Y-87520147D01*
X111266335Y-87465000D01*
X110983665Y-87465000D01*
X110706426Y-87520147D01*
X110445273Y-87628320D01*
X110210241Y-87785363D01*
X110010363Y-87985241D01*
X109853320Y-88220273D01*
X109745147Y-88481426D01*
X109690000Y-88758665D01*
X99453000Y-88758665D01*
X99453000Y-88590589D01*
X99399775Y-88323011D01*
X99295371Y-88070957D01*
X99143799Y-87844114D01*
X98950886Y-87651201D01*
X98724043Y-87499629D01*
X98621127Y-87457000D01*
X98724043Y-87414371D01*
X98950886Y-87262799D01*
X99143799Y-87069886D01*
X99295371Y-86843043D01*
X99399775Y-86590989D01*
X99453000Y-86323411D01*
X99453000Y-86050589D01*
X99399775Y-85783011D01*
X99295371Y-85530957D01*
X99143799Y-85304114D01*
X98950886Y-85111201D01*
X98724043Y-84959629D01*
X98697574Y-84948665D01*
X109690000Y-84948665D01*
X109690000Y-85231335D01*
X109745147Y-85508574D01*
X109853320Y-85769727D01*
X110010363Y-86004759D01*
X110210241Y-86204637D01*
X110445273Y-86361680D01*
X110706426Y-86469853D01*
X110983665Y-86525000D01*
X111266335Y-86525000D01*
X111543574Y-86469853D01*
X111804727Y-86361680D01*
X112039759Y-86204637D01*
X112239637Y-86004759D01*
X112396680Y-85769727D01*
X112504853Y-85508574D01*
X112518684Y-85439039D01*
X117353096Y-85439039D01*
X117393754Y-85573087D01*
X117513963Y-85827420D01*
X117681481Y-86053414D01*
X117889869Y-86242385D01*
X118131119Y-86387070D01*
X118395960Y-86481909D01*
X118618000Y-86360624D01*
X118618000Y-85217000D01*
X118872000Y-85217000D01*
X118872000Y-86360624D01*
X119094040Y-86481909D01*
X119358881Y-86387070D01*
X119600131Y-86242385D01*
X119808519Y-86053414D01*
X119976037Y-85827420D01*
X120096246Y-85573087D01*
X120136904Y-85439039D01*
X120014915Y-85217000D01*
X118872000Y-85217000D01*
X118618000Y-85217000D01*
X117475085Y-85217000D01*
X117353096Y-85439039D01*
X112518684Y-85439039D01*
X112560000Y-85231335D01*
X112560000Y-84948665D01*
X112518685Y-84740961D01*
X117353096Y-84740961D01*
X117475085Y-84963000D01*
X118618000Y-84963000D01*
X118618000Y-83819376D01*
X118872000Y-83819376D01*
X118872000Y-84963000D01*
X120014915Y-84963000D01*
X120022790Y-84948665D01*
X120485000Y-84948665D01*
X120485000Y-85231335D01*
X120540147Y-85508574D01*
X120648320Y-85769727D01*
X120805363Y-86004759D01*
X121005241Y-86204637D01*
X121240273Y-86361680D01*
X121501426Y-86469853D01*
X121778665Y-86525000D01*
X122061335Y-86525000D01*
X122338574Y-86469853D01*
X122599727Y-86361680D01*
X122834759Y-86204637D01*
X123034637Y-86004759D01*
X123191680Y-85769727D01*
X123299853Y-85508574D01*
X123313684Y-85439039D01*
X128148096Y-85439039D01*
X128188754Y-85573087D01*
X128308963Y-85827420D01*
X128476481Y-86053414D01*
X128684869Y-86242385D01*
X128926119Y-86387070D01*
X129190960Y-86481909D01*
X129413000Y-86360624D01*
X129413000Y-85217000D01*
X129667000Y-85217000D01*
X129667000Y-86360624D01*
X129889040Y-86481909D01*
X130153881Y-86387070D01*
X130395131Y-86242385D01*
X130603519Y-86053414D01*
X130771037Y-85827420D01*
X130891246Y-85573087D01*
X130931904Y-85439039D01*
X130809915Y-85217000D01*
X129667000Y-85217000D01*
X129413000Y-85217000D01*
X128270085Y-85217000D01*
X128148096Y-85439039D01*
X123313684Y-85439039D01*
X123355000Y-85231335D01*
X123355000Y-84948665D01*
X123313685Y-84740961D01*
X128148096Y-84740961D01*
X128270085Y-84963000D01*
X129413000Y-84963000D01*
X129413000Y-83819376D01*
X129667000Y-83819376D01*
X129667000Y-84963000D01*
X130809915Y-84963000D01*
X130931904Y-84740961D01*
X130891246Y-84606913D01*
X130771037Y-84352580D01*
X130603519Y-84126586D01*
X130395131Y-83937615D01*
X130153881Y-83792930D01*
X129889040Y-83698091D01*
X129667000Y-83819376D01*
X129413000Y-83819376D01*
X129190960Y-83698091D01*
X128926119Y-83792930D01*
X128684869Y-83937615D01*
X128476481Y-84126586D01*
X128308963Y-84352580D01*
X128188754Y-84606913D01*
X128148096Y-84740961D01*
X123313685Y-84740961D01*
X123299853Y-84671426D01*
X123191680Y-84410273D01*
X123034637Y-84175241D01*
X122834759Y-83975363D01*
X122599727Y-83818320D01*
X122338574Y-83710147D01*
X122061335Y-83655000D01*
X121778665Y-83655000D01*
X121501426Y-83710147D01*
X121240273Y-83818320D01*
X121005241Y-83975363D01*
X120805363Y-84175241D01*
X120648320Y-84410273D01*
X120540147Y-84671426D01*
X120485000Y-84948665D01*
X120022790Y-84948665D01*
X120136904Y-84740961D01*
X120096246Y-84606913D01*
X119976037Y-84352580D01*
X119808519Y-84126586D01*
X119600131Y-83937615D01*
X119358881Y-83792930D01*
X119094040Y-83698091D01*
X118872000Y-83819376D01*
X118618000Y-83819376D01*
X118395960Y-83698091D01*
X118131119Y-83792930D01*
X117889869Y-83937615D01*
X117681481Y-84126586D01*
X117513963Y-84352580D01*
X117393754Y-84606913D01*
X117353096Y-84740961D01*
X112518685Y-84740961D01*
X112504853Y-84671426D01*
X112396680Y-84410273D01*
X112239637Y-84175241D01*
X112039759Y-83975363D01*
X111804727Y-83818320D01*
X111543574Y-83710147D01*
X111266335Y-83655000D01*
X110983665Y-83655000D01*
X110706426Y-83710147D01*
X110445273Y-83818320D01*
X110210241Y-83975363D01*
X110010363Y-84175241D01*
X109853320Y-84410273D01*
X109745147Y-84671426D01*
X109690000Y-84948665D01*
X98697574Y-84948665D01*
X98624721Y-84918489D01*
X98666832Y-84903277D01*
X98779863Y-84842860D01*
X98845388Y-84603993D01*
X98068000Y-83826605D01*
X97290612Y-84603993D01*
X97356137Y-84842860D01*
X97514477Y-84917164D01*
X97411957Y-84959629D01*
X97185114Y-85111201D01*
X96992201Y-85304114D01*
X96840629Y-85530957D01*
X96736225Y-85783011D01*
X96683000Y-86050589D01*
X96683000Y-86323411D01*
X96736225Y-86590989D01*
X96840629Y-86843043D01*
X96992201Y-87069886D01*
X97185114Y-87262799D01*
X97411957Y-87414371D01*
X97514873Y-87457000D01*
X97411957Y-87499629D01*
X97185114Y-87651201D01*
X96992201Y-87844114D01*
X96840629Y-88070957D01*
X96736225Y-88323011D01*
X96683000Y-88590589D01*
X96683000Y-88863411D01*
X96736225Y-89130989D01*
X96840629Y-89383043D01*
X96992201Y-89609886D01*
X97185114Y-89802799D01*
X97411957Y-89954371D01*
X97514873Y-89997000D01*
X97411957Y-90039629D01*
X97185114Y-90191201D01*
X96992201Y-90384114D01*
X96840629Y-90610957D01*
X96736225Y-90863011D01*
X96683000Y-91130589D01*
X96683000Y-91403411D01*
X96703207Y-91505000D01*
X94371759Y-91505000D01*
X94408000Y-91322804D01*
X94408000Y-91049196D01*
X94354622Y-90780844D01*
X94249916Y-90528062D01*
X94097907Y-90300565D01*
X93904436Y-90107094D01*
X93676939Y-89955085D01*
X93424157Y-89850379D01*
X93155805Y-89797001D01*
X92882197Y-89797001D01*
X92613845Y-89850379D01*
X92361063Y-89955085D01*
X92133566Y-90107094D01*
X91940095Y-90300565D01*
X91788086Y-90528062D01*
X91683380Y-90780844D01*
X91630002Y-91049196D01*
X91630002Y-91322804D01*
X91666243Y-91505000D01*
X89871758Y-91505000D01*
X89907999Y-91322804D01*
X89907999Y-91049196D01*
X89879037Y-90903593D01*
X96738767Y-84043864D01*
X96811723Y-84245832D01*
X96872140Y-84358863D01*
X97111007Y-84424388D01*
X97888395Y-83647000D01*
X97874253Y-83632858D01*
X98053858Y-83453253D01*
X98068000Y-83467395D01*
X98082143Y-83453253D01*
X98261748Y-83632858D01*
X98247605Y-83647000D01*
X99024993Y-84424388D01*
X99263860Y-84358863D01*
X99379760Y-84111884D01*
X99445250Y-83847040D01*
X99457812Y-83574508D01*
X99421089Y-83331999D01*
X131784369Y-83331999D01*
X146098046Y-97645677D01*
G37*
X146098046Y-97645677D02*
X145978697Y-97639943D01*
X145703028Y-97681140D01*
X145440692Y-97775325D01*
X145320345Y-97839651D01*
X145251184Y-98081579D01*
X146050000Y-98880395D01*
X146064143Y-98866253D01*
X146243748Y-99045858D01*
X146229605Y-99060000D01*
X147028421Y-99858816D01*
X147270349Y-99789655D01*
X147318425Y-99687721D01*
X147336043Y-99730254D01*
X147490897Y-99962010D01*
X147687990Y-100159103D01*
X147919746Y-100313957D01*
X148177260Y-100420623D01*
X148450635Y-100475000D01*
X148729365Y-100475000D01*
X149002740Y-100420623D01*
X149260254Y-100313957D01*
X149492010Y-100159103D01*
X149689103Y-99962010D01*
X149843957Y-99730254D01*
X149860000Y-99691523D01*
X149876043Y-99730254D01*
X150030897Y-99962010D01*
X150227990Y-100159103D01*
X150459746Y-100313957D01*
X150717260Y-100420623D01*
X150990635Y-100475000D01*
X151269365Y-100475000D01*
X151542740Y-100420623D01*
X151800254Y-100313957D01*
X152032010Y-100159103D01*
X152229103Y-99962010D01*
X152383957Y-99730254D01*
X152400000Y-99691523D01*
X152416043Y-99730254D01*
X152570897Y-99962010D01*
X152767990Y-100159103D01*
X152999746Y-100313957D01*
X153257260Y-100420623D01*
X153530635Y-100475000D01*
X153717369Y-100475000D01*
X139666969Y-114525401D01*
X110656343Y-114525401D01*
X110704977Y-114407988D01*
X110769400Y-114084111D01*
X110769400Y-113753889D01*
X110704977Y-113430012D01*
X110578606Y-113124927D01*
X110395145Y-112850358D01*
X110161642Y-112616855D01*
X109887073Y-112433394D01*
X109581988Y-112307023D01*
X109258111Y-112242600D01*
X108927889Y-112242600D01*
X108604012Y-112307023D01*
X108298927Y-112433394D01*
X108024358Y-112616855D01*
X107790855Y-112850358D01*
X107607394Y-113124927D01*
X107481023Y-113430012D01*
X107416600Y-113753889D01*
X107416600Y-114084111D01*
X107481023Y-114407988D01*
X107529657Y-114525401D01*
X99416402Y-114525401D01*
X99453000Y-114341411D01*
X99453000Y-114068589D01*
X99399775Y-113801011D01*
X99295371Y-113548957D01*
X99143799Y-113322114D01*
X98950886Y-113129201D01*
X98724043Y-112977629D01*
X98621127Y-112935000D01*
X98724043Y-112892371D01*
X98950886Y-112740799D01*
X99143799Y-112547886D01*
X99295371Y-112321043D01*
X99399775Y-112068989D01*
X99453000Y-111801411D01*
X99453000Y-111528589D01*
X99399775Y-111261011D01*
X99295371Y-111008957D01*
X99143799Y-110782114D01*
X98950886Y-110589201D01*
X98724043Y-110437629D01*
X98621127Y-110395000D01*
X98724043Y-110352371D01*
X98950886Y-110200799D01*
X99143799Y-110007886D01*
X99295371Y-109781043D01*
X99399775Y-109528989D01*
X99453000Y-109261411D01*
X99453000Y-108988589D01*
X99399775Y-108721011D01*
X99295371Y-108468957D01*
X99143799Y-108242114D01*
X98950886Y-108049201D01*
X98724043Y-107897629D01*
X98621127Y-107855000D01*
X98724043Y-107812371D01*
X98950886Y-107660799D01*
X99143799Y-107467886D01*
X99295371Y-107241043D01*
X99399775Y-106988989D01*
X99453000Y-106721411D01*
X99453000Y-106448589D01*
X99399775Y-106181011D01*
X99295371Y-105928957D01*
X99143799Y-105702114D01*
X98950886Y-105509201D01*
X98724043Y-105357629D01*
X98621127Y-105315000D01*
X98724043Y-105272371D01*
X98950886Y-105120799D01*
X99143799Y-104927886D01*
X99295371Y-104701043D01*
X99399775Y-104448989D01*
X99453000Y-104181411D01*
X99453000Y-103908589D01*
X99417476Y-103729999D01*
X116426567Y-103729999D01*
X116271859Y-103794081D01*
X115855844Y-104072053D01*
X115502053Y-104425844D01*
X115224081Y-104841859D01*
X115032611Y-105304109D01*
X114935000Y-105794832D01*
X114935000Y-106295168D01*
X115032611Y-106785891D01*
X115224081Y-107248141D01*
X115502053Y-107664156D01*
X115855844Y-108017947D01*
X116271859Y-108295919D01*
X116734109Y-108487389D01*
X117224832Y-108585000D01*
X117725168Y-108585000D01*
X118215891Y-108487389D01*
X118678141Y-108295919D01*
X119094156Y-108017947D01*
X119447947Y-107664156D01*
X119725919Y-107248141D01*
X119917389Y-106785891D01*
X120015000Y-106295168D01*
X120015000Y-105794832D01*
X119917389Y-105304109D01*
X119725919Y-104841859D01*
X119447947Y-104425844D01*
X119094156Y-104072053D01*
X118678141Y-103794081D01*
X118523433Y-103729999D01*
X144873328Y-103729999D01*
X144933744Y-103770368D01*
X145118644Y-103846956D01*
X145314933Y-103886000D01*
X145515067Y-103886000D01*
X145711356Y-103846956D01*
X145896256Y-103770368D01*
X146062662Y-103659179D01*
X146204179Y-103517662D01*
X146315368Y-103351256D01*
X146391956Y-103166356D01*
X146431000Y-102970067D01*
X146431000Y-102769933D01*
X146391956Y-102573644D01*
X146315368Y-102388744D01*
X146204179Y-102222338D01*
X146062662Y-102080821D01*
X145896256Y-101969632D01*
X145711356Y-101893044D01*
X145515067Y-101854000D01*
X145314933Y-101854000D01*
X145118644Y-101893044D01*
X144933744Y-101969632D01*
X144767338Y-102080821D01*
X144642160Y-102205999D01*
X99213214Y-102205999D01*
X99295371Y-102083043D01*
X99399775Y-101830989D01*
X99453000Y-101563411D01*
X99453000Y-101290589D01*
X99399775Y-101023011D01*
X99295371Y-100770957D01*
X99143799Y-100544114D01*
X98950886Y-100351201D01*
X98724043Y-100199629D01*
X98621127Y-100157000D01*
X98724043Y-100114371D01*
X98950886Y-99962799D01*
X99091685Y-99822000D01*
X132157346Y-99822000D01*
X132250897Y-99962010D01*
X132447990Y-100159103D01*
X132679746Y-100313957D01*
X132937260Y-100420623D01*
X133210635Y-100475000D01*
X133489365Y-100475000D01*
X133762740Y-100420623D01*
X134020254Y-100313957D01*
X134252010Y-100159103D01*
X134449103Y-99962010D01*
X134603957Y-99730254D01*
X134620000Y-99691523D01*
X134636043Y-99730254D01*
X134790897Y-99962010D01*
X134987990Y-100159103D01*
X135219746Y-100313957D01*
X135477260Y-100420623D01*
X135750635Y-100475000D01*
X136029365Y-100475000D01*
X136302740Y-100420623D01*
X136560254Y-100313957D01*
X136792010Y-100159103D01*
X136989103Y-99962010D01*
X137143957Y-99730254D01*
X137160000Y-99691523D01*
X137176043Y-99730254D01*
X137330897Y-99962010D01*
X137527990Y-100159103D01*
X137759746Y-100313957D01*
X138017260Y-100420623D01*
X138290635Y-100475000D01*
X138569365Y-100475000D01*
X138842740Y-100420623D01*
X139100254Y-100313957D01*
X139332010Y-100159103D01*
X139529103Y-99962010D01*
X139683957Y-99730254D01*
X139700000Y-99691523D01*
X139716043Y-99730254D01*
X139870897Y-99962010D01*
X140067990Y-100159103D01*
X140299746Y-100313957D01*
X140557260Y-100420623D01*
X140830635Y-100475000D01*
X141109365Y-100475000D01*
X141382740Y-100420623D01*
X141640254Y-100313957D01*
X141872010Y-100159103D01*
X142069103Y-99962010D01*
X142223957Y-99730254D01*
X142240000Y-99691523D01*
X142256043Y-99730254D01*
X142410897Y-99962010D01*
X142607990Y-100159103D01*
X142839746Y-100313957D01*
X143097260Y-100420623D01*
X143370635Y-100475000D01*
X143649365Y-100475000D01*
X143922740Y-100420623D01*
X144180254Y-100313957D01*
X144412010Y-100159103D01*
X144532692Y-100038421D01*
X145251184Y-100038421D01*
X145320345Y-100280349D01*
X145572443Y-100399248D01*
X145842894Y-100466681D01*
X146121303Y-100480057D01*
X146396972Y-100438860D01*
X146659308Y-100344675D01*
X146779655Y-100280349D01*
X146848816Y-100038421D01*
X146050000Y-99239605D01*
X145251184Y-100038421D01*
X144532692Y-100038421D01*
X144609103Y-99962010D01*
X144763957Y-99730254D01*
X144778777Y-99694475D01*
X144829651Y-99789655D01*
X145071579Y-99858816D01*
X145870395Y-99060000D01*
X145071579Y-98261184D01*
X144829651Y-98330345D01*
X144781575Y-98432279D01*
X144763957Y-98389746D01*
X144609103Y-98157990D01*
X144412010Y-97960897D01*
X144180254Y-97806043D01*
X143922740Y-97699377D01*
X143649365Y-97645000D01*
X143370635Y-97645000D01*
X143205480Y-97677851D01*
X142968283Y-97440654D01*
X142944421Y-97411577D01*
X142828391Y-97316354D01*
X142696014Y-97245597D01*
X142552377Y-97202025D01*
X142440425Y-97190999D01*
X142440422Y-97190999D01*
X142402999Y-97187313D01*
X142365576Y-97190999D01*
X115015668Y-97190999D01*
X111805699Y-93981031D01*
X112039759Y-93824637D01*
X112239637Y-93624759D01*
X112396680Y-93389727D01*
X112504853Y-93128574D01*
X112518684Y-93059039D01*
X117353096Y-93059039D01*
X117393754Y-93193087D01*
X117513963Y-93447420D01*
X117681481Y-93673414D01*
X117889869Y-93862385D01*
X118131119Y-94007070D01*
X118395960Y-94101909D01*
X118618000Y-93980624D01*
X118618000Y-92837000D01*
X118872000Y-92837000D01*
X118872000Y-93980624D01*
X119094040Y-94101909D01*
X119358881Y-94007070D01*
X119600131Y-93862385D01*
X119808519Y-93673414D01*
X119976037Y-93447420D01*
X120096246Y-93193087D01*
X120136904Y-93059039D01*
X120014915Y-92837000D01*
X118872000Y-92837000D01*
X118618000Y-92837000D01*
X117475085Y-92837000D01*
X117353096Y-93059039D01*
X112518684Y-93059039D01*
X112560000Y-92851335D01*
X112560000Y-92568665D01*
X112518685Y-92360961D01*
X117353096Y-92360961D01*
X117475085Y-92583000D01*
X118618000Y-92583000D01*
X118618000Y-91439376D01*
X118872000Y-91439376D01*
X118872000Y-92583000D01*
X120014915Y-92583000D01*
X120022790Y-92568665D01*
X120485000Y-92568665D01*
X120485000Y-92851335D01*
X120540147Y-93128574D01*
X120648320Y-93389727D01*
X120805363Y-93624759D01*
X121005241Y-93824637D01*
X121240273Y-93981680D01*
X121501426Y-94089853D01*
X121778665Y-94145000D01*
X122061335Y-94145000D01*
X122241527Y-94109157D01*
X124079000Y-95946631D01*
X124079000Y-95985067D01*
X124118044Y-96181356D01*
X124194632Y-96366256D01*
X124305821Y-96532662D01*
X124447338Y-96674179D01*
X124613744Y-96785368D01*
X124798644Y-96861956D01*
X124994933Y-96901000D01*
X125195067Y-96901000D01*
X125391356Y-96861956D01*
X125576256Y-96785368D01*
X125742662Y-96674179D01*
X125884179Y-96532662D01*
X125995368Y-96366256D01*
X126071956Y-96181356D01*
X126111000Y-95985067D01*
X126111000Y-95784933D01*
X126071956Y-95588644D01*
X125995368Y-95403744D01*
X125884179Y-95237338D01*
X125742662Y-95095821D01*
X125576256Y-94984632D01*
X125391356Y-94908044D01*
X125195067Y-94869000D01*
X125156631Y-94869000D01*
X123346670Y-93059039D01*
X128148096Y-93059039D01*
X128188754Y-93193087D01*
X128308963Y-93447420D01*
X128476481Y-93673414D01*
X128684869Y-93862385D01*
X128926119Y-94007070D01*
X129190960Y-94101909D01*
X129413000Y-93980624D01*
X129413000Y-92837000D01*
X129667000Y-92837000D01*
X129667000Y-93980624D01*
X129889040Y-94101909D01*
X130153881Y-94007070D01*
X130395131Y-93862385D01*
X130603519Y-93673414D01*
X130771037Y-93447420D01*
X130891246Y-93193087D01*
X130931904Y-93059039D01*
X130809915Y-92837000D01*
X129667000Y-92837000D01*
X129413000Y-92837000D01*
X128270085Y-92837000D01*
X128148096Y-93059039D01*
X123346670Y-93059039D01*
X123319157Y-93031527D01*
X123355000Y-92851335D01*
X123355000Y-92568665D01*
X123313685Y-92360961D01*
X128148096Y-92360961D01*
X128270085Y-92583000D01*
X129413000Y-92583000D01*
X129413000Y-91439376D01*
X129667000Y-91439376D01*
X129667000Y-92583000D01*
X130809915Y-92583000D01*
X130931904Y-92360961D01*
X130891246Y-92226913D01*
X130771037Y-91972580D01*
X130603519Y-91746586D01*
X130395131Y-91557615D01*
X130153881Y-91412930D01*
X129889040Y-91318091D01*
X129667000Y-91439376D01*
X129413000Y-91439376D01*
X129190960Y-91318091D01*
X128926119Y-91412930D01*
X128684869Y-91557615D01*
X128476481Y-91746586D01*
X128308963Y-91972580D01*
X128188754Y-92226913D01*
X128148096Y-92360961D01*
X123313685Y-92360961D01*
X123299853Y-92291426D01*
X123191680Y-92030273D01*
X123034637Y-91795241D01*
X122834759Y-91595363D01*
X122599727Y-91438320D01*
X122338574Y-91330147D01*
X122061335Y-91275000D01*
X121778665Y-91275000D01*
X121501426Y-91330147D01*
X121240273Y-91438320D01*
X121005241Y-91595363D01*
X120805363Y-91795241D01*
X120648320Y-92030273D01*
X120540147Y-92291426D01*
X120485000Y-92568665D01*
X120022790Y-92568665D01*
X120136904Y-92360961D01*
X120096246Y-92226913D01*
X119976037Y-91972580D01*
X119808519Y-91746586D01*
X119600131Y-91557615D01*
X119358881Y-91412930D01*
X119094040Y-91318091D01*
X118872000Y-91439376D01*
X118618000Y-91439376D01*
X118395960Y-91318091D01*
X118131119Y-91412930D01*
X117889869Y-91557615D01*
X117681481Y-91746586D01*
X117513963Y-91972580D01*
X117393754Y-92226913D01*
X117353096Y-92360961D01*
X112518685Y-92360961D01*
X112504853Y-92291426D01*
X112396680Y-92030273D01*
X112239637Y-91795241D01*
X112039759Y-91595363D01*
X111804727Y-91438320D01*
X111543574Y-91330147D01*
X111266335Y-91275000D01*
X110983665Y-91275000D01*
X110706426Y-91330147D01*
X110445273Y-91438320D01*
X110210241Y-91595363D01*
X110010363Y-91795241D01*
X109853320Y-92030273D01*
X109840829Y-92060428D01*
X109770052Y-92022597D01*
X109626415Y-91979025D01*
X109514463Y-91967999D01*
X109514460Y-91967999D01*
X109477037Y-91964313D01*
X109439614Y-91967999D01*
X99265332Y-91967999D01*
X99295371Y-91923043D01*
X99399775Y-91670989D01*
X99453000Y-91403411D01*
X99453000Y-91130589D01*
X99399775Y-90863011D01*
X99295371Y-90610957D01*
X99143799Y-90384114D01*
X98950886Y-90191201D01*
X98724043Y-90039629D01*
X98621127Y-89997000D01*
X98724043Y-89954371D01*
X98950886Y-89802799D01*
X99143799Y-89609886D01*
X99295371Y-89383043D01*
X99399775Y-89130989D01*
X99453000Y-88863411D01*
X99453000Y-88758665D01*
X109690000Y-88758665D01*
X109690000Y-89041335D01*
X109745147Y-89318574D01*
X109853320Y-89579727D01*
X110010363Y-89814759D01*
X110210241Y-90014637D01*
X110445273Y-90171680D01*
X110706426Y-90279853D01*
X110983665Y-90335000D01*
X111266335Y-90335000D01*
X111543574Y-90279853D01*
X111804727Y-90171680D01*
X112039759Y-90014637D01*
X112239637Y-89814759D01*
X112396680Y-89579727D01*
X112504853Y-89318574D01*
X112518684Y-89249039D01*
X117353096Y-89249039D01*
X117393754Y-89383087D01*
X117513963Y-89637420D01*
X117681481Y-89863414D01*
X117889869Y-90052385D01*
X118131119Y-90197070D01*
X118395960Y-90291909D01*
X118618000Y-90170624D01*
X118618000Y-89027000D01*
X118872000Y-89027000D01*
X118872000Y-90170624D01*
X119094040Y-90291909D01*
X119358881Y-90197070D01*
X119600131Y-90052385D01*
X119808519Y-89863414D01*
X119976037Y-89637420D01*
X120096246Y-89383087D01*
X120136904Y-89249039D01*
X120014915Y-89027000D01*
X118872000Y-89027000D01*
X118618000Y-89027000D01*
X117475085Y-89027000D01*
X117353096Y-89249039D01*
X112518684Y-89249039D01*
X112560000Y-89041335D01*
X112560000Y-88758665D01*
X112518685Y-88550961D01*
X117353096Y-88550961D01*
X117475085Y-88773000D01*
X118618000Y-88773000D01*
X118618000Y-87629376D01*
X118872000Y-87629376D01*
X118872000Y-88773000D01*
X120014915Y-88773000D01*
X120022790Y-88758665D01*
X120485000Y-88758665D01*
X120485000Y-89041335D01*
X120540147Y-89318574D01*
X120648320Y-89579727D01*
X120805363Y-89814759D01*
X121005241Y-90014637D01*
X121240273Y-90171680D01*
X121501426Y-90279853D01*
X121778665Y-90335000D01*
X122061335Y-90335000D01*
X122338574Y-90279853D01*
X122599727Y-90171680D01*
X122834759Y-90014637D01*
X123034637Y-89814759D01*
X123191680Y-89579727D01*
X123299853Y-89318574D01*
X123313684Y-89249039D01*
X128148096Y-89249039D01*
X128188754Y-89383087D01*
X128308963Y-89637420D01*
X128476481Y-89863414D01*
X128684869Y-90052385D01*
X128926119Y-90197070D01*
X129190960Y-90291909D01*
X129413000Y-90170624D01*
X129413000Y-89027000D01*
X129667000Y-89027000D01*
X129667000Y-90170624D01*
X129889040Y-90291909D01*
X130153881Y-90197070D01*
X130395131Y-90052385D01*
X130603519Y-89863414D01*
X130771037Y-89637420D01*
X130891246Y-89383087D01*
X130931904Y-89249039D01*
X130809915Y-89027000D01*
X129667000Y-89027000D01*
X129413000Y-89027000D01*
X128270085Y-89027000D01*
X128148096Y-89249039D01*
X123313684Y-89249039D01*
X123355000Y-89041335D01*
X123355000Y-88758665D01*
X123313685Y-88550961D01*
X128148096Y-88550961D01*
X128270085Y-88773000D01*
X129413000Y-88773000D01*
X129413000Y-87629376D01*
X129667000Y-87629376D01*
X129667000Y-88773000D01*
X130809915Y-88773000D01*
X130931904Y-88550961D01*
X130891246Y-88416913D01*
X130771037Y-88162580D01*
X130603519Y-87936586D01*
X130395131Y-87747615D01*
X130153881Y-87602930D01*
X129889040Y-87508091D01*
X129667000Y-87629376D01*
X129413000Y-87629376D01*
X129190960Y-87508091D01*
X128926119Y-87602930D01*
X128684869Y-87747615D01*
X128476481Y-87936586D01*
X128308963Y-88162580D01*
X128188754Y-88416913D01*
X128148096Y-88550961D01*
X123313685Y-88550961D01*
X123299853Y-88481426D01*
X123191680Y-88220273D01*
X123034637Y-87985241D01*
X122834759Y-87785363D01*
X122599727Y-87628320D01*
X122338574Y-87520147D01*
X122061335Y-87465000D01*
X121778665Y-87465000D01*
X121501426Y-87520147D01*
X121240273Y-87628320D01*
X121005241Y-87785363D01*
X120805363Y-87985241D01*
X120648320Y-88220273D01*
X120540147Y-88481426D01*
X120485000Y-88758665D01*
X120022790Y-88758665D01*
X120136904Y-88550961D01*
X120096246Y-88416913D01*
X119976037Y-88162580D01*
X119808519Y-87936586D01*
X119600131Y-87747615D01*
X119358881Y-87602930D01*
X119094040Y-87508091D01*
X118872000Y-87629376D01*
X118618000Y-87629376D01*
X118395960Y-87508091D01*
X118131119Y-87602930D01*
X117889869Y-87747615D01*
X117681481Y-87936586D01*
X117513963Y-88162580D01*
X117393754Y-88416913D01*
X117353096Y-88550961D01*
X112518685Y-88550961D01*
X112504853Y-88481426D01*
X112396680Y-88220273D01*
X112239637Y-87985241D01*
X112039759Y-87785363D01*
X111804727Y-87628320D01*
X111543574Y-87520147D01*
X111266335Y-87465000D01*
X110983665Y-87465000D01*
X110706426Y-87520147D01*
X110445273Y-87628320D01*
X110210241Y-87785363D01*
X110010363Y-87985241D01*
X109853320Y-88220273D01*
X109745147Y-88481426D01*
X109690000Y-88758665D01*
X99453000Y-88758665D01*
X99453000Y-88590589D01*
X99399775Y-88323011D01*
X99295371Y-88070957D01*
X99143799Y-87844114D01*
X98950886Y-87651201D01*
X98724043Y-87499629D01*
X98621127Y-87457000D01*
X98724043Y-87414371D01*
X98950886Y-87262799D01*
X99143799Y-87069886D01*
X99295371Y-86843043D01*
X99399775Y-86590989D01*
X99453000Y-86323411D01*
X99453000Y-86050589D01*
X99399775Y-85783011D01*
X99295371Y-85530957D01*
X99143799Y-85304114D01*
X98950886Y-85111201D01*
X98724043Y-84959629D01*
X98697574Y-84948665D01*
X109690000Y-84948665D01*
X109690000Y-85231335D01*
X109745147Y-85508574D01*
X109853320Y-85769727D01*
X110010363Y-86004759D01*
X110210241Y-86204637D01*
X110445273Y-86361680D01*
X110706426Y-86469853D01*
X110983665Y-86525000D01*
X111266335Y-86525000D01*
X111543574Y-86469853D01*
X111804727Y-86361680D01*
X112039759Y-86204637D01*
X112239637Y-86004759D01*
X112396680Y-85769727D01*
X112504853Y-85508574D01*
X112518684Y-85439039D01*
X117353096Y-85439039D01*
X117393754Y-85573087D01*
X117513963Y-85827420D01*
X117681481Y-86053414D01*
X117889869Y-86242385D01*
X118131119Y-86387070D01*
X118395960Y-86481909D01*
X118618000Y-86360624D01*
X118618000Y-85217000D01*
X118872000Y-85217000D01*
X118872000Y-86360624D01*
X119094040Y-86481909D01*
X119358881Y-86387070D01*
X119600131Y-86242385D01*
X119808519Y-86053414D01*
X119976037Y-85827420D01*
X120096246Y-85573087D01*
X120136904Y-85439039D01*
X120014915Y-85217000D01*
X118872000Y-85217000D01*
X118618000Y-85217000D01*
X117475085Y-85217000D01*
X117353096Y-85439039D01*
X112518684Y-85439039D01*
X112560000Y-85231335D01*
X112560000Y-84948665D01*
X112518685Y-84740961D01*
X117353096Y-84740961D01*
X117475085Y-84963000D01*
X118618000Y-84963000D01*
X118618000Y-83819376D01*
X118872000Y-83819376D01*
X118872000Y-84963000D01*
X120014915Y-84963000D01*
X120022790Y-84948665D01*
X120485000Y-84948665D01*
X120485000Y-85231335D01*
X120540147Y-85508574D01*
X120648320Y-85769727D01*
X120805363Y-86004759D01*
X121005241Y-86204637D01*
X121240273Y-86361680D01*
X121501426Y-86469853D01*
X121778665Y-86525000D01*
X122061335Y-86525000D01*
X122338574Y-86469853D01*
X122599727Y-86361680D01*
X122834759Y-86204637D01*
X123034637Y-86004759D01*
X123191680Y-85769727D01*
X123299853Y-85508574D01*
X123313684Y-85439039D01*
X128148096Y-85439039D01*
X128188754Y-85573087D01*
X128308963Y-85827420D01*
X128476481Y-86053414D01*
X128684869Y-86242385D01*
X128926119Y-86387070D01*
X129190960Y-86481909D01*
X129413000Y-86360624D01*
X129413000Y-85217000D01*
X129667000Y-85217000D01*
X129667000Y-86360624D01*
X129889040Y-86481909D01*
X130153881Y-86387070D01*
X130395131Y-86242385D01*
X130603519Y-86053414D01*
X130771037Y-85827420D01*
X130891246Y-85573087D01*
X130931904Y-85439039D01*
X130809915Y-85217000D01*
X129667000Y-85217000D01*
X129413000Y-85217000D01*
X128270085Y-85217000D01*
X128148096Y-85439039D01*
X123313684Y-85439039D01*
X123355000Y-85231335D01*
X123355000Y-84948665D01*
X123313685Y-84740961D01*
X128148096Y-84740961D01*
X128270085Y-84963000D01*
X129413000Y-84963000D01*
X129413000Y-83819376D01*
X129667000Y-83819376D01*
X129667000Y-84963000D01*
X130809915Y-84963000D01*
X130931904Y-84740961D01*
X130891246Y-84606913D01*
X130771037Y-84352580D01*
X130603519Y-84126586D01*
X130395131Y-83937615D01*
X130153881Y-83792930D01*
X129889040Y-83698091D01*
X129667000Y-83819376D01*
X129413000Y-83819376D01*
X129190960Y-83698091D01*
X128926119Y-83792930D01*
X128684869Y-83937615D01*
X128476481Y-84126586D01*
X128308963Y-84352580D01*
X128188754Y-84606913D01*
X128148096Y-84740961D01*
X123313685Y-84740961D01*
X123299853Y-84671426D01*
X123191680Y-84410273D01*
X123034637Y-84175241D01*
X122834759Y-83975363D01*
X122599727Y-83818320D01*
X122338574Y-83710147D01*
X122061335Y-83655000D01*
X121778665Y-83655000D01*
X121501426Y-83710147D01*
X121240273Y-83818320D01*
X121005241Y-83975363D01*
X120805363Y-84175241D01*
X120648320Y-84410273D01*
X120540147Y-84671426D01*
X120485000Y-84948665D01*
X120022790Y-84948665D01*
X120136904Y-84740961D01*
X120096246Y-84606913D01*
X119976037Y-84352580D01*
X119808519Y-84126586D01*
X119600131Y-83937615D01*
X119358881Y-83792930D01*
X119094040Y-83698091D01*
X118872000Y-83819376D01*
X118618000Y-83819376D01*
X118395960Y-83698091D01*
X118131119Y-83792930D01*
X117889869Y-83937615D01*
X117681481Y-84126586D01*
X117513963Y-84352580D01*
X117393754Y-84606913D01*
X117353096Y-84740961D01*
X112518685Y-84740961D01*
X112504853Y-84671426D01*
X112396680Y-84410273D01*
X112239637Y-84175241D01*
X112039759Y-83975363D01*
X111804727Y-83818320D01*
X111543574Y-83710147D01*
X111266335Y-83655000D01*
X110983665Y-83655000D01*
X110706426Y-83710147D01*
X110445273Y-83818320D01*
X110210241Y-83975363D01*
X110010363Y-84175241D01*
X109853320Y-84410273D01*
X109745147Y-84671426D01*
X109690000Y-84948665D01*
X98697574Y-84948665D01*
X98624721Y-84918489D01*
X98666832Y-84903277D01*
X98779863Y-84842860D01*
X98845388Y-84603993D01*
X98068000Y-83826605D01*
X97290612Y-84603993D01*
X97356137Y-84842860D01*
X97514477Y-84917164D01*
X97411957Y-84959629D01*
X97185114Y-85111201D01*
X96992201Y-85304114D01*
X96840629Y-85530957D01*
X96736225Y-85783011D01*
X96683000Y-86050589D01*
X96683000Y-86323411D01*
X96736225Y-86590989D01*
X96840629Y-86843043D01*
X96992201Y-87069886D01*
X97185114Y-87262799D01*
X97411957Y-87414371D01*
X97514873Y-87457000D01*
X97411957Y-87499629D01*
X97185114Y-87651201D01*
X96992201Y-87844114D01*
X96840629Y-88070957D01*
X96736225Y-88323011D01*
X96683000Y-88590589D01*
X96683000Y-88863411D01*
X96736225Y-89130989D01*
X96840629Y-89383043D01*
X96992201Y-89609886D01*
X97185114Y-89802799D01*
X97411957Y-89954371D01*
X97514873Y-89997000D01*
X97411957Y-90039629D01*
X97185114Y-90191201D01*
X96992201Y-90384114D01*
X96840629Y-90610957D01*
X96736225Y-90863011D01*
X96683000Y-91130589D01*
X96683000Y-91403411D01*
X96703207Y-91505000D01*
X94371759Y-91505000D01*
X94408000Y-91322804D01*
X94408000Y-91049196D01*
X94354622Y-90780844D01*
X94249916Y-90528062D01*
X94097907Y-90300565D01*
X93904436Y-90107094D01*
X93676939Y-89955085D01*
X93424157Y-89850379D01*
X93155805Y-89797001D01*
X92882197Y-89797001D01*
X92613845Y-89850379D01*
X92361063Y-89955085D01*
X92133566Y-90107094D01*
X91940095Y-90300565D01*
X91788086Y-90528062D01*
X91683380Y-90780844D01*
X91630002Y-91049196D01*
X91630002Y-91322804D01*
X91666243Y-91505000D01*
X89871758Y-91505000D01*
X89907999Y-91322804D01*
X89907999Y-91049196D01*
X89879037Y-90903593D01*
X96738767Y-84043864D01*
X96811723Y-84245832D01*
X96872140Y-84358863D01*
X97111007Y-84424388D01*
X97888395Y-83647000D01*
X97874253Y-83632858D01*
X98053858Y-83453253D01*
X98068000Y-83467395D01*
X98082143Y-83453253D01*
X98261748Y-83632858D01*
X98247605Y-83647000D01*
X99024993Y-84424388D01*
X99263860Y-84358863D01*
X99379760Y-84111884D01*
X99445250Y-83847040D01*
X99457812Y-83574508D01*
X99421089Y-83331999D01*
X131784369Y-83331999D01*
X146098046Y-97645677D01*
G36*
X128308963Y-72922580D02*
G01*
X128188754Y-73176913D01*
X128148096Y-73310961D01*
X128270085Y-73533000D01*
X129413000Y-73533000D01*
X129413000Y-73513000D01*
X129667000Y-73513000D01*
X129667000Y-73533000D01*
X129687000Y-73533000D01*
X129687000Y-73787000D01*
X129667000Y-73787000D01*
X129667000Y-74930624D01*
X129889040Y-75051909D01*
X130153881Y-74957070D01*
X130395131Y-74812385D01*
X130603519Y-74623414D01*
X130771037Y-74397420D01*
X130802078Y-74331746D01*
X152908000Y-96437669D01*
X152908001Y-97867345D01*
X152767990Y-97960897D01*
X152570897Y-98157990D01*
X152416043Y-98389746D01*
X152400000Y-98428477D01*
X152383957Y-98389746D01*
X152229103Y-98157990D01*
X152032010Y-97960897D01*
X151800254Y-97806043D01*
X151542740Y-97699377D01*
X151269365Y-97645000D01*
X150990635Y-97645000D01*
X150717260Y-97699377D01*
X150459746Y-97806043D01*
X150227990Y-97960897D01*
X150030897Y-98157990D01*
X149876043Y-98389746D01*
X149860000Y-98428477D01*
X149843957Y-98389746D01*
X149689103Y-98157990D01*
X149492010Y-97960897D01*
X149260254Y-97806043D01*
X149002740Y-97699377D01*
X148729365Y-97645000D01*
X148450635Y-97645000D01*
X148285482Y-97677851D01*
X132665283Y-82057653D01*
X132641421Y-82028577D01*
X132525391Y-81933354D01*
X132393014Y-81862597D01*
X132249377Y-81819025D01*
X132137425Y-81807999D01*
X132137422Y-81807999D01*
X132099999Y-81804313D01*
X132062576Y-81807999D01*
X130870019Y-81807999D01*
X130891246Y-81763087D01*
X130931904Y-81629039D01*
X130809915Y-81407000D01*
X129667000Y-81407000D01*
X129667000Y-81427000D01*
X129413000Y-81427000D01*
X129413000Y-81407000D01*
X128270085Y-81407000D01*
X128148096Y-81629039D01*
X128188754Y-81763087D01*
X128209981Y-81807999D01*
X123254528Y-81807999D01*
X123299853Y-81698574D01*
X123355000Y-81421335D01*
X123355000Y-81138665D01*
X123313685Y-80930961D01*
X128148096Y-80930961D01*
X128270085Y-81153000D01*
X129413000Y-81153000D01*
X129413000Y-80009376D01*
X129667000Y-80009376D01*
X129667000Y-81153000D01*
X130809915Y-81153000D01*
X130931904Y-80930961D01*
X130891246Y-80796913D01*
X130771037Y-80542580D01*
X130603519Y-80316586D01*
X130395131Y-80127615D01*
X130153881Y-79982930D01*
X129889040Y-79888091D01*
X129667000Y-80009376D01*
X129413000Y-80009376D01*
X129190960Y-79888091D01*
X128926119Y-79982930D01*
X128684869Y-80127615D01*
X128476481Y-80316586D01*
X128308963Y-80542580D01*
X128188754Y-80796913D01*
X128148096Y-80930961D01*
X123313685Y-80930961D01*
X123299853Y-80861426D01*
X123191680Y-80600273D01*
X123034637Y-80365241D01*
X122834759Y-80165363D01*
X122682000Y-80063293D01*
X122682000Y-78686707D01*
X122834759Y-78584637D01*
X123034637Y-78384759D01*
X123191680Y-78149727D01*
X123299853Y-77888574D01*
X123313684Y-77819039D01*
X128148096Y-77819039D01*
X128188754Y-77953087D01*
X128308963Y-78207420D01*
X128476481Y-78433414D01*
X128684869Y-78622385D01*
X128926119Y-78767070D01*
X129190960Y-78861909D01*
X129413000Y-78740624D01*
X129413000Y-77597000D01*
X129667000Y-77597000D01*
X129667000Y-78740624D01*
X129889040Y-78861909D01*
X130153881Y-78767070D01*
X130395131Y-78622385D01*
X130603519Y-78433414D01*
X130771037Y-78207420D01*
X130891246Y-77953087D01*
X130931904Y-77819039D01*
X130809915Y-77597000D01*
X129667000Y-77597000D01*
X129413000Y-77597000D01*
X128270085Y-77597000D01*
X128148096Y-77819039D01*
X123313684Y-77819039D01*
X123355000Y-77611335D01*
X123355000Y-77328665D01*
X123313685Y-77120961D01*
X128148096Y-77120961D01*
X128270085Y-77343000D01*
X129413000Y-77343000D01*
X129413000Y-76199376D01*
X129667000Y-76199376D01*
X129667000Y-77343000D01*
X130809915Y-77343000D01*
X130931904Y-77120961D01*
X130891246Y-76986913D01*
X130771037Y-76732580D01*
X130603519Y-76506586D01*
X130395131Y-76317615D01*
X130153881Y-76172930D01*
X129889040Y-76078091D01*
X129667000Y-76199376D01*
X129413000Y-76199376D01*
X129190960Y-76078091D01*
X128926119Y-76172930D01*
X128684869Y-76317615D01*
X128476481Y-76506586D01*
X128308963Y-76732580D01*
X128188754Y-76986913D01*
X128148096Y-77120961D01*
X123313685Y-77120961D01*
X123299853Y-77051426D01*
X123191680Y-76790273D01*
X123034637Y-76555241D01*
X122834759Y-76355363D01*
X122682000Y-76253293D01*
X122682000Y-74876707D01*
X122834759Y-74774637D01*
X123034637Y-74574759D01*
X123191680Y-74339727D01*
X123299853Y-74078574D01*
X123313684Y-74009039D01*
X128148096Y-74009039D01*
X128188754Y-74143087D01*
X128308963Y-74397420D01*
X128476481Y-74623414D01*
X128684869Y-74812385D01*
X128926119Y-74957070D01*
X129190960Y-75051909D01*
X129413000Y-74930624D01*
X129413000Y-73787000D01*
X128270085Y-73787000D01*
X128148096Y-74009039D01*
X123313684Y-74009039D01*
X123355000Y-73801335D01*
X123355000Y-73518665D01*
X123299853Y-73241426D01*
X123191680Y-72980273D01*
X123098614Y-72840989D01*
X128369442Y-72840989D01*
X128308963Y-72922580D01*
G37*
X128308963Y-72922580D02*
X128188754Y-73176913D01*
X128148096Y-73310961D01*
X128270085Y-73533000D01*
X129413000Y-73533000D01*
X129413000Y-73513000D01*
X129667000Y-73513000D01*
X129667000Y-73533000D01*
X129687000Y-73533000D01*
X129687000Y-73787000D01*
X129667000Y-73787000D01*
X129667000Y-74930624D01*
X129889040Y-75051909D01*
X130153881Y-74957070D01*
X130395131Y-74812385D01*
X130603519Y-74623414D01*
X130771037Y-74397420D01*
X130802078Y-74331746D01*
X152908000Y-96437669D01*
X152908001Y-97867345D01*
X152767990Y-97960897D01*
X152570897Y-98157990D01*
X152416043Y-98389746D01*
X152400000Y-98428477D01*
X152383957Y-98389746D01*
X152229103Y-98157990D01*
X152032010Y-97960897D01*
X151800254Y-97806043D01*
X151542740Y-97699377D01*
X151269365Y-97645000D01*
X150990635Y-97645000D01*
X150717260Y-97699377D01*
X150459746Y-97806043D01*
X150227990Y-97960897D01*
X150030897Y-98157990D01*
X149876043Y-98389746D01*
X149860000Y-98428477D01*
X149843957Y-98389746D01*
X149689103Y-98157990D01*
X149492010Y-97960897D01*
X149260254Y-97806043D01*
X149002740Y-97699377D01*
X148729365Y-97645000D01*
X148450635Y-97645000D01*
X148285482Y-97677851D01*
X132665283Y-82057653D01*
X132641421Y-82028577D01*
X132525391Y-81933354D01*
X132393014Y-81862597D01*
X132249377Y-81819025D01*
X132137425Y-81807999D01*
X132137422Y-81807999D01*
X132099999Y-81804313D01*
X132062576Y-81807999D01*
X130870019Y-81807999D01*
X130891246Y-81763087D01*
X130931904Y-81629039D01*
X130809915Y-81407000D01*
X129667000Y-81407000D01*
X129667000Y-81427000D01*
X129413000Y-81427000D01*
X129413000Y-81407000D01*
X128270085Y-81407000D01*
X128148096Y-81629039D01*
X128188754Y-81763087D01*
X128209981Y-81807999D01*
X123254528Y-81807999D01*
X123299853Y-81698574D01*
X123355000Y-81421335D01*
X123355000Y-81138665D01*
X123313685Y-80930961D01*
X128148096Y-80930961D01*
X128270085Y-81153000D01*
X129413000Y-81153000D01*
X129413000Y-80009376D01*
X129667000Y-80009376D01*
X129667000Y-81153000D01*
X130809915Y-81153000D01*
X130931904Y-80930961D01*
X130891246Y-80796913D01*
X130771037Y-80542580D01*
X130603519Y-80316586D01*
X130395131Y-80127615D01*
X130153881Y-79982930D01*
X129889040Y-79888091D01*
X129667000Y-80009376D01*
X129413000Y-80009376D01*
X129190960Y-79888091D01*
X128926119Y-79982930D01*
X128684869Y-80127615D01*
X128476481Y-80316586D01*
X128308963Y-80542580D01*
X128188754Y-80796913D01*
X128148096Y-80930961D01*
X123313685Y-80930961D01*
X123299853Y-80861426D01*
X123191680Y-80600273D01*
X123034637Y-80365241D01*
X122834759Y-80165363D01*
X122682000Y-80063293D01*
X122682000Y-78686707D01*
X122834759Y-78584637D01*
X123034637Y-78384759D01*
X123191680Y-78149727D01*
X123299853Y-77888574D01*
X123313684Y-77819039D01*
X128148096Y-77819039D01*
X128188754Y-77953087D01*
X128308963Y-78207420D01*
X128476481Y-78433414D01*
X128684869Y-78622385D01*
X128926119Y-78767070D01*
X129190960Y-78861909D01*
X129413000Y-78740624D01*
X129413000Y-77597000D01*
X129667000Y-77597000D01*
X129667000Y-78740624D01*
X129889040Y-78861909D01*
X130153881Y-78767070D01*
X130395131Y-78622385D01*
X130603519Y-78433414D01*
X130771037Y-78207420D01*
X130891246Y-77953087D01*
X130931904Y-77819039D01*
X130809915Y-77597000D01*
X129667000Y-77597000D01*
X129413000Y-77597000D01*
X128270085Y-77597000D01*
X128148096Y-77819039D01*
X123313684Y-77819039D01*
X123355000Y-77611335D01*
X123355000Y-77328665D01*
X123313685Y-77120961D01*
X128148096Y-77120961D01*
X128270085Y-77343000D01*
X129413000Y-77343000D01*
X129413000Y-76199376D01*
X129667000Y-76199376D01*
X129667000Y-77343000D01*
X130809915Y-77343000D01*
X130931904Y-77120961D01*
X130891246Y-76986913D01*
X130771037Y-76732580D01*
X130603519Y-76506586D01*
X130395131Y-76317615D01*
X130153881Y-76172930D01*
X129889040Y-76078091D01*
X129667000Y-76199376D01*
X129413000Y-76199376D01*
X129190960Y-76078091D01*
X128926119Y-76172930D01*
X128684869Y-76317615D01*
X128476481Y-76506586D01*
X128308963Y-76732580D01*
X128188754Y-76986913D01*
X128148096Y-77120961D01*
X123313685Y-77120961D01*
X123299853Y-77051426D01*
X123191680Y-76790273D01*
X123034637Y-76555241D01*
X122834759Y-76355363D01*
X122682000Y-76253293D01*
X122682000Y-74876707D01*
X122834759Y-74774637D01*
X123034637Y-74574759D01*
X123191680Y-74339727D01*
X123299853Y-74078574D01*
X123313684Y-74009039D01*
X128148096Y-74009039D01*
X128188754Y-74143087D01*
X128308963Y-74397420D01*
X128476481Y-74623414D01*
X128684869Y-74812385D01*
X128926119Y-74957070D01*
X129190960Y-75051909D01*
X129413000Y-74930624D01*
X129413000Y-73787000D01*
X128270085Y-73787000D01*
X128148096Y-74009039D01*
X123313684Y-74009039D01*
X123355000Y-73801335D01*
X123355000Y-73518665D01*
X123299853Y-73241426D01*
X123191680Y-72980273D01*
X123098614Y-72840989D01*
X128369442Y-72840989D01*
X128308963Y-72922580D01*
G36*
X117353096Y-73310961D02*
G01*
X117475085Y-73533000D01*
X118618000Y-73533000D01*
X118618000Y-73513000D01*
X118872000Y-73513000D01*
X118872000Y-73533000D01*
X120014915Y-73533000D01*
X120136904Y-73310961D01*
X120132063Y-73294999D01*
X120477370Y-73294999D01*
X120520843Y-73338472D01*
X120485000Y-73518665D01*
X120485000Y-73801335D01*
X120540147Y-74078574D01*
X120648320Y-74339727D01*
X120805363Y-74574759D01*
X121005241Y-74774637D01*
X121158001Y-74876708D01*
X121158000Y-76253293D01*
X121005241Y-76355363D01*
X120805363Y-76555241D01*
X120648320Y-76790273D01*
X120540147Y-77051426D01*
X120485000Y-77328665D01*
X120485000Y-77611335D01*
X120540147Y-77888574D01*
X120648320Y-78149727D01*
X120805363Y-78384759D01*
X121005241Y-78584637D01*
X121158001Y-78686708D01*
X121158000Y-80063293D01*
X121005241Y-80165363D01*
X120805363Y-80365241D01*
X120648320Y-80600273D01*
X120540147Y-80861426D01*
X120485000Y-81138665D01*
X120485000Y-81421335D01*
X120540147Y-81698574D01*
X120585472Y-81807999D01*
X120027754Y-81807999D01*
X120096246Y-81663086D01*
X120136904Y-81529038D01*
X120014915Y-81306999D01*
X118872000Y-81306999D01*
X118872000Y-81326999D01*
X118618000Y-81326999D01*
X118618000Y-81306999D01*
X117475085Y-81306999D01*
X117353096Y-81529038D01*
X117393754Y-81663086D01*
X117462246Y-81807999D01*
X112418106Y-81807999D01*
X112504853Y-81598573D01*
X112560000Y-81321334D01*
X112560000Y-81038664D01*
X112518685Y-80830960D01*
X117353096Y-80830960D01*
X117475085Y-81052999D01*
X118618000Y-81052999D01*
X118618000Y-79909375D01*
X118872000Y-79909375D01*
X118872000Y-81052999D01*
X120014915Y-81052999D01*
X120136904Y-80830960D01*
X120096246Y-80696912D01*
X119976037Y-80442579D01*
X119808519Y-80216585D01*
X119600131Y-80027614D01*
X119358881Y-79882929D01*
X119094040Y-79788090D01*
X118872000Y-79909375D01*
X118618000Y-79909375D01*
X118395960Y-79788090D01*
X118131119Y-79882929D01*
X117889869Y-80027614D01*
X117681481Y-80216585D01*
X117513963Y-80442579D01*
X117393754Y-80696912D01*
X117353096Y-80830960D01*
X112518685Y-80830960D01*
X112504853Y-80761425D01*
X112396680Y-80500272D01*
X112239637Y-80265240D01*
X112039759Y-80065362D01*
X111887000Y-79963292D01*
X111887000Y-78686707D01*
X112039759Y-78584637D01*
X112239637Y-78384759D01*
X112396680Y-78149727D01*
X112504853Y-77888574D01*
X112518684Y-77819039D01*
X117353096Y-77819039D01*
X117393754Y-77953087D01*
X117513963Y-78207420D01*
X117681481Y-78433414D01*
X117889869Y-78622385D01*
X118131119Y-78767070D01*
X118395960Y-78861909D01*
X118618000Y-78740624D01*
X118618000Y-77597000D01*
X118872000Y-77597000D01*
X118872000Y-78740624D01*
X119094040Y-78861909D01*
X119358881Y-78767070D01*
X119600131Y-78622385D01*
X119808519Y-78433414D01*
X119976037Y-78207420D01*
X120096246Y-77953087D01*
X120136904Y-77819039D01*
X120014915Y-77597000D01*
X118872000Y-77597000D01*
X118618000Y-77597000D01*
X117475085Y-77597000D01*
X117353096Y-77819039D01*
X112518684Y-77819039D01*
X112560000Y-77611335D01*
X112560000Y-77328665D01*
X112518685Y-77120961D01*
X117353096Y-77120961D01*
X117475085Y-77343000D01*
X118618000Y-77343000D01*
X118618000Y-76199376D01*
X118872000Y-76199376D01*
X118872000Y-77343000D01*
X120014915Y-77343000D01*
X120136904Y-77120961D01*
X120096246Y-76986913D01*
X119976037Y-76732580D01*
X119808519Y-76506586D01*
X119600131Y-76317615D01*
X119358881Y-76172930D01*
X119094040Y-76078091D01*
X118872000Y-76199376D01*
X118618000Y-76199376D01*
X118395960Y-76078091D01*
X118131119Y-76172930D01*
X117889869Y-76317615D01*
X117681481Y-76506586D01*
X117513963Y-76732580D01*
X117393754Y-76986913D01*
X117353096Y-77120961D01*
X112518685Y-77120961D01*
X112504853Y-77051426D01*
X112396680Y-76790273D01*
X112239637Y-76555241D01*
X112039759Y-76355363D01*
X111887000Y-76253293D01*
X111887000Y-74876707D01*
X112039759Y-74774637D01*
X112239637Y-74574759D01*
X112396680Y-74339727D01*
X112504853Y-74078574D01*
X112518684Y-74009039D01*
X117353096Y-74009039D01*
X117393754Y-74143087D01*
X117513963Y-74397420D01*
X117681481Y-74623414D01*
X117889869Y-74812385D01*
X118131119Y-74957070D01*
X118395960Y-75051909D01*
X118618000Y-74930624D01*
X118618000Y-73787000D01*
X118872000Y-73787000D01*
X118872000Y-74930624D01*
X119094040Y-75051909D01*
X119358881Y-74957070D01*
X119600131Y-74812385D01*
X119808519Y-74623414D01*
X119976037Y-74397420D01*
X120096246Y-74143087D01*
X120136904Y-74009039D01*
X120014915Y-73787000D01*
X118872000Y-73787000D01*
X118618000Y-73787000D01*
X117475085Y-73787000D01*
X117353096Y-74009039D01*
X112518684Y-74009039D01*
X112560000Y-73801335D01*
X112560000Y-73518665D01*
X112524157Y-73338474D01*
X112567632Y-73294999D01*
X117357937Y-73294999D01*
X117353096Y-73310961D01*
G37*
X117353096Y-73310961D02*
X117475085Y-73533000D01*
X118618000Y-73533000D01*
X118618000Y-73513000D01*
X118872000Y-73513000D01*
X118872000Y-73533000D01*
X120014915Y-73533000D01*
X120136904Y-73310961D01*
X120132063Y-73294999D01*
X120477370Y-73294999D01*
X120520843Y-73338472D01*
X120485000Y-73518665D01*
X120485000Y-73801335D01*
X120540147Y-74078574D01*
X120648320Y-74339727D01*
X120805363Y-74574759D01*
X121005241Y-74774637D01*
X121158001Y-74876708D01*
X121158000Y-76253293D01*
X121005241Y-76355363D01*
X120805363Y-76555241D01*
X120648320Y-76790273D01*
X120540147Y-77051426D01*
X120485000Y-77328665D01*
X120485000Y-77611335D01*
X120540147Y-77888574D01*
X120648320Y-78149727D01*
X120805363Y-78384759D01*
X121005241Y-78584637D01*
X121158001Y-78686708D01*
X121158000Y-80063293D01*
X121005241Y-80165363D01*
X120805363Y-80365241D01*
X120648320Y-80600273D01*
X120540147Y-80861426D01*
X120485000Y-81138665D01*
X120485000Y-81421335D01*
X120540147Y-81698574D01*
X120585472Y-81807999D01*
X120027754Y-81807999D01*
X120096246Y-81663086D01*
X120136904Y-81529038D01*
X120014915Y-81306999D01*
X118872000Y-81306999D01*
X118872000Y-81326999D01*
X118618000Y-81326999D01*
X118618000Y-81306999D01*
X117475085Y-81306999D01*
X117353096Y-81529038D01*
X117393754Y-81663086D01*
X117462246Y-81807999D01*
X112418106Y-81807999D01*
X112504853Y-81598573D01*
X112560000Y-81321334D01*
X112560000Y-81038664D01*
X112518685Y-80830960D01*
X117353096Y-80830960D01*
X117475085Y-81052999D01*
X118618000Y-81052999D01*
X118618000Y-79909375D01*
X118872000Y-79909375D01*
X118872000Y-81052999D01*
X120014915Y-81052999D01*
X120136904Y-80830960D01*
X120096246Y-80696912D01*
X119976037Y-80442579D01*
X119808519Y-80216585D01*
X119600131Y-80027614D01*
X119358881Y-79882929D01*
X119094040Y-79788090D01*
X118872000Y-79909375D01*
X118618000Y-79909375D01*
X118395960Y-79788090D01*
X118131119Y-79882929D01*
X117889869Y-80027614D01*
X117681481Y-80216585D01*
X117513963Y-80442579D01*
X117393754Y-80696912D01*
X117353096Y-80830960D01*
X112518685Y-80830960D01*
X112504853Y-80761425D01*
X112396680Y-80500272D01*
X112239637Y-80265240D01*
X112039759Y-80065362D01*
X111887000Y-79963292D01*
X111887000Y-78686707D01*
X112039759Y-78584637D01*
X112239637Y-78384759D01*
X112396680Y-78149727D01*
X112504853Y-77888574D01*
X112518684Y-77819039D01*
X117353096Y-77819039D01*
X117393754Y-77953087D01*
X117513963Y-78207420D01*
X117681481Y-78433414D01*
X117889869Y-78622385D01*
X118131119Y-78767070D01*
X118395960Y-78861909D01*
X118618000Y-78740624D01*
X118618000Y-77597000D01*
X118872000Y-77597000D01*
X118872000Y-78740624D01*
X119094040Y-78861909D01*
X119358881Y-78767070D01*
X119600131Y-78622385D01*
X119808519Y-78433414D01*
X119976037Y-78207420D01*
X120096246Y-77953087D01*
X120136904Y-77819039D01*
X120014915Y-77597000D01*
X118872000Y-77597000D01*
X118618000Y-77597000D01*
X117475085Y-77597000D01*
X117353096Y-77819039D01*
X112518684Y-77819039D01*
X112560000Y-77611335D01*
X112560000Y-77328665D01*
X112518685Y-77120961D01*
X117353096Y-77120961D01*
X117475085Y-77343000D01*
X118618000Y-77343000D01*
X118618000Y-76199376D01*
X118872000Y-76199376D01*
X118872000Y-77343000D01*
X120014915Y-77343000D01*
X120136904Y-77120961D01*
X120096246Y-76986913D01*
X119976037Y-76732580D01*
X119808519Y-76506586D01*
X119600131Y-76317615D01*
X119358881Y-76172930D01*
X119094040Y-76078091D01*
X118872000Y-76199376D01*
X118618000Y-76199376D01*
X118395960Y-76078091D01*
X118131119Y-76172930D01*
X117889869Y-76317615D01*
X117681481Y-76506586D01*
X117513963Y-76732580D01*
X117393754Y-76986913D01*
X117353096Y-77120961D01*
X112518685Y-77120961D01*
X112504853Y-77051426D01*
X112396680Y-76790273D01*
X112239637Y-76555241D01*
X112039759Y-76355363D01*
X111887000Y-76253293D01*
X111887000Y-74876707D01*
X112039759Y-74774637D01*
X112239637Y-74574759D01*
X112396680Y-74339727D01*
X112504853Y-74078574D01*
X112518684Y-74009039D01*
X117353096Y-74009039D01*
X117393754Y-74143087D01*
X117513963Y-74397420D01*
X117681481Y-74623414D01*
X117889869Y-74812385D01*
X118131119Y-74957070D01*
X118395960Y-75051909D01*
X118618000Y-74930624D01*
X118618000Y-73787000D01*
X118872000Y-73787000D01*
X118872000Y-74930624D01*
X119094040Y-75051909D01*
X119358881Y-74957070D01*
X119600131Y-74812385D01*
X119808519Y-74623414D01*
X119976037Y-74397420D01*
X120096246Y-74143087D01*
X120136904Y-74009039D01*
X120014915Y-73787000D01*
X118872000Y-73787000D01*
X118618000Y-73787000D01*
X117475085Y-73787000D01*
X117353096Y-74009039D01*
X112518684Y-74009039D01*
X112560000Y-73801335D01*
X112560000Y-73518665D01*
X112524157Y-73338474D01*
X112567632Y-73294999D01*
X117357937Y-73294999D01*
X117353096Y-73310961D01*
M02*
