G04 #@! TF.GenerationSoftware,KiCad,Pcbnew,(5.1.9-0-10_14)*
G04 #@! TF.CreationDate,2023-01-27T17:44:20+01:00*
G04 #@! TF.ProjectId,spelkonsoll,7370656c-6b6f-46e7-936f-6c6c2e6b6963,rev?*
G04 #@! TF.SameCoordinates,Original*
G04 #@! TF.FileFunction,Copper,L1,Top*
G04 #@! TF.FilePolarity,Positive*
%FSLAX46Y46*%
G04 Gerber Fmt 4.6, Leading zero omitted, Abs format (unit mm)*
G04 Created by KiCad (PCBNEW (5.1.9-0-10_14)) date 2023-01-27 17:44:20*
%MOMM*%
%LPD*%
G01*
G04 APERTURE LIST*
G04 #@! TA.AperFunction,ComponentPad*
%ADD10C,2.082800*%
G04 #@! TD*
G04 #@! TA.AperFunction,ComponentPad*
%ADD11C,1.507998*%
G04 #@! TD*
G04 #@! TA.AperFunction,ComponentPad*
%ADD12O,1.600000X1.600000*%
G04 #@! TD*
G04 #@! TA.AperFunction,ComponentPad*
%ADD13C,1.600000*%
G04 #@! TD*
G04 #@! TA.AperFunction,ComponentPad*
%ADD14C,1.560000*%
G04 #@! TD*
G04 #@! TA.AperFunction,ComponentPad*
%ADD15R,1.560000X1.560000*%
G04 #@! TD*
G04 #@! TA.AperFunction,ComponentPad*
%ADD16C,1.500000*%
G04 #@! TD*
G04 #@! TA.AperFunction,ComponentPad*
%ADD17C,4.000000*%
G04 #@! TD*
G04 #@! TA.AperFunction,ComponentPad*
%ADD18R,1.500000X1.500000*%
G04 #@! TD*
G04 #@! TA.AperFunction,ComponentPad*
%ADD19R,1.500000X2.500000*%
G04 #@! TD*
G04 #@! TA.AperFunction,ComponentPad*
%ADD20O,1.500000X2.500000*%
G04 #@! TD*
G04 #@! TA.AperFunction,ComponentPad*
%ADD21O,2.200000X3.500000*%
G04 #@! TD*
G04 #@! TA.AperFunction,ViaPad*
%ADD22C,0.762000*%
G04 #@! TD*
G04 #@! TA.AperFunction,Conductor*
%ADD23C,0.254000*%
G04 #@! TD*
G04 #@! TA.AperFunction,Conductor*
%ADD24C,0.100000*%
G04 #@! TD*
G04 APERTURE END LIST*
D10*
X179832000Y-113792000D03*
X107569000Y-113792000D03*
D11*
X79859998Y-82296000D03*
X79859998Y-77795999D03*
X86360000Y-77795999D03*
X86360000Y-82296000D03*
X86360000Y-93472000D03*
X86360000Y-97972001D03*
X79859998Y-97972001D03*
X79859998Y-93472000D03*
X77470000Y-91186000D03*
X72969999Y-91186000D03*
X72969999Y-84685998D03*
X77470000Y-84685998D03*
X88646000Y-84685998D03*
X93146001Y-84685998D03*
X93146001Y-91186000D03*
X88646000Y-91186000D03*
X217424000Y-84177998D03*
X221924001Y-84177998D03*
X221924001Y-90678000D03*
X217424000Y-90678000D03*
X206756000Y-99242001D03*
X206756000Y-94742000D03*
X213256002Y-94742000D03*
X213256002Y-99242001D03*
X202692000Y-90678000D03*
X198191999Y-90678000D03*
X198191999Y-84177998D03*
X202692000Y-84177998D03*
X206756000Y-80010000D03*
X206756000Y-75509999D03*
X213256002Y-75509999D03*
X213256002Y-80010000D03*
D12*
X105148380Y-91224100D03*
D13*
X112768380Y-91224100D03*
D12*
X105148380Y-87668100D03*
D13*
X112768380Y-87668100D03*
D12*
X105156000Y-84099400D03*
D13*
X112776000Y-84099400D03*
D12*
X105156000Y-80543400D03*
D13*
X112776000Y-80543400D03*
D12*
X116217700Y-91211400D03*
D13*
X123837700Y-91211400D03*
D12*
X116217700Y-87655400D03*
D13*
X123837700Y-87655400D03*
D12*
X116217700Y-84099400D03*
D13*
X123837700Y-84099400D03*
D12*
X123825000Y-80543400D03*
D13*
X116205000Y-80543400D03*
D14*
X178615200Y-99009200D03*
X176075200Y-99009200D03*
X173535200Y-99009200D03*
X170995200Y-99009200D03*
X168455200Y-99009200D03*
X165915200Y-99009200D03*
X163375200Y-99009200D03*
X160835200Y-99009200D03*
X158295200Y-99009200D03*
X155755200Y-99009200D03*
X153215200Y-99009200D03*
X150675200Y-99009200D03*
X148135200Y-99009200D03*
X145595200Y-99009200D03*
X143055200Y-99009200D03*
X140515200Y-99009200D03*
X137975200Y-99009200D03*
X135435200Y-99009200D03*
X132895200Y-99009200D03*
X176075200Y-73609200D03*
X173535200Y-73609200D03*
X170995200Y-73609200D03*
X168455200Y-73609200D03*
X165915200Y-73609200D03*
X163375200Y-73609200D03*
X160835200Y-73609200D03*
X158295200Y-73609200D03*
X155755200Y-73609200D03*
X153215200Y-73609200D03*
X150675200Y-73609200D03*
X148135200Y-73609200D03*
X145595200Y-73609200D03*
X143055200Y-73609200D03*
X140515200Y-73609200D03*
X137975200Y-73609200D03*
X178615200Y-73609200D03*
X135435200Y-73609200D03*
D15*
X132895200Y-73609200D03*
D16*
X98068000Y-114205000D03*
X98068000Y-111665000D03*
X98068000Y-109125000D03*
X98068000Y-106585000D03*
X98068000Y-104045000D03*
D17*
X99268000Y-122567000D03*
X191568000Y-122667000D03*
X191768000Y-72667000D03*
X99568000Y-72517000D03*
D16*
X192075620Y-100953080D03*
X192075620Y-98413080D03*
X192075620Y-95873080D03*
D18*
X192075620Y-93333080D03*
D16*
X98068000Y-101427000D03*
X98068000Y-98887000D03*
X98068000Y-96347000D03*
X98068000Y-93807000D03*
X98068000Y-91267000D03*
X98068000Y-88727000D03*
X98068000Y-86187000D03*
X98068000Y-83647000D03*
D18*
X98068000Y-81107000D03*
D19*
X112776000Y-71882000D03*
D20*
X114776000Y-71882000D03*
X116776000Y-71882000D03*
D21*
X110676000Y-71882000D03*
X118876000Y-71882000D03*
D22*
X116078000Y-94234000D03*
X127254000Y-94234000D03*
X162814000Y-79248000D03*
X147828000Y-100584000D03*
X150368000Y-100584000D03*
X93218000Y-94488000D03*
X93218000Y-99822000D03*
D23*
X112776000Y-87660480D02*
X112768380Y-87668100D01*
X132336400Y-74168000D02*
X132895200Y-73609200D01*
X118493904Y-74168000D02*
X132336400Y-74168000D01*
X116776000Y-72450096D02*
X118493904Y-74168000D01*
X116776000Y-71882000D02*
X116776000Y-72450096D01*
X132895200Y-75041900D02*
X123837700Y-84099400D01*
X132895200Y-73609200D02*
X132895200Y-75041900D01*
X123837700Y-84099400D02*
X123837700Y-87655400D01*
X123837700Y-87655400D02*
X123837700Y-91211400D01*
X113882681Y-92338401D02*
X112768380Y-91224100D01*
X122710699Y-92338401D02*
X113882681Y-92338401D01*
X123837700Y-91211400D02*
X122710699Y-92338401D01*
X112768380Y-91224100D02*
X112768380Y-87668100D01*
X112768380Y-84107020D02*
X112776000Y-84099400D01*
X112768380Y-87668100D02*
X112768380Y-84107020D01*
X112776000Y-84099400D02*
X112776000Y-80543400D01*
X111648999Y-79416399D02*
X99758601Y-79416399D01*
X99758601Y-79416399D02*
X98068000Y-81107000D01*
X112776000Y-80543400D02*
X111648999Y-79416399D01*
X87549000Y-81107000D02*
X86360000Y-82296000D01*
X98068000Y-81107000D02*
X87549000Y-81107000D01*
X83970002Y-84685998D02*
X77470000Y-84685998D01*
X86360000Y-82296000D02*
X83970002Y-84685998D01*
X79859998Y-87075996D02*
X79859998Y-93472000D01*
X77470000Y-84685998D02*
X79859998Y-87075996D01*
X82145998Y-91186000D02*
X88646000Y-91186000D01*
X79859998Y-93472000D02*
X82145998Y-91186000D01*
X134002201Y-72502199D02*
X132895200Y-73609200D01*
X188116081Y-72502199D02*
X134002201Y-72502199D01*
X199791880Y-84177998D02*
X188116081Y-72502199D01*
X202692000Y-84177998D02*
X199791880Y-84177998D01*
X98149000Y-83566000D02*
X98068000Y-83647000D01*
X105148380Y-84107020D02*
X105156000Y-84099400D01*
X119773700Y-80543400D02*
X116217700Y-84099400D01*
X123825000Y-80543400D02*
X119773700Y-80543400D01*
X116217700Y-84099400D02*
X116217700Y-87655400D01*
X116217700Y-87655400D02*
X116217700Y-91211400D01*
X101171600Y-80543400D02*
X98068000Y-83647000D01*
X105156000Y-80543400D02*
X101171600Y-80543400D01*
X105156000Y-80543400D02*
X105156000Y-84099400D01*
X105156000Y-87660480D02*
X105148380Y-87668100D01*
X105156000Y-84099400D02*
X105156000Y-87660480D01*
X105148380Y-87668100D02*
X105148380Y-91224100D01*
X108158280Y-94234000D02*
X116078000Y-94234000D01*
X105148380Y-91224100D02*
X108158280Y-94234000D01*
X118112400Y-113792000D02*
X132895200Y-99009200D01*
X107569000Y-113792000D02*
X118112400Y-113792000D01*
X134002201Y-100116201D02*
X132895200Y-99009200D01*
X147028199Y-100116201D02*
X134002201Y-100116201D01*
X148135200Y-99009200D02*
X147028199Y-100116201D01*
X128120000Y-94234000D02*
X127254000Y-94234000D01*
X132895200Y-99009200D02*
X128120000Y-94234000D01*
X144488199Y-97573801D02*
X162814000Y-79248000D01*
X144488199Y-99540561D02*
X144488199Y-97573801D01*
X145063839Y-100116201D02*
X144488199Y-99540561D01*
X147028199Y-100116201D02*
X145063839Y-100116201D01*
X147828000Y-100584000D02*
X150368000Y-100584000D01*
X98149000Y-93726000D02*
X98068000Y-93807000D01*
X147654319Y-96950081D02*
X200582081Y-96950081D01*
X145595200Y-99009200D02*
X147654319Y-96950081D01*
X221924001Y-92173883D02*
X221924001Y-90678000D01*
X213774883Y-100323001D02*
X221924001Y-92173883D01*
X203955001Y-100323001D02*
X213774883Y-100323001D01*
X200582081Y-96950081D02*
X203955001Y-100323001D01*
X113457599Y-77795999D02*
X86360000Y-77795999D01*
X116205000Y-80543400D02*
X113457599Y-77795999D01*
X82562000Y-95269999D02*
X121392001Y-95269999D01*
X79859998Y-97972001D02*
X82562000Y-95269999D01*
X121392001Y-95269999D02*
X141224000Y-75438000D01*
X156466400Y-75438000D02*
X158295200Y-73609200D01*
X141224000Y-75438000D02*
X156466400Y-75438000D01*
X97937037Y-97424001D02*
X120761999Y-97424001D01*
X96308037Y-99053001D02*
X97937037Y-97424001D01*
X79341117Y-99053001D02*
X96308037Y-99053001D01*
X74050999Y-93762883D02*
X79341117Y-99053001D01*
X74050999Y-85766998D02*
X74050999Y-93762883D01*
X72969999Y-84685998D02*
X74050999Y-85766998D01*
X120761999Y-97424001D02*
X141732000Y-76454000D01*
X157990400Y-76454000D02*
X160835200Y-73609200D01*
X141732000Y-76454000D02*
X157990400Y-76454000D01*
X93146001Y-94416001D02*
X93218000Y-94488000D01*
X93146001Y-91186000D02*
X93146001Y-94416001D01*
X164340400Y-77724000D02*
X168455200Y-73609200D01*
X142494000Y-77724000D02*
X164340400Y-77724000D01*
X120015001Y-100202999D02*
X142494000Y-77724000D01*
X93598999Y-100202999D02*
X120015001Y-100202999D01*
X93218000Y-99822000D02*
X93598999Y-100202999D01*
X178341999Y-115282001D02*
X68292001Y-115282001D01*
X179832000Y-113792000D02*
X178341999Y-115282001D01*
X68292001Y-115282001D02*
X64516000Y-111506000D01*
X114776000Y-73386000D02*
X114776000Y-71882000D01*
X81212115Y-74844001D02*
X113317999Y-74844001D01*
X64516000Y-91540116D02*
X81212115Y-74844001D01*
X113317999Y-74844001D02*
X114776000Y-73386000D01*
X64516000Y-111506000D02*
X64516000Y-91540116D01*
X96243737Y-69875000D02*
X109594614Y-69875000D01*
X109443234Y-69999234D01*
X109226421Y-70263423D01*
X109065314Y-70564833D01*
X108966105Y-70891882D01*
X108941000Y-71146776D01*
X108941000Y-72617225D01*
X108966105Y-72872119D01*
X109065315Y-73199168D01*
X109226422Y-73500578D01*
X109443235Y-73764766D01*
X109707423Y-73981579D01*
X109895299Y-74082001D01*
X101691388Y-74082001D01*
X101903107Y-73765141D01*
X102101739Y-73285601D01*
X102203000Y-72776525D01*
X102203000Y-72257475D01*
X102101739Y-71748399D01*
X101903107Y-71268859D01*
X101614738Y-70837285D01*
X101247715Y-70470262D01*
X100816141Y-70181893D01*
X100336601Y-69983261D01*
X99827525Y-69882000D01*
X99308475Y-69882000D01*
X98799399Y-69983261D01*
X98319859Y-70181893D01*
X97888285Y-70470262D01*
X97521262Y-70837285D01*
X97232893Y-71268859D01*
X97034261Y-71748399D01*
X96933000Y-72257475D01*
X96933000Y-72776525D01*
X97034261Y-73285601D01*
X97232893Y-73765141D01*
X97444612Y-74082001D01*
X81249537Y-74082001D01*
X81212114Y-74078315D01*
X81174691Y-74082001D01*
X81174689Y-74082001D01*
X81062737Y-74093027D01*
X80919100Y-74136599D01*
X80786723Y-74207356D01*
X80670693Y-74302579D01*
X80646836Y-74331649D01*
X64003649Y-90974837D01*
X63974579Y-90998694D01*
X63950722Y-91027764D01*
X63950721Y-91027765D01*
X63879355Y-91114724D01*
X63808599Y-91247101D01*
X63765027Y-91390738D01*
X63750314Y-91540116D01*
X63754001Y-91577549D01*
X63754000Y-111468577D01*
X63750314Y-111506000D01*
X63754000Y-111543423D01*
X63754000Y-111543425D01*
X63765026Y-111655377D01*
X63808598Y-111799014D01*
X63815484Y-111811897D01*
X63879355Y-111931392D01*
X63900923Y-111957672D01*
X63974578Y-112047422D01*
X64003654Y-112071284D01*
X67726722Y-115794353D01*
X67750579Y-115823423D01*
X67779649Y-115847280D01*
X67866608Y-115918646D01*
X67918213Y-115946229D01*
X67998986Y-115989403D01*
X68142623Y-116032975D01*
X68254575Y-116044001D01*
X68254578Y-116044001D01*
X68292001Y-116047687D01*
X68329424Y-116044001D01*
X178304576Y-116044001D01*
X178341999Y-116047687D01*
X178379422Y-116044001D01*
X178379425Y-116044001D01*
X178491377Y-116032975D01*
X178635014Y-115989403D01*
X178767391Y-115918646D01*
X178883421Y-115823423D01*
X178907283Y-115794347D01*
X179310938Y-115390692D01*
X179343012Y-115403977D01*
X179666889Y-115468400D01*
X179997111Y-115468400D01*
X180320988Y-115403977D01*
X180626073Y-115277606D01*
X180900642Y-115094145D01*
X181134145Y-114860642D01*
X181317606Y-114586073D01*
X181443977Y-114280988D01*
X181508400Y-113957111D01*
X181508400Y-113626889D01*
X181443977Y-113303012D01*
X181317606Y-112997927D01*
X181134145Y-112723358D01*
X180900642Y-112489855D01*
X180626073Y-112306394D01*
X180320988Y-112180023D01*
X179997111Y-112115600D01*
X179666889Y-112115600D01*
X179343012Y-112180023D01*
X179037927Y-112306394D01*
X178763358Y-112489855D01*
X178529855Y-112723358D01*
X178346394Y-112997927D01*
X178220023Y-113303012D01*
X178155600Y-113626889D01*
X178155600Y-113957111D01*
X178220023Y-114280988D01*
X178233308Y-114313062D01*
X178026369Y-114520001D01*
X109079104Y-114520001D01*
X109147593Y-114379896D01*
X109231954Y-114060631D01*
X109252408Y-113731043D01*
X109208169Y-113403798D01*
X109100938Y-113091471D01*
X109002568Y-112907432D01*
X108733934Y-112806671D01*
X107748605Y-113792000D01*
X107762748Y-113806143D01*
X107583143Y-113985748D01*
X107569000Y-113971605D01*
X107554858Y-113985748D01*
X107375253Y-113806143D01*
X107389395Y-113792000D01*
X106404066Y-112806671D01*
X106135432Y-112907432D01*
X105990407Y-113204104D01*
X105906046Y-113523369D01*
X105885592Y-113852957D01*
X105929831Y-114180202D01*
X106037062Y-114492529D01*
X106051746Y-114520001D01*
X99417476Y-114520001D01*
X99453000Y-114341411D01*
X99453000Y-114068589D01*
X99399775Y-113801011D01*
X99295371Y-113548957D01*
X99143799Y-113322114D01*
X98950886Y-113129201D01*
X98724043Y-112977629D01*
X98621127Y-112935000D01*
X98724043Y-112892371D01*
X98950886Y-112740799D01*
X99064619Y-112627066D01*
X106583671Y-112627066D01*
X107569000Y-113612395D01*
X108554329Y-112627066D01*
X108453568Y-112358432D01*
X108156896Y-112213407D01*
X107837631Y-112129046D01*
X107508043Y-112108592D01*
X107180798Y-112152831D01*
X106868471Y-112260062D01*
X106684432Y-112358432D01*
X106583671Y-112627066D01*
X99064619Y-112627066D01*
X99143799Y-112547886D01*
X99295371Y-112321043D01*
X99399775Y-112068989D01*
X99453000Y-111801411D01*
X99453000Y-111528589D01*
X99399775Y-111261011D01*
X99295371Y-111008957D01*
X99143799Y-110782114D01*
X98950886Y-110589201D01*
X98724043Y-110437629D01*
X98621127Y-110395000D01*
X98724043Y-110352371D01*
X98950886Y-110200799D01*
X99143799Y-110007886D01*
X99295371Y-109781043D01*
X99399775Y-109528989D01*
X99453000Y-109261411D01*
X99453000Y-108988589D01*
X99399775Y-108721011D01*
X99295371Y-108468957D01*
X99143799Y-108242114D01*
X98950886Y-108049201D01*
X98724043Y-107897629D01*
X98621127Y-107855000D01*
X98724043Y-107812371D01*
X98950886Y-107660799D01*
X99143799Y-107467886D01*
X99295371Y-107241043D01*
X99399775Y-106988989D01*
X99453000Y-106721411D01*
X99453000Y-106448589D01*
X99399775Y-106181011D01*
X99295371Y-105928957D01*
X99143799Y-105702114D01*
X99109517Y-105667832D01*
X113665000Y-105667832D01*
X113665000Y-106168168D01*
X113762611Y-106658891D01*
X113954081Y-107121141D01*
X114232053Y-107537156D01*
X114585844Y-107890947D01*
X115001859Y-108168919D01*
X115464109Y-108360389D01*
X115954832Y-108458000D01*
X116455168Y-108458000D01*
X116945891Y-108360389D01*
X117408141Y-108168919D01*
X117824156Y-107890947D01*
X118177947Y-107537156D01*
X118455919Y-107121141D01*
X118647389Y-106658891D01*
X118745000Y-106168168D01*
X118745000Y-105725371D01*
X177876200Y-105725371D01*
X177876200Y-106110629D01*
X177951361Y-106488486D01*
X178098793Y-106844419D01*
X178312831Y-107164750D01*
X178585250Y-107437169D01*
X178905581Y-107651207D01*
X179261514Y-107798639D01*
X179639371Y-107873800D01*
X180024629Y-107873800D01*
X180402486Y-107798639D01*
X180758419Y-107651207D01*
X181078750Y-107437169D01*
X181351169Y-107164750D01*
X181565207Y-106844419D01*
X181712639Y-106488486D01*
X181787800Y-106110629D01*
X181787800Y-105725371D01*
X181712639Y-105347514D01*
X181565207Y-104991581D01*
X181351169Y-104671250D01*
X181078750Y-104398831D01*
X180758419Y-104184793D01*
X180402486Y-104037361D01*
X180024629Y-103962200D01*
X179639371Y-103962200D01*
X179261514Y-104037361D01*
X178905581Y-104184793D01*
X178585250Y-104398831D01*
X178312831Y-104671250D01*
X178098793Y-104991581D01*
X177951361Y-105347514D01*
X177876200Y-105725371D01*
X118745000Y-105725371D01*
X118745000Y-105667832D01*
X118647389Y-105177109D01*
X118455919Y-104714859D01*
X118177947Y-104298844D01*
X117824156Y-103945053D01*
X117408141Y-103667081D01*
X116945891Y-103475611D01*
X116455168Y-103378000D01*
X115954832Y-103378000D01*
X115464109Y-103475611D01*
X115001859Y-103667081D01*
X114585844Y-103945053D01*
X114232053Y-104298844D01*
X113954081Y-104714859D01*
X113762611Y-105177109D01*
X113665000Y-105667832D01*
X99109517Y-105667832D01*
X98950886Y-105509201D01*
X98724043Y-105357629D01*
X98621127Y-105315000D01*
X98724043Y-105272371D01*
X98950886Y-105120799D01*
X99143799Y-104927886D01*
X99295371Y-104701043D01*
X99399775Y-104448989D01*
X99453000Y-104181411D01*
X99453000Y-103908589D01*
X99399775Y-103641011D01*
X99295371Y-103388957D01*
X99143799Y-103162114D01*
X98950886Y-102969201D01*
X98724043Y-102817629D01*
X98526973Y-102736000D01*
X98724043Y-102654371D01*
X98950886Y-102502799D01*
X99143799Y-102309886D01*
X99295371Y-102083043D01*
X99399775Y-101830989D01*
X99453000Y-101563411D01*
X99453000Y-101290589D01*
X99399775Y-101023011D01*
X99375746Y-100964999D01*
X119977578Y-100964999D01*
X120015001Y-100968685D01*
X120052424Y-100964999D01*
X120052427Y-100964999D01*
X120164379Y-100953973D01*
X120308016Y-100910401D01*
X120440393Y-100839644D01*
X120556423Y-100744421D01*
X120580285Y-100715345D01*
X121308009Y-99987621D01*
X132096384Y-99987621D01*
X132165545Y-100229549D01*
X132417643Y-100348448D01*
X132688094Y-100415881D01*
X132966503Y-100429257D01*
X133242172Y-100388060D01*
X133504508Y-100293875D01*
X133624855Y-100229549D01*
X133694016Y-99987621D01*
X132895200Y-99188805D01*
X132096384Y-99987621D01*
X121308009Y-99987621D01*
X122215127Y-99080503D01*
X131475143Y-99080503D01*
X131516340Y-99356172D01*
X131610525Y-99618508D01*
X131674851Y-99738855D01*
X131916779Y-99808016D01*
X132715595Y-99009200D01*
X133074805Y-99009200D01*
X133873621Y-99808016D01*
X134115549Y-99738855D01*
X134163625Y-99636921D01*
X134181243Y-99679454D01*
X134336097Y-99911210D01*
X134533190Y-100108303D01*
X134764946Y-100263157D01*
X135022460Y-100369823D01*
X135295835Y-100424200D01*
X135574565Y-100424200D01*
X135847940Y-100369823D01*
X136105454Y-100263157D01*
X136337210Y-100108303D01*
X136534303Y-99911210D01*
X136689157Y-99679454D01*
X136705200Y-99640723D01*
X136721243Y-99679454D01*
X136876097Y-99911210D01*
X137073190Y-100108303D01*
X137304946Y-100263157D01*
X137562460Y-100369823D01*
X137835835Y-100424200D01*
X138114565Y-100424200D01*
X138387940Y-100369823D01*
X138645454Y-100263157D01*
X138877210Y-100108303D01*
X139074303Y-99911210D01*
X139229157Y-99679454D01*
X139245200Y-99640723D01*
X139261243Y-99679454D01*
X139416097Y-99911210D01*
X139613190Y-100108303D01*
X139844946Y-100263157D01*
X140102460Y-100369823D01*
X140375835Y-100424200D01*
X140654565Y-100424200D01*
X140927940Y-100369823D01*
X141185454Y-100263157D01*
X141417210Y-100108303D01*
X141614303Y-99911210D01*
X141769157Y-99679454D01*
X141785200Y-99640723D01*
X141801243Y-99679454D01*
X141956097Y-99911210D01*
X142153190Y-100108303D01*
X142384946Y-100263157D01*
X142642460Y-100369823D01*
X142915835Y-100424200D01*
X143194565Y-100424200D01*
X143467940Y-100369823D01*
X143725454Y-100263157D01*
X143957210Y-100108303D01*
X144154303Y-99911210D01*
X144309157Y-99679454D01*
X144325200Y-99640723D01*
X144341243Y-99679454D01*
X144496097Y-99911210D01*
X144693190Y-100108303D01*
X144924946Y-100263157D01*
X145182460Y-100369823D01*
X145455835Y-100424200D01*
X145734565Y-100424200D01*
X146007940Y-100369823D01*
X146265454Y-100263157D01*
X146497210Y-100108303D01*
X146694303Y-99911210D01*
X146849157Y-99679454D01*
X146863977Y-99643675D01*
X146914851Y-99738855D01*
X147156777Y-99808015D01*
X147040433Y-99924359D01*
X147045617Y-99929543D01*
X147038821Y-99936338D01*
X146927632Y-100102744D01*
X146851044Y-100287644D01*
X146812000Y-100483933D01*
X146812000Y-100684067D01*
X146851044Y-100880356D01*
X146927632Y-101065256D01*
X147038821Y-101231662D01*
X147180338Y-101373179D01*
X147346744Y-101484368D01*
X147531644Y-101560956D01*
X147727933Y-101600000D01*
X147928067Y-101600000D01*
X148124356Y-101560956D01*
X148309256Y-101484368D01*
X148475662Y-101373179D01*
X148502841Y-101346000D01*
X149693159Y-101346000D01*
X149720338Y-101373179D01*
X149886744Y-101484368D01*
X150071644Y-101560956D01*
X150267933Y-101600000D01*
X150468067Y-101600000D01*
X150664356Y-101560956D01*
X150849256Y-101484368D01*
X151015662Y-101373179D01*
X151157179Y-101231662D01*
X151268368Y-101065256D01*
X151344956Y-100880356D01*
X151384000Y-100684067D01*
X151384000Y-100483933D01*
X151344956Y-100287644D01*
X151336371Y-100266919D01*
X151345454Y-100263157D01*
X151577210Y-100108303D01*
X151774303Y-99911210D01*
X151929157Y-99679454D01*
X151945200Y-99640723D01*
X151961243Y-99679454D01*
X152116097Y-99911210D01*
X152313190Y-100108303D01*
X152544946Y-100263157D01*
X152802460Y-100369823D01*
X153075835Y-100424200D01*
X153354565Y-100424200D01*
X153627940Y-100369823D01*
X153885454Y-100263157D01*
X154117210Y-100108303D01*
X154314303Y-99911210D01*
X154469157Y-99679454D01*
X154485200Y-99640723D01*
X154501243Y-99679454D01*
X154656097Y-99911210D01*
X154853190Y-100108303D01*
X155084946Y-100263157D01*
X155342460Y-100369823D01*
X155615835Y-100424200D01*
X155894565Y-100424200D01*
X156167940Y-100369823D01*
X156425454Y-100263157D01*
X156657210Y-100108303D01*
X156854303Y-99911210D01*
X157009157Y-99679454D01*
X157025200Y-99640723D01*
X157041243Y-99679454D01*
X157196097Y-99911210D01*
X157393190Y-100108303D01*
X157624946Y-100263157D01*
X157882460Y-100369823D01*
X158155835Y-100424200D01*
X158434565Y-100424200D01*
X158707940Y-100369823D01*
X158965454Y-100263157D01*
X159197210Y-100108303D01*
X159394303Y-99911210D01*
X159549157Y-99679454D01*
X159565200Y-99640723D01*
X159581243Y-99679454D01*
X159736097Y-99911210D01*
X159933190Y-100108303D01*
X160164946Y-100263157D01*
X160422460Y-100369823D01*
X160695835Y-100424200D01*
X160974565Y-100424200D01*
X161247940Y-100369823D01*
X161505454Y-100263157D01*
X161737210Y-100108303D01*
X161934303Y-99911210D01*
X162089157Y-99679454D01*
X162105200Y-99640723D01*
X162121243Y-99679454D01*
X162276097Y-99911210D01*
X162473190Y-100108303D01*
X162704946Y-100263157D01*
X162962460Y-100369823D01*
X163235835Y-100424200D01*
X163514565Y-100424200D01*
X163787940Y-100369823D01*
X164045454Y-100263157D01*
X164277210Y-100108303D01*
X164474303Y-99911210D01*
X164629157Y-99679454D01*
X164645200Y-99640723D01*
X164661243Y-99679454D01*
X164816097Y-99911210D01*
X165013190Y-100108303D01*
X165244946Y-100263157D01*
X165502460Y-100369823D01*
X165775835Y-100424200D01*
X166054565Y-100424200D01*
X166327940Y-100369823D01*
X166585454Y-100263157D01*
X166817210Y-100108303D01*
X167014303Y-99911210D01*
X167169157Y-99679454D01*
X167185200Y-99640723D01*
X167201243Y-99679454D01*
X167356097Y-99911210D01*
X167553190Y-100108303D01*
X167784946Y-100263157D01*
X168042460Y-100369823D01*
X168315835Y-100424200D01*
X168594565Y-100424200D01*
X168867940Y-100369823D01*
X169125454Y-100263157D01*
X169357210Y-100108303D01*
X169554303Y-99911210D01*
X169709157Y-99679454D01*
X169725200Y-99640723D01*
X169741243Y-99679454D01*
X169896097Y-99911210D01*
X170093190Y-100108303D01*
X170324946Y-100263157D01*
X170582460Y-100369823D01*
X170855835Y-100424200D01*
X171134565Y-100424200D01*
X171407940Y-100369823D01*
X171665454Y-100263157D01*
X171897210Y-100108303D01*
X172094303Y-99911210D01*
X172249157Y-99679454D01*
X172265200Y-99640723D01*
X172281243Y-99679454D01*
X172436097Y-99911210D01*
X172633190Y-100108303D01*
X172864946Y-100263157D01*
X173122460Y-100369823D01*
X173395835Y-100424200D01*
X173674565Y-100424200D01*
X173947940Y-100369823D01*
X174205454Y-100263157D01*
X174437210Y-100108303D01*
X174634303Y-99911210D01*
X174789157Y-99679454D01*
X174805200Y-99640723D01*
X174821243Y-99679454D01*
X174976097Y-99911210D01*
X175173190Y-100108303D01*
X175404946Y-100263157D01*
X175662460Y-100369823D01*
X175935835Y-100424200D01*
X176214565Y-100424200D01*
X176487940Y-100369823D01*
X176745454Y-100263157D01*
X176977210Y-100108303D01*
X177174303Y-99911210D01*
X177329157Y-99679454D01*
X177345200Y-99640723D01*
X177361243Y-99679454D01*
X177516097Y-99911210D01*
X177713190Y-100108303D01*
X177944946Y-100263157D01*
X178202460Y-100369823D01*
X178475835Y-100424200D01*
X178754565Y-100424200D01*
X179027940Y-100369823D01*
X179285454Y-100263157D01*
X179517210Y-100108303D01*
X179714303Y-99911210D01*
X179869157Y-99679454D01*
X179975823Y-99421940D01*
X180030200Y-99148565D01*
X180030200Y-98869835D01*
X179975823Y-98596460D01*
X179869157Y-98338946D01*
X179714303Y-98107190D01*
X179517210Y-97910097D01*
X179285454Y-97755243D01*
X179181252Y-97712081D01*
X190878288Y-97712081D01*
X190848249Y-97757037D01*
X190743845Y-98009091D01*
X190690620Y-98276669D01*
X190690620Y-98549491D01*
X190743845Y-98817069D01*
X190848249Y-99069123D01*
X190999821Y-99295966D01*
X191192734Y-99488879D01*
X191419577Y-99640451D01*
X191522493Y-99683080D01*
X191419577Y-99725709D01*
X191192734Y-99877281D01*
X190999821Y-100070194D01*
X190848249Y-100297037D01*
X190743845Y-100549091D01*
X190690620Y-100816669D01*
X190690620Y-101089491D01*
X190743845Y-101357069D01*
X190848249Y-101609123D01*
X190999821Y-101835966D01*
X191192734Y-102028879D01*
X191419577Y-102180451D01*
X191671631Y-102284855D01*
X191939209Y-102338080D01*
X192212031Y-102338080D01*
X192479609Y-102284855D01*
X192731663Y-102180451D01*
X192958506Y-102028879D01*
X193151419Y-101835966D01*
X193302991Y-101609123D01*
X193407395Y-101357069D01*
X193460620Y-101089491D01*
X193460620Y-100816669D01*
X193407395Y-100549091D01*
X193302991Y-100297037D01*
X193151419Y-100070194D01*
X192958506Y-99877281D01*
X192731663Y-99725709D01*
X192628747Y-99683080D01*
X192731663Y-99640451D01*
X192958506Y-99488879D01*
X193151419Y-99295966D01*
X193302991Y-99069123D01*
X193407395Y-98817069D01*
X193460620Y-98549491D01*
X193460620Y-98276669D01*
X193407395Y-98009091D01*
X193302991Y-97757037D01*
X193272952Y-97712081D01*
X200266451Y-97712081D01*
X203389722Y-100835353D01*
X203413579Y-100864423D01*
X203529609Y-100959646D01*
X203661986Y-101030403D01*
X203805623Y-101073975D01*
X203917575Y-101085001D01*
X203917577Y-101085001D01*
X203955000Y-101088687D01*
X203992423Y-101085001D01*
X213737460Y-101085001D01*
X213774883Y-101088687D01*
X213812306Y-101085001D01*
X213812309Y-101085001D01*
X213924261Y-101073975D01*
X214067898Y-101030403D01*
X214200275Y-100959646D01*
X214316305Y-100864423D01*
X214340167Y-100835347D01*
X222436354Y-92739161D01*
X222465423Y-92715305D01*
X222560646Y-92599275D01*
X222631403Y-92466898D01*
X222674975Y-92323261D01*
X222686001Y-92211309D01*
X222686001Y-92211307D01*
X222689687Y-92173884D01*
X222686001Y-92136461D01*
X222686001Y-91839383D01*
X222809436Y-91756906D01*
X223002907Y-91563435D01*
X223154916Y-91335938D01*
X223259622Y-91083156D01*
X223313000Y-90814804D01*
X223313000Y-90541196D01*
X223259622Y-90272844D01*
X223154916Y-90020062D01*
X223002907Y-89792565D01*
X222809436Y-89599094D01*
X222581939Y-89447085D01*
X222329157Y-89342379D01*
X222060805Y-89289001D01*
X221787197Y-89289001D01*
X221518845Y-89342379D01*
X221266063Y-89447085D01*
X221038566Y-89599094D01*
X220845095Y-89792565D01*
X220693086Y-90020062D01*
X220588380Y-90272844D01*
X220535002Y-90541196D01*
X220535002Y-90814804D01*
X220588380Y-91083156D01*
X220693086Y-91335938D01*
X220845095Y-91563435D01*
X221038566Y-91756906D01*
X221162001Y-91839383D01*
X221162001Y-91858252D01*
X214466599Y-98553655D01*
X214334908Y-98356566D01*
X214141437Y-98163095D01*
X213913940Y-98011086D01*
X213661158Y-97906380D01*
X213392806Y-97853002D01*
X213119198Y-97853002D01*
X212850846Y-97906380D01*
X212598064Y-98011086D01*
X212370567Y-98163095D01*
X212177096Y-98356566D01*
X212025087Y-98584063D01*
X211920381Y-98836845D01*
X211867003Y-99105197D01*
X211867003Y-99378805D01*
X211903244Y-99561001D01*
X208108758Y-99561001D01*
X208144999Y-99378805D01*
X208144999Y-99105197D01*
X208091621Y-98836845D01*
X207986915Y-98584063D01*
X207834906Y-98356566D01*
X207641435Y-98163095D01*
X207413938Y-98011086D01*
X207161156Y-97906380D01*
X206892804Y-97853002D01*
X206619196Y-97853002D01*
X206350844Y-97906380D01*
X206098062Y-98011086D01*
X205870565Y-98163095D01*
X205677094Y-98356566D01*
X205525085Y-98584063D01*
X205420379Y-98836845D01*
X205367001Y-99105197D01*
X205367001Y-99378805D01*
X205403242Y-99561001D01*
X204270632Y-99561001D01*
X201147365Y-96437735D01*
X201123503Y-96408659D01*
X201007473Y-96313436D01*
X200875096Y-96242679D01*
X200731459Y-96199107D01*
X200619507Y-96188081D01*
X200619504Y-96188081D01*
X200582081Y-96184395D01*
X200544658Y-96188081D01*
X193425096Y-96188081D01*
X193460620Y-96009491D01*
X193460620Y-95736669D01*
X193407395Y-95469091D01*
X193302991Y-95217037D01*
X193151419Y-94990194D01*
X192958506Y-94797281D01*
X192842137Y-94719525D01*
X192950102Y-94708892D01*
X193069800Y-94672582D01*
X193180114Y-94613617D01*
X193190375Y-94605196D01*
X205367001Y-94605196D01*
X205367001Y-94878804D01*
X205420379Y-95147156D01*
X205525085Y-95399938D01*
X205677094Y-95627435D01*
X205870565Y-95820906D01*
X206098062Y-95972915D01*
X206350844Y-96077621D01*
X206619196Y-96130999D01*
X206892804Y-96130999D01*
X207161156Y-96077621D01*
X207413938Y-95972915D01*
X207641435Y-95820906D01*
X207834906Y-95627435D01*
X207986915Y-95399938D01*
X208091621Y-95147156D01*
X208144999Y-94878804D01*
X208144999Y-94605196D01*
X211867003Y-94605196D01*
X211867003Y-94878804D01*
X211920381Y-95147156D01*
X212025087Y-95399938D01*
X212177096Y-95627435D01*
X212370567Y-95820906D01*
X212598064Y-95972915D01*
X212850846Y-96077621D01*
X213119198Y-96130999D01*
X213392806Y-96130999D01*
X213661158Y-96077621D01*
X213913940Y-95972915D01*
X214141437Y-95820906D01*
X214334908Y-95627435D01*
X214486917Y-95399938D01*
X214591623Y-95147156D01*
X214645001Y-94878804D01*
X214645001Y-94605196D01*
X214591623Y-94336844D01*
X214486917Y-94084062D01*
X214334908Y-93856565D01*
X214141437Y-93663094D01*
X213913940Y-93511085D01*
X213661158Y-93406379D01*
X213392806Y-93353001D01*
X213119198Y-93353001D01*
X212850846Y-93406379D01*
X212598064Y-93511085D01*
X212370567Y-93663094D01*
X212177096Y-93856565D01*
X212025087Y-94084062D01*
X211920381Y-94336844D01*
X211867003Y-94605196D01*
X208144999Y-94605196D01*
X208091621Y-94336844D01*
X207986915Y-94084062D01*
X207834906Y-93856565D01*
X207641435Y-93663094D01*
X207413938Y-93511085D01*
X207161156Y-93406379D01*
X206892804Y-93353001D01*
X206619196Y-93353001D01*
X206350844Y-93406379D01*
X206098062Y-93511085D01*
X205870565Y-93663094D01*
X205677094Y-93856565D01*
X205525085Y-94084062D01*
X205420379Y-94336844D01*
X205367001Y-94605196D01*
X193190375Y-94605196D01*
X193276805Y-94534265D01*
X193356157Y-94437574D01*
X193415122Y-94327260D01*
X193451432Y-94207562D01*
X193463692Y-94083080D01*
X193463692Y-92583080D01*
X193451432Y-92458598D01*
X193415122Y-92338900D01*
X193356157Y-92228586D01*
X193276805Y-92131895D01*
X193180114Y-92052543D01*
X193069800Y-91993578D01*
X192950102Y-91957268D01*
X192825620Y-91945008D01*
X191325620Y-91945008D01*
X191201138Y-91957268D01*
X191081440Y-91993578D01*
X190971126Y-92052543D01*
X190874435Y-92131895D01*
X190795083Y-92228586D01*
X190736118Y-92338900D01*
X190699808Y-92458598D01*
X190687548Y-92583080D01*
X190687548Y-94083080D01*
X190699808Y-94207562D01*
X190736118Y-94327260D01*
X190795083Y-94437574D01*
X190874435Y-94534265D01*
X190971126Y-94613617D01*
X191081440Y-94672582D01*
X191201138Y-94708892D01*
X191309103Y-94719525D01*
X191192734Y-94797281D01*
X190999821Y-94990194D01*
X190848249Y-95217037D01*
X190743845Y-95469091D01*
X190690620Y-95736669D01*
X190690620Y-96009491D01*
X190726144Y-96188081D01*
X147691741Y-96188081D01*
X147654318Y-96184395D01*
X147616895Y-96188081D01*
X147616893Y-96188081D01*
X147504941Y-96199107D01*
X147361304Y-96242679D01*
X147228927Y-96313436D01*
X147112897Y-96408659D01*
X147089040Y-96437729D01*
X145899719Y-97627051D01*
X145734565Y-97594200D01*
X145455835Y-97594200D01*
X145182460Y-97648577D01*
X144924946Y-97755243D01*
X144693190Y-97910097D01*
X144496097Y-98107190D01*
X144341243Y-98338946D01*
X144325200Y-98377677D01*
X144309157Y-98338946D01*
X144154303Y-98107190D01*
X143957210Y-97910097D01*
X143725454Y-97755243D01*
X143467940Y-97648577D01*
X143194565Y-97594200D01*
X142915835Y-97594200D01*
X142642460Y-97648577D01*
X142384946Y-97755243D01*
X142153190Y-97910097D01*
X141956097Y-98107190D01*
X141801243Y-98338946D01*
X141785200Y-98377677D01*
X141769157Y-98338946D01*
X141614303Y-98107190D01*
X141417210Y-97910097D01*
X141185454Y-97755243D01*
X140927940Y-97648577D01*
X140654565Y-97594200D01*
X140375835Y-97594200D01*
X140102460Y-97648577D01*
X139844946Y-97755243D01*
X139613190Y-97910097D01*
X139416097Y-98107190D01*
X139261243Y-98338946D01*
X139245200Y-98377677D01*
X139229157Y-98338946D01*
X139074303Y-98107190D01*
X138877210Y-97910097D01*
X138645454Y-97755243D01*
X138387940Y-97648577D01*
X138114565Y-97594200D01*
X137835835Y-97594200D01*
X137562460Y-97648577D01*
X137304946Y-97755243D01*
X137073190Y-97910097D01*
X136876097Y-98107190D01*
X136721243Y-98338946D01*
X136705200Y-98377677D01*
X136689157Y-98338946D01*
X136534303Y-98107190D01*
X136337210Y-97910097D01*
X136105454Y-97755243D01*
X135847940Y-97648577D01*
X135574565Y-97594200D01*
X135295835Y-97594200D01*
X135022460Y-97648577D01*
X134764946Y-97755243D01*
X134533190Y-97910097D01*
X134336097Y-98107190D01*
X134181243Y-98338946D01*
X134166423Y-98374725D01*
X134115549Y-98279545D01*
X133873621Y-98210384D01*
X133074805Y-99009200D01*
X132715595Y-99009200D01*
X131916779Y-98210384D01*
X131674851Y-98279545D01*
X131555952Y-98531643D01*
X131488519Y-98802094D01*
X131475143Y-99080503D01*
X122215127Y-99080503D01*
X123264851Y-98030779D01*
X132096384Y-98030779D01*
X132895200Y-98829595D01*
X133694016Y-98030779D01*
X133624855Y-97788851D01*
X133372757Y-97669952D01*
X133102306Y-97602519D01*
X132823897Y-97589143D01*
X132548228Y-97630340D01*
X132285892Y-97724525D01*
X132165545Y-97788851D01*
X132096384Y-98030779D01*
X123264851Y-98030779D01*
X130754434Y-90541196D01*
X196803000Y-90541196D01*
X196803000Y-90814804D01*
X196856378Y-91083156D01*
X196961084Y-91335938D01*
X197113093Y-91563435D01*
X197306564Y-91756906D01*
X197534061Y-91908915D01*
X197786843Y-92013621D01*
X198055195Y-92066999D01*
X198328803Y-92066999D01*
X198597155Y-92013621D01*
X198849937Y-91908915D01*
X199077434Y-91756906D01*
X199270905Y-91563435D01*
X199422914Y-91335938D01*
X199527620Y-91083156D01*
X199580998Y-90814804D01*
X199580998Y-90541196D01*
X201303001Y-90541196D01*
X201303001Y-90814804D01*
X201356379Y-91083156D01*
X201461085Y-91335938D01*
X201613094Y-91563435D01*
X201806565Y-91756906D01*
X202034062Y-91908915D01*
X202286844Y-92013621D01*
X202555196Y-92066999D01*
X202828804Y-92066999D01*
X203097156Y-92013621D01*
X203349938Y-91908915D01*
X203577435Y-91756906D01*
X203770906Y-91563435D01*
X203922915Y-91335938D01*
X204027621Y-91083156D01*
X204080999Y-90814804D01*
X204080999Y-90541196D01*
X216035001Y-90541196D01*
X216035001Y-90814804D01*
X216088379Y-91083156D01*
X216193085Y-91335938D01*
X216345094Y-91563435D01*
X216538565Y-91756906D01*
X216766062Y-91908915D01*
X217018844Y-92013621D01*
X217287196Y-92066999D01*
X217560804Y-92066999D01*
X217829156Y-92013621D01*
X218081938Y-91908915D01*
X218309435Y-91756906D01*
X218502906Y-91563435D01*
X218654915Y-91335938D01*
X218759621Y-91083156D01*
X218812999Y-90814804D01*
X218812999Y-90541196D01*
X218759621Y-90272844D01*
X218654915Y-90020062D01*
X218502906Y-89792565D01*
X218309435Y-89599094D01*
X218081938Y-89447085D01*
X217829156Y-89342379D01*
X217560804Y-89289001D01*
X217287196Y-89289001D01*
X217018844Y-89342379D01*
X216766062Y-89447085D01*
X216538565Y-89599094D01*
X216345094Y-89792565D01*
X216193085Y-90020062D01*
X216088379Y-90272844D01*
X216035001Y-90541196D01*
X204080999Y-90541196D01*
X204027621Y-90272844D01*
X203922915Y-90020062D01*
X203770906Y-89792565D01*
X203577435Y-89599094D01*
X203349938Y-89447085D01*
X203097156Y-89342379D01*
X202828804Y-89289001D01*
X202555196Y-89289001D01*
X202286844Y-89342379D01*
X202034062Y-89447085D01*
X201806565Y-89599094D01*
X201613094Y-89792565D01*
X201461085Y-90020062D01*
X201356379Y-90272844D01*
X201303001Y-90541196D01*
X199580998Y-90541196D01*
X199527620Y-90272844D01*
X199422914Y-90020062D01*
X199270905Y-89792565D01*
X199077434Y-89599094D01*
X198849937Y-89447085D01*
X198597155Y-89342379D01*
X198328803Y-89289001D01*
X198055195Y-89289001D01*
X197786843Y-89342379D01*
X197534061Y-89447085D01*
X197306564Y-89599094D01*
X197113093Y-89792565D01*
X196961084Y-90020062D01*
X196856378Y-90272844D01*
X196803000Y-90541196D01*
X130754434Y-90541196D01*
X142809631Y-78486000D01*
X164302977Y-78486000D01*
X164340400Y-78489686D01*
X164377823Y-78486000D01*
X164377826Y-78486000D01*
X164489778Y-78474974D01*
X164633415Y-78431402D01*
X164765792Y-78360645D01*
X164881822Y-78265422D01*
X164905684Y-78236346D01*
X168150681Y-74991349D01*
X168315835Y-75024200D01*
X168594565Y-75024200D01*
X168867940Y-74969823D01*
X169125454Y-74863157D01*
X169357210Y-74708303D01*
X169554303Y-74511210D01*
X169709157Y-74279454D01*
X169725200Y-74240723D01*
X169741243Y-74279454D01*
X169896097Y-74511210D01*
X170093190Y-74708303D01*
X170324946Y-74863157D01*
X170582460Y-74969823D01*
X170855835Y-75024200D01*
X171134565Y-75024200D01*
X171407940Y-74969823D01*
X171665454Y-74863157D01*
X171897210Y-74708303D01*
X172094303Y-74511210D01*
X172249157Y-74279454D01*
X172265200Y-74240723D01*
X172281243Y-74279454D01*
X172436097Y-74511210D01*
X172633190Y-74708303D01*
X172864946Y-74863157D01*
X173122460Y-74969823D01*
X173395835Y-75024200D01*
X173674565Y-75024200D01*
X173947940Y-74969823D01*
X174205454Y-74863157D01*
X174437210Y-74708303D01*
X174634303Y-74511210D01*
X174789157Y-74279454D01*
X174805200Y-74240723D01*
X174821243Y-74279454D01*
X174976097Y-74511210D01*
X175173190Y-74708303D01*
X175404946Y-74863157D01*
X175662460Y-74969823D01*
X175935835Y-75024200D01*
X176214565Y-75024200D01*
X176487940Y-74969823D01*
X176745454Y-74863157D01*
X176977210Y-74708303D01*
X177174303Y-74511210D01*
X177329157Y-74279454D01*
X177345200Y-74240723D01*
X177361243Y-74279454D01*
X177516097Y-74511210D01*
X177713190Y-74708303D01*
X177944946Y-74863157D01*
X178202460Y-74969823D01*
X178475835Y-75024200D01*
X178754565Y-75024200D01*
X179027940Y-74969823D01*
X179285454Y-74863157D01*
X179517210Y-74708303D01*
X179714303Y-74511210D01*
X179869157Y-74279454D01*
X179975823Y-74021940D01*
X180030200Y-73748565D01*
X180030200Y-73469835D01*
X179989297Y-73264199D01*
X187800451Y-73264199D01*
X197503653Y-82967401D01*
X197306564Y-83099092D01*
X197113093Y-83292563D01*
X196961084Y-83520060D01*
X196856378Y-83772842D01*
X196803000Y-84041194D01*
X196803000Y-84314802D01*
X196856378Y-84583154D01*
X196961084Y-84835936D01*
X197113093Y-85063433D01*
X197306564Y-85256904D01*
X197534061Y-85408913D01*
X197786843Y-85513619D01*
X198055195Y-85566997D01*
X198328803Y-85566997D01*
X198597155Y-85513619D01*
X198849937Y-85408913D01*
X199077434Y-85256904D01*
X199270905Y-85063433D01*
X199418548Y-84842470D01*
X199498865Y-84885400D01*
X199642502Y-84928972D01*
X199754454Y-84939998D01*
X199754456Y-84939998D01*
X199791879Y-84943684D01*
X199829302Y-84939998D01*
X201530617Y-84939998D01*
X201613094Y-85063433D01*
X201806565Y-85256904D01*
X202034062Y-85408913D01*
X202286844Y-85513619D01*
X202555196Y-85566997D01*
X202828804Y-85566997D01*
X203097156Y-85513619D01*
X203349938Y-85408913D01*
X203577435Y-85256904D01*
X203770906Y-85063433D01*
X203922915Y-84835936D01*
X204027621Y-84583154D01*
X204080999Y-84314802D01*
X204080999Y-84041194D01*
X216035001Y-84041194D01*
X216035001Y-84314802D01*
X216088379Y-84583154D01*
X216193085Y-84835936D01*
X216345094Y-85063433D01*
X216538565Y-85256904D01*
X216766062Y-85408913D01*
X217018844Y-85513619D01*
X217287196Y-85566997D01*
X217560804Y-85566997D01*
X217829156Y-85513619D01*
X218081938Y-85408913D01*
X218309435Y-85256904D01*
X218502906Y-85063433D01*
X218654915Y-84835936D01*
X218759621Y-84583154D01*
X218812999Y-84314802D01*
X218812999Y-84041194D01*
X220535002Y-84041194D01*
X220535002Y-84314802D01*
X220588380Y-84583154D01*
X220693086Y-84835936D01*
X220845095Y-85063433D01*
X221038566Y-85256904D01*
X221266063Y-85408913D01*
X221518845Y-85513619D01*
X221787197Y-85566997D01*
X222060805Y-85566997D01*
X222329157Y-85513619D01*
X222581939Y-85408913D01*
X222809436Y-85256904D01*
X223002907Y-85063433D01*
X223154916Y-84835936D01*
X223259622Y-84583154D01*
X223313000Y-84314802D01*
X223313000Y-84041194D01*
X223259622Y-83772842D01*
X223154916Y-83520060D01*
X223002907Y-83292563D01*
X222809436Y-83099092D01*
X222581939Y-82947083D01*
X222329157Y-82842377D01*
X222060805Y-82788999D01*
X221787197Y-82788999D01*
X221518845Y-82842377D01*
X221266063Y-82947083D01*
X221038566Y-83099092D01*
X220845095Y-83292563D01*
X220693086Y-83520060D01*
X220588380Y-83772842D01*
X220535002Y-84041194D01*
X218812999Y-84041194D01*
X218759621Y-83772842D01*
X218654915Y-83520060D01*
X218502906Y-83292563D01*
X218309435Y-83099092D01*
X218081938Y-82947083D01*
X217829156Y-82842377D01*
X217560804Y-82788999D01*
X217287196Y-82788999D01*
X217018844Y-82842377D01*
X216766062Y-82947083D01*
X216538565Y-83099092D01*
X216345094Y-83292563D01*
X216193085Y-83520060D01*
X216088379Y-83772842D01*
X216035001Y-84041194D01*
X204080999Y-84041194D01*
X204027621Y-83772842D01*
X203922915Y-83520060D01*
X203770906Y-83292563D01*
X203577435Y-83099092D01*
X203349938Y-82947083D01*
X203097156Y-82842377D01*
X202828804Y-82788999D01*
X202555196Y-82788999D01*
X202286844Y-82842377D01*
X202034062Y-82947083D01*
X201806565Y-83099092D01*
X201613094Y-83292563D01*
X201530617Y-83415998D01*
X200107511Y-83415998D01*
X196564709Y-79873196D01*
X205367001Y-79873196D01*
X205367001Y-80146804D01*
X205420379Y-80415156D01*
X205525085Y-80667938D01*
X205677094Y-80895435D01*
X205870565Y-81088906D01*
X206098062Y-81240915D01*
X206350844Y-81345621D01*
X206619196Y-81398999D01*
X206892804Y-81398999D01*
X207161156Y-81345621D01*
X207413938Y-81240915D01*
X207641435Y-81088906D01*
X207834906Y-80895435D01*
X207986915Y-80667938D01*
X208091621Y-80415156D01*
X208144999Y-80146804D01*
X208144999Y-79873196D01*
X211867003Y-79873196D01*
X211867003Y-80146804D01*
X211920381Y-80415156D01*
X212025087Y-80667938D01*
X212177096Y-80895435D01*
X212370567Y-81088906D01*
X212598064Y-81240915D01*
X212850846Y-81345621D01*
X213119198Y-81398999D01*
X213392806Y-81398999D01*
X213661158Y-81345621D01*
X213913940Y-81240915D01*
X214141437Y-81088906D01*
X214334908Y-80895435D01*
X214486917Y-80667938D01*
X214591623Y-80415156D01*
X214645001Y-80146804D01*
X214645001Y-79873196D01*
X214591623Y-79604844D01*
X214486917Y-79352062D01*
X214334908Y-79124565D01*
X214141437Y-78931094D01*
X213913940Y-78779085D01*
X213661158Y-78674379D01*
X213392806Y-78621001D01*
X213119198Y-78621001D01*
X212850846Y-78674379D01*
X212598064Y-78779085D01*
X212370567Y-78931094D01*
X212177096Y-79124565D01*
X212025087Y-79352062D01*
X211920381Y-79604844D01*
X211867003Y-79873196D01*
X208144999Y-79873196D01*
X208091621Y-79604844D01*
X207986915Y-79352062D01*
X207834906Y-79124565D01*
X207641435Y-78931094D01*
X207413938Y-78779085D01*
X207161156Y-78674379D01*
X206892804Y-78621001D01*
X206619196Y-78621001D01*
X206350844Y-78674379D01*
X206098062Y-78779085D01*
X205870565Y-78931094D01*
X205677094Y-79124565D01*
X205525085Y-79352062D01*
X205420379Y-79604844D01*
X205367001Y-79873196D01*
X196564709Y-79873196D01*
X192064708Y-75373195D01*
X205367001Y-75373195D01*
X205367001Y-75646803D01*
X205420379Y-75915155D01*
X205525085Y-76167937D01*
X205677094Y-76395434D01*
X205870565Y-76588905D01*
X206098062Y-76740914D01*
X206350844Y-76845620D01*
X206619196Y-76898998D01*
X206892804Y-76898998D01*
X207161156Y-76845620D01*
X207413938Y-76740914D01*
X207641435Y-76588905D01*
X207834906Y-76395434D01*
X207986915Y-76167937D01*
X208091621Y-75915155D01*
X208144999Y-75646803D01*
X208144999Y-75373195D01*
X211867003Y-75373195D01*
X211867003Y-75646803D01*
X211920381Y-75915155D01*
X212025087Y-76167937D01*
X212177096Y-76395434D01*
X212370567Y-76588905D01*
X212598064Y-76740914D01*
X212850846Y-76845620D01*
X213119198Y-76898998D01*
X213392806Y-76898998D01*
X213661158Y-76845620D01*
X213913940Y-76740914D01*
X214141437Y-76588905D01*
X214334908Y-76395434D01*
X214486917Y-76167937D01*
X214591623Y-75915155D01*
X214645001Y-75646803D01*
X214645001Y-75373195D01*
X214591623Y-75104843D01*
X214486917Y-74852061D01*
X214334908Y-74624564D01*
X214141437Y-74431093D01*
X213913940Y-74279084D01*
X213661158Y-74174378D01*
X213392806Y-74121000D01*
X213119198Y-74121000D01*
X212850846Y-74174378D01*
X212598064Y-74279084D01*
X212370567Y-74431093D01*
X212177096Y-74624564D01*
X212025087Y-74852061D01*
X211920381Y-75104843D01*
X211867003Y-75373195D01*
X208144999Y-75373195D01*
X208091621Y-75104843D01*
X207986915Y-74852061D01*
X207834906Y-74624564D01*
X207641435Y-74431093D01*
X207413938Y-74279084D01*
X207161156Y-74174378D01*
X206892804Y-74121000D01*
X206619196Y-74121000D01*
X206350844Y-74174378D01*
X206098062Y-74279084D01*
X205870565Y-74431093D01*
X205677094Y-74624564D01*
X205525085Y-74852061D01*
X205420379Y-75104843D01*
X205367001Y-75373195D01*
X192064708Y-75373195D01*
X191993512Y-75302000D01*
X192027525Y-75302000D01*
X192536601Y-75200739D01*
X193016141Y-75002107D01*
X193447715Y-74713738D01*
X193814738Y-74346715D01*
X194103107Y-73915141D01*
X194301739Y-73435601D01*
X194403000Y-72926525D01*
X194403000Y-72407475D01*
X194301739Y-71898399D01*
X194103107Y-71418859D01*
X193814738Y-70987285D01*
X193447715Y-70620262D01*
X193016141Y-70331893D01*
X192536601Y-70133261D01*
X192027525Y-70032000D01*
X191508475Y-70032000D01*
X190999399Y-70133261D01*
X190519859Y-70331893D01*
X190088285Y-70620262D01*
X189721262Y-70987285D01*
X189432893Y-71418859D01*
X189234261Y-71898399D01*
X189133000Y-72407475D01*
X189133000Y-72441488D01*
X188681365Y-71989853D01*
X188657503Y-71960777D01*
X188541473Y-71865554D01*
X188409096Y-71794797D01*
X188265459Y-71751225D01*
X188153507Y-71740199D01*
X188153504Y-71740199D01*
X188116081Y-71736513D01*
X188078658Y-71740199D01*
X134039624Y-71740199D01*
X134002201Y-71736513D01*
X133964778Y-71740199D01*
X133964775Y-71740199D01*
X133852823Y-71751225D01*
X133709186Y-71794797D01*
X133680605Y-71810074D01*
X133576808Y-71865554D01*
X133503636Y-71925605D01*
X133460779Y-71960777D01*
X133436922Y-71989847D01*
X133235641Y-72191128D01*
X132115200Y-72191128D01*
X131990718Y-72203388D01*
X131871020Y-72239698D01*
X131760706Y-72298663D01*
X131664015Y-72378015D01*
X131584663Y-72474706D01*
X131525698Y-72585020D01*
X131489388Y-72704718D01*
X131477128Y-72829200D01*
X131477128Y-73406000D01*
X120376132Y-73406000D01*
X120486686Y-73199168D01*
X120585895Y-72872119D01*
X120611000Y-72617225D01*
X120611000Y-71146775D01*
X120585895Y-70891881D01*
X120486686Y-70564832D01*
X120325579Y-70263422D01*
X120108766Y-69999234D01*
X119957386Y-69875000D01*
X194680239Y-69875000D01*
X194680246Y-69874999D01*
X206224073Y-69875060D01*
X208263168Y-69949830D01*
X210277626Y-70172228D01*
X212270385Y-70541564D01*
X214230761Y-71055859D01*
X216148189Y-71712341D01*
X218012394Y-72507492D01*
X219813362Y-73437041D01*
X221541410Y-74495991D01*
X223187256Y-75678651D01*
X224742083Y-76978689D01*
X226197508Y-78389093D01*
X227545732Y-79902308D01*
X228779510Y-81510199D01*
X229892214Y-83204129D01*
X230877871Y-84975007D01*
X231731188Y-86813319D01*
X232447574Y-88709181D01*
X233023190Y-90652426D01*
X233454938Y-92632601D01*
X233740504Y-94639092D01*
X233878350Y-96661105D01*
X233867739Y-98687783D01*
X233708726Y-100708226D01*
X233402164Y-102711622D01*
X232949703Y-104687170D01*
X232353772Y-106624274D01*
X231617571Y-108512530D01*
X230745052Y-110341808D01*
X229740897Y-112102278D01*
X228610520Y-113784456D01*
X227359964Y-115379348D01*
X225995971Y-116878356D01*
X224525855Y-118273444D01*
X222957514Y-119557116D01*
X221299365Y-120722483D01*
X219560322Y-121763279D01*
X217749732Y-122673911D01*
X215877289Y-123449502D01*
X213953093Y-124085870D01*
X211987438Y-124579608D01*
X209990929Y-124928055D01*
X207972509Y-125129520D01*
X206227438Y-125184361D01*
X194680242Y-125184300D01*
X192376288Y-125184300D01*
X192816141Y-125002107D01*
X193247715Y-124713738D01*
X193614738Y-124346715D01*
X193903107Y-123915141D01*
X194101739Y-123435601D01*
X194203000Y-122926525D01*
X194203000Y-122407475D01*
X194101739Y-121898399D01*
X193903107Y-121418859D01*
X193614738Y-120987285D01*
X193247715Y-120620262D01*
X192816141Y-120331893D01*
X192336601Y-120133261D01*
X191827525Y-120032000D01*
X191308475Y-120032000D01*
X190799399Y-120133261D01*
X190319859Y-120331893D01*
X189888285Y-120620262D01*
X189521262Y-120987285D01*
X189232893Y-121418859D01*
X189034261Y-121898399D01*
X188933000Y-122407475D01*
X188933000Y-122926525D01*
X189034261Y-123435601D01*
X189232893Y-123915141D01*
X189521262Y-124346715D01*
X189888285Y-124713738D01*
X190319859Y-125002107D01*
X190759712Y-125184300D01*
X99616509Y-125184300D01*
X100036601Y-125100739D01*
X100516141Y-124902107D01*
X100947715Y-124613738D01*
X101314738Y-124246715D01*
X101603107Y-123815141D01*
X101801739Y-123335601D01*
X101903000Y-122826525D01*
X101903000Y-122307475D01*
X101801739Y-121798399D01*
X101643275Y-121415832D01*
X168910000Y-121415832D01*
X168910000Y-121916168D01*
X169007611Y-122406891D01*
X169199081Y-122869141D01*
X169477053Y-123285156D01*
X169830844Y-123638947D01*
X170246859Y-123916919D01*
X170709109Y-124108389D01*
X171199832Y-124206000D01*
X171700168Y-124206000D01*
X172190891Y-124108389D01*
X172653141Y-123916919D01*
X173069156Y-123638947D01*
X173422947Y-123285156D01*
X173700919Y-122869141D01*
X173892389Y-122406891D01*
X173990000Y-121916168D01*
X173990000Y-121415832D01*
X173892389Y-120925109D01*
X173700919Y-120462859D01*
X173422947Y-120046844D01*
X173069156Y-119693053D01*
X172653141Y-119415081D01*
X172190891Y-119223611D01*
X171700168Y-119126000D01*
X171199832Y-119126000D01*
X170709109Y-119223611D01*
X170246859Y-119415081D01*
X169830844Y-119693053D01*
X169477053Y-120046844D01*
X169199081Y-120462859D01*
X169007611Y-120925109D01*
X168910000Y-121415832D01*
X101643275Y-121415832D01*
X101603107Y-121318859D01*
X101314738Y-120887285D01*
X100947715Y-120520262D01*
X100516141Y-120231893D01*
X100036601Y-120033261D01*
X99527525Y-119932000D01*
X99008475Y-119932000D01*
X98499399Y-120033261D01*
X98019859Y-120231893D01*
X97588285Y-120520262D01*
X97221262Y-120887285D01*
X96932893Y-121318859D01*
X96734261Y-121798399D01*
X96633000Y-122307475D01*
X96633000Y-122826525D01*
X96734261Y-123335601D01*
X96932893Y-123815141D01*
X97221262Y-124246715D01*
X97588285Y-124613738D01*
X98019859Y-124902107D01*
X98499399Y-125100739D01*
X98919491Y-125184300D01*
X86233924Y-125184300D01*
X84196472Y-125109590D01*
X82182015Y-124887192D01*
X80189255Y-124517856D01*
X78228879Y-124003561D01*
X76311452Y-123347079D01*
X74447246Y-122551928D01*
X72646288Y-121622384D01*
X70918235Y-120563433D01*
X69272384Y-119380769D01*
X67717564Y-118080738D01*
X66262138Y-116670334D01*
X64913913Y-115157118D01*
X63680136Y-113549230D01*
X62567426Y-111855291D01*
X61581769Y-110084413D01*
X60728452Y-108246101D01*
X60012067Y-106350243D01*
X59436450Y-104406994D01*
X59004702Y-102426819D01*
X58719136Y-100420328D01*
X58581290Y-98398315D01*
X58591901Y-96371637D01*
X58750914Y-94351194D01*
X59057476Y-92347798D01*
X59509936Y-90372254D01*
X60105868Y-88435146D01*
X60842073Y-86546878D01*
X61714588Y-84717613D01*
X62718739Y-82957148D01*
X63849124Y-81274959D01*
X65099670Y-79680080D01*
X66463669Y-78181064D01*
X67933783Y-76785978D01*
X69502132Y-75502299D01*
X71160275Y-74336938D01*
X72899330Y-73296134D01*
X74709908Y-72385509D01*
X76582339Y-71609922D01*
X78506551Y-70973549D01*
X80472189Y-70479814D01*
X82468711Y-70131365D01*
X84487131Y-69929900D01*
X86236019Y-69874939D01*
X96243737Y-69875000D01*
G04 #@! TA.AperFunction,Conductor*
D24*
G36*
X96243737Y-69875000D02*
G01*
X109594614Y-69875000D01*
X109443234Y-69999234D01*
X109226421Y-70263423D01*
X109065314Y-70564833D01*
X108966105Y-70891882D01*
X108941000Y-71146776D01*
X108941000Y-72617225D01*
X108966105Y-72872119D01*
X109065315Y-73199168D01*
X109226422Y-73500578D01*
X109443235Y-73764766D01*
X109707423Y-73981579D01*
X109895299Y-74082001D01*
X101691388Y-74082001D01*
X101903107Y-73765141D01*
X102101739Y-73285601D01*
X102203000Y-72776525D01*
X102203000Y-72257475D01*
X102101739Y-71748399D01*
X101903107Y-71268859D01*
X101614738Y-70837285D01*
X101247715Y-70470262D01*
X100816141Y-70181893D01*
X100336601Y-69983261D01*
X99827525Y-69882000D01*
X99308475Y-69882000D01*
X98799399Y-69983261D01*
X98319859Y-70181893D01*
X97888285Y-70470262D01*
X97521262Y-70837285D01*
X97232893Y-71268859D01*
X97034261Y-71748399D01*
X96933000Y-72257475D01*
X96933000Y-72776525D01*
X97034261Y-73285601D01*
X97232893Y-73765141D01*
X97444612Y-74082001D01*
X81249537Y-74082001D01*
X81212114Y-74078315D01*
X81174691Y-74082001D01*
X81174689Y-74082001D01*
X81062737Y-74093027D01*
X80919100Y-74136599D01*
X80786723Y-74207356D01*
X80670693Y-74302579D01*
X80646836Y-74331649D01*
X64003649Y-90974837D01*
X63974579Y-90998694D01*
X63950722Y-91027764D01*
X63950721Y-91027765D01*
X63879355Y-91114724D01*
X63808599Y-91247101D01*
X63765027Y-91390738D01*
X63750314Y-91540116D01*
X63754001Y-91577549D01*
X63754000Y-111468577D01*
X63750314Y-111506000D01*
X63754000Y-111543423D01*
X63754000Y-111543425D01*
X63765026Y-111655377D01*
X63808598Y-111799014D01*
X63815484Y-111811897D01*
X63879355Y-111931392D01*
X63900923Y-111957672D01*
X63974578Y-112047422D01*
X64003654Y-112071284D01*
X67726722Y-115794353D01*
X67750579Y-115823423D01*
X67779649Y-115847280D01*
X67866608Y-115918646D01*
X67918213Y-115946229D01*
X67998986Y-115989403D01*
X68142623Y-116032975D01*
X68254575Y-116044001D01*
X68254578Y-116044001D01*
X68292001Y-116047687D01*
X68329424Y-116044001D01*
X178304576Y-116044001D01*
X178341999Y-116047687D01*
X178379422Y-116044001D01*
X178379425Y-116044001D01*
X178491377Y-116032975D01*
X178635014Y-115989403D01*
X178767391Y-115918646D01*
X178883421Y-115823423D01*
X178907283Y-115794347D01*
X179310938Y-115390692D01*
X179343012Y-115403977D01*
X179666889Y-115468400D01*
X179997111Y-115468400D01*
X180320988Y-115403977D01*
X180626073Y-115277606D01*
X180900642Y-115094145D01*
X181134145Y-114860642D01*
X181317606Y-114586073D01*
X181443977Y-114280988D01*
X181508400Y-113957111D01*
X181508400Y-113626889D01*
X181443977Y-113303012D01*
X181317606Y-112997927D01*
X181134145Y-112723358D01*
X180900642Y-112489855D01*
X180626073Y-112306394D01*
X180320988Y-112180023D01*
X179997111Y-112115600D01*
X179666889Y-112115600D01*
X179343012Y-112180023D01*
X179037927Y-112306394D01*
X178763358Y-112489855D01*
X178529855Y-112723358D01*
X178346394Y-112997927D01*
X178220023Y-113303012D01*
X178155600Y-113626889D01*
X178155600Y-113957111D01*
X178220023Y-114280988D01*
X178233308Y-114313062D01*
X178026369Y-114520001D01*
X109079104Y-114520001D01*
X109147593Y-114379896D01*
X109231954Y-114060631D01*
X109252408Y-113731043D01*
X109208169Y-113403798D01*
X109100938Y-113091471D01*
X109002568Y-112907432D01*
X108733934Y-112806671D01*
X107748605Y-113792000D01*
X107762748Y-113806143D01*
X107583143Y-113985748D01*
X107569000Y-113971605D01*
X107554858Y-113985748D01*
X107375253Y-113806143D01*
X107389395Y-113792000D01*
X106404066Y-112806671D01*
X106135432Y-112907432D01*
X105990407Y-113204104D01*
X105906046Y-113523369D01*
X105885592Y-113852957D01*
X105929831Y-114180202D01*
X106037062Y-114492529D01*
X106051746Y-114520001D01*
X99417476Y-114520001D01*
X99453000Y-114341411D01*
X99453000Y-114068589D01*
X99399775Y-113801011D01*
X99295371Y-113548957D01*
X99143799Y-113322114D01*
X98950886Y-113129201D01*
X98724043Y-112977629D01*
X98621127Y-112935000D01*
X98724043Y-112892371D01*
X98950886Y-112740799D01*
X99064619Y-112627066D01*
X106583671Y-112627066D01*
X107569000Y-113612395D01*
X108554329Y-112627066D01*
X108453568Y-112358432D01*
X108156896Y-112213407D01*
X107837631Y-112129046D01*
X107508043Y-112108592D01*
X107180798Y-112152831D01*
X106868471Y-112260062D01*
X106684432Y-112358432D01*
X106583671Y-112627066D01*
X99064619Y-112627066D01*
X99143799Y-112547886D01*
X99295371Y-112321043D01*
X99399775Y-112068989D01*
X99453000Y-111801411D01*
X99453000Y-111528589D01*
X99399775Y-111261011D01*
X99295371Y-111008957D01*
X99143799Y-110782114D01*
X98950886Y-110589201D01*
X98724043Y-110437629D01*
X98621127Y-110395000D01*
X98724043Y-110352371D01*
X98950886Y-110200799D01*
X99143799Y-110007886D01*
X99295371Y-109781043D01*
X99399775Y-109528989D01*
X99453000Y-109261411D01*
X99453000Y-108988589D01*
X99399775Y-108721011D01*
X99295371Y-108468957D01*
X99143799Y-108242114D01*
X98950886Y-108049201D01*
X98724043Y-107897629D01*
X98621127Y-107855000D01*
X98724043Y-107812371D01*
X98950886Y-107660799D01*
X99143799Y-107467886D01*
X99295371Y-107241043D01*
X99399775Y-106988989D01*
X99453000Y-106721411D01*
X99453000Y-106448589D01*
X99399775Y-106181011D01*
X99295371Y-105928957D01*
X99143799Y-105702114D01*
X99109517Y-105667832D01*
X113665000Y-105667832D01*
X113665000Y-106168168D01*
X113762611Y-106658891D01*
X113954081Y-107121141D01*
X114232053Y-107537156D01*
X114585844Y-107890947D01*
X115001859Y-108168919D01*
X115464109Y-108360389D01*
X115954832Y-108458000D01*
X116455168Y-108458000D01*
X116945891Y-108360389D01*
X117408141Y-108168919D01*
X117824156Y-107890947D01*
X118177947Y-107537156D01*
X118455919Y-107121141D01*
X118647389Y-106658891D01*
X118745000Y-106168168D01*
X118745000Y-105725371D01*
X177876200Y-105725371D01*
X177876200Y-106110629D01*
X177951361Y-106488486D01*
X178098793Y-106844419D01*
X178312831Y-107164750D01*
X178585250Y-107437169D01*
X178905581Y-107651207D01*
X179261514Y-107798639D01*
X179639371Y-107873800D01*
X180024629Y-107873800D01*
X180402486Y-107798639D01*
X180758419Y-107651207D01*
X181078750Y-107437169D01*
X181351169Y-107164750D01*
X181565207Y-106844419D01*
X181712639Y-106488486D01*
X181787800Y-106110629D01*
X181787800Y-105725371D01*
X181712639Y-105347514D01*
X181565207Y-104991581D01*
X181351169Y-104671250D01*
X181078750Y-104398831D01*
X180758419Y-104184793D01*
X180402486Y-104037361D01*
X180024629Y-103962200D01*
X179639371Y-103962200D01*
X179261514Y-104037361D01*
X178905581Y-104184793D01*
X178585250Y-104398831D01*
X178312831Y-104671250D01*
X178098793Y-104991581D01*
X177951361Y-105347514D01*
X177876200Y-105725371D01*
X118745000Y-105725371D01*
X118745000Y-105667832D01*
X118647389Y-105177109D01*
X118455919Y-104714859D01*
X118177947Y-104298844D01*
X117824156Y-103945053D01*
X117408141Y-103667081D01*
X116945891Y-103475611D01*
X116455168Y-103378000D01*
X115954832Y-103378000D01*
X115464109Y-103475611D01*
X115001859Y-103667081D01*
X114585844Y-103945053D01*
X114232053Y-104298844D01*
X113954081Y-104714859D01*
X113762611Y-105177109D01*
X113665000Y-105667832D01*
X99109517Y-105667832D01*
X98950886Y-105509201D01*
X98724043Y-105357629D01*
X98621127Y-105315000D01*
X98724043Y-105272371D01*
X98950886Y-105120799D01*
X99143799Y-104927886D01*
X99295371Y-104701043D01*
X99399775Y-104448989D01*
X99453000Y-104181411D01*
X99453000Y-103908589D01*
X99399775Y-103641011D01*
X99295371Y-103388957D01*
X99143799Y-103162114D01*
X98950886Y-102969201D01*
X98724043Y-102817629D01*
X98526973Y-102736000D01*
X98724043Y-102654371D01*
X98950886Y-102502799D01*
X99143799Y-102309886D01*
X99295371Y-102083043D01*
X99399775Y-101830989D01*
X99453000Y-101563411D01*
X99453000Y-101290589D01*
X99399775Y-101023011D01*
X99375746Y-100964999D01*
X119977578Y-100964999D01*
X120015001Y-100968685D01*
X120052424Y-100964999D01*
X120052427Y-100964999D01*
X120164379Y-100953973D01*
X120308016Y-100910401D01*
X120440393Y-100839644D01*
X120556423Y-100744421D01*
X120580285Y-100715345D01*
X121308009Y-99987621D01*
X132096384Y-99987621D01*
X132165545Y-100229549D01*
X132417643Y-100348448D01*
X132688094Y-100415881D01*
X132966503Y-100429257D01*
X133242172Y-100388060D01*
X133504508Y-100293875D01*
X133624855Y-100229549D01*
X133694016Y-99987621D01*
X132895200Y-99188805D01*
X132096384Y-99987621D01*
X121308009Y-99987621D01*
X122215127Y-99080503D01*
X131475143Y-99080503D01*
X131516340Y-99356172D01*
X131610525Y-99618508D01*
X131674851Y-99738855D01*
X131916779Y-99808016D01*
X132715595Y-99009200D01*
X133074805Y-99009200D01*
X133873621Y-99808016D01*
X134115549Y-99738855D01*
X134163625Y-99636921D01*
X134181243Y-99679454D01*
X134336097Y-99911210D01*
X134533190Y-100108303D01*
X134764946Y-100263157D01*
X135022460Y-100369823D01*
X135295835Y-100424200D01*
X135574565Y-100424200D01*
X135847940Y-100369823D01*
X136105454Y-100263157D01*
X136337210Y-100108303D01*
X136534303Y-99911210D01*
X136689157Y-99679454D01*
X136705200Y-99640723D01*
X136721243Y-99679454D01*
X136876097Y-99911210D01*
X137073190Y-100108303D01*
X137304946Y-100263157D01*
X137562460Y-100369823D01*
X137835835Y-100424200D01*
X138114565Y-100424200D01*
X138387940Y-100369823D01*
X138645454Y-100263157D01*
X138877210Y-100108303D01*
X139074303Y-99911210D01*
X139229157Y-99679454D01*
X139245200Y-99640723D01*
X139261243Y-99679454D01*
X139416097Y-99911210D01*
X139613190Y-100108303D01*
X139844946Y-100263157D01*
X140102460Y-100369823D01*
X140375835Y-100424200D01*
X140654565Y-100424200D01*
X140927940Y-100369823D01*
X141185454Y-100263157D01*
X141417210Y-100108303D01*
X141614303Y-99911210D01*
X141769157Y-99679454D01*
X141785200Y-99640723D01*
X141801243Y-99679454D01*
X141956097Y-99911210D01*
X142153190Y-100108303D01*
X142384946Y-100263157D01*
X142642460Y-100369823D01*
X142915835Y-100424200D01*
X143194565Y-100424200D01*
X143467940Y-100369823D01*
X143725454Y-100263157D01*
X143957210Y-100108303D01*
X144154303Y-99911210D01*
X144309157Y-99679454D01*
X144325200Y-99640723D01*
X144341243Y-99679454D01*
X144496097Y-99911210D01*
X144693190Y-100108303D01*
X144924946Y-100263157D01*
X145182460Y-100369823D01*
X145455835Y-100424200D01*
X145734565Y-100424200D01*
X146007940Y-100369823D01*
X146265454Y-100263157D01*
X146497210Y-100108303D01*
X146694303Y-99911210D01*
X146849157Y-99679454D01*
X146863977Y-99643675D01*
X146914851Y-99738855D01*
X147156777Y-99808015D01*
X147040433Y-99924359D01*
X147045617Y-99929543D01*
X147038821Y-99936338D01*
X146927632Y-100102744D01*
X146851044Y-100287644D01*
X146812000Y-100483933D01*
X146812000Y-100684067D01*
X146851044Y-100880356D01*
X146927632Y-101065256D01*
X147038821Y-101231662D01*
X147180338Y-101373179D01*
X147346744Y-101484368D01*
X147531644Y-101560956D01*
X147727933Y-101600000D01*
X147928067Y-101600000D01*
X148124356Y-101560956D01*
X148309256Y-101484368D01*
X148475662Y-101373179D01*
X148502841Y-101346000D01*
X149693159Y-101346000D01*
X149720338Y-101373179D01*
X149886744Y-101484368D01*
X150071644Y-101560956D01*
X150267933Y-101600000D01*
X150468067Y-101600000D01*
X150664356Y-101560956D01*
X150849256Y-101484368D01*
X151015662Y-101373179D01*
X151157179Y-101231662D01*
X151268368Y-101065256D01*
X151344956Y-100880356D01*
X151384000Y-100684067D01*
X151384000Y-100483933D01*
X151344956Y-100287644D01*
X151336371Y-100266919D01*
X151345454Y-100263157D01*
X151577210Y-100108303D01*
X151774303Y-99911210D01*
X151929157Y-99679454D01*
X151945200Y-99640723D01*
X151961243Y-99679454D01*
X152116097Y-99911210D01*
X152313190Y-100108303D01*
X152544946Y-100263157D01*
X152802460Y-100369823D01*
X153075835Y-100424200D01*
X153354565Y-100424200D01*
X153627940Y-100369823D01*
X153885454Y-100263157D01*
X154117210Y-100108303D01*
X154314303Y-99911210D01*
X154469157Y-99679454D01*
X154485200Y-99640723D01*
X154501243Y-99679454D01*
X154656097Y-99911210D01*
X154853190Y-100108303D01*
X155084946Y-100263157D01*
X155342460Y-100369823D01*
X155615835Y-100424200D01*
X155894565Y-100424200D01*
X156167940Y-100369823D01*
X156425454Y-100263157D01*
X156657210Y-100108303D01*
X156854303Y-99911210D01*
X157009157Y-99679454D01*
X157025200Y-99640723D01*
X157041243Y-99679454D01*
X157196097Y-99911210D01*
X157393190Y-100108303D01*
X157624946Y-100263157D01*
X157882460Y-100369823D01*
X158155835Y-100424200D01*
X158434565Y-100424200D01*
X158707940Y-100369823D01*
X158965454Y-100263157D01*
X159197210Y-100108303D01*
X159394303Y-99911210D01*
X159549157Y-99679454D01*
X159565200Y-99640723D01*
X159581243Y-99679454D01*
X159736097Y-99911210D01*
X159933190Y-100108303D01*
X160164946Y-100263157D01*
X160422460Y-100369823D01*
X160695835Y-100424200D01*
X160974565Y-100424200D01*
X161247940Y-100369823D01*
X161505454Y-100263157D01*
X161737210Y-100108303D01*
X161934303Y-99911210D01*
X162089157Y-99679454D01*
X162105200Y-99640723D01*
X162121243Y-99679454D01*
X162276097Y-99911210D01*
X162473190Y-100108303D01*
X162704946Y-100263157D01*
X162962460Y-100369823D01*
X163235835Y-100424200D01*
X163514565Y-100424200D01*
X163787940Y-100369823D01*
X164045454Y-100263157D01*
X164277210Y-100108303D01*
X164474303Y-99911210D01*
X164629157Y-99679454D01*
X164645200Y-99640723D01*
X164661243Y-99679454D01*
X164816097Y-99911210D01*
X165013190Y-100108303D01*
X165244946Y-100263157D01*
X165502460Y-100369823D01*
X165775835Y-100424200D01*
X166054565Y-100424200D01*
X166327940Y-100369823D01*
X166585454Y-100263157D01*
X166817210Y-100108303D01*
X167014303Y-99911210D01*
X167169157Y-99679454D01*
X167185200Y-99640723D01*
X167201243Y-99679454D01*
X167356097Y-99911210D01*
X167553190Y-100108303D01*
X167784946Y-100263157D01*
X168042460Y-100369823D01*
X168315835Y-100424200D01*
X168594565Y-100424200D01*
X168867940Y-100369823D01*
X169125454Y-100263157D01*
X169357210Y-100108303D01*
X169554303Y-99911210D01*
X169709157Y-99679454D01*
X169725200Y-99640723D01*
X169741243Y-99679454D01*
X169896097Y-99911210D01*
X170093190Y-100108303D01*
X170324946Y-100263157D01*
X170582460Y-100369823D01*
X170855835Y-100424200D01*
X171134565Y-100424200D01*
X171407940Y-100369823D01*
X171665454Y-100263157D01*
X171897210Y-100108303D01*
X172094303Y-99911210D01*
X172249157Y-99679454D01*
X172265200Y-99640723D01*
X172281243Y-99679454D01*
X172436097Y-99911210D01*
X172633190Y-100108303D01*
X172864946Y-100263157D01*
X173122460Y-100369823D01*
X173395835Y-100424200D01*
X173674565Y-100424200D01*
X173947940Y-100369823D01*
X174205454Y-100263157D01*
X174437210Y-100108303D01*
X174634303Y-99911210D01*
X174789157Y-99679454D01*
X174805200Y-99640723D01*
X174821243Y-99679454D01*
X174976097Y-99911210D01*
X175173190Y-100108303D01*
X175404946Y-100263157D01*
X175662460Y-100369823D01*
X175935835Y-100424200D01*
X176214565Y-100424200D01*
X176487940Y-100369823D01*
X176745454Y-100263157D01*
X176977210Y-100108303D01*
X177174303Y-99911210D01*
X177329157Y-99679454D01*
X177345200Y-99640723D01*
X177361243Y-99679454D01*
X177516097Y-99911210D01*
X177713190Y-100108303D01*
X177944946Y-100263157D01*
X178202460Y-100369823D01*
X178475835Y-100424200D01*
X178754565Y-100424200D01*
X179027940Y-100369823D01*
X179285454Y-100263157D01*
X179517210Y-100108303D01*
X179714303Y-99911210D01*
X179869157Y-99679454D01*
X179975823Y-99421940D01*
X180030200Y-99148565D01*
X180030200Y-98869835D01*
X179975823Y-98596460D01*
X179869157Y-98338946D01*
X179714303Y-98107190D01*
X179517210Y-97910097D01*
X179285454Y-97755243D01*
X179181252Y-97712081D01*
X190878288Y-97712081D01*
X190848249Y-97757037D01*
X190743845Y-98009091D01*
X190690620Y-98276669D01*
X190690620Y-98549491D01*
X190743845Y-98817069D01*
X190848249Y-99069123D01*
X190999821Y-99295966D01*
X191192734Y-99488879D01*
X191419577Y-99640451D01*
X191522493Y-99683080D01*
X191419577Y-99725709D01*
X191192734Y-99877281D01*
X190999821Y-100070194D01*
X190848249Y-100297037D01*
X190743845Y-100549091D01*
X190690620Y-100816669D01*
X190690620Y-101089491D01*
X190743845Y-101357069D01*
X190848249Y-101609123D01*
X190999821Y-101835966D01*
X191192734Y-102028879D01*
X191419577Y-102180451D01*
X191671631Y-102284855D01*
X191939209Y-102338080D01*
X192212031Y-102338080D01*
X192479609Y-102284855D01*
X192731663Y-102180451D01*
X192958506Y-102028879D01*
X193151419Y-101835966D01*
X193302991Y-101609123D01*
X193407395Y-101357069D01*
X193460620Y-101089491D01*
X193460620Y-100816669D01*
X193407395Y-100549091D01*
X193302991Y-100297037D01*
X193151419Y-100070194D01*
X192958506Y-99877281D01*
X192731663Y-99725709D01*
X192628747Y-99683080D01*
X192731663Y-99640451D01*
X192958506Y-99488879D01*
X193151419Y-99295966D01*
X193302991Y-99069123D01*
X193407395Y-98817069D01*
X193460620Y-98549491D01*
X193460620Y-98276669D01*
X193407395Y-98009091D01*
X193302991Y-97757037D01*
X193272952Y-97712081D01*
X200266451Y-97712081D01*
X203389722Y-100835353D01*
X203413579Y-100864423D01*
X203529609Y-100959646D01*
X203661986Y-101030403D01*
X203805623Y-101073975D01*
X203917575Y-101085001D01*
X203917577Y-101085001D01*
X203955000Y-101088687D01*
X203992423Y-101085001D01*
X213737460Y-101085001D01*
X213774883Y-101088687D01*
X213812306Y-101085001D01*
X213812309Y-101085001D01*
X213924261Y-101073975D01*
X214067898Y-101030403D01*
X214200275Y-100959646D01*
X214316305Y-100864423D01*
X214340167Y-100835347D01*
X222436354Y-92739161D01*
X222465423Y-92715305D01*
X222560646Y-92599275D01*
X222631403Y-92466898D01*
X222674975Y-92323261D01*
X222686001Y-92211309D01*
X222686001Y-92211307D01*
X222689687Y-92173884D01*
X222686001Y-92136461D01*
X222686001Y-91839383D01*
X222809436Y-91756906D01*
X223002907Y-91563435D01*
X223154916Y-91335938D01*
X223259622Y-91083156D01*
X223313000Y-90814804D01*
X223313000Y-90541196D01*
X223259622Y-90272844D01*
X223154916Y-90020062D01*
X223002907Y-89792565D01*
X222809436Y-89599094D01*
X222581939Y-89447085D01*
X222329157Y-89342379D01*
X222060805Y-89289001D01*
X221787197Y-89289001D01*
X221518845Y-89342379D01*
X221266063Y-89447085D01*
X221038566Y-89599094D01*
X220845095Y-89792565D01*
X220693086Y-90020062D01*
X220588380Y-90272844D01*
X220535002Y-90541196D01*
X220535002Y-90814804D01*
X220588380Y-91083156D01*
X220693086Y-91335938D01*
X220845095Y-91563435D01*
X221038566Y-91756906D01*
X221162001Y-91839383D01*
X221162001Y-91858252D01*
X214466599Y-98553655D01*
X214334908Y-98356566D01*
X214141437Y-98163095D01*
X213913940Y-98011086D01*
X213661158Y-97906380D01*
X213392806Y-97853002D01*
X213119198Y-97853002D01*
X212850846Y-97906380D01*
X212598064Y-98011086D01*
X212370567Y-98163095D01*
X212177096Y-98356566D01*
X212025087Y-98584063D01*
X211920381Y-98836845D01*
X211867003Y-99105197D01*
X211867003Y-99378805D01*
X211903244Y-99561001D01*
X208108758Y-99561001D01*
X208144999Y-99378805D01*
X208144999Y-99105197D01*
X208091621Y-98836845D01*
X207986915Y-98584063D01*
X207834906Y-98356566D01*
X207641435Y-98163095D01*
X207413938Y-98011086D01*
X207161156Y-97906380D01*
X206892804Y-97853002D01*
X206619196Y-97853002D01*
X206350844Y-97906380D01*
X206098062Y-98011086D01*
X205870565Y-98163095D01*
X205677094Y-98356566D01*
X205525085Y-98584063D01*
X205420379Y-98836845D01*
X205367001Y-99105197D01*
X205367001Y-99378805D01*
X205403242Y-99561001D01*
X204270632Y-99561001D01*
X201147365Y-96437735D01*
X201123503Y-96408659D01*
X201007473Y-96313436D01*
X200875096Y-96242679D01*
X200731459Y-96199107D01*
X200619507Y-96188081D01*
X200619504Y-96188081D01*
X200582081Y-96184395D01*
X200544658Y-96188081D01*
X193425096Y-96188081D01*
X193460620Y-96009491D01*
X193460620Y-95736669D01*
X193407395Y-95469091D01*
X193302991Y-95217037D01*
X193151419Y-94990194D01*
X192958506Y-94797281D01*
X192842137Y-94719525D01*
X192950102Y-94708892D01*
X193069800Y-94672582D01*
X193180114Y-94613617D01*
X193190375Y-94605196D01*
X205367001Y-94605196D01*
X205367001Y-94878804D01*
X205420379Y-95147156D01*
X205525085Y-95399938D01*
X205677094Y-95627435D01*
X205870565Y-95820906D01*
X206098062Y-95972915D01*
X206350844Y-96077621D01*
X206619196Y-96130999D01*
X206892804Y-96130999D01*
X207161156Y-96077621D01*
X207413938Y-95972915D01*
X207641435Y-95820906D01*
X207834906Y-95627435D01*
X207986915Y-95399938D01*
X208091621Y-95147156D01*
X208144999Y-94878804D01*
X208144999Y-94605196D01*
X211867003Y-94605196D01*
X211867003Y-94878804D01*
X211920381Y-95147156D01*
X212025087Y-95399938D01*
X212177096Y-95627435D01*
X212370567Y-95820906D01*
X212598064Y-95972915D01*
X212850846Y-96077621D01*
X213119198Y-96130999D01*
X213392806Y-96130999D01*
X213661158Y-96077621D01*
X213913940Y-95972915D01*
X214141437Y-95820906D01*
X214334908Y-95627435D01*
X214486917Y-95399938D01*
X214591623Y-95147156D01*
X214645001Y-94878804D01*
X214645001Y-94605196D01*
X214591623Y-94336844D01*
X214486917Y-94084062D01*
X214334908Y-93856565D01*
X214141437Y-93663094D01*
X213913940Y-93511085D01*
X213661158Y-93406379D01*
X213392806Y-93353001D01*
X213119198Y-93353001D01*
X212850846Y-93406379D01*
X212598064Y-93511085D01*
X212370567Y-93663094D01*
X212177096Y-93856565D01*
X212025087Y-94084062D01*
X211920381Y-94336844D01*
X211867003Y-94605196D01*
X208144999Y-94605196D01*
X208091621Y-94336844D01*
X207986915Y-94084062D01*
X207834906Y-93856565D01*
X207641435Y-93663094D01*
X207413938Y-93511085D01*
X207161156Y-93406379D01*
X206892804Y-93353001D01*
X206619196Y-93353001D01*
X206350844Y-93406379D01*
X206098062Y-93511085D01*
X205870565Y-93663094D01*
X205677094Y-93856565D01*
X205525085Y-94084062D01*
X205420379Y-94336844D01*
X205367001Y-94605196D01*
X193190375Y-94605196D01*
X193276805Y-94534265D01*
X193356157Y-94437574D01*
X193415122Y-94327260D01*
X193451432Y-94207562D01*
X193463692Y-94083080D01*
X193463692Y-92583080D01*
X193451432Y-92458598D01*
X193415122Y-92338900D01*
X193356157Y-92228586D01*
X193276805Y-92131895D01*
X193180114Y-92052543D01*
X193069800Y-91993578D01*
X192950102Y-91957268D01*
X192825620Y-91945008D01*
X191325620Y-91945008D01*
X191201138Y-91957268D01*
X191081440Y-91993578D01*
X190971126Y-92052543D01*
X190874435Y-92131895D01*
X190795083Y-92228586D01*
X190736118Y-92338900D01*
X190699808Y-92458598D01*
X190687548Y-92583080D01*
X190687548Y-94083080D01*
X190699808Y-94207562D01*
X190736118Y-94327260D01*
X190795083Y-94437574D01*
X190874435Y-94534265D01*
X190971126Y-94613617D01*
X191081440Y-94672582D01*
X191201138Y-94708892D01*
X191309103Y-94719525D01*
X191192734Y-94797281D01*
X190999821Y-94990194D01*
X190848249Y-95217037D01*
X190743845Y-95469091D01*
X190690620Y-95736669D01*
X190690620Y-96009491D01*
X190726144Y-96188081D01*
X147691741Y-96188081D01*
X147654318Y-96184395D01*
X147616895Y-96188081D01*
X147616893Y-96188081D01*
X147504941Y-96199107D01*
X147361304Y-96242679D01*
X147228927Y-96313436D01*
X147112897Y-96408659D01*
X147089040Y-96437729D01*
X145899719Y-97627051D01*
X145734565Y-97594200D01*
X145455835Y-97594200D01*
X145182460Y-97648577D01*
X144924946Y-97755243D01*
X144693190Y-97910097D01*
X144496097Y-98107190D01*
X144341243Y-98338946D01*
X144325200Y-98377677D01*
X144309157Y-98338946D01*
X144154303Y-98107190D01*
X143957210Y-97910097D01*
X143725454Y-97755243D01*
X143467940Y-97648577D01*
X143194565Y-97594200D01*
X142915835Y-97594200D01*
X142642460Y-97648577D01*
X142384946Y-97755243D01*
X142153190Y-97910097D01*
X141956097Y-98107190D01*
X141801243Y-98338946D01*
X141785200Y-98377677D01*
X141769157Y-98338946D01*
X141614303Y-98107190D01*
X141417210Y-97910097D01*
X141185454Y-97755243D01*
X140927940Y-97648577D01*
X140654565Y-97594200D01*
X140375835Y-97594200D01*
X140102460Y-97648577D01*
X139844946Y-97755243D01*
X139613190Y-97910097D01*
X139416097Y-98107190D01*
X139261243Y-98338946D01*
X139245200Y-98377677D01*
X139229157Y-98338946D01*
X139074303Y-98107190D01*
X138877210Y-97910097D01*
X138645454Y-97755243D01*
X138387940Y-97648577D01*
X138114565Y-97594200D01*
X137835835Y-97594200D01*
X137562460Y-97648577D01*
X137304946Y-97755243D01*
X137073190Y-97910097D01*
X136876097Y-98107190D01*
X136721243Y-98338946D01*
X136705200Y-98377677D01*
X136689157Y-98338946D01*
X136534303Y-98107190D01*
X136337210Y-97910097D01*
X136105454Y-97755243D01*
X135847940Y-97648577D01*
X135574565Y-97594200D01*
X135295835Y-97594200D01*
X135022460Y-97648577D01*
X134764946Y-97755243D01*
X134533190Y-97910097D01*
X134336097Y-98107190D01*
X134181243Y-98338946D01*
X134166423Y-98374725D01*
X134115549Y-98279545D01*
X133873621Y-98210384D01*
X133074805Y-99009200D01*
X132715595Y-99009200D01*
X131916779Y-98210384D01*
X131674851Y-98279545D01*
X131555952Y-98531643D01*
X131488519Y-98802094D01*
X131475143Y-99080503D01*
X122215127Y-99080503D01*
X123264851Y-98030779D01*
X132096384Y-98030779D01*
X132895200Y-98829595D01*
X133694016Y-98030779D01*
X133624855Y-97788851D01*
X133372757Y-97669952D01*
X133102306Y-97602519D01*
X132823897Y-97589143D01*
X132548228Y-97630340D01*
X132285892Y-97724525D01*
X132165545Y-97788851D01*
X132096384Y-98030779D01*
X123264851Y-98030779D01*
X130754434Y-90541196D01*
X196803000Y-90541196D01*
X196803000Y-90814804D01*
X196856378Y-91083156D01*
X196961084Y-91335938D01*
X197113093Y-91563435D01*
X197306564Y-91756906D01*
X197534061Y-91908915D01*
X197786843Y-92013621D01*
X198055195Y-92066999D01*
X198328803Y-92066999D01*
X198597155Y-92013621D01*
X198849937Y-91908915D01*
X199077434Y-91756906D01*
X199270905Y-91563435D01*
X199422914Y-91335938D01*
X199527620Y-91083156D01*
X199580998Y-90814804D01*
X199580998Y-90541196D01*
X201303001Y-90541196D01*
X201303001Y-90814804D01*
X201356379Y-91083156D01*
X201461085Y-91335938D01*
X201613094Y-91563435D01*
X201806565Y-91756906D01*
X202034062Y-91908915D01*
X202286844Y-92013621D01*
X202555196Y-92066999D01*
X202828804Y-92066999D01*
X203097156Y-92013621D01*
X203349938Y-91908915D01*
X203577435Y-91756906D01*
X203770906Y-91563435D01*
X203922915Y-91335938D01*
X204027621Y-91083156D01*
X204080999Y-90814804D01*
X204080999Y-90541196D01*
X216035001Y-90541196D01*
X216035001Y-90814804D01*
X216088379Y-91083156D01*
X216193085Y-91335938D01*
X216345094Y-91563435D01*
X216538565Y-91756906D01*
X216766062Y-91908915D01*
X217018844Y-92013621D01*
X217287196Y-92066999D01*
X217560804Y-92066999D01*
X217829156Y-92013621D01*
X218081938Y-91908915D01*
X218309435Y-91756906D01*
X218502906Y-91563435D01*
X218654915Y-91335938D01*
X218759621Y-91083156D01*
X218812999Y-90814804D01*
X218812999Y-90541196D01*
X218759621Y-90272844D01*
X218654915Y-90020062D01*
X218502906Y-89792565D01*
X218309435Y-89599094D01*
X218081938Y-89447085D01*
X217829156Y-89342379D01*
X217560804Y-89289001D01*
X217287196Y-89289001D01*
X217018844Y-89342379D01*
X216766062Y-89447085D01*
X216538565Y-89599094D01*
X216345094Y-89792565D01*
X216193085Y-90020062D01*
X216088379Y-90272844D01*
X216035001Y-90541196D01*
X204080999Y-90541196D01*
X204027621Y-90272844D01*
X203922915Y-90020062D01*
X203770906Y-89792565D01*
X203577435Y-89599094D01*
X203349938Y-89447085D01*
X203097156Y-89342379D01*
X202828804Y-89289001D01*
X202555196Y-89289001D01*
X202286844Y-89342379D01*
X202034062Y-89447085D01*
X201806565Y-89599094D01*
X201613094Y-89792565D01*
X201461085Y-90020062D01*
X201356379Y-90272844D01*
X201303001Y-90541196D01*
X199580998Y-90541196D01*
X199527620Y-90272844D01*
X199422914Y-90020062D01*
X199270905Y-89792565D01*
X199077434Y-89599094D01*
X198849937Y-89447085D01*
X198597155Y-89342379D01*
X198328803Y-89289001D01*
X198055195Y-89289001D01*
X197786843Y-89342379D01*
X197534061Y-89447085D01*
X197306564Y-89599094D01*
X197113093Y-89792565D01*
X196961084Y-90020062D01*
X196856378Y-90272844D01*
X196803000Y-90541196D01*
X130754434Y-90541196D01*
X142809631Y-78486000D01*
X164302977Y-78486000D01*
X164340400Y-78489686D01*
X164377823Y-78486000D01*
X164377826Y-78486000D01*
X164489778Y-78474974D01*
X164633415Y-78431402D01*
X164765792Y-78360645D01*
X164881822Y-78265422D01*
X164905684Y-78236346D01*
X168150681Y-74991349D01*
X168315835Y-75024200D01*
X168594565Y-75024200D01*
X168867940Y-74969823D01*
X169125454Y-74863157D01*
X169357210Y-74708303D01*
X169554303Y-74511210D01*
X169709157Y-74279454D01*
X169725200Y-74240723D01*
X169741243Y-74279454D01*
X169896097Y-74511210D01*
X170093190Y-74708303D01*
X170324946Y-74863157D01*
X170582460Y-74969823D01*
X170855835Y-75024200D01*
X171134565Y-75024200D01*
X171407940Y-74969823D01*
X171665454Y-74863157D01*
X171897210Y-74708303D01*
X172094303Y-74511210D01*
X172249157Y-74279454D01*
X172265200Y-74240723D01*
X172281243Y-74279454D01*
X172436097Y-74511210D01*
X172633190Y-74708303D01*
X172864946Y-74863157D01*
X173122460Y-74969823D01*
X173395835Y-75024200D01*
X173674565Y-75024200D01*
X173947940Y-74969823D01*
X174205454Y-74863157D01*
X174437210Y-74708303D01*
X174634303Y-74511210D01*
X174789157Y-74279454D01*
X174805200Y-74240723D01*
X174821243Y-74279454D01*
X174976097Y-74511210D01*
X175173190Y-74708303D01*
X175404946Y-74863157D01*
X175662460Y-74969823D01*
X175935835Y-75024200D01*
X176214565Y-75024200D01*
X176487940Y-74969823D01*
X176745454Y-74863157D01*
X176977210Y-74708303D01*
X177174303Y-74511210D01*
X177329157Y-74279454D01*
X177345200Y-74240723D01*
X177361243Y-74279454D01*
X177516097Y-74511210D01*
X177713190Y-74708303D01*
X177944946Y-74863157D01*
X178202460Y-74969823D01*
X178475835Y-75024200D01*
X178754565Y-75024200D01*
X179027940Y-74969823D01*
X179285454Y-74863157D01*
X179517210Y-74708303D01*
X179714303Y-74511210D01*
X179869157Y-74279454D01*
X179975823Y-74021940D01*
X180030200Y-73748565D01*
X180030200Y-73469835D01*
X179989297Y-73264199D01*
X187800451Y-73264199D01*
X197503653Y-82967401D01*
X197306564Y-83099092D01*
X197113093Y-83292563D01*
X196961084Y-83520060D01*
X196856378Y-83772842D01*
X196803000Y-84041194D01*
X196803000Y-84314802D01*
X196856378Y-84583154D01*
X196961084Y-84835936D01*
X197113093Y-85063433D01*
X197306564Y-85256904D01*
X197534061Y-85408913D01*
X197786843Y-85513619D01*
X198055195Y-85566997D01*
X198328803Y-85566997D01*
X198597155Y-85513619D01*
X198849937Y-85408913D01*
X199077434Y-85256904D01*
X199270905Y-85063433D01*
X199418548Y-84842470D01*
X199498865Y-84885400D01*
X199642502Y-84928972D01*
X199754454Y-84939998D01*
X199754456Y-84939998D01*
X199791879Y-84943684D01*
X199829302Y-84939998D01*
X201530617Y-84939998D01*
X201613094Y-85063433D01*
X201806565Y-85256904D01*
X202034062Y-85408913D01*
X202286844Y-85513619D01*
X202555196Y-85566997D01*
X202828804Y-85566997D01*
X203097156Y-85513619D01*
X203349938Y-85408913D01*
X203577435Y-85256904D01*
X203770906Y-85063433D01*
X203922915Y-84835936D01*
X204027621Y-84583154D01*
X204080999Y-84314802D01*
X204080999Y-84041194D01*
X216035001Y-84041194D01*
X216035001Y-84314802D01*
X216088379Y-84583154D01*
X216193085Y-84835936D01*
X216345094Y-85063433D01*
X216538565Y-85256904D01*
X216766062Y-85408913D01*
X217018844Y-85513619D01*
X217287196Y-85566997D01*
X217560804Y-85566997D01*
X217829156Y-85513619D01*
X218081938Y-85408913D01*
X218309435Y-85256904D01*
X218502906Y-85063433D01*
X218654915Y-84835936D01*
X218759621Y-84583154D01*
X218812999Y-84314802D01*
X218812999Y-84041194D01*
X220535002Y-84041194D01*
X220535002Y-84314802D01*
X220588380Y-84583154D01*
X220693086Y-84835936D01*
X220845095Y-85063433D01*
X221038566Y-85256904D01*
X221266063Y-85408913D01*
X221518845Y-85513619D01*
X221787197Y-85566997D01*
X222060805Y-85566997D01*
X222329157Y-85513619D01*
X222581939Y-85408913D01*
X222809436Y-85256904D01*
X223002907Y-85063433D01*
X223154916Y-84835936D01*
X223259622Y-84583154D01*
X223313000Y-84314802D01*
X223313000Y-84041194D01*
X223259622Y-83772842D01*
X223154916Y-83520060D01*
X223002907Y-83292563D01*
X222809436Y-83099092D01*
X222581939Y-82947083D01*
X222329157Y-82842377D01*
X222060805Y-82788999D01*
X221787197Y-82788999D01*
X221518845Y-82842377D01*
X221266063Y-82947083D01*
X221038566Y-83099092D01*
X220845095Y-83292563D01*
X220693086Y-83520060D01*
X220588380Y-83772842D01*
X220535002Y-84041194D01*
X218812999Y-84041194D01*
X218759621Y-83772842D01*
X218654915Y-83520060D01*
X218502906Y-83292563D01*
X218309435Y-83099092D01*
X218081938Y-82947083D01*
X217829156Y-82842377D01*
X217560804Y-82788999D01*
X217287196Y-82788999D01*
X217018844Y-82842377D01*
X216766062Y-82947083D01*
X216538565Y-83099092D01*
X216345094Y-83292563D01*
X216193085Y-83520060D01*
X216088379Y-83772842D01*
X216035001Y-84041194D01*
X204080999Y-84041194D01*
X204027621Y-83772842D01*
X203922915Y-83520060D01*
X203770906Y-83292563D01*
X203577435Y-83099092D01*
X203349938Y-82947083D01*
X203097156Y-82842377D01*
X202828804Y-82788999D01*
X202555196Y-82788999D01*
X202286844Y-82842377D01*
X202034062Y-82947083D01*
X201806565Y-83099092D01*
X201613094Y-83292563D01*
X201530617Y-83415998D01*
X200107511Y-83415998D01*
X196564709Y-79873196D01*
X205367001Y-79873196D01*
X205367001Y-80146804D01*
X205420379Y-80415156D01*
X205525085Y-80667938D01*
X205677094Y-80895435D01*
X205870565Y-81088906D01*
X206098062Y-81240915D01*
X206350844Y-81345621D01*
X206619196Y-81398999D01*
X206892804Y-81398999D01*
X207161156Y-81345621D01*
X207413938Y-81240915D01*
X207641435Y-81088906D01*
X207834906Y-80895435D01*
X207986915Y-80667938D01*
X208091621Y-80415156D01*
X208144999Y-80146804D01*
X208144999Y-79873196D01*
X211867003Y-79873196D01*
X211867003Y-80146804D01*
X211920381Y-80415156D01*
X212025087Y-80667938D01*
X212177096Y-80895435D01*
X212370567Y-81088906D01*
X212598064Y-81240915D01*
X212850846Y-81345621D01*
X213119198Y-81398999D01*
X213392806Y-81398999D01*
X213661158Y-81345621D01*
X213913940Y-81240915D01*
X214141437Y-81088906D01*
X214334908Y-80895435D01*
X214486917Y-80667938D01*
X214591623Y-80415156D01*
X214645001Y-80146804D01*
X214645001Y-79873196D01*
X214591623Y-79604844D01*
X214486917Y-79352062D01*
X214334908Y-79124565D01*
X214141437Y-78931094D01*
X213913940Y-78779085D01*
X213661158Y-78674379D01*
X213392806Y-78621001D01*
X213119198Y-78621001D01*
X212850846Y-78674379D01*
X212598064Y-78779085D01*
X212370567Y-78931094D01*
X212177096Y-79124565D01*
X212025087Y-79352062D01*
X211920381Y-79604844D01*
X211867003Y-79873196D01*
X208144999Y-79873196D01*
X208091621Y-79604844D01*
X207986915Y-79352062D01*
X207834906Y-79124565D01*
X207641435Y-78931094D01*
X207413938Y-78779085D01*
X207161156Y-78674379D01*
X206892804Y-78621001D01*
X206619196Y-78621001D01*
X206350844Y-78674379D01*
X206098062Y-78779085D01*
X205870565Y-78931094D01*
X205677094Y-79124565D01*
X205525085Y-79352062D01*
X205420379Y-79604844D01*
X205367001Y-79873196D01*
X196564709Y-79873196D01*
X192064708Y-75373195D01*
X205367001Y-75373195D01*
X205367001Y-75646803D01*
X205420379Y-75915155D01*
X205525085Y-76167937D01*
X205677094Y-76395434D01*
X205870565Y-76588905D01*
X206098062Y-76740914D01*
X206350844Y-76845620D01*
X206619196Y-76898998D01*
X206892804Y-76898998D01*
X207161156Y-76845620D01*
X207413938Y-76740914D01*
X207641435Y-76588905D01*
X207834906Y-76395434D01*
X207986915Y-76167937D01*
X208091621Y-75915155D01*
X208144999Y-75646803D01*
X208144999Y-75373195D01*
X211867003Y-75373195D01*
X211867003Y-75646803D01*
X211920381Y-75915155D01*
X212025087Y-76167937D01*
X212177096Y-76395434D01*
X212370567Y-76588905D01*
X212598064Y-76740914D01*
X212850846Y-76845620D01*
X213119198Y-76898998D01*
X213392806Y-76898998D01*
X213661158Y-76845620D01*
X213913940Y-76740914D01*
X214141437Y-76588905D01*
X214334908Y-76395434D01*
X214486917Y-76167937D01*
X214591623Y-75915155D01*
X214645001Y-75646803D01*
X214645001Y-75373195D01*
X214591623Y-75104843D01*
X214486917Y-74852061D01*
X214334908Y-74624564D01*
X214141437Y-74431093D01*
X213913940Y-74279084D01*
X213661158Y-74174378D01*
X213392806Y-74121000D01*
X213119198Y-74121000D01*
X212850846Y-74174378D01*
X212598064Y-74279084D01*
X212370567Y-74431093D01*
X212177096Y-74624564D01*
X212025087Y-74852061D01*
X211920381Y-75104843D01*
X211867003Y-75373195D01*
X208144999Y-75373195D01*
X208091621Y-75104843D01*
X207986915Y-74852061D01*
X207834906Y-74624564D01*
X207641435Y-74431093D01*
X207413938Y-74279084D01*
X207161156Y-74174378D01*
X206892804Y-74121000D01*
X206619196Y-74121000D01*
X206350844Y-74174378D01*
X206098062Y-74279084D01*
X205870565Y-74431093D01*
X205677094Y-74624564D01*
X205525085Y-74852061D01*
X205420379Y-75104843D01*
X205367001Y-75373195D01*
X192064708Y-75373195D01*
X191993512Y-75302000D01*
X192027525Y-75302000D01*
X192536601Y-75200739D01*
X193016141Y-75002107D01*
X193447715Y-74713738D01*
X193814738Y-74346715D01*
X194103107Y-73915141D01*
X194301739Y-73435601D01*
X194403000Y-72926525D01*
X194403000Y-72407475D01*
X194301739Y-71898399D01*
X194103107Y-71418859D01*
X193814738Y-70987285D01*
X193447715Y-70620262D01*
X193016141Y-70331893D01*
X192536601Y-70133261D01*
X192027525Y-70032000D01*
X191508475Y-70032000D01*
X190999399Y-70133261D01*
X190519859Y-70331893D01*
X190088285Y-70620262D01*
X189721262Y-70987285D01*
X189432893Y-71418859D01*
X189234261Y-71898399D01*
X189133000Y-72407475D01*
X189133000Y-72441488D01*
X188681365Y-71989853D01*
X188657503Y-71960777D01*
X188541473Y-71865554D01*
X188409096Y-71794797D01*
X188265459Y-71751225D01*
X188153507Y-71740199D01*
X188153504Y-71740199D01*
X188116081Y-71736513D01*
X188078658Y-71740199D01*
X134039624Y-71740199D01*
X134002201Y-71736513D01*
X133964778Y-71740199D01*
X133964775Y-71740199D01*
X133852823Y-71751225D01*
X133709186Y-71794797D01*
X133680605Y-71810074D01*
X133576808Y-71865554D01*
X133503636Y-71925605D01*
X133460779Y-71960777D01*
X133436922Y-71989847D01*
X133235641Y-72191128D01*
X132115200Y-72191128D01*
X131990718Y-72203388D01*
X131871020Y-72239698D01*
X131760706Y-72298663D01*
X131664015Y-72378015D01*
X131584663Y-72474706D01*
X131525698Y-72585020D01*
X131489388Y-72704718D01*
X131477128Y-72829200D01*
X131477128Y-73406000D01*
X120376132Y-73406000D01*
X120486686Y-73199168D01*
X120585895Y-72872119D01*
X120611000Y-72617225D01*
X120611000Y-71146775D01*
X120585895Y-70891881D01*
X120486686Y-70564832D01*
X120325579Y-70263422D01*
X120108766Y-69999234D01*
X119957386Y-69875000D01*
X194680239Y-69875000D01*
X194680246Y-69874999D01*
X206224073Y-69875060D01*
X208263168Y-69949830D01*
X210277626Y-70172228D01*
X212270385Y-70541564D01*
X214230761Y-71055859D01*
X216148189Y-71712341D01*
X218012394Y-72507492D01*
X219813362Y-73437041D01*
X221541410Y-74495991D01*
X223187256Y-75678651D01*
X224742083Y-76978689D01*
X226197508Y-78389093D01*
X227545732Y-79902308D01*
X228779510Y-81510199D01*
X229892214Y-83204129D01*
X230877871Y-84975007D01*
X231731188Y-86813319D01*
X232447574Y-88709181D01*
X233023190Y-90652426D01*
X233454938Y-92632601D01*
X233740504Y-94639092D01*
X233878350Y-96661105D01*
X233867739Y-98687783D01*
X233708726Y-100708226D01*
X233402164Y-102711622D01*
X232949703Y-104687170D01*
X232353772Y-106624274D01*
X231617571Y-108512530D01*
X230745052Y-110341808D01*
X229740897Y-112102278D01*
X228610520Y-113784456D01*
X227359964Y-115379348D01*
X225995971Y-116878356D01*
X224525855Y-118273444D01*
X222957514Y-119557116D01*
X221299365Y-120722483D01*
X219560322Y-121763279D01*
X217749732Y-122673911D01*
X215877289Y-123449502D01*
X213953093Y-124085870D01*
X211987438Y-124579608D01*
X209990929Y-124928055D01*
X207972509Y-125129520D01*
X206227438Y-125184361D01*
X194680242Y-125184300D01*
X192376288Y-125184300D01*
X192816141Y-125002107D01*
X193247715Y-124713738D01*
X193614738Y-124346715D01*
X193903107Y-123915141D01*
X194101739Y-123435601D01*
X194203000Y-122926525D01*
X194203000Y-122407475D01*
X194101739Y-121898399D01*
X193903107Y-121418859D01*
X193614738Y-120987285D01*
X193247715Y-120620262D01*
X192816141Y-120331893D01*
X192336601Y-120133261D01*
X191827525Y-120032000D01*
X191308475Y-120032000D01*
X190799399Y-120133261D01*
X190319859Y-120331893D01*
X189888285Y-120620262D01*
X189521262Y-120987285D01*
X189232893Y-121418859D01*
X189034261Y-121898399D01*
X188933000Y-122407475D01*
X188933000Y-122926525D01*
X189034261Y-123435601D01*
X189232893Y-123915141D01*
X189521262Y-124346715D01*
X189888285Y-124713738D01*
X190319859Y-125002107D01*
X190759712Y-125184300D01*
X99616509Y-125184300D01*
X100036601Y-125100739D01*
X100516141Y-124902107D01*
X100947715Y-124613738D01*
X101314738Y-124246715D01*
X101603107Y-123815141D01*
X101801739Y-123335601D01*
X101903000Y-122826525D01*
X101903000Y-122307475D01*
X101801739Y-121798399D01*
X101643275Y-121415832D01*
X168910000Y-121415832D01*
X168910000Y-121916168D01*
X169007611Y-122406891D01*
X169199081Y-122869141D01*
X169477053Y-123285156D01*
X169830844Y-123638947D01*
X170246859Y-123916919D01*
X170709109Y-124108389D01*
X171199832Y-124206000D01*
X171700168Y-124206000D01*
X172190891Y-124108389D01*
X172653141Y-123916919D01*
X173069156Y-123638947D01*
X173422947Y-123285156D01*
X173700919Y-122869141D01*
X173892389Y-122406891D01*
X173990000Y-121916168D01*
X173990000Y-121415832D01*
X173892389Y-120925109D01*
X173700919Y-120462859D01*
X173422947Y-120046844D01*
X173069156Y-119693053D01*
X172653141Y-119415081D01*
X172190891Y-119223611D01*
X171700168Y-119126000D01*
X171199832Y-119126000D01*
X170709109Y-119223611D01*
X170246859Y-119415081D01*
X169830844Y-119693053D01*
X169477053Y-120046844D01*
X169199081Y-120462859D01*
X169007611Y-120925109D01*
X168910000Y-121415832D01*
X101643275Y-121415832D01*
X101603107Y-121318859D01*
X101314738Y-120887285D01*
X100947715Y-120520262D01*
X100516141Y-120231893D01*
X100036601Y-120033261D01*
X99527525Y-119932000D01*
X99008475Y-119932000D01*
X98499399Y-120033261D01*
X98019859Y-120231893D01*
X97588285Y-120520262D01*
X97221262Y-120887285D01*
X96932893Y-121318859D01*
X96734261Y-121798399D01*
X96633000Y-122307475D01*
X96633000Y-122826525D01*
X96734261Y-123335601D01*
X96932893Y-123815141D01*
X97221262Y-124246715D01*
X97588285Y-124613738D01*
X98019859Y-124902107D01*
X98499399Y-125100739D01*
X98919491Y-125184300D01*
X86233924Y-125184300D01*
X84196472Y-125109590D01*
X82182015Y-124887192D01*
X80189255Y-124517856D01*
X78228879Y-124003561D01*
X76311452Y-123347079D01*
X74447246Y-122551928D01*
X72646288Y-121622384D01*
X70918235Y-120563433D01*
X69272384Y-119380769D01*
X67717564Y-118080738D01*
X66262138Y-116670334D01*
X64913913Y-115157118D01*
X63680136Y-113549230D01*
X62567426Y-111855291D01*
X61581769Y-110084413D01*
X60728452Y-108246101D01*
X60012067Y-106350243D01*
X59436450Y-104406994D01*
X59004702Y-102426819D01*
X58719136Y-100420328D01*
X58581290Y-98398315D01*
X58591901Y-96371637D01*
X58750914Y-94351194D01*
X59057476Y-92347798D01*
X59509936Y-90372254D01*
X60105868Y-88435146D01*
X60842073Y-86546878D01*
X61714588Y-84717613D01*
X62718739Y-82957148D01*
X63849124Y-81274959D01*
X65099670Y-79680080D01*
X66463669Y-78181064D01*
X67933783Y-76785978D01*
X69502132Y-75502299D01*
X71160275Y-74336938D01*
X72899330Y-73296134D01*
X74709908Y-72385509D01*
X76582339Y-71609922D01*
X78506551Y-70973549D01*
X80472189Y-70479814D01*
X82468711Y-70131365D01*
X84487131Y-69929900D01*
X86236019Y-69874939D01*
X96243737Y-69875000D01*
G37*
G04 #@! TD.AperFunction*
D23*
X150004946Y-97755243D02*
X149773190Y-97910097D01*
X149576097Y-98107190D01*
X149421243Y-98338946D01*
X149406423Y-98374725D01*
X149355549Y-98279545D01*
X149113621Y-98210384D01*
X148314805Y-99009200D01*
X148328948Y-99023343D01*
X148149343Y-99202948D01*
X148135200Y-99188805D01*
X148121058Y-99202948D01*
X147941453Y-99023343D01*
X147955595Y-99009200D01*
X147941453Y-98995058D01*
X148121058Y-98815453D01*
X148135200Y-98829595D01*
X148934016Y-98030779D01*
X148864855Y-97788851D01*
X148702082Y-97712081D01*
X150109148Y-97712081D01*
X150004946Y-97755243D01*
G04 #@! TA.AperFunction,Conductor*
D24*
G36*
X150004946Y-97755243D02*
G01*
X149773190Y-97910097D01*
X149576097Y-98107190D01*
X149421243Y-98338946D01*
X149406423Y-98374725D01*
X149355549Y-98279545D01*
X149113621Y-98210384D01*
X148314805Y-99009200D01*
X148328948Y-99023343D01*
X148149343Y-99202948D01*
X148135200Y-99188805D01*
X148121058Y-99202948D01*
X147941453Y-99023343D01*
X147955595Y-99009200D01*
X147941453Y-98995058D01*
X148121058Y-98815453D01*
X148135200Y-98829595D01*
X148934016Y-98030779D01*
X148864855Y-97788851D01*
X148702082Y-97712081D01*
X150109148Y-97712081D01*
X150004946Y-97755243D01*
G37*
G04 #@! TD.AperFunction*
D23*
X115791920Y-73366081D02*
X116002813Y-73539157D01*
X116243420Y-73667764D01*
X116504494Y-73746960D01*
X116776000Y-73773701D01*
X116999920Y-73751647D01*
X117928625Y-74680352D01*
X117952482Y-74709422D01*
X118068512Y-74804645D01*
X118200889Y-74875402D01*
X118344526Y-74918974D01*
X118456478Y-74930000D01*
X118456480Y-74930000D01*
X118493903Y-74933686D01*
X118531326Y-74930000D01*
X131779906Y-74930000D01*
X131871020Y-74978702D01*
X131878498Y-74980971D01*
X124159227Y-82700243D01*
X123979035Y-82664400D01*
X123696365Y-82664400D01*
X123419126Y-82719547D01*
X123157973Y-82827720D01*
X122922941Y-82984763D01*
X122723063Y-83184641D01*
X122566020Y-83419673D01*
X122457847Y-83680826D01*
X122402700Y-83958065D01*
X122402700Y-84240735D01*
X122457847Y-84517974D01*
X122566020Y-84779127D01*
X122723063Y-85014159D01*
X122922941Y-85214037D01*
X123075700Y-85316107D01*
X123075701Y-86438692D01*
X122922941Y-86540763D01*
X122723063Y-86740641D01*
X122566020Y-86975673D01*
X122457847Y-87236826D01*
X122402700Y-87514065D01*
X122402700Y-87796735D01*
X122457847Y-88073974D01*
X122566020Y-88335127D01*
X122723063Y-88570159D01*
X122922941Y-88770037D01*
X123075700Y-88872107D01*
X123075701Y-89994692D01*
X122922941Y-90096763D01*
X122723063Y-90296641D01*
X122566020Y-90531673D01*
X122457847Y-90792826D01*
X122402700Y-91070065D01*
X122402700Y-91352735D01*
X122438543Y-91532927D01*
X122395069Y-91576401D01*
X117604763Y-91576401D01*
X117609604Y-91560439D01*
X117487615Y-91338400D01*
X116344700Y-91338400D01*
X116344700Y-91358400D01*
X116090700Y-91358400D01*
X116090700Y-91338400D01*
X114947785Y-91338400D01*
X114825796Y-91560439D01*
X114830637Y-91576401D01*
X114198311Y-91576401D01*
X114167537Y-91545627D01*
X114203380Y-91365435D01*
X114203380Y-91082765D01*
X114159539Y-90862361D01*
X114825796Y-90862361D01*
X114947785Y-91084400D01*
X116090700Y-91084400D01*
X116090700Y-89940776D01*
X116344700Y-89940776D01*
X116344700Y-91084400D01*
X117487615Y-91084400D01*
X117609604Y-90862361D01*
X117568946Y-90728313D01*
X117448737Y-90473980D01*
X117281219Y-90247986D01*
X117072831Y-90059015D01*
X116831581Y-89914330D01*
X116566740Y-89819491D01*
X116344700Y-89940776D01*
X116090700Y-89940776D01*
X115868660Y-89819491D01*
X115603819Y-89914330D01*
X115362569Y-90059015D01*
X115154181Y-90247986D01*
X114986663Y-90473980D01*
X114866454Y-90728313D01*
X114825796Y-90862361D01*
X114159539Y-90862361D01*
X114148233Y-90805526D01*
X114040060Y-90544373D01*
X113883017Y-90309341D01*
X113683139Y-90109463D01*
X113530380Y-90007393D01*
X113530380Y-88884807D01*
X113683139Y-88782737D01*
X113883017Y-88582859D01*
X114040060Y-88347827D01*
X114148233Y-88086674D01*
X114164590Y-88004439D01*
X114825796Y-88004439D01*
X114866454Y-88138487D01*
X114986663Y-88392820D01*
X115154181Y-88618814D01*
X115362569Y-88807785D01*
X115603819Y-88952470D01*
X115868660Y-89047309D01*
X116090700Y-88926024D01*
X116090700Y-87782400D01*
X116344700Y-87782400D01*
X116344700Y-88926024D01*
X116566740Y-89047309D01*
X116831581Y-88952470D01*
X117072831Y-88807785D01*
X117281219Y-88618814D01*
X117448737Y-88392820D01*
X117568946Y-88138487D01*
X117609604Y-88004439D01*
X117487615Y-87782400D01*
X116344700Y-87782400D01*
X116090700Y-87782400D01*
X114947785Y-87782400D01*
X114825796Y-88004439D01*
X114164590Y-88004439D01*
X114203380Y-87809435D01*
X114203380Y-87526765D01*
X114159539Y-87306361D01*
X114825796Y-87306361D01*
X114947785Y-87528400D01*
X116090700Y-87528400D01*
X116090700Y-86384776D01*
X116344700Y-86384776D01*
X116344700Y-87528400D01*
X117487615Y-87528400D01*
X117609604Y-87306361D01*
X117568946Y-87172313D01*
X117448737Y-86917980D01*
X117281219Y-86691986D01*
X117072831Y-86503015D01*
X116831581Y-86358330D01*
X116566740Y-86263491D01*
X116344700Y-86384776D01*
X116090700Y-86384776D01*
X115868660Y-86263491D01*
X115603819Y-86358330D01*
X115362569Y-86503015D01*
X115154181Y-86691986D01*
X114986663Y-86917980D01*
X114866454Y-87172313D01*
X114825796Y-87306361D01*
X114159539Y-87306361D01*
X114148233Y-87249526D01*
X114040060Y-86988373D01*
X113883017Y-86753341D01*
X113683139Y-86553463D01*
X113530380Y-86451393D01*
X113530380Y-85321199D01*
X113690759Y-85214037D01*
X113890637Y-85014159D01*
X114047680Y-84779127D01*
X114155853Y-84517974D01*
X114169684Y-84448439D01*
X114825796Y-84448439D01*
X114866454Y-84582487D01*
X114986663Y-84836820D01*
X115154181Y-85062814D01*
X115362569Y-85251785D01*
X115603819Y-85396470D01*
X115868660Y-85491309D01*
X116090700Y-85370024D01*
X116090700Y-84226400D01*
X116344700Y-84226400D01*
X116344700Y-85370024D01*
X116566740Y-85491309D01*
X116831581Y-85396470D01*
X117072831Y-85251785D01*
X117281219Y-85062814D01*
X117448737Y-84836820D01*
X117568946Y-84582487D01*
X117609604Y-84448439D01*
X117487615Y-84226400D01*
X116344700Y-84226400D01*
X116090700Y-84226400D01*
X114947785Y-84226400D01*
X114825796Y-84448439D01*
X114169684Y-84448439D01*
X114211000Y-84240735D01*
X114211000Y-83958065D01*
X114169685Y-83750361D01*
X114825796Y-83750361D01*
X114947785Y-83972400D01*
X116090700Y-83972400D01*
X116090700Y-82828776D01*
X116344700Y-82828776D01*
X116344700Y-83972400D01*
X117487615Y-83972400D01*
X117609604Y-83750361D01*
X117568946Y-83616313D01*
X117448737Y-83361980D01*
X117281219Y-83135986D01*
X117072831Y-82947015D01*
X116831581Y-82802330D01*
X116566740Y-82707491D01*
X116344700Y-82828776D01*
X116090700Y-82828776D01*
X115868660Y-82707491D01*
X115603819Y-82802330D01*
X115362569Y-82947015D01*
X115154181Y-83135986D01*
X114986663Y-83361980D01*
X114866454Y-83616313D01*
X114825796Y-83750361D01*
X114169685Y-83750361D01*
X114155853Y-83680826D01*
X114047680Y-83419673D01*
X113890637Y-83184641D01*
X113690759Y-82984763D01*
X113538000Y-82882693D01*
X113538000Y-81760107D01*
X113690759Y-81658037D01*
X113890637Y-81458159D01*
X114047680Y-81223127D01*
X114155853Y-80961974D01*
X114211000Y-80684735D01*
X114211000Y-80402065D01*
X114155853Y-80124826D01*
X114047680Y-79863673D01*
X113890637Y-79628641D01*
X113690759Y-79428763D01*
X113455727Y-79271720D01*
X113194574Y-79163547D01*
X112917335Y-79108400D01*
X112634665Y-79108400D01*
X112454473Y-79144243D01*
X112214283Y-78904053D01*
X112190421Y-78874977D01*
X112074391Y-78779754D01*
X111942014Y-78708997D01*
X111798377Y-78665425D01*
X111686425Y-78654399D01*
X111686422Y-78654399D01*
X111648999Y-78650713D01*
X111611576Y-78654399D01*
X99796024Y-78654399D01*
X99758601Y-78650713D01*
X99721178Y-78654399D01*
X99721175Y-78654399D01*
X99609223Y-78665425D01*
X99465586Y-78708997D01*
X99449089Y-78717815D01*
X99333208Y-78779754D01*
X99290579Y-78814739D01*
X99217179Y-78874977D01*
X99193322Y-78904047D01*
X98378441Y-79718928D01*
X97318000Y-79718928D01*
X97193518Y-79731188D01*
X97073820Y-79767498D01*
X96963506Y-79826463D01*
X96866815Y-79905815D01*
X96787463Y-80002506D01*
X96728498Y-80112820D01*
X96692188Y-80232518D01*
X96681110Y-80345000D01*
X87586423Y-80345000D01*
X87549000Y-80341314D01*
X87511577Y-80345000D01*
X87511574Y-80345000D01*
X87399622Y-80356026D01*
X87255985Y-80399598D01*
X87251370Y-80402065D01*
X87123607Y-80470355D01*
X87064756Y-80518653D01*
X87007578Y-80565578D01*
X86983721Y-80594648D01*
X86642406Y-80935963D01*
X86496804Y-80907001D01*
X86223196Y-80907001D01*
X85954844Y-80960379D01*
X85702062Y-81065085D01*
X85474565Y-81217094D01*
X85281094Y-81410565D01*
X85129085Y-81638062D01*
X85024379Y-81890844D01*
X84971001Y-82159196D01*
X84971001Y-82432804D01*
X84999963Y-82578407D01*
X83654372Y-83923998D01*
X78631383Y-83923998D01*
X78548906Y-83800563D01*
X78355435Y-83607092D01*
X78127938Y-83455083D01*
X77875156Y-83350377D01*
X77606804Y-83296999D01*
X77333196Y-83296999D01*
X77064844Y-83350377D01*
X76812062Y-83455083D01*
X76584565Y-83607092D01*
X76391094Y-83800563D01*
X76239085Y-84028060D01*
X76134379Y-84280842D01*
X76081001Y-84549194D01*
X76081001Y-84822802D01*
X76134379Y-85091154D01*
X76239085Y-85343936D01*
X76391094Y-85571433D01*
X76584565Y-85764904D01*
X76812062Y-85916913D01*
X77064844Y-86021619D01*
X77333196Y-86074997D01*
X77606804Y-86074997D01*
X77752407Y-86046035D01*
X79097998Y-87391626D01*
X79097999Y-92310617D01*
X78974563Y-92393094D01*
X78781092Y-92586565D01*
X78629083Y-92814062D01*
X78524377Y-93066844D01*
X78470999Y-93335196D01*
X78470999Y-93608804D01*
X78524377Y-93877156D01*
X78629083Y-94129938D01*
X78781092Y-94357435D01*
X78974563Y-94550906D01*
X79202060Y-94702915D01*
X79454842Y-94807621D01*
X79723194Y-94860999D01*
X79996802Y-94860999D01*
X80265154Y-94807621D01*
X80517936Y-94702915D01*
X80745433Y-94550906D01*
X80938904Y-94357435D01*
X81090913Y-94129938D01*
X81195619Y-93877156D01*
X81248997Y-93608804D01*
X81248997Y-93335196D01*
X81220035Y-93189593D01*
X82461629Y-91948000D01*
X87484617Y-91948000D01*
X87567094Y-92071435D01*
X87760565Y-92264906D01*
X87988062Y-92416915D01*
X88240844Y-92521621D01*
X88509196Y-92574999D01*
X88782804Y-92574999D01*
X89051156Y-92521621D01*
X89303938Y-92416915D01*
X89531435Y-92264906D01*
X89724906Y-92071435D01*
X89876915Y-91843938D01*
X89981621Y-91591156D01*
X90034999Y-91322804D01*
X90034999Y-91049196D01*
X89981621Y-90780844D01*
X89876915Y-90528062D01*
X89724906Y-90300565D01*
X89531435Y-90107094D01*
X89303938Y-89955085D01*
X89051156Y-89850379D01*
X88782804Y-89797001D01*
X88509196Y-89797001D01*
X88240844Y-89850379D01*
X87988062Y-89955085D01*
X87760565Y-90107094D01*
X87567094Y-90300565D01*
X87484617Y-90424000D01*
X82183420Y-90424000D01*
X82145997Y-90420314D01*
X82108574Y-90424000D01*
X82108572Y-90424000D01*
X81996620Y-90435026D01*
X81852983Y-90478598D01*
X81720606Y-90549355D01*
X81604576Y-90644578D01*
X81580719Y-90673648D01*
X80621998Y-91632369D01*
X80621998Y-87113419D01*
X80625684Y-87075996D01*
X80621297Y-87031455D01*
X80610972Y-86926618D01*
X80567400Y-86782981D01*
X80525573Y-86704728D01*
X80496643Y-86650603D01*
X80447718Y-86590989D01*
X80401420Y-86534574D01*
X80372345Y-86510713D01*
X79309630Y-85447998D01*
X83932579Y-85447998D01*
X83970002Y-85451684D01*
X84007425Y-85447998D01*
X84007428Y-85447998D01*
X84119380Y-85436972D01*
X84263017Y-85393400D01*
X84395394Y-85322643D01*
X84511424Y-85227420D01*
X84535286Y-85198344D01*
X85184436Y-84549194D01*
X87257001Y-84549194D01*
X87257001Y-84822802D01*
X87310379Y-85091154D01*
X87415085Y-85343936D01*
X87567094Y-85571433D01*
X87760565Y-85764904D01*
X87988062Y-85916913D01*
X88240844Y-86021619D01*
X88509196Y-86074997D01*
X88782804Y-86074997D01*
X89051156Y-86021619D01*
X89303938Y-85916913D01*
X89531435Y-85764904D01*
X89724906Y-85571433D01*
X89876915Y-85343936D01*
X89981621Y-85091154D01*
X90034999Y-84822802D01*
X90034999Y-84549194D01*
X91757002Y-84549194D01*
X91757002Y-84822802D01*
X91810380Y-85091154D01*
X91915086Y-85343936D01*
X92067095Y-85571433D01*
X92260566Y-85764904D01*
X92488063Y-85916913D01*
X92740845Y-86021619D01*
X93009197Y-86074997D01*
X93282805Y-86074997D01*
X93551157Y-86021619D01*
X93803939Y-85916913D01*
X94031436Y-85764904D01*
X94224907Y-85571433D01*
X94376916Y-85343936D01*
X94481622Y-85091154D01*
X94535000Y-84822802D01*
X94535000Y-84549194D01*
X94481622Y-84280842D01*
X94376916Y-84028060D01*
X94224907Y-83800563D01*
X94143836Y-83719492D01*
X96678188Y-83719492D01*
X96719035Y-83989238D01*
X96811723Y-84245832D01*
X96872140Y-84358863D01*
X97111007Y-84424388D01*
X97888395Y-83647000D01*
X98247605Y-83647000D01*
X99024993Y-84424388D01*
X99263860Y-84358863D01*
X99379760Y-84111884D01*
X99445250Y-83847040D01*
X99449706Y-83750361D01*
X103764096Y-83750361D01*
X103886085Y-83972400D01*
X105029000Y-83972400D01*
X105029000Y-82828776D01*
X105283000Y-82828776D01*
X105283000Y-83972400D01*
X106425915Y-83972400D01*
X106547904Y-83750361D01*
X106507246Y-83616313D01*
X106387037Y-83361980D01*
X106219519Y-83135986D01*
X106011131Y-82947015D01*
X105769881Y-82802330D01*
X105505040Y-82707491D01*
X105283000Y-82828776D01*
X105029000Y-82828776D01*
X104806960Y-82707491D01*
X104542119Y-82802330D01*
X104300869Y-82947015D01*
X104092481Y-83135986D01*
X103924963Y-83361980D01*
X103804754Y-83616313D01*
X103764096Y-83750361D01*
X99449706Y-83750361D01*
X99457812Y-83574508D01*
X99416965Y-83304762D01*
X99324277Y-83048168D01*
X99263860Y-82935137D01*
X99024993Y-82869612D01*
X98247605Y-83647000D01*
X97888395Y-83647000D01*
X97111007Y-82869612D01*
X96872140Y-82935137D01*
X96756240Y-83182116D01*
X96690750Y-83446960D01*
X96678188Y-83719492D01*
X94143836Y-83719492D01*
X94031436Y-83607092D01*
X93803939Y-83455083D01*
X93551157Y-83350377D01*
X93282805Y-83296999D01*
X93009197Y-83296999D01*
X92740845Y-83350377D01*
X92488063Y-83455083D01*
X92260566Y-83607092D01*
X92067095Y-83800563D01*
X91915086Y-84028060D01*
X91810380Y-84280842D01*
X91757002Y-84549194D01*
X90034999Y-84549194D01*
X89981621Y-84280842D01*
X89876915Y-84028060D01*
X89724906Y-83800563D01*
X89531435Y-83607092D01*
X89303938Y-83455083D01*
X89051156Y-83350377D01*
X88782804Y-83296999D01*
X88509196Y-83296999D01*
X88240844Y-83350377D01*
X87988062Y-83455083D01*
X87760565Y-83607092D01*
X87567094Y-83800563D01*
X87415085Y-84028060D01*
X87310379Y-84280842D01*
X87257001Y-84549194D01*
X85184436Y-84549194D01*
X86077593Y-83656037D01*
X86223196Y-83684999D01*
X86496804Y-83684999D01*
X86765156Y-83631621D01*
X87017938Y-83526915D01*
X87245435Y-83374906D01*
X87438906Y-83181435D01*
X87590915Y-82953938D01*
X87695621Y-82701156D01*
X87748999Y-82432804D01*
X87748999Y-82159196D01*
X87720037Y-82013594D01*
X87864631Y-81869000D01*
X96681110Y-81869000D01*
X96692188Y-81981482D01*
X96728498Y-82101180D01*
X96787463Y-82211494D01*
X96866815Y-82308185D01*
X96963506Y-82387537D01*
X97073820Y-82446502D01*
X97193518Y-82482812D01*
X97318000Y-82495072D01*
X97344086Y-82495072D01*
X97290612Y-82690007D01*
X98068000Y-83467395D01*
X98845388Y-82690007D01*
X98791914Y-82495072D01*
X98818000Y-82495072D01*
X98942482Y-82482812D01*
X99062180Y-82446502D01*
X99172494Y-82387537D01*
X99269185Y-82308185D01*
X99348537Y-82211494D01*
X99407502Y-82101180D01*
X99443812Y-81981482D01*
X99456072Y-81857000D01*
X99456072Y-80892439D01*
X103764096Y-80892439D01*
X103804754Y-81026487D01*
X103924963Y-81280820D01*
X104092481Y-81506814D01*
X104300869Y-81695785D01*
X104542119Y-81840470D01*
X104806960Y-81935309D01*
X105029000Y-81814024D01*
X105029000Y-80670400D01*
X105283000Y-80670400D01*
X105283000Y-81814024D01*
X105505040Y-81935309D01*
X105769881Y-81840470D01*
X106011131Y-81695785D01*
X106219519Y-81506814D01*
X106387037Y-81280820D01*
X106507246Y-81026487D01*
X106547904Y-80892439D01*
X106425915Y-80670400D01*
X105283000Y-80670400D01*
X105029000Y-80670400D01*
X103886085Y-80670400D01*
X103764096Y-80892439D01*
X99456072Y-80892439D01*
X99456072Y-80796559D01*
X100074232Y-80178399D01*
X103768937Y-80178399D01*
X103764096Y-80194361D01*
X103886085Y-80416400D01*
X105029000Y-80416400D01*
X105029000Y-80396400D01*
X105283000Y-80396400D01*
X105283000Y-80416400D01*
X106425915Y-80416400D01*
X106547904Y-80194361D01*
X106543063Y-80178399D01*
X111333369Y-80178399D01*
X111376843Y-80221873D01*
X111341000Y-80402065D01*
X111341000Y-80684735D01*
X111396147Y-80961974D01*
X111504320Y-81223127D01*
X111661363Y-81458159D01*
X111861241Y-81658037D01*
X112014001Y-81760108D01*
X112014000Y-82882693D01*
X111861241Y-82984763D01*
X111661363Y-83184641D01*
X111504320Y-83419673D01*
X111396147Y-83680826D01*
X111341000Y-83958065D01*
X111341000Y-84240735D01*
X111396147Y-84517974D01*
X111504320Y-84779127D01*
X111661363Y-85014159D01*
X111861241Y-85214037D01*
X112006381Y-85311016D01*
X112006380Y-86451393D01*
X111853621Y-86553463D01*
X111653743Y-86753341D01*
X111496700Y-86988373D01*
X111388527Y-87249526D01*
X111333380Y-87526765D01*
X111333380Y-87809435D01*
X111388527Y-88086674D01*
X111496700Y-88347827D01*
X111653743Y-88582859D01*
X111853621Y-88782737D01*
X112006381Y-88884808D01*
X112006380Y-90007393D01*
X111853621Y-90109463D01*
X111653743Y-90309341D01*
X111496700Y-90544373D01*
X111388527Y-90805526D01*
X111333380Y-91082765D01*
X111333380Y-91365435D01*
X111388527Y-91642674D01*
X111496700Y-91903827D01*
X111653743Y-92138859D01*
X111853621Y-92338737D01*
X112088653Y-92495780D01*
X112349806Y-92603953D01*
X112627045Y-92659100D01*
X112909715Y-92659100D01*
X113089907Y-92623257D01*
X113317397Y-92850747D01*
X113341259Y-92879823D01*
X113414060Y-92939569D01*
X113457288Y-92975046D01*
X113526257Y-93011910D01*
X113589666Y-93045803D01*
X113733303Y-93089375D01*
X113845255Y-93100401D01*
X113845258Y-93100401D01*
X113882681Y-93104087D01*
X113920104Y-93100401D01*
X122483969Y-93100401D01*
X121076371Y-94507999D01*
X99265332Y-94507999D01*
X99295371Y-94463043D01*
X99399775Y-94210989D01*
X99453000Y-93943411D01*
X99453000Y-93670589D01*
X99399775Y-93403011D01*
X99295371Y-93150957D01*
X99143799Y-92924114D01*
X98950886Y-92731201D01*
X98724043Y-92579629D01*
X98621127Y-92537000D01*
X98724043Y-92494371D01*
X98950886Y-92342799D01*
X99143799Y-92149886D01*
X99295371Y-91923043D01*
X99399775Y-91670989D01*
X99419238Y-91573139D01*
X103756476Y-91573139D01*
X103797134Y-91707187D01*
X103917343Y-91961520D01*
X104084861Y-92187514D01*
X104293249Y-92376485D01*
X104534499Y-92521170D01*
X104799340Y-92616009D01*
X105021380Y-92494724D01*
X105021380Y-91351100D01*
X105275380Y-91351100D01*
X105275380Y-92494724D01*
X105497420Y-92616009D01*
X105762261Y-92521170D01*
X106003511Y-92376485D01*
X106211899Y-92187514D01*
X106379417Y-91961520D01*
X106499626Y-91707187D01*
X106540284Y-91573139D01*
X106418295Y-91351100D01*
X105275380Y-91351100D01*
X105021380Y-91351100D01*
X103878465Y-91351100D01*
X103756476Y-91573139D01*
X99419238Y-91573139D01*
X99453000Y-91403411D01*
X99453000Y-91130589D01*
X99402172Y-90875061D01*
X103756476Y-90875061D01*
X103878465Y-91097100D01*
X105021380Y-91097100D01*
X105021380Y-89953476D01*
X105275380Y-89953476D01*
X105275380Y-91097100D01*
X106418295Y-91097100D01*
X106540284Y-90875061D01*
X106499626Y-90741013D01*
X106379417Y-90486680D01*
X106211899Y-90260686D01*
X106003511Y-90071715D01*
X105762261Y-89927030D01*
X105497420Y-89832191D01*
X105275380Y-89953476D01*
X105021380Y-89953476D01*
X104799340Y-89832191D01*
X104534499Y-89927030D01*
X104293249Y-90071715D01*
X104084861Y-90260686D01*
X103917343Y-90486680D01*
X103797134Y-90741013D01*
X103756476Y-90875061D01*
X99402172Y-90875061D01*
X99399775Y-90863011D01*
X99295371Y-90610957D01*
X99143799Y-90384114D01*
X98950886Y-90191201D01*
X98724043Y-90039629D01*
X98621127Y-89997000D01*
X98724043Y-89954371D01*
X98950886Y-89802799D01*
X99143799Y-89609886D01*
X99295371Y-89383043D01*
X99399775Y-89130989D01*
X99453000Y-88863411D01*
X99453000Y-88590589D01*
X99399775Y-88323011D01*
X99295371Y-88070957D01*
X99259411Y-88017139D01*
X103756476Y-88017139D01*
X103797134Y-88151187D01*
X103917343Y-88405520D01*
X104084861Y-88631514D01*
X104293249Y-88820485D01*
X104534499Y-88965170D01*
X104799340Y-89060009D01*
X105021380Y-88938724D01*
X105021380Y-87795100D01*
X105275380Y-87795100D01*
X105275380Y-88938724D01*
X105497420Y-89060009D01*
X105762261Y-88965170D01*
X106003511Y-88820485D01*
X106211899Y-88631514D01*
X106379417Y-88405520D01*
X106499626Y-88151187D01*
X106540284Y-88017139D01*
X106418295Y-87795100D01*
X105275380Y-87795100D01*
X105021380Y-87795100D01*
X103878465Y-87795100D01*
X103756476Y-88017139D01*
X99259411Y-88017139D01*
X99143799Y-87844114D01*
X98950886Y-87651201D01*
X98724043Y-87499629D01*
X98621127Y-87457000D01*
X98724043Y-87414371D01*
X98866684Y-87319061D01*
X103756476Y-87319061D01*
X103878465Y-87541100D01*
X105021380Y-87541100D01*
X105021380Y-86397476D01*
X105275380Y-86397476D01*
X105275380Y-87541100D01*
X106418295Y-87541100D01*
X106540284Y-87319061D01*
X106499626Y-87185013D01*
X106379417Y-86930680D01*
X106211899Y-86704686D01*
X106003511Y-86515715D01*
X105762261Y-86371030D01*
X105497420Y-86276191D01*
X105275380Y-86397476D01*
X105021380Y-86397476D01*
X104799340Y-86276191D01*
X104534499Y-86371030D01*
X104293249Y-86515715D01*
X104084861Y-86704686D01*
X103917343Y-86930680D01*
X103797134Y-87185013D01*
X103756476Y-87319061D01*
X98866684Y-87319061D01*
X98950886Y-87262799D01*
X99143799Y-87069886D01*
X99295371Y-86843043D01*
X99399775Y-86590989D01*
X99453000Y-86323411D01*
X99453000Y-86050589D01*
X99399775Y-85783011D01*
X99295371Y-85530957D01*
X99143799Y-85304114D01*
X98950886Y-85111201D01*
X98724043Y-84959629D01*
X98624721Y-84918489D01*
X98666832Y-84903277D01*
X98779863Y-84842860D01*
X98845388Y-84603993D01*
X98689834Y-84448439D01*
X103764096Y-84448439D01*
X103804754Y-84582487D01*
X103924963Y-84836820D01*
X104092481Y-85062814D01*
X104300869Y-85251785D01*
X104542119Y-85396470D01*
X104806960Y-85491309D01*
X105029000Y-85370024D01*
X105029000Y-84226400D01*
X105283000Y-84226400D01*
X105283000Y-85370024D01*
X105505040Y-85491309D01*
X105769881Y-85396470D01*
X106011131Y-85251785D01*
X106219519Y-85062814D01*
X106387037Y-84836820D01*
X106507246Y-84582487D01*
X106547904Y-84448439D01*
X106425915Y-84226400D01*
X105283000Y-84226400D01*
X105029000Y-84226400D01*
X103886085Y-84226400D01*
X103764096Y-84448439D01*
X98689834Y-84448439D01*
X98068000Y-83826605D01*
X97290612Y-84603993D01*
X97356137Y-84842860D01*
X97514477Y-84917164D01*
X97411957Y-84959629D01*
X97185114Y-85111201D01*
X96992201Y-85304114D01*
X96840629Y-85530957D01*
X96736225Y-85783011D01*
X96683000Y-86050589D01*
X96683000Y-86323411D01*
X96736225Y-86590989D01*
X96840629Y-86843043D01*
X96992201Y-87069886D01*
X97185114Y-87262799D01*
X97411957Y-87414371D01*
X97514873Y-87457000D01*
X97411957Y-87499629D01*
X97185114Y-87651201D01*
X96992201Y-87844114D01*
X96840629Y-88070957D01*
X96736225Y-88323011D01*
X96683000Y-88590589D01*
X96683000Y-88863411D01*
X96736225Y-89130989D01*
X96840629Y-89383043D01*
X96992201Y-89609886D01*
X97185114Y-89802799D01*
X97411957Y-89954371D01*
X97514873Y-89997000D01*
X97411957Y-90039629D01*
X97185114Y-90191201D01*
X96992201Y-90384114D01*
X96840629Y-90610957D01*
X96736225Y-90863011D01*
X96683000Y-91130589D01*
X96683000Y-91403411D01*
X96736225Y-91670989D01*
X96840629Y-91923043D01*
X96992201Y-92149886D01*
X97185114Y-92342799D01*
X97411957Y-92494371D01*
X97514873Y-92537000D01*
X97411957Y-92579629D01*
X97185114Y-92731201D01*
X96992201Y-92924114D01*
X96840629Y-93150957D01*
X96736225Y-93403011D01*
X96683000Y-93670589D01*
X96683000Y-93943411D01*
X96736225Y-94210989D01*
X96840629Y-94463043D01*
X96870668Y-94507999D01*
X94234000Y-94507999D01*
X94234000Y-94387933D01*
X94194956Y-94191644D01*
X94118368Y-94006744D01*
X94007179Y-93840338D01*
X93908001Y-93741160D01*
X93908001Y-92347383D01*
X94031436Y-92264906D01*
X94224907Y-92071435D01*
X94376916Y-91843938D01*
X94481622Y-91591156D01*
X94535000Y-91322804D01*
X94535000Y-91049196D01*
X94481622Y-90780844D01*
X94376916Y-90528062D01*
X94224907Y-90300565D01*
X94031436Y-90107094D01*
X93803939Y-89955085D01*
X93551157Y-89850379D01*
X93282805Y-89797001D01*
X93009197Y-89797001D01*
X92740845Y-89850379D01*
X92488063Y-89955085D01*
X92260566Y-90107094D01*
X92067095Y-90300565D01*
X91915086Y-90528062D01*
X91810380Y-90780844D01*
X91757002Y-91049196D01*
X91757002Y-91322804D01*
X91810380Y-91591156D01*
X91915086Y-91843938D01*
X92067095Y-92071435D01*
X92260566Y-92264906D01*
X92384001Y-92347383D01*
X92384002Y-93907415D01*
X92317632Y-94006744D01*
X92241044Y-94191644D01*
X92202000Y-94387933D01*
X92202000Y-94507999D01*
X87288342Y-94507999D01*
X87438906Y-94357435D01*
X87590915Y-94129938D01*
X87695621Y-93877156D01*
X87748999Y-93608804D01*
X87748999Y-93335196D01*
X87695621Y-93066844D01*
X87590915Y-92814062D01*
X87438906Y-92586565D01*
X87245435Y-92393094D01*
X87017938Y-92241085D01*
X86765156Y-92136379D01*
X86496804Y-92083001D01*
X86223196Y-92083001D01*
X85954844Y-92136379D01*
X85702062Y-92241085D01*
X85474565Y-92393094D01*
X85281094Y-92586565D01*
X85129085Y-92814062D01*
X85024379Y-93066844D01*
X84971001Y-93335196D01*
X84971001Y-93608804D01*
X85024379Y-93877156D01*
X85129085Y-94129938D01*
X85281094Y-94357435D01*
X85431658Y-94507999D01*
X82599423Y-94507999D01*
X82562000Y-94504313D01*
X82524577Y-94507999D01*
X82524574Y-94507999D01*
X82412622Y-94519025D01*
X82268985Y-94562597D01*
X82221334Y-94588067D01*
X82136607Y-94633354D01*
X82067723Y-94689886D01*
X82020578Y-94728577D01*
X81996721Y-94757647D01*
X80142405Y-96611964D01*
X79996802Y-96583002D01*
X79723194Y-96583002D01*
X79454842Y-96636380D01*
X79202060Y-96741086D01*
X78974563Y-96893095D01*
X78781092Y-97086566D01*
X78649401Y-97283655D01*
X74812999Y-93447253D01*
X74812999Y-91049196D01*
X76081001Y-91049196D01*
X76081001Y-91322804D01*
X76134379Y-91591156D01*
X76239085Y-91843938D01*
X76391094Y-92071435D01*
X76584565Y-92264906D01*
X76812062Y-92416915D01*
X77064844Y-92521621D01*
X77333196Y-92574999D01*
X77606804Y-92574999D01*
X77875156Y-92521621D01*
X78127938Y-92416915D01*
X78355435Y-92264906D01*
X78548906Y-92071435D01*
X78700915Y-91843938D01*
X78805621Y-91591156D01*
X78858999Y-91322804D01*
X78858999Y-91049196D01*
X78805621Y-90780844D01*
X78700915Y-90528062D01*
X78548906Y-90300565D01*
X78355435Y-90107094D01*
X78127938Y-89955085D01*
X77875156Y-89850379D01*
X77606804Y-89797001D01*
X77333196Y-89797001D01*
X77064844Y-89850379D01*
X76812062Y-89955085D01*
X76584565Y-90107094D01*
X76391094Y-90300565D01*
X76239085Y-90528062D01*
X76134379Y-90780844D01*
X76081001Y-91049196D01*
X74812999Y-91049196D01*
X74812999Y-85804421D01*
X74816685Y-85766998D01*
X74807871Y-85677506D01*
X74801973Y-85617620D01*
X74758401Y-85473983D01*
X74723620Y-85408913D01*
X74687644Y-85341605D01*
X74616278Y-85254646D01*
X74592421Y-85225576D01*
X74563352Y-85201720D01*
X74330036Y-84968404D01*
X74358998Y-84822802D01*
X74358998Y-84549194D01*
X74305620Y-84280842D01*
X74200914Y-84028060D01*
X74048905Y-83800563D01*
X73855434Y-83607092D01*
X73658345Y-83475401D01*
X74974550Y-82159196D01*
X78470999Y-82159196D01*
X78470999Y-82432804D01*
X78524377Y-82701156D01*
X78629083Y-82953938D01*
X78781092Y-83181435D01*
X78974563Y-83374906D01*
X79202060Y-83526915D01*
X79454842Y-83631621D01*
X79723194Y-83684999D01*
X79996802Y-83684999D01*
X80265154Y-83631621D01*
X80517936Y-83526915D01*
X80745433Y-83374906D01*
X80938904Y-83181435D01*
X81090913Y-82953938D01*
X81195619Y-82701156D01*
X81248997Y-82432804D01*
X81248997Y-82159196D01*
X81195619Y-81890844D01*
X81090913Y-81638062D01*
X80938904Y-81410565D01*
X80745433Y-81217094D01*
X80517936Y-81065085D01*
X80265154Y-80960379D01*
X79996802Y-80907001D01*
X79723194Y-80907001D01*
X79454842Y-80960379D01*
X79202060Y-81065085D01*
X78974563Y-81217094D01*
X78781092Y-81410565D01*
X78629083Y-81638062D01*
X78524377Y-81890844D01*
X78470999Y-82159196D01*
X74974550Y-82159196D01*
X78649401Y-78484345D01*
X78781092Y-78681434D01*
X78974563Y-78874905D01*
X79202060Y-79026914D01*
X79454842Y-79131620D01*
X79723194Y-79184998D01*
X79996802Y-79184998D01*
X80265154Y-79131620D01*
X80517936Y-79026914D01*
X80745433Y-78874905D01*
X80938904Y-78681434D01*
X81090913Y-78453937D01*
X81195619Y-78201155D01*
X81248997Y-77932803D01*
X81248997Y-77659195D01*
X84971001Y-77659195D01*
X84971001Y-77932803D01*
X85024379Y-78201155D01*
X85129085Y-78453937D01*
X85281094Y-78681434D01*
X85474565Y-78874905D01*
X85702062Y-79026914D01*
X85954844Y-79131620D01*
X86223196Y-79184998D01*
X86496804Y-79184998D01*
X86765156Y-79131620D01*
X87017938Y-79026914D01*
X87245435Y-78874905D01*
X87438906Y-78681434D01*
X87521383Y-78557999D01*
X113141969Y-78557999D01*
X114805843Y-80221873D01*
X114770000Y-80402065D01*
X114770000Y-80684735D01*
X114825147Y-80961974D01*
X114933320Y-81223127D01*
X115090363Y-81458159D01*
X115290241Y-81658037D01*
X115525273Y-81815080D01*
X115786426Y-81923253D01*
X116063665Y-81978400D01*
X116346335Y-81978400D01*
X116623574Y-81923253D01*
X116884727Y-81815080D01*
X117119759Y-81658037D01*
X117319637Y-81458159D01*
X117476680Y-81223127D01*
X117584853Y-80961974D01*
X117598684Y-80892439D01*
X122433096Y-80892439D01*
X122473754Y-81026487D01*
X122593963Y-81280820D01*
X122761481Y-81506814D01*
X122969869Y-81695785D01*
X123211119Y-81840470D01*
X123475960Y-81935309D01*
X123698000Y-81814024D01*
X123698000Y-80670400D01*
X123952000Y-80670400D01*
X123952000Y-81814024D01*
X124174040Y-81935309D01*
X124438881Y-81840470D01*
X124680131Y-81695785D01*
X124888519Y-81506814D01*
X125056037Y-81280820D01*
X125176246Y-81026487D01*
X125216904Y-80892439D01*
X125094915Y-80670400D01*
X123952000Y-80670400D01*
X123698000Y-80670400D01*
X122555085Y-80670400D01*
X122433096Y-80892439D01*
X117598684Y-80892439D01*
X117640000Y-80684735D01*
X117640000Y-80402065D01*
X117598685Y-80194361D01*
X122433096Y-80194361D01*
X122555085Y-80416400D01*
X123698000Y-80416400D01*
X123698000Y-79272776D01*
X123952000Y-79272776D01*
X123952000Y-80416400D01*
X125094915Y-80416400D01*
X125216904Y-80194361D01*
X125176246Y-80060313D01*
X125056037Y-79805980D01*
X124888519Y-79579986D01*
X124680131Y-79391015D01*
X124438881Y-79246330D01*
X124174040Y-79151491D01*
X123952000Y-79272776D01*
X123698000Y-79272776D01*
X123475960Y-79151491D01*
X123211119Y-79246330D01*
X122969869Y-79391015D01*
X122761481Y-79579986D01*
X122593963Y-79805980D01*
X122473754Y-80060313D01*
X122433096Y-80194361D01*
X117598685Y-80194361D01*
X117584853Y-80124826D01*
X117476680Y-79863673D01*
X117319637Y-79628641D01*
X117119759Y-79428763D01*
X116884727Y-79271720D01*
X116623574Y-79163547D01*
X116346335Y-79108400D01*
X116063665Y-79108400D01*
X115883473Y-79144243D01*
X114022883Y-77283653D01*
X113999021Y-77254577D01*
X113882991Y-77159354D01*
X113750614Y-77088597D01*
X113606977Y-77045025D01*
X113495025Y-77033999D01*
X113495022Y-77033999D01*
X113457599Y-77030313D01*
X113420176Y-77033999D01*
X87521383Y-77033999D01*
X87438906Y-76910564D01*
X87245435Y-76717093D01*
X87017938Y-76565084D01*
X86765156Y-76460378D01*
X86496804Y-76407000D01*
X86223196Y-76407000D01*
X85954844Y-76460378D01*
X85702062Y-76565084D01*
X85474565Y-76717093D01*
X85281094Y-76910564D01*
X85129085Y-77138061D01*
X85024379Y-77390843D01*
X84971001Y-77659195D01*
X81248997Y-77659195D01*
X81195619Y-77390843D01*
X81090913Y-77138061D01*
X80938904Y-76910564D01*
X80745433Y-76717093D01*
X80548345Y-76585402D01*
X81527746Y-75606001D01*
X113280576Y-75606001D01*
X113317999Y-75609687D01*
X113355422Y-75606001D01*
X113355425Y-75606001D01*
X113467377Y-75594975D01*
X113611014Y-75551403D01*
X113743391Y-75480646D01*
X113859421Y-75385423D01*
X113883283Y-75356347D01*
X115288353Y-73951278D01*
X115317422Y-73927422D01*
X115344772Y-73894096D01*
X115412645Y-73811393D01*
X115468900Y-73706146D01*
X115483402Y-73679015D01*
X115521307Y-73554060D01*
X115549188Y-73539157D01*
X115760081Y-73366081D01*
X115776000Y-73346683D01*
X115791920Y-73366081D01*
G04 #@! TA.AperFunction,Conductor*
D24*
G36*
X115791920Y-73366081D02*
G01*
X116002813Y-73539157D01*
X116243420Y-73667764D01*
X116504494Y-73746960D01*
X116776000Y-73773701D01*
X116999920Y-73751647D01*
X117928625Y-74680352D01*
X117952482Y-74709422D01*
X118068512Y-74804645D01*
X118200889Y-74875402D01*
X118344526Y-74918974D01*
X118456478Y-74930000D01*
X118456480Y-74930000D01*
X118493903Y-74933686D01*
X118531326Y-74930000D01*
X131779906Y-74930000D01*
X131871020Y-74978702D01*
X131878498Y-74980971D01*
X124159227Y-82700243D01*
X123979035Y-82664400D01*
X123696365Y-82664400D01*
X123419126Y-82719547D01*
X123157973Y-82827720D01*
X122922941Y-82984763D01*
X122723063Y-83184641D01*
X122566020Y-83419673D01*
X122457847Y-83680826D01*
X122402700Y-83958065D01*
X122402700Y-84240735D01*
X122457847Y-84517974D01*
X122566020Y-84779127D01*
X122723063Y-85014159D01*
X122922941Y-85214037D01*
X123075700Y-85316107D01*
X123075701Y-86438692D01*
X122922941Y-86540763D01*
X122723063Y-86740641D01*
X122566020Y-86975673D01*
X122457847Y-87236826D01*
X122402700Y-87514065D01*
X122402700Y-87796735D01*
X122457847Y-88073974D01*
X122566020Y-88335127D01*
X122723063Y-88570159D01*
X122922941Y-88770037D01*
X123075700Y-88872107D01*
X123075701Y-89994692D01*
X122922941Y-90096763D01*
X122723063Y-90296641D01*
X122566020Y-90531673D01*
X122457847Y-90792826D01*
X122402700Y-91070065D01*
X122402700Y-91352735D01*
X122438543Y-91532927D01*
X122395069Y-91576401D01*
X117604763Y-91576401D01*
X117609604Y-91560439D01*
X117487615Y-91338400D01*
X116344700Y-91338400D01*
X116344700Y-91358400D01*
X116090700Y-91358400D01*
X116090700Y-91338400D01*
X114947785Y-91338400D01*
X114825796Y-91560439D01*
X114830637Y-91576401D01*
X114198311Y-91576401D01*
X114167537Y-91545627D01*
X114203380Y-91365435D01*
X114203380Y-91082765D01*
X114159539Y-90862361D01*
X114825796Y-90862361D01*
X114947785Y-91084400D01*
X116090700Y-91084400D01*
X116090700Y-89940776D01*
X116344700Y-89940776D01*
X116344700Y-91084400D01*
X117487615Y-91084400D01*
X117609604Y-90862361D01*
X117568946Y-90728313D01*
X117448737Y-90473980D01*
X117281219Y-90247986D01*
X117072831Y-90059015D01*
X116831581Y-89914330D01*
X116566740Y-89819491D01*
X116344700Y-89940776D01*
X116090700Y-89940776D01*
X115868660Y-89819491D01*
X115603819Y-89914330D01*
X115362569Y-90059015D01*
X115154181Y-90247986D01*
X114986663Y-90473980D01*
X114866454Y-90728313D01*
X114825796Y-90862361D01*
X114159539Y-90862361D01*
X114148233Y-90805526D01*
X114040060Y-90544373D01*
X113883017Y-90309341D01*
X113683139Y-90109463D01*
X113530380Y-90007393D01*
X113530380Y-88884807D01*
X113683139Y-88782737D01*
X113883017Y-88582859D01*
X114040060Y-88347827D01*
X114148233Y-88086674D01*
X114164590Y-88004439D01*
X114825796Y-88004439D01*
X114866454Y-88138487D01*
X114986663Y-88392820D01*
X115154181Y-88618814D01*
X115362569Y-88807785D01*
X115603819Y-88952470D01*
X115868660Y-89047309D01*
X116090700Y-88926024D01*
X116090700Y-87782400D01*
X116344700Y-87782400D01*
X116344700Y-88926024D01*
X116566740Y-89047309D01*
X116831581Y-88952470D01*
X117072831Y-88807785D01*
X117281219Y-88618814D01*
X117448737Y-88392820D01*
X117568946Y-88138487D01*
X117609604Y-88004439D01*
X117487615Y-87782400D01*
X116344700Y-87782400D01*
X116090700Y-87782400D01*
X114947785Y-87782400D01*
X114825796Y-88004439D01*
X114164590Y-88004439D01*
X114203380Y-87809435D01*
X114203380Y-87526765D01*
X114159539Y-87306361D01*
X114825796Y-87306361D01*
X114947785Y-87528400D01*
X116090700Y-87528400D01*
X116090700Y-86384776D01*
X116344700Y-86384776D01*
X116344700Y-87528400D01*
X117487615Y-87528400D01*
X117609604Y-87306361D01*
X117568946Y-87172313D01*
X117448737Y-86917980D01*
X117281219Y-86691986D01*
X117072831Y-86503015D01*
X116831581Y-86358330D01*
X116566740Y-86263491D01*
X116344700Y-86384776D01*
X116090700Y-86384776D01*
X115868660Y-86263491D01*
X115603819Y-86358330D01*
X115362569Y-86503015D01*
X115154181Y-86691986D01*
X114986663Y-86917980D01*
X114866454Y-87172313D01*
X114825796Y-87306361D01*
X114159539Y-87306361D01*
X114148233Y-87249526D01*
X114040060Y-86988373D01*
X113883017Y-86753341D01*
X113683139Y-86553463D01*
X113530380Y-86451393D01*
X113530380Y-85321199D01*
X113690759Y-85214037D01*
X113890637Y-85014159D01*
X114047680Y-84779127D01*
X114155853Y-84517974D01*
X114169684Y-84448439D01*
X114825796Y-84448439D01*
X114866454Y-84582487D01*
X114986663Y-84836820D01*
X115154181Y-85062814D01*
X115362569Y-85251785D01*
X115603819Y-85396470D01*
X115868660Y-85491309D01*
X116090700Y-85370024D01*
X116090700Y-84226400D01*
X116344700Y-84226400D01*
X116344700Y-85370024D01*
X116566740Y-85491309D01*
X116831581Y-85396470D01*
X117072831Y-85251785D01*
X117281219Y-85062814D01*
X117448737Y-84836820D01*
X117568946Y-84582487D01*
X117609604Y-84448439D01*
X117487615Y-84226400D01*
X116344700Y-84226400D01*
X116090700Y-84226400D01*
X114947785Y-84226400D01*
X114825796Y-84448439D01*
X114169684Y-84448439D01*
X114211000Y-84240735D01*
X114211000Y-83958065D01*
X114169685Y-83750361D01*
X114825796Y-83750361D01*
X114947785Y-83972400D01*
X116090700Y-83972400D01*
X116090700Y-82828776D01*
X116344700Y-82828776D01*
X116344700Y-83972400D01*
X117487615Y-83972400D01*
X117609604Y-83750361D01*
X117568946Y-83616313D01*
X117448737Y-83361980D01*
X117281219Y-83135986D01*
X117072831Y-82947015D01*
X116831581Y-82802330D01*
X116566740Y-82707491D01*
X116344700Y-82828776D01*
X116090700Y-82828776D01*
X115868660Y-82707491D01*
X115603819Y-82802330D01*
X115362569Y-82947015D01*
X115154181Y-83135986D01*
X114986663Y-83361980D01*
X114866454Y-83616313D01*
X114825796Y-83750361D01*
X114169685Y-83750361D01*
X114155853Y-83680826D01*
X114047680Y-83419673D01*
X113890637Y-83184641D01*
X113690759Y-82984763D01*
X113538000Y-82882693D01*
X113538000Y-81760107D01*
X113690759Y-81658037D01*
X113890637Y-81458159D01*
X114047680Y-81223127D01*
X114155853Y-80961974D01*
X114211000Y-80684735D01*
X114211000Y-80402065D01*
X114155853Y-80124826D01*
X114047680Y-79863673D01*
X113890637Y-79628641D01*
X113690759Y-79428763D01*
X113455727Y-79271720D01*
X113194574Y-79163547D01*
X112917335Y-79108400D01*
X112634665Y-79108400D01*
X112454473Y-79144243D01*
X112214283Y-78904053D01*
X112190421Y-78874977D01*
X112074391Y-78779754D01*
X111942014Y-78708997D01*
X111798377Y-78665425D01*
X111686425Y-78654399D01*
X111686422Y-78654399D01*
X111648999Y-78650713D01*
X111611576Y-78654399D01*
X99796024Y-78654399D01*
X99758601Y-78650713D01*
X99721178Y-78654399D01*
X99721175Y-78654399D01*
X99609223Y-78665425D01*
X99465586Y-78708997D01*
X99449089Y-78717815D01*
X99333208Y-78779754D01*
X99290579Y-78814739D01*
X99217179Y-78874977D01*
X99193322Y-78904047D01*
X98378441Y-79718928D01*
X97318000Y-79718928D01*
X97193518Y-79731188D01*
X97073820Y-79767498D01*
X96963506Y-79826463D01*
X96866815Y-79905815D01*
X96787463Y-80002506D01*
X96728498Y-80112820D01*
X96692188Y-80232518D01*
X96681110Y-80345000D01*
X87586423Y-80345000D01*
X87549000Y-80341314D01*
X87511577Y-80345000D01*
X87511574Y-80345000D01*
X87399622Y-80356026D01*
X87255985Y-80399598D01*
X87251370Y-80402065D01*
X87123607Y-80470355D01*
X87064756Y-80518653D01*
X87007578Y-80565578D01*
X86983721Y-80594648D01*
X86642406Y-80935963D01*
X86496804Y-80907001D01*
X86223196Y-80907001D01*
X85954844Y-80960379D01*
X85702062Y-81065085D01*
X85474565Y-81217094D01*
X85281094Y-81410565D01*
X85129085Y-81638062D01*
X85024379Y-81890844D01*
X84971001Y-82159196D01*
X84971001Y-82432804D01*
X84999963Y-82578407D01*
X83654372Y-83923998D01*
X78631383Y-83923998D01*
X78548906Y-83800563D01*
X78355435Y-83607092D01*
X78127938Y-83455083D01*
X77875156Y-83350377D01*
X77606804Y-83296999D01*
X77333196Y-83296999D01*
X77064844Y-83350377D01*
X76812062Y-83455083D01*
X76584565Y-83607092D01*
X76391094Y-83800563D01*
X76239085Y-84028060D01*
X76134379Y-84280842D01*
X76081001Y-84549194D01*
X76081001Y-84822802D01*
X76134379Y-85091154D01*
X76239085Y-85343936D01*
X76391094Y-85571433D01*
X76584565Y-85764904D01*
X76812062Y-85916913D01*
X77064844Y-86021619D01*
X77333196Y-86074997D01*
X77606804Y-86074997D01*
X77752407Y-86046035D01*
X79097998Y-87391626D01*
X79097999Y-92310617D01*
X78974563Y-92393094D01*
X78781092Y-92586565D01*
X78629083Y-92814062D01*
X78524377Y-93066844D01*
X78470999Y-93335196D01*
X78470999Y-93608804D01*
X78524377Y-93877156D01*
X78629083Y-94129938D01*
X78781092Y-94357435D01*
X78974563Y-94550906D01*
X79202060Y-94702915D01*
X79454842Y-94807621D01*
X79723194Y-94860999D01*
X79996802Y-94860999D01*
X80265154Y-94807621D01*
X80517936Y-94702915D01*
X80745433Y-94550906D01*
X80938904Y-94357435D01*
X81090913Y-94129938D01*
X81195619Y-93877156D01*
X81248997Y-93608804D01*
X81248997Y-93335196D01*
X81220035Y-93189593D01*
X82461629Y-91948000D01*
X87484617Y-91948000D01*
X87567094Y-92071435D01*
X87760565Y-92264906D01*
X87988062Y-92416915D01*
X88240844Y-92521621D01*
X88509196Y-92574999D01*
X88782804Y-92574999D01*
X89051156Y-92521621D01*
X89303938Y-92416915D01*
X89531435Y-92264906D01*
X89724906Y-92071435D01*
X89876915Y-91843938D01*
X89981621Y-91591156D01*
X90034999Y-91322804D01*
X90034999Y-91049196D01*
X89981621Y-90780844D01*
X89876915Y-90528062D01*
X89724906Y-90300565D01*
X89531435Y-90107094D01*
X89303938Y-89955085D01*
X89051156Y-89850379D01*
X88782804Y-89797001D01*
X88509196Y-89797001D01*
X88240844Y-89850379D01*
X87988062Y-89955085D01*
X87760565Y-90107094D01*
X87567094Y-90300565D01*
X87484617Y-90424000D01*
X82183420Y-90424000D01*
X82145997Y-90420314D01*
X82108574Y-90424000D01*
X82108572Y-90424000D01*
X81996620Y-90435026D01*
X81852983Y-90478598D01*
X81720606Y-90549355D01*
X81604576Y-90644578D01*
X81580719Y-90673648D01*
X80621998Y-91632369D01*
X80621998Y-87113419D01*
X80625684Y-87075996D01*
X80621297Y-87031455D01*
X80610972Y-86926618D01*
X80567400Y-86782981D01*
X80525573Y-86704728D01*
X80496643Y-86650603D01*
X80447718Y-86590989D01*
X80401420Y-86534574D01*
X80372345Y-86510713D01*
X79309630Y-85447998D01*
X83932579Y-85447998D01*
X83970002Y-85451684D01*
X84007425Y-85447998D01*
X84007428Y-85447998D01*
X84119380Y-85436972D01*
X84263017Y-85393400D01*
X84395394Y-85322643D01*
X84511424Y-85227420D01*
X84535286Y-85198344D01*
X85184436Y-84549194D01*
X87257001Y-84549194D01*
X87257001Y-84822802D01*
X87310379Y-85091154D01*
X87415085Y-85343936D01*
X87567094Y-85571433D01*
X87760565Y-85764904D01*
X87988062Y-85916913D01*
X88240844Y-86021619D01*
X88509196Y-86074997D01*
X88782804Y-86074997D01*
X89051156Y-86021619D01*
X89303938Y-85916913D01*
X89531435Y-85764904D01*
X89724906Y-85571433D01*
X89876915Y-85343936D01*
X89981621Y-85091154D01*
X90034999Y-84822802D01*
X90034999Y-84549194D01*
X91757002Y-84549194D01*
X91757002Y-84822802D01*
X91810380Y-85091154D01*
X91915086Y-85343936D01*
X92067095Y-85571433D01*
X92260566Y-85764904D01*
X92488063Y-85916913D01*
X92740845Y-86021619D01*
X93009197Y-86074997D01*
X93282805Y-86074997D01*
X93551157Y-86021619D01*
X93803939Y-85916913D01*
X94031436Y-85764904D01*
X94224907Y-85571433D01*
X94376916Y-85343936D01*
X94481622Y-85091154D01*
X94535000Y-84822802D01*
X94535000Y-84549194D01*
X94481622Y-84280842D01*
X94376916Y-84028060D01*
X94224907Y-83800563D01*
X94143836Y-83719492D01*
X96678188Y-83719492D01*
X96719035Y-83989238D01*
X96811723Y-84245832D01*
X96872140Y-84358863D01*
X97111007Y-84424388D01*
X97888395Y-83647000D01*
X98247605Y-83647000D01*
X99024993Y-84424388D01*
X99263860Y-84358863D01*
X99379760Y-84111884D01*
X99445250Y-83847040D01*
X99449706Y-83750361D01*
X103764096Y-83750361D01*
X103886085Y-83972400D01*
X105029000Y-83972400D01*
X105029000Y-82828776D01*
X105283000Y-82828776D01*
X105283000Y-83972400D01*
X106425915Y-83972400D01*
X106547904Y-83750361D01*
X106507246Y-83616313D01*
X106387037Y-83361980D01*
X106219519Y-83135986D01*
X106011131Y-82947015D01*
X105769881Y-82802330D01*
X105505040Y-82707491D01*
X105283000Y-82828776D01*
X105029000Y-82828776D01*
X104806960Y-82707491D01*
X104542119Y-82802330D01*
X104300869Y-82947015D01*
X104092481Y-83135986D01*
X103924963Y-83361980D01*
X103804754Y-83616313D01*
X103764096Y-83750361D01*
X99449706Y-83750361D01*
X99457812Y-83574508D01*
X99416965Y-83304762D01*
X99324277Y-83048168D01*
X99263860Y-82935137D01*
X99024993Y-82869612D01*
X98247605Y-83647000D01*
X97888395Y-83647000D01*
X97111007Y-82869612D01*
X96872140Y-82935137D01*
X96756240Y-83182116D01*
X96690750Y-83446960D01*
X96678188Y-83719492D01*
X94143836Y-83719492D01*
X94031436Y-83607092D01*
X93803939Y-83455083D01*
X93551157Y-83350377D01*
X93282805Y-83296999D01*
X93009197Y-83296999D01*
X92740845Y-83350377D01*
X92488063Y-83455083D01*
X92260566Y-83607092D01*
X92067095Y-83800563D01*
X91915086Y-84028060D01*
X91810380Y-84280842D01*
X91757002Y-84549194D01*
X90034999Y-84549194D01*
X89981621Y-84280842D01*
X89876915Y-84028060D01*
X89724906Y-83800563D01*
X89531435Y-83607092D01*
X89303938Y-83455083D01*
X89051156Y-83350377D01*
X88782804Y-83296999D01*
X88509196Y-83296999D01*
X88240844Y-83350377D01*
X87988062Y-83455083D01*
X87760565Y-83607092D01*
X87567094Y-83800563D01*
X87415085Y-84028060D01*
X87310379Y-84280842D01*
X87257001Y-84549194D01*
X85184436Y-84549194D01*
X86077593Y-83656037D01*
X86223196Y-83684999D01*
X86496804Y-83684999D01*
X86765156Y-83631621D01*
X87017938Y-83526915D01*
X87245435Y-83374906D01*
X87438906Y-83181435D01*
X87590915Y-82953938D01*
X87695621Y-82701156D01*
X87748999Y-82432804D01*
X87748999Y-82159196D01*
X87720037Y-82013594D01*
X87864631Y-81869000D01*
X96681110Y-81869000D01*
X96692188Y-81981482D01*
X96728498Y-82101180D01*
X96787463Y-82211494D01*
X96866815Y-82308185D01*
X96963506Y-82387537D01*
X97073820Y-82446502D01*
X97193518Y-82482812D01*
X97318000Y-82495072D01*
X97344086Y-82495072D01*
X97290612Y-82690007D01*
X98068000Y-83467395D01*
X98845388Y-82690007D01*
X98791914Y-82495072D01*
X98818000Y-82495072D01*
X98942482Y-82482812D01*
X99062180Y-82446502D01*
X99172494Y-82387537D01*
X99269185Y-82308185D01*
X99348537Y-82211494D01*
X99407502Y-82101180D01*
X99443812Y-81981482D01*
X99456072Y-81857000D01*
X99456072Y-80892439D01*
X103764096Y-80892439D01*
X103804754Y-81026487D01*
X103924963Y-81280820D01*
X104092481Y-81506814D01*
X104300869Y-81695785D01*
X104542119Y-81840470D01*
X104806960Y-81935309D01*
X105029000Y-81814024D01*
X105029000Y-80670400D01*
X105283000Y-80670400D01*
X105283000Y-81814024D01*
X105505040Y-81935309D01*
X105769881Y-81840470D01*
X106011131Y-81695785D01*
X106219519Y-81506814D01*
X106387037Y-81280820D01*
X106507246Y-81026487D01*
X106547904Y-80892439D01*
X106425915Y-80670400D01*
X105283000Y-80670400D01*
X105029000Y-80670400D01*
X103886085Y-80670400D01*
X103764096Y-80892439D01*
X99456072Y-80892439D01*
X99456072Y-80796559D01*
X100074232Y-80178399D01*
X103768937Y-80178399D01*
X103764096Y-80194361D01*
X103886085Y-80416400D01*
X105029000Y-80416400D01*
X105029000Y-80396400D01*
X105283000Y-80396400D01*
X105283000Y-80416400D01*
X106425915Y-80416400D01*
X106547904Y-80194361D01*
X106543063Y-80178399D01*
X111333369Y-80178399D01*
X111376843Y-80221873D01*
X111341000Y-80402065D01*
X111341000Y-80684735D01*
X111396147Y-80961974D01*
X111504320Y-81223127D01*
X111661363Y-81458159D01*
X111861241Y-81658037D01*
X112014001Y-81760108D01*
X112014000Y-82882693D01*
X111861241Y-82984763D01*
X111661363Y-83184641D01*
X111504320Y-83419673D01*
X111396147Y-83680826D01*
X111341000Y-83958065D01*
X111341000Y-84240735D01*
X111396147Y-84517974D01*
X111504320Y-84779127D01*
X111661363Y-85014159D01*
X111861241Y-85214037D01*
X112006381Y-85311016D01*
X112006380Y-86451393D01*
X111853621Y-86553463D01*
X111653743Y-86753341D01*
X111496700Y-86988373D01*
X111388527Y-87249526D01*
X111333380Y-87526765D01*
X111333380Y-87809435D01*
X111388527Y-88086674D01*
X111496700Y-88347827D01*
X111653743Y-88582859D01*
X111853621Y-88782737D01*
X112006381Y-88884808D01*
X112006380Y-90007393D01*
X111853621Y-90109463D01*
X111653743Y-90309341D01*
X111496700Y-90544373D01*
X111388527Y-90805526D01*
X111333380Y-91082765D01*
X111333380Y-91365435D01*
X111388527Y-91642674D01*
X111496700Y-91903827D01*
X111653743Y-92138859D01*
X111853621Y-92338737D01*
X112088653Y-92495780D01*
X112349806Y-92603953D01*
X112627045Y-92659100D01*
X112909715Y-92659100D01*
X113089907Y-92623257D01*
X113317397Y-92850747D01*
X113341259Y-92879823D01*
X113414060Y-92939569D01*
X113457288Y-92975046D01*
X113526257Y-93011910D01*
X113589666Y-93045803D01*
X113733303Y-93089375D01*
X113845255Y-93100401D01*
X113845258Y-93100401D01*
X113882681Y-93104087D01*
X113920104Y-93100401D01*
X122483969Y-93100401D01*
X121076371Y-94507999D01*
X99265332Y-94507999D01*
X99295371Y-94463043D01*
X99399775Y-94210989D01*
X99453000Y-93943411D01*
X99453000Y-93670589D01*
X99399775Y-93403011D01*
X99295371Y-93150957D01*
X99143799Y-92924114D01*
X98950886Y-92731201D01*
X98724043Y-92579629D01*
X98621127Y-92537000D01*
X98724043Y-92494371D01*
X98950886Y-92342799D01*
X99143799Y-92149886D01*
X99295371Y-91923043D01*
X99399775Y-91670989D01*
X99419238Y-91573139D01*
X103756476Y-91573139D01*
X103797134Y-91707187D01*
X103917343Y-91961520D01*
X104084861Y-92187514D01*
X104293249Y-92376485D01*
X104534499Y-92521170D01*
X104799340Y-92616009D01*
X105021380Y-92494724D01*
X105021380Y-91351100D01*
X105275380Y-91351100D01*
X105275380Y-92494724D01*
X105497420Y-92616009D01*
X105762261Y-92521170D01*
X106003511Y-92376485D01*
X106211899Y-92187514D01*
X106379417Y-91961520D01*
X106499626Y-91707187D01*
X106540284Y-91573139D01*
X106418295Y-91351100D01*
X105275380Y-91351100D01*
X105021380Y-91351100D01*
X103878465Y-91351100D01*
X103756476Y-91573139D01*
X99419238Y-91573139D01*
X99453000Y-91403411D01*
X99453000Y-91130589D01*
X99402172Y-90875061D01*
X103756476Y-90875061D01*
X103878465Y-91097100D01*
X105021380Y-91097100D01*
X105021380Y-89953476D01*
X105275380Y-89953476D01*
X105275380Y-91097100D01*
X106418295Y-91097100D01*
X106540284Y-90875061D01*
X106499626Y-90741013D01*
X106379417Y-90486680D01*
X106211899Y-90260686D01*
X106003511Y-90071715D01*
X105762261Y-89927030D01*
X105497420Y-89832191D01*
X105275380Y-89953476D01*
X105021380Y-89953476D01*
X104799340Y-89832191D01*
X104534499Y-89927030D01*
X104293249Y-90071715D01*
X104084861Y-90260686D01*
X103917343Y-90486680D01*
X103797134Y-90741013D01*
X103756476Y-90875061D01*
X99402172Y-90875061D01*
X99399775Y-90863011D01*
X99295371Y-90610957D01*
X99143799Y-90384114D01*
X98950886Y-90191201D01*
X98724043Y-90039629D01*
X98621127Y-89997000D01*
X98724043Y-89954371D01*
X98950886Y-89802799D01*
X99143799Y-89609886D01*
X99295371Y-89383043D01*
X99399775Y-89130989D01*
X99453000Y-88863411D01*
X99453000Y-88590589D01*
X99399775Y-88323011D01*
X99295371Y-88070957D01*
X99259411Y-88017139D01*
X103756476Y-88017139D01*
X103797134Y-88151187D01*
X103917343Y-88405520D01*
X104084861Y-88631514D01*
X104293249Y-88820485D01*
X104534499Y-88965170D01*
X104799340Y-89060009D01*
X105021380Y-88938724D01*
X105021380Y-87795100D01*
X105275380Y-87795100D01*
X105275380Y-88938724D01*
X105497420Y-89060009D01*
X105762261Y-88965170D01*
X106003511Y-88820485D01*
X106211899Y-88631514D01*
X106379417Y-88405520D01*
X106499626Y-88151187D01*
X106540284Y-88017139D01*
X106418295Y-87795100D01*
X105275380Y-87795100D01*
X105021380Y-87795100D01*
X103878465Y-87795100D01*
X103756476Y-88017139D01*
X99259411Y-88017139D01*
X99143799Y-87844114D01*
X98950886Y-87651201D01*
X98724043Y-87499629D01*
X98621127Y-87457000D01*
X98724043Y-87414371D01*
X98866684Y-87319061D01*
X103756476Y-87319061D01*
X103878465Y-87541100D01*
X105021380Y-87541100D01*
X105021380Y-86397476D01*
X105275380Y-86397476D01*
X105275380Y-87541100D01*
X106418295Y-87541100D01*
X106540284Y-87319061D01*
X106499626Y-87185013D01*
X106379417Y-86930680D01*
X106211899Y-86704686D01*
X106003511Y-86515715D01*
X105762261Y-86371030D01*
X105497420Y-86276191D01*
X105275380Y-86397476D01*
X105021380Y-86397476D01*
X104799340Y-86276191D01*
X104534499Y-86371030D01*
X104293249Y-86515715D01*
X104084861Y-86704686D01*
X103917343Y-86930680D01*
X103797134Y-87185013D01*
X103756476Y-87319061D01*
X98866684Y-87319061D01*
X98950886Y-87262799D01*
X99143799Y-87069886D01*
X99295371Y-86843043D01*
X99399775Y-86590989D01*
X99453000Y-86323411D01*
X99453000Y-86050589D01*
X99399775Y-85783011D01*
X99295371Y-85530957D01*
X99143799Y-85304114D01*
X98950886Y-85111201D01*
X98724043Y-84959629D01*
X98624721Y-84918489D01*
X98666832Y-84903277D01*
X98779863Y-84842860D01*
X98845388Y-84603993D01*
X98689834Y-84448439D01*
X103764096Y-84448439D01*
X103804754Y-84582487D01*
X103924963Y-84836820D01*
X104092481Y-85062814D01*
X104300869Y-85251785D01*
X104542119Y-85396470D01*
X104806960Y-85491309D01*
X105029000Y-85370024D01*
X105029000Y-84226400D01*
X105283000Y-84226400D01*
X105283000Y-85370024D01*
X105505040Y-85491309D01*
X105769881Y-85396470D01*
X106011131Y-85251785D01*
X106219519Y-85062814D01*
X106387037Y-84836820D01*
X106507246Y-84582487D01*
X106547904Y-84448439D01*
X106425915Y-84226400D01*
X105283000Y-84226400D01*
X105029000Y-84226400D01*
X103886085Y-84226400D01*
X103764096Y-84448439D01*
X98689834Y-84448439D01*
X98068000Y-83826605D01*
X97290612Y-84603993D01*
X97356137Y-84842860D01*
X97514477Y-84917164D01*
X97411957Y-84959629D01*
X97185114Y-85111201D01*
X96992201Y-85304114D01*
X96840629Y-85530957D01*
X96736225Y-85783011D01*
X96683000Y-86050589D01*
X96683000Y-86323411D01*
X96736225Y-86590989D01*
X96840629Y-86843043D01*
X96992201Y-87069886D01*
X97185114Y-87262799D01*
X97411957Y-87414371D01*
X97514873Y-87457000D01*
X97411957Y-87499629D01*
X97185114Y-87651201D01*
X96992201Y-87844114D01*
X96840629Y-88070957D01*
X96736225Y-88323011D01*
X96683000Y-88590589D01*
X96683000Y-88863411D01*
X96736225Y-89130989D01*
X96840629Y-89383043D01*
X96992201Y-89609886D01*
X97185114Y-89802799D01*
X97411957Y-89954371D01*
X97514873Y-89997000D01*
X97411957Y-90039629D01*
X97185114Y-90191201D01*
X96992201Y-90384114D01*
X96840629Y-90610957D01*
X96736225Y-90863011D01*
X96683000Y-91130589D01*
X96683000Y-91403411D01*
X96736225Y-91670989D01*
X96840629Y-91923043D01*
X96992201Y-92149886D01*
X97185114Y-92342799D01*
X97411957Y-92494371D01*
X97514873Y-92537000D01*
X97411957Y-92579629D01*
X97185114Y-92731201D01*
X96992201Y-92924114D01*
X96840629Y-93150957D01*
X96736225Y-93403011D01*
X96683000Y-93670589D01*
X96683000Y-93943411D01*
X96736225Y-94210989D01*
X96840629Y-94463043D01*
X96870668Y-94507999D01*
X94234000Y-94507999D01*
X94234000Y-94387933D01*
X94194956Y-94191644D01*
X94118368Y-94006744D01*
X94007179Y-93840338D01*
X93908001Y-93741160D01*
X93908001Y-92347383D01*
X94031436Y-92264906D01*
X94224907Y-92071435D01*
X94376916Y-91843938D01*
X94481622Y-91591156D01*
X94535000Y-91322804D01*
X94535000Y-91049196D01*
X94481622Y-90780844D01*
X94376916Y-90528062D01*
X94224907Y-90300565D01*
X94031436Y-90107094D01*
X93803939Y-89955085D01*
X93551157Y-89850379D01*
X93282805Y-89797001D01*
X93009197Y-89797001D01*
X92740845Y-89850379D01*
X92488063Y-89955085D01*
X92260566Y-90107094D01*
X92067095Y-90300565D01*
X91915086Y-90528062D01*
X91810380Y-90780844D01*
X91757002Y-91049196D01*
X91757002Y-91322804D01*
X91810380Y-91591156D01*
X91915086Y-91843938D01*
X92067095Y-92071435D01*
X92260566Y-92264906D01*
X92384001Y-92347383D01*
X92384002Y-93907415D01*
X92317632Y-94006744D01*
X92241044Y-94191644D01*
X92202000Y-94387933D01*
X92202000Y-94507999D01*
X87288342Y-94507999D01*
X87438906Y-94357435D01*
X87590915Y-94129938D01*
X87695621Y-93877156D01*
X87748999Y-93608804D01*
X87748999Y-93335196D01*
X87695621Y-93066844D01*
X87590915Y-92814062D01*
X87438906Y-92586565D01*
X87245435Y-92393094D01*
X87017938Y-92241085D01*
X86765156Y-92136379D01*
X86496804Y-92083001D01*
X86223196Y-92083001D01*
X85954844Y-92136379D01*
X85702062Y-92241085D01*
X85474565Y-92393094D01*
X85281094Y-92586565D01*
X85129085Y-92814062D01*
X85024379Y-93066844D01*
X84971001Y-93335196D01*
X84971001Y-93608804D01*
X85024379Y-93877156D01*
X85129085Y-94129938D01*
X85281094Y-94357435D01*
X85431658Y-94507999D01*
X82599423Y-94507999D01*
X82562000Y-94504313D01*
X82524577Y-94507999D01*
X82524574Y-94507999D01*
X82412622Y-94519025D01*
X82268985Y-94562597D01*
X82221334Y-94588067D01*
X82136607Y-94633354D01*
X82067723Y-94689886D01*
X82020578Y-94728577D01*
X81996721Y-94757647D01*
X80142405Y-96611964D01*
X79996802Y-96583002D01*
X79723194Y-96583002D01*
X79454842Y-96636380D01*
X79202060Y-96741086D01*
X78974563Y-96893095D01*
X78781092Y-97086566D01*
X78649401Y-97283655D01*
X74812999Y-93447253D01*
X74812999Y-91049196D01*
X76081001Y-91049196D01*
X76081001Y-91322804D01*
X76134379Y-91591156D01*
X76239085Y-91843938D01*
X76391094Y-92071435D01*
X76584565Y-92264906D01*
X76812062Y-92416915D01*
X77064844Y-92521621D01*
X77333196Y-92574999D01*
X77606804Y-92574999D01*
X77875156Y-92521621D01*
X78127938Y-92416915D01*
X78355435Y-92264906D01*
X78548906Y-92071435D01*
X78700915Y-91843938D01*
X78805621Y-91591156D01*
X78858999Y-91322804D01*
X78858999Y-91049196D01*
X78805621Y-90780844D01*
X78700915Y-90528062D01*
X78548906Y-90300565D01*
X78355435Y-90107094D01*
X78127938Y-89955085D01*
X77875156Y-89850379D01*
X77606804Y-89797001D01*
X77333196Y-89797001D01*
X77064844Y-89850379D01*
X76812062Y-89955085D01*
X76584565Y-90107094D01*
X76391094Y-90300565D01*
X76239085Y-90528062D01*
X76134379Y-90780844D01*
X76081001Y-91049196D01*
X74812999Y-91049196D01*
X74812999Y-85804421D01*
X74816685Y-85766998D01*
X74807871Y-85677506D01*
X74801973Y-85617620D01*
X74758401Y-85473983D01*
X74723620Y-85408913D01*
X74687644Y-85341605D01*
X74616278Y-85254646D01*
X74592421Y-85225576D01*
X74563352Y-85201720D01*
X74330036Y-84968404D01*
X74358998Y-84822802D01*
X74358998Y-84549194D01*
X74305620Y-84280842D01*
X74200914Y-84028060D01*
X74048905Y-83800563D01*
X73855434Y-83607092D01*
X73658345Y-83475401D01*
X74974550Y-82159196D01*
X78470999Y-82159196D01*
X78470999Y-82432804D01*
X78524377Y-82701156D01*
X78629083Y-82953938D01*
X78781092Y-83181435D01*
X78974563Y-83374906D01*
X79202060Y-83526915D01*
X79454842Y-83631621D01*
X79723194Y-83684999D01*
X79996802Y-83684999D01*
X80265154Y-83631621D01*
X80517936Y-83526915D01*
X80745433Y-83374906D01*
X80938904Y-83181435D01*
X81090913Y-82953938D01*
X81195619Y-82701156D01*
X81248997Y-82432804D01*
X81248997Y-82159196D01*
X81195619Y-81890844D01*
X81090913Y-81638062D01*
X80938904Y-81410565D01*
X80745433Y-81217094D01*
X80517936Y-81065085D01*
X80265154Y-80960379D01*
X79996802Y-80907001D01*
X79723194Y-80907001D01*
X79454842Y-80960379D01*
X79202060Y-81065085D01*
X78974563Y-81217094D01*
X78781092Y-81410565D01*
X78629083Y-81638062D01*
X78524377Y-81890844D01*
X78470999Y-82159196D01*
X74974550Y-82159196D01*
X78649401Y-78484345D01*
X78781092Y-78681434D01*
X78974563Y-78874905D01*
X79202060Y-79026914D01*
X79454842Y-79131620D01*
X79723194Y-79184998D01*
X79996802Y-79184998D01*
X80265154Y-79131620D01*
X80517936Y-79026914D01*
X80745433Y-78874905D01*
X80938904Y-78681434D01*
X81090913Y-78453937D01*
X81195619Y-78201155D01*
X81248997Y-77932803D01*
X81248997Y-77659195D01*
X84971001Y-77659195D01*
X84971001Y-77932803D01*
X85024379Y-78201155D01*
X85129085Y-78453937D01*
X85281094Y-78681434D01*
X85474565Y-78874905D01*
X85702062Y-79026914D01*
X85954844Y-79131620D01*
X86223196Y-79184998D01*
X86496804Y-79184998D01*
X86765156Y-79131620D01*
X87017938Y-79026914D01*
X87245435Y-78874905D01*
X87438906Y-78681434D01*
X87521383Y-78557999D01*
X113141969Y-78557999D01*
X114805843Y-80221873D01*
X114770000Y-80402065D01*
X114770000Y-80684735D01*
X114825147Y-80961974D01*
X114933320Y-81223127D01*
X115090363Y-81458159D01*
X115290241Y-81658037D01*
X115525273Y-81815080D01*
X115786426Y-81923253D01*
X116063665Y-81978400D01*
X116346335Y-81978400D01*
X116623574Y-81923253D01*
X116884727Y-81815080D01*
X117119759Y-81658037D01*
X117319637Y-81458159D01*
X117476680Y-81223127D01*
X117584853Y-80961974D01*
X117598684Y-80892439D01*
X122433096Y-80892439D01*
X122473754Y-81026487D01*
X122593963Y-81280820D01*
X122761481Y-81506814D01*
X122969869Y-81695785D01*
X123211119Y-81840470D01*
X123475960Y-81935309D01*
X123698000Y-81814024D01*
X123698000Y-80670400D01*
X123952000Y-80670400D01*
X123952000Y-81814024D01*
X124174040Y-81935309D01*
X124438881Y-81840470D01*
X124680131Y-81695785D01*
X124888519Y-81506814D01*
X125056037Y-81280820D01*
X125176246Y-81026487D01*
X125216904Y-80892439D01*
X125094915Y-80670400D01*
X123952000Y-80670400D01*
X123698000Y-80670400D01*
X122555085Y-80670400D01*
X122433096Y-80892439D01*
X117598684Y-80892439D01*
X117640000Y-80684735D01*
X117640000Y-80402065D01*
X117598685Y-80194361D01*
X122433096Y-80194361D01*
X122555085Y-80416400D01*
X123698000Y-80416400D01*
X123698000Y-79272776D01*
X123952000Y-79272776D01*
X123952000Y-80416400D01*
X125094915Y-80416400D01*
X125216904Y-80194361D01*
X125176246Y-80060313D01*
X125056037Y-79805980D01*
X124888519Y-79579986D01*
X124680131Y-79391015D01*
X124438881Y-79246330D01*
X124174040Y-79151491D01*
X123952000Y-79272776D01*
X123698000Y-79272776D01*
X123475960Y-79151491D01*
X123211119Y-79246330D01*
X122969869Y-79391015D01*
X122761481Y-79579986D01*
X122593963Y-79805980D01*
X122473754Y-80060313D01*
X122433096Y-80194361D01*
X117598685Y-80194361D01*
X117584853Y-80124826D01*
X117476680Y-79863673D01*
X117319637Y-79628641D01*
X117119759Y-79428763D01*
X116884727Y-79271720D01*
X116623574Y-79163547D01*
X116346335Y-79108400D01*
X116063665Y-79108400D01*
X115883473Y-79144243D01*
X114022883Y-77283653D01*
X113999021Y-77254577D01*
X113882991Y-77159354D01*
X113750614Y-77088597D01*
X113606977Y-77045025D01*
X113495025Y-77033999D01*
X113495022Y-77033999D01*
X113457599Y-77030313D01*
X113420176Y-77033999D01*
X87521383Y-77033999D01*
X87438906Y-76910564D01*
X87245435Y-76717093D01*
X87017938Y-76565084D01*
X86765156Y-76460378D01*
X86496804Y-76407000D01*
X86223196Y-76407000D01*
X85954844Y-76460378D01*
X85702062Y-76565084D01*
X85474565Y-76717093D01*
X85281094Y-76910564D01*
X85129085Y-77138061D01*
X85024379Y-77390843D01*
X84971001Y-77659195D01*
X81248997Y-77659195D01*
X81195619Y-77390843D01*
X81090913Y-77138061D01*
X80938904Y-76910564D01*
X80745433Y-76717093D01*
X80548345Y-76585402D01*
X81527746Y-75606001D01*
X113280576Y-75606001D01*
X113317999Y-75609687D01*
X113355422Y-75606001D01*
X113355425Y-75606001D01*
X113467377Y-75594975D01*
X113611014Y-75551403D01*
X113743391Y-75480646D01*
X113859421Y-75385423D01*
X113883283Y-75356347D01*
X115288353Y-73951278D01*
X115317422Y-73927422D01*
X115344772Y-73894096D01*
X115412645Y-73811393D01*
X115468900Y-73706146D01*
X115483402Y-73679015D01*
X115521307Y-73554060D01*
X115549188Y-73539157D01*
X115760081Y-73366081D01*
X115776000Y-73346683D01*
X115791920Y-73366081D01*
G37*
G04 #@! TD.AperFunction*
D23*
X166108948Y-73595058D02*
X166094805Y-73609200D01*
X166108948Y-73623343D01*
X165929343Y-73802948D01*
X165915200Y-73788805D01*
X165116384Y-74587621D01*
X165185545Y-74829549D01*
X165437643Y-74948448D01*
X165708094Y-75015881D01*
X165958841Y-75027928D01*
X164024770Y-76962000D01*
X158560030Y-76962000D01*
X160530681Y-74991349D01*
X160695835Y-75024200D01*
X160974565Y-75024200D01*
X161247940Y-74969823D01*
X161505454Y-74863157D01*
X161737210Y-74708303D01*
X161934303Y-74511210D01*
X162089157Y-74279454D01*
X162105200Y-74240723D01*
X162121243Y-74279454D01*
X162276097Y-74511210D01*
X162473190Y-74708303D01*
X162704946Y-74863157D01*
X162962460Y-74969823D01*
X163235835Y-75024200D01*
X163514565Y-75024200D01*
X163787940Y-74969823D01*
X164045454Y-74863157D01*
X164277210Y-74708303D01*
X164474303Y-74511210D01*
X164629157Y-74279454D01*
X164643977Y-74243675D01*
X164694851Y-74338855D01*
X164936779Y-74408016D01*
X165735595Y-73609200D01*
X165721453Y-73595058D01*
X165901058Y-73415453D01*
X165915200Y-73429595D01*
X165929343Y-73415453D01*
X166108948Y-73595058D01*
G04 #@! TA.AperFunction,Conductor*
D24*
G36*
X166108948Y-73595058D02*
G01*
X166094805Y-73609200D01*
X166108948Y-73623343D01*
X165929343Y-73802948D01*
X165915200Y-73788805D01*
X165116384Y-74587621D01*
X165185545Y-74829549D01*
X165437643Y-74948448D01*
X165708094Y-75015881D01*
X165958841Y-75027928D01*
X164024770Y-76962000D01*
X158560030Y-76962000D01*
X160530681Y-74991349D01*
X160695835Y-75024200D01*
X160974565Y-75024200D01*
X161247940Y-74969823D01*
X161505454Y-74863157D01*
X161737210Y-74708303D01*
X161934303Y-74511210D01*
X162089157Y-74279454D01*
X162105200Y-74240723D01*
X162121243Y-74279454D01*
X162276097Y-74511210D01*
X162473190Y-74708303D01*
X162704946Y-74863157D01*
X162962460Y-74969823D01*
X163235835Y-75024200D01*
X163514565Y-75024200D01*
X163787940Y-74969823D01*
X164045454Y-74863157D01*
X164277210Y-74708303D01*
X164474303Y-74511210D01*
X164629157Y-74279454D01*
X164643977Y-74243675D01*
X164694851Y-74338855D01*
X164936779Y-74408016D01*
X165735595Y-73609200D01*
X165721453Y-73595058D01*
X165901058Y-73415453D01*
X165915200Y-73429595D01*
X165929343Y-73415453D01*
X166108948Y-73595058D01*
G37*
G04 #@! TD.AperFunction*
M02*
