G04 #@! TF.GenerationSoftware,KiCad,Pcbnew,5.1.5+dfsg1-2build2*
G04 #@! TF.CreationDate,2022-03-04T17:50:19+01:00*
G04 #@! TF.ProjectId,spelkonsoll,7370656c-6b6f-46e7-936f-6c6c2e6b6963,rev?*
G04 #@! TF.SameCoordinates,Original*
G04 #@! TF.FileFunction,Legend,Top*
G04 #@! TF.FilePolarity,Positive*
%FSLAX46Y46*%
G04 Gerber Fmt 4.6, Leading zero omitted, Abs format (unit mm)*
G04 Created by KiCad (PCBNEW 5.1.5+dfsg1-2build2) date 2022-03-04 17:50:19*
%MOMM*%
%LPD*%
G04 APERTURE LIST*
%ADD10C,0.150000*%
%ADD11C,0.010000*%
%ADD12C,0.120000*%
G04 APERTURE END LIST*
D10*
X111498809Y-95464380D02*
X112070238Y-95464380D01*
X111784523Y-96464380D02*
X111784523Y-95464380D01*
X112355952Y-96178666D02*
X112832142Y-96178666D01*
X112260714Y-96464380D02*
X112594047Y-95464380D01*
X112927380Y-96464380D01*
X113260714Y-96464380D02*
X113260714Y-95464380D01*
X113594047Y-96178666D01*
X113927380Y-95464380D01*
X113927380Y-96464380D01*
X114355952Y-96178666D02*
X114832142Y-96178666D01*
X114260714Y-96464380D02*
X114594047Y-95464380D01*
X114927380Y-96464380D01*
X115784523Y-95512000D02*
X115689285Y-95464380D01*
X115546428Y-95464380D01*
X115403571Y-95512000D01*
X115308333Y-95607238D01*
X115260714Y-95702476D01*
X115213095Y-95892952D01*
X115213095Y-96035809D01*
X115260714Y-96226285D01*
X115308333Y-96321523D01*
X115403571Y-96416761D01*
X115546428Y-96464380D01*
X115641666Y-96464380D01*
X115784523Y-96416761D01*
X115832142Y-96369142D01*
X115832142Y-96035809D01*
X115641666Y-96035809D01*
X116260714Y-95464380D02*
X116260714Y-96273904D01*
X116308333Y-96369142D01*
X116355952Y-96416761D01*
X116451190Y-96464380D01*
X116641666Y-96464380D01*
X116736904Y-96416761D01*
X116784523Y-96369142D01*
X116832142Y-96273904D01*
X116832142Y-95464380D01*
X117879761Y-96369142D02*
X117832142Y-96416761D01*
X117689285Y-96464380D01*
X117594047Y-96464380D01*
X117451190Y-96416761D01*
X117355952Y-96321523D01*
X117308333Y-96226285D01*
X117260714Y-96035809D01*
X117260714Y-95892952D01*
X117308333Y-95702476D01*
X117355952Y-95607238D01*
X117451190Y-95512000D01*
X117594047Y-95464380D01*
X117689285Y-95464380D01*
X117832142Y-95512000D01*
X117879761Y-95559619D01*
X118879761Y-96369142D02*
X118832142Y-96416761D01*
X118689285Y-96464380D01*
X118594047Y-96464380D01*
X118451190Y-96416761D01*
X118355952Y-96321523D01*
X118308333Y-96226285D01*
X118260714Y-96035809D01*
X118260714Y-95892952D01*
X118308333Y-95702476D01*
X118355952Y-95607238D01*
X118451190Y-95512000D01*
X118594047Y-95464380D01*
X118689285Y-95464380D01*
X118832142Y-95512000D01*
X118879761Y-95559619D01*
X119308333Y-96464380D02*
X119308333Y-95464380D01*
X120403571Y-95464380D02*
X120736904Y-96464380D01*
X121070238Y-95464380D01*
X121594047Y-95464380D02*
X121689285Y-95464380D01*
X121784523Y-95512000D01*
X121832142Y-95559619D01*
X121879761Y-95654857D01*
X121927380Y-95845333D01*
X121927380Y-96083428D01*
X121879761Y-96273904D01*
X121832142Y-96369142D01*
X121784523Y-96416761D01*
X121689285Y-96464380D01*
X121594047Y-96464380D01*
X121498809Y-96416761D01*
X121451190Y-96369142D01*
X121403571Y-96273904D01*
X121355952Y-96083428D01*
X121355952Y-95845333D01*
X121403571Y-95654857D01*
X121451190Y-95559619D01*
X121498809Y-95512000D01*
X121594047Y-95464380D01*
X122355952Y-96369142D02*
X122403571Y-96416761D01*
X122355952Y-96464380D01*
X122308333Y-96416761D01*
X122355952Y-96369142D01*
X122355952Y-96464380D01*
X123355952Y-96464380D02*
X122784523Y-96464380D01*
X123070238Y-96464380D02*
X123070238Y-95464380D01*
X122975000Y-95607238D01*
X122879761Y-95702476D01*
X122784523Y-95750095D01*
X112324190Y-94940380D02*
X112324190Y-93940380D01*
X112324190Y-94416571D02*
X112895619Y-94416571D01*
X112895619Y-94940380D02*
X112895619Y-93940380D01*
X113324190Y-94654666D02*
X113800380Y-94654666D01*
X113228952Y-94940380D02*
X113562285Y-93940380D01*
X113895619Y-94940380D01*
X114800380Y-94845142D02*
X114752761Y-94892761D01*
X114609904Y-94940380D01*
X114514666Y-94940380D01*
X114371809Y-94892761D01*
X114276571Y-94797523D01*
X114228952Y-94702285D01*
X114181333Y-94511809D01*
X114181333Y-94368952D01*
X114228952Y-94178476D01*
X114276571Y-94083238D01*
X114371809Y-93988000D01*
X114514666Y-93940380D01*
X114609904Y-93940380D01*
X114752761Y-93988000D01*
X114800380Y-94035619D01*
X115228952Y-94940380D02*
X115228952Y-93940380D01*
X115800380Y-94940380D02*
X115371809Y-94368952D01*
X115800380Y-93940380D02*
X115228952Y-94511809D01*
X116228952Y-94416571D02*
X116562285Y-94416571D01*
X116705142Y-94940380D02*
X116228952Y-94940380D01*
X116228952Y-93940380D01*
X116705142Y-93940380D01*
X117705142Y-94940380D02*
X117371809Y-94464190D01*
X117133714Y-94940380D02*
X117133714Y-93940380D01*
X117514666Y-93940380D01*
X117609904Y-93988000D01*
X117657523Y-94035619D01*
X117705142Y-94130857D01*
X117705142Y-94273714D01*
X117657523Y-94368952D01*
X117609904Y-94416571D01*
X117514666Y-94464190D01*
X117133714Y-94464190D01*
X118086095Y-94892761D02*
X118228952Y-94940380D01*
X118467047Y-94940380D01*
X118562285Y-94892761D01*
X118609904Y-94845142D01*
X118657523Y-94749904D01*
X118657523Y-94654666D01*
X118609904Y-94559428D01*
X118562285Y-94511809D01*
X118467047Y-94464190D01*
X118276571Y-94416571D01*
X118181333Y-94368952D01*
X118133714Y-94321333D01*
X118086095Y-94226095D01*
X118086095Y-94130857D01*
X118133714Y-94035619D01*
X118181333Y-93988000D01*
X118276571Y-93940380D01*
X118514666Y-93940380D01*
X118657523Y-93988000D01*
X119086095Y-94940380D02*
X119086095Y-93940380D01*
X119467047Y-93940380D01*
X119562285Y-93988000D01*
X119609904Y-94035619D01*
X119657523Y-94130857D01*
X119657523Y-94273714D01*
X119609904Y-94368952D01*
X119562285Y-94416571D01*
X119467047Y-94464190D01*
X119086095Y-94464190D01*
X120038476Y-94654666D02*
X120514666Y-94654666D01*
X119943238Y-94940380D02*
X120276571Y-93940380D01*
X120609904Y-94940380D01*
X121514666Y-94845142D02*
X121467047Y-94892761D01*
X121324190Y-94940380D01*
X121228952Y-94940380D01*
X121086095Y-94892761D01*
X120990857Y-94797523D01*
X120943238Y-94702285D01*
X120895619Y-94511809D01*
X120895619Y-94368952D01*
X120943238Y-94178476D01*
X120990857Y-94083238D01*
X121086095Y-93988000D01*
X121228952Y-93940380D01*
X121324190Y-93940380D01*
X121467047Y-93988000D01*
X121514666Y-94035619D01*
X121943238Y-94416571D02*
X122276571Y-94416571D01*
X122419428Y-94940380D02*
X121943238Y-94940380D01*
X121943238Y-93940380D01*
X122419428Y-93940380D01*
D11*
G36*
X115906000Y-78872778D02*
G01*
X115950517Y-78890385D01*
X115992783Y-78921883D01*
X116011210Y-78940108D01*
X116022985Y-78953189D01*
X116044761Y-78978068D01*
X116075585Y-79013633D01*
X116114500Y-79058771D01*
X116160553Y-79112369D01*
X116212789Y-79173314D01*
X116270253Y-79240495D01*
X116331989Y-79312799D01*
X116397045Y-79389112D01*
X116463053Y-79466664D01*
X116529488Y-79544669D01*
X116592864Y-79618871D01*
X116652309Y-79688265D01*
X116706956Y-79751844D01*
X116755932Y-79808604D01*
X116798369Y-79857537D01*
X116833396Y-79897639D01*
X116860143Y-79927904D01*
X116877741Y-79947325D01*
X116885319Y-79954898D01*
X116885443Y-79954956D01*
X116895427Y-79955549D01*
X116920838Y-79956236D01*
X116960168Y-79956995D01*
X117011912Y-79957807D01*
X117074563Y-79958651D01*
X117146613Y-79959506D01*
X117226558Y-79960353D01*
X117312889Y-79961170D01*
X117399080Y-79961899D01*
X117903127Y-79965913D01*
X118355814Y-79453680D01*
X118447420Y-79350202D01*
X118528421Y-79259096D01*
X118599248Y-79179889D01*
X118660334Y-79112113D01*
X118712110Y-79055295D01*
X118755008Y-79008966D01*
X118789461Y-78972654D01*
X118815900Y-78945890D01*
X118834758Y-78928202D01*
X118846466Y-78919120D01*
X118846600Y-78919041D01*
X118871406Y-78906340D01*
X118895405Y-78899629D01*
X118925747Y-78897310D01*
X118943966Y-78897280D01*
X118957597Y-78897610D01*
X118970818Y-78898647D01*
X118985072Y-78900929D01*
X119001799Y-78904994D01*
X119022442Y-78911382D01*
X119048442Y-78920630D01*
X119081240Y-78933278D01*
X119122278Y-78949863D01*
X119172998Y-78970924D01*
X119234840Y-78996999D01*
X119309247Y-79028628D01*
X119397660Y-79066349D01*
X119405400Y-79069653D01*
X119483927Y-79103221D01*
X119558365Y-79135110D01*
X119627138Y-79164640D01*
X119688669Y-79191132D01*
X119741382Y-79213905D01*
X119783701Y-79232280D01*
X119814050Y-79245575D01*
X119830853Y-79253112D01*
X119832966Y-79254124D01*
X119878677Y-79286103D01*
X119914641Y-79329630D01*
X119937889Y-79380737D01*
X119942678Y-79400794D01*
X119942829Y-79413667D01*
X119941658Y-79442079D01*
X119939260Y-79484696D01*
X119935729Y-79540183D01*
X119931159Y-79607204D01*
X119925643Y-79684426D01*
X119919276Y-79770513D01*
X119912153Y-79864131D01*
X119904366Y-79963945D01*
X119896011Y-80068620D01*
X119892910Y-80106893D01*
X119837850Y-80783752D01*
X119881733Y-80830793D01*
X119896144Y-80845908D01*
X119921141Y-80871748D01*
X119955421Y-80906980D01*
X119997679Y-80950271D01*
X120046613Y-81000287D01*
X120100920Y-81055696D01*
X120159296Y-81115165D01*
X120220439Y-81177361D01*
X120241515Y-81198779D01*
X120557413Y-81519725D01*
X121213700Y-81479335D01*
X121318977Y-81472941D01*
X121420408Y-81466948D01*
X121516568Y-81461427D01*
X121606028Y-81456455D01*
X121687362Y-81452105D01*
X121759142Y-81448452D01*
X121819941Y-81445569D01*
X121868332Y-81443532D01*
X121902887Y-81442415D01*
X121922180Y-81442291D01*
X121923640Y-81442361D01*
X121979709Y-81453323D01*
X122027238Y-81478818D01*
X122066787Y-81518851D01*
X122073949Y-81531900D01*
X122086714Y-81559110D01*
X122104413Y-81598911D01*
X122126379Y-81649733D01*
X122151941Y-81710008D01*
X122180432Y-81778167D01*
X122211182Y-81852640D01*
X122243524Y-81931858D01*
X122257972Y-81967530D01*
X122295245Y-82059863D01*
X122326641Y-82137922D01*
X122352664Y-82203122D01*
X122373816Y-82256874D01*
X122390599Y-82300592D01*
X122403517Y-82335688D01*
X122413072Y-82363575D01*
X122419766Y-82385666D01*
X122424104Y-82403374D01*
X122426586Y-82418111D01*
X122427717Y-82431290D01*
X122427999Y-82444324D01*
X122428000Y-82445340D01*
X122428106Y-82462654D01*
X122427894Y-82478085D01*
X122426569Y-82492453D01*
X122423336Y-82506572D01*
X122417400Y-82521262D01*
X122407965Y-82537338D01*
X122394235Y-82555619D01*
X122375417Y-82576922D01*
X122350714Y-82602064D01*
X122319332Y-82631862D01*
X122280475Y-82667134D01*
X122233348Y-82708697D01*
X122177156Y-82757369D01*
X122111103Y-82813965D01*
X122034394Y-82879305D01*
X121946235Y-82954205D01*
X121869374Y-83019480D01*
X121345801Y-83464231D01*
X121340921Y-83534166D01*
X121339922Y-83556281D01*
X121338890Y-83593417D01*
X121337855Y-83643662D01*
X121336843Y-83705102D01*
X121335884Y-83775825D01*
X121335003Y-83853918D01*
X121334231Y-83937470D01*
X121333593Y-84024567D01*
X121333452Y-84047682D01*
X121330862Y-84491263D01*
X121840406Y-84942543D01*
X121920107Y-85013240D01*
X121996392Y-85081121D01*
X122068271Y-85145292D01*
X122134753Y-85204858D01*
X122194845Y-85258924D01*
X122247559Y-85306595D01*
X122291901Y-85346977D01*
X122326881Y-85379174D01*
X122351509Y-85402293D01*
X122364793Y-85415439D01*
X122366633Y-85417594D01*
X122391048Y-85466599D01*
X122401245Y-85521855D01*
X122400662Y-85550266D01*
X122397739Y-85565541D01*
X122390766Y-85588983D01*
X122379354Y-85621580D01*
X122363113Y-85664320D01*
X122341655Y-85718194D01*
X122314591Y-85784189D01*
X122281532Y-85863294D01*
X122242088Y-85956498D01*
X122225688Y-85995011D01*
X122192077Y-86073716D01*
X122160028Y-86148534D01*
X122130237Y-86217857D01*
X122103402Y-86280072D01*
X122080219Y-86333570D01*
X122061385Y-86376741D01*
X122047595Y-86407973D01*
X122039547Y-86425656D01*
X122038467Y-86427863D01*
X122006698Y-86472427D01*
X121963774Y-86504980D01*
X121911351Y-86524583D01*
X121857622Y-86530377D01*
X121840902Y-86529698D01*
X121808743Y-86527737D01*
X121762581Y-86524601D01*
X121703853Y-86520398D01*
X121633995Y-86515235D01*
X121554443Y-86509221D01*
X121466635Y-86502462D01*
X121372007Y-86495067D01*
X121271996Y-86487142D01*
X121168038Y-86478795D01*
X121162300Y-86478331D01*
X121040542Y-86468524D01*
X120934569Y-86460086D01*
X120843293Y-86452950D01*
X120765628Y-86447050D01*
X120700487Y-86442318D01*
X120646781Y-86438688D01*
X120603425Y-86436092D01*
X120569330Y-86434464D01*
X120543410Y-86433736D01*
X120524577Y-86433842D01*
X120511744Y-86434715D01*
X120503824Y-86436287D01*
X120500879Y-86437600D01*
X120491689Y-86445482D01*
X120471588Y-86464187D01*
X120441702Y-86492627D01*
X120403155Y-86529713D01*
X120357071Y-86574356D01*
X120304575Y-86625468D01*
X120246790Y-86681959D01*
X120184843Y-86742741D01*
X120129781Y-86796938D01*
X119776706Y-87144975D01*
X119818982Y-87828478D01*
X119826975Y-87957329D01*
X119833971Y-88070397D01*
X119839938Y-88168805D01*
X119844845Y-88253676D01*
X119848659Y-88326132D01*
X119851348Y-88387297D01*
X119852881Y-88438293D01*
X119853226Y-88480243D01*
X119852349Y-88514270D01*
X119850221Y-88541497D01*
X119846808Y-88563047D01*
X119842079Y-88580041D01*
X119836002Y-88593605D01*
X119828544Y-88604859D01*
X119819675Y-88614927D01*
X119809361Y-88624933D01*
X119797572Y-88635998D01*
X119795969Y-88637534D01*
X119786041Y-88646590D01*
X119774947Y-88655280D01*
X119761259Y-88664250D01*
X119743548Y-88674147D01*
X119720387Y-88685617D01*
X119690348Y-88699306D01*
X119652004Y-88715860D01*
X119603925Y-88735926D01*
X119544684Y-88760150D01*
X119472853Y-88789178D01*
X119387005Y-88823656D01*
X119367113Y-88831629D01*
X119293368Y-88861428D01*
X119217119Y-88892755D01*
X119137205Y-88926114D01*
X119052464Y-88962015D01*
X118961734Y-89000965D01*
X118863853Y-89043469D01*
X118757660Y-89090037D01*
X118641992Y-89141175D01*
X118515687Y-89197391D01*
X118377584Y-89259191D01*
X118226520Y-89327084D01*
X118061334Y-89401575D01*
X118050733Y-89406363D01*
X117855253Y-89494488D01*
X117673074Y-89576275D01*
X117504370Y-89651647D01*
X117349312Y-89720532D01*
X117208073Y-89782852D01*
X117080828Y-89838533D01*
X116967749Y-89887501D01*
X116869008Y-89929680D01*
X116784780Y-89964995D01*
X116715236Y-89993370D01*
X116660549Y-90014732D01*
X116620894Y-90029005D01*
X116602814Y-90034566D01*
X116581311Y-90039182D01*
X116559802Y-90040648D01*
X116536265Y-90038308D01*
X116508676Y-90031504D01*
X116475011Y-90019577D01*
X116433248Y-90001871D01*
X116381361Y-89977728D01*
X116317330Y-89946491D01*
X116289866Y-89932859D01*
X116229281Y-89902767D01*
X116182012Y-89879574D01*
X116146248Y-89862565D01*
X116120180Y-89851026D01*
X116101998Y-89844243D01*
X116089893Y-89841502D01*
X116082053Y-89842087D01*
X116076670Y-89845285D01*
X116074239Y-89847745D01*
X116070525Y-89853105D01*
X116069073Y-89860198D01*
X116070600Y-89870813D01*
X116075821Y-89886738D01*
X116085455Y-89909763D01*
X116100218Y-89941675D01*
X116120828Y-89984262D01*
X116148000Y-90039314D01*
X116163725Y-90070973D01*
X116194512Y-90133083D01*
X116218509Y-90182184D01*
X116236555Y-90220384D01*
X116249494Y-90249788D01*
X116258168Y-90272504D01*
X116263417Y-90290638D01*
X116266085Y-90306296D01*
X116267014Y-90321586D01*
X116267089Y-90329594D01*
X116266982Y-90347557D01*
X116265986Y-90362638D01*
X116263084Y-90377458D01*
X116257262Y-90394637D01*
X116247505Y-90416793D01*
X116232797Y-90446548D01*
X116212123Y-90486521D01*
X116189652Y-90529439D01*
X116144448Y-90625355D01*
X116107643Y-90725878D01*
X116090210Y-90784762D01*
X116078825Y-90821776D01*
X116066156Y-90856229D01*
X116054513Y-90881988D01*
X116051875Y-90886607D01*
X116038918Y-90905169D01*
X116023396Y-90921656D01*
X116003405Y-90937022D01*
X115977040Y-90952222D01*
X115942396Y-90968211D01*
X115897568Y-90985943D01*
X115840652Y-91006374D01*
X115769743Y-91030457D01*
X115755200Y-91035302D01*
X115691484Y-91056550D01*
X115642074Y-91073299D01*
X115605185Y-91086323D01*
X115579033Y-91096398D01*
X115561831Y-91104302D01*
X115551797Y-91110809D01*
X115547144Y-91116696D01*
X115546089Y-91122738D01*
X115546358Y-91126102D01*
X115548168Y-91132625D01*
X115553131Y-91138908D01*
X115563037Y-91145718D01*
X115579680Y-91153826D01*
X115604850Y-91163999D01*
X115640338Y-91177005D01*
X115687937Y-91193614D01*
X115749438Y-91214594D01*
X115764733Y-91219778D01*
X115832257Y-91242486D01*
X115887834Y-91261610D01*
X115933230Y-91278922D01*
X115970208Y-91296196D01*
X116000532Y-91315204D01*
X116025965Y-91337720D01*
X116048271Y-91365518D01*
X116069214Y-91400369D01*
X116090557Y-91444048D01*
X116114065Y-91498328D01*
X116141501Y-91564981D01*
X116164843Y-91622034D01*
X116196213Y-91697913D01*
X116221771Y-91760377D01*
X116241519Y-91811912D01*
X116255455Y-91855008D01*
X116263580Y-91892153D01*
X116265893Y-91925836D01*
X116262395Y-91958546D01*
X116253086Y-91992771D01*
X116237964Y-92031000D01*
X116217031Y-92075721D01*
X116190286Y-92129423D01*
X116164818Y-92180296D01*
X116134408Y-92241550D01*
X116110857Y-92289452D01*
X116093468Y-92325805D01*
X116081542Y-92352408D01*
X116074381Y-92371065D01*
X116071286Y-92383576D01*
X116071559Y-92391742D01*
X116074501Y-92397365D01*
X116078938Y-92401816D01*
X116084375Y-92406024D01*
X116090861Y-92408201D01*
X116100194Y-92407643D01*
X116114169Y-92403642D01*
X116134583Y-92395494D01*
X116163232Y-92382491D01*
X116201912Y-92363928D01*
X116252419Y-92339098D01*
X116305840Y-92312613D01*
X116367246Y-92281865D01*
X116417822Y-92256794D01*
X116460037Y-92237413D01*
X116496356Y-92223734D01*
X116529246Y-92215770D01*
X116561176Y-92213533D01*
X116594611Y-92217035D01*
X116632018Y-92226290D01*
X116675865Y-92241310D01*
X116728619Y-92262106D01*
X116792746Y-92288692D01*
X116856933Y-92315394D01*
X116932787Y-92347008D01*
X116994578Y-92373478D01*
X117044047Y-92395747D01*
X117082931Y-92414762D01*
X117112968Y-92431469D01*
X117135898Y-92446814D01*
X117153458Y-92461741D01*
X117167387Y-92477196D01*
X117175982Y-92488946D01*
X117183682Y-92504300D01*
X117195644Y-92533252D01*
X117210930Y-92573286D01*
X117228599Y-92621886D01*
X117247710Y-92676536D01*
X117263470Y-92723110D01*
X117284509Y-92786060D01*
X117301046Y-92834758D01*
X117313889Y-92871033D01*
X117323849Y-92896712D01*
X117331735Y-92913622D01*
X117338357Y-92923590D01*
X117344523Y-92928444D01*
X117351045Y-92930011D01*
X117355189Y-92930134D01*
X117362361Y-92929610D01*
X117368679Y-92926800D01*
X117374968Y-92919847D01*
X117382049Y-92906896D01*
X117390746Y-92886088D01*
X117401882Y-92855567D01*
X117416279Y-92813477D01*
X117434761Y-92757960D01*
X117444317Y-92729050D01*
X117468987Y-92655297D01*
X117489710Y-92595911D01*
X117507367Y-92549030D01*
X117522840Y-92512790D01*
X117537011Y-92485329D01*
X117550760Y-92464785D01*
X117564969Y-92449293D01*
X117580519Y-92436992D01*
X117583418Y-92435046D01*
X117599058Y-92426592D01*
X117628095Y-92412678D01*
X117668276Y-92394315D01*
X117717348Y-92372511D01*
X117773058Y-92348277D01*
X117833155Y-92322622D01*
X117851767Y-92314772D01*
X117927334Y-92282855D01*
X117989627Y-92256965D01*
X118041197Y-92237109D01*
X118084596Y-92223292D01*
X118122377Y-92215519D01*
X118157090Y-92213796D01*
X118191288Y-92218129D01*
X118227523Y-92228523D01*
X118268346Y-92244984D01*
X118316309Y-92267517D01*
X118373964Y-92296128D01*
X118413839Y-92316000D01*
X118484221Y-92351001D01*
X118540350Y-92378311D01*
X118582971Y-92397130D01*
X118612827Y-92406659D01*
X118630662Y-92406100D01*
X118637221Y-92394654D01*
X118633247Y-92371521D01*
X118619484Y-92335904D01*
X118596677Y-92287004D01*
X118565569Y-92224021D01*
X118542561Y-92177793D01*
X118438074Y-91967337D01*
X118441907Y-91913219D01*
X118444026Y-91894902D01*
X118448335Y-91874049D01*
X118455523Y-91848694D01*
X118466279Y-91816869D01*
X118481292Y-91776606D01*
X118501252Y-91725938D01*
X118526848Y-91662898D01*
X118545411Y-91617801D01*
X118576874Y-91542150D01*
X118603086Y-91480592D01*
X118624950Y-91431446D01*
X118643371Y-91393032D01*
X118659253Y-91363666D01*
X118673499Y-91341667D01*
X118687014Y-91325355D01*
X118700701Y-91313048D01*
X118714231Y-91303813D01*
X118729363Y-91296771D01*
X118758115Y-91285405D01*
X118798003Y-91270618D01*
X118846540Y-91253317D01*
X118901242Y-91234405D01*
X118950316Y-91217877D01*
X119013698Y-91196733D01*
X119062815Y-91180092D01*
X119099485Y-91167153D01*
X119125525Y-91157115D01*
X119142751Y-91149177D01*
X119152980Y-91142537D01*
X119158028Y-91136393D01*
X119159714Y-91129945D01*
X119159866Y-91125448D01*
X119159353Y-91118410D01*
X119156602Y-91112173D01*
X119149796Y-91105936D01*
X119137119Y-91098898D01*
X119116753Y-91090258D01*
X119086882Y-91079215D01*
X119045688Y-91064968D01*
X118991355Y-91046715D01*
X118950316Y-91033050D01*
X118887735Y-91011767D01*
X118830639Y-90991445D01*
X118781356Y-90972973D01*
X118742212Y-90957239D01*
X118715534Y-90945129D01*
X118706580Y-90940042D01*
X118693699Y-90930487D01*
X118681858Y-90919396D01*
X118670217Y-90905138D01*
X118657940Y-90886084D01*
X118644188Y-90860605D01*
X118628123Y-90827070D01*
X118608908Y-90783851D01*
X118585704Y-90729316D01*
X118557674Y-90661838D01*
X118534333Y-90605056D01*
X118506513Y-90536832D01*
X118484652Y-90482165D01*
X118468064Y-90439039D01*
X118456063Y-90405435D01*
X118447964Y-90379336D01*
X118443080Y-90358724D01*
X118440725Y-90341582D01*
X118440200Y-90328231D01*
X118440618Y-90314942D01*
X118442361Y-90301389D01*
X118446160Y-90285850D01*
X118452746Y-90266606D01*
X118462850Y-90241934D01*
X118477205Y-90210115D01*
X118496541Y-90169427D01*
X118521591Y-90118149D01*
X118553084Y-90054561D01*
X118576527Y-90007476D01*
X118607875Y-89944646D01*
X118636817Y-89886758D01*
X118662492Y-89835524D01*
X118684040Y-89792654D01*
X118700602Y-89759860D01*
X118711317Y-89738852D01*
X118715313Y-89731354D01*
X118722983Y-89734384D01*
X118743259Y-89743753D01*
X118773609Y-89758216D01*
X118811500Y-89776526D01*
X118854399Y-89797438D01*
X118899773Y-89819704D01*
X118945090Y-89842080D01*
X118987817Y-89863318D01*
X119025421Y-89882172D01*
X119055369Y-89897397D01*
X119075130Y-89907746D01*
X119082042Y-89911795D01*
X119079087Y-89919667D01*
X119069443Y-89940719D01*
X119054047Y-89973009D01*
X119033835Y-90014598D01*
X119009745Y-90063545D01*
X118982712Y-90117910D01*
X118978644Y-90126046D01*
X118872638Y-90337929D01*
X118982964Y-90606559D01*
X119218891Y-90685033D01*
X119295413Y-90710741D01*
X119357582Y-90732407D01*
X119407226Y-90750971D01*
X119446177Y-90767371D01*
X119476263Y-90782548D01*
X119499315Y-90797441D01*
X119517162Y-90812990D01*
X119531635Y-90830134D01*
X119544563Y-90849813D01*
X119546650Y-90853327D01*
X119570500Y-90893901D01*
X119573243Y-91105567D01*
X119573860Y-91187794D01*
X119573355Y-91253462D01*
X119571720Y-91302907D01*
X119568943Y-91336467D01*
X119566198Y-91351101D01*
X119545170Y-91399615D01*
X119513668Y-91441108D01*
X119477961Y-91469200D01*
X119460876Y-91477025D01*
X119430155Y-91489130D01*
X119388285Y-91504616D01*
X119337750Y-91522583D01*
X119281037Y-91542131D01*
X119220633Y-91562361D01*
X119219133Y-91562856D01*
X119160484Y-91582334D01*
X119107068Y-91600335D01*
X119061012Y-91616121D01*
X119024439Y-91628956D01*
X118999476Y-91638102D01*
X118988247Y-91642823D01*
X118987936Y-91643046D01*
X118982575Y-91652591D01*
X118972050Y-91675104D01*
X118957569Y-91707866D01*
X118940340Y-91748156D01*
X118926421Y-91781486D01*
X118871738Y-91913730D01*
X118987250Y-92144633D01*
X119020040Y-92210337D01*
X119045979Y-92262893D01*
X119065870Y-92304257D01*
X119080517Y-92336386D01*
X119090725Y-92361234D01*
X119097298Y-92380760D01*
X119101040Y-92396917D01*
X119102754Y-92411663D01*
X119103245Y-92426798D01*
X119102514Y-92453547D01*
X119098940Y-92477699D01*
X119091254Y-92501126D01*
X119078191Y-92525704D01*
X119058485Y-92553304D01*
X119030870Y-92585801D01*
X118994078Y-92625068D01*
X118946844Y-92672979D01*
X118916347Y-92703304D01*
X118869385Y-92749658D01*
X118832483Y-92785529D01*
X118803769Y-92812450D01*
X118781369Y-92831952D01*
X118763410Y-92845566D01*
X118748018Y-92854823D01*
X118733321Y-92861255D01*
X118717445Y-92866393D01*
X118716517Y-92866664D01*
X118664036Y-92876577D01*
X118629165Y-92875313D01*
X118609591Y-92869574D01*
X118576545Y-92856495D01*
X118531485Y-92836731D01*
X118475868Y-92810934D01*
X118411152Y-92779757D01*
X118365400Y-92757166D01*
X118139633Y-92644717D01*
X117869935Y-92757209D01*
X117791220Y-92993183D01*
X117770277Y-93054845D01*
X117749952Y-93112607D01*
X117731127Y-93164120D01*
X117714684Y-93207032D01*
X117701505Y-93238994D01*
X117692472Y-93257655D01*
X117691256Y-93259562D01*
X117655505Y-93297939D01*
X117610768Y-93326655D01*
X117584262Y-93336765D01*
X117565161Y-93339657D01*
X117532446Y-93341863D01*
X117489088Y-93343406D01*
X117438056Y-93344304D01*
X117382320Y-93344580D01*
X117324850Y-93344255D01*
X117268615Y-93343350D01*
X117216585Y-93341886D01*
X117171729Y-93339884D01*
X117137019Y-93337366D01*
X117115422Y-93334351D01*
X117112094Y-93333408D01*
X117075968Y-93314275D01*
X117040316Y-93285401D01*
X117011532Y-93252408D01*
X117001884Y-93236467D01*
X116995126Y-93220318D01*
X116983975Y-93190503D01*
X116969288Y-93149455D01*
X116951921Y-93099607D01*
X116932734Y-93043392D01*
X116912582Y-92983242D01*
X116911641Y-92980406D01*
X116837062Y-92755511D01*
X116565832Y-92643825D01*
X116336733Y-92758798D01*
X116271622Y-92791417D01*
X116219641Y-92817205D01*
X116178809Y-92836966D01*
X116147141Y-92851504D01*
X116122655Y-92861624D01*
X116103367Y-92868130D01*
X116087294Y-92871826D01*
X116072453Y-92873517D01*
X116056861Y-92874006D01*
X116052600Y-92874036D01*
X116023979Y-92872915D01*
X115997754Y-92868413D01*
X115972024Y-92859261D01*
X115944889Y-92844188D01*
X115914448Y-92821922D01*
X115878800Y-92791193D01*
X115836046Y-92750731D01*
X115784283Y-92699264D01*
X115770835Y-92685668D01*
X115720301Y-92633944D01*
X115680783Y-92591824D01*
X115651029Y-92557241D01*
X115629783Y-92528133D01*
X115615790Y-92502434D01*
X115607795Y-92478080D01*
X115604544Y-92453007D01*
X115604781Y-92425151D01*
X115605504Y-92413687D01*
X115607314Y-92397262D01*
X115610885Y-92380006D01*
X115617050Y-92359930D01*
X115626642Y-92335046D01*
X115640491Y-92303364D01*
X115659431Y-92262896D01*
X115684293Y-92211654D01*
X115715910Y-92147647D01*
X115721656Y-92136079D01*
X115834092Y-91909835D01*
X115781846Y-91782868D01*
X115763555Y-91739284D01*
X115746787Y-91700935D01*
X115732859Y-91670708D01*
X115723086Y-91651490D01*
X115719650Y-91646332D01*
X115709318Y-91641303D01*
X115684999Y-91631787D01*
X115648809Y-91618539D01*
X115602863Y-91602317D01*
X115549276Y-91583875D01*
X115490164Y-91563969D01*
X115475898Y-91559226D01*
X115400168Y-91533853D01*
X115338793Y-91512457D01*
X115289940Y-91494038D01*
X115251780Y-91477591D01*
X115222481Y-91462116D01*
X115200214Y-91446609D01*
X115183147Y-91430068D01*
X115169450Y-91411491D01*
X115157293Y-91389875D01*
X115153761Y-91382828D01*
X115147751Y-91370036D01*
X115143100Y-91357536D01*
X115139632Y-91343043D01*
X115137175Y-91324274D01*
X115135555Y-91298946D01*
X115134597Y-91264775D01*
X115134130Y-91219476D01*
X115133978Y-91160767D01*
X115133967Y-91122501D01*
X115133967Y-90902367D01*
X115159251Y-90856713D01*
X115181662Y-90823744D01*
X115207686Y-90796508D01*
X115217529Y-90788980D01*
X115234120Y-90780540D01*
X115264388Y-90767800D01*
X115305898Y-90751678D01*
X115356217Y-90733090D01*
X115412914Y-90712956D01*
X115473553Y-90692192D01*
X115479016Y-90690359D01*
X115707509Y-90613818D01*
X115734792Y-90537959D01*
X115751819Y-90493031D01*
X115771993Y-90443327D01*
X115791414Y-90398405D01*
X115794536Y-90391548D01*
X115826999Y-90320996D01*
X115715148Y-90095215D01*
X115682930Y-90029979D01*
X115657543Y-89977901D01*
X115638184Y-89937022D01*
X115624052Y-89905385D01*
X115614347Y-89881032D01*
X115608265Y-89862003D01*
X115605005Y-89846341D01*
X115603767Y-89832088D01*
X115603664Y-89822867D01*
X115605111Y-89795073D01*
X115609843Y-89769571D01*
X115619148Y-89744467D01*
X115634315Y-89717865D01*
X115656630Y-89687871D01*
X115687382Y-89652588D01*
X115727859Y-89610122D01*
X115779348Y-89558578D01*
X115791197Y-89546899D01*
X115844485Y-89494625D01*
X115889591Y-89452018D01*
X115928722Y-89418863D01*
X115964083Y-89394945D01*
X115997880Y-89380049D01*
X116032320Y-89373960D01*
X116069608Y-89376463D01*
X116111952Y-89387343D01*
X116161555Y-89406386D01*
X116220626Y-89433375D01*
X116291369Y-89468096D01*
X116341730Y-89493246D01*
X116567154Y-89605863D01*
X116731094Y-89539260D01*
X116760169Y-89527091D01*
X116803498Y-89508449D01*
X116859910Y-89483854D01*
X116928236Y-89453825D01*
X117007308Y-89418884D01*
X117095957Y-89379549D01*
X117193013Y-89336342D01*
X117297307Y-89289782D01*
X117407671Y-89240389D01*
X117522935Y-89188683D01*
X117641931Y-89135185D01*
X117763488Y-89080414D01*
X117830600Y-89050123D01*
X118018023Y-88965666D01*
X118194133Y-88886693D01*
X118358455Y-88813412D01*
X118510518Y-88746031D01*
X118649848Y-88684758D01*
X118775972Y-88629799D01*
X118888417Y-88581363D01*
X118986711Y-88539658D01*
X119070380Y-88504890D01*
X119102832Y-88491685D01*
X119439497Y-88355781D01*
X119434826Y-88304041D01*
X119433028Y-88281190D01*
X119430400Y-88243698D01*
X119427049Y-88193329D01*
X119423080Y-88131853D01*
X119418599Y-88061034D01*
X119413713Y-87982642D01*
X119408527Y-87898442D01*
X119403146Y-87810203D01*
X119397678Y-87719690D01*
X119392228Y-87628671D01*
X119386901Y-87538914D01*
X119381803Y-87452185D01*
X119377042Y-87370252D01*
X119372721Y-87294880D01*
X119368948Y-87227839D01*
X119365828Y-87170894D01*
X119363467Y-87125813D01*
X119361971Y-87094363D01*
X119361458Y-87079667D01*
X119363929Y-87025886D01*
X119373558Y-86984790D01*
X119375318Y-86980324D01*
X119380870Y-86970687D01*
X119391734Y-86956361D01*
X119408592Y-86936645D01*
X119432124Y-86910835D01*
X119463014Y-86878233D01*
X119501942Y-86838134D01*
X119549590Y-86789838D01*
X119606640Y-86732644D01*
X119673774Y-86665850D01*
X119751672Y-86588753D01*
X119841017Y-86500653D01*
X119848646Y-86493142D01*
X119933459Y-86409858D01*
X120012196Y-86332966D01*
X120084160Y-86263129D01*
X120148652Y-86201014D01*
X120204974Y-86147283D01*
X120252427Y-86102602D01*
X120290313Y-86067636D01*
X120317935Y-86043048D01*
X120334592Y-86029504D01*
X120338174Y-86027258D01*
X120365024Y-86016359D01*
X120390228Y-86008654D01*
X120393207Y-86008012D01*
X120405353Y-86007925D01*
X120433007Y-86009144D01*
X120474801Y-86011571D01*
X120529366Y-86015111D01*
X120595336Y-86019667D01*
X120671343Y-86025142D01*
X120756018Y-86031440D01*
X120847995Y-86038462D01*
X120945906Y-86046114D01*
X121048382Y-86054298D01*
X121052809Y-86054655D01*
X121155350Y-86062914D01*
X121253305Y-86070755D01*
X121345313Y-86078074D01*
X121430018Y-86084764D01*
X121506060Y-86090720D01*
X121572082Y-86095835D01*
X121626725Y-86100004D01*
X121668630Y-86103122D01*
X121696440Y-86105081D01*
X121708795Y-86105777D01*
X121708976Y-86105777D01*
X121715021Y-86104690D01*
X121721252Y-86100529D01*
X121728448Y-86091742D01*
X121737388Y-86076779D01*
X121748851Y-86054088D01*
X121763618Y-86022117D01*
X121782466Y-85979315D01*
X121806175Y-85924131D01*
X121835525Y-85855012D01*
X121838738Y-85847421D01*
X121864751Y-85785640D01*
X121888345Y-85728999D01*
X121908775Y-85679334D01*
X121925297Y-85638482D01*
X121937166Y-85608278D01*
X121943637Y-85590558D01*
X121944571Y-85586574D01*
X121934468Y-85577965D01*
X121913158Y-85559381D01*
X121881833Y-85531879D01*
X121841686Y-85496518D01*
X121793911Y-85454356D01*
X121739698Y-85406450D01*
X121680242Y-85353858D01*
X121616736Y-85297639D01*
X121550371Y-85238849D01*
X121482341Y-85178548D01*
X121413839Y-85117792D01*
X121346056Y-85057641D01*
X121280187Y-84999150D01*
X121217424Y-84943380D01*
X121158959Y-84891386D01*
X121105985Y-84844228D01*
X121059696Y-84802964D01*
X121021283Y-84768650D01*
X120991940Y-84742345D01*
X120972859Y-84725107D01*
X120965234Y-84717994D01*
X120965192Y-84717945D01*
X120954540Y-84702456D01*
X120940791Y-84679473D01*
X120936028Y-84670901D01*
X120931843Y-84662902D01*
X120928357Y-84654661D01*
X120925515Y-84644668D01*
X120923264Y-84631409D01*
X120921552Y-84613374D01*
X120920324Y-84589051D01*
X120919527Y-84556927D01*
X120919108Y-84515492D01*
X120919013Y-84463233D01*
X120919189Y-84398639D01*
X120919582Y-84320198D01*
X120920139Y-84226398D01*
X120920164Y-84222167D01*
X120920827Y-84128561D01*
X120921687Y-84030747D01*
X120922706Y-83931945D01*
X120923843Y-83835371D01*
X120925060Y-83744243D01*
X120926318Y-83661780D01*
X120927577Y-83591199D01*
X120928279Y-83557534D01*
X120929922Y-83485856D01*
X120931408Y-83429038D01*
X120932927Y-83385011D01*
X120934667Y-83351705D01*
X120936821Y-83327051D01*
X120939576Y-83308978D01*
X120943123Y-83295417D01*
X120947652Y-83284300D01*
X120953353Y-83273555D01*
X120954518Y-83271500D01*
X120962371Y-83261046D01*
X120977445Y-83244948D01*
X121000365Y-83222651D01*
X121031755Y-83193603D01*
X121072240Y-83157250D01*
X121122445Y-83113039D01*
X121182995Y-83060417D01*
X121254513Y-82998831D01*
X121337625Y-82927727D01*
X121432956Y-82846551D01*
X121465937Y-82818534D01*
X121544601Y-82751759D01*
X121619665Y-82688070D01*
X121690109Y-82628333D01*
X121754911Y-82573412D01*
X121813048Y-82524173D01*
X121863500Y-82481480D01*
X121905243Y-82446198D01*
X121937257Y-82419194D01*
X121958519Y-82401331D01*
X121968008Y-82393475D01*
X121968283Y-82393263D01*
X121970502Y-82388199D01*
X121969554Y-82377409D01*
X121964931Y-82359432D01*
X121956127Y-82332806D01*
X121942633Y-82296069D01*
X121923941Y-82247759D01*
X121899543Y-82186414D01*
X121877125Y-82130797D01*
X121852039Y-82068944D01*
X121828831Y-82011994D01*
X121808297Y-81961882D01*
X121791236Y-81920543D01*
X121778445Y-81889915D01*
X121770722Y-81871932D01*
X121768878Y-81868057D01*
X121760346Y-81866650D01*
X121737052Y-81866412D01*
X121698734Y-81867353D01*
X121645133Y-81869488D01*
X121575986Y-81872829D01*
X121491032Y-81877389D01*
X121390010Y-81883180D01*
X121272660Y-81890216D01*
X121138719Y-81898508D01*
X121119900Y-81899690D01*
X121016256Y-81906123D01*
X120916901Y-81912123D01*
X120823223Y-81917615D01*
X120736610Y-81922526D01*
X120658451Y-81926783D01*
X120590134Y-81930311D01*
X120533049Y-81933038D01*
X120488584Y-81934889D01*
X120458127Y-81935790D01*
X120443067Y-81935669D01*
X120442566Y-81935613D01*
X120413123Y-81928103D01*
X120382025Y-81915096D01*
X120374833Y-81911160D01*
X120363479Y-81901977D01*
X120341302Y-81881679D01*
X120309312Y-81851263D01*
X120268521Y-81811724D01*
X120219939Y-81764061D01*
X120164578Y-81709268D01*
X120103449Y-81648342D01*
X120037562Y-81582280D01*
X119967929Y-81512078D01*
X119897804Y-81441013D01*
X119811263Y-81353082D01*
X119735822Y-81276312D01*
X119670722Y-81209773D01*
X119615204Y-81152538D01*
X119568511Y-81103679D01*
X119529883Y-81062267D01*
X119498562Y-81027374D01*
X119473789Y-80998072D01*
X119454807Y-80973433D01*
X119440856Y-80952528D01*
X119431178Y-80934430D01*
X119425015Y-80918210D01*
X119421608Y-80902940D01*
X119420199Y-80887692D01*
X119420028Y-80871538D01*
X119420287Y-80856667D01*
X119421099Y-80840482D01*
X119423160Y-80809133D01*
X119426335Y-80764329D01*
X119430489Y-80707784D01*
X119435486Y-80641209D01*
X119441192Y-80566314D01*
X119447469Y-80484813D01*
X119454185Y-80398416D01*
X119461202Y-80308836D01*
X119468386Y-80217783D01*
X119475602Y-80126969D01*
X119482714Y-80038106D01*
X119489587Y-79952905D01*
X119496086Y-79873079D01*
X119502075Y-79800338D01*
X119507419Y-79736394D01*
X119511983Y-79682959D01*
X119515632Y-79641744D01*
X119518229Y-79614461D01*
X119519114Y-79606395D01*
X119523423Y-79571090D01*
X119271795Y-79463795D01*
X119210449Y-79437640D01*
X119153941Y-79413554D01*
X119104196Y-79392356D01*
X119063140Y-79374867D01*
X119032697Y-79361906D01*
X119014794Y-79354295D01*
X119010920Y-79352658D01*
X119003986Y-79358239D01*
X118986746Y-79375584D01*
X118960070Y-79403736D01*
X118924828Y-79441738D01*
X118881891Y-79488634D01*
X118832131Y-79543467D01*
X118776416Y-79605281D01*
X118715619Y-79673120D01*
X118650610Y-79746025D01*
X118582259Y-79823042D01*
X118565137Y-79842391D01*
X118495583Y-79920848D01*
X118428774Y-79995854D01*
X118365625Y-80066401D01*
X118307053Y-80131480D01*
X118253975Y-80190085D01*
X118207308Y-80241208D01*
X118167968Y-80283842D01*
X118136872Y-80316978D01*
X118114936Y-80339610D01*
X118103077Y-80350729D01*
X118101997Y-80351481D01*
X118076562Y-80364303D01*
X118052260Y-80373628D01*
X118051893Y-80373735D01*
X118039816Y-80374727D01*
X118012169Y-80375504D01*
X117970314Y-80376064D01*
X117915612Y-80376407D01*
X117849426Y-80376534D01*
X117773117Y-80376444D01*
X117688047Y-80376137D01*
X117595578Y-80375614D01*
X117497071Y-80374873D01*
X117393889Y-80373915D01*
X117382928Y-80373802D01*
X116737464Y-80367130D01*
X116692684Y-80345221D01*
X116683588Y-80340241D01*
X116673556Y-80333416D01*
X116661799Y-80323873D01*
X116647527Y-80310734D01*
X116629951Y-80293125D01*
X116608282Y-80270170D01*
X116581729Y-80240995D01*
X116549503Y-80204722D01*
X116510815Y-80160477D01*
X116464875Y-80107385D01*
X116410894Y-80044570D01*
X116348082Y-79971156D01*
X116275649Y-79886268D01*
X116221891Y-79823180D01*
X116141841Y-79729284D01*
X116071996Y-79647560D01*
X116011656Y-79577226D01*
X115960121Y-79517499D01*
X115916691Y-79467596D01*
X115880664Y-79426737D01*
X115851341Y-79394139D01*
X115828021Y-79369019D01*
X115810004Y-79350595D01*
X115796590Y-79338086D01*
X115787078Y-79330708D01*
X115780768Y-79327681D01*
X115778189Y-79327637D01*
X115766115Y-79331851D01*
X115740422Y-79341580D01*
X115703196Y-79356008D01*
X115656524Y-79374318D01*
X115602492Y-79395695D01*
X115543186Y-79419323D01*
X115519200Y-79428922D01*
X115451291Y-79456184D01*
X115397459Y-79478008D01*
X115356047Y-79495221D01*
X115325399Y-79508647D01*
X115303859Y-79519112D01*
X115289771Y-79527441D01*
X115281478Y-79534460D01*
X115277325Y-79540994D01*
X115275654Y-79547868D01*
X115275357Y-79550434D01*
X115275460Y-79562752D01*
X115276559Y-79590590D01*
X115278577Y-79632568D01*
X115281436Y-79687307D01*
X115285060Y-79753426D01*
X115289372Y-79829547D01*
X115294295Y-79914289D01*
X115299751Y-80006272D01*
X115305665Y-80104119D01*
X115311892Y-80205374D01*
X115319432Y-80326892D01*
X115325953Y-80432710D01*
X115331448Y-80524028D01*
X115335910Y-80602051D01*
X115339331Y-80667979D01*
X115341705Y-80723015D01*
X115343024Y-80768362D01*
X115343282Y-80805222D01*
X115342471Y-80834797D01*
X115340584Y-80858289D01*
X115337615Y-80876900D01*
X115333557Y-80891833D01*
X115328401Y-80904290D01*
X115322142Y-80915474D01*
X115314772Y-80926586D01*
X115307606Y-80936906D01*
X115297304Y-80949028D01*
X115276029Y-80971775D01*
X115244949Y-81003971D01*
X115205231Y-81044436D01*
X115158043Y-81091992D01*
X115104554Y-81145461D01*
X115045930Y-81203665D01*
X114983339Y-81265426D01*
X114933871Y-81313983D01*
X114840023Y-81405893D01*
X114757478Y-81486696D01*
X114685440Y-81557132D01*
X114623112Y-81617940D01*
X114569697Y-81669858D01*
X114524397Y-81713625D01*
X114486418Y-81749980D01*
X114454960Y-81779663D01*
X114429227Y-81803412D01*
X114408423Y-81821966D01*
X114391749Y-81836063D01*
X114378411Y-81846444D01*
X114367609Y-81853846D01*
X114358548Y-81859009D01*
X114350431Y-81862672D01*
X114342460Y-81865573D01*
X114336990Y-81867396D01*
X114328636Y-81869989D01*
X114319698Y-81872104D01*
X114308985Y-81873677D01*
X114295303Y-81874643D01*
X114277459Y-81874936D01*
X114254261Y-81874493D01*
X114224517Y-81873248D01*
X114187033Y-81871137D01*
X114140616Y-81868095D01*
X114084075Y-81864057D01*
X114016216Y-81858958D01*
X113935846Y-81852734D01*
X113841773Y-81845320D01*
X113732804Y-81836651D01*
X113651882Y-81830189D01*
X113548920Y-81822010D01*
X113450647Y-81814296D01*
X113358400Y-81807147D01*
X113273518Y-81800663D01*
X113197339Y-81794942D01*
X113131199Y-81790085D01*
X113076438Y-81786189D01*
X113034393Y-81783356D01*
X113006402Y-81781683D01*
X112993803Y-81781270D01*
X112993412Y-81781306D01*
X112986478Y-81786092D01*
X112976974Y-81799551D01*
X112964210Y-81823065D01*
X112947498Y-81858013D01*
X112926146Y-81905778D01*
X112899465Y-81967739D01*
X112894894Y-81978501D01*
X112870446Y-82036119D01*
X112846631Y-82092212D01*
X112824748Y-82143722D01*
X112806094Y-82187593D01*
X112791969Y-82220767D01*
X112786198Y-82234290D01*
X112760099Y-82295347D01*
X113252766Y-82730422D01*
X113353118Y-82819198D01*
X113441161Y-82897427D01*
X113517429Y-82965599D01*
X113582455Y-83024204D01*
X113636771Y-83073733D01*
X113680912Y-83114676D01*
X113715410Y-83147523D01*
X113740799Y-83172764D01*
X113757612Y-83190889D01*
X113766382Y-83202389D01*
X113766600Y-83202765D01*
X113787767Y-83240034D01*
X113784826Y-83841167D01*
X113784158Y-83969824D01*
X113783458Y-84082674D01*
X113782671Y-84180845D01*
X113781743Y-84265463D01*
X113780620Y-84337654D01*
X113779247Y-84398546D01*
X113777569Y-84449266D01*
X113775531Y-84490940D01*
X113773081Y-84524695D01*
X113770162Y-84551658D01*
X113766720Y-84572956D01*
X113762702Y-84589715D01*
X113758052Y-84603062D01*
X113752715Y-84614125D01*
X113746990Y-84623500D01*
X113736841Y-84634588D01*
X113714675Y-84655734D01*
X113681443Y-84686108D01*
X113638092Y-84724874D01*
X113585571Y-84771200D01*
X113524829Y-84824252D01*
X113456815Y-84883197D01*
X113382477Y-84947203D01*
X113302765Y-85015435D01*
X113235710Y-85072549D01*
X113157250Y-85139293D01*
X113082484Y-85203010D01*
X113012426Y-85262831D01*
X112948090Y-85317883D01*
X112890489Y-85367295D01*
X112840638Y-85410197D01*
X112799549Y-85445717D01*
X112768237Y-85472984D01*
X112747716Y-85491127D01*
X112738999Y-85499275D01*
X112738820Y-85499501D01*
X112739637Y-85511063D01*
X112747413Y-85537971D01*
X112762154Y-85580240D01*
X112783866Y-85637888D01*
X112812554Y-85710932D01*
X112836034Y-85769362D01*
X112940793Y-86028172D01*
X112983280Y-86024380D01*
X112998619Y-86023248D01*
X113029409Y-86021186D01*
X113074198Y-86018285D01*
X113131534Y-86014635D01*
X113199965Y-86010328D01*
X113278039Y-86005455D01*
X113364306Y-86000107D01*
X113457312Y-85994374D01*
X113555606Y-85988349D01*
X113640386Y-85983176D01*
X113764073Y-85975715D01*
X113871854Y-85969367D01*
X113964717Y-85964090D01*
X114043650Y-85959841D01*
X114109642Y-85956575D01*
X114163680Y-85954251D01*
X114206753Y-85952825D01*
X114239848Y-85952253D01*
X114263953Y-85952493D01*
X114280057Y-85953501D01*
X114287923Y-85954853D01*
X114328915Y-85971834D01*
X114372309Y-86001321D01*
X114419782Y-86044558D01*
X114445167Y-86071276D01*
X114460592Y-86087684D01*
X114486715Y-86114933D01*
X114522351Y-86151806D01*
X114566313Y-86197083D01*
X114617413Y-86249547D01*
X114674464Y-86307980D01*
X114736280Y-86371162D01*
X114801673Y-86437875D01*
X114869456Y-86506901D01*
X114881231Y-86518879D01*
X114958309Y-86597318D01*
X115024372Y-86664687D01*
X115080306Y-86721961D01*
X115127000Y-86770111D01*
X115165341Y-86810112D01*
X115196219Y-86842937D01*
X115220520Y-86869559D01*
X115239133Y-86890951D01*
X115252945Y-86908087D01*
X115262845Y-86921940D01*
X115269721Y-86933484D01*
X115274461Y-86943691D01*
X115277952Y-86953535D01*
X115278040Y-86953811D01*
X115280693Y-86962630D01*
X115282884Y-86971712D01*
X115284548Y-86982243D01*
X115285620Y-86995411D01*
X115286034Y-87012400D01*
X115285726Y-87034397D01*
X115284631Y-87062590D01*
X115282684Y-87098162D01*
X115279820Y-87142302D01*
X115275974Y-87196195D01*
X115271080Y-87261028D01*
X115265075Y-87337987D01*
X115257892Y-87428257D01*
X115249468Y-87533026D01*
X115239736Y-87653479D01*
X115239676Y-87654220D01*
X115230915Y-87763811D01*
X115222882Y-87866782D01*
X115215657Y-87961992D01*
X115209317Y-88048297D01*
X115203941Y-88124553D01*
X115199607Y-88189618D01*
X115196396Y-88242347D01*
X115194384Y-88281598D01*
X115193651Y-88306227D01*
X115194234Y-88315063D01*
X115203424Y-88319719D01*
X115226506Y-88330238D01*
X115261782Y-88345878D01*
X115307553Y-88365897D01*
X115362118Y-88389554D01*
X115423779Y-88416106D01*
X115490836Y-88444812D01*
X115514967Y-88455102D01*
X115583517Y-88484404D01*
X115647272Y-88511843D01*
X115704531Y-88536670D01*
X115753589Y-88558141D01*
X115792746Y-88575509D01*
X115820298Y-88588028D01*
X115834545Y-88594950D01*
X115836063Y-88595903D01*
X115835294Y-88605836D01*
X115828058Y-88629629D01*
X115814924Y-88665743D01*
X115796459Y-88712638D01*
X115773235Y-88768772D01*
X115765245Y-88787603D01*
X115743065Y-88839497D01*
X115723136Y-88885933D01*
X115706401Y-88924731D01*
X115693802Y-88953711D01*
X115686282Y-88970693D01*
X115684566Y-88974260D01*
X115676265Y-88971913D01*
X115654204Y-88963455D01*
X115620110Y-88949633D01*
X115575705Y-88931194D01*
X115522714Y-88908886D01*
X115462861Y-88883454D01*
X115397870Y-88855647D01*
X115329465Y-88826211D01*
X115259370Y-88795894D01*
X115189308Y-88765442D01*
X115121005Y-88735603D01*
X115056184Y-88707123D01*
X114996569Y-88680750D01*
X114943885Y-88657230D01*
X114899854Y-88637312D01*
X114866202Y-88621741D01*
X114844652Y-88611265D01*
X114837457Y-88607192D01*
X114802595Y-88570443D01*
X114778303Y-88523146D01*
X114766385Y-88469245D01*
X114765474Y-88450121D01*
X114766120Y-88433116D01*
X114768051Y-88400669D01*
X114771160Y-88354214D01*
X114775339Y-88295187D01*
X114780484Y-88225022D01*
X114786486Y-88145152D01*
X114793239Y-88057014D01*
X114800636Y-87962040D01*
X114808571Y-87861666D01*
X114816937Y-87757326D01*
X114817762Y-87747120D01*
X114870243Y-87098006D01*
X114511768Y-86733237D01*
X114434881Y-86655124D01*
X114368914Y-86588404D01*
X114313034Y-86532279D01*
X114266411Y-86485952D01*
X114228210Y-86448624D01*
X114197601Y-86419497D01*
X114173751Y-86397773D01*
X114155828Y-86382655D01*
X114142999Y-86373345D01*
X114134433Y-86369044D01*
X114131397Y-86368523D01*
X114119515Y-86369045D01*
X114092125Y-86370538D01*
X114050616Y-86372919D01*
X113996381Y-86376103D01*
X113930810Y-86380009D01*
X113855295Y-86384552D01*
X113771226Y-86389650D01*
X113679997Y-86395219D01*
X113582996Y-86401176D01*
X113495667Y-86406567D01*
X113393462Y-86412839D01*
X113294817Y-86418789D01*
X113201250Y-86424333D01*
X113114280Y-86429384D01*
X113035423Y-86433858D01*
X112966197Y-86437670D01*
X112908122Y-86440734D01*
X112862714Y-86442966D01*
X112831492Y-86444279D01*
X112817879Y-86444612D01*
X112754802Y-86438151D01*
X112701117Y-86419030D01*
X112658134Y-86387819D01*
X112640984Y-86367746D01*
X112633413Y-86353852D01*
X112620260Y-86325803D01*
X112602197Y-86285180D01*
X112579899Y-86233562D01*
X112554036Y-86172530D01*
X112525282Y-86103664D01*
X112494311Y-86028546D01*
X112461793Y-85948756D01*
X112446028Y-85909742D01*
X112274471Y-85484039D01*
X112278625Y-85425970D01*
X112282971Y-85388646D01*
X112291096Y-85361053D01*
X112305190Y-85336060D01*
X112307140Y-85333248D01*
X112316294Y-85323090D01*
X112335252Y-85304810D01*
X112364266Y-85278189D01*
X112403591Y-85243006D01*
X112453482Y-85199042D01*
X112514194Y-85146076D01*
X112585979Y-85083889D01*
X112669094Y-85012260D01*
X112763791Y-84930970D01*
X112870326Y-84839798D01*
X112988952Y-84738524D01*
X113119925Y-84626929D01*
X113263498Y-84504792D01*
X113340280Y-84439539D01*
X113366928Y-84416901D01*
X113372237Y-83904667D01*
X113377546Y-83392434D01*
X112861604Y-82937300D01*
X112765028Y-82852113D01*
X112680342Y-82777335D01*
X112606767Y-82712144D01*
X112543523Y-82655715D01*
X112489830Y-82607225D01*
X112444909Y-82565851D01*
X112407979Y-82530768D01*
X112378261Y-82501152D01*
X112354975Y-82476180D01*
X112337341Y-82455028D01*
X112324581Y-82436872D01*
X112315912Y-82420888D01*
X112310557Y-82406253D01*
X112307736Y-82392143D01*
X112306667Y-82377734D01*
X112306573Y-82362202D01*
X112306665Y-82351034D01*
X112307109Y-82338910D01*
X112308669Y-82325923D01*
X112311870Y-82310684D01*
X112317240Y-82291807D01*
X112325306Y-82267905D01*
X112336596Y-82237591D01*
X112351636Y-82199477D01*
X112370953Y-82152178D01*
X112395075Y-82094306D01*
X112424529Y-82024473D01*
X112459842Y-81941294D01*
X112483651Y-81885367D01*
X112517960Y-81805199D01*
X112550940Y-81728847D01*
X112581882Y-81657906D01*
X112610077Y-81593970D01*
X112634815Y-81538634D01*
X112655387Y-81493491D01*
X112671083Y-81460136D01*
X112681194Y-81440163D01*
X112683491Y-81436314D01*
X112719895Y-81397050D01*
X112766795Y-81370597D01*
X112822963Y-81357546D01*
X112850037Y-81356200D01*
X112868011Y-81356871D01*
X112901392Y-81358810D01*
X112948707Y-81361912D01*
X113008486Y-81366067D01*
X113079257Y-81371169D01*
X113159549Y-81377110D01*
X113247891Y-81383783D01*
X113342812Y-81391080D01*
X113442840Y-81398893D01*
X113542355Y-81406785D01*
X114175629Y-81457369D01*
X114354231Y-81284123D01*
X114409236Y-81230740D01*
X114472597Y-81169198D01*
X114540547Y-81103162D01*
X114609318Y-81036294D01*
X114675141Y-80972256D01*
X114731234Y-80917648D01*
X114929634Y-80724419D01*
X114889789Y-80072993D01*
X114883434Y-79968558D01*
X114877397Y-79868308D01*
X114871757Y-79773634D01*
X114866596Y-79685929D01*
X114861992Y-79606585D01*
X114858027Y-79536994D01*
X114854779Y-79478549D01*
X114852329Y-79432641D01*
X114850758Y-79400662D01*
X114850144Y-79384006D01*
X114850139Y-79383013D01*
X114857240Y-79338994D01*
X114875943Y-79293929D01*
X114902975Y-79254247D01*
X114927254Y-79231518D01*
X114941166Y-79223934D01*
X114969227Y-79210771D01*
X115009853Y-79192704D01*
X115061456Y-79170409D01*
X115122451Y-79144561D01*
X115191252Y-79115835D01*
X115266273Y-79084907D01*
X115345927Y-79052451D01*
X115382781Y-79037560D01*
X115476172Y-78999977D01*
X115555264Y-78968303D01*
X115621434Y-78942042D01*
X115676058Y-78920696D01*
X115720513Y-78903770D01*
X115756175Y-78890767D01*
X115784420Y-78881191D01*
X115806626Y-78874546D01*
X115824168Y-78870335D01*
X115838423Y-78868061D01*
X115850767Y-78867228D01*
X115855220Y-78867186D01*
X115906000Y-78872778D01*
G37*
X115906000Y-78872778D02*
X115950517Y-78890385D01*
X115992783Y-78921883D01*
X116011210Y-78940108D01*
X116022985Y-78953189D01*
X116044761Y-78978068D01*
X116075585Y-79013633D01*
X116114500Y-79058771D01*
X116160553Y-79112369D01*
X116212789Y-79173314D01*
X116270253Y-79240495D01*
X116331989Y-79312799D01*
X116397045Y-79389112D01*
X116463053Y-79466664D01*
X116529488Y-79544669D01*
X116592864Y-79618871D01*
X116652309Y-79688265D01*
X116706956Y-79751844D01*
X116755932Y-79808604D01*
X116798369Y-79857537D01*
X116833396Y-79897639D01*
X116860143Y-79927904D01*
X116877741Y-79947325D01*
X116885319Y-79954898D01*
X116885443Y-79954956D01*
X116895427Y-79955549D01*
X116920838Y-79956236D01*
X116960168Y-79956995D01*
X117011912Y-79957807D01*
X117074563Y-79958651D01*
X117146613Y-79959506D01*
X117226558Y-79960353D01*
X117312889Y-79961170D01*
X117399080Y-79961899D01*
X117903127Y-79965913D01*
X118355814Y-79453680D01*
X118447420Y-79350202D01*
X118528421Y-79259096D01*
X118599248Y-79179889D01*
X118660334Y-79112113D01*
X118712110Y-79055295D01*
X118755008Y-79008966D01*
X118789461Y-78972654D01*
X118815900Y-78945890D01*
X118834758Y-78928202D01*
X118846466Y-78919120D01*
X118846600Y-78919041D01*
X118871406Y-78906340D01*
X118895405Y-78899629D01*
X118925747Y-78897310D01*
X118943966Y-78897280D01*
X118957597Y-78897610D01*
X118970818Y-78898647D01*
X118985072Y-78900929D01*
X119001799Y-78904994D01*
X119022442Y-78911382D01*
X119048442Y-78920630D01*
X119081240Y-78933278D01*
X119122278Y-78949863D01*
X119172998Y-78970924D01*
X119234840Y-78996999D01*
X119309247Y-79028628D01*
X119397660Y-79066349D01*
X119405400Y-79069653D01*
X119483927Y-79103221D01*
X119558365Y-79135110D01*
X119627138Y-79164640D01*
X119688669Y-79191132D01*
X119741382Y-79213905D01*
X119783701Y-79232280D01*
X119814050Y-79245575D01*
X119830853Y-79253112D01*
X119832966Y-79254124D01*
X119878677Y-79286103D01*
X119914641Y-79329630D01*
X119937889Y-79380737D01*
X119942678Y-79400794D01*
X119942829Y-79413667D01*
X119941658Y-79442079D01*
X119939260Y-79484696D01*
X119935729Y-79540183D01*
X119931159Y-79607204D01*
X119925643Y-79684426D01*
X119919276Y-79770513D01*
X119912153Y-79864131D01*
X119904366Y-79963945D01*
X119896011Y-80068620D01*
X119892910Y-80106893D01*
X119837850Y-80783752D01*
X119881733Y-80830793D01*
X119896144Y-80845908D01*
X119921141Y-80871748D01*
X119955421Y-80906980D01*
X119997679Y-80950271D01*
X120046613Y-81000287D01*
X120100920Y-81055696D01*
X120159296Y-81115165D01*
X120220439Y-81177361D01*
X120241515Y-81198779D01*
X120557413Y-81519725D01*
X121213700Y-81479335D01*
X121318977Y-81472941D01*
X121420408Y-81466948D01*
X121516568Y-81461427D01*
X121606028Y-81456455D01*
X121687362Y-81452105D01*
X121759142Y-81448452D01*
X121819941Y-81445569D01*
X121868332Y-81443532D01*
X121902887Y-81442415D01*
X121922180Y-81442291D01*
X121923640Y-81442361D01*
X121979709Y-81453323D01*
X122027238Y-81478818D01*
X122066787Y-81518851D01*
X122073949Y-81531900D01*
X122086714Y-81559110D01*
X122104413Y-81598911D01*
X122126379Y-81649733D01*
X122151941Y-81710008D01*
X122180432Y-81778167D01*
X122211182Y-81852640D01*
X122243524Y-81931858D01*
X122257972Y-81967530D01*
X122295245Y-82059863D01*
X122326641Y-82137922D01*
X122352664Y-82203122D01*
X122373816Y-82256874D01*
X122390599Y-82300592D01*
X122403517Y-82335688D01*
X122413072Y-82363575D01*
X122419766Y-82385666D01*
X122424104Y-82403374D01*
X122426586Y-82418111D01*
X122427717Y-82431290D01*
X122427999Y-82444324D01*
X122428000Y-82445340D01*
X122428106Y-82462654D01*
X122427894Y-82478085D01*
X122426569Y-82492453D01*
X122423336Y-82506572D01*
X122417400Y-82521262D01*
X122407965Y-82537338D01*
X122394235Y-82555619D01*
X122375417Y-82576922D01*
X122350714Y-82602064D01*
X122319332Y-82631862D01*
X122280475Y-82667134D01*
X122233348Y-82708697D01*
X122177156Y-82757369D01*
X122111103Y-82813965D01*
X122034394Y-82879305D01*
X121946235Y-82954205D01*
X121869374Y-83019480D01*
X121345801Y-83464231D01*
X121340921Y-83534166D01*
X121339922Y-83556281D01*
X121338890Y-83593417D01*
X121337855Y-83643662D01*
X121336843Y-83705102D01*
X121335884Y-83775825D01*
X121335003Y-83853918D01*
X121334231Y-83937470D01*
X121333593Y-84024567D01*
X121333452Y-84047682D01*
X121330862Y-84491263D01*
X121840406Y-84942543D01*
X121920107Y-85013240D01*
X121996392Y-85081121D01*
X122068271Y-85145292D01*
X122134753Y-85204858D01*
X122194845Y-85258924D01*
X122247559Y-85306595D01*
X122291901Y-85346977D01*
X122326881Y-85379174D01*
X122351509Y-85402293D01*
X122364793Y-85415439D01*
X122366633Y-85417594D01*
X122391048Y-85466599D01*
X122401245Y-85521855D01*
X122400662Y-85550266D01*
X122397739Y-85565541D01*
X122390766Y-85588983D01*
X122379354Y-85621580D01*
X122363113Y-85664320D01*
X122341655Y-85718194D01*
X122314591Y-85784189D01*
X122281532Y-85863294D01*
X122242088Y-85956498D01*
X122225688Y-85995011D01*
X122192077Y-86073716D01*
X122160028Y-86148534D01*
X122130237Y-86217857D01*
X122103402Y-86280072D01*
X122080219Y-86333570D01*
X122061385Y-86376741D01*
X122047595Y-86407973D01*
X122039547Y-86425656D01*
X122038467Y-86427863D01*
X122006698Y-86472427D01*
X121963774Y-86504980D01*
X121911351Y-86524583D01*
X121857622Y-86530377D01*
X121840902Y-86529698D01*
X121808743Y-86527737D01*
X121762581Y-86524601D01*
X121703853Y-86520398D01*
X121633995Y-86515235D01*
X121554443Y-86509221D01*
X121466635Y-86502462D01*
X121372007Y-86495067D01*
X121271996Y-86487142D01*
X121168038Y-86478795D01*
X121162300Y-86478331D01*
X121040542Y-86468524D01*
X120934569Y-86460086D01*
X120843293Y-86452950D01*
X120765628Y-86447050D01*
X120700487Y-86442318D01*
X120646781Y-86438688D01*
X120603425Y-86436092D01*
X120569330Y-86434464D01*
X120543410Y-86433736D01*
X120524577Y-86433842D01*
X120511744Y-86434715D01*
X120503824Y-86436287D01*
X120500879Y-86437600D01*
X120491689Y-86445482D01*
X120471588Y-86464187D01*
X120441702Y-86492627D01*
X120403155Y-86529713D01*
X120357071Y-86574356D01*
X120304575Y-86625468D01*
X120246790Y-86681959D01*
X120184843Y-86742741D01*
X120129781Y-86796938D01*
X119776706Y-87144975D01*
X119818982Y-87828478D01*
X119826975Y-87957329D01*
X119833971Y-88070397D01*
X119839938Y-88168805D01*
X119844845Y-88253676D01*
X119848659Y-88326132D01*
X119851348Y-88387297D01*
X119852881Y-88438293D01*
X119853226Y-88480243D01*
X119852349Y-88514270D01*
X119850221Y-88541497D01*
X119846808Y-88563047D01*
X119842079Y-88580041D01*
X119836002Y-88593605D01*
X119828544Y-88604859D01*
X119819675Y-88614927D01*
X119809361Y-88624933D01*
X119797572Y-88635998D01*
X119795969Y-88637534D01*
X119786041Y-88646590D01*
X119774947Y-88655280D01*
X119761259Y-88664250D01*
X119743548Y-88674147D01*
X119720387Y-88685617D01*
X119690348Y-88699306D01*
X119652004Y-88715860D01*
X119603925Y-88735926D01*
X119544684Y-88760150D01*
X119472853Y-88789178D01*
X119387005Y-88823656D01*
X119367113Y-88831629D01*
X119293368Y-88861428D01*
X119217119Y-88892755D01*
X119137205Y-88926114D01*
X119052464Y-88962015D01*
X118961734Y-89000965D01*
X118863853Y-89043469D01*
X118757660Y-89090037D01*
X118641992Y-89141175D01*
X118515687Y-89197391D01*
X118377584Y-89259191D01*
X118226520Y-89327084D01*
X118061334Y-89401575D01*
X118050733Y-89406363D01*
X117855253Y-89494488D01*
X117673074Y-89576275D01*
X117504370Y-89651647D01*
X117349312Y-89720532D01*
X117208073Y-89782852D01*
X117080828Y-89838533D01*
X116967749Y-89887501D01*
X116869008Y-89929680D01*
X116784780Y-89964995D01*
X116715236Y-89993370D01*
X116660549Y-90014732D01*
X116620894Y-90029005D01*
X116602814Y-90034566D01*
X116581311Y-90039182D01*
X116559802Y-90040648D01*
X116536265Y-90038308D01*
X116508676Y-90031504D01*
X116475011Y-90019577D01*
X116433248Y-90001871D01*
X116381361Y-89977728D01*
X116317330Y-89946491D01*
X116289866Y-89932859D01*
X116229281Y-89902767D01*
X116182012Y-89879574D01*
X116146248Y-89862565D01*
X116120180Y-89851026D01*
X116101998Y-89844243D01*
X116089893Y-89841502D01*
X116082053Y-89842087D01*
X116076670Y-89845285D01*
X116074239Y-89847745D01*
X116070525Y-89853105D01*
X116069073Y-89860198D01*
X116070600Y-89870813D01*
X116075821Y-89886738D01*
X116085455Y-89909763D01*
X116100218Y-89941675D01*
X116120828Y-89984262D01*
X116148000Y-90039314D01*
X116163725Y-90070973D01*
X116194512Y-90133083D01*
X116218509Y-90182184D01*
X116236555Y-90220384D01*
X116249494Y-90249788D01*
X116258168Y-90272504D01*
X116263417Y-90290638D01*
X116266085Y-90306296D01*
X116267014Y-90321586D01*
X116267089Y-90329594D01*
X116266982Y-90347557D01*
X116265986Y-90362638D01*
X116263084Y-90377458D01*
X116257262Y-90394637D01*
X116247505Y-90416793D01*
X116232797Y-90446548D01*
X116212123Y-90486521D01*
X116189652Y-90529439D01*
X116144448Y-90625355D01*
X116107643Y-90725878D01*
X116090210Y-90784762D01*
X116078825Y-90821776D01*
X116066156Y-90856229D01*
X116054513Y-90881988D01*
X116051875Y-90886607D01*
X116038918Y-90905169D01*
X116023396Y-90921656D01*
X116003405Y-90937022D01*
X115977040Y-90952222D01*
X115942396Y-90968211D01*
X115897568Y-90985943D01*
X115840652Y-91006374D01*
X115769743Y-91030457D01*
X115755200Y-91035302D01*
X115691484Y-91056550D01*
X115642074Y-91073299D01*
X115605185Y-91086323D01*
X115579033Y-91096398D01*
X115561831Y-91104302D01*
X115551797Y-91110809D01*
X115547144Y-91116696D01*
X115546089Y-91122738D01*
X115546358Y-91126102D01*
X115548168Y-91132625D01*
X115553131Y-91138908D01*
X115563037Y-91145718D01*
X115579680Y-91153826D01*
X115604850Y-91163999D01*
X115640338Y-91177005D01*
X115687937Y-91193614D01*
X115749438Y-91214594D01*
X115764733Y-91219778D01*
X115832257Y-91242486D01*
X115887834Y-91261610D01*
X115933230Y-91278922D01*
X115970208Y-91296196D01*
X116000532Y-91315204D01*
X116025965Y-91337720D01*
X116048271Y-91365518D01*
X116069214Y-91400369D01*
X116090557Y-91444048D01*
X116114065Y-91498328D01*
X116141501Y-91564981D01*
X116164843Y-91622034D01*
X116196213Y-91697913D01*
X116221771Y-91760377D01*
X116241519Y-91811912D01*
X116255455Y-91855008D01*
X116263580Y-91892153D01*
X116265893Y-91925836D01*
X116262395Y-91958546D01*
X116253086Y-91992771D01*
X116237964Y-92031000D01*
X116217031Y-92075721D01*
X116190286Y-92129423D01*
X116164818Y-92180296D01*
X116134408Y-92241550D01*
X116110857Y-92289452D01*
X116093468Y-92325805D01*
X116081542Y-92352408D01*
X116074381Y-92371065D01*
X116071286Y-92383576D01*
X116071559Y-92391742D01*
X116074501Y-92397365D01*
X116078938Y-92401816D01*
X116084375Y-92406024D01*
X116090861Y-92408201D01*
X116100194Y-92407643D01*
X116114169Y-92403642D01*
X116134583Y-92395494D01*
X116163232Y-92382491D01*
X116201912Y-92363928D01*
X116252419Y-92339098D01*
X116305840Y-92312613D01*
X116367246Y-92281865D01*
X116417822Y-92256794D01*
X116460037Y-92237413D01*
X116496356Y-92223734D01*
X116529246Y-92215770D01*
X116561176Y-92213533D01*
X116594611Y-92217035D01*
X116632018Y-92226290D01*
X116675865Y-92241310D01*
X116728619Y-92262106D01*
X116792746Y-92288692D01*
X116856933Y-92315394D01*
X116932787Y-92347008D01*
X116994578Y-92373478D01*
X117044047Y-92395747D01*
X117082931Y-92414762D01*
X117112968Y-92431469D01*
X117135898Y-92446814D01*
X117153458Y-92461741D01*
X117167387Y-92477196D01*
X117175982Y-92488946D01*
X117183682Y-92504300D01*
X117195644Y-92533252D01*
X117210930Y-92573286D01*
X117228599Y-92621886D01*
X117247710Y-92676536D01*
X117263470Y-92723110D01*
X117284509Y-92786060D01*
X117301046Y-92834758D01*
X117313889Y-92871033D01*
X117323849Y-92896712D01*
X117331735Y-92913622D01*
X117338357Y-92923590D01*
X117344523Y-92928444D01*
X117351045Y-92930011D01*
X117355189Y-92930134D01*
X117362361Y-92929610D01*
X117368679Y-92926800D01*
X117374968Y-92919847D01*
X117382049Y-92906896D01*
X117390746Y-92886088D01*
X117401882Y-92855567D01*
X117416279Y-92813477D01*
X117434761Y-92757960D01*
X117444317Y-92729050D01*
X117468987Y-92655297D01*
X117489710Y-92595911D01*
X117507367Y-92549030D01*
X117522840Y-92512790D01*
X117537011Y-92485329D01*
X117550760Y-92464785D01*
X117564969Y-92449293D01*
X117580519Y-92436992D01*
X117583418Y-92435046D01*
X117599058Y-92426592D01*
X117628095Y-92412678D01*
X117668276Y-92394315D01*
X117717348Y-92372511D01*
X117773058Y-92348277D01*
X117833155Y-92322622D01*
X117851767Y-92314772D01*
X117927334Y-92282855D01*
X117989627Y-92256965D01*
X118041197Y-92237109D01*
X118084596Y-92223292D01*
X118122377Y-92215519D01*
X118157090Y-92213796D01*
X118191288Y-92218129D01*
X118227523Y-92228523D01*
X118268346Y-92244984D01*
X118316309Y-92267517D01*
X118373964Y-92296128D01*
X118413839Y-92316000D01*
X118484221Y-92351001D01*
X118540350Y-92378311D01*
X118582971Y-92397130D01*
X118612827Y-92406659D01*
X118630662Y-92406100D01*
X118637221Y-92394654D01*
X118633247Y-92371521D01*
X118619484Y-92335904D01*
X118596677Y-92287004D01*
X118565569Y-92224021D01*
X118542561Y-92177793D01*
X118438074Y-91967337D01*
X118441907Y-91913219D01*
X118444026Y-91894902D01*
X118448335Y-91874049D01*
X118455523Y-91848694D01*
X118466279Y-91816869D01*
X118481292Y-91776606D01*
X118501252Y-91725938D01*
X118526848Y-91662898D01*
X118545411Y-91617801D01*
X118576874Y-91542150D01*
X118603086Y-91480592D01*
X118624950Y-91431446D01*
X118643371Y-91393032D01*
X118659253Y-91363666D01*
X118673499Y-91341667D01*
X118687014Y-91325355D01*
X118700701Y-91313048D01*
X118714231Y-91303813D01*
X118729363Y-91296771D01*
X118758115Y-91285405D01*
X118798003Y-91270618D01*
X118846540Y-91253317D01*
X118901242Y-91234405D01*
X118950316Y-91217877D01*
X119013698Y-91196733D01*
X119062815Y-91180092D01*
X119099485Y-91167153D01*
X119125525Y-91157115D01*
X119142751Y-91149177D01*
X119152980Y-91142537D01*
X119158028Y-91136393D01*
X119159714Y-91129945D01*
X119159866Y-91125448D01*
X119159353Y-91118410D01*
X119156602Y-91112173D01*
X119149796Y-91105936D01*
X119137119Y-91098898D01*
X119116753Y-91090258D01*
X119086882Y-91079215D01*
X119045688Y-91064968D01*
X118991355Y-91046715D01*
X118950316Y-91033050D01*
X118887735Y-91011767D01*
X118830639Y-90991445D01*
X118781356Y-90972973D01*
X118742212Y-90957239D01*
X118715534Y-90945129D01*
X118706580Y-90940042D01*
X118693699Y-90930487D01*
X118681858Y-90919396D01*
X118670217Y-90905138D01*
X118657940Y-90886084D01*
X118644188Y-90860605D01*
X118628123Y-90827070D01*
X118608908Y-90783851D01*
X118585704Y-90729316D01*
X118557674Y-90661838D01*
X118534333Y-90605056D01*
X118506513Y-90536832D01*
X118484652Y-90482165D01*
X118468064Y-90439039D01*
X118456063Y-90405435D01*
X118447964Y-90379336D01*
X118443080Y-90358724D01*
X118440725Y-90341582D01*
X118440200Y-90328231D01*
X118440618Y-90314942D01*
X118442361Y-90301389D01*
X118446160Y-90285850D01*
X118452746Y-90266606D01*
X118462850Y-90241934D01*
X118477205Y-90210115D01*
X118496541Y-90169427D01*
X118521591Y-90118149D01*
X118553084Y-90054561D01*
X118576527Y-90007476D01*
X118607875Y-89944646D01*
X118636817Y-89886758D01*
X118662492Y-89835524D01*
X118684040Y-89792654D01*
X118700602Y-89759860D01*
X118711317Y-89738852D01*
X118715313Y-89731354D01*
X118722983Y-89734384D01*
X118743259Y-89743753D01*
X118773609Y-89758216D01*
X118811500Y-89776526D01*
X118854399Y-89797438D01*
X118899773Y-89819704D01*
X118945090Y-89842080D01*
X118987817Y-89863318D01*
X119025421Y-89882172D01*
X119055369Y-89897397D01*
X119075130Y-89907746D01*
X119082042Y-89911795D01*
X119079087Y-89919667D01*
X119069443Y-89940719D01*
X119054047Y-89973009D01*
X119033835Y-90014598D01*
X119009745Y-90063545D01*
X118982712Y-90117910D01*
X118978644Y-90126046D01*
X118872638Y-90337929D01*
X118982964Y-90606559D01*
X119218891Y-90685033D01*
X119295413Y-90710741D01*
X119357582Y-90732407D01*
X119407226Y-90750971D01*
X119446177Y-90767371D01*
X119476263Y-90782548D01*
X119499315Y-90797441D01*
X119517162Y-90812990D01*
X119531635Y-90830134D01*
X119544563Y-90849813D01*
X119546650Y-90853327D01*
X119570500Y-90893901D01*
X119573243Y-91105567D01*
X119573860Y-91187794D01*
X119573355Y-91253462D01*
X119571720Y-91302907D01*
X119568943Y-91336467D01*
X119566198Y-91351101D01*
X119545170Y-91399615D01*
X119513668Y-91441108D01*
X119477961Y-91469200D01*
X119460876Y-91477025D01*
X119430155Y-91489130D01*
X119388285Y-91504616D01*
X119337750Y-91522583D01*
X119281037Y-91542131D01*
X119220633Y-91562361D01*
X119219133Y-91562856D01*
X119160484Y-91582334D01*
X119107068Y-91600335D01*
X119061012Y-91616121D01*
X119024439Y-91628956D01*
X118999476Y-91638102D01*
X118988247Y-91642823D01*
X118987936Y-91643046D01*
X118982575Y-91652591D01*
X118972050Y-91675104D01*
X118957569Y-91707866D01*
X118940340Y-91748156D01*
X118926421Y-91781486D01*
X118871738Y-91913730D01*
X118987250Y-92144633D01*
X119020040Y-92210337D01*
X119045979Y-92262893D01*
X119065870Y-92304257D01*
X119080517Y-92336386D01*
X119090725Y-92361234D01*
X119097298Y-92380760D01*
X119101040Y-92396917D01*
X119102754Y-92411663D01*
X119103245Y-92426798D01*
X119102514Y-92453547D01*
X119098940Y-92477699D01*
X119091254Y-92501126D01*
X119078191Y-92525704D01*
X119058485Y-92553304D01*
X119030870Y-92585801D01*
X118994078Y-92625068D01*
X118946844Y-92672979D01*
X118916347Y-92703304D01*
X118869385Y-92749658D01*
X118832483Y-92785529D01*
X118803769Y-92812450D01*
X118781369Y-92831952D01*
X118763410Y-92845566D01*
X118748018Y-92854823D01*
X118733321Y-92861255D01*
X118717445Y-92866393D01*
X118716517Y-92866664D01*
X118664036Y-92876577D01*
X118629165Y-92875313D01*
X118609591Y-92869574D01*
X118576545Y-92856495D01*
X118531485Y-92836731D01*
X118475868Y-92810934D01*
X118411152Y-92779757D01*
X118365400Y-92757166D01*
X118139633Y-92644717D01*
X117869935Y-92757209D01*
X117791220Y-92993183D01*
X117770277Y-93054845D01*
X117749952Y-93112607D01*
X117731127Y-93164120D01*
X117714684Y-93207032D01*
X117701505Y-93238994D01*
X117692472Y-93257655D01*
X117691256Y-93259562D01*
X117655505Y-93297939D01*
X117610768Y-93326655D01*
X117584262Y-93336765D01*
X117565161Y-93339657D01*
X117532446Y-93341863D01*
X117489088Y-93343406D01*
X117438056Y-93344304D01*
X117382320Y-93344580D01*
X117324850Y-93344255D01*
X117268615Y-93343350D01*
X117216585Y-93341886D01*
X117171729Y-93339884D01*
X117137019Y-93337366D01*
X117115422Y-93334351D01*
X117112094Y-93333408D01*
X117075968Y-93314275D01*
X117040316Y-93285401D01*
X117011532Y-93252408D01*
X117001884Y-93236467D01*
X116995126Y-93220318D01*
X116983975Y-93190503D01*
X116969288Y-93149455D01*
X116951921Y-93099607D01*
X116932734Y-93043392D01*
X116912582Y-92983242D01*
X116911641Y-92980406D01*
X116837062Y-92755511D01*
X116565832Y-92643825D01*
X116336733Y-92758798D01*
X116271622Y-92791417D01*
X116219641Y-92817205D01*
X116178809Y-92836966D01*
X116147141Y-92851504D01*
X116122655Y-92861624D01*
X116103367Y-92868130D01*
X116087294Y-92871826D01*
X116072453Y-92873517D01*
X116056861Y-92874006D01*
X116052600Y-92874036D01*
X116023979Y-92872915D01*
X115997754Y-92868413D01*
X115972024Y-92859261D01*
X115944889Y-92844188D01*
X115914448Y-92821922D01*
X115878800Y-92791193D01*
X115836046Y-92750731D01*
X115784283Y-92699264D01*
X115770835Y-92685668D01*
X115720301Y-92633944D01*
X115680783Y-92591824D01*
X115651029Y-92557241D01*
X115629783Y-92528133D01*
X115615790Y-92502434D01*
X115607795Y-92478080D01*
X115604544Y-92453007D01*
X115604781Y-92425151D01*
X115605504Y-92413687D01*
X115607314Y-92397262D01*
X115610885Y-92380006D01*
X115617050Y-92359930D01*
X115626642Y-92335046D01*
X115640491Y-92303364D01*
X115659431Y-92262896D01*
X115684293Y-92211654D01*
X115715910Y-92147647D01*
X115721656Y-92136079D01*
X115834092Y-91909835D01*
X115781846Y-91782868D01*
X115763555Y-91739284D01*
X115746787Y-91700935D01*
X115732859Y-91670708D01*
X115723086Y-91651490D01*
X115719650Y-91646332D01*
X115709318Y-91641303D01*
X115684999Y-91631787D01*
X115648809Y-91618539D01*
X115602863Y-91602317D01*
X115549276Y-91583875D01*
X115490164Y-91563969D01*
X115475898Y-91559226D01*
X115400168Y-91533853D01*
X115338793Y-91512457D01*
X115289940Y-91494038D01*
X115251780Y-91477591D01*
X115222481Y-91462116D01*
X115200214Y-91446609D01*
X115183147Y-91430068D01*
X115169450Y-91411491D01*
X115157293Y-91389875D01*
X115153761Y-91382828D01*
X115147751Y-91370036D01*
X115143100Y-91357536D01*
X115139632Y-91343043D01*
X115137175Y-91324274D01*
X115135555Y-91298946D01*
X115134597Y-91264775D01*
X115134130Y-91219476D01*
X115133978Y-91160767D01*
X115133967Y-91122501D01*
X115133967Y-90902367D01*
X115159251Y-90856713D01*
X115181662Y-90823744D01*
X115207686Y-90796508D01*
X115217529Y-90788980D01*
X115234120Y-90780540D01*
X115264388Y-90767800D01*
X115305898Y-90751678D01*
X115356217Y-90733090D01*
X115412914Y-90712956D01*
X115473553Y-90692192D01*
X115479016Y-90690359D01*
X115707509Y-90613818D01*
X115734792Y-90537959D01*
X115751819Y-90493031D01*
X115771993Y-90443327D01*
X115791414Y-90398405D01*
X115794536Y-90391548D01*
X115826999Y-90320996D01*
X115715148Y-90095215D01*
X115682930Y-90029979D01*
X115657543Y-89977901D01*
X115638184Y-89937022D01*
X115624052Y-89905385D01*
X115614347Y-89881032D01*
X115608265Y-89862003D01*
X115605005Y-89846341D01*
X115603767Y-89832088D01*
X115603664Y-89822867D01*
X115605111Y-89795073D01*
X115609843Y-89769571D01*
X115619148Y-89744467D01*
X115634315Y-89717865D01*
X115656630Y-89687871D01*
X115687382Y-89652588D01*
X115727859Y-89610122D01*
X115779348Y-89558578D01*
X115791197Y-89546899D01*
X115844485Y-89494625D01*
X115889591Y-89452018D01*
X115928722Y-89418863D01*
X115964083Y-89394945D01*
X115997880Y-89380049D01*
X116032320Y-89373960D01*
X116069608Y-89376463D01*
X116111952Y-89387343D01*
X116161555Y-89406386D01*
X116220626Y-89433375D01*
X116291369Y-89468096D01*
X116341730Y-89493246D01*
X116567154Y-89605863D01*
X116731094Y-89539260D01*
X116760169Y-89527091D01*
X116803498Y-89508449D01*
X116859910Y-89483854D01*
X116928236Y-89453825D01*
X117007308Y-89418884D01*
X117095957Y-89379549D01*
X117193013Y-89336342D01*
X117297307Y-89289782D01*
X117407671Y-89240389D01*
X117522935Y-89188683D01*
X117641931Y-89135185D01*
X117763488Y-89080414D01*
X117830600Y-89050123D01*
X118018023Y-88965666D01*
X118194133Y-88886693D01*
X118358455Y-88813412D01*
X118510518Y-88746031D01*
X118649848Y-88684758D01*
X118775972Y-88629799D01*
X118888417Y-88581363D01*
X118986711Y-88539658D01*
X119070380Y-88504890D01*
X119102832Y-88491685D01*
X119439497Y-88355781D01*
X119434826Y-88304041D01*
X119433028Y-88281190D01*
X119430400Y-88243698D01*
X119427049Y-88193329D01*
X119423080Y-88131853D01*
X119418599Y-88061034D01*
X119413713Y-87982642D01*
X119408527Y-87898442D01*
X119403146Y-87810203D01*
X119397678Y-87719690D01*
X119392228Y-87628671D01*
X119386901Y-87538914D01*
X119381803Y-87452185D01*
X119377042Y-87370252D01*
X119372721Y-87294880D01*
X119368948Y-87227839D01*
X119365828Y-87170894D01*
X119363467Y-87125813D01*
X119361971Y-87094363D01*
X119361458Y-87079667D01*
X119363929Y-87025886D01*
X119373558Y-86984790D01*
X119375318Y-86980324D01*
X119380870Y-86970687D01*
X119391734Y-86956361D01*
X119408592Y-86936645D01*
X119432124Y-86910835D01*
X119463014Y-86878233D01*
X119501942Y-86838134D01*
X119549590Y-86789838D01*
X119606640Y-86732644D01*
X119673774Y-86665850D01*
X119751672Y-86588753D01*
X119841017Y-86500653D01*
X119848646Y-86493142D01*
X119933459Y-86409858D01*
X120012196Y-86332966D01*
X120084160Y-86263129D01*
X120148652Y-86201014D01*
X120204974Y-86147283D01*
X120252427Y-86102602D01*
X120290313Y-86067636D01*
X120317935Y-86043048D01*
X120334592Y-86029504D01*
X120338174Y-86027258D01*
X120365024Y-86016359D01*
X120390228Y-86008654D01*
X120393207Y-86008012D01*
X120405353Y-86007925D01*
X120433007Y-86009144D01*
X120474801Y-86011571D01*
X120529366Y-86015111D01*
X120595336Y-86019667D01*
X120671343Y-86025142D01*
X120756018Y-86031440D01*
X120847995Y-86038462D01*
X120945906Y-86046114D01*
X121048382Y-86054298D01*
X121052809Y-86054655D01*
X121155350Y-86062914D01*
X121253305Y-86070755D01*
X121345313Y-86078074D01*
X121430018Y-86084764D01*
X121506060Y-86090720D01*
X121572082Y-86095835D01*
X121626725Y-86100004D01*
X121668630Y-86103122D01*
X121696440Y-86105081D01*
X121708795Y-86105777D01*
X121708976Y-86105777D01*
X121715021Y-86104690D01*
X121721252Y-86100529D01*
X121728448Y-86091742D01*
X121737388Y-86076779D01*
X121748851Y-86054088D01*
X121763618Y-86022117D01*
X121782466Y-85979315D01*
X121806175Y-85924131D01*
X121835525Y-85855012D01*
X121838738Y-85847421D01*
X121864751Y-85785640D01*
X121888345Y-85728999D01*
X121908775Y-85679334D01*
X121925297Y-85638482D01*
X121937166Y-85608278D01*
X121943637Y-85590558D01*
X121944571Y-85586574D01*
X121934468Y-85577965D01*
X121913158Y-85559381D01*
X121881833Y-85531879D01*
X121841686Y-85496518D01*
X121793911Y-85454356D01*
X121739698Y-85406450D01*
X121680242Y-85353858D01*
X121616736Y-85297639D01*
X121550371Y-85238849D01*
X121482341Y-85178548D01*
X121413839Y-85117792D01*
X121346056Y-85057641D01*
X121280187Y-84999150D01*
X121217424Y-84943380D01*
X121158959Y-84891386D01*
X121105985Y-84844228D01*
X121059696Y-84802964D01*
X121021283Y-84768650D01*
X120991940Y-84742345D01*
X120972859Y-84725107D01*
X120965234Y-84717994D01*
X120965192Y-84717945D01*
X120954540Y-84702456D01*
X120940791Y-84679473D01*
X120936028Y-84670901D01*
X120931843Y-84662902D01*
X120928357Y-84654661D01*
X120925515Y-84644668D01*
X120923264Y-84631409D01*
X120921552Y-84613374D01*
X120920324Y-84589051D01*
X120919527Y-84556927D01*
X120919108Y-84515492D01*
X120919013Y-84463233D01*
X120919189Y-84398639D01*
X120919582Y-84320198D01*
X120920139Y-84226398D01*
X120920164Y-84222167D01*
X120920827Y-84128561D01*
X120921687Y-84030747D01*
X120922706Y-83931945D01*
X120923843Y-83835371D01*
X120925060Y-83744243D01*
X120926318Y-83661780D01*
X120927577Y-83591199D01*
X120928279Y-83557534D01*
X120929922Y-83485856D01*
X120931408Y-83429038D01*
X120932927Y-83385011D01*
X120934667Y-83351705D01*
X120936821Y-83327051D01*
X120939576Y-83308978D01*
X120943123Y-83295417D01*
X120947652Y-83284300D01*
X120953353Y-83273555D01*
X120954518Y-83271500D01*
X120962371Y-83261046D01*
X120977445Y-83244948D01*
X121000365Y-83222651D01*
X121031755Y-83193603D01*
X121072240Y-83157250D01*
X121122445Y-83113039D01*
X121182995Y-83060417D01*
X121254513Y-82998831D01*
X121337625Y-82927727D01*
X121432956Y-82846551D01*
X121465937Y-82818534D01*
X121544601Y-82751759D01*
X121619665Y-82688070D01*
X121690109Y-82628333D01*
X121754911Y-82573412D01*
X121813048Y-82524173D01*
X121863500Y-82481480D01*
X121905243Y-82446198D01*
X121937257Y-82419194D01*
X121958519Y-82401331D01*
X121968008Y-82393475D01*
X121968283Y-82393263D01*
X121970502Y-82388199D01*
X121969554Y-82377409D01*
X121964931Y-82359432D01*
X121956127Y-82332806D01*
X121942633Y-82296069D01*
X121923941Y-82247759D01*
X121899543Y-82186414D01*
X121877125Y-82130797D01*
X121852039Y-82068944D01*
X121828831Y-82011994D01*
X121808297Y-81961882D01*
X121791236Y-81920543D01*
X121778445Y-81889915D01*
X121770722Y-81871932D01*
X121768878Y-81868057D01*
X121760346Y-81866650D01*
X121737052Y-81866412D01*
X121698734Y-81867353D01*
X121645133Y-81869488D01*
X121575986Y-81872829D01*
X121491032Y-81877389D01*
X121390010Y-81883180D01*
X121272660Y-81890216D01*
X121138719Y-81898508D01*
X121119900Y-81899690D01*
X121016256Y-81906123D01*
X120916901Y-81912123D01*
X120823223Y-81917615D01*
X120736610Y-81922526D01*
X120658451Y-81926783D01*
X120590134Y-81930311D01*
X120533049Y-81933038D01*
X120488584Y-81934889D01*
X120458127Y-81935790D01*
X120443067Y-81935669D01*
X120442566Y-81935613D01*
X120413123Y-81928103D01*
X120382025Y-81915096D01*
X120374833Y-81911160D01*
X120363479Y-81901977D01*
X120341302Y-81881679D01*
X120309312Y-81851263D01*
X120268521Y-81811724D01*
X120219939Y-81764061D01*
X120164578Y-81709268D01*
X120103449Y-81648342D01*
X120037562Y-81582280D01*
X119967929Y-81512078D01*
X119897804Y-81441013D01*
X119811263Y-81353082D01*
X119735822Y-81276312D01*
X119670722Y-81209773D01*
X119615204Y-81152538D01*
X119568511Y-81103679D01*
X119529883Y-81062267D01*
X119498562Y-81027374D01*
X119473789Y-80998072D01*
X119454807Y-80973433D01*
X119440856Y-80952528D01*
X119431178Y-80934430D01*
X119425015Y-80918210D01*
X119421608Y-80902940D01*
X119420199Y-80887692D01*
X119420028Y-80871538D01*
X119420287Y-80856667D01*
X119421099Y-80840482D01*
X119423160Y-80809133D01*
X119426335Y-80764329D01*
X119430489Y-80707784D01*
X119435486Y-80641209D01*
X119441192Y-80566314D01*
X119447469Y-80484813D01*
X119454185Y-80398416D01*
X119461202Y-80308836D01*
X119468386Y-80217783D01*
X119475602Y-80126969D01*
X119482714Y-80038106D01*
X119489587Y-79952905D01*
X119496086Y-79873079D01*
X119502075Y-79800338D01*
X119507419Y-79736394D01*
X119511983Y-79682959D01*
X119515632Y-79641744D01*
X119518229Y-79614461D01*
X119519114Y-79606395D01*
X119523423Y-79571090D01*
X119271795Y-79463795D01*
X119210449Y-79437640D01*
X119153941Y-79413554D01*
X119104196Y-79392356D01*
X119063140Y-79374867D01*
X119032697Y-79361906D01*
X119014794Y-79354295D01*
X119010920Y-79352658D01*
X119003986Y-79358239D01*
X118986746Y-79375584D01*
X118960070Y-79403736D01*
X118924828Y-79441738D01*
X118881891Y-79488634D01*
X118832131Y-79543467D01*
X118776416Y-79605281D01*
X118715619Y-79673120D01*
X118650610Y-79746025D01*
X118582259Y-79823042D01*
X118565137Y-79842391D01*
X118495583Y-79920848D01*
X118428774Y-79995854D01*
X118365625Y-80066401D01*
X118307053Y-80131480D01*
X118253975Y-80190085D01*
X118207308Y-80241208D01*
X118167968Y-80283842D01*
X118136872Y-80316978D01*
X118114936Y-80339610D01*
X118103077Y-80350729D01*
X118101997Y-80351481D01*
X118076562Y-80364303D01*
X118052260Y-80373628D01*
X118051893Y-80373735D01*
X118039816Y-80374727D01*
X118012169Y-80375504D01*
X117970314Y-80376064D01*
X117915612Y-80376407D01*
X117849426Y-80376534D01*
X117773117Y-80376444D01*
X117688047Y-80376137D01*
X117595578Y-80375614D01*
X117497071Y-80374873D01*
X117393889Y-80373915D01*
X117382928Y-80373802D01*
X116737464Y-80367130D01*
X116692684Y-80345221D01*
X116683588Y-80340241D01*
X116673556Y-80333416D01*
X116661799Y-80323873D01*
X116647527Y-80310734D01*
X116629951Y-80293125D01*
X116608282Y-80270170D01*
X116581729Y-80240995D01*
X116549503Y-80204722D01*
X116510815Y-80160477D01*
X116464875Y-80107385D01*
X116410894Y-80044570D01*
X116348082Y-79971156D01*
X116275649Y-79886268D01*
X116221891Y-79823180D01*
X116141841Y-79729284D01*
X116071996Y-79647560D01*
X116011656Y-79577226D01*
X115960121Y-79517499D01*
X115916691Y-79467596D01*
X115880664Y-79426737D01*
X115851341Y-79394139D01*
X115828021Y-79369019D01*
X115810004Y-79350595D01*
X115796590Y-79338086D01*
X115787078Y-79330708D01*
X115780768Y-79327681D01*
X115778189Y-79327637D01*
X115766115Y-79331851D01*
X115740422Y-79341580D01*
X115703196Y-79356008D01*
X115656524Y-79374318D01*
X115602492Y-79395695D01*
X115543186Y-79419323D01*
X115519200Y-79428922D01*
X115451291Y-79456184D01*
X115397459Y-79478008D01*
X115356047Y-79495221D01*
X115325399Y-79508647D01*
X115303859Y-79519112D01*
X115289771Y-79527441D01*
X115281478Y-79534460D01*
X115277325Y-79540994D01*
X115275654Y-79547868D01*
X115275357Y-79550434D01*
X115275460Y-79562752D01*
X115276559Y-79590590D01*
X115278577Y-79632568D01*
X115281436Y-79687307D01*
X115285060Y-79753426D01*
X115289372Y-79829547D01*
X115294295Y-79914289D01*
X115299751Y-80006272D01*
X115305665Y-80104119D01*
X115311892Y-80205374D01*
X115319432Y-80326892D01*
X115325953Y-80432710D01*
X115331448Y-80524028D01*
X115335910Y-80602051D01*
X115339331Y-80667979D01*
X115341705Y-80723015D01*
X115343024Y-80768362D01*
X115343282Y-80805222D01*
X115342471Y-80834797D01*
X115340584Y-80858289D01*
X115337615Y-80876900D01*
X115333557Y-80891833D01*
X115328401Y-80904290D01*
X115322142Y-80915474D01*
X115314772Y-80926586D01*
X115307606Y-80936906D01*
X115297304Y-80949028D01*
X115276029Y-80971775D01*
X115244949Y-81003971D01*
X115205231Y-81044436D01*
X115158043Y-81091992D01*
X115104554Y-81145461D01*
X115045930Y-81203665D01*
X114983339Y-81265426D01*
X114933871Y-81313983D01*
X114840023Y-81405893D01*
X114757478Y-81486696D01*
X114685440Y-81557132D01*
X114623112Y-81617940D01*
X114569697Y-81669858D01*
X114524397Y-81713625D01*
X114486418Y-81749980D01*
X114454960Y-81779663D01*
X114429227Y-81803412D01*
X114408423Y-81821966D01*
X114391749Y-81836063D01*
X114378411Y-81846444D01*
X114367609Y-81853846D01*
X114358548Y-81859009D01*
X114350431Y-81862672D01*
X114342460Y-81865573D01*
X114336990Y-81867396D01*
X114328636Y-81869989D01*
X114319698Y-81872104D01*
X114308985Y-81873677D01*
X114295303Y-81874643D01*
X114277459Y-81874936D01*
X114254261Y-81874493D01*
X114224517Y-81873248D01*
X114187033Y-81871137D01*
X114140616Y-81868095D01*
X114084075Y-81864057D01*
X114016216Y-81858958D01*
X113935846Y-81852734D01*
X113841773Y-81845320D01*
X113732804Y-81836651D01*
X113651882Y-81830189D01*
X113548920Y-81822010D01*
X113450647Y-81814296D01*
X113358400Y-81807147D01*
X113273518Y-81800663D01*
X113197339Y-81794942D01*
X113131199Y-81790085D01*
X113076438Y-81786189D01*
X113034393Y-81783356D01*
X113006402Y-81781683D01*
X112993803Y-81781270D01*
X112993412Y-81781306D01*
X112986478Y-81786092D01*
X112976974Y-81799551D01*
X112964210Y-81823065D01*
X112947498Y-81858013D01*
X112926146Y-81905778D01*
X112899465Y-81967739D01*
X112894894Y-81978501D01*
X112870446Y-82036119D01*
X112846631Y-82092212D01*
X112824748Y-82143722D01*
X112806094Y-82187593D01*
X112791969Y-82220767D01*
X112786198Y-82234290D01*
X112760099Y-82295347D01*
X113252766Y-82730422D01*
X113353118Y-82819198D01*
X113441161Y-82897427D01*
X113517429Y-82965599D01*
X113582455Y-83024204D01*
X113636771Y-83073733D01*
X113680912Y-83114676D01*
X113715410Y-83147523D01*
X113740799Y-83172764D01*
X113757612Y-83190889D01*
X113766382Y-83202389D01*
X113766600Y-83202765D01*
X113787767Y-83240034D01*
X113784826Y-83841167D01*
X113784158Y-83969824D01*
X113783458Y-84082674D01*
X113782671Y-84180845D01*
X113781743Y-84265463D01*
X113780620Y-84337654D01*
X113779247Y-84398546D01*
X113777569Y-84449266D01*
X113775531Y-84490940D01*
X113773081Y-84524695D01*
X113770162Y-84551658D01*
X113766720Y-84572956D01*
X113762702Y-84589715D01*
X113758052Y-84603062D01*
X113752715Y-84614125D01*
X113746990Y-84623500D01*
X113736841Y-84634588D01*
X113714675Y-84655734D01*
X113681443Y-84686108D01*
X113638092Y-84724874D01*
X113585571Y-84771200D01*
X113524829Y-84824252D01*
X113456815Y-84883197D01*
X113382477Y-84947203D01*
X113302765Y-85015435D01*
X113235710Y-85072549D01*
X113157250Y-85139293D01*
X113082484Y-85203010D01*
X113012426Y-85262831D01*
X112948090Y-85317883D01*
X112890489Y-85367295D01*
X112840638Y-85410197D01*
X112799549Y-85445717D01*
X112768237Y-85472984D01*
X112747716Y-85491127D01*
X112738999Y-85499275D01*
X112738820Y-85499501D01*
X112739637Y-85511063D01*
X112747413Y-85537971D01*
X112762154Y-85580240D01*
X112783866Y-85637888D01*
X112812554Y-85710932D01*
X112836034Y-85769362D01*
X112940793Y-86028172D01*
X112983280Y-86024380D01*
X112998619Y-86023248D01*
X113029409Y-86021186D01*
X113074198Y-86018285D01*
X113131534Y-86014635D01*
X113199965Y-86010328D01*
X113278039Y-86005455D01*
X113364306Y-86000107D01*
X113457312Y-85994374D01*
X113555606Y-85988349D01*
X113640386Y-85983176D01*
X113764073Y-85975715D01*
X113871854Y-85969367D01*
X113964717Y-85964090D01*
X114043650Y-85959841D01*
X114109642Y-85956575D01*
X114163680Y-85954251D01*
X114206753Y-85952825D01*
X114239848Y-85952253D01*
X114263953Y-85952493D01*
X114280057Y-85953501D01*
X114287923Y-85954853D01*
X114328915Y-85971834D01*
X114372309Y-86001321D01*
X114419782Y-86044558D01*
X114445167Y-86071276D01*
X114460592Y-86087684D01*
X114486715Y-86114933D01*
X114522351Y-86151806D01*
X114566313Y-86197083D01*
X114617413Y-86249547D01*
X114674464Y-86307980D01*
X114736280Y-86371162D01*
X114801673Y-86437875D01*
X114869456Y-86506901D01*
X114881231Y-86518879D01*
X114958309Y-86597318D01*
X115024372Y-86664687D01*
X115080306Y-86721961D01*
X115127000Y-86770111D01*
X115165341Y-86810112D01*
X115196219Y-86842937D01*
X115220520Y-86869559D01*
X115239133Y-86890951D01*
X115252945Y-86908087D01*
X115262845Y-86921940D01*
X115269721Y-86933484D01*
X115274461Y-86943691D01*
X115277952Y-86953535D01*
X115278040Y-86953811D01*
X115280693Y-86962630D01*
X115282884Y-86971712D01*
X115284548Y-86982243D01*
X115285620Y-86995411D01*
X115286034Y-87012400D01*
X115285726Y-87034397D01*
X115284631Y-87062590D01*
X115282684Y-87098162D01*
X115279820Y-87142302D01*
X115275974Y-87196195D01*
X115271080Y-87261028D01*
X115265075Y-87337987D01*
X115257892Y-87428257D01*
X115249468Y-87533026D01*
X115239736Y-87653479D01*
X115239676Y-87654220D01*
X115230915Y-87763811D01*
X115222882Y-87866782D01*
X115215657Y-87961992D01*
X115209317Y-88048297D01*
X115203941Y-88124553D01*
X115199607Y-88189618D01*
X115196396Y-88242347D01*
X115194384Y-88281598D01*
X115193651Y-88306227D01*
X115194234Y-88315063D01*
X115203424Y-88319719D01*
X115226506Y-88330238D01*
X115261782Y-88345878D01*
X115307553Y-88365897D01*
X115362118Y-88389554D01*
X115423779Y-88416106D01*
X115490836Y-88444812D01*
X115514967Y-88455102D01*
X115583517Y-88484404D01*
X115647272Y-88511843D01*
X115704531Y-88536670D01*
X115753589Y-88558141D01*
X115792746Y-88575509D01*
X115820298Y-88588028D01*
X115834545Y-88594950D01*
X115836063Y-88595903D01*
X115835294Y-88605836D01*
X115828058Y-88629629D01*
X115814924Y-88665743D01*
X115796459Y-88712638D01*
X115773235Y-88768772D01*
X115765245Y-88787603D01*
X115743065Y-88839497D01*
X115723136Y-88885933D01*
X115706401Y-88924731D01*
X115693802Y-88953711D01*
X115686282Y-88970693D01*
X115684566Y-88974260D01*
X115676265Y-88971913D01*
X115654204Y-88963455D01*
X115620110Y-88949633D01*
X115575705Y-88931194D01*
X115522714Y-88908886D01*
X115462861Y-88883454D01*
X115397870Y-88855647D01*
X115329465Y-88826211D01*
X115259370Y-88795894D01*
X115189308Y-88765442D01*
X115121005Y-88735603D01*
X115056184Y-88707123D01*
X114996569Y-88680750D01*
X114943885Y-88657230D01*
X114899854Y-88637312D01*
X114866202Y-88621741D01*
X114844652Y-88611265D01*
X114837457Y-88607192D01*
X114802595Y-88570443D01*
X114778303Y-88523146D01*
X114766385Y-88469245D01*
X114765474Y-88450121D01*
X114766120Y-88433116D01*
X114768051Y-88400669D01*
X114771160Y-88354214D01*
X114775339Y-88295187D01*
X114780484Y-88225022D01*
X114786486Y-88145152D01*
X114793239Y-88057014D01*
X114800636Y-87962040D01*
X114808571Y-87861666D01*
X114816937Y-87757326D01*
X114817762Y-87747120D01*
X114870243Y-87098006D01*
X114511768Y-86733237D01*
X114434881Y-86655124D01*
X114368914Y-86588404D01*
X114313034Y-86532279D01*
X114266411Y-86485952D01*
X114228210Y-86448624D01*
X114197601Y-86419497D01*
X114173751Y-86397773D01*
X114155828Y-86382655D01*
X114142999Y-86373345D01*
X114134433Y-86369044D01*
X114131397Y-86368523D01*
X114119515Y-86369045D01*
X114092125Y-86370538D01*
X114050616Y-86372919D01*
X113996381Y-86376103D01*
X113930810Y-86380009D01*
X113855295Y-86384552D01*
X113771226Y-86389650D01*
X113679997Y-86395219D01*
X113582996Y-86401176D01*
X113495667Y-86406567D01*
X113393462Y-86412839D01*
X113294817Y-86418789D01*
X113201250Y-86424333D01*
X113114280Y-86429384D01*
X113035423Y-86433858D01*
X112966197Y-86437670D01*
X112908122Y-86440734D01*
X112862714Y-86442966D01*
X112831492Y-86444279D01*
X112817879Y-86444612D01*
X112754802Y-86438151D01*
X112701117Y-86419030D01*
X112658134Y-86387819D01*
X112640984Y-86367746D01*
X112633413Y-86353852D01*
X112620260Y-86325803D01*
X112602197Y-86285180D01*
X112579899Y-86233562D01*
X112554036Y-86172530D01*
X112525282Y-86103664D01*
X112494311Y-86028546D01*
X112461793Y-85948756D01*
X112446028Y-85909742D01*
X112274471Y-85484039D01*
X112278625Y-85425970D01*
X112282971Y-85388646D01*
X112291096Y-85361053D01*
X112305190Y-85336060D01*
X112307140Y-85333248D01*
X112316294Y-85323090D01*
X112335252Y-85304810D01*
X112364266Y-85278189D01*
X112403591Y-85243006D01*
X112453482Y-85199042D01*
X112514194Y-85146076D01*
X112585979Y-85083889D01*
X112669094Y-85012260D01*
X112763791Y-84930970D01*
X112870326Y-84839798D01*
X112988952Y-84738524D01*
X113119925Y-84626929D01*
X113263498Y-84504792D01*
X113340280Y-84439539D01*
X113366928Y-84416901D01*
X113372237Y-83904667D01*
X113377546Y-83392434D01*
X112861604Y-82937300D01*
X112765028Y-82852113D01*
X112680342Y-82777335D01*
X112606767Y-82712144D01*
X112543523Y-82655715D01*
X112489830Y-82607225D01*
X112444909Y-82565851D01*
X112407979Y-82530768D01*
X112378261Y-82501152D01*
X112354975Y-82476180D01*
X112337341Y-82455028D01*
X112324581Y-82436872D01*
X112315912Y-82420888D01*
X112310557Y-82406253D01*
X112307736Y-82392143D01*
X112306667Y-82377734D01*
X112306573Y-82362202D01*
X112306665Y-82351034D01*
X112307109Y-82338910D01*
X112308669Y-82325923D01*
X112311870Y-82310684D01*
X112317240Y-82291807D01*
X112325306Y-82267905D01*
X112336596Y-82237591D01*
X112351636Y-82199477D01*
X112370953Y-82152178D01*
X112395075Y-82094306D01*
X112424529Y-82024473D01*
X112459842Y-81941294D01*
X112483651Y-81885367D01*
X112517960Y-81805199D01*
X112550940Y-81728847D01*
X112581882Y-81657906D01*
X112610077Y-81593970D01*
X112634815Y-81538634D01*
X112655387Y-81493491D01*
X112671083Y-81460136D01*
X112681194Y-81440163D01*
X112683491Y-81436314D01*
X112719895Y-81397050D01*
X112766795Y-81370597D01*
X112822963Y-81357546D01*
X112850037Y-81356200D01*
X112868011Y-81356871D01*
X112901392Y-81358810D01*
X112948707Y-81361912D01*
X113008486Y-81366067D01*
X113079257Y-81371169D01*
X113159549Y-81377110D01*
X113247891Y-81383783D01*
X113342812Y-81391080D01*
X113442840Y-81398893D01*
X113542355Y-81406785D01*
X114175629Y-81457369D01*
X114354231Y-81284123D01*
X114409236Y-81230740D01*
X114472597Y-81169198D01*
X114540547Y-81103162D01*
X114609318Y-81036294D01*
X114675141Y-80972256D01*
X114731234Y-80917648D01*
X114929634Y-80724419D01*
X114889789Y-80072993D01*
X114883434Y-79968558D01*
X114877397Y-79868308D01*
X114871757Y-79773634D01*
X114866596Y-79685929D01*
X114861992Y-79606585D01*
X114858027Y-79536994D01*
X114854779Y-79478549D01*
X114852329Y-79432641D01*
X114850758Y-79400662D01*
X114850144Y-79384006D01*
X114850139Y-79383013D01*
X114857240Y-79338994D01*
X114875943Y-79293929D01*
X114902975Y-79254247D01*
X114927254Y-79231518D01*
X114941166Y-79223934D01*
X114969227Y-79210771D01*
X115009853Y-79192704D01*
X115061456Y-79170409D01*
X115122451Y-79144561D01*
X115191252Y-79115835D01*
X115266273Y-79084907D01*
X115345927Y-79052451D01*
X115382781Y-79037560D01*
X115476172Y-78999977D01*
X115555264Y-78968303D01*
X115621434Y-78942042D01*
X115676058Y-78920696D01*
X115720513Y-78903770D01*
X115756175Y-78890767D01*
X115784420Y-78881191D01*
X115806626Y-78874546D01*
X115824168Y-78870335D01*
X115838423Y-78868061D01*
X115850767Y-78867228D01*
X115855220Y-78867186D01*
X115906000Y-78872778D01*
G36*
X117573799Y-82502218D02*
G01*
X117652568Y-82516087D01*
X117800817Y-82554830D01*
X117944244Y-82609221D01*
X118081491Y-82678333D01*
X118211201Y-82761238D01*
X118332018Y-82857009D01*
X118442584Y-82964719D01*
X118541543Y-83083441D01*
X118595089Y-83160046D01*
X118672746Y-83294364D01*
X118735294Y-83435028D01*
X118782655Y-83580669D01*
X118814748Y-83729915D01*
X118831491Y-83881397D01*
X118832805Y-84033745D01*
X118818609Y-84185588D01*
X118788824Y-84335556D01*
X118743367Y-84482278D01*
X118682159Y-84624385D01*
X118681176Y-84626364D01*
X118605372Y-84759854D01*
X118515235Y-84885422D01*
X118412013Y-85001777D01*
X118296955Y-85107625D01*
X118171309Y-85201675D01*
X118059200Y-85270224D01*
X117972115Y-85313180D01*
X117874891Y-85352019D01*
X117771698Y-85385607D01*
X117666708Y-85412813D01*
X117564092Y-85432503D01*
X117468019Y-85443545D01*
X117413617Y-85445551D01*
X117348000Y-85445600D01*
X117348000Y-85041175D01*
X117367050Y-85036070D01*
X117387288Y-85032885D01*
X117415145Y-85031031D01*
X117425207Y-85030849D01*
X117494753Y-85025637D01*
X117573477Y-85011156D01*
X117657227Y-84988575D01*
X117741849Y-84959067D01*
X117823189Y-84923800D01*
X117846594Y-84912135D01*
X117961462Y-84843623D01*
X118065512Y-84762388D01*
X118157973Y-84669339D01*
X118238072Y-84565383D01*
X118305037Y-84451431D01*
X118358096Y-84328392D01*
X118368612Y-84297801D01*
X118401924Y-84169607D01*
X118418857Y-84039986D01*
X118419728Y-83910345D01*
X118404855Y-83782091D01*
X118374552Y-83656629D01*
X118329137Y-83535367D01*
X118268925Y-83419711D01*
X118194235Y-83311068D01*
X118129743Y-83235925D01*
X118031871Y-83144028D01*
X117924181Y-83065874D01*
X117806980Y-83001634D01*
X117680572Y-82951475D01*
X117555433Y-82917704D01*
X117502452Y-82909487D01*
X117438043Y-82904346D01*
X117367429Y-82902292D01*
X117295836Y-82903336D01*
X117228490Y-82907489D01*
X117170614Y-82914763D01*
X117159406Y-82916836D01*
X117030657Y-82950675D01*
X116909080Y-82998908D01*
X116795591Y-83060459D01*
X116691109Y-83134252D01*
X116596551Y-83219211D01*
X116512834Y-83314257D01*
X116440877Y-83418316D01*
X116381597Y-83530310D01*
X116335912Y-83649162D01*
X116304738Y-83773797D01*
X116288995Y-83903137D01*
X116287482Y-83939820D01*
X116285556Y-84021033D01*
X116166961Y-84026489D01*
X116113627Y-84029046D01*
X116056665Y-84031945D01*
X116002980Y-84034827D01*
X115960360Y-84037278D01*
X115872353Y-84042609D01*
X115877293Y-83903788D01*
X115890869Y-83747853D01*
X115920394Y-83597323D01*
X115966021Y-83451722D01*
X116027902Y-83310580D01*
X116106189Y-83173420D01*
X116117902Y-83155367D01*
X116211014Y-83028824D01*
X116315324Y-82914318D01*
X116429715Y-82812316D01*
X116553071Y-82723282D01*
X116684275Y-82647681D01*
X116822211Y-82585979D01*
X116965763Y-82538640D01*
X117113814Y-82506129D01*
X117265248Y-82488912D01*
X117418949Y-82487454D01*
X117573799Y-82502218D01*
G37*
X117573799Y-82502218D02*
X117652568Y-82516087D01*
X117800817Y-82554830D01*
X117944244Y-82609221D01*
X118081491Y-82678333D01*
X118211201Y-82761238D01*
X118332018Y-82857009D01*
X118442584Y-82964719D01*
X118541543Y-83083441D01*
X118595089Y-83160046D01*
X118672746Y-83294364D01*
X118735294Y-83435028D01*
X118782655Y-83580669D01*
X118814748Y-83729915D01*
X118831491Y-83881397D01*
X118832805Y-84033745D01*
X118818609Y-84185588D01*
X118788824Y-84335556D01*
X118743367Y-84482278D01*
X118682159Y-84624385D01*
X118681176Y-84626364D01*
X118605372Y-84759854D01*
X118515235Y-84885422D01*
X118412013Y-85001777D01*
X118296955Y-85107625D01*
X118171309Y-85201675D01*
X118059200Y-85270224D01*
X117972115Y-85313180D01*
X117874891Y-85352019D01*
X117771698Y-85385607D01*
X117666708Y-85412813D01*
X117564092Y-85432503D01*
X117468019Y-85443545D01*
X117413617Y-85445551D01*
X117348000Y-85445600D01*
X117348000Y-85041175D01*
X117367050Y-85036070D01*
X117387288Y-85032885D01*
X117415145Y-85031031D01*
X117425207Y-85030849D01*
X117494753Y-85025637D01*
X117573477Y-85011156D01*
X117657227Y-84988575D01*
X117741849Y-84959067D01*
X117823189Y-84923800D01*
X117846594Y-84912135D01*
X117961462Y-84843623D01*
X118065512Y-84762388D01*
X118157973Y-84669339D01*
X118238072Y-84565383D01*
X118305037Y-84451431D01*
X118358096Y-84328392D01*
X118368612Y-84297801D01*
X118401924Y-84169607D01*
X118418857Y-84039986D01*
X118419728Y-83910345D01*
X118404855Y-83782091D01*
X118374552Y-83656629D01*
X118329137Y-83535367D01*
X118268925Y-83419711D01*
X118194235Y-83311068D01*
X118129743Y-83235925D01*
X118031871Y-83144028D01*
X117924181Y-83065874D01*
X117806980Y-83001634D01*
X117680572Y-82951475D01*
X117555433Y-82917704D01*
X117502452Y-82909487D01*
X117438043Y-82904346D01*
X117367429Y-82902292D01*
X117295836Y-82903336D01*
X117228490Y-82907489D01*
X117170614Y-82914763D01*
X117159406Y-82916836D01*
X117030657Y-82950675D01*
X116909080Y-82998908D01*
X116795591Y-83060459D01*
X116691109Y-83134252D01*
X116596551Y-83219211D01*
X116512834Y-83314257D01*
X116440877Y-83418316D01*
X116381597Y-83530310D01*
X116335912Y-83649162D01*
X116304738Y-83773797D01*
X116288995Y-83903137D01*
X116287482Y-83939820D01*
X116285556Y-84021033D01*
X116166961Y-84026489D01*
X116113627Y-84029046D01*
X116056665Y-84031945D01*
X116002980Y-84034827D01*
X115960360Y-84037278D01*
X115872353Y-84042609D01*
X115877293Y-83903788D01*
X115890869Y-83747853D01*
X115920394Y-83597323D01*
X115966021Y-83451722D01*
X116027902Y-83310580D01*
X116106189Y-83173420D01*
X116117902Y-83155367D01*
X116211014Y-83028824D01*
X116315324Y-82914318D01*
X116429715Y-82812316D01*
X116553071Y-82723282D01*
X116684275Y-82647681D01*
X116822211Y-82585979D01*
X116965763Y-82538640D01*
X117113814Y-82506129D01*
X117265248Y-82488912D01*
X117418949Y-82487454D01*
X117573799Y-82502218D01*
D12*
X217902000Y-114046000D02*
G75*
G03X217902000Y-114046000I-7600000J0D01*
G01*
X103068000Y-69707000D02*
X187868000Y-69707000D01*
X187868000Y-69707000D02*
X187868000Y-125007000D01*
X187868000Y-125007000D02*
X103068000Y-125007000D01*
X103068000Y-125007000D02*
X103068000Y-69707000D01*
X96068000Y-76407000D02*
X96068000Y-81407000D01*
X96448000Y-69397000D02*
X194448000Y-69397000D01*
X194448000Y-69397000D02*
X194448000Y-125655000D01*
X194448000Y-125655000D02*
X96448000Y-125655000D01*
X96448000Y-125655000D02*
X96448000Y-69397000D01*
X222750202Y-90084628D02*
X222750202Y-84868170D01*
X220793445Y-84349397D02*
X218452956Y-84349397D01*
X216496199Y-84868170D02*
X216496199Y-90084628D01*
X218452956Y-90603401D02*
X220793445Y-90603401D01*
X214960200Y-90726400D02*
G75*
G03X214960200Y-90726400I-127000J0D01*
G01*
X206885400Y-92329000D02*
G75*
G03X206885400Y-92329000I-127000J0D01*
G01*
X206881399Y-95948756D02*
X206881399Y-98289245D01*
X212616630Y-93991999D02*
X207400172Y-93991999D01*
X213135403Y-98289245D02*
X213135403Y-95948756D01*
X207400172Y-100246002D02*
X212616630Y-100246002D01*
X203446202Y-90087028D02*
X203446202Y-84870570D01*
X201489445Y-84351797D02*
X199148956Y-84351797D01*
X197192199Y-84870570D02*
X197192199Y-90087028D01*
X199148956Y-90605801D02*
X201489445Y-90605801D01*
X195656200Y-90728800D02*
G75*
G03X195656200Y-90728800I-127000J0D01*
G01*
X206883000Y-72843000D02*
G75*
G03X206883000Y-72843000I-127000J0D01*
G01*
X206878999Y-76462756D02*
X206878999Y-78803245D01*
X212614230Y-74505999D02*
X207397772Y-74505999D01*
X213133003Y-78803245D02*
X213133003Y-76462756D01*
X207397772Y-80760002D02*
X212614230Y-80760002D01*
X85639628Y-77075598D02*
X80423170Y-77075598D01*
X79904397Y-79032355D02*
X79904397Y-81372844D01*
X80423170Y-83329601D02*
X85639628Y-83329601D01*
X86158401Y-81372844D02*
X86158401Y-79032355D01*
X86408400Y-84992600D02*
G75*
G03X86408400Y-84992600I-127000J0D01*
G01*
X86408400Y-100461200D02*
G75*
G03X86408400Y-100461200I-127000J0D01*
G01*
X86158401Y-96841444D02*
X86158401Y-94500955D01*
X80423170Y-98798201D02*
X85639628Y-98798201D01*
X79904397Y-94500955D02*
X79904397Y-96841444D01*
X85639628Y-92544198D02*
X80423170Y-92544198D01*
X78423202Y-90544228D02*
X78423202Y-85327770D01*
X76466445Y-84808997D02*
X74125956Y-84808997D01*
X72169199Y-85327770D02*
X72169199Y-90544228D01*
X74125956Y-91063001D02*
X76466445Y-91063001D01*
X70633200Y-91186000D02*
G75*
G03X70633200Y-91186000I-127000J0D01*
G01*
X86106000Y-91186000D02*
G75*
G03X86106000Y-91186000I-127000J0D01*
G01*
X89598756Y-91063001D02*
X91939245Y-91063001D01*
X87641999Y-85327770D02*
X87641999Y-90544228D01*
X91939245Y-84808997D02*
X89598756Y-84808997D01*
X93896002Y-90544228D02*
X93896002Y-85327770D01*
X85614228Y-106971398D02*
X80397770Y-106971398D01*
X79878997Y-108928155D02*
X79878997Y-111268644D01*
X80397770Y-113225401D02*
X85614228Y-113225401D01*
X86133001Y-111268644D02*
X86133001Y-108928155D01*
X86383000Y-114888400D02*
G75*
G03X86383000Y-114888400I-127000J0D01*
G01*
X86383000Y-123088400D02*
G75*
G03X86383000Y-123088400I-127000J0D01*
G01*
X86133001Y-119468644D02*
X86133001Y-117128155D01*
X80397770Y-121425401D02*
X85614228Y-121425401D01*
X79878997Y-117128155D02*
X79878997Y-119468644D01*
X85614228Y-115171398D02*
X80397770Y-115171398D01*
X64262000Y-97195000D02*
G75*
G03X64262000Y-97195000I-127000J0D01*
G01*
X222977000Y-97195000D02*
G75*
G03X222977000Y-97195000I-127000J0D01*
G01*
X185026300Y-113919000D02*
G75*
G03X185026300Y-113919000I-381000J0D01*
G01*
D10*
X209362467Y-122829011D02*
X209505324Y-122876630D01*
X209552943Y-122924249D01*
X209600562Y-123019487D01*
X209600562Y-123162344D01*
X209552943Y-123257582D01*
X209505324Y-123305201D01*
X209410086Y-123352820D01*
X209029134Y-123352820D01*
X209029134Y-122352820D01*
X209362467Y-122352820D01*
X209457705Y-122400440D01*
X209505324Y-122448059D01*
X209552943Y-122543297D01*
X209552943Y-122638535D01*
X209505324Y-122733773D01*
X209457705Y-122781392D01*
X209362467Y-122829011D01*
X209029134Y-122829011D01*
X209933896Y-122352820D02*
X210600562Y-122352820D01*
X209933896Y-123352820D01*
X210600562Y-123352820D01*
X211505324Y-123352820D02*
X210933896Y-123352820D01*
X211219610Y-123352820D02*
X211219610Y-122352820D01*
X211124372Y-122495678D01*
X211029134Y-122590916D01*
X210933896Y-122638535D01*
X206111047Y-111577428D02*
X206872952Y-111577428D01*
X206492000Y-111958380D02*
X206492000Y-111196476D01*
X101255580Y-77622304D02*
X102065104Y-77622304D01*
X102160342Y-77574685D01*
X102207961Y-77527066D01*
X102255580Y-77431828D01*
X102255580Y-77241352D01*
X102207961Y-77146114D01*
X102160342Y-77098495D01*
X102065104Y-77050876D01*
X101255580Y-77050876D01*
X101255580Y-76669923D02*
X101255580Y-76050876D01*
X101636533Y-76384209D01*
X101636533Y-76241352D01*
X101684152Y-76146114D01*
X101731771Y-76098495D01*
X101827009Y-76050876D01*
X102065104Y-76050876D01*
X102160342Y-76098495D01*
X102207961Y-76146114D01*
X102255580Y-76241352D01*
X102255580Y-76527066D01*
X102207961Y-76622304D01*
X102160342Y-76669923D01*
X220027962Y-88809732D02*
X220075581Y-88666875D01*
X220075581Y-88428779D01*
X220027962Y-88333541D01*
X219980343Y-88285922D01*
X219885105Y-88238303D01*
X219789867Y-88238303D01*
X219694629Y-88285922D01*
X219647010Y-88333541D01*
X219599391Y-88428779D01*
X219551772Y-88619256D01*
X219504153Y-88714494D01*
X219456534Y-88762113D01*
X219361296Y-88809732D01*
X219266058Y-88809732D01*
X219170820Y-88762113D01*
X219123201Y-88714494D01*
X219075581Y-88619256D01*
X219075581Y-88381160D01*
X219123201Y-88238303D01*
X219075581Y-87904970D02*
X220075581Y-87666875D01*
X219361296Y-87476399D01*
X220075581Y-87285922D01*
X219075581Y-87047827D01*
X220075581Y-86143065D02*
X220075581Y-86714494D01*
X220075581Y-86428779D02*
X219075581Y-86428779D01*
X219218439Y-86524018D01*
X219313677Y-86619256D01*
X219361296Y-86714494D01*
X224559761Y-90524018D02*
X224607380Y-90381160D01*
X224607380Y-90143065D01*
X224559761Y-90047827D01*
X224512142Y-90000208D01*
X224416904Y-89952589D01*
X224321666Y-89952589D01*
X224226428Y-90000208D01*
X224178809Y-90047827D01*
X224131190Y-90143065D01*
X224083571Y-90333541D01*
X224035952Y-90428779D01*
X223988333Y-90476399D01*
X223893095Y-90524018D01*
X223797857Y-90524018D01*
X223702619Y-90476399D01*
X223655000Y-90428779D01*
X223607380Y-90333541D01*
X223607380Y-90095446D01*
X223655000Y-89952589D01*
X223607380Y-89619256D02*
X224607380Y-89381160D01*
X223893095Y-89190684D01*
X224607380Y-89000208D01*
X223607380Y-88762113D01*
X224702619Y-88619256D02*
X224702619Y-87857351D01*
X224607380Y-87619256D02*
X223607380Y-87619256D01*
X223607380Y-87238303D01*
X223655000Y-87143065D01*
X223702619Y-87095446D01*
X223797857Y-87047827D01*
X223940714Y-87047827D01*
X224035952Y-87095446D01*
X224083571Y-87143065D01*
X224131190Y-87238303D01*
X224131190Y-87619256D01*
X223940714Y-86190684D02*
X224607380Y-86190684D01*
X223940714Y-86619256D02*
X224464523Y-86619256D01*
X224559761Y-86571637D01*
X224607380Y-86476399D01*
X224607380Y-86333541D01*
X224559761Y-86238303D01*
X224512142Y-86190684D01*
X224559761Y-85762113D02*
X224607380Y-85666875D01*
X224607380Y-85476399D01*
X224559761Y-85381160D01*
X224464523Y-85333541D01*
X224416904Y-85333541D01*
X224321666Y-85381160D01*
X224274047Y-85476399D01*
X224274047Y-85619256D01*
X224226428Y-85714494D01*
X224131190Y-85762113D01*
X224083571Y-85762113D01*
X223988333Y-85714494D01*
X223940714Y-85619256D01*
X223940714Y-85476399D01*
X223988333Y-85381160D01*
X224607380Y-84904970D02*
X223607380Y-84904970D01*
X224607380Y-84476399D02*
X224083571Y-84476399D01*
X223988333Y-84524018D01*
X223940714Y-84619256D01*
X223940714Y-84762113D01*
X223988333Y-84857351D01*
X224035952Y-84904970D01*
X216825580Y-90726400D02*
X217063676Y-90726400D01*
X216968438Y-90964495D02*
X217063676Y-90726400D01*
X216968438Y-90488304D01*
X217254152Y-90869257D02*
X217063676Y-90726400D01*
X217254152Y-90583542D01*
X208675067Y-97523762D02*
X208817924Y-97571381D01*
X209056020Y-97571381D01*
X209151258Y-97523762D01*
X209198877Y-97476143D01*
X209246496Y-97380905D01*
X209246496Y-97285667D01*
X209198877Y-97190429D01*
X209151258Y-97142810D01*
X209056020Y-97095191D01*
X208865543Y-97047572D01*
X208770305Y-96999953D01*
X208722686Y-96952334D01*
X208675067Y-96857096D01*
X208675067Y-96761858D01*
X208722686Y-96666620D01*
X208770305Y-96619001D01*
X208865543Y-96571381D01*
X209103639Y-96571381D01*
X209246496Y-96619001D01*
X209579829Y-96571381D02*
X209817924Y-97571381D01*
X210008401Y-96857096D01*
X210198877Y-97571381D01*
X210436972Y-96571381D01*
X210770305Y-96666620D02*
X210817924Y-96619001D01*
X210913162Y-96571381D01*
X211151258Y-96571381D01*
X211246496Y-96619001D01*
X211294115Y-96666620D01*
X211341734Y-96761858D01*
X211341734Y-96857096D01*
X211294115Y-96999953D01*
X210722686Y-97571381D01*
X211341734Y-97571381D01*
X206960781Y-102004761D02*
X207103639Y-102052380D01*
X207341734Y-102052380D01*
X207436972Y-102004761D01*
X207484591Y-101957142D01*
X207532210Y-101861904D01*
X207532210Y-101766666D01*
X207484591Y-101671428D01*
X207436972Y-101623809D01*
X207341734Y-101576190D01*
X207151258Y-101528571D01*
X207056020Y-101480952D01*
X207008401Y-101433333D01*
X206960781Y-101338095D01*
X206960781Y-101242857D01*
X207008401Y-101147619D01*
X207056020Y-101100000D01*
X207151258Y-101052380D01*
X207389353Y-101052380D01*
X207532210Y-101100000D01*
X207865543Y-101052380D02*
X208103639Y-102052380D01*
X208294115Y-101338095D01*
X208484591Y-102052380D01*
X208722686Y-101052380D01*
X208865543Y-102147619D02*
X209627448Y-102147619D01*
X209865543Y-102052380D02*
X209865543Y-101052380D01*
X210246496Y-101052380D01*
X210341734Y-101100000D01*
X210389353Y-101147619D01*
X210436972Y-101242857D01*
X210436972Y-101385714D01*
X210389353Y-101480952D01*
X210341734Y-101528571D01*
X210246496Y-101576190D01*
X209865543Y-101576190D01*
X211294115Y-101385714D02*
X211294115Y-102052380D01*
X210865543Y-101385714D02*
X210865543Y-101909523D01*
X210913162Y-102004761D01*
X211008401Y-102052380D01*
X211151258Y-102052380D01*
X211246496Y-102004761D01*
X211294115Y-101957142D01*
X211722686Y-102004761D02*
X211817924Y-102052380D01*
X212008401Y-102052380D01*
X212103639Y-102004761D01*
X212151258Y-101909523D01*
X212151258Y-101861904D01*
X212103639Y-101766666D01*
X212008401Y-101719047D01*
X211865543Y-101719047D01*
X211770305Y-101671428D01*
X211722686Y-101576190D01*
X211722686Y-101528571D01*
X211770305Y-101433333D01*
X211865543Y-101385714D01*
X212008401Y-101385714D01*
X212103639Y-101433333D01*
X212579829Y-102052380D02*
X212579829Y-101052380D01*
X213008401Y-102052380D02*
X213008401Y-101528571D01*
X212960781Y-101433333D01*
X212865543Y-101385714D01*
X212722686Y-101385714D01*
X212627448Y-101433333D01*
X212579829Y-101480952D01*
X206758400Y-94321380D02*
X206758400Y-94559476D01*
X206520304Y-94464238D02*
X206758400Y-94559476D01*
X206996495Y-94464238D01*
X206615542Y-94749952D02*
X206758400Y-94559476D01*
X206901257Y-94749952D01*
X200723962Y-88812132D02*
X200771581Y-88669275D01*
X200771581Y-88431179D01*
X200723962Y-88335941D01*
X200676343Y-88288322D01*
X200581105Y-88240703D01*
X200485867Y-88240703D01*
X200390629Y-88288322D01*
X200343010Y-88335941D01*
X200295391Y-88431179D01*
X200247772Y-88621656D01*
X200200153Y-88716894D01*
X200152534Y-88764513D01*
X200057296Y-88812132D01*
X199962058Y-88812132D01*
X199866820Y-88764513D01*
X199819201Y-88716894D01*
X199771581Y-88621656D01*
X199771581Y-88383560D01*
X199819201Y-88240703D01*
X199771581Y-87907370D02*
X200771581Y-87669275D01*
X200057296Y-87478799D01*
X200771581Y-87288322D01*
X199771581Y-87050227D01*
X199771581Y-86764513D02*
X199771581Y-86145465D01*
X200152534Y-86478799D01*
X200152534Y-86335941D01*
X200200153Y-86240703D01*
X200247772Y-86193084D01*
X200343010Y-86145465D01*
X200581105Y-86145465D01*
X200676343Y-86193084D01*
X200723962Y-86240703D01*
X200771581Y-86335941D01*
X200771581Y-86621656D01*
X200723962Y-86716894D01*
X200676343Y-86764513D01*
X204874761Y-90526418D02*
X204922380Y-90383560D01*
X204922380Y-90145465D01*
X204874761Y-90050227D01*
X204827142Y-90002608D01*
X204731904Y-89954989D01*
X204636666Y-89954989D01*
X204541428Y-90002608D01*
X204493809Y-90050227D01*
X204446190Y-90145465D01*
X204398571Y-90335941D01*
X204350952Y-90431179D01*
X204303333Y-90478799D01*
X204208095Y-90526418D01*
X204112857Y-90526418D01*
X204017619Y-90478799D01*
X203970000Y-90431179D01*
X203922380Y-90335941D01*
X203922380Y-90097846D01*
X203970000Y-89954989D01*
X203922380Y-89621656D02*
X204922380Y-89383560D01*
X204208095Y-89193084D01*
X204922380Y-89002608D01*
X203922380Y-88764513D01*
X205017619Y-88621656D02*
X205017619Y-87859751D01*
X204922380Y-87621656D02*
X203922380Y-87621656D01*
X203922380Y-87240703D01*
X203970000Y-87145465D01*
X204017619Y-87097846D01*
X204112857Y-87050227D01*
X204255714Y-87050227D01*
X204350952Y-87097846D01*
X204398571Y-87145465D01*
X204446190Y-87240703D01*
X204446190Y-87621656D01*
X204255714Y-86193084D02*
X204922380Y-86193084D01*
X204255714Y-86621656D02*
X204779523Y-86621656D01*
X204874761Y-86574037D01*
X204922380Y-86478799D01*
X204922380Y-86335941D01*
X204874761Y-86240703D01*
X204827142Y-86193084D01*
X204874761Y-85764513D02*
X204922380Y-85669275D01*
X204922380Y-85478799D01*
X204874761Y-85383560D01*
X204779523Y-85335941D01*
X204731904Y-85335941D01*
X204636666Y-85383560D01*
X204589047Y-85478799D01*
X204589047Y-85621656D01*
X204541428Y-85716894D01*
X204446190Y-85764513D01*
X204398571Y-85764513D01*
X204303333Y-85716894D01*
X204255714Y-85621656D01*
X204255714Y-85478799D01*
X204303333Y-85383560D01*
X204922380Y-84907370D02*
X203922380Y-84907370D01*
X204922380Y-84478799D02*
X204398571Y-84478799D01*
X204303333Y-84526418D01*
X204255714Y-84621656D01*
X204255714Y-84764513D01*
X204303333Y-84859751D01*
X204350952Y-84907370D01*
X197521580Y-90728800D02*
X197759676Y-90728800D01*
X197664438Y-90966895D02*
X197759676Y-90728800D01*
X197664438Y-90490704D01*
X197950152Y-90871657D02*
X197759676Y-90728800D01*
X197950152Y-90585942D01*
X208672667Y-78037762D02*
X208815524Y-78085381D01*
X209053620Y-78085381D01*
X209148858Y-78037762D01*
X209196477Y-77990143D01*
X209244096Y-77894905D01*
X209244096Y-77799667D01*
X209196477Y-77704429D01*
X209148858Y-77656810D01*
X209053620Y-77609191D01*
X208863143Y-77561572D01*
X208767905Y-77513953D01*
X208720286Y-77466334D01*
X208672667Y-77371096D01*
X208672667Y-77275858D01*
X208720286Y-77180620D01*
X208767905Y-77133001D01*
X208863143Y-77085381D01*
X209101239Y-77085381D01*
X209244096Y-77133001D01*
X209577429Y-77085381D02*
X209815524Y-78085381D01*
X210006001Y-77371096D01*
X210196477Y-78085381D01*
X210434572Y-77085381D01*
X211244096Y-77418715D02*
X211244096Y-78085381D01*
X211006001Y-77037762D02*
X210767905Y-77752048D01*
X211386953Y-77752048D01*
X206958381Y-82319761D02*
X207101239Y-82367380D01*
X207339334Y-82367380D01*
X207434572Y-82319761D01*
X207482191Y-82272142D01*
X207529810Y-82176904D01*
X207529810Y-82081666D01*
X207482191Y-81986428D01*
X207434572Y-81938809D01*
X207339334Y-81891190D01*
X207148858Y-81843571D01*
X207053620Y-81795952D01*
X207006001Y-81748333D01*
X206958381Y-81653095D01*
X206958381Y-81557857D01*
X207006001Y-81462619D01*
X207053620Y-81415000D01*
X207148858Y-81367380D01*
X207386953Y-81367380D01*
X207529810Y-81415000D01*
X207863143Y-81367380D02*
X208101239Y-82367380D01*
X208291715Y-81653095D01*
X208482191Y-82367380D01*
X208720286Y-81367380D01*
X208863143Y-82462619D02*
X209625048Y-82462619D01*
X209863143Y-82367380D02*
X209863143Y-81367380D01*
X210244096Y-81367380D01*
X210339334Y-81415000D01*
X210386953Y-81462619D01*
X210434572Y-81557857D01*
X210434572Y-81700714D01*
X210386953Y-81795952D01*
X210339334Y-81843571D01*
X210244096Y-81891190D01*
X209863143Y-81891190D01*
X211291715Y-81700714D02*
X211291715Y-82367380D01*
X210863143Y-81700714D02*
X210863143Y-82224523D01*
X210910762Y-82319761D01*
X211006001Y-82367380D01*
X211148858Y-82367380D01*
X211244096Y-82319761D01*
X211291715Y-82272142D01*
X211720286Y-82319761D02*
X211815524Y-82367380D01*
X212006001Y-82367380D01*
X212101239Y-82319761D01*
X212148858Y-82224523D01*
X212148858Y-82176904D01*
X212101239Y-82081666D01*
X212006001Y-82034047D01*
X211863143Y-82034047D01*
X211767905Y-81986428D01*
X211720286Y-81891190D01*
X211720286Y-81843571D01*
X211767905Y-81748333D01*
X211863143Y-81700714D01*
X212006001Y-81700714D01*
X212101239Y-81748333D01*
X212577429Y-82367380D02*
X212577429Y-81367380D01*
X213006001Y-82367380D02*
X213006001Y-81843571D01*
X212958381Y-81748333D01*
X212863143Y-81700714D01*
X212720286Y-81700714D01*
X212625048Y-81748333D01*
X212577429Y-81795952D01*
X206756000Y-74835380D02*
X206756000Y-75073476D01*
X206517904Y-74978238D02*
X206756000Y-75073476D01*
X206994095Y-74978238D01*
X206613142Y-75263952D02*
X206756000Y-75073476D01*
X206898857Y-75263952D01*
X81698065Y-80607360D02*
X81840922Y-80654979D01*
X82079018Y-80654979D01*
X82174256Y-80607360D01*
X82221875Y-80559741D01*
X82269494Y-80464503D01*
X82269494Y-80369265D01*
X82221875Y-80274027D01*
X82174256Y-80226408D01*
X82079018Y-80178789D01*
X81888541Y-80131170D01*
X81793303Y-80083551D01*
X81745684Y-80035932D01*
X81698065Y-79940694D01*
X81698065Y-79845456D01*
X81745684Y-79750218D01*
X81793303Y-79702599D01*
X81888541Y-79654979D01*
X82126637Y-79654979D01*
X82269494Y-79702599D01*
X82602827Y-79654979D02*
X82840922Y-80654979D01*
X83031399Y-79940694D01*
X83221875Y-80654979D01*
X83459970Y-79654979D01*
X84317113Y-79654979D02*
X83840922Y-79654979D01*
X83793303Y-80131170D01*
X83840922Y-80083551D01*
X83936160Y-80035932D01*
X84174256Y-80035932D01*
X84269494Y-80083551D01*
X84317113Y-80131170D01*
X84364732Y-80226408D01*
X84364732Y-80464503D01*
X84317113Y-80559741D01*
X84269494Y-80607360D01*
X84174256Y-80654979D01*
X83936160Y-80654979D01*
X83840922Y-80607360D01*
X83793303Y-80559741D01*
X79983779Y-84859761D02*
X80126637Y-84907380D01*
X80364732Y-84907380D01*
X80459970Y-84859761D01*
X80507589Y-84812142D01*
X80555208Y-84716904D01*
X80555208Y-84621666D01*
X80507589Y-84526428D01*
X80459970Y-84478809D01*
X80364732Y-84431190D01*
X80174256Y-84383571D01*
X80079018Y-84335952D01*
X80031399Y-84288333D01*
X79983779Y-84193095D01*
X79983779Y-84097857D01*
X80031399Y-84002619D01*
X80079018Y-83955000D01*
X80174256Y-83907380D01*
X80412351Y-83907380D01*
X80555208Y-83955000D01*
X80888541Y-83907380D02*
X81126637Y-84907380D01*
X81317113Y-84193095D01*
X81507589Y-84907380D01*
X81745684Y-83907380D01*
X81888541Y-85002619D02*
X82650446Y-85002619D01*
X82888541Y-84907380D02*
X82888541Y-83907380D01*
X83269494Y-83907380D01*
X83364732Y-83955000D01*
X83412351Y-84002619D01*
X83459970Y-84097857D01*
X83459970Y-84240714D01*
X83412351Y-84335952D01*
X83364732Y-84383571D01*
X83269494Y-84431190D01*
X82888541Y-84431190D01*
X84317113Y-84240714D02*
X84317113Y-84907380D01*
X83888541Y-84240714D02*
X83888541Y-84764523D01*
X83936160Y-84859761D01*
X84031399Y-84907380D01*
X84174256Y-84907380D01*
X84269494Y-84859761D01*
X84317113Y-84812142D01*
X84745684Y-84859761D02*
X84840922Y-84907380D01*
X85031399Y-84907380D01*
X85126637Y-84859761D01*
X85174256Y-84764523D01*
X85174256Y-84716904D01*
X85126637Y-84621666D01*
X85031399Y-84574047D01*
X84888541Y-84574047D01*
X84793303Y-84526428D01*
X84745684Y-84431190D01*
X84745684Y-84383571D01*
X84793303Y-84288333D01*
X84888541Y-84240714D01*
X85031399Y-84240714D01*
X85126637Y-84288333D01*
X85602827Y-84907380D02*
X85602827Y-83907380D01*
X86031399Y-84907380D02*
X86031399Y-84383571D01*
X85983779Y-84288333D01*
X85888541Y-84240714D01*
X85745684Y-84240714D01*
X85650446Y-84288333D01*
X85602827Y-84335952D01*
X86281400Y-81904980D02*
X86281400Y-82143076D01*
X86043304Y-82047838D02*
X86281400Y-82143076D01*
X86519495Y-82047838D01*
X86138542Y-82333552D02*
X86281400Y-82143076D01*
X86424257Y-82333552D01*
X81698065Y-96075960D02*
X81840922Y-96123579D01*
X82079018Y-96123579D01*
X82174256Y-96075960D01*
X82221875Y-96028341D01*
X82269494Y-95933103D01*
X82269494Y-95837865D01*
X82221875Y-95742627D01*
X82174256Y-95695008D01*
X82079018Y-95647389D01*
X81888541Y-95599770D01*
X81793303Y-95552151D01*
X81745684Y-95504532D01*
X81698065Y-95409294D01*
X81698065Y-95314056D01*
X81745684Y-95218818D01*
X81793303Y-95171199D01*
X81888541Y-95123579D01*
X82126637Y-95123579D01*
X82269494Y-95171199D01*
X82602827Y-95123579D02*
X82840922Y-96123579D01*
X83031399Y-95409294D01*
X83221875Y-96123579D01*
X83459970Y-95123579D01*
X84269494Y-95123579D02*
X84079018Y-95123579D01*
X83983779Y-95171199D01*
X83936160Y-95218818D01*
X83840922Y-95361675D01*
X83793303Y-95552151D01*
X83793303Y-95933103D01*
X83840922Y-96028341D01*
X83888541Y-96075960D01*
X83983779Y-96123579D01*
X84174256Y-96123579D01*
X84269494Y-96075960D01*
X84317113Y-96028341D01*
X84364732Y-95933103D01*
X84364732Y-95695008D01*
X84317113Y-95599770D01*
X84269494Y-95552151D01*
X84174256Y-95504532D01*
X83983779Y-95504532D01*
X83888541Y-95552151D01*
X83840922Y-95599770D01*
X83793303Y-95695008D01*
X79983779Y-100099761D02*
X80126637Y-100147380D01*
X80364732Y-100147380D01*
X80459970Y-100099761D01*
X80507589Y-100052142D01*
X80555208Y-99956904D01*
X80555208Y-99861666D01*
X80507589Y-99766428D01*
X80459970Y-99718809D01*
X80364732Y-99671190D01*
X80174256Y-99623571D01*
X80079018Y-99575952D01*
X80031399Y-99528333D01*
X79983779Y-99433095D01*
X79983779Y-99337857D01*
X80031399Y-99242619D01*
X80079018Y-99195000D01*
X80174256Y-99147380D01*
X80412351Y-99147380D01*
X80555208Y-99195000D01*
X80888541Y-99147380D02*
X81126637Y-100147380D01*
X81317113Y-99433095D01*
X81507589Y-100147380D01*
X81745684Y-99147380D01*
X81888541Y-100242619D02*
X82650446Y-100242619D01*
X82888541Y-100147380D02*
X82888541Y-99147380D01*
X83269494Y-99147380D01*
X83364732Y-99195000D01*
X83412351Y-99242619D01*
X83459970Y-99337857D01*
X83459970Y-99480714D01*
X83412351Y-99575952D01*
X83364732Y-99623571D01*
X83269494Y-99671190D01*
X82888541Y-99671190D01*
X84317113Y-99480714D02*
X84317113Y-100147380D01*
X83888541Y-99480714D02*
X83888541Y-100004523D01*
X83936160Y-100099761D01*
X84031399Y-100147380D01*
X84174256Y-100147380D01*
X84269494Y-100099761D01*
X84317113Y-100052142D01*
X84745684Y-100099761D02*
X84840922Y-100147380D01*
X85031399Y-100147380D01*
X85126637Y-100099761D01*
X85174256Y-100004523D01*
X85174256Y-99956904D01*
X85126637Y-99861666D01*
X85031399Y-99814047D01*
X84888541Y-99814047D01*
X84793303Y-99766428D01*
X84745684Y-99671190D01*
X84745684Y-99623571D01*
X84793303Y-99528333D01*
X84888541Y-99480714D01*
X85031399Y-99480714D01*
X85126637Y-99528333D01*
X85602827Y-100147380D02*
X85602827Y-99147380D01*
X86031399Y-100147380D02*
X86031399Y-99623571D01*
X85983779Y-99528333D01*
X85888541Y-99480714D01*
X85745684Y-99480714D01*
X85650446Y-99528333D01*
X85602827Y-99575952D01*
X86281400Y-97373580D02*
X86281400Y-97611676D01*
X86043304Y-97516438D02*
X86281400Y-97611676D01*
X86519495Y-97516438D01*
X86138542Y-97802152D02*
X86281400Y-97611676D01*
X86424257Y-97802152D01*
X75700962Y-89269332D02*
X75748581Y-89126475D01*
X75748581Y-88888379D01*
X75700962Y-88793141D01*
X75653343Y-88745522D01*
X75558105Y-88697903D01*
X75462867Y-88697903D01*
X75367629Y-88745522D01*
X75320010Y-88793141D01*
X75272391Y-88888379D01*
X75224772Y-89078856D01*
X75177153Y-89174094D01*
X75129534Y-89221713D01*
X75034296Y-89269332D01*
X74939058Y-89269332D01*
X74843820Y-89221713D01*
X74796201Y-89174094D01*
X74748581Y-89078856D01*
X74748581Y-88840760D01*
X74796201Y-88697903D01*
X74748581Y-88364570D02*
X75748581Y-88126475D01*
X75034296Y-87935999D01*
X75748581Y-87745522D01*
X74748581Y-87507427D01*
X74748581Y-87221713D02*
X74748581Y-86555046D01*
X75748581Y-86983618D01*
X79779761Y-90983618D02*
X79827380Y-90840760D01*
X79827380Y-90602665D01*
X79779761Y-90507427D01*
X79732142Y-90459808D01*
X79636904Y-90412189D01*
X79541666Y-90412189D01*
X79446428Y-90459808D01*
X79398809Y-90507427D01*
X79351190Y-90602665D01*
X79303571Y-90793141D01*
X79255952Y-90888379D01*
X79208333Y-90935999D01*
X79113095Y-90983618D01*
X79017857Y-90983618D01*
X78922619Y-90935999D01*
X78875000Y-90888379D01*
X78827380Y-90793141D01*
X78827380Y-90555046D01*
X78875000Y-90412189D01*
X78827380Y-90078856D02*
X79827380Y-89840760D01*
X79113095Y-89650284D01*
X79827380Y-89459808D01*
X78827380Y-89221713D01*
X79922619Y-89078856D02*
X79922619Y-88316951D01*
X79827380Y-88078856D02*
X78827380Y-88078856D01*
X78827380Y-87697903D01*
X78875000Y-87602665D01*
X78922619Y-87555046D01*
X79017857Y-87507427D01*
X79160714Y-87507427D01*
X79255952Y-87555046D01*
X79303571Y-87602665D01*
X79351190Y-87697903D01*
X79351190Y-88078856D01*
X79160714Y-86650284D02*
X79827380Y-86650284D01*
X79160714Y-87078856D02*
X79684523Y-87078856D01*
X79779761Y-87031237D01*
X79827380Y-86935999D01*
X79827380Y-86793141D01*
X79779761Y-86697903D01*
X79732142Y-86650284D01*
X79779761Y-86221713D02*
X79827380Y-86126475D01*
X79827380Y-85935999D01*
X79779761Y-85840760D01*
X79684523Y-85793141D01*
X79636904Y-85793141D01*
X79541666Y-85840760D01*
X79494047Y-85935999D01*
X79494047Y-86078856D01*
X79446428Y-86174094D01*
X79351190Y-86221713D01*
X79303571Y-86221713D01*
X79208333Y-86174094D01*
X79160714Y-86078856D01*
X79160714Y-85935999D01*
X79208333Y-85840760D01*
X79827380Y-85364570D02*
X78827380Y-85364570D01*
X79827380Y-84935999D02*
X79303571Y-84935999D01*
X79208333Y-84983618D01*
X79160714Y-85078856D01*
X79160714Y-85221713D01*
X79208333Y-85316951D01*
X79255952Y-85364570D01*
X72498580Y-91186000D02*
X72736676Y-91186000D01*
X72641438Y-91424095D02*
X72736676Y-91186000D01*
X72641438Y-90947904D01*
X72927152Y-91328857D02*
X72736676Y-91186000D01*
X72927152Y-91043142D01*
X91173762Y-89269332D02*
X91221381Y-89126475D01*
X91221381Y-88888379D01*
X91173762Y-88793141D01*
X91126143Y-88745522D01*
X91030905Y-88697903D01*
X90935667Y-88697903D01*
X90840429Y-88745522D01*
X90792810Y-88793141D01*
X90745191Y-88888379D01*
X90697572Y-89078856D01*
X90649953Y-89174094D01*
X90602334Y-89221713D01*
X90507096Y-89269332D01*
X90411858Y-89269332D01*
X90316620Y-89221713D01*
X90269001Y-89174094D01*
X90221381Y-89078856D01*
X90221381Y-88840760D01*
X90269001Y-88697903D01*
X90221381Y-88364570D02*
X91221381Y-88126475D01*
X90507096Y-87935999D01*
X91221381Y-87745522D01*
X90221381Y-87507427D01*
X90649953Y-86983618D02*
X90602334Y-87078856D01*
X90554715Y-87126475D01*
X90459477Y-87174094D01*
X90411858Y-87174094D01*
X90316620Y-87126475D01*
X90269001Y-87078856D01*
X90221381Y-86983618D01*
X90221381Y-86793141D01*
X90269001Y-86697903D01*
X90316620Y-86650284D01*
X90411858Y-86602665D01*
X90459477Y-86602665D01*
X90554715Y-86650284D01*
X90602334Y-86697903D01*
X90649953Y-86793141D01*
X90649953Y-86983618D01*
X90697572Y-87078856D01*
X90745191Y-87126475D01*
X90840429Y-87174094D01*
X91030905Y-87174094D01*
X91126143Y-87126475D01*
X91173762Y-87078856D01*
X91221381Y-86983618D01*
X91221381Y-86793141D01*
X91173762Y-86697903D01*
X91126143Y-86650284D01*
X91030905Y-86602665D01*
X90840429Y-86602665D01*
X90745191Y-86650284D01*
X90697572Y-86697903D01*
X90649953Y-86793141D01*
X95273761Y-90983618D02*
X95321380Y-90840760D01*
X95321380Y-90602665D01*
X95273761Y-90507427D01*
X95226142Y-90459808D01*
X95130904Y-90412189D01*
X95035666Y-90412189D01*
X94940428Y-90459808D01*
X94892809Y-90507427D01*
X94845190Y-90602665D01*
X94797571Y-90793141D01*
X94749952Y-90888379D01*
X94702333Y-90935999D01*
X94607095Y-90983618D01*
X94511857Y-90983618D01*
X94416619Y-90935999D01*
X94369000Y-90888379D01*
X94321380Y-90793141D01*
X94321380Y-90555046D01*
X94369000Y-90412189D01*
X94321380Y-90078856D02*
X95321380Y-89840760D01*
X94607095Y-89650284D01*
X95321380Y-89459808D01*
X94321380Y-89221713D01*
X95416619Y-89078856D02*
X95416619Y-88316951D01*
X95321380Y-88078856D02*
X94321380Y-88078856D01*
X94321380Y-87697903D01*
X94369000Y-87602665D01*
X94416619Y-87555046D01*
X94511857Y-87507427D01*
X94654714Y-87507427D01*
X94749952Y-87555046D01*
X94797571Y-87602665D01*
X94845190Y-87697903D01*
X94845190Y-88078856D01*
X94654714Y-86650284D02*
X95321380Y-86650284D01*
X94654714Y-87078856D02*
X95178523Y-87078856D01*
X95273761Y-87031237D01*
X95321380Y-86935999D01*
X95321380Y-86793141D01*
X95273761Y-86697903D01*
X95226142Y-86650284D01*
X95273761Y-86221713D02*
X95321380Y-86126475D01*
X95321380Y-85935999D01*
X95273761Y-85840760D01*
X95178523Y-85793141D01*
X95130904Y-85793141D01*
X95035666Y-85840760D01*
X94988047Y-85935999D01*
X94988047Y-86078856D01*
X94940428Y-86174094D01*
X94845190Y-86221713D01*
X94797571Y-86221713D01*
X94702333Y-86174094D01*
X94654714Y-86078856D01*
X94654714Y-85935999D01*
X94702333Y-85840760D01*
X95321380Y-85364570D02*
X94321380Y-85364570D01*
X95321380Y-84935999D02*
X94797571Y-84935999D01*
X94702333Y-84983618D01*
X94654714Y-85078856D01*
X94654714Y-85221713D01*
X94702333Y-85316951D01*
X94749952Y-85364570D01*
X87971380Y-91186000D02*
X88209476Y-91186000D01*
X88114238Y-91424095D02*
X88209476Y-91186000D01*
X88114238Y-90947904D01*
X88399952Y-91328857D02*
X88209476Y-91186000D01*
X88399952Y-91043142D01*
X81672665Y-110503160D02*
X81815522Y-110550779D01*
X82053618Y-110550779D01*
X82148856Y-110503160D01*
X82196475Y-110455541D01*
X82244094Y-110360303D01*
X82244094Y-110265065D01*
X82196475Y-110169827D01*
X82148856Y-110122208D01*
X82053618Y-110074589D01*
X81863141Y-110026970D01*
X81767903Y-109979351D01*
X81720284Y-109931732D01*
X81672665Y-109836494D01*
X81672665Y-109741256D01*
X81720284Y-109646018D01*
X81767903Y-109598399D01*
X81863141Y-109550779D01*
X82101237Y-109550779D01*
X82244094Y-109598399D01*
X82577427Y-109550779D02*
X82815522Y-110550779D01*
X83005999Y-109836494D01*
X83196475Y-110550779D01*
X83434570Y-109550779D01*
X83863141Y-110550779D02*
X84053618Y-110550779D01*
X84148856Y-110503160D01*
X84196475Y-110455541D01*
X84291713Y-110312684D01*
X84339332Y-110122208D01*
X84339332Y-109741256D01*
X84291713Y-109646018D01*
X84244094Y-109598399D01*
X84148856Y-109550779D01*
X83958379Y-109550779D01*
X83863141Y-109598399D01*
X83815522Y-109646018D01*
X83767903Y-109741256D01*
X83767903Y-109979351D01*
X83815522Y-110074589D01*
X83863141Y-110122208D01*
X83958379Y-110169827D01*
X84148856Y-110169827D01*
X84244094Y-110122208D01*
X84291713Y-110074589D01*
X84339332Y-109979351D01*
X79958379Y-114577761D02*
X80101237Y-114625380D01*
X80339332Y-114625380D01*
X80434570Y-114577761D01*
X80482189Y-114530142D01*
X80529808Y-114434904D01*
X80529808Y-114339666D01*
X80482189Y-114244428D01*
X80434570Y-114196809D01*
X80339332Y-114149190D01*
X80148856Y-114101571D01*
X80053618Y-114053952D01*
X80005999Y-114006333D01*
X79958379Y-113911095D01*
X79958379Y-113815857D01*
X80005999Y-113720619D01*
X80053618Y-113673000D01*
X80148856Y-113625380D01*
X80386951Y-113625380D01*
X80529808Y-113673000D01*
X80863141Y-113625380D02*
X81101237Y-114625380D01*
X81291713Y-113911095D01*
X81482189Y-114625380D01*
X81720284Y-113625380D01*
X81863141Y-114720619D02*
X82625046Y-114720619D01*
X82863141Y-114625380D02*
X82863141Y-113625380D01*
X83244094Y-113625380D01*
X83339332Y-113673000D01*
X83386951Y-113720619D01*
X83434570Y-113815857D01*
X83434570Y-113958714D01*
X83386951Y-114053952D01*
X83339332Y-114101571D01*
X83244094Y-114149190D01*
X82863141Y-114149190D01*
X84291713Y-113958714D02*
X84291713Y-114625380D01*
X83863141Y-113958714D02*
X83863141Y-114482523D01*
X83910760Y-114577761D01*
X84005999Y-114625380D01*
X84148856Y-114625380D01*
X84244094Y-114577761D01*
X84291713Y-114530142D01*
X84720284Y-114577761D02*
X84815522Y-114625380D01*
X85005999Y-114625380D01*
X85101237Y-114577761D01*
X85148856Y-114482523D01*
X85148856Y-114434904D01*
X85101237Y-114339666D01*
X85005999Y-114292047D01*
X84863141Y-114292047D01*
X84767903Y-114244428D01*
X84720284Y-114149190D01*
X84720284Y-114101571D01*
X84767903Y-114006333D01*
X84863141Y-113958714D01*
X85005999Y-113958714D01*
X85101237Y-114006333D01*
X85577427Y-114625380D02*
X85577427Y-113625380D01*
X86005999Y-114625380D02*
X86005999Y-114101571D01*
X85958379Y-114006333D01*
X85863141Y-113958714D01*
X85720284Y-113958714D01*
X85625046Y-114006333D01*
X85577427Y-114053952D01*
X86256000Y-111800780D02*
X86256000Y-112038876D01*
X86017904Y-111943638D02*
X86256000Y-112038876D01*
X86494095Y-111943638D01*
X86113142Y-112229352D02*
X86256000Y-112038876D01*
X86398857Y-112229352D01*
X81196475Y-118703160D02*
X81339332Y-118750779D01*
X81577427Y-118750779D01*
X81672665Y-118703160D01*
X81720284Y-118655541D01*
X81767903Y-118560303D01*
X81767903Y-118465065D01*
X81720284Y-118369827D01*
X81672665Y-118322208D01*
X81577427Y-118274589D01*
X81386951Y-118226970D01*
X81291713Y-118179351D01*
X81244094Y-118131732D01*
X81196475Y-118036494D01*
X81196475Y-117941256D01*
X81244094Y-117846018D01*
X81291713Y-117798399D01*
X81386951Y-117750779D01*
X81625046Y-117750779D01*
X81767903Y-117798399D01*
X82101237Y-117750779D02*
X82339332Y-118750779D01*
X82529808Y-118036494D01*
X82720284Y-118750779D01*
X82958379Y-117750779D01*
X83863141Y-118750779D02*
X83291713Y-118750779D01*
X83577427Y-118750779D02*
X83577427Y-117750779D01*
X83482189Y-117893637D01*
X83386951Y-117988875D01*
X83291713Y-118036494D01*
X84482189Y-117750779D02*
X84577427Y-117750779D01*
X84672665Y-117798399D01*
X84720284Y-117846018D01*
X84767903Y-117941256D01*
X84815522Y-118131732D01*
X84815522Y-118369827D01*
X84767903Y-118560303D01*
X84720284Y-118655541D01*
X84672665Y-118703160D01*
X84577427Y-118750779D01*
X84482189Y-118750779D01*
X84386951Y-118703160D01*
X84339332Y-118655541D01*
X84291713Y-118560303D01*
X84244094Y-118369827D01*
X84244094Y-118131732D01*
X84291713Y-117941256D01*
X84339332Y-117846018D01*
X84386951Y-117798399D01*
X84482189Y-117750779D01*
X79958379Y-122832761D02*
X80101237Y-122880380D01*
X80339332Y-122880380D01*
X80434570Y-122832761D01*
X80482189Y-122785142D01*
X80529808Y-122689904D01*
X80529808Y-122594666D01*
X80482189Y-122499428D01*
X80434570Y-122451809D01*
X80339332Y-122404190D01*
X80148856Y-122356571D01*
X80053618Y-122308952D01*
X80005999Y-122261333D01*
X79958379Y-122166095D01*
X79958379Y-122070857D01*
X80005999Y-121975619D01*
X80053618Y-121928000D01*
X80148856Y-121880380D01*
X80386951Y-121880380D01*
X80529808Y-121928000D01*
X80863141Y-121880380D02*
X81101237Y-122880380D01*
X81291713Y-122166095D01*
X81482189Y-122880380D01*
X81720284Y-121880380D01*
X81863141Y-122975619D02*
X82625046Y-122975619D01*
X82863141Y-122880380D02*
X82863141Y-121880380D01*
X83244094Y-121880380D01*
X83339332Y-121928000D01*
X83386951Y-121975619D01*
X83434570Y-122070857D01*
X83434570Y-122213714D01*
X83386951Y-122308952D01*
X83339332Y-122356571D01*
X83244094Y-122404190D01*
X82863141Y-122404190D01*
X84291713Y-122213714D02*
X84291713Y-122880380D01*
X83863141Y-122213714D02*
X83863141Y-122737523D01*
X83910760Y-122832761D01*
X84005999Y-122880380D01*
X84148856Y-122880380D01*
X84244094Y-122832761D01*
X84291713Y-122785142D01*
X84720284Y-122832761D02*
X84815522Y-122880380D01*
X85005999Y-122880380D01*
X85101237Y-122832761D01*
X85148856Y-122737523D01*
X85148856Y-122689904D01*
X85101237Y-122594666D01*
X85005999Y-122547047D01*
X84863141Y-122547047D01*
X84767903Y-122499428D01*
X84720284Y-122404190D01*
X84720284Y-122356571D01*
X84767903Y-122261333D01*
X84863141Y-122213714D01*
X85005999Y-122213714D01*
X85101237Y-122261333D01*
X85577427Y-122880380D02*
X85577427Y-121880380D01*
X86005999Y-122880380D02*
X86005999Y-122356571D01*
X85958379Y-122261333D01*
X85863141Y-122213714D01*
X85720284Y-122213714D01*
X85625046Y-122261333D01*
X85577427Y-122308952D01*
X86256000Y-120000780D02*
X86256000Y-120238876D01*
X86017904Y-120143638D02*
X86256000Y-120238876D01*
X86494095Y-120143638D01*
X86113142Y-120429352D02*
X86256000Y-120238876D01*
X86398857Y-120429352D01*
M02*
