M48
INCH,TZ
T1C0.0150
T2C0.0315
T3C0.0354
T4C0.0394
T5C0.0394
T6C0.0409
T7C0.0591
T8C0.0620
T9C0.1063
%
G90
G05
T1
X36700Y-37200
X36700Y-39300
X45700Y-37100
X50100Y-37100
X58200Y-39600
X59200Y-39600
X64100Y-31200
T2
X41397Y-34515
X41397Y-35915
X41400Y-31710
X41400Y-33110
X44397Y-34515
X44397Y-35915
X44400Y-31710
X44400Y-33110
X45750Y-31710
X45755Y-33110
X45755Y-34510
X45755Y-35910
X48750Y-31710
X48755Y-33110
X48755Y-34510
X48755Y-35910
T3
X44400Y-28300
X45187Y-28300
X45975Y-28300
T4
X28728Y-33341
X28728Y-35900
X30500Y-33341
X30500Y-35900
X31441Y-30628
X31441Y-32400
X31441Y-36800
X31441Y-38572
X34000Y-30628
X34000Y-32400
X34000Y-36800
X34000Y-38572
X34900Y-33341
X34900Y-35900
X36672Y-33341
X36672Y-35900
X78028Y-33141
X78028Y-35700
X79800Y-33141
X79800Y-35700
X81400Y-29728
X81400Y-31500
X81400Y-37300
X81400Y-39072
X83959Y-29728
X83959Y-31500
X83959Y-37300
X83959Y-39072
X85600Y-33141
X85600Y-35700
X87372Y-33141
X87372Y-35700
T5
X38609Y-31932
X38609Y-32932
X38609Y-33932
X38609Y-34932
X38609Y-35932
X38609Y-36932
X38609Y-37932
X38609Y-38932
X38609Y-39932
X38609Y-40963
X38609Y-41963
X38609Y-42963
X38609Y-43963
X38609Y-44963
X75620Y-36745
X75620Y-37745
X75620Y-38745
X75620Y-39745
T6
X52321Y-28980
X52321Y-38980
X53321Y-28980
X53321Y-38980
X54321Y-28980
X54321Y-38980
X55321Y-28980
X55321Y-38980
X56321Y-28980
X56321Y-38980
X57321Y-28980
X57321Y-38980
X58321Y-28980
X58321Y-38980
X59321Y-28980
X59321Y-38980
X60321Y-28980
X60321Y-38980
X61321Y-28980
X61321Y-38980
X62321Y-28980
X62321Y-38980
X63321Y-28980
X63321Y-38980
X64321Y-28980
X64321Y-38980
X65321Y-28980
X65321Y-38980
X66321Y-28980
X66321Y-38980
X67321Y-28980
X67321Y-38980
X68321Y-28980
X68321Y-38980
X69321Y-28980
X69321Y-38980
X70321Y-28980
X70321Y-38980
T7
X43573Y-28300
X46802Y-28300
T8
X42350Y-44800
X70800Y-44800
T9
X39082Y-48255
X39200Y-28550
X75420Y-48294
X75499Y-28609
T0
M30
