M48
; DRILL file {KiCad 5.1.5+dfsg1-2build2} date Fri 04 Mar 2022 05:49:36 PM CET
; FORMAT={-:-/ absolute / inch / decimal}
; #@! TF.CreationDate,2022-03-04T17:49:36+01:00
; #@! TF.GenerationSoftware,Kicad,Pcbnew,5.1.5+dfsg1-2build2
FMAT,2
INCH
T1C0.0150
T2C0.0394
T3C0.0394
T4C0.0409
T5C0.0591
T6C0.0620
T7C0.1063
T8C0.1040
T9C0.1500
%
G90
G05
T1
X3.98Y-3.29
X4.072Y-2.8385
X4.39Y-3.075
X5.65Y-3.03
X6.09Y-2.97
X6.55Y-3.61
X7.09Y-3.12
T2
X2.8758Y-3.3341
X2.8758Y-3.59
X3.053Y-3.3341
X3.053Y-3.59
X8.1401Y-3.735
X8.1401Y-3.9122
X8.396Y-3.735
X8.396Y-3.9122
X3.14Y-4.5688
X3.14Y-4.746
X3.3959Y-4.5688
X3.3959Y-4.746
X3.14Y-4.246
X3.14Y-4.4232
X3.3959Y-4.246
X3.3959Y-4.4232
X2.525Y-3.9766
X2.7022Y-3.9766
X3.141Y-3.678
X3.141Y-3.8552
X3.3969Y-3.678
X3.3969Y-3.8552
X7.798Y-3.3161
X7.798Y-3.572
X7.9752Y-3.3161
X7.9752Y-3.572
X8.558Y-3.316
X8.558Y-3.5719
X8.7352Y-3.316
X8.7352Y-3.5719
X3.141Y-3.069
X3.141Y-3.2462
X3.3969Y-3.069
X3.3969Y-3.2462
X8.7736Y-3.9766
X8.9508Y-3.9766
X8.14Y-2.9678
X8.14Y-3.145
X8.3959Y-2.9678
X8.3959Y-3.145
X3.485Y-3.3341
X3.485Y-3.59
X3.6622Y-3.3341
X3.6622Y-3.59
T3
X8.13Y-4.49
X8.4292Y-4.49
X3.8609Y-3.1932
X3.8609Y-3.2932
X3.8609Y-3.3932
X3.8609Y-3.4932
X3.8609Y-3.5932
X3.8609Y-3.6932
X3.8609Y-3.7932
X3.8609Y-3.8932
X3.8609Y-3.9932
X3.8609Y-4.0963
X3.8609Y-4.1963
X3.8609Y-4.2963
X3.8609Y-4.3963
X3.8609Y-4.4963
X7.562Y-3.6745
X7.562Y-3.7745
X7.562Y-3.8745
X7.562Y-3.9745
T4
X5.25Y-2.9
X5.25Y-3.9
X5.35Y-2.9
X5.35Y-3.9
X5.45Y-2.9
X5.45Y-3.9
X5.55Y-2.9
X5.55Y-3.9
X5.65Y-2.9
X5.65Y-3.9
X5.75Y-2.9
X5.75Y-3.9
X5.85Y-2.9
X5.85Y-3.9
X5.95Y-2.9
X5.95Y-3.9
X6.05Y-2.9
X6.05Y-3.9
X6.15Y-2.9
X6.15Y-3.9
X6.25Y-2.9
X6.25Y-3.9
X6.35Y-2.9
X6.35Y-3.9
X6.45Y-2.9
X6.45Y-3.9
X6.55Y-2.9
X6.55Y-3.9
X6.65Y-2.9
X6.65Y-3.9
X6.75Y-2.9
X6.75Y-3.9
X6.85Y-2.9
X6.85Y-3.9
X6.95Y-2.9
X6.95Y-3.9
X7.05Y-2.9
X7.05Y-3.9
T5
X2.4758Y-4.075
X2.7514Y-4.075
X8.7244Y-4.075
X9.0Y-4.075
T6
X4.295Y-4.485
X7.14Y-4.485
T7
X3.9082Y-4.8255
X3.92Y-2.855
X7.542Y-4.8294
X7.5499Y-2.8609
T8
X4.295Y-4.795
T9
X4.625Y-4.175
X6.8Y-4.795
T0
M30
