G04 #@! TF.GenerationSoftware,KiCad,Pcbnew,5.1.5+dfsg1-2build2*
G04 #@! TF.CreationDate,2022-03-26T13:12:08+01:00*
G04 #@! TF.ProjectId,spelkonsoll,7370656c-6b6f-46e7-936f-6c6c2e6b6963,rev?*
G04 #@! TF.SameCoordinates,Original*
G04 #@! TF.FileFunction,Legend,Bot*
G04 #@! TF.FilePolarity,Positive*
%FSLAX46Y46*%
G04 Gerber Fmt 4.6, Leading zero omitted, Abs format (unit mm)*
G04 Created by KiCad (PCBNEW 5.1.5+dfsg1-2build2) date 2022-03-26 13:12:08*
%MOMM*%
%LPD*%
G04 APERTURE LIST*
%ADD10C,0.150000*%
%ADD11C,0.120000*%
%ADD12C,0.010000*%
%ADD13C,0.127000*%
G04 APERTURE END LIST*
D10*
X152026190Y-122007380D02*
X151454761Y-122007380D01*
X151740476Y-123007380D02*
X151740476Y-122007380D01*
X151169047Y-122721666D02*
X150692857Y-122721666D01*
X151264285Y-123007380D02*
X150930952Y-122007380D01*
X150597619Y-123007380D01*
X150264285Y-123007380D02*
X150264285Y-122007380D01*
X149930952Y-122721666D01*
X149597619Y-122007380D01*
X149597619Y-123007380D01*
X149169047Y-122721666D02*
X148692857Y-122721666D01*
X149264285Y-123007380D02*
X148930952Y-122007380D01*
X148597619Y-123007380D01*
X147740476Y-122055000D02*
X147835714Y-122007380D01*
X147978571Y-122007380D01*
X148121428Y-122055000D01*
X148216666Y-122150238D01*
X148264285Y-122245476D01*
X148311904Y-122435952D01*
X148311904Y-122578809D01*
X148264285Y-122769285D01*
X148216666Y-122864523D01*
X148121428Y-122959761D01*
X147978571Y-123007380D01*
X147883333Y-123007380D01*
X147740476Y-122959761D01*
X147692857Y-122912142D01*
X147692857Y-122578809D01*
X147883333Y-122578809D01*
X147264285Y-122007380D02*
X147264285Y-122816904D01*
X147216666Y-122912142D01*
X147169047Y-122959761D01*
X147073809Y-123007380D01*
X146883333Y-123007380D01*
X146788095Y-122959761D01*
X146740476Y-122912142D01*
X146692857Y-122816904D01*
X146692857Y-122007380D01*
X145645238Y-122912142D02*
X145692857Y-122959761D01*
X145835714Y-123007380D01*
X145930952Y-123007380D01*
X146073809Y-122959761D01*
X146169047Y-122864523D01*
X146216666Y-122769285D01*
X146264285Y-122578809D01*
X146264285Y-122435952D01*
X146216666Y-122245476D01*
X146169047Y-122150238D01*
X146073809Y-122055000D01*
X145930952Y-122007380D01*
X145835714Y-122007380D01*
X145692857Y-122055000D01*
X145645238Y-122102619D01*
X144645238Y-122912142D02*
X144692857Y-122959761D01*
X144835714Y-123007380D01*
X144930952Y-123007380D01*
X145073809Y-122959761D01*
X145169047Y-122864523D01*
X145216666Y-122769285D01*
X145264285Y-122578809D01*
X145264285Y-122435952D01*
X145216666Y-122245476D01*
X145169047Y-122150238D01*
X145073809Y-122055000D01*
X144930952Y-122007380D01*
X144835714Y-122007380D01*
X144692857Y-122055000D01*
X144645238Y-122102619D01*
X144216666Y-123007380D02*
X144216666Y-122007380D01*
X143121428Y-122007380D02*
X142788095Y-123007380D01*
X142454761Y-122007380D01*
X141930952Y-122007380D02*
X141835714Y-122007380D01*
X141740476Y-122055000D01*
X141692857Y-122102619D01*
X141645238Y-122197857D01*
X141597619Y-122388333D01*
X141597619Y-122626428D01*
X141645238Y-122816904D01*
X141692857Y-122912142D01*
X141740476Y-122959761D01*
X141835714Y-123007380D01*
X141930952Y-123007380D01*
X142026190Y-122959761D01*
X142073809Y-122912142D01*
X142121428Y-122816904D01*
X142169047Y-122626428D01*
X142169047Y-122388333D01*
X142121428Y-122197857D01*
X142073809Y-122102619D01*
X142026190Y-122055000D01*
X141930952Y-122007380D01*
X141169047Y-122912142D02*
X141121428Y-122959761D01*
X141169047Y-123007380D01*
X141216666Y-122959761D01*
X141169047Y-122912142D01*
X141169047Y-123007380D01*
X140169047Y-123007380D02*
X140740476Y-123007380D01*
X140454761Y-123007380D02*
X140454761Y-122007380D01*
X140550000Y-122150238D01*
X140645238Y-122245476D01*
X140740476Y-122293095D01*
X151073809Y-121737380D02*
X151073809Y-120737380D01*
X151073809Y-121213571D02*
X150502380Y-121213571D01*
X150502380Y-121737380D02*
X150502380Y-120737380D01*
X150073809Y-121451666D02*
X149597619Y-121451666D01*
X150169047Y-121737380D02*
X149835714Y-120737380D01*
X149502380Y-121737380D01*
X148597619Y-121642142D02*
X148645238Y-121689761D01*
X148788095Y-121737380D01*
X148883333Y-121737380D01*
X149026190Y-121689761D01*
X149121428Y-121594523D01*
X149169047Y-121499285D01*
X149216666Y-121308809D01*
X149216666Y-121165952D01*
X149169047Y-120975476D01*
X149121428Y-120880238D01*
X149026190Y-120785000D01*
X148883333Y-120737380D01*
X148788095Y-120737380D01*
X148645238Y-120785000D01*
X148597619Y-120832619D01*
X148169047Y-121737380D02*
X148169047Y-120737380D01*
X147597619Y-121737380D02*
X148026190Y-121165952D01*
X147597619Y-120737380D02*
X148169047Y-121308809D01*
X147169047Y-121213571D02*
X146835714Y-121213571D01*
X146692857Y-121737380D02*
X147169047Y-121737380D01*
X147169047Y-120737380D01*
X146692857Y-120737380D01*
X145692857Y-121737380D02*
X146026190Y-121261190D01*
X146264285Y-121737380D02*
X146264285Y-120737380D01*
X145883333Y-120737380D01*
X145788095Y-120785000D01*
X145740476Y-120832619D01*
X145692857Y-120927857D01*
X145692857Y-121070714D01*
X145740476Y-121165952D01*
X145788095Y-121213571D01*
X145883333Y-121261190D01*
X146264285Y-121261190D01*
X145311904Y-121689761D02*
X145169047Y-121737380D01*
X144930952Y-121737380D01*
X144835714Y-121689761D01*
X144788095Y-121642142D01*
X144740476Y-121546904D01*
X144740476Y-121451666D01*
X144788095Y-121356428D01*
X144835714Y-121308809D01*
X144930952Y-121261190D01*
X145121428Y-121213571D01*
X145216666Y-121165952D01*
X145264285Y-121118333D01*
X145311904Y-121023095D01*
X145311904Y-120927857D01*
X145264285Y-120832619D01*
X145216666Y-120785000D01*
X145121428Y-120737380D01*
X144883333Y-120737380D01*
X144740476Y-120785000D01*
X144311904Y-121737380D02*
X144311904Y-120737380D01*
X143930952Y-120737380D01*
X143835714Y-120785000D01*
X143788095Y-120832619D01*
X143740476Y-120927857D01*
X143740476Y-121070714D01*
X143788095Y-121165952D01*
X143835714Y-121213571D01*
X143930952Y-121261190D01*
X144311904Y-121261190D01*
X143359523Y-121451666D02*
X142883333Y-121451666D01*
X143454761Y-121737380D02*
X143121428Y-120737380D01*
X142788095Y-121737380D01*
X141883333Y-121642142D02*
X141930952Y-121689761D01*
X142073809Y-121737380D01*
X142169047Y-121737380D01*
X142311904Y-121689761D01*
X142407142Y-121594523D01*
X142454761Y-121499285D01*
X142502380Y-121308809D01*
X142502380Y-121165952D01*
X142454761Y-120975476D01*
X142407142Y-120880238D01*
X142311904Y-120785000D01*
X142169047Y-120737380D01*
X142073809Y-120737380D01*
X141930952Y-120785000D01*
X141883333Y-120832619D01*
X141454761Y-121213571D02*
X141121428Y-121213571D01*
X140978571Y-121737380D02*
X141454761Y-121737380D01*
X141454761Y-120737380D01*
X140978571Y-120737380D01*
D11*
X86408400Y-100461200D02*
G75*
G03X86408400Y-100461200I-127000J0D01*
G01*
D12*
G36*
X145824201Y-109426218D02*
G01*
X145745432Y-109440087D01*
X145597183Y-109478830D01*
X145453756Y-109533221D01*
X145316509Y-109602333D01*
X145186799Y-109685238D01*
X145065982Y-109781009D01*
X144955416Y-109888719D01*
X144856457Y-110007441D01*
X144802911Y-110084046D01*
X144725254Y-110218364D01*
X144662706Y-110359028D01*
X144615345Y-110504669D01*
X144583252Y-110653915D01*
X144566509Y-110805397D01*
X144565195Y-110957745D01*
X144579391Y-111109588D01*
X144609176Y-111259556D01*
X144654633Y-111406278D01*
X144715841Y-111548385D01*
X144716824Y-111550364D01*
X144792628Y-111683854D01*
X144882765Y-111809422D01*
X144985987Y-111925777D01*
X145101045Y-112031625D01*
X145226691Y-112125675D01*
X145338800Y-112194224D01*
X145425885Y-112237180D01*
X145523109Y-112276019D01*
X145626302Y-112309607D01*
X145731292Y-112336813D01*
X145833908Y-112356503D01*
X145929981Y-112367545D01*
X145984383Y-112369551D01*
X146050000Y-112369600D01*
X146050000Y-111965175D01*
X146030950Y-111960070D01*
X146010712Y-111956885D01*
X145982855Y-111955031D01*
X145972793Y-111954849D01*
X145903247Y-111949637D01*
X145824523Y-111935156D01*
X145740773Y-111912575D01*
X145656151Y-111883067D01*
X145574811Y-111847800D01*
X145551406Y-111836135D01*
X145436538Y-111767623D01*
X145332488Y-111686388D01*
X145240027Y-111593339D01*
X145159928Y-111489383D01*
X145092963Y-111375431D01*
X145039904Y-111252392D01*
X145029388Y-111221801D01*
X144996076Y-111093607D01*
X144979143Y-110963986D01*
X144978272Y-110834345D01*
X144993145Y-110706091D01*
X145023448Y-110580629D01*
X145068863Y-110459367D01*
X145129075Y-110343711D01*
X145203765Y-110235068D01*
X145268257Y-110159925D01*
X145366129Y-110068028D01*
X145473819Y-109989874D01*
X145591020Y-109925634D01*
X145717428Y-109875475D01*
X145842567Y-109841704D01*
X145895548Y-109833487D01*
X145959957Y-109828346D01*
X146030571Y-109826292D01*
X146102164Y-109827336D01*
X146169510Y-109831489D01*
X146227386Y-109838763D01*
X146238594Y-109840836D01*
X146367343Y-109874675D01*
X146488920Y-109922908D01*
X146602409Y-109984459D01*
X146706891Y-110058252D01*
X146801449Y-110143211D01*
X146885166Y-110238257D01*
X146957123Y-110342316D01*
X147016403Y-110454310D01*
X147062088Y-110573162D01*
X147093262Y-110697797D01*
X147109005Y-110827137D01*
X147110518Y-110863820D01*
X147112444Y-110945033D01*
X147231039Y-110950489D01*
X147284373Y-110953046D01*
X147341335Y-110955945D01*
X147395020Y-110958827D01*
X147437640Y-110961278D01*
X147525647Y-110966609D01*
X147520707Y-110827788D01*
X147507131Y-110671853D01*
X147477606Y-110521323D01*
X147431979Y-110375722D01*
X147370098Y-110234580D01*
X147291811Y-110097420D01*
X147280098Y-110079367D01*
X147186986Y-109952824D01*
X147082676Y-109838318D01*
X146968285Y-109736316D01*
X146844929Y-109647282D01*
X146713725Y-109571681D01*
X146575789Y-109509979D01*
X146432237Y-109462640D01*
X146284186Y-109430129D01*
X146132752Y-109412912D01*
X145979051Y-109411454D01*
X145824201Y-109426218D01*
G37*
X145824201Y-109426218D02*
X145745432Y-109440087D01*
X145597183Y-109478830D01*
X145453756Y-109533221D01*
X145316509Y-109602333D01*
X145186799Y-109685238D01*
X145065982Y-109781009D01*
X144955416Y-109888719D01*
X144856457Y-110007441D01*
X144802911Y-110084046D01*
X144725254Y-110218364D01*
X144662706Y-110359028D01*
X144615345Y-110504669D01*
X144583252Y-110653915D01*
X144566509Y-110805397D01*
X144565195Y-110957745D01*
X144579391Y-111109588D01*
X144609176Y-111259556D01*
X144654633Y-111406278D01*
X144715841Y-111548385D01*
X144716824Y-111550364D01*
X144792628Y-111683854D01*
X144882765Y-111809422D01*
X144985987Y-111925777D01*
X145101045Y-112031625D01*
X145226691Y-112125675D01*
X145338800Y-112194224D01*
X145425885Y-112237180D01*
X145523109Y-112276019D01*
X145626302Y-112309607D01*
X145731292Y-112336813D01*
X145833908Y-112356503D01*
X145929981Y-112367545D01*
X145984383Y-112369551D01*
X146050000Y-112369600D01*
X146050000Y-111965175D01*
X146030950Y-111960070D01*
X146010712Y-111956885D01*
X145982855Y-111955031D01*
X145972793Y-111954849D01*
X145903247Y-111949637D01*
X145824523Y-111935156D01*
X145740773Y-111912575D01*
X145656151Y-111883067D01*
X145574811Y-111847800D01*
X145551406Y-111836135D01*
X145436538Y-111767623D01*
X145332488Y-111686388D01*
X145240027Y-111593339D01*
X145159928Y-111489383D01*
X145092963Y-111375431D01*
X145039904Y-111252392D01*
X145029388Y-111221801D01*
X144996076Y-111093607D01*
X144979143Y-110963986D01*
X144978272Y-110834345D01*
X144993145Y-110706091D01*
X145023448Y-110580629D01*
X145068863Y-110459367D01*
X145129075Y-110343711D01*
X145203765Y-110235068D01*
X145268257Y-110159925D01*
X145366129Y-110068028D01*
X145473819Y-109989874D01*
X145591020Y-109925634D01*
X145717428Y-109875475D01*
X145842567Y-109841704D01*
X145895548Y-109833487D01*
X145959957Y-109828346D01*
X146030571Y-109826292D01*
X146102164Y-109827336D01*
X146169510Y-109831489D01*
X146227386Y-109838763D01*
X146238594Y-109840836D01*
X146367343Y-109874675D01*
X146488920Y-109922908D01*
X146602409Y-109984459D01*
X146706891Y-110058252D01*
X146801449Y-110143211D01*
X146885166Y-110238257D01*
X146957123Y-110342316D01*
X147016403Y-110454310D01*
X147062088Y-110573162D01*
X147093262Y-110697797D01*
X147109005Y-110827137D01*
X147110518Y-110863820D01*
X147112444Y-110945033D01*
X147231039Y-110950489D01*
X147284373Y-110953046D01*
X147341335Y-110955945D01*
X147395020Y-110958827D01*
X147437640Y-110961278D01*
X147525647Y-110966609D01*
X147520707Y-110827788D01*
X147507131Y-110671853D01*
X147477606Y-110521323D01*
X147431979Y-110375722D01*
X147370098Y-110234580D01*
X147291811Y-110097420D01*
X147280098Y-110079367D01*
X147186986Y-109952824D01*
X147082676Y-109838318D01*
X146968285Y-109736316D01*
X146844929Y-109647282D01*
X146713725Y-109571681D01*
X146575789Y-109509979D01*
X146432237Y-109462640D01*
X146284186Y-109430129D01*
X146132752Y-109412912D01*
X145979051Y-109411454D01*
X145824201Y-109426218D01*
G36*
X147492000Y-105796778D02*
G01*
X147447483Y-105814385D01*
X147405217Y-105845883D01*
X147386790Y-105864108D01*
X147375015Y-105877189D01*
X147353239Y-105902068D01*
X147322415Y-105937633D01*
X147283500Y-105982771D01*
X147237447Y-106036369D01*
X147185211Y-106097314D01*
X147127747Y-106164495D01*
X147066011Y-106236799D01*
X147000955Y-106313112D01*
X146934947Y-106390664D01*
X146868512Y-106468669D01*
X146805136Y-106542871D01*
X146745691Y-106612265D01*
X146691044Y-106675844D01*
X146642068Y-106732604D01*
X146599631Y-106781537D01*
X146564604Y-106821639D01*
X146537857Y-106851904D01*
X146520259Y-106871325D01*
X146512681Y-106878898D01*
X146512557Y-106878956D01*
X146502573Y-106879549D01*
X146477162Y-106880236D01*
X146437832Y-106880995D01*
X146386088Y-106881807D01*
X146323437Y-106882651D01*
X146251387Y-106883506D01*
X146171442Y-106884353D01*
X146085111Y-106885170D01*
X145998920Y-106885899D01*
X145494873Y-106889913D01*
X145042186Y-106377680D01*
X144950580Y-106274202D01*
X144869579Y-106183096D01*
X144798752Y-106103889D01*
X144737666Y-106036113D01*
X144685890Y-105979295D01*
X144642992Y-105932966D01*
X144608539Y-105896654D01*
X144582100Y-105869890D01*
X144563242Y-105852202D01*
X144551534Y-105843120D01*
X144551400Y-105843041D01*
X144526594Y-105830340D01*
X144502595Y-105823629D01*
X144472253Y-105821310D01*
X144454034Y-105821280D01*
X144440403Y-105821610D01*
X144427182Y-105822647D01*
X144412928Y-105824929D01*
X144396201Y-105828994D01*
X144375558Y-105835382D01*
X144349558Y-105844630D01*
X144316760Y-105857278D01*
X144275722Y-105873863D01*
X144225002Y-105894924D01*
X144163160Y-105920999D01*
X144088753Y-105952628D01*
X144000340Y-105990349D01*
X143992600Y-105993653D01*
X143914073Y-106027221D01*
X143839635Y-106059110D01*
X143770862Y-106088640D01*
X143709331Y-106115132D01*
X143656618Y-106137905D01*
X143614299Y-106156280D01*
X143583950Y-106169575D01*
X143567147Y-106177112D01*
X143565034Y-106178124D01*
X143519323Y-106210103D01*
X143483359Y-106253630D01*
X143460111Y-106304737D01*
X143455322Y-106324794D01*
X143455171Y-106337667D01*
X143456342Y-106366079D01*
X143458740Y-106408696D01*
X143462271Y-106464183D01*
X143466841Y-106531204D01*
X143472357Y-106608426D01*
X143478724Y-106694513D01*
X143485847Y-106788131D01*
X143493634Y-106887945D01*
X143501989Y-106992620D01*
X143505090Y-107030893D01*
X143560150Y-107707752D01*
X143516267Y-107754793D01*
X143501856Y-107769908D01*
X143476859Y-107795748D01*
X143442579Y-107830980D01*
X143400321Y-107874271D01*
X143351387Y-107924287D01*
X143297080Y-107979696D01*
X143238704Y-108039165D01*
X143177561Y-108101361D01*
X143156485Y-108122779D01*
X142840587Y-108443725D01*
X142184300Y-108403335D01*
X142079023Y-108396941D01*
X141977592Y-108390948D01*
X141881432Y-108385427D01*
X141791972Y-108380455D01*
X141710638Y-108376105D01*
X141638858Y-108372452D01*
X141578059Y-108369569D01*
X141529668Y-108367532D01*
X141495113Y-108366415D01*
X141475820Y-108366291D01*
X141474360Y-108366361D01*
X141418291Y-108377323D01*
X141370762Y-108402818D01*
X141331213Y-108442851D01*
X141324051Y-108455900D01*
X141311286Y-108483110D01*
X141293587Y-108522911D01*
X141271621Y-108573733D01*
X141246059Y-108634008D01*
X141217568Y-108702167D01*
X141186818Y-108776640D01*
X141154476Y-108855858D01*
X141140028Y-108891530D01*
X141102755Y-108983863D01*
X141071359Y-109061922D01*
X141045336Y-109127122D01*
X141024184Y-109180874D01*
X141007401Y-109224592D01*
X140994483Y-109259688D01*
X140984928Y-109287575D01*
X140978234Y-109309666D01*
X140973896Y-109327374D01*
X140971414Y-109342111D01*
X140970283Y-109355290D01*
X140970001Y-109368324D01*
X140970000Y-109369340D01*
X140969894Y-109386654D01*
X140970106Y-109402085D01*
X140971431Y-109416453D01*
X140974664Y-109430572D01*
X140980600Y-109445262D01*
X140990035Y-109461338D01*
X141003765Y-109479619D01*
X141022583Y-109500922D01*
X141047286Y-109526064D01*
X141078668Y-109555862D01*
X141117525Y-109591134D01*
X141164652Y-109632697D01*
X141220844Y-109681369D01*
X141286897Y-109737965D01*
X141363606Y-109803305D01*
X141451765Y-109878205D01*
X141528626Y-109943480D01*
X142052199Y-110388231D01*
X142057079Y-110458166D01*
X142058078Y-110480281D01*
X142059110Y-110517417D01*
X142060145Y-110567662D01*
X142061157Y-110629102D01*
X142062116Y-110699825D01*
X142062997Y-110777918D01*
X142063769Y-110861470D01*
X142064407Y-110948567D01*
X142064548Y-110971682D01*
X142067138Y-111415263D01*
X141557594Y-111866543D01*
X141477893Y-111937240D01*
X141401608Y-112005121D01*
X141329729Y-112069292D01*
X141263247Y-112128858D01*
X141203155Y-112182924D01*
X141150441Y-112230595D01*
X141106099Y-112270977D01*
X141071119Y-112303174D01*
X141046491Y-112326293D01*
X141033207Y-112339439D01*
X141031367Y-112341594D01*
X141006952Y-112390599D01*
X140996755Y-112445855D01*
X140997338Y-112474266D01*
X141000261Y-112489541D01*
X141007234Y-112512983D01*
X141018646Y-112545580D01*
X141034887Y-112588320D01*
X141056345Y-112642194D01*
X141083409Y-112708189D01*
X141116468Y-112787294D01*
X141155912Y-112880498D01*
X141172312Y-112919011D01*
X141205923Y-112997716D01*
X141237972Y-113072534D01*
X141267763Y-113141857D01*
X141294598Y-113204072D01*
X141317781Y-113257570D01*
X141336615Y-113300741D01*
X141350405Y-113331973D01*
X141358453Y-113349656D01*
X141359533Y-113351863D01*
X141391302Y-113396427D01*
X141434226Y-113428980D01*
X141486649Y-113448583D01*
X141540378Y-113454377D01*
X141557098Y-113453698D01*
X141589257Y-113451737D01*
X141635419Y-113448601D01*
X141694147Y-113444398D01*
X141764005Y-113439235D01*
X141843557Y-113433221D01*
X141931365Y-113426462D01*
X142025993Y-113419067D01*
X142126004Y-113411142D01*
X142229962Y-113402795D01*
X142235700Y-113402331D01*
X142357458Y-113392524D01*
X142463431Y-113384086D01*
X142554707Y-113376950D01*
X142632372Y-113371050D01*
X142697513Y-113366318D01*
X142751219Y-113362688D01*
X142794575Y-113360092D01*
X142828670Y-113358464D01*
X142854590Y-113357736D01*
X142873423Y-113357842D01*
X142886256Y-113358715D01*
X142894176Y-113360287D01*
X142897121Y-113361600D01*
X142906311Y-113369482D01*
X142926412Y-113388187D01*
X142956298Y-113416627D01*
X142994845Y-113453713D01*
X143040929Y-113498356D01*
X143093425Y-113549468D01*
X143151210Y-113605959D01*
X143213157Y-113666741D01*
X143268219Y-113720938D01*
X143621294Y-114068975D01*
X143579018Y-114752478D01*
X143571025Y-114881329D01*
X143564029Y-114994397D01*
X143558062Y-115092805D01*
X143553155Y-115177676D01*
X143549341Y-115250132D01*
X143546652Y-115311297D01*
X143545119Y-115362293D01*
X143544774Y-115404243D01*
X143545651Y-115438270D01*
X143547779Y-115465497D01*
X143551192Y-115487047D01*
X143555921Y-115504041D01*
X143561998Y-115517605D01*
X143569456Y-115528859D01*
X143578325Y-115538927D01*
X143588639Y-115548933D01*
X143600428Y-115559998D01*
X143602031Y-115561534D01*
X143611959Y-115570590D01*
X143623053Y-115579280D01*
X143636741Y-115588250D01*
X143654452Y-115598147D01*
X143677613Y-115609617D01*
X143707652Y-115623306D01*
X143745996Y-115639860D01*
X143794075Y-115659926D01*
X143853316Y-115684150D01*
X143925147Y-115713178D01*
X144010995Y-115747656D01*
X144030887Y-115755629D01*
X144104632Y-115785428D01*
X144180881Y-115816755D01*
X144260795Y-115850114D01*
X144345536Y-115886015D01*
X144436266Y-115924965D01*
X144534147Y-115967469D01*
X144640340Y-116014037D01*
X144756008Y-116065175D01*
X144882313Y-116121391D01*
X145020416Y-116183191D01*
X145171480Y-116251084D01*
X145336666Y-116325575D01*
X145347267Y-116330363D01*
X145542747Y-116418488D01*
X145724926Y-116500275D01*
X145893630Y-116575647D01*
X146048688Y-116644532D01*
X146189927Y-116706852D01*
X146317172Y-116762533D01*
X146430251Y-116811501D01*
X146528992Y-116853680D01*
X146613220Y-116888995D01*
X146682764Y-116917370D01*
X146737451Y-116938732D01*
X146777106Y-116953005D01*
X146795186Y-116958566D01*
X146816689Y-116963182D01*
X146838198Y-116964648D01*
X146861735Y-116962308D01*
X146889324Y-116955504D01*
X146922989Y-116943577D01*
X146964752Y-116925871D01*
X147016639Y-116901728D01*
X147080670Y-116870491D01*
X147108134Y-116856859D01*
X147168719Y-116826767D01*
X147215988Y-116803574D01*
X147251752Y-116786565D01*
X147277820Y-116775026D01*
X147296002Y-116768243D01*
X147308107Y-116765502D01*
X147315947Y-116766087D01*
X147321330Y-116769285D01*
X147323761Y-116771745D01*
X147327475Y-116777105D01*
X147328927Y-116784198D01*
X147327400Y-116794813D01*
X147322179Y-116810738D01*
X147312545Y-116833763D01*
X147297782Y-116865675D01*
X147277172Y-116908262D01*
X147250000Y-116963314D01*
X147234275Y-116994973D01*
X147203488Y-117057083D01*
X147179491Y-117106184D01*
X147161445Y-117144384D01*
X147148506Y-117173788D01*
X147139832Y-117196504D01*
X147134583Y-117214638D01*
X147131915Y-117230296D01*
X147130986Y-117245586D01*
X147130911Y-117253594D01*
X147131018Y-117271557D01*
X147132014Y-117286638D01*
X147134916Y-117301458D01*
X147140738Y-117318637D01*
X147150495Y-117340793D01*
X147165203Y-117370548D01*
X147185877Y-117410521D01*
X147208348Y-117453439D01*
X147253552Y-117549355D01*
X147290357Y-117649878D01*
X147307790Y-117708762D01*
X147319175Y-117745776D01*
X147331844Y-117780229D01*
X147343487Y-117805988D01*
X147346125Y-117810607D01*
X147359082Y-117829169D01*
X147374604Y-117845656D01*
X147394595Y-117861022D01*
X147420960Y-117876222D01*
X147455604Y-117892211D01*
X147500432Y-117909943D01*
X147557348Y-117930374D01*
X147628257Y-117954457D01*
X147642800Y-117959302D01*
X147706516Y-117980550D01*
X147755926Y-117997299D01*
X147792815Y-118010323D01*
X147818967Y-118020398D01*
X147836169Y-118028302D01*
X147846203Y-118034809D01*
X147850856Y-118040696D01*
X147851911Y-118046738D01*
X147851642Y-118050102D01*
X147849832Y-118056625D01*
X147844869Y-118062908D01*
X147834963Y-118069718D01*
X147818320Y-118077826D01*
X147793150Y-118087999D01*
X147757662Y-118101005D01*
X147710063Y-118117614D01*
X147648562Y-118138594D01*
X147633267Y-118143778D01*
X147565743Y-118166486D01*
X147510166Y-118185610D01*
X147464770Y-118202922D01*
X147427792Y-118220196D01*
X147397468Y-118239204D01*
X147372035Y-118261720D01*
X147349729Y-118289518D01*
X147328786Y-118324369D01*
X147307443Y-118368048D01*
X147283935Y-118422328D01*
X147256499Y-118488981D01*
X147233157Y-118546034D01*
X147201787Y-118621913D01*
X147176229Y-118684377D01*
X147156481Y-118735912D01*
X147142545Y-118779008D01*
X147134420Y-118816153D01*
X147132107Y-118849836D01*
X147135605Y-118882546D01*
X147144914Y-118916771D01*
X147160036Y-118955000D01*
X147180969Y-118999721D01*
X147207714Y-119053423D01*
X147233182Y-119104296D01*
X147263592Y-119165550D01*
X147287143Y-119213452D01*
X147304532Y-119249805D01*
X147316458Y-119276408D01*
X147323619Y-119295065D01*
X147326714Y-119307576D01*
X147326441Y-119315742D01*
X147323499Y-119321365D01*
X147319062Y-119325816D01*
X147313625Y-119330024D01*
X147307139Y-119332201D01*
X147297806Y-119331643D01*
X147283831Y-119327642D01*
X147263417Y-119319494D01*
X147234768Y-119306491D01*
X147196088Y-119287928D01*
X147145581Y-119263098D01*
X147092160Y-119236613D01*
X147030754Y-119205865D01*
X146980178Y-119180794D01*
X146937963Y-119161413D01*
X146901644Y-119147734D01*
X146868754Y-119139770D01*
X146836824Y-119137533D01*
X146803389Y-119141035D01*
X146765982Y-119150290D01*
X146722135Y-119165310D01*
X146669381Y-119186106D01*
X146605254Y-119212692D01*
X146541067Y-119239394D01*
X146465213Y-119271008D01*
X146403422Y-119297478D01*
X146353953Y-119319747D01*
X146315069Y-119338762D01*
X146285032Y-119355469D01*
X146262102Y-119370814D01*
X146244542Y-119385741D01*
X146230613Y-119401196D01*
X146222018Y-119412946D01*
X146214318Y-119428300D01*
X146202356Y-119457252D01*
X146187070Y-119497286D01*
X146169401Y-119545886D01*
X146150290Y-119600536D01*
X146134530Y-119647110D01*
X146113491Y-119710060D01*
X146096954Y-119758758D01*
X146084111Y-119795033D01*
X146074151Y-119820712D01*
X146066265Y-119837622D01*
X146059643Y-119847590D01*
X146053477Y-119852444D01*
X146046955Y-119854011D01*
X146042811Y-119854134D01*
X146035639Y-119853610D01*
X146029321Y-119850800D01*
X146023032Y-119843847D01*
X146015951Y-119830896D01*
X146007254Y-119810088D01*
X145996118Y-119779567D01*
X145981721Y-119737477D01*
X145963239Y-119681960D01*
X145953683Y-119653050D01*
X145929013Y-119579297D01*
X145908290Y-119519911D01*
X145890633Y-119473030D01*
X145875160Y-119436790D01*
X145860989Y-119409329D01*
X145847240Y-119388785D01*
X145833031Y-119373293D01*
X145817481Y-119360992D01*
X145814582Y-119359046D01*
X145798942Y-119350592D01*
X145769905Y-119336678D01*
X145729724Y-119318315D01*
X145680652Y-119296511D01*
X145624942Y-119272277D01*
X145564845Y-119246622D01*
X145546233Y-119238772D01*
X145470666Y-119206855D01*
X145408373Y-119180965D01*
X145356803Y-119161109D01*
X145313404Y-119147292D01*
X145275623Y-119139519D01*
X145240910Y-119137796D01*
X145206712Y-119142129D01*
X145170477Y-119152523D01*
X145129654Y-119168984D01*
X145081691Y-119191517D01*
X145024036Y-119220128D01*
X144984161Y-119240000D01*
X144913779Y-119275001D01*
X144857650Y-119302311D01*
X144815029Y-119321130D01*
X144785173Y-119330659D01*
X144767338Y-119330100D01*
X144760779Y-119318654D01*
X144764753Y-119295521D01*
X144778516Y-119259904D01*
X144801323Y-119211004D01*
X144832431Y-119148021D01*
X144855439Y-119101793D01*
X144959926Y-118891337D01*
X144956093Y-118837219D01*
X144953974Y-118818902D01*
X144949665Y-118798049D01*
X144942477Y-118772694D01*
X144931721Y-118740869D01*
X144916708Y-118700606D01*
X144896748Y-118649938D01*
X144871152Y-118586898D01*
X144852589Y-118541801D01*
X144821126Y-118466150D01*
X144794914Y-118404592D01*
X144773050Y-118355446D01*
X144754629Y-118317032D01*
X144738747Y-118287666D01*
X144724501Y-118265667D01*
X144710986Y-118249355D01*
X144697299Y-118237048D01*
X144683769Y-118227813D01*
X144668637Y-118220771D01*
X144639885Y-118209405D01*
X144599997Y-118194618D01*
X144551460Y-118177317D01*
X144496758Y-118158405D01*
X144447684Y-118141877D01*
X144384302Y-118120733D01*
X144335185Y-118104092D01*
X144298515Y-118091153D01*
X144272475Y-118081115D01*
X144255249Y-118073177D01*
X144245020Y-118066537D01*
X144239972Y-118060393D01*
X144238286Y-118053945D01*
X144238134Y-118049448D01*
X144238647Y-118042410D01*
X144241398Y-118036173D01*
X144248204Y-118029936D01*
X144260881Y-118022898D01*
X144281247Y-118014258D01*
X144311118Y-118003215D01*
X144352312Y-117988968D01*
X144406645Y-117970715D01*
X144447684Y-117957050D01*
X144510265Y-117935767D01*
X144567361Y-117915445D01*
X144616644Y-117896973D01*
X144655788Y-117881239D01*
X144682466Y-117869129D01*
X144691420Y-117864042D01*
X144704301Y-117854487D01*
X144716142Y-117843396D01*
X144727783Y-117829138D01*
X144740060Y-117810084D01*
X144753812Y-117784605D01*
X144769877Y-117751070D01*
X144789092Y-117707851D01*
X144812296Y-117653316D01*
X144840326Y-117585838D01*
X144863667Y-117529056D01*
X144891487Y-117460832D01*
X144913348Y-117406165D01*
X144929936Y-117363039D01*
X144941937Y-117329435D01*
X144950036Y-117303336D01*
X144954920Y-117282724D01*
X144957275Y-117265582D01*
X144957800Y-117252231D01*
X144957382Y-117238942D01*
X144955639Y-117225389D01*
X144951840Y-117209850D01*
X144945254Y-117190606D01*
X144935150Y-117165934D01*
X144920795Y-117134115D01*
X144901459Y-117093427D01*
X144876409Y-117042149D01*
X144844916Y-116978561D01*
X144821473Y-116931476D01*
X144790125Y-116868646D01*
X144761183Y-116810758D01*
X144735508Y-116759524D01*
X144713960Y-116716654D01*
X144697398Y-116683860D01*
X144686683Y-116662852D01*
X144682687Y-116655354D01*
X144675017Y-116658384D01*
X144654741Y-116667753D01*
X144624391Y-116682216D01*
X144586500Y-116700526D01*
X144543601Y-116721438D01*
X144498227Y-116743704D01*
X144452910Y-116766080D01*
X144410183Y-116787318D01*
X144372579Y-116806172D01*
X144342631Y-116821397D01*
X144322870Y-116831746D01*
X144315958Y-116835795D01*
X144318913Y-116843667D01*
X144328557Y-116864719D01*
X144343953Y-116897009D01*
X144364165Y-116938598D01*
X144388255Y-116987545D01*
X144415288Y-117041910D01*
X144419356Y-117050046D01*
X144525362Y-117261929D01*
X144415036Y-117530559D01*
X144179109Y-117609033D01*
X144102587Y-117634741D01*
X144040418Y-117656407D01*
X143990774Y-117674971D01*
X143951823Y-117691371D01*
X143921737Y-117706548D01*
X143898685Y-117721441D01*
X143880838Y-117736990D01*
X143866365Y-117754134D01*
X143853437Y-117773813D01*
X143851350Y-117777327D01*
X143827500Y-117817901D01*
X143824757Y-118029567D01*
X143824140Y-118111794D01*
X143824645Y-118177462D01*
X143826280Y-118226907D01*
X143829057Y-118260467D01*
X143831802Y-118275101D01*
X143852830Y-118323615D01*
X143884332Y-118365108D01*
X143920039Y-118393200D01*
X143937124Y-118401025D01*
X143967845Y-118413130D01*
X144009715Y-118428616D01*
X144060250Y-118446583D01*
X144116963Y-118466131D01*
X144177367Y-118486361D01*
X144178867Y-118486856D01*
X144237516Y-118506334D01*
X144290932Y-118524335D01*
X144336988Y-118540121D01*
X144373561Y-118552956D01*
X144398524Y-118562102D01*
X144409753Y-118566823D01*
X144410064Y-118567046D01*
X144415425Y-118576591D01*
X144425950Y-118599104D01*
X144440431Y-118631866D01*
X144457660Y-118672156D01*
X144471579Y-118705486D01*
X144526262Y-118837730D01*
X144410750Y-119068633D01*
X144377960Y-119134337D01*
X144352021Y-119186893D01*
X144332130Y-119228257D01*
X144317483Y-119260386D01*
X144307275Y-119285234D01*
X144300702Y-119304760D01*
X144296960Y-119320917D01*
X144295246Y-119335663D01*
X144294755Y-119350798D01*
X144295486Y-119377547D01*
X144299060Y-119401699D01*
X144306746Y-119425126D01*
X144319809Y-119449704D01*
X144339515Y-119477304D01*
X144367130Y-119509801D01*
X144403922Y-119549068D01*
X144451156Y-119596979D01*
X144481653Y-119627304D01*
X144528615Y-119673658D01*
X144565517Y-119709529D01*
X144594231Y-119736450D01*
X144616631Y-119755952D01*
X144634590Y-119769566D01*
X144649982Y-119778823D01*
X144664679Y-119785255D01*
X144680555Y-119790393D01*
X144681483Y-119790664D01*
X144733964Y-119800577D01*
X144768835Y-119799313D01*
X144788409Y-119793574D01*
X144821455Y-119780495D01*
X144866515Y-119760731D01*
X144922132Y-119734934D01*
X144986848Y-119703757D01*
X145032600Y-119681166D01*
X145258367Y-119568717D01*
X145528065Y-119681209D01*
X145606780Y-119917183D01*
X145627723Y-119978845D01*
X145648048Y-120036607D01*
X145666873Y-120088120D01*
X145683316Y-120131032D01*
X145696495Y-120162994D01*
X145705528Y-120181655D01*
X145706744Y-120183562D01*
X145742495Y-120221939D01*
X145787232Y-120250655D01*
X145813738Y-120260765D01*
X145832839Y-120263657D01*
X145865554Y-120265863D01*
X145908912Y-120267406D01*
X145959944Y-120268304D01*
X146015680Y-120268580D01*
X146073150Y-120268255D01*
X146129385Y-120267350D01*
X146181415Y-120265886D01*
X146226271Y-120263884D01*
X146260981Y-120261366D01*
X146282578Y-120258351D01*
X146285906Y-120257408D01*
X146322032Y-120238275D01*
X146357684Y-120209401D01*
X146386468Y-120176408D01*
X146396116Y-120160467D01*
X146402874Y-120144318D01*
X146414025Y-120114503D01*
X146428712Y-120073455D01*
X146446079Y-120023607D01*
X146465266Y-119967392D01*
X146485418Y-119907242D01*
X146486359Y-119904406D01*
X146560938Y-119679511D01*
X146832168Y-119567825D01*
X147061267Y-119682798D01*
X147126378Y-119715417D01*
X147178359Y-119741205D01*
X147219191Y-119760966D01*
X147250859Y-119775504D01*
X147275345Y-119785624D01*
X147294633Y-119792130D01*
X147310706Y-119795826D01*
X147325547Y-119797517D01*
X147341139Y-119798006D01*
X147345400Y-119798036D01*
X147374021Y-119796915D01*
X147400246Y-119792413D01*
X147425976Y-119783261D01*
X147453111Y-119768188D01*
X147483552Y-119745922D01*
X147519200Y-119715193D01*
X147561954Y-119674731D01*
X147613717Y-119623264D01*
X147627165Y-119609668D01*
X147677699Y-119557944D01*
X147717217Y-119515824D01*
X147746971Y-119481241D01*
X147768217Y-119452133D01*
X147782210Y-119426434D01*
X147790205Y-119402080D01*
X147793456Y-119377007D01*
X147793219Y-119349151D01*
X147792496Y-119337687D01*
X147790686Y-119321262D01*
X147787115Y-119304006D01*
X147780950Y-119283930D01*
X147771358Y-119259046D01*
X147757509Y-119227364D01*
X147738569Y-119186896D01*
X147713707Y-119135654D01*
X147682090Y-119071647D01*
X147676344Y-119060079D01*
X147563908Y-118833835D01*
X147616154Y-118706868D01*
X147634445Y-118663284D01*
X147651213Y-118624935D01*
X147665141Y-118594708D01*
X147674914Y-118575490D01*
X147678350Y-118570332D01*
X147688682Y-118565303D01*
X147713001Y-118555787D01*
X147749191Y-118542539D01*
X147795137Y-118526317D01*
X147848724Y-118507875D01*
X147907836Y-118487969D01*
X147922102Y-118483226D01*
X147997832Y-118457853D01*
X148059207Y-118436457D01*
X148108060Y-118418038D01*
X148146220Y-118401591D01*
X148175519Y-118386116D01*
X148197786Y-118370609D01*
X148214853Y-118354068D01*
X148228550Y-118335491D01*
X148240707Y-118313875D01*
X148244239Y-118306828D01*
X148250249Y-118294036D01*
X148254900Y-118281536D01*
X148258368Y-118267043D01*
X148260825Y-118248274D01*
X148262445Y-118222946D01*
X148263403Y-118188775D01*
X148263870Y-118143476D01*
X148264022Y-118084767D01*
X148264033Y-118046501D01*
X148264033Y-117826367D01*
X148238749Y-117780713D01*
X148216338Y-117747744D01*
X148190314Y-117720508D01*
X148180471Y-117712980D01*
X148163880Y-117704540D01*
X148133612Y-117691800D01*
X148092102Y-117675678D01*
X148041783Y-117657090D01*
X147985086Y-117636956D01*
X147924447Y-117616192D01*
X147918984Y-117614359D01*
X147690491Y-117537818D01*
X147663208Y-117461959D01*
X147646181Y-117417031D01*
X147626007Y-117367327D01*
X147606586Y-117322405D01*
X147603464Y-117315548D01*
X147571001Y-117244996D01*
X147682852Y-117019215D01*
X147715070Y-116953979D01*
X147740457Y-116901901D01*
X147759816Y-116861022D01*
X147773948Y-116829385D01*
X147783653Y-116805032D01*
X147789735Y-116786003D01*
X147792995Y-116770341D01*
X147794233Y-116756088D01*
X147794336Y-116746867D01*
X147792889Y-116719073D01*
X147788157Y-116693571D01*
X147778852Y-116668467D01*
X147763685Y-116641865D01*
X147741370Y-116611871D01*
X147710618Y-116576588D01*
X147670141Y-116534122D01*
X147618652Y-116482578D01*
X147606803Y-116470899D01*
X147553515Y-116418625D01*
X147508409Y-116376018D01*
X147469278Y-116342863D01*
X147433917Y-116318945D01*
X147400120Y-116304049D01*
X147365680Y-116297960D01*
X147328392Y-116300463D01*
X147286048Y-116311343D01*
X147236445Y-116330386D01*
X147177374Y-116357375D01*
X147106631Y-116392096D01*
X147056270Y-116417246D01*
X146830846Y-116529863D01*
X146666906Y-116463260D01*
X146637831Y-116451091D01*
X146594502Y-116432449D01*
X146538090Y-116407854D01*
X146469764Y-116377825D01*
X146390692Y-116342884D01*
X146302043Y-116303549D01*
X146204987Y-116260342D01*
X146100693Y-116213782D01*
X145990329Y-116164389D01*
X145875065Y-116112683D01*
X145756069Y-116059185D01*
X145634512Y-116004414D01*
X145567400Y-115974123D01*
X145379977Y-115889666D01*
X145203867Y-115810693D01*
X145039545Y-115737412D01*
X144887482Y-115670031D01*
X144748152Y-115608758D01*
X144622028Y-115553799D01*
X144509583Y-115505363D01*
X144411289Y-115463658D01*
X144327620Y-115428890D01*
X144295168Y-115415685D01*
X143958503Y-115279781D01*
X143963174Y-115228041D01*
X143964972Y-115205190D01*
X143967600Y-115167698D01*
X143970951Y-115117329D01*
X143974920Y-115055853D01*
X143979401Y-114985034D01*
X143984287Y-114906642D01*
X143989473Y-114822442D01*
X143994854Y-114734203D01*
X144000322Y-114643690D01*
X144005772Y-114552671D01*
X144011099Y-114462914D01*
X144016197Y-114376185D01*
X144020958Y-114294252D01*
X144025279Y-114218880D01*
X144029052Y-114151839D01*
X144032172Y-114094894D01*
X144034533Y-114049813D01*
X144036029Y-114018363D01*
X144036542Y-114003667D01*
X144034071Y-113949886D01*
X144024442Y-113908790D01*
X144022682Y-113904324D01*
X144017130Y-113894687D01*
X144006266Y-113880361D01*
X143989408Y-113860645D01*
X143965876Y-113834835D01*
X143934986Y-113802233D01*
X143896058Y-113762134D01*
X143848410Y-113713838D01*
X143791360Y-113656644D01*
X143724226Y-113589850D01*
X143646328Y-113512753D01*
X143556983Y-113424653D01*
X143549354Y-113417142D01*
X143464541Y-113333858D01*
X143385804Y-113256966D01*
X143313840Y-113187129D01*
X143249348Y-113125014D01*
X143193026Y-113071283D01*
X143145573Y-113026602D01*
X143107687Y-112991636D01*
X143080065Y-112967048D01*
X143063408Y-112953504D01*
X143059826Y-112951258D01*
X143032976Y-112940359D01*
X143007772Y-112932654D01*
X143004793Y-112932012D01*
X142992647Y-112931925D01*
X142964993Y-112933144D01*
X142923199Y-112935571D01*
X142868634Y-112939111D01*
X142802664Y-112943667D01*
X142726657Y-112949142D01*
X142641982Y-112955440D01*
X142550005Y-112962462D01*
X142452094Y-112970114D01*
X142349618Y-112978298D01*
X142345191Y-112978655D01*
X142242650Y-112986914D01*
X142144695Y-112994755D01*
X142052687Y-113002074D01*
X141967982Y-113008764D01*
X141891940Y-113014720D01*
X141825918Y-113019835D01*
X141771275Y-113024004D01*
X141729370Y-113027122D01*
X141701560Y-113029081D01*
X141689205Y-113029777D01*
X141689024Y-113029777D01*
X141682979Y-113028690D01*
X141676748Y-113024529D01*
X141669552Y-113015742D01*
X141660612Y-113000779D01*
X141649149Y-112978088D01*
X141634382Y-112946117D01*
X141615534Y-112903315D01*
X141591825Y-112848131D01*
X141562475Y-112779012D01*
X141559262Y-112771421D01*
X141533249Y-112709640D01*
X141509655Y-112652999D01*
X141489225Y-112603334D01*
X141472703Y-112562482D01*
X141460834Y-112532278D01*
X141454363Y-112514558D01*
X141453429Y-112510574D01*
X141463532Y-112501965D01*
X141484842Y-112483381D01*
X141516167Y-112455879D01*
X141556314Y-112420518D01*
X141604089Y-112378356D01*
X141658302Y-112330450D01*
X141717758Y-112277858D01*
X141781264Y-112221639D01*
X141847629Y-112162849D01*
X141915659Y-112102548D01*
X141984161Y-112041792D01*
X142051944Y-111981641D01*
X142117813Y-111923150D01*
X142180576Y-111867380D01*
X142239041Y-111815386D01*
X142292015Y-111768228D01*
X142338304Y-111726964D01*
X142376717Y-111692650D01*
X142406060Y-111666345D01*
X142425141Y-111649107D01*
X142432766Y-111641994D01*
X142432808Y-111641945D01*
X142443460Y-111626456D01*
X142457209Y-111603473D01*
X142461972Y-111594901D01*
X142466157Y-111586902D01*
X142469643Y-111578661D01*
X142472485Y-111568668D01*
X142474736Y-111555409D01*
X142476448Y-111537374D01*
X142477676Y-111513051D01*
X142478473Y-111480927D01*
X142478892Y-111439492D01*
X142478987Y-111387233D01*
X142478811Y-111322639D01*
X142478418Y-111244198D01*
X142477861Y-111150398D01*
X142477836Y-111146167D01*
X142477173Y-111052561D01*
X142476313Y-110954747D01*
X142475294Y-110855945D01*
X142474157Y-110759371D01*
X142472940Y-110668243D01*
X142471682Y-110585780D01*
X142470423Y-110515199D01*
X142469721Y-110481534D01*
X142468078Y-110409856D01*
X142466592Y-110353038D01*
X142465073Y-110309011D01*
X142463333Y-110275705D01*
X142461179Y-110251051D01*
X142458424Y-110232978D01*
X142454877Y-110219417D01*
X142450348Y-110208300D01*
X142444647Y-110197555D01*
X142443482Y-110195500D01*
X142435629Y-110185046D01*
X142420555Y-110168948D01*
X142397635Y-110146651D01*
X142366245Y-110117603D01*
X142325760Y-110081250D01*
X142275555Y-110037039D01*
X142215005Y-109984417D01*
X142143487Y-109922831D01*
X142060375Y-109851727D01*
X141965044Y-109770551D01*
X141932063Y-109742534D01*
X141853399Y-109675759D01*
X141778335Y-109612070D01*
X141707891Y-109552333D01*
X141643089Y-109497412D01*
X141584952Y-109448173D01*
X141534500Y-109405480D01*
X141492757Y-109370198D01*
X141460743Y-109343194D01*
X141439481Y-109325331D01*
X141429992Y-109317475D01*
X141429717Y-109317263D01*
X141427498Y-109312199D01*
X141428446Y-109301409D01*
X141433069Y-109283432D01*
X141441873Y-109256806D01*
X141455367Y-109220069D01*
X141474059Y-109171759D01*
X141498457Y-109110414D01*
X141520875Y-109054797D01*
X141545961Y-108992944D01*
X141569169Y-108935994D01*
X141589703Y-108885882D01*
X141606764Y-108844543D01*
X141619555Y-108813915D01*
X141627278Y-108795932D01*
X141629122Y-108792057D01*
X141637654Y-108790650D01*
X141660948Y-108790412D01*
X141699266Y-108791353D01*
X141752867Y-108793488D01*
X141822014Y-108796829D01*
X141906968Y-108801389D01*
X142007990Y-108807180D01*
X142125340Y-108814216D01*
X142259281Y-108822508D01*
X142278100Y-108823690D01*
X142381744Y-108830123D01*
X142481099Y-108836123D01*
X142574777Y-108841615D01*
X142661390Y-108846526D01*
X142739549Y-108850783D01*
X142807866Y-108854311D01*
X142864951Y-108857038D01*
X142909416Y-108858889D01*
X142939873Y-108859790D01*
X142954933Y-108859669D01*
X142955434Y-108859613D01*
X142984877Y-108852103D01*
X143015975Y-108839096D01*
X143023167Y-108835160D01*
X143034521Y-108825977D01*
X143056698Y-108805679D01*
X143088688Y-108775263D01*
X143129479Y-108735724D01*
X143178061Y-108688061D01*
X143233422Y-108633268D01*
X143294551Y-108572342D01*
X143360438Y-108506280D01*
X143430071Y-108436078D01*
X143500196Y-108365013D01*
X143586737Y-108277082D01*
X143662178Y-108200312D01*
X143727278Y-108133773D01*
X143782796Y-108076538D01*
X143829489Y-108027679D01*
X143868117Y-107986267D01*
X143899438Y-107951374D01*
X143924211Y-107922072D01*
X143943193Y-107897433D01*
X143957144Y-107876528D01*
X143966822Y-107858430D01*
X143972985Y-107842210D01*
X143976392Y-107826940D01*
X143977801Y-107811692D01*
X143977972Y-107795538D01*
X143977713Y-107780667D01*
X143976901Y-107764482D01*
X143974840Y-107733133D01*
X143971665Y-107688329D01*
X143967511Y-107631784D01*
X143962514Y-107565209D01*
X143956808Y-107490314D01*
X143950531Y-107408813D01*
X143943815Y-107322416D01*
X143936798Y-107232836D01*
X143929614Y-107141783D01*
X143922398Y-107050969D01*
X143915286Y-106962106D01*
X143908413Y-106876905D01*
X143901914Y-106797079D01*
X143895925Y-106724338D01*
X143890581Y-106660394D01*
X143886017Y-106606959D01*
X143882368Y-106565744D01*
X143879771Y-106538461D01*
X143878886Y-106530395D01*
X143874577Y-106495090D01*
X144126205Y-106387795D01*
X144187551Y-106361640D01*
X144244059Y-106337554D01*
X144293804Y-106316356D01*
X144334860Y-106298867D01*
X144365303Y-106285906D01*
X144383206Y-106278295D01*
X144387080Y-106276658D01*
X144394014Y-106282239D01*
X144411254Y-106299584D01*
X144437930Y-106327736D01*
X144473172Y-106365738D01*
X144516109Y-106412634D01*
X144565869Y-106467467D01*
X144621584Y-106529281D01*
X144682381Y-106597120D01*
X144747390Y-106670025D01*
X144815741Y-106747042D01*
X144832863Y-106766391D01*
X144902417Y-106844848D01*
X144969226Y-106919854D01*
X145032375Y-106990401D01*
X145090947Y-107055480D01*
X145144025Y-107114085D01*
X145190692Y-107165208D01*
X145230032Y-107207842D01*
X145261128Y-107240978D01*
X145283064Y-107263610D01*
X145294923Y-107274729D01*
X145296003Y-107275481D01*
X145321438Y-107288303D01*
X145345740Y-107297628D01*
X145346107Y-107297735D01*
X145358184Y-107298727D01*
X145385831Y-107299504D01*
X145427686Y-107300064D01*
X145482388Y-107300407D01*
X145548574Y-107300534D01*
X145624883Y-107300444D01*
X145709953Y-107300137D01*
X145802422Y-107299614D01*
X145900929Y-107298873D01*
X146004111Y-107297915D01*
X146015072Y-107297802D01*
X146660536Y-107291130D01*
X146705316Y-107269221D01*
X146714412Y-107264241D01*
X146724444Y-107257416D01*
X146736201Y-107247873D01*
X146750473Y-107234734D01*
X146768049Y-107217125D01*
X146789718Y-107194170D01*
X146816271Y-107164995D01*
X146848497Y-107128722D01*
X146887185Y-107084477D01*
X146933125Y-107031385D01*
X146987106Y-106968570D01*
X147049918Y-106895156D01*
X147122351Y-106810268D01*
X147176109Y-106747180D01*
X147256159Y-106653284D01*
X147326004Y-106571560D01*
X147386344Y-106501226D01*
X147437879Y-106441499D01*
X147481309Y-106391596D01*
X147517336Y-106350737D01*
X147546659Y-106318139D01*
X147569979Y-106293019D01*
X147587996Y-106274595D01*
X147601410Y-106262086D01*
X147610922Y-106254708D01*
X147617232Y-106251681D01*
X147619811Y-106251637D01*
X147631885Y-106255851D01*
X147657578Y-106265580D01*
X147694804Y-106280008D01*
X147741476Y-106298318D01*
X147795508Y-106319695D01*
X147854814Y-106343323D01*
X147878800Y-106352922D01*
X147946709Y-106380184D01*
X148000541Y-106402008D01*
X148041953Y-106419221D01*
X148072601Y-106432647D01*
X148094141Y-106443112D01*
X148108229Y-106451441D01*
X148116522Y-106458460D01*
X148120675Y-106464994D01*
X148122346Y-106471868D01*
X148122643Y-106474434D01*
X148122540Y-106486752D01*
X148121441Y-106514590D01*
X148119423Y-106556568D01*
X148116564Y-106611307D01*
X148112940Y-106677426D01*
X148108628Y-106753547D01*
X148103705Y-106838289D01*
X148098249Y-106930272D01*
X148092335Y-107028119D01*
X148086108Y-107129374D01*
X148078568Y-107250892D01*
X148072047Y-107356710D01*
X148066552Y-107448028D01*
X148062090Y-107526051D01*
X148058669Y-107591979D01*
X148056295Y-107647015D01*
X148054976Y-107692362D01*
X148054718Y-107729222D01*
X148055529Y-107758797D01*
X148057416Y-107782289D01*
X148060385Y-107800900D01*
X148064443Y-107815833D01*
X148069599Y-107828290D01*
X148075858Y-107839474D01*
X148083228Y-107850586D01*
X148090394Y-107860906D01*
X148100696Y-107873028D01*
X148121971Y-107895775D01*
X148153051Y-107927971D01*
X148192769Y-107968436D01*
X148239957Y-108015992D01*
X148293446Y-108069461D01*
X148352070Y-108127665D01*
X148414661Y-108189426D01*
X148464129Y-108237983D01*
X148557977Y-108329893D01*
X148640522Y-108410696D01*
X148712560Y-108481132D01*
X148774888Y-108541940D01*
X148828303Y-108593858D01*
X148873603Y-108637625D01*
X148911582Y-108673980D01*
X148943040Y-108703663D01*
X148968773Y-108727412D01*
X148989577Y-108745966D01*
X149006251Y-108760063D01*
X149019589Y-108770444D01*
X149030391Y-108777846D01*
X149039452Y-108783009D01*
X149047569Y-108786672D01*
X149055540Y-108789573D01*
X149061010Y-108791396D01*
X149069364Y-108793989D01*
X149078302Y-108796104D01*
X149089015Y-108797677D01*
X149102697Y-108798643D01*
X149120541Y-108798936D01*
X149143739Y-108798493D01*
X149173483Y-108797248D01*
X149210967Y-108795137D01*
X149257384Y-108792095D01*
X149313925Y-108788057D01*
X149381784Y-108782958D01*
X149462154Y-108776734D01*
X149556227Y-108769320D01*
X149665196Y-108760651D01*
X149746118Y-108754189D01*
X149849080Y-108746010D01*
X149947353Y-108738296D01*
X150039600Y-108731147D01*
X150124482Y-108724663D01*
X150200661Y-108718942D01*
X150266801Y-108714085D01*
X150321562Y-108710189D01*
X150363607Y-108707356D01*
X150391598Y-108705683D01*
X150404197Y-108705270D01*
X150404588Y-108705306D01*
X150411522Y-108710092D01*
X150421026Y-108723551D01*
X150433790Y-108747065D01*
X150450502Y-108782013D01*
X150471854Y-108829778D01*
X150498535Y-108891739D01*
X150503106Y-108902501D01*
X150527554Y-108960119D01*
X150551369Y-109016212D01*
X150573252Y-109067722D01*
X150591906Y-109111593D01*
X150606031Y-109144767D01*
X150611802Y-109158290D01*
X150637901Y-109219347D01*
X150145234Y-109654422D01*
X150044882Y-109743198D01*
X149956839Y-109821427D01*
X149880571Y-109889599D01*
X149815545Y-109948204D01*
X149761229Y-109997733D01*
X149717088Y-110038676D01*
X149682590Y-110071523D01*
X149657201Y-110096764D01*
X149640388Y-110114889D01*
X149631618Y-110126389D01*
X149631400Y-110126765D01*
X149610233Y-110164034D01*
X149613174Y-110765167D01*
X149613842Y-110893824D01*
X149614542Y-111006674D01*
X149615329Y-111104845D01*
X149616257Y-111189463D01*
X149617380Y-111261654D01*
X149618753Y-111322546D01*
X149620431Y-111373266D01*
X149622469Y-111414940D01*
X149624919Y-111448695D01*
X149627838Y-111475658D01*
X149631280Y-111496956D01*
X149635298Y-111513715D01*
X149639948Y-111527062D01*
X149645285Y-111538125D01*
X149651010Y-111547500D01*
X149661159Y-111558588D01*
X149683325Y-111579734D01*
X149716557Y-111610108D01*
X149759908Y-111648874D01*
X149812429Y-111695200D01*
X149873171Y-111748252D01*
X149941185Y-111807197D01*
X150015523Y-111871203D01*
X150095235Y-111939435D01*
X150162290Y-111996549D01*
X150240750Y-112063293D01*
X150315516Y-112127010D01*
X150385574Y-112186831D01*
X150449910Y-112241883D01*
X150507511Y-112291295D01*
X150557362Y-112334197D01*
X150598451Y-112369717D01*
X150629763Y-112396984D01*
X150650284Y-112415127D01*
X150659001Y-112423275D01*
X150659180Y-112423501D01*
X150658363Y-112435063D01*
X150650587Y-112461971D01*
X150635846Y-112504240D01*
X150614134Y-112561888D01*
X150585446Y-112634932D01*
X150561966Y-112693362D01*
X150457207Y-112952172D01*
X150414720Y-112948380D01*
X150399381Y-112947248D01*
X150368591Y-112945186D01*
X150323802Y-112942285D01*
X150266466Y-112938635D01*
X150198035Y-112934328D01*
X150119961Y-112929455D01*
X150033694Y-112924107D01*
X149940688Y-112918374D01*
X149842394Y-112912349D01*
X149757614Y-112907176D01*
X149633927Y-112899715D01*
X149526146Y-112893367D01*
X149433283Y-112888090D01*
X149354350Y-112883841D01*
X149288358Y-112880575D01*
X149234320Y-112878251D01*
X149191247Y-112876825D01*
X149158152Y-112876253D01*
X149134047Y-112876493D01*
X149117943Y-112877501D01*
X149110077Y-112878853D01*
X149069085Y-112895834D01*
X149025691Y-112925321D01*
X148978218Y-112968558D01*
X148952833Y-112995276D01*
X148937408Y-113011684D01*
X148911285Y-113038933D01*
X148875649Y-113075806D01*
X148831687Y-113121083D01*
X148780587Y-113173547D01*
X148723536Y-113231980D01*
X148661720Y-113295162D01*
X148596327Y-113361875D01*
X148528544Y-113430901D01*
X148516769Y-113442879D01*
X148439691Y-113521318D01*
X148373628Y-113588687D01*
X148317694Y-113645961D01*
X148271000Y-113694111D01*
X148232659Y-113734112D01*
X148201781Y-113766937D01*
X148177480Y-113793559D01*
X148158867Y-113814951D01*
X148145055Y-113832087D01*
X148135155Y-113845940D01*
X148128279Y-113857484D01*
X148123539Y-113867691D01*
X148120048Y-113877535D01*
X148119960Y-113877811D01*
X148117307Y-113886630D01*
X148115116Y-113895712D01*
X148113452Y-113906243D01*
X148112380Y-113919411D01*
X148111966Y-113936400D01*
X148112274Y-113958397D01*
X148113369Y-113986590D01*
X148115316Y-114022162D01*
X148118180Y-114066302D01*
X148122026Y-114120195D01*
X148126920Y-114185028D01*
X148132925Y-114261987D01*
X148140108Y-114352257D01*
X148148532Y-114457026D01*
X148158264Y-114577479D01*
X148158324Y-114578220D01*
X148167085Y-114687811D01*
X148175118Y-114790782D01*
X148182343Y-114885992D01*
X148188683Y-114972297D01*
X148194059Y-115048553D01*
X148198393Y-115113618D01*
X148201604Y-115166347D01*
X148203616Y-115205598D01*
X148204349Y-115230227D01*
X148203766Y-115239063D01*
X148194576Y-115243719D01*
X148171494Y-115254238D01*
X148136218Y-115269878D01*
X148090447Y-115289897D01*
X148035882Y-115313554D01*
X147974221Y-115340106D01*
X147907164Y-115368812D01*
X147883033Y-115379102D01*
X147814483Y-115408404D01*
X147750728Y-115435843D01*
X147693469Y-115460670D01*
X147644411Y-115482141D01*
X147605254Y-115499509D01*
X147577702Y-115512028D01*
X147563455Y-115518950D01*
X147561937Y-115519903D01*
X147562706Y-115529836D01*
X147569942Y-115553629D01*
X147583076Y-115589743D01*
X147601541Y-115636638D01*
X147624765Y-115692772D01*
X147632755Y-115711603D01*
X147654935Y-115763497D01*
X147674864Y-115809933D01*
X147691599Y-115848731D01*
X147704198Y-115877711D01*
X147711718Y-115894693D01*
X147713434Y-115898260D01*
X147721735Y-115895913D01*
X147743796Y-115887455D01*
X147777890Y-115873633D01*
X147822295Y-115855194D01*
X147875286Y-115832886D01*
X147935139Y-115807454D01*
X148000130Y-115779647D01*
X148068535Y-115750211D01*
X148138630Y-115719894D01*
X148208692Y-115689442D01*
X148276995Y-115659603D01*
X148341816Y-115631123D01*
X148401431Y-115604750D01*
X148454115Y-115581230D01*
X148498146Y-115561312D01*
X148531798Y-115545741D01*
X148553348Y-115535265D01*
X148560543Y-115531192D01*
X148595405Y-115494443D01*
X148619697Y-115447146D01*
X148631615Y-115393245D01*
X148632526Y-115374121D01*
X148631880Y-115357116D01*
X148629949Y-115324669D01*
X148626840Y-115278214D01*
X148622661Y-115219187D01*
X148617516Y-115149022D01*
X148611514Y-115069152D01*
X148604761Y-114981014D01*
X148597364Y-114886040D01*
X148589429Y-114785666D01*
X148581063Y-114681326D01*
X148580238Y-114671120D01*
X148527757Y-114022006D01*
X148886232Y-113657237D01*
X148963119Y-113579124D01*
X149029086Y-113512404D01*
X149084966Y-113456279D01*
X149131589Y-113409952D01*
X149169790Y-113372624D01*
X149200399Y-113343497D01*
X149224249Y-113321773D01*
X149242172Y-113306655D01*
X149255001Y-113297345D01*
X149263567Y-113293044D01*
X149266603Y-113292523D01*
X149278485Y-113293045D01*
X149305875Y-113294538D01*
X149347384Y-113296919D01*
X149401619Y-113300103D01*
X149467190Y-113304009D01*
X149542705Y-113308552D01*
X149626774Y-113313650D01*
X149718003Y-113319219D01*
X149815004Y-113325176D01*
X149902333Y-113330567D01*
X150004538Y-113336839D01*
X150103183Y-113342789D01*
X150196750Y-113348333D01*
X150283720Y-113353384D01*
X150362577Y-113357858D01*
X150431803Y-113361670D01*
X150489878Y-113364734D01*
X150535286Y-113366966D01*
X150566508Y-113368279D01*
X150580121Y-113368612D01*
X150643198Y-113362151D01*
X150696883Y-113343030D01*
X150739866Y-113311819D01*
X150757016Y-113291746D01*
X150764587Y-113277852D01*
X150777740Y-113249803D01*
X150795803Y-113209180D01*
X150818101Y-113157562D01*
X150843964Y-113096530D01*
X150872718Y-113027664D01*
X150903689Y-112952546D01*
X150936207Y-112872756D01*
X150951972Y-112833742D01*
X151123529Y-112408039D01*
X151119375Y-112349970D01*
X151115029Y-112312646D01*
X151106904Y-112285053D01*
X151092810Y-112260060D01*
X151090860Y-112257248D01*
X151081706Y-112247090D01*
X151062748Y-112228810D01*
X151033734Y-112202189D01*
X150994409Y-112167006D01*
X150944518Y-112123042D01*
X150883806Y-112070076D01*
X150812021Y-112007889D01*
X150728906Y-111936260D01*
X150634209Y-111854970D01*
X150527674Y-111763798D01*
X150409048Y-111662524D01*
X150278075Y-111550929D01*
X150134502Y-111428792D01*
X150057720Y-111363539D01*
X150031072Y-111340901D01*
X150025763Y-110828667D01*
X150020454Y-110316434D01*
X150536396Y-109861300D01*
X150632972Y-109776113D01*
X150717658Y-109701335D01*
X150791233Y-109636144D01*
X150854477Y-109579715D01*
X150908170Y-109531225D01*
X150953091Y-109489851D01*
X150990021Y-109454768D01*
X151019739Y-109425152D01*
X151043025Y-109400180D01*
X151060659Y-109379028D01*
X151073419Y-109360872D01*
X151082088Y-109344888D01*
X151087443Y-109330253D01*
X151090264Y-109316143D01*
X151091333Y-109301734D01*
X151091427Y-109286202D01*
X151091335Y-109275034D01*
X151090891Y-109262910D01*
X151089331Y-109249923D01*
X151086130Y-109234684D01*
X151080760Y-109215807D01*
X151072694Y-109191905D01*
X151061404Y-109161591D01*
X151046364Y-109123477D01*
X151027047Y-109076178D01*
X151002925Y-109018306D01*
X150973471Y-108948473D01*
X150938158Y-108865294D01*
X150914349Y-108809367D01*
X150880040Y-108729199D01*
X150847060Y-108652847D01*
X150816118Y-108581906D01*
X150787923Y-108517970D01*
X150763185Y-108462634D01*
X150742613Y-108417491D01*
X150726917Y-108384136D01*
X150716806Y-108364163D01*
X150714509Y-108360314D01*
X150678105Y-108321050D01*
X150631205Y-108294597D01*
X150575037Y-108281546D01*
X150547963Y-108280200D01*
X150529989Y-108280871D01*
X150496608Y-108282810D01*
X150449293Y-108285912D01*
X150389514Y-108290067D01*
X150318743Y-108295169D01*
X150238451Y-108301110D01*
X150150109Y-108307783D01*
X150055188Y-108315080D01*
X149955160Y-108322893D01*
X149855645Y-108330785D01*
X149222371Y-108381369D01*
X149043769Y-108208123D01*
X148988764Y-108154740D01*
X148925403Y-108093198D01*
X148857453Y-108027162D01*
X148788682Y-107960294D01*
X148722859Y-107896256D01*
X148666766Y-107841648D01*
X148468366Y-107648419D01*
X148508211Y-106996993D01*
X148514566Y-106892558D01*
X148520603Y-106792308D01*
X148526243Y-106697634D01*
X148531404Y-106609929D01*
X148536008Y-106530585D01*
X148539973Y-106460994D01*
X148543221Y-106402549D01*
X148545671Y-106356641D01*
X148547242Y-106324662D01*
X148547856Y-106308006D01*
X148547861Y-106307013D01*
X148540760Y-106262994D01*
X148522057Y-106217929D01*
X148495025Y-106178247D01*
X148470746Y-106155518D01*
X148456834Y-106147934D01*
X148428773Y-106134771D01*
X148388147Y-106116704D01*
X148336544Y-106094409D01*
X148275549Y-106068561D01*
X148206748Y-106039835D01*
X148131727Y-106008907D01*
X148052073Y-105976451D01*
X148015219Y-105961560D01*
X147921828Y-105923977D01*
X147842736Y-105892303D01*
X147776566Y-105866042D01*
X147721942Y-105844696D01*
X147677487Y-105827770D01*
X147641825Y-105814767D01*
X147613580Y-105805191D01*
X147591374Y-105798546D01*
X147573832Y-105794335D01*
X147559577Y-105792061D01*
X147547233Y-105791228D01*
X147542780Y-105791186D01*
X147492000Y-105796778D01*
G37*
X147492000Y-105796778D02*
X147447483Y-105814385D01*
X147405217Y-105845883D01*
X147386790Y-105864108D01*
X147375015Y-105877189D01*
X147353239Y-105902068D01*
X147322415Y-105937633D01*
X147283500Y-105982771D01*
X147237447Y-106036369D01*
X147185211Y-106097314D01*
X147127747Y-106164495D01*
X147066011Y-106236799D01*
X147000955Y-106313112D01*
X146934947Y-106390664D01*
X146868512Y-106468669D01*
X146805136Y-106542871D01*
X146745691Y-106612265D01*
X146691044Y-106675844D01*
X146642068Y-106732604D01*
X146599631Y-106781537D01*
X146564604Y-106821639D01*
X146537857Y-106851904D01*
X146520259Y-106871325D01*
X146512681Y-106878898D01*
X146512557Y-106878956D01*
X146502573Y-106879549D01*
X146477162Y-106880236D01*
X146437832Y-106880995D01*
X146386088Y-106881807D01*
X146323437Y-106882651D01*
X146251387Y-106883506D01*
X146171442Y-106884353D01*
X146085111Y-106885170D01*
X145998920Y-106885899D01*
X145494873Y-106889913D01*
X145042186Y-106377680D01*
X144950580Y-106274202D01*
X144869579Y-106183096D01*
X144798752Y-106103889D01*
X144737666Y-106036113D01*
X144685890Y-105979295D01*
X144642992Y-105932966D01*
X144608539Y-105896654D01*
X144582100Y-105869890D01*
X144563242Y-105852202D01*
X144551534Y-105843120D01*
X144551400Y-105843041D01*
X144526594Y-105830340D01*
X144502595Y-105823629D01*
X144472253Y-105821310D01*
X144454034Y-105821280D01*
X144440403Y-105821610D01*
X144427182Y-105822647D01*
X144412928Y-105824929D01*
X144396201Y-105828994D01*
X144375558Y-105835382D01*
X144349558Y-105844630D01*
X144316760Y-105857278D01*
X144275722Y-105873863D01*
X144225002Y-105894924D01*
X144163160Y-105920999D01*
X144088753Y-105952628D01*
X144000340Y-105990349D01*
X143992600Y-105993653D01*
X143914073Y-106027221D01*
X143839635Y-106059110D01*
X143770862Y-106088640D01*
X143709331Y-106115132D01*
X143656618Y-106137905D01*
X143614299Y-106156280D01*
X143583950Y-106169575D01*
X143567147Y-106177112D01*
X143565034Y-106178124D01*
X143519323Y-106210103D01*
X143483359Y-106253630D01*
X143460111Y-106304737D01*
X143455322Y-106324794D01*
X143455171Y-106337667D01*
X143456342Y-106366079D01*
X143458740Y-106408696D01*
X143462271Y-106464183D01*
X143466841Y-106531204D01*
X143472357Y-106608426D01*
X143478724Y-106694513D01*
X143485847Y-106788131D01*
X143493634Y-106887945D01*
X143501989Y-106992620D01*
X143505090Y-107030893D01*
X143560150Y-107707752D01*
X143516267Y-107754793D01*
X143501856Y-107769908D01*
X143476859Y-107795748D01*
X143442579Y-107830980D01*
X143400321Y-107874271D01*
X143351387Y-107924287D01*
X143297080Y-107979696D01*
X143238704Y-108039165D01*
X143177561Y-108101361D01*
X143156485Y-108122779D01*
X142840587Y-108443725D01*
X142184300Y-108403335D01*
X142079023Y-108396941D01*
X141977592Y-108390948D01*
X141881432Y-108385427D01*
X141791972Y-108380455D01*
X141710638Y-108376105D01*
X141638858Y-108372452D01*
X141578059Y-108369569D01*
X141529668Y-108367532D01*
X141495113Y-108366415D01*
X141475820Y-108366291D01*
X141474360Y-108366361D01*
X141418291Y-108377323D01*
X141370762Y-108402818D01*
X141331213Y-108442851D01*
X141324051Y-108455900D01*
X141311286Y-108483110D01*
X141293587Y-108522911D01*
X141271621Y-108573733D01*
X141246059Y-108634008D01*
X141217568Y-108702167D01*
X141186818Y-108776640D01*
X141154476Y-108855858D01*
X141140028Y-108891530D01*
X141102755Y-108983863D01*
X141071359Y-109061922D01*
X141045336Y-109127122D01*
X141024184Y-109180874D01*
X141007401Y-109224592D01*
X140994483Y-109259688D01*
X140984928Y-109287575D01*
X140978234Y-109309666D01*
X140973896Y-109327374D01*
X140971414Y-109342111D01*
X140970283Y-109355290D01*
X140970001Y-109368324D01*
X140970000Y-109369340D01*
X140969894Y-109386654D01*
X140970106Y-109402085D01*
X140971431Y-109416453D01*
X140974664Y-109430572D01*
X140980600Y-109445262D01*
X140990035Y-109461338D01*
X141003765Y-109479619D01*
X141022583Y-109500922D01*
X141047286Y-109526064D01*
X141078668Y-109555862D01*
X141117525Y-109591134D01*
X141164652Y-109632697D01*
X141220844Y-109681369D01*
X141286897Y-109737965D01*
X141363606Y-109803305D01*
X141451765Y-109878205D01*
X141528626Y-109943480D01*
X142052199Y-110388231D01*
X142057079Y-110458166D01*
X142058078Y-110480281D01*
X142059110Y-110517417D01*
X142060145Y-110567662D01*
X142061157Y-110629102D01*
X142062116Y-110699825D01*
X142062997Y-110777918D01*
X142063769Y-110861470D01*
X142064407Y-110948567D01*
X142064548Y-110971682D01*
X142067138Y-111415263D01*
X141557594Y-111866543D01*
X141477893Y-111937240D01*
X141401608Y-112005121D01*
X141329729Y-112069292D01*
X141263247Y-112128858D01*
X141203155Y-112182924D01*
X141150441Y-112230595D01*
X141106099Y-112270977D01*
X141071119Y-112303174D01*
X141046491Y-112326293D01*
X141033207Y-112339439D01*
X141031367Y-112341594D01*
X141006952Y-112390599D01*
X140996755Y-112445855D01*
X140997338Y-112474266D01*
X141000261Y-112489541D01*
X141007234Y-112512983D01*
X141018646Y-112545580D01*
X141034887Y-112588320D01*
X141056345Y-112642194D01*
X141083409Y-112708189D01*
X141116468Y-112787294D01*
X141155912Y-112880498D01*
X141172312Y-112919011D01*
X141205923Y-112997716D01*
X141237972Y-113072534D01*
X141267763Y-113141857D01*
X141294598Y-113204072D01*
X141317781Y-113257570D01*
X141336615Y-113300741D01*
X141350405Y-113331973D01*
X141358453Y-113349656D01*
X141359533Y-113351863D01*
X141391302Y-113396427D01*
X141434226Y-113428980D01*
X141486649Y-113448583D01*
X141540378Y-113454377D01*
X141557098Y-113453698D01*
X141589257Y-113451737D01*
X141635419Y-113448601D01*
X141694147Y-113444398D01*
X141764005Y-113439235D01*
X141843557Y-113433221D01*
X141931365Y-113426462D01*
X142025993Y-113419067D01*
X142126004Y-113411142D01*
X142229962Y-113402795D01*
X142235700Y-113402331D01*
X142357458Y-113392524D01*
X142463431Y-113384086D01*
X142554707Y-113376950D01*
X142632372Y-113371050D01*
X142697513Y-113366318D01*
X142751219Y-113362688D01*
X142794575Y-113360092D01*
X142828670Y-113358464D01*
X142854590Y-113357736D01*
X142873423Y-113357842D01*
X142886256Y-113358715D01*
X142894176Y-113360287D01*
X142897121Y-113361600D01*
X142906311Y-113369482D01*
X142926412Y-113388187D01*
X142956298Y-113416627D01*
X142994845Y-113453713D01*
X143040929Y-113498356D01*
X143093425Y-113549468D01*
X143151210Y-113605959D01*
X143213157Y-113666741D01*
X143268219Y-113720938D01*
X143621294Y-114068975D01*
X143579018Y-114752478D01*
X143571025Y-114881329D01*
X143564029Y-114994397D01*
X143558062Y-115092805D01*
X143553155Y-115177676D01*
X143549341Y-115250132D01*
X143546652Y-115311297D01*
X143545119Y-115362293D01*
X143544774Y-115404243D01*
X143545651Y-115438270D01*
X143547779Y-115465497D01*
X143551192Y-115487047D01*
X143555921Y-115504041D01*
X143561998Y-115517605D01*
X143569456Y-115528859D01*
X143578325Y-115538927D01*
X143588639Y-115548933D01*
X143600428Y-115559998D01*
X143602031Y-115561534D01*
X143611959Y-115570590D01*
X143623053Y-115579280D01*
X143636741Y-115588250D01*
X143654452Y-115598147D01*
X143677613Y-115609617D01*
X143707652Y-115623306D01*
X143745996Y-115639860D01*
X143794075Y-115659926D01*
X143853316Y-115684150D01*
X143925147Y-115713178D01*
X144010995Y-115747656D01*
X144030887Y-115755629D01*
X144104632Y-115785428D01*
X144180881Y-115816755D01*
X144260795Y-115850114D01*
X144345536Y-115886015D01*
X144436266Y-115924965D01*
X144534147Y-115967469D01*
X144640340Y-116014037D01*
X144756008Y-116065175D01*
X144882313Y-116121391D01*
X145020416Y-116183191D01*
X145171480Y-116251084D01*
X145336666Y-116325575D01*
X145347267Y-116330363D01*
X145542747Y-116418488D01*
X145724926Y-116500275D01*
X145893630Y-116575647D01*
X146048688Y-116644532D01*
X146189927Y-116706852D01*
X146317172Y-116762533D01*
X146430251Y-116811501D01*
X146528992Y-116853680D01*
X146613220Y-116888995D01*
X146682764Y-116917370D01*
X146737451Y-116938732D01*
X146777106Y-116953005D01*
X146795186Y-116958566D01*
X146816689Y-116963182D01*
X146838198Y-116964648D01*
X146861735Y-116962308D01*
X146889324Y-116955504D01*
X146922989Y-116943577D01*
X146964752Y-116925871D01*
X147016639Y-116901728D01*
X147080670Y-116870491D01*
X147108134Y-116856859D01*
X147168719Y-116826767D01*
X147215988Y-116803574D01*
X147251752Y-116786565D01*
X147277820Y-116775026D01*
X147296002Y-116768243D01*
X147308107Y-116765502D01*
X147315947Y-116766087D01*
X147321330Y-116769285D01*
X147323761Y-116771745D01*
X147327475Y-116777105D01*
X147328927Y-116784198D01*
X147327400Y-116794813D01*
X147322179Y-116810738D01*
X147312545Y-116833763D01*
X147297782Y-116865675D01*
X147277172Y-116908262D01*
X147250000Y-116963314D01*
X147234275Y-116994973D01*
X147203488Y-117057083D01*
X147179491Y-117106184D01*
X147161445Y-117144384D01*
X147148506Y-117173788D01*
X147139832Y-117196504D01*
X147134583Y-117214638D01*
X147131915Y-117230296D01*
X147130986Y-117245586D01*
X147130911Y-117253594D01*
X147131018Y-117271557D01*
X147132014Y-117286638D01*
X147134916Y-117301458D01*
X147140738Y-117318637D01*
X147150495Y-117340793D01*
X147165203Y-117370548D01*
X147185877Y-117410521D01*
X147208348Y-117453439D01*
X147253552Y-117549355D01*
X147290357Y-117649878D01*
X147307790Y-117708762D01*
X147319175Y-117745776D01*
X147331844Y-117780229D01*
X147343487Y-117805988D01*
X147346125Y-117810607D01*
X147359082Y-117829169D01*
X147374604Y-117845656D01*
X147394595Y-117861022D01*
X147420960Y-117876222D01*
X147455604Y-117892211D01*
X147500432Y-117909943D01*
X147557348Y-117930374D01*
X147628257Y-117954457D01*
X147642800Y-117959302D01*
X147706516Y-117980550D01*
X147755926Y-117997299D01*
X147792815Y-118010323D01*
X147818967Y-118020398D01*
X147836169Y-118028302D01*
X147846203Y-118034809D01*
X147850856Y-118040696D01*
X147851911Y-118046738D01*
X147851642Y-118050102D01*
X147849832Y-118056625D01*
X147844869Y-118062908D01*
X147834963Y-118069718D01*
X147818320Y-118077826D01*
X147793150Y-118087999D01*
X147757662Y-118101005D01*
X147710063Y-118117614D01*
X147648562Y-118138594D01*
X147633267Y-118143778D01*
X147565743Y-118166486D01*
X147510166Y-118185610D01*
X147464770Y-118202922D01*
X147427792Y-118220196D01*
X147397468Y-118239204D01*
X147372035Y-118261720D01*
X147349729Y-118289518D01*
X147328786Y-118324369D01*
X147307443Y-118368048D01*
X147283935Y-118422328D01*
X147256499Y-118488981D01*
X147233157Y-118546034D01*
X147201787Y-118621913D01*
X147176229Y-118684377D01*
X147156481Y-118735912D01*
X147142545Y-118779008D01*
X147134420Y-118816153D01*
X147132107Y-118849836D01*
X147135605Y-118882546D01*
X147144914Y-118916771D01*
X147160036Y-118955000D01*
X147180969Y-118999721D01*
X147207714Y-119053423D01*
X147233182Y-119104296D01*
X147263592Y-119165550D01*
X147287143Y-119213452D01*
X147304532Y-119249805D01*
X147316458Y-119276408D01*
X147323619Y-119295065D01*
X147326714Y-119307576D01*
X147326441Y-119315742D01*
X147323499Y-119321365D01*
X147319062Y-119325816D01*
X147313625Y-119330024D01*
X147307139Y-119332201D01*
X147297806Y-119331643D01*
X147283831Y-119327642D01*
X147263417Y-119319494D01*
X147234768Y-119306491D01*
X147196088Y-119287928D01*
X147145581Y-119263098D01*
X147092160Y-119236613D01*
X147030754Y-119205865D01*
X146980178Y-119180794D01*
X146937963Y-119161413D01*
X146901644Y-119147734D01*
X146868754Y-119139770D01*
X146836824Y-119137533D01*
X146803389Y-119141035D01*
X146765982Y-119150290D01*
X146722135Y-119165310D01*
X146669381Y-119186106D01*
X146605254Y-119212692D01*
X146541067Y-119239394D01*
X146465213Y-119271008D01*
X146403422Y-119297478D01*
X146353953Y-119319747D01*
X146315069Y-119338762D01*
X146285032Y-119355469D01*
X146262102Y-119370814D01*
X146244542Y-119385741D01*
X146230613Y-119401196D01*
X146222018Y-119412946D01*
X146214318Y-119428300D01*
X146202356Y-119457252D01*
X146187070Y-119497286D01*
X146169401Y-119545886D01*
X146150290Y-119600536D01*
X146134530Y-119647110D01*
X146113491Y-119710060D01*
X146096954Y-119758758D01*
X146084111Y-119795033D01*
X146074151Y-119820712D01*
X146066265Y-119837622D01*
X146059643Y-119847590D01*
X146053477Y-119852444D01*
X146046955Y-119854011D01*
X146042811Y-119854134D01*
X146035639Y-119853610D01*
X146029321Y-119850800D01*
X146023032Y-119843847D01*
X146015951Y-119830896D01*
X146007254Y-119810088D01*
X145996118Y-119779567D01*
X145981721Y-119737477D01*
X145963239Y-119681960D01*
X145953683Y-119653050D01*
X145929013Y-119579297D01*
X145908290Y-119519911D01*
X145890633Y-119473030D01*
X145875160Y-119436790D01*
X145860989Y-119409329D01*
X145847240Y-119388785D01*
X145833031Y-119373293D01*
X145817481Y-119360992D01*
X145814582Y-119359046D01*
X145798942Y-119350592D01*
X145769905Y-119336678D01*
X145729724Y-119318315D01*
X145680652Y-119296511D01*
X145624942Y-119272277D01*
X145564845Y-119246622D01*
X145546233Y-119238772D01*
X145470666Y-119206855D01*
X145408373Y-119180965D01*
X145356803Y-119161109D01*
X145313404Y-119147292D01*
X145275623Y-119139519D01*
X145240910Y-119137796D01*
X145206712Y-119142129D01*
X145170477Y-119152523D01*
X145129654Y-119168984D01*
X145081691Y-119191517D01*
X145024036Y-119220128D01*
X144984161Y-119240000D01*
X144913779Y-119275001D01*
X144857650Y-119302311D01*
X144815029Y-119321130D01*
X144785173Y-119330659D01*
X144767338Y-119330100D01*
X144760779Y-119318654D01*
X144764753Y-119295521D01*
X144778516Y-119259904D01*
X144801323Y-119211004D01*
X144832431Y-119148021D01*
X144855439Y-119101793D01*
X144959926Y-118891337D01*
X144956093Y-118837219D01*
X144953974Y-118818902D01*
X144949665Y-118798049D01*
X144942477Y-118772694D01*
X144931721Y-118740869D01*
X144916708Y-118700606D01*
X144896748Y-118649938D01*
X144871152Y-118586898D01*
X144852589Y-118541801D01*
X144821126Y-118466150D01*
X144794914Y-118404592D01*
X144773050Y-118355446D01*
X144754629Y-118317032D01*
X144738747Y-118287666D01*
X144724501Y-118265667D01*
X144710986Y-118249355D01*
X144697299Y-118237048D01*
X144683769Y-118227813D01*
X144668637Y-118220771D01*
X144639885Y-118209405D01*
X144599997Y-118194618D01*
X144551460Y-118177317D01*
X144496758Y-118158405D01*
X144447684Y-118141877D01*
X144384302Y-118120733D01*
X144335185Y-118104092D01*
X144298515Y-118091153D01*
X144272475Y-118081115D01*
X144255249Y-118073177D01*
X144245020Y-118066537D01*
X144239972Y-118060393D01*
X144238286Y-118053945D01*
X144238134Y-118049448D01*
X144238647Y-118042410D01*
X144241398Y-118036173D01*
X144248204Y-118029936D01*
X144260881Y-118022898D01*
X144281247Y-118014258D01*
X144311118Y-118003215D01*
X144352312Y-117988968D01*
X144406645Y-117970715D01*
X144447684Y-117957050D01*
X144510265Y-117935767D01*
X144567361Y-117915445D01*
X144616644Y-117896973D01*
X144655788Y-117881239D01*
X144682466Y-117869129D01*
X144691420Y-117864042D01*
X144704301Y-117854487D01*
X144716142Y-117843396D01*
X144727783Y-117829138D01*
X144740060Y-117810084D01*
X144753812Y-117784605D01*
X144769877Y-117751070D01*
X144789092Y-117707851D01*
X144812296Y-117653316D01*
X144840326Y-117585838D01*
X144863667Y-117529056D01*
X144891487Y-117460832D01*
X144913348Y-117406165D01*
X144929936Y-117363039D01*
X144941937Y-117329435D01*
X144950036Y-117303336D01*
X144954920Y-117282724D01*
X144957275Y-117265582D01*
X144957800Y-117252231D01*
X144957382Y-117238942D01*
X144955639Y-117225389D01*
X144951840Y-117209850D01*
X144945254Y-117190606D01*
X144935150Y-117165934D01*
X144920795Y-117134115D01*
X144901459Y-117093427D01*
X144876409Y-117042149D01*
X144844916Y-116978561D01*
X144821473Y-116931476D01*
X144790125Y-116868646D01*
X144761183Y-116810758D01*
X144735508Y-116759524D01*
X144713960Y-116716654D01*
X144697398Y-116683860D01*
X144686683Y-116662852D01*
X144682687Y-116655354D01*
X144675017Y-116658384D01*
X144654741Y-116667753D01*
X144624391Y-116682216D01*
X144586500Y-116700526D01*
X144543601Y-116721438D01*
X144498227Y-116743704D01*
X144452910Y-116766080D01*
X144410183Y-116787318D01*
X144372579Y-116806172D01*
X144342631Y-116821397D01*
X144322870Y-116831746D01*
X144315958Y-116835795D01*
X144318913Y-116843667D01*
X144328557Y-116864719D01*
X144343953Y-116897009D01*
X144364165Y-116938598D01*
X144388255Y-116987545D01*
X144415288Y-117041910D01*
X144419356Y-117050046D01*
X144525362Y-117261929D01*
X144415036Y-117530559D01*
X144179109Y-117609033D01*
X144102587Y-117634741D01*
X144040418Y-117656407D01*
X143990774Y-117674971D01*
X143951823Y-117691371D01*
X143921737Y-117706548D01*
X143898685Y-117721441D01*
X143880838Y-117736990D01*
X143866365Y-117754134D01*
X143853437Y-117773813D01*
X143851350Y-117777327D01*
X143827500Y-117817901D01*
X143824757Y-118029567D01*
X143824140Y-118111794D01*
X143824645Y-118177462D01*
X143826280Y-118226907D01*
X143829057Y-118260467D01*
X143831802Y-118275101D01*
X143852830Y-118323615D01*
X143884332Y-118365108D01*
X143920039Y-118393200D01*
X143937124Y-118401025D01*
X143967845Y-118413130D01*
X144009715Y-118428616D01*
X144060250Y-118446583D01*
X144116963Y-118466131D01*
X144177367Y-118486361D01*
X144178867Y-118486856D01*
X144237516Y-118506334D01*
X144290932Y-118524335D01*
X144336988Y-118540121D01*
X144373561Y-118552956D01*
X144398524Y-118562102D01*
X144409753Y-118566823D01*
X144410064Y-118567046D01*
X144415425Y-118576591D01*
X144425950Y-118599104D01*
X144440431Y-118631866D01*
X144457660Y-118672156D01*
X144471579Y-118705486D01*
X144526262Y-118837730D01*
X144410750Y-119068633D01*
X144377960Y-119134337D01*
X144352021Y-119186893D01*
X144332130Y-119228257D01*
X144317483Y-119260386D01*
X144307275Y-119285234D01*
X144300702Y-119304760D01*
X144296960Y-119320917D01*
X144295246Y-119335663D01*
X144294755Y-119350798D01*
X144295486Y-119377547D01*
X144299060Y-119401699D01*
X144306746Y-119425126D01*
X144319809Y-119449704D01*
X144339515Y-119477304D01*
X144367130Y-119509801D01*
X144403922Y-119549068D01*
X144451156Y-119596979D01*
X144481653Y-119627304D01*
X144528615Y-119673658D01*
X144565517Y-119709529D01*
X144594231Y-119736450D01*
X144616631Y-119755952D01*
X144634590Y-119769566D01*
X144649982Y-119778823D01*
X144664679Y-119785255D01*
X144680555Y-119790393D01*
X144681483Y-119790664D01*
X144733964Y-119800577D01*
X144768835Y-119799313D01*
X144788409Y-119793574D01*
X144821455Y-119780495D01*
X144866515Y-119760731D01*
X144922132Y-119734934D01*
X144986848Y-119703757D01*
X145032600Y-119681166D01*
X145258367Y-119568717D01*
X145528065Y-119681209D01*
X145606780Y-119917183D01*
X145627723Y-119978845D01*
X145648048Y-120036607D01*
X145666873Y-120088120D01*
X145683316Y-120131032D01*
X145696495Y-120162994D01*
X145705528Y-120181655D01*
X145706744Y-120183562D01*
X145742495Y-120221939D01*
X145787232Y-120250655D01*
X145813738Y-120260765D01*
X145832839Y-120263657D01*
X145865554Y-120265863D01*
X145908912Y-120267406D01*
X145959944Y-120268304D01*
X146015680Y-120268580D01*
X146073150Y-120268255D01*
X146129385Y-120267350D01*
X146181415Y-120265886D01*
X146226271Y-120263884D01*
X146260981Y-120261366D01*
X146282578Y-120258351D01*
X146285906Y-120257408D01*
X146322032Y-120238275D01*
X146357684Y-120209401D01*
X146386468Y-120176408D01*
X146396116Y-120160467D01*
X146402874Y-120144318D01*
X146414025Y-120114503D01*
X146428712Y-120073455D01*
X146446079Y-120023607D01*
X146465266Y-119967392D01*
X146485418Y-119907242D01*
X146486359Y-119904406D01*
X146560938Y-119679511D01*
X146832168Y-119567825D01*
X147061267Y-119682798D01*
X147126378Y-119715417D01*
X147178359Y-119741205D01*
X147219191Y-119760966D01*
X147250859Y-119775504D01*
X147275345Y-119785624D01*
X147294633Y-119792130D01*
X147310706Y-119795826D01*
X147325547Y-119797517D01*
X147341139Y-119798006D01*
X147345400Y-119798036D01*
X147374021Y-119796915D01*
X147400246Y-119792413D01*
X147425976Y-119783261D01*
X147453111Y-119768188D01*
X147483552Y-119745922D01*
X147519200Y-119715193D01*
X147561954Y-119674731D01*
X147613717Y-119623264D01*
X147627165Y-119609668D01*
X147677699Y-119557944D01*
X147717217Y-119515824D01*
X147746971Y-119481241D01*
X147768217Y-119452133D01*
X147782210Y-119426434D01*
X147790205Y-119402080D01*
X147793456Y-119377007D01*
X147793219Y-119349151D01*
X147792496Y-119337687D01*
X147790686Y-119321262D01*
X147787115Y-119304006D01*
X147780950Y-119283930D01*
X147771358Y-119259046D01*
X147757509Y-119227364D01*
X147738569Y-119186896D01*
X147713707Y-119135654D01*
X147682090Y-119071647D01*
X147676344Y-119060079D01*
X147563908Y-118833835D01*
X147616154Y-118706868D01*
X147634445Y-118663284D01*
X147651213Y-118624935D01*
X147665141Y-118594708D01*
X147674914Y-118575490D01*
X147678350Y-118570332D01*
X147688682Y-118565303D01*
X147713001Y-118555787D01*
X147749191Y-118542539D01*
X147795137Y-118526317D01*
X147848724Y-118507875D01*
X147907836Y-118487969D01*
X147922102Y-118483226D01*
X147997832Y-118457853D01*
X148059207Y-118436457D01*
X148108060Y-118418038D01*
X148146220Y-118401591D01*
X148175519Y-118386116D01*
X148197786Y-118370609D01*
X148214853Y-118354068D01*
X148228550Y-118335491D01*
X148240707Y-118313875D01*
X148244239Y-118306828D01*
X148250249Y-118294036D01*
X148254900Y-118281536D01*
X148258368Y-118267043D01*
X148260825Y-118248274D01*
X148262445Y-118222946D01*
X148263403Y-118188775D01*
X148263870Y-118143476D01*
X148264022Y-118084767D01*
X148264033Y-118046501D01*
X148264033Y-117826367D01*
X148238749Y-117780713D01*
X148216338Y-117747744D01*
X148190314Y-117720508D01*
X148180471Y-117712980D01*
X148163880Y-117704540D01*
X148133612Y-117691800D01*
X148092102Y-117675678D01*
X148041783Y-117657090D01*
X147985086Y-117636956D01*
X147924447Y-117616192D01*
X147918984Y-117614359D01*
X147690491Y-117537818D01*
X147663208Y-117461959D01*
X147646181Y-117417031D01*
X147626007Y-117367327D01*
X147606586Y-117322405D01*
X147603464Y-117315548D01*
X147571001Y-117244996D01*
X147682852Y-117019215D01*
X147715070Y-116953979D01*
X147740457Y-116901901D01*
X147759816Y-116861022D01*
X147773948Y-116829385D01*
X147783653Y-116805032D01*
X147789735Y-116786003D01*
X147792995Y-116770341D01*
X147794233Y-116756088D01*
X147794336Y-116746867D01*
X147792889Y-116719073D01*
X147788157Y-116693571D01*
X147778852Y-116668467D01*
X147763685Y-116641865D01*
X147741370Y-116611871D01*
X147710618Y-116576588D01*
X147670141Y-116534122D01*
X147618652Y-116482578D01*
X147606803Y-116470899D01*
X147553515Y-116418625D01*
X147508409Y-116376018D01*
X147469278Y-116342863D01*
X147433917Y-116318945D01*
X147400120Y-116304049D01*
X147365680Y-116297960D01*
X147328392Y-116300463D01*
X147286048Y-116311343D01*
X147236445Y-116330386D01*
X147177374Y-116357375D01*
X147106631Y-116392096D01*
X147056270Y-116417246D01*
X146830846Y-116529863D01*
X146666906Y-116463260D01*
X146637831Y-116451091D01*
X146594502Y-116432449D01*
X146538090Y-116407854D01*
X146469764Y-116377825D01*
X146390692Y-116342884D01*
X146302043Y-116303549D01*
X146204987Y-116260342D01*
X146100693Y-116213782D01*
X145990329Y-116164389D01*
X145875065Y-116112683D01*
X145756069Y-116059185D01*
X145634512Y-116004414D01*
X145567400Y-115974123D01*
X145379977Y-115889666D01*
X145203867Y-115810693D01*
X145039545Y-115737412D01*
X144887482Y-115670031D01*
X144748152Y-115608758D01*
X144622028Y-115553799D01*
X144509583Y-115505363D01*
X144411289Y-115463658D01*
X144327620Y-115428890D01*
X144295168Y-115415685D01*
X143958503Y-115279781D01*
X143963174Y-115228041D01*
X143964972Y-115205190D01*
X143967600Y-115167698D01*
X143970951Y-115117329D01*
X143974920Y-115055853D01*
X143979401Y-114985034D01*
X143984287Y-114906642D01*
X143989473Y-114822442D01*
X143994854Y-114734203D01*
X144000322Y-114643690D01*
X144005772Y-114552671D01*
X144011099Y-114462914D01*
X144016197Y-114376185D01*
X144020958Y-114294252D01*
X144025279Y-114218880D01*
X144029052Y-114151839D01*
X144032172Y-114094894D01*
X144034533Y-114049813D01*
X144036029Y-114018363D01*
X144036542Y-114003667D01*
X144034071Y-113949886D01*
X144024442Y-113908790D01*
X144022682Y-113904324D01*
X144017130Y-113894687D01*
X144006266Y-113880361D01*
X143989408Y-113860645D01*
X143965876Y-113834835D01*
X143934986Y-113802233D01*
X143896058Y-113762134D01*
X143848410Y-113713838D01*
X143791360Y-113656644D01*
X143724226Y-113589850D01*
X143646328Y-113512753D01*
X143556983Y-113424653D01*
X143549354Y-113417142D01*
X143464541Y-113333858D01*
X143385804Y-113256966D01*
X143313840Y-113187129D01*
X143249348Y-113125014D01*
X143193026Y-113071283D01*
X143145573Y-113026602D01*
X143107687Y-112991636D01*
X143080065Y-112967048D01*
X143063408Y-112953504D01*
X143059826Y-112951258D01*
X143032976Y-112940359D01*
X143007772Y-112932654D01*
X143004793Y-112932012D01*
X142992647Y-112931925D01*
X142964993Y-112933144D01*
X142923199Y-112935571D01*
X142868634Y-112939111D01*
X142802664Y-112943667D01*
X142726657Y-112949142D01*
X142641982Y-112955440D01*
X142550005Y-112962462D01*
X142452094Y-112970114D01*
X142349618Y-112978298D01*
X142345191Y-112978655D01*
X142242650Y-112986914D01*
X142144695Y-112994755D01*
X142052687Y-113002074D01*
X141967982Y-113008764D01*
X141891940Y-113014720D01*
X141825918Y-113019835D01*
X141771275Y-113024004D01*
X141729370Y-113027122D01*
X141701560Y-113029081D01*
X141689205Y-113029777D01*
X141689024Y-113029777D01*
X141682979Y-113028690D01*
X141676748Y-113024529D01*
X141669552Y-113015742D01*
X141660612Y-113000779D01*
X141649149Y-112978088D01*
X141634382Y-112946117D01*
X141615534Y-112903315D01*
X141591825Y-112848131D01*
X141562475Y-112779012D01*
X141559262Y-112771421D01*
X141533249Y-112709640D01*
X141509655Y-112652999D01*
X141489225Y-112603334D01*
X141472703Y-112562482D01*
X141460834Y-112532278D01*
X141454363Y-112514558D01*
X141453429Y-112510574D01*
X141463532Y-112501965D01*
X141484842Y-112483381D01*
X141516167Y-112455879D01*
X141556314Y-112420518D01*
X141604089Y-112378356D01*
X141658302Y-112330450D01*
X141717758Y-112277858D01*
X141781264Y-112221639D01*
X141847629Y-112162849D01*
X141915659Y-112102548D01*
X141984161Y-112041792D01*
X142051944Y-111981641D01*
X142117813Y-111923150D01*
X142180576Y-111867380D01*
X142239041Y-111815386D01*
X142292015Y-111768228D01*
X142338304Y-111726964D01*
X142376717Y-111692650D01*
X142406060Y-111666345D01*
X142425141Y-111649107D01*
X142432766Y-111641994D01*
X142432808Y-111641945D01*
X142443460Y-111626456D01*
X142457209Y-111603473D01*
X142461972Y-111594901D01*
X142466157Y-111586902D01*
X142469643Y-111578661D01*
X142472485Y-111568668D01*
X142474736Y-111555409D01*
X142476448Y-111537374D01*
X142477676Y-111513051D01*
X142478473Y-111480927D01*
X142478892Y-111439492D01*
X142478987Y-111387233D01*
X142478811Y-111322639D01*
X142478418Y-111244198D01*
X142477861Y-111150398D01*
X142477836Y-111146167D01*
X142477173Y-111052561D01*
X142476313Y-110954747D01*
X142475294Y-110855945D01*
X142474157Y-110759371D01*
X142472940Y-110668243D01*
X142471682Y-110585780D01*
X142470423Y-110515199D01*
X142469721Y-110481534D01*
X142468078Y-110409856D01*
X142466592Y-110353038D01*
X142465073Y-110309011D01*
X142463333Y-110275705D01*
X142461179Y-110251051D01*
X142458424Y-110232978D01*
X142454877Y-110219417D01*
X142450348Y-110208300D01*
X142444647Y-110197555D01*
X142443482Y-110195500D01*
X142435629Y-110185046D01*
X142420555Y-110168948D01*
X142397635Y-110146651D01*
X142366245Y-110117603D01*
X142325760Y-110081250D01*
X142275555Y-110037039D01*
X142215005Y-109984417D01*
X142143487Y-109922831D01*
X142060375Y-109851727D01*
X141965044Y-109770551D01*
X141932063Y-109742534D01*
X141853399Y-109675759D01*
X141778335Y-109612070D01*
X141707891Y-109552333D01*
X141643089Y-109497412D01*
X141584952Y-109448173D01*
X141534500Y-109405480D01*
X141492757Y-109370198D01*
X141460743Y-109343194D01*
X141439481Y-109325331D01*
X141429992Y-109317475D01*
X141429717Y-109317263D01*
X141427498Y-109312199D01*
X141428446Y-109301409D01*
X141433069Y-109283432D01*
X141441873Y-109256806D01*
X141455367Y-109220069D01*
X141474059Y-109171759D01*
X141498457Y-109110414D01*
X141520875Y-109054797D01*
X141545961Y-108992944D01*
X141569169Y-108935994D01*
X141589703Y-108885882D01*
X141606764Y-108844543D01*
X141619555Y-108813915D01*
X141627278Y-108795932D01*
X141629122Y-108792057D01*
X141637654Y-108790650D01*
X141660948Y-108790412D01*
X141699266Y-108791353D01*
X141752867Y-108793488D01*
X141822014Y-108796829D01*
X141906968Y-108801389D01*
X142007990Y-108807180D01*
X142125340Y-108814216D01*
X142259281Y-108822508D01*
X142278100Y-108823690D01*
X142381744Y-108830123D01*
X142481099Y-108836123D01*
X142574777Y-108841615D01*
X142661390Y-108846526D01*
X142739549Y-108850783D01*
X142807866Y-108854311D01*
X142864951Y-108857038D01*
X142909416Y-108858889D01*
X142939873Y-108859790D01*
X142954933Y-108859669D01*
X142955434Y-108859613D01*
X142984877Y-108852103D01*
X143015975Y-108839096D01*
X143023167Y-108835160D01*
X143034521Y-108825977D01*
X143056698Y-108805679D01*
X143088688Y-108775263D01*
X143129479Y-108735724D01*
X143178061Y-108688061D01*
X143233422Y-108633268D01*
X143294551Y-108572342D01*
X143360438Y-108506280D01*
X143430071Y-108436078D01*
X143500196Y-108365013D01*
X143586737Y-108277082D01*
X143662178Y-108200312D01*
X143727278Y-108133773D01*
X143782796Y-108076538D01*
X143829489Y-108027679D01*
X143868117Y-107986267D01*
X143899438Y-107951374D01*
X143924211Y-107922072D01*
X143943193Y-107897433D01*
X143957144Y-107876528D01*
X143966822Y-107858430D01*
X143972985Y-107842210D01*
X143976392Y-107826940D01*
X143977801Y-107811692D01*
X143977972Y-107795538D01*
X143977713Y-107780667D01*
X143976901Y-107764482D01*
X143974840Y-107733133D01*
X143971665Y-107688329D01*
X143967511Y-107631784D01*
X143962514Y-107565209D01*
X143956808Y-107490314D01*
X143950531Y-107408813D01*
X143943815Y-107322416D01*
X143936798Y-107232836D01*
X143929614Y-107141783D01*
X143922398Y-107050969D01*
X143915286Y-106962106D01*
X143908413Y-106876905D01*
X143901914Y-106797079D01*
X143895925Y-106724338D01*
X143890581Y-106660394D01*
X143886017Y-106606959D01*
X143882368Y-106565744D01*
X143879771Y-106538461D01*
X143878886Y-106530395D01*
X143874577Y-106495090D01*
X144126205Y-106387795D01*
X144187551Y-106361640D01*
X144244059Y-106337554D01*
X144293804Y-106316356D01*
X144334860Y-106298867D01*
X144365303Y-106285906D01*
X144383206Y-106278295D01*
X144387080Y-106276658D01*
X144394014Y-106282239D01*
X144411254Y-106299584D01*
X144437930Y-106327736D01*
X144473172Y-106365738D01*
X144516109Y-106412634D01*
X144565869Y-106467467D01*
X144621584Y-106529281D01*
X144682381Y-106597120D01*
X144747390Y-106670025D01*
X144815741Y-106747042D01*
X144832863Y-106766391D01*
X144902417Y-106844848D01*
X144969226Y-106919854D01*
X145032375Y-106990401D01*
X145090947Y-107055480D01*
X145144025Y-107114085D01*
X145190692Y-107165208D01*
X145230032Y-107207842D01*
X145261128Y-107240978D01*
X145283064Y-107263610D01*
X145294923Y-107274729D01*
X145296003Y-107275481D01*
X145321438Y-107288303D01*
X145345740Y-107297628D01*
X145346107Y-107297735D01*
X145358184Y-107298727D01*
X145385831Y-107299504D01*
X145427686Y-107300064D01*
X145482388Y-107300407D01*
X145548574Y-107300534D01*
X145624883Y-107300444D01*
X145709953Y-107300137D01*
X145802422Y-107299614D01*
X145900929Y-107298873D01*
X146004111Y-107297915D01*
X146015072Y-107297802D01*
X146660536Y-107291130D01*
X146705316Y-107269221D01*
X146714412Y-107264241D01*
X146724444Y-107257416D01*
X146736201Y-107247873D01*
X146750473Y-107234734D01*
X146768049Y-107217125D01*
X146789718Y-107194170D01*
X146816271Y-107164995D01*
X146848497Y-107128722D01*
X146887185Y-107084477D01*
X146933125Y-107031385D01*
X146987106Y-106968570D01*
X147049918Y-106895156D01*
X147122351Y-106810268D01*
X147176109Y-106747180D01*
X147256159Y-106653284D01*
X147326004Y-106571560D01*
X147386344Y-106501226D01*
X147437879Y-106441499D01*
X147481309Y-106391596D01*
X147517336Y-106350737D01*
X147546659Y-106318139D01*
X147569979Y-106293019D01*
X147587996Y-106274595D01*
X147601410Y-106262086D01*
X147610922Y-106254708D01*
X147617232Y-106251681D01*
X147619811Y-106251637D01*
X147631885Y-106255851D01*
X147657578Y-106265580D01*
X147694804Y-106280008D01*
X147741476Y-106298318D01*
X147795508Y-106319695D01*
X147854814Y-106343323D01*
X147878800Y-106352922D01*
X147946709Y-106380184D01*
X148000541Y-106402008D01*
X148041953Y-106419221D01*
X148072601Y-106432647D01*
X148094141Y-106443112D01*
X148108229Y-106451441D01*
X148116522Y-106458460D01*
X148120675Y-106464994D01*
X148122346Y-106471868D01*
X148122643Y-106474434D01*
X148122540Y-106486752D01*
X148121441Y-106514590D01*
X148119423Y-106556568D01*
X148116564Y-106611307D01*
X148112940Y-106677426D01*
X148108628Y-106753547D01*
X148103705Y-106838289D01*
X148098249Y-106930272D01*
X148092335Y-107028119D01*
X148086108Y-107129374D01*
X148078568Y-107250892D01*
X148072047Y-107356710D01*
X148066552Y-107448028D01*
X148062090Y-107526051D01*
X148058669Y-107591979D01*
X148056295Y-107647015D01*
X148054976Y-107692362D01*
X148054718Y-107729222D01*
X148055529Y-107758797D01*
X148057416Y-107782289D01*
X148060385Y-107800900D01*
X148064443Y-107815833D01*
X148069599Y-107828290D01*
X148075858Y-107839474D01*
X148083228Y-107850586D01*
X148090394Y-107860906D01*
X148100696Y-107873028D01*
X148121971Y-107895775D01*
X148153051Y-107927971D01*
X148192769Y-107968436D01*
X148239957Y-108015992D01*
X148293446Y-108069461D01*
X148352070Y-108127665D01*
X148414661Y-108189426D01*
X148464129Y-108237983D01*
X148557977Y-108329893D01*
X148640522Y-108410696D01*
X148712560Y-108481132D01*
X148774888Y-108541940D01*
X148828303Y-108593858D01*
X148873603Y-108637625D01*
X148911582Y-108673980D01*
X148943040Y-108703663D01*
X148968773Y-108727412D01*
X148989577Y-108745966D01*
X149006251Y-108760063D01*
X149019589Y-108770444D01*
X149030391Y-108777846D01*
X149039452Y-108783009D01*
X149047569Y-108786672D01*
X149055540Y-108789573D01*
X149061010Y-108791396D01*
X149069364Y-108793989D01*
X149078302Y-108796104D01*
X149089015Y-108797677D01*
X149102697Y-108798643D01*
X149120541Y-108798936D01*
X149143739Y-108798493D01*
X149173483Y-108797248D01*
X149210967Y-108795137D01*
X149257384Y-108792095D01*
X149313925Y-108788057D01*
X149381784Y-108782958D01*
X149462154Y-108776734D01*
X149556227Y-108769320D01*
X149665196Y-108760651D01*
X149746118Y-108754189D01*
X149849080Y-108746010D01*
X149947353Y-108738296D01*
X150039600Y-108731147D01*
X150124482Y-108724663D01*
X150200661Y-108718942D01*
X150266801Y-108714085D01*
X150321562Y-108710189D01*
X150363607Y-108707356D01*
X150391598Y-108705683D01*
X150404197Y-108705270D01*
X150404588Y-108705306D01*
X150411522Y-108710092D01*
X150421026Y-108723551D01*
X150433790Y-108747065D01*
X150450502Y-108782013D01*
X150471854Y-108829778D01*
X150498535Y-108891739D01*
X150503106Y-108902501D01*
X150527554Y-108960119D01*
X150551369Y-109016212D01*
X150573252Y-109067722D01*
X150591906Y-109111593D01*
X150606031Y-109144767D01*
X150611802Y-109158290D01*
X150637901Y-109219347D01*
X150145234Y-109654422D01*
X150044882Y-109743198D01*
X149956839Y-109821427D01*
X149880571Y-109889599D01*
X149815545Y-109948204D01*
X149761229Y-109997733D01*
X149717088Y-110038676D01*
X149682590Y-110071523D01*
X149657201Y-110096764D01*
X149640388Y-110114889D01*
X149631618Y-110126389D01*
X149631400Y-110126765D01*
X149610233Y-110164034D01*
X149613174Y-110765167D01*
X149613842Y-110893824D01*
X149614542Y-111006674D01*
X149615329Y-111104845D01*
X149616257Y-111189463D01*
X149617380Y-111261654D01*
X149618753Y-111322546D01*
X149620431Y-111373266D01*
X149622469Y-111414940D01*
X149624919Y-111448695D01*
X149627838Y-111475658D01*
X149631280Y-111496956D01*
X149635298Y-111513715D01*
X149639948Y-111527062D01*
X149645285Y-111538125D01*
X149651010Y-111547500D01*
X149661159Y-111558588D01*
X149683325Y-111579734D01*
X149716557Y-111610108D01*
X149759908Y-111648874D01*
X149812429Y-111695200D01*
X149873171Y-111748252D01*
X149941185Y-111807197D01*
X150015523Y-111871203D01*
X150095235Y-111939435D01*
X150162290Y-111996549D01*
X150240750Y-112063293D01*
X150315516Y-112127010D01*
X150385574Y-112186831D01*
X150449910Y-112241883D01*
X150507511Y-112291295D01*
X150557362Y-112334197D01*
X150598451Y-112369717D01*
X150629763Y-112396984D01*
X150650284Y-112415127D01*
X150659001Y-112423275D01*
X150659180Y-112423501D01*
X150658363Y-112435063D01*
X150650587Y-112461971D01*
X150635846Y-112504240D01*
X150614134Y-112561888D01*
X150585446Y-112634932D01*
X150561966Y-112693362D01*
X150457207Y-112952172D01*
X150414720Y-112948380D01*
X150399381Y-112947248D01*
X150368591Y-112945186D01*
X150323802Y-112942285D01*
X150266466Y-112938635D01*
X150198035Y-112934328D01*
X150119961Y-112929455D01*
X150033694Y-112924107D01*
X149940688Y-112918374D01*
X149842394Y-112912349D01*
X149757614Y-112907176D01*
X149633927Y-112899715D01*
X149526146Y-112893367D01*
X149433283Y-112888090D01*
X149354350Y-112883841D01*
X149288358Y-112880575D01*
X149234320Y-112878251D01*
X149191247Y-112876825D01*
X149158152Y-112876253D01*
X149134047Y-112876493D01*
X149117943Y-112877501D01*
X149110077Y-112878853D01*
X149069085Y-112895834D01*
X149025691Y-112925321D01*
X148978218Y-112968558D01*
X148952833Y-112995276D01*
X148937408Y-113011684D01*
X148911285Y-113038933D01*
X148875649Y-113075806D01*
X148831687Y-113121083D01*
X148780587Y-113173547D01*
X148723536Y-113231980D01*
X148661720Y-113295162D01*
X148596327Y-113361875D01*
X148528544Y-113430901D01*
X148516769Y-113442879D01*
X148439691Y-113521318D01*
X148373628Y-113588687D01*
X148317694Y-113645961D01*
X148271000Y-113694111D01*
X148232659Y-113734112D01*
X148201781Y-113766937D01*
X148177480Y-113793559D01*
X148158867Y-113814951D01*
X148145055Y-113832087D01*
X148135155Y-113845940D01*
X148128279Y-113857484D01*
X148123539Y-113867691D01*
X148120048Y-113877535D01*
X148119960Y-113877811D01*
X148117307Y-113886630D01*
X148115116Y-113895712D01*
X148113452Y-113906243D01*
X148112380Y-113919411D01*
X148111966Y-113936400D01*
X148112274Y-113958397D01*
X148113369Y-113986590D01*
X148115316Y-114022162D01*
X148118180Y-114066302D01*
X148122026Y-114120195D01*
X148126920Y-114185028D01*
X148132925Y-114261987D01*
X148140108Y-114352257D01*
X148148532Y-114457026D01*
X148158264Y-114577479D01*
X148158324Y-114578220D01*
X148167085Y-114687811D01*
X148175118Y-114790782D01*
X148182343Y-114885992D01*
X148188683Y-114972297D01*
X148194059Y-115048553D01*
X148198393Y-115113618D01*
X148201604Y-115166347D01*
X148203616Y-115205598D01*
X148204349Y-115230227D01*
X148203766Y-115239063D01*
X148194576Y-115243719D01*
X148171494Y-115254238D01*
X148136218Y-115269878D01*
X148090447Y-115289897D01*
X148035882Y-115313554D01*
X147974221Y-115340106D01*
X147907164Y-115368812D01*
X147883033Y-115379102D01*
X147814483Y-115408404D01*
X147750728Y-115435843D01*
X147693469Y-115460670D01*
X147644411Y-115482141D01*
X147605254Y-115499509D01*
X147577702Y-115512028D01*
X147563455Y-115518950D01*
X147561937Y-115519903D01*
X147562706Y-115529836D01*
X147569942Y-115553629D01*
X147583076Y-115589743D01*
X147601541Y-115636638D01*
X147624765Y-115692772D01*
X147632755Y-115711603D01*
X147654935Y-115763497D01*
X147674864Y-115809933D01*
X147691599Y-115848731D01*
X147704198Y-115877711D01*
X147711718Y-115894693D01*
X147713434Y-115898260D01*
X147721735Y-115895913D01*
X147743796Y-115887455D01*
X147777890Y-115873633D01*
X147822295Y-115855194D01*
X147875286Y-115832886D01*
X147935139Y-115807454D01*
X148000130Y-115779647D01*
X148068535Y-115750211D01*
X148138630Y-115719894D01*
X148208692Y-115689442D01*
X148276995Y-115659603D01*
X148341816Y-115631123D01*
X148401431Y-115604750D01*
X148454115Y-115581230D01*
X148498146Y-115561312D01*
X148531798Y-115545741D01*
X148553348Y-115535265D01*
X148560543Y-115531192D01*
X148595405Y-115494443D01*
X148619697Y-115447146D01*
X148631615Y-115393245D01*
X148632526Y-115374121D01*
X148631880Y-115357116D01*
X148629949Y-115324669D01*
X148626840Y-115278214D01*
X148622661Y-115219187D01*
X148617516Y-115149022D01*
X148611514Y-115069152D01*
X148604761Y-114981014D01*
X148597364Y-114886040D01*
X148589429Y-114785666D01*
X148581063Y-114681326D01*
X148580238Y-114671120D01*
X148527757Y-114022006D01*
X148886232Y-113657237D01*
X148963119Y-113579124D01*
X149029086Y-113512404D01*
X149084966Y-113456279D01*
X149131589Y-113409952D01*
X149169790Y-113372624D01*
X149200399Y-113343497D01*
X149224249Y-113321773D01*
X149242172Y-113306655D01*
X149255001Y-113297345D01*
X149263567Y-113293044D01*
X149266603Y-113292523D01*
X149278485Y-113293045D01*
X149305875Y-113294538D01*
X149347384Y-113296919D01*
X149401619Y-113300103D01*
X149467190Y-113304009D01*
X149542705Y-113308552D01*
X149626774Y-113313650D01*
X149718003Y-113319219D01*
X149815004Y-113325176D01*
X149902333Y-113330567D01*
X150004538Y-113336839D01*
X150103183Y-113342789D01*
X150196750Y-113348333D01*
X150283720Y-113353384D01*
X150362577Y-113357858D01*
X150431803Y-113361670D01*
X150489878Y-113364734D01*
X150535286Y-113366966D01*
X150566508Y-113368279D01*
X150580121Y-113368612D01*
X150643198Y-113362151D01*
X150696883Y-113343030D01*
X150739866Y-113311819D01*
X150757016Y-113291746D01*
X150764587Y-113277852D01*
X150777740Y-113249803D01*
X150795803Y-113209180D01*
X150818101Y-113157562D01*
X150843964Y-113096530D01*
X150872718Y-113027664D01*
X150903689Y-112952546D01*
X150936207Y-112872756D01*
X150951972Y-112833742D01*
X151123529Y-112408039D01*
X151119375Y-112349970D01*
X151115029Y-112312646D01*
X151106904Y-112285053D01*
X151092810Y-112260060D01*
X151090860Y-112257248D01*
X151081706Y-112247090D01*
X151062748Y-112228810D01*
X151033734Y-112202189D01*
X150994409Y-112167006D01*
X150944518Y-112123042D01*
X150883806Y-112070076D01*
X150812021Y-112007889D01*
X150728906Y-111936260D01*
X150634209Y-111854970D01*
X150527674Y-111763798D01*
X150409048Y-111662524D01*
X150278075Y-111550929D01*
X150134502Y-111428792D01*
X150057720Y-111363539D01*
X150031072Y-111340901D01*
X150025763Y-110828667D01*
X150020454Y-110316434D01*
X150536396Y-109861300D01*
X150632972Y-109776113D01*
X150717658Y-109701335D01*
X150791233Y-109636144D01*
X150854477Y-109579715D01*
X150908170Y-109531225D01*
X150953091Y-109489851D01*
X150990021Y-109454768D01*
X151019739Y-109425152D01*
X151043025Y-109400180D01*
X151060659Y-109379028D01*
X151073419Y-109360872D01*
X151082088Y-109344888D01*
X151087443Y-109330253D01*
X151090264Y-109316143D01*
X151091333Y-109301734D01*
X151091427Y-109286202D01*
X151091335Y-109275034D01*
X151090891Y-109262910D01*
X151089331Y-109249923D01*
X151086130Y-109234684D01*
X151080760Y-109215807D01*
X151072694Y-109191905D01*
X151061404Y-109161591D01*
X151046364Y-109123477D01*
X151027047Y-109076178D01*
X151002925Y-109018306D01*
X150973471Y-108948473D01*
X150938158Y-108865294D01*
X150914349Y-108809367D01*
X150880040Y-108729199D01*
X150847060Y-108652847D01*
X150816118Y-108581906D01*
X150787923Y-108517970D01*
X150763185Y-108462634D01*
X150742613Y-108417491D01*
X150726917Y-108384136D01*
X150716806Y-108364163D01*
X150714509Y-108360314D01*
X150678105Y-108321050D01*
X150631205Y-108294597D01*
X150575037Y-108281546D01*
X150547963Y-108280200D01*
X150529989Y-108280871D01*
X150496608Y-108282810D01*
X150449293Y-108285912D01*
X150389514Y-108290067D01*
X150318743Y-108295169D01*
X150238451Y-108301110D01*
X150150109Y-108307783D01*
X150055188Y-108315080D01*
X149955160Y-108322893D01*
X149855645Y-108330785D01*
X149222371Y-108381369D01*
X149043769Y-108208123D01*
X148988764Y-108154740D01*
X148925403Y-108093198D01*
X148857453Y-108027162D01*
X148788682Y-107960294D01*
X148722859Y-107896256D01*
X148666766Y-107841648D01*
X148468366Y-107648419D01*
X148508211Y-106996993D01*
X148514566Y-106892558D01*
X148520603Y-106792308D01*
X148526243Y-106697634D01*
X148531404Y-106609929D01*
X148536008Y-106530585D01*
X148539973Y-106460994D01*
X148543221Y-106402549D01*
X148545671Y-106356641D01*
X148547242Y-106324662D01*
X148547856Y-106308006D01*
X148547861Y-106307013D01*
X148540760Y-106262994D01*
X148522057Y-106217929D01*
X148495025Y-106178247D01*
X148470746Y-106155518D01*
X148456834Y-106147934D01*
X148428773Y-106134771D01*
X148388147Y-106116704D01*
X148336544Y-106094409D01*
X148275549Y-106068561D01*
X148206748Y-106039835D01*
X148131727Y-106008907D01*
X148052073Y-105976451D01*
X148015219Y-105961560D01*
X147921828Y-105923977D01*
X147842736Y-105892303D01*
X147776566Y-105866042D01*
X147721942Y-105844696D01*
X147677487Y-105827770D01*
X147641825Y-105814767D01*
X147613580Y-105805191D01*
X147591374Y-105798546D01*
X147573832Y-105794335D01*
X147559577Y-105792061D01*
X147547233Y-105791228D01*
X147542780Y-105791186D01*
X147492000Y-105796778D01*
D13*
X132060000Y-72410000D02*
X132060000Y-100310000D01*
X186460000Y-72410000D02*
X132060000Y-72410000D01*
X186460000Y-100310000D02*
X186460000Y-72410000D01*
X132060000Y-100310000D02*
X186460000Y-100310000D01*
D11*
X214960200Y-90726400D02*
G75*
G03X214960200Y-90726400I-127000J0D01*
G01*
X206885400Y-92329000D02*
G75*
G03X206885400Y-92329000I-127000J0D01*
G01*
X195656200Y-90728800D02*
G75*
G03X195656200Y-90728800I-127000J0D01*
G01*
X206883000Y-72843000D02*
G75*
G03X206883000Y-72843000I-127000J0D01*
G01*
X86408400Y-84992600D02*
G75*
G03X86408400Y-84992600I-127000J0D01*
G01*
X70633200Y-91186000D02*
G75*
G03X70633200Y-91186000I-127000J0D01*
G01*
X86106000Y-91186000D02*
G75*
G03X86106000Y-91186000I-127000J0D01*
G01*
X86383000Y-114888400D02*
G75*
G03X86383000Y-114888400I-127000J0D01*
G01*
X86383000Y-123088400D02*
G75*
G03X86383000Y-123088400I-127000J0D01*
G01*
X64262000Y-97195000D02*
G75*
G03X64262000Y-97195000I-127000J0D01*
G01*
X70162001Y-102197212D02*
X70162001Y-98628060D01*
X62608000Y-104812788D02*
X62608000Y-105132060D01*
X62608000Y-98628060D02*
X62608000Y-102197212D01*
X64508000Y-98628060D02*
X62608000Y-98628060D01*
X64508000Y-94728059D02*
X64508000Y-98628060D01*
X68262001Y-94728059D02*
X64508000Y-94728059D01*
X68262001Y-98628060D02*
X68262001Y-94728059D01*
X70162001Y-98628060D02*
X68262001Y-98628060D01*
X70162001Y-105132060D02*
X70162001Y-104812788D01*
X62608000Y-105132060D02*
X70162001Y-105132060D01*
X221323000Y-105132060D02*
X228877001Y-105132060D01*
X228877001Y-105132060D02*
X228877001Y-104812788D01*
X228877001Y-98628060D02*
X226977001Y-98628060D01*
X226977001Y-98628060D02*
X226977001Y-94728059D01*
X226977001Y-94728059D02*
X223223000Y-94728059D01*
X223223000Y-94728059D02*
X223223000Y-98628060D01*
X223223000Y-98628060D02*
X221323000Y-98628060D01*
X221323000Y-98628060D02*
X221323000Y-102197212D01*
X221323000Y-104812788D02*
X221323000Y-105132060D01*
X228877001Y-102197212D02*
X228877001Y-98628060D01*
X222977000Y-97195000D02*
G75*
G03X222977000Y-97195000I-127000J0D01*
G01*
X184010300Y-124625100D02*
X106438700Y-124625100D01*
X106438700Y-124625100D02*
X106438700Y-103466900D01*
X106438700Y-103466900D02*
X184010300Y-103466900D01*
X184010300Y-103466900D02*
X184010300Y-124625100D01*
X185026300Y-113919000D02*
G75*
G03X185026300Y-113919000I-381000J0D01*
G01*
X111665000Y-93750000D02*
X111665000Y-94080000D01*
X111665000Y-94080000D02*
X118205000Y-94080000D01*
X118205000Y-94080000D02*
X118205000Y-93750000D01*
X111665000Y-91670000D02*
X111665000Y-91340000D01*
X111665000Y-91340000D02*
X118205000Y-91340000D01*
X118205000Y-91340000D02*
X118205000Y-91670000D01*
X118205000Y-87530000D02*
X118205000Y-87860000D01*
X111665000Y-87530000D02*
X118205000Y-87530000D01*
X111665000Y-87860000D02*
X111665000Y-87530000D01*
X118205000Y-90270000D02*
X118205000Y-89940000D01*
X111665000Y-90270000D02*
X118205000Y-90270000D01*
X111665000Y-89940000D02*
X111665000Y-90270000D01*
X111665000Y-86130000D02*
X111665000Y-86460000D01*
X111665000Y-86460000D02*
X118205000Y-86460000D01*
X118205000Y-86460000D02*
X118205000Y-86130000D01*
X111665000Y-84050000D02*
X111665000Y-83720000D01*
X111665000Y-83720000D02*
X118205000Y-83720000D01*
X118205000Y-83720000D02*
X118205000Y-84050000D01*
X118205000Y-79809999D02*
X118205000Y-80139999D01*
X111665000Y-79809999D02*
X118205000Y-79809999D01*
X111665000Y-80139999D02*
X111665000Y-79809999D01*
X118205000Y-82549999D02*
X118205000Y-82219999D01*
X111665000Y-82549999D02*
X118205000Y-82549999D01*
X111665000Y-82219999D02*
X111665000Y-82549999D01*
X111665000Y-78510000D02*
X111665000Y-78840000D01*
X111665000Y-78840000D02*
X118205000Y-78840000D01*
X118205000Y-78840000D02*
X118205000Y-78510000D01*
X111665000Y-76430000D02*
X111665000Y-76100000D01*
X111665000Y-76100000D02*
X118205000Y-76100000D01*
X118205000Y-76100000D02*
X118205000Y-76430000D01*
X118205000Y-72290000D02*
X118205000Y-72620000D01*
X111665000Y-72290000D02*
X118205000Y-72290000D01*
X111665000Y-72620000D02*
X111665000Y-72290000D01*
X118205000Y-75030000D02*
X118205000Y-74700000D01*
X111665000Y-75030000D02*
X118205000Y-75030000D01*
X111665000Y-74700000D02*
X111665000Y-75030000D01*
X129000000Y-91340000D02*
X129000000Y-91670000D01*
X122460000Y-91340000D02*
X129000000Y-91340000D01*
X122460000Y-91670000D02*
X122460000Y-91340000D01*
X129000000Y-94080000D02*
X129000000Y-93750000D01*
X122460000Y-94080000D02*
X129000000Y-94080000D01*
X122460000Y-93750000D02*
X122460000Y-94080000D01*
X122460000Y-89940000D02*
X122460000Y-90270000D01*
X122460000Y-90270000D02*
X129000000Y-90270000D01*
X129000000Y-90270000D02*
X129000000Y-89940000D01*
X122460000Y-87860000D02*
X122460000Y-87530000D01*
X122460000Y-87530000D02*
X129000000Y-87530000D01*
X129000000Y-87530000D02*
X129000000Y-87860000D01*
X122460000Y-86130000D02*
X122460000Y-86460000D01*
X122460000Y-86460000D02*
X129000000Y-86460000D01*
X129000000Y-86460000D02*
X129000000Y-86130000D01*
X122460000Y-84050000D02*
X122460000Y-83720000D01*
X122460000Y-83720000D02*
X129000000Y-83720000D01*
X129000000Y-83720000D02*
X129000000Y-84050000D01*
X129000000Y-79910000D02*
X129000000Y-80240000D01*
X122460000Y-79910000D02*
X129000000Y-79910000D01*
X122460000Y-80240000D02*
X122460000Y-79910000D01*
X129000000Y-82650000D02*
X129000000Y-82320000D01*
X122460000Y-82650000D02*
X129000000Y-82650000D01*
X122460000Y-82320000D02*
X122460000Y-82650000D01*
X122460000Y-78510000D02*
X122460000Y-78840000D01*
X122460000Y-78840000D02*
X129000000Y-78840000D01*
X129000000Y-78840000D02*
X129000000Y-78510000D01*
X122460000Y-76430000D02*
X122460000Y-76100000D01*
X122460000Y-76100000D02*
X129000000Y-76100000D01*
X129000000Y-76100000D02*
X129000000Y-76430000D01*
X129000000Y-72290000D02*
X129000000Y-72620000D01*
X122460000Y-72290000D02*
X129000000Y-72290000D01*
X122460000Y-72620000D02*
X122460000Y-72290000D01*
X129000000Y-75030000D02*
X129000000Y-74700000D01*
X122460000Y-75030000D02*
X129000000Y-75030000D01*
X122460000Y-74700000D02*
X122460000Y-75030000D01*
D10*
X187208214Y-96426976D02*
X188018050Y-96426976D01*
X188113325Y-96474613D01*
X188160963Y-96522251D01*
X188208600Y-96617525D01*
X188208600Y-96808075D01*
X188160963Y-96903350D01*
X188113325Y-96950987D01*
X188018050Y-96998625D01*
X187208214Y-96998625D01*
X187303489Y-97427362D02*
X187255852Y-97474999D01*
X187208214Y-97570274D01*
X187208214Y-97808461D01*
X187255852Y-97903736D01*
X187303489Y-97951373D01*
X187398764Y-97999011D01*
X187494039Y-97999011D01*
X187636951Y-97951373D01*
X188208600Y-97379724D01*
X188208600Y-97999011D01*
X68194524Y-103909761D02*
X68051667Y-103957380D01*
X67813572Y-103957380D01*
X67718334Y-103909761D01*
X67670715Y-103862142D01*
X67623096Y-103766904D01*
X67623096Y-103671666D01*
X67670715Y-103576428D01*
X67718334Y-103528809D01*
X67813572Y-103481190D01*
X68004048Y-103433571D01*
X68099286Y-103385952D01*
X68146905Y-103338333D01*
X68194524Y-103243095D01*
X68194524Y-103147857D01*
X68146905Y-103052619D01*
X68099286Y-103005000D01*
X68004048Y-102957380D01*
X67765953Y-102957380D01*
X67623096Y-103005000D01*
X67289762Y-102957380D02*
X67051667Y-103957380D01*
X66861191Y-103243095D01*
X66670715Y-103957380D01*
X66432620Y-102957380D01*
X65527858Y-103957380D02*
X66099286Y-103957380D01*
X65813572Y-103957380D02*
X65813572Y-102957380D01*
X65908810Y-103100238D01*
X66004048Y-103195476D01*
X66099286Y-103243095D01*
X64575477Y-103957380D02*
X65146905Y-103957380D01*
X64861191Y-103957380D02*
X64861191Y-102957380D01*
X64956429Y-103100238D01*
X65051667Y-103195476D01*
X65146905Y-103243095D01*
X69432620Y-106449761D02*
X69289762Y-106497380D01*
X69051667Y-106497380D01*
X68956429Y-106449761D01*
X68908810Y-106402142D01*
X68861191Y-106306904D01*
X68861191Y-106211666D01*
X68908810Y-106116428D01*
X68956429Y-106068809D01*
X69051667Y-106021190D01*
X69242143Y-105973571D01*
X69337381Y-105925952D01*
X69385001Y-105878333D01*
X69432620Y-105783095D01*
X69432620Y-105687857D01*
X69385001Y-105592619D01*
X69337381Y-105545000D01*
X69242143Y-105497380D01*
X69004048Y-105497380D01*
X68861191Y-105545000D01*
X68527858Y-105497380D02*
X68289762Y-106497380D01*
X68099286Y-105783095D01*
X67908810Y-106497380D01*
X67670715Y-105497380D01*
X67527858Y-106592619D02*
X66765953Y-106592619D01*
X66527858Y-106497380D02*
X66527858Y-105497380D01*
X66146905Y-105497380D01*
X66051667Y-105545000D01*
X66004048Y-105592619D01*
X65956429Y-105687857D01*
X65956429Y-105830714D01*
X66004048Y-105925952D01*
X66051667Y-105973571D01*
X66146905Y-106021190D01*
X66527858Y-106021190D01*
X65099286Y-105830714D02*
X65099286Y-106497380D01*
X65527858Y-105830714D02*
X65527858Y-106354523D01*
X65480239Y-106449761D01*
X65385001Y-106497380D01*
X65242143Y-106497380D01*
X65146905Y-106449761D01*
X65099286Y-106402142D01*
X64670715Y-106449761D02*
X64575477Y-106497380D01*
X64385001Y-106497380D01*
X64289762Y-106449761D01*
X64242143Y-106354523D01*
X64242143Y-106306904D01*
X64289762Y-106211666D01*
X64385001Y-106164047D01*
X64527858Y-106164047D01*
X64623096Y-106116428D01*
X64670715Y-106021190D01*
X64670715Y-105973571D01*
X64623096Y-105878333D01*
X64527858Y-105830714D01*
X64385001Y-105830714D01*
X64289762Y-105878333D01*
X63813572Y-106497380D02*
X63813572Y-105497380D01*
X63385001Y-106497380D02*
X63385001Y-105973571D01*
X63432620Y-105878333D01*
X63527858Y-105830714D01*
X63670715Y-105830714D01*
X63765953Y-105878333D01*
X63813572Y-105925952D01*
X64135000Y-100457380D02*
X64135000Y-100695476D01*
X64373095Y-100600238D02*
X64135000Y-100695476D01*
X63896904Y-100600238D01*
X64277857Y-100885952D02*
X64135000Y-100695476D01*
X63992142Y-100885952D01*
X226909524Y-103909761D02*
X226766667Y-103957380D01*
X226528572Y-103957380D01*
X226433334Y-103909761D01*
X226385715Y-103862142D01*
X226338096Y-103766904D01*
X226338096Y-103671666D01*
X226385715Y-103576428D01*
X226433334Y-103528809D01*
X226528572Y-103481190D01*
X226719048Y-103433571D01*
X226814286Y-103385952D01*
X226861905Y-103338333D01*
X226909524Y-103243095D01*
X226909524Y-103147857D01*
X226861905Y-103052619D01*
X226814286Y-103005000D01*
X226719048Y-102957380D01*
X226480953Y-102957380D01*
X226338096Y-103005000D01*
X226004762Y-102957380D02*
X225766667Y-103957380D01*
X225576191Y-103243095D01*
X225385715Y-103957380D01*
X225147620Y-102957380D01*
X224242858Y-103957380D02*
X224814286Y-103957380D01*
X224528572Y-103957380D02*
X224528572Y-102957380D01*
X224623810Y-103100238D01*
X224719048Y-103195476D01*
X224814286Y-103243095D01*
X223861905Y-103052619D02*
X223814286Y-103005000D01*
X223719048Y-102957380D01*
X223480953Y-102957380D01*
X223385715Y-103005000D01*
X223338096Y-103052619D01*
X223290477Y-103147857D01*
X223290477Y-103243095D01*
X223338096Y-103385952D01*
X223909524Y-103957380D01*
X223290477Y-103957380D01*
X228147620Y-106449761D02*
X228004762Y-106497380D01*
X227766667Y-106497380D01*
X227671429Y-106449761D01*
X227623810Y-106402142D01*
X227576191Y-106306904D01*
X227576191Y-106211666D01*
X227623810Y-106116428D01*
X227671429Y-106068809D01*
X227766667Y-106021190D01*
X227957143Y-105973571D01*
X228052381Y-105925952D01*
X228100001Y-105878333D01*
X228147620Y-105783095D01*
X228147620Y-105687857D01*
X228100001Y-105592619D01*
X228052381Y-105545000D01*
X227957143Y-105497380D01*
X227719048Y-105497380D01*
X227576191Y-105545000D01*
X227242858Y-105497380D02*
X227004762Y-106497380D01*
X226814286Y-105783095D01*
X226623810Y-106497380D01*
X226385715Y-105497380D01*
X226242858Y-106592619D02*
X225480953Y-106592619D01*
X225242858Y-106497380D02*
X225242858Y-105497380D01*
X224861905Y-105497380D01*
X224766667Y-105545000D01*
X224719048Y-105592619D01*
X224671429Y-105687857D01*
X224671429Y-105830714D01*
X224719048Y-105925952D01*
X224766667Y-105973571D01*
X224861905Y-106021190D01*
X225242858Y-106021190D01*
X223814286Y-105830714D02*
X223814286Y-106497380D01*
X224242858Y-105830714D02*
X224242858Y-106354523D01*
X224195239Y-106449761D01*
X224100001Y-106497380D01*
X223957143Y-106497380D01*
X223861905Y-106449761D01*
X223814286Y-106402142D01*
X223385715Y-106449761D02*
X223290477Y-106497380D01*
X223100001Y-106497380D01*
X223004762Y-106449761D01*
X222957143Y-106354523D01*
X222957143Y-106306904D01*
X223004762Y-106211666D01*
X223100001Y-106164047D01*
X223242858Y-106164047D01*
X223338096Y-106116428D01*
X223385715Y-106021190D01*
X223385715Y-105973571D01*
X223338096Y-105878333D01*
X223242858Y-105830714D01*
X223100001Y-105830714D01*
X223004762Y-105878333D01*
X222528572Y-106497380D02*
X222528572Y-105497380D01*
X222100001Y-106497380D02*
X222100001Y-105973571D01*
X222147620Y-105878333D01*
X222242858Y-105830714D01*
X222385715Y-105830714D01*
X222480953Y-105878333D01*
X222528572Y-105925952D01*
X222850000Y-100457380D02*
X222850000Y-100695476D01*
X223088095Y-100600238D02*
X222850000Y-100695476D01*
X222611904Y-100600238D01*
X222992857Y-100885952D02*
X222850000Y-100695476D01*
X222707142Y-100885952D01*
X103306571Y-113006285D02*
X103354190Y-113149142D01*
X103401809Y-113196761D01*
X103497047Y-113244380D01*
X103639904Y-113244380D01*
X103735142Y-113196761D01*
X103782761Y-113149142D01*
X103830380Y-113053904D01*
X103830380Y-112672952D01*
X102830380Y-112672952D01*
X102830380Y-113006285D01*
X102878000Y-113101523D01*
X102925619Y-113149142D01*
X103020857Y-113196761D01*
X103116095Y-113196761D01*
X103211333Y-113149142D01*
X103258952Y-113101523D01*
X103306571Y-113006285D01*
X103306571Y-112672952D01*
X102830380Y-113530095D02*
X102830380Y-114101523D01*
X103830380Y-113815809D02*
X102830380Y-113815809D01*
X103830380Y-114958666D02*
X103830380Y-114387238D01*
X103830380Y-114672952D02*
X102830380Y-114672952D01*
X102973238Y-114577714D01*
X103068476Y-114482476D01*
X103116095Y-114387238D01*
X104957571Y-109950738D02*
X105005190Y-110093595D01*
X105052809Y-110141214D01*
X105148047Y-110188833D01*
X105290904Y-110188833D01*
X105386142Y-110141214D01*
X105433761Y-110093595D01*
X105481380Y-109998357D01*
X105481380Y-109617404D01*
X104481380Y-109617404D01*
X104481380Y-109950738D01*
X104529000Y-110045976D01*
X104576619Y-110093595D01*
X104671857Y-110141214D01*
X104767095Y-110141214D01*
X104862333Y-110093595D01*
X104909952Y-110045976D01*
X104957571Y-109950738D01*
X104957571Y-109617404D01*
X105481380Y-111045976D02*
X104957571Y-111045976D01*
X104862333Y-110998357D01*
X104814714Y-110903119D01*
X104814714Y-110712642D01*
X104862333Y-110617404D01*
X105433761Y-111045976D02*
X105481380Y-110950738D01*
X105481380Y-110712642D01*
X105433761Y-110617404D01*
X105338523Y-110569785D01*
X105243285Y-110569785D01*
X105148047Y-110617404D01*
X105100428Y-110712642D01*
X105100428Y-110950738D01*
X105052809Y-111045976D01*
X104814714Y-111379309D02*
X104814714Y-111760261D01*
X104481380Y-111522166D02*
X105338523Y-111522166D01*
X105433761Y-111569785D01*
X105481380Y-111665023D01*
X105481380Y-111760261D01*
X104814714Y-111950738D02*
X104814714Y-112331690D01*
X104481380Y-112093595D02*
X105338523Y-112093595D01*
X105433761Y-112141214D01*
X105481380Y-112236452D01*
X105481380Y-112331690D01*
X105433761Y-113045976D02*
X105481380Y-112950738D01*
X105481380Y-112760261D01*
X105433761Y-112665023D01*
X105338523Y-112617404D01*
X104957571Y-112617404D01*
X104862333Y-112665023D01*
X104814714Y-112760261D01*
X104814714Y-112950738D01*
X104862333Y-113045976D01*
X104957571Y-113093595D01*
X105052809Y-113093595D01*
X105148047Y-112617404D01*
X105481380Y-113522166D02*
X104814714Y-113522166D01*
X105005190Y-113522166D02*
X104909952Y-113569785D01*
X104862333Y-113617404D01*
X104814714Y-113712642D01*
X104814714Y-113807880D01*
X104814714Y-114045976D02*
X105481380Y-114284071D01*
X104814714Y-114522166D02*
X105481380Y-114284071D01*
X105719476Y-114188833D01*
X105767095Y-114141214D01*
X105814714Y-114045976D01*
X105576619Y-114665023D02*
X105576619Y-115426928D01*
X105386142Y-116236452D02*
X105433761Y-116188833D01*
X105481380Y-116045976D01*
X105481380Y-115950738D01*
X105433761Y-115807880D01*
X105338523Y-115712642D01*
X105243285Y-115665023D01*
X105052809Y-115617404D01*
X104909952Y-115617404D01*
X104719476Y-115665023D01*
X104624238Y-115712642D01*
X104529000Y-115807880D01*
X104481380Y-115950738D01*
X104481380Y-116045976D01*
X104529000Y-116188833D01*
X104576619Y-116236452D01*
X105433761Y-117045976D02*
X105481380Y-116950738D01*
X105481380Y-116760261D01*
X105433761Y-116665023D01*
X105338523Y-116617404D01*
X104957571Y-116617404D01*
X104862333Y-116665023D01*
X104814714Y-116760261D01*
X104814714Y-116950738D01*
X104862333Y-117045976D01*
X104957571Y-117093595D01*
X105052809Y-117093595D01*
X105148047Y-116617404D01*
X105481380Y-117665023D02*
X105433761Y-117569785D01*
X105338523Y-117522166D01*
X104481380Y-117522166D01*
X105481380Y-118188833D02*
X105433761Y-118093595D01*
X105338523Y-118045976D01*
X104481380Y-118045976D01*
X109093000Y-113371380D02*
X109093000Y-113609476D01*
X109331095Y-113514238D02*
X109093000Y-113609476D01*
X108854904Y-113514238D01*
X109235857Y-113799952D02*
X109093000Y-113609476D01*
X108950142Y-113799952D01*
X115101666Y-95532380D02*
X115435000Y-95056190D01*
X115673095Y-95532380D02*
X115673095Y-94532380D01*
X115292142Y-94532380D01*
X115196904Y-94580000D01*
X115149285Y-94627619D01*
X115101666Y-94722857D01*
X115101666Y-94865714D01*
X115149285Y-94960952D01*
X115196904Y-95008571D01*
X115292142Y-95056190D01*
X115673095Y-95056190D01*
X114768333Y-94532380D02*
X114149285Y-94532380D01*
X114482619Y-94913333D01*
X114339761Y-94913333D01*
X114244523Y-94960952D01*
X114196904Y-95008571D01*
X114149285Y-95103809D01*
X114149285Y-95341904D01*
X114196904Y-95437142D01*
X114244523Y-95484761D01*
X114339761Y-95532380D01*
X114625476Y-95532380D01*
X114720714Y-95484761D01*
X114768333Y-95437142D01*
X115101666Y-91722380D02*
X115435000Y-91246190D01*
X115673095Y-91722380D02*
X115673095Y-90722380D01*
X115292142Y-90722380D01*
X115196904Y-90770000D01*
X115149285Y-90817619D01*
X115101666Y-90912857D01*
X115101666Y-91055714D01*
X115149285Y-91150952D01*
X115196904Y-91198571D01*
X115292142Y-91246190D01*
X115673095Y-91246190D01*
X114244523Y-91055714D02*
X114244523Y-91722380D01*
X114482619Y-90674761D02*
X114720714Y-91389047D01*
X114101666Y-91389047D01*
X115101666Y-87912380D02*
X115435000Y-87436190D01*
X115673095Y-87912380D02*
X115673095Y-86912380D01*
X115292142Y-86912380D01*
X115196904Y-86960000D01*
X115149285Y-87007619D01*
X115101666Y-87102857D01*
X115101666Y-87245714D01*
X115149285Y-87340952D01*
X115196904Y-87388571D01*
X115292142Y-87436190D01*
X115673095Y-87436190D01*
X114196904Y-86912380D02*
X114673095Y-86912380D01*
X114720714Y-87388571D01*
X114673095Y-87340952D01*
X114577857Y-87293333D01*
X114339761Y-87293333D01*
X114244523Y-87340952D01*
X114196904Y-87388571D01*
X114149285Y-87483809D01*
X114149285Y-87721904D01*
X114196904Y-87817142D01*
X114244523Y-87864761D01*
X114339761Y-87912380D01*
X114577857Y-87912380D01*
X114673095Y-87864761D01*
X114720714Y-87817142D01*
X115101666Y-84002379D02*
X115435000Y-83526189D01*
X115673095Y-84002379D02*
X115673095Y-83002379D01*
X115292142Y-83002379D01*
X115196904Y-83049999D01*
X115149285Y-83097618D01*
X115101666Y-83192856D01*
X115101666Y-83335713D01*
X115149285Y-83430951D01*
X115196904Y-83478570D01*
X115292142Y-83526189D01*
X115673095Y-83526189D01*
X114244523Y-83002379D02*
X114435000Y-83002379D01*
X114530238Y-83049999D01*
X114577857Y-83097618D01*
X114673095Y-83240475D01*
X114720714Y-83430951D01*
X114720714Y-83811903D01*
X114673095Y-83907141D01*
X114625476Y-83954760D01*
X114530238Y-84002379D01*
X114339761Y-84002379D01*
X114244523Y-83954760D01*
X114196904Y-83907141D01*
X114149285Y-83811903D01*
X114149285Y-83573808D01*
X114196904Y-83478570D01*
X114244523Y-83430951D01*
X114339761Y-83383332D01*
X114530238Y-83383332D01*
X114625476Y-83430951D01*
X114673095Y-83478570D01*
X114720714Y-83573808D01*
X115101666Y-80292380D02*
X115435000Y-79816190D01*
X115673095Y-80292380D02*
X115673095Y-79292380D01*
X115292142Y-79292380D01*
X115196904Y-79340000D01*
X115149285Y-79387619D01*
X115101666Y-79482857D01*
X115101666Y-79625714D01*
X115149285Y-79720952D01*
X115196904Y-79768571D01*
X115292142Y-79816190D01*
X115673095Y-79816190D01*
X114768333Y-79292380D02*
X114101666Y-79292380D01*
X114530238Y-80292380D01*
X115101666Y-76482380D02*
X115435000Y-76006190D01*
X115673095Y-76482380D02*
X115673095Y-75482380D01*
X115292142Y-75482380D01*
X115196904Y-75530000D01*
X115149285Y-75577619D01*
X115101666Y-75672857D01*
X115101666Y-75815714D01*
X115149285Y-75910952D01*
X115196904Y-75958571D01*
X115292142Y-76006190D01*
X115673095Y-76006190D01*
X114530238Y-75910952D02*
X114625476Y-75863333D01*
X114673095Y-75815714D01*
X114720714Y-75720476D01*
X114720714Y-75672857D01*
X114673095Y-75577619D01*
X114625476Y-75530000D01*
X114530238Y-75482380D01*
X114339761Y-75482380D01*
X114244523Y-75530000D01*
X114196904Y-75577619D01*
X114149285Y-75672857D01*
X114149285Y-75720476D01*
X114196904Y-75815714D01*
X114244523Y-75863333D01*
X114339761Y-75910952D01*
X114530238Y-75910952D01*
X114625476Y-75958571D01*
X114673095Y-76006190D01*
X114720714Y-76101428D01*
X114720714Y-76291904D01*
X114673095Y-76387142D01*
X114625476Y-76434761D01*
X114530238Y-76482380D01*
X114339761Y-76482380D01*
X114244523Y-76434761D01*
X114196904Y-76387142D01*
X114149285Y-76291904D01*
X114149285Y-76101428D01*
X114196904Y-76006190D01*
X114244523Y-75958571D01*
X114339761Y-75910952D01*
X125896666Y-95532380D02*
X126230000Y-95056190D01*
X126468095Y-95532380D02*
X126468095Y-94532380D01*
X126087142Y-94532380D01*
X125991904Y-94580000D01*
X125944285Y-94627619D01*
X125896666Y-94722857D01*
X125896666Y-94865714D01*
X125944285Y-94960952D01*
X125991904Y-95008571D01*
X126087142Y-95056190D01*
X126468095Y-95056190D01*
X125420476Y-95532380D02*
X125230000Y-95532380D01*
X125134761Y-95484761D01*
X125087142Y-95437142D01*
X124991904Y-95294285D01*
X124944285Y-95103809D01*
X124944285Y-94722857D01*
X124991904Y-94627619D01*
X125039523Y-94580000D01*
X125134761Y-94532380D01*
X125325238Y-94532380D01*
X125420476Y-94580000D01*
X125468095Y-94627619D01*
X125515714Y-94722857D01*
X125515714Y-94960952D01*
X125468095Y-95056190D01*
X125420476Y-95103809D01*
X125325238Y-95151428D01*
X125134761Y-95151428D01*
X125039523Y-95103809D01*
X124991904Y-95056190D01*
X124944285Y-94960952D01*
X126372857Y-91722380D02*
X126706190Y-91246190D01*
X126944285Y-91722380D02*
X126944285Y-90722380D01*
X126563333Y-90722380D01*
X126468095Y-90770000D01*
X126420476Y-90817619D01*
X126372857Y-90912857D01*
X126372857Y-91055714D01*
X126420476Y-91150952D01*
X126468095Y-91198571D01*
X126563333Y-91246190D01*
X126944285Y-91246190D01*
X125420476Y-91722380D02*
X125991904Y-91722380D01*
X125706190Y-91722380D02*
X125706190Y-90722380D01*
X125801428Y-90865238D01*
X125896666Y-90960476D01*
X125991904Y-91008095D01*
X124801428Y-90722380D02*
X124706190Y-90722380D01*
X124610952Y-90770000D01*
X124563333Y-90817619D01*
X124515714Y-90912857D01*
X124468095Y-91103333D01*
X124468095Y-91341428D01*
X124515714Y-91531904D01*
X124563333Y-91627142D01*
X124610952Y-91674761D01*
X124706190Y-91722380D01*
X124801428Y-91722380D01*
X124896666Y-91674761D01*
X124944285Y-91627142D01*
X124991904Y-91531904D01*
X125039523Y-91341428D01*
X125039523Y-91103333D01*
X124991904Y-90912857D01*
X124944285Y-90817619D01*
X124896666Y-90770000D01*
X124801428Y-90722380D01*
X126372857Y-87912380D02*
X126706190Y-87436190D01*
X126944285Y-87912380D02*
X126944285Y-86912380D01*
X126563333Y-86912380D01*
X126468095Y-86960000D01*
X126420476Y-87007619D01*
X126372857Y-87102857D01*
X126372857Y-87245714D01*
X126420476Y-87340952D01*
X126468095Y-87388571D01*
X126563333Y-87436190D01*
X126944285Y-87436190D01*
X125420476Y-87912380D02*
X125991904Y-87912380D01*
X125706190Y-87912380D02*
X125706190Y-86912380D01*
X125801428Y-87055238D01*
X125896666Y-87150476D01*
X125991904Y-87198095D01*
X124468095Y-87912380D02*
X125039523Y-87912380D01*
X124753809Y-87912380D02*
X124753809Y-86912380D01*
X124849047Y-87055238D01*
X124944285Y-87150476D01*
X125039523Y-87198095D01*
X126372857Y-84102380D02*
X126706190Y-83626190D01*
X126944285Y-84102380D02*
X126944285Y-83102380D01*
X126563333Y-83102380D01*
X126468095Y-83150000D01*
X126420476Y-83197619D01*
X126372857Y-83292857D01*
X126372857Y-83435714D01*
X126420476Y-83530952D01*
X126468095Y-83578571D01*
X126563333Y-83626190D01*
X126944285Y-83626190D01*
X125420476Y-84102380D02*
X125991904Y-84102380D01*
X125706190Y-84102380D02*
X125706190Y-83102380D01*
X125801428Y-83245238D01*
X125896666Y-83340476D01*
X125991904Y-83388095D01*
X125039523Y-83197619D02*
X124991904Y-83150000D01*
X124896666Y-83102380D01*
X124658571Y-83102380D01*
X124563333Y-83150000D01*
X124515714Y-83197619D01*
X124468095Y-83292857D01*
X124468095Y-83388095D01*
X124515714Y-83530952D01*
X125087142Y-84102380D01*
X124468095Y-84102380D01*
X126372857Y-80292380D02*
X126706190Y-79816190D01*
X126944285Y-80292380D02*
X126944285Y-79292380D01*
X126563333Y-79292380D01*
X126468095Y-79340000D01*
X126420476Y-79387619D01*
X126372857Y-79482857D01*
X126372857Y-79625714D01*
X126420476Y-79720952D01*
X126468095Y-79768571D01*
X126563333Y-79816190D01*
X126944285Y-79816190D01*
X125420476Y-80292380D02*
X125991904Y-80292380D01*
X125706190Y-80292380D02*
X125706190Y-79292380D01*
X125801428Y-79435238D01*
X125896666Y-79530476D01*
X125991904Y-79578095D01*
X125087142Y-79292380D02*
X124468095Y-79292380D01*
X124801428Y-79673333D01*
X124658571Y-79673333D01*
X124563333Y-79720952D01*
X124515714Y-79768571D01*
X124468095Y-79863809D01*
X124468095Y-80101904D01*
X124515714Y-80197142D01*
X124563333Y-80244761D01*
X124658571Y-80292380D01*
X124944285Y-80292380D01*
X125039523Y-80244761D01*
X125087142Y-80197142D01*
X126372857Y-76482380D02*
X126706190Y-76006190D01*
X126944285Y-76482380D02*
X126944285Y-75482380D01*
X126563333Y-75482380D01*
X126468095Y-75530000D01*
X126420476Y-75577619D01*
X126372857Y-75672857D01*
X126372857Y-75815714D01*
X126420476Y-75910952D01*
X126468095Y-75958571D01*
X126563333Y-76006190D01*
X126944285Y-76006190D01*
X125420476Y-76482380D02*
X125991904Y-76482380D01*
X125706190Y-76482380D02*
X125706190Y-75482380D01*
X125801428Y-75625238D01*
X125896666Y-75720476D01*
X125991904Y-75768095D01*
X124563333Y-75815714D02*
X124563333Y-76482380D01*
X124801428Y-75434761D02*
X125039523Y-76149047D01*
X124420476Y-76149047D01*
M02*
